<?xml version="1.0" standalone="no"?>
<!DOCTYPE svg PUBLIC "-//W3C//DTD SVG 1.1//EN" "http://www.w3.org/Graphics/SVG/1.1/DTD/svg11.dtd" >
<svg xmlns="http://www.w3.org/2000/svg" xmlns:xlink="http://www.w3.org/1999/xlink" version="1.1">
<metadata>
Created by FontForge 20201107 at Fri Apr 20 16:04:07 2018
 By 
Copyright 1985-1994 Adobe Systems Inc.
</metadata>
<defs>
<font id="Goudy-Bold" horiz-adv-x="1139" >
  <font-face 
    font-family="Goudy"
    font-weight="700"
    font-stretch="normal"
    units-per-em="2048"
    panose-1="2 2 8 0 0 0 0 0 0 0"
    ascent="1638"
    descent="-410"
    x-height="856"
    cap-height="1442"
    bbox="-311 -469 2048 1935"
    underline-thickness="104"
    underline-position="-281"
    unicode-range="U+0020-F002"
  />
<missing-glyph horiz-adv-x="0" 
 />
    <glyph glyph-name=".notdef" horiz-adv-x="0" 
 />
    <glyph glyph-name=".null" horiz-adv-x="0" 
 />
    <glyph glyph-name="nonmarkingreturn" horiz-adv-x="569" 
 />
    <glyph glyph-name="equal" unicode=" " horiz-adv-x="569" 
 />
    <glyph glyph-name="greater" unicode="!" horiz-adv-x="682" 
d="M504 1368q6 22 4 49q-4 23 -53 25q-86 0 -203 -21q-31 -8 -33 -39q0 -32 4 -59l94 -752q2 -18 7 -39q4 -26 24 -26q31 0 35 51zM346 369q-43 -4 -108 -72q-31 -29 -52 -59q-24 -31 -24 -54q0 -18 24 -47q21 -31 52 -61q30 -31 61 -51q14 -11 27 -17q12 -8 20 -8
q23 0 53 25q31 20 60 51q32 30 51 61q20 29 20 47q0 23 -20 54q-19 30 -51 59q-29 33 -60 51q-30 21 -53 21v0z" />
    <glyph glyph-name="question" unicode="&#x22;" horiz-adv-x="1024" 
d="M332 770l90 489q10 60 -31 111q-43 51 -106 53q-64 -2 -103 -53q-41 -51 -35 -111l91 -489h94zM786 770l90 489q11 60 -30 111q-43 51 -107 53q-63 -2 -102 -53q-41 -51 -35 -111l90 -489h94z" />
    <glyph glyph-name="at" unicode="#" 
d="M1020 598h-193l33 219h213v156h-190l59 413h-154l-59 -413h-219l61 413h-153l-62 -413h-233v-156h211l-33 -219h-235v-156h210l-65 -442h154l65 442h221l-65 -442h153l66 442h215v156zM707 817l-33 -219h-219l32 219h220z" />
    <glyph glyph-name="A" unicode="$" 
d="M522 887v0q-90 26 -157 73q-70 48 -72 146q0 102 65 162q64 57 164 57v-438zM606 608v0q60 -20 109 -39q47 -20 82 -49q36 -26 55 -72q18 -47 18 -120q-2 -117 -71 -191q-74 -78 -193 -80v551zM606 1319q74 0 152 -55q37 -31 65 -76q27 -49 33 -117q2 -27 6 -49
q4 -25 27 -25q28 2 30 19l46 164q6 14 4 43q-4 26 -39 55q-64 49 -154 76q-90 26 -170 32v117q0 33 -4 51q-8 19 -37 19q-28 0 -37 -19q-8 -18 -6 -51v-117q-151 -2 -268 -102q-125 -100 -127 -274q0 -95 35 -154q30 -63 86 -102q55 -39 127 -66q71 -27 147 -53v-578
q-141 2 -225 99q-84 92 -94 233q2 25 -4 41q-4 12 -33 12q-14 -2 -27 -30q-12 -33 -22 -78q-21 -101 -21 -160q0 -25 21 -47q18 -21 47 -39q59 -37 102 -55q125 -47 256 -56v-194q-2 -31 6 -49q9 -19 37 -21q29 2 37 21q4 18 4 49v194q189 15 309 132q123 114 125 307
q0 125 -45 207q-47 79 -116 127q-70 47 -142 73q-73 25 -131 39v457z" />
    <glyph glyph-name="B" unicode="%" horiz-adv-x="1821" 
d="M467 0h96l764 1386h-96zM1354 739q-148 -2 -244 -98q-100 -98 -102 -254q0 -172 96 -276q92 -109 270 -111q150 0 248 100q96 97 98 252q0 174 -92 281q-96 104 -274 106v0zM1331 684q68 0 111 -35t67 -90q45 -119 43 -233q2 -86 -18 -174q-14 -41 -45 -68
q-33 -29 -92 -29q-64 0 -107 39q-43 35 -67 90q-25 58 -35 117q-13 59 -13 113q-2 90 23 178q14 41 47 67q31 25 86 25v0zM438 1386q-147 -2 -243 -98q-101 -98 -103 -254q0 -172 96 -276q93 -109 271 -111q149 0 248 100q96 97 98 252q0 174 -92 281q-97 104 -275 106v0z
M416 1331q67 0 110 -35t68 -90q45 -119 43 -233q2 -86 -19 -174q-14 -41 -45 -68q-32 -29 -92 -29q-63 0 -106 39q-43 35 -68 90q-24 58 -35 117q-12 60 -12 113q-2 90 23 178q14 41 47 68q30 24 86 24v0z" />
    <glyph glyph-name="C" unicode="&#x26;" horiz-adv-x="1821" 
d="M889 98q-117 0 -225 58q-109 55 -193 139q-180 182 -184 364q0 60 20 99q17 41 43 65q27 27 51 39q27 10 39 10q13 0 29 -16q14 -18 27 -45q67 -115 174 -221q104 -109 211 -195q108 -86 182 -143q37 -29 57 -47q19 -21 19 -31q0 -12 -27 -25q-25 -14 -66 -26
q-88 -25 -157 -25v0zM100 475q0 -70 33 -151q33 -84 103 -164q69 -78 188 -129q117 -51 289 -54q129 0 268 39t235 121v0q56 -47 148 -100q45 -25 94 -41q47 -16 92 -19q60 3 105 19q47 16 80 39q69 51 69 80q-2 26 -29 24q-14 -10 -104 -14q-18 0 -63 20q-45 17 -93 45
q-47 29 -82 64q-36 31 -36 61q2 9 51 97q22 47 43 122q10 37 18 84q8 43 15 99q6 26 18 39q14 12 27 16q16 4 24 12q10 6 10 21q0 26 -32 26q-35 -6 -170 -8q-92 0 -140 4q-47 4 -71 4q-41 -2 -39 -28q0 -29 39 -33q35 -6 80 -16q45 -11 80 -47q32 -39 34 -136
q-2 -92 -34 -149q-35 -60 -46 -60q-22 3 -133 97q-112 92 -249 229q-138 139 -240 287q-49 71 -78 137q-31 66 -31 119q0 147 144 151q137 -2 223 -94q82 -90 119 -217q14 -49 39 -49q18 0 26 12q6 10 4 25q-26 157 -28 315q2 41 -23 41q-20 0 -33 -14q-14 -17 -34 -17
q-9 0 -37 15q-29 10 -70 24q-39 17 -86 27q-49 10 -100 10q-144 -2 -240 -86q-102 -84 -104 -233q2 -88 22 -129q19 -43 21 -70q-2 -4 -47 -29q-47 -24 -109 -75q-59 -52 -108 -140q-52 -88 -52 -223v0z" />
    <glyph glyph-name="D" unicode="'" horiz-adv-x="569" 
d="M332 770l90 489q10 60 -31 111q-43 51 -106 53q-64 -2 -103 -53q-41 -51 -35 -111l91 -489h94z" />
    <glyph glyph-name="E" unicode="(" horiz-adv-x="797" 
d="M385 627q0 192 39 346q37 149 84 260q49 110 84 178q33 66 35 88q0 10 -4 18q-7 9 -19 9q-29 0 -45 -23q-164 -172 -274 -395q-115 -227 -117 -481q2 -250 117 -478q110 -227 274 -399q18 -22 41 -22q25 2 27 30q-2 23 -35 90q-35 66 -84 175q-47 110 -84 262
q-39 151 -39 342v0z" />
    <glyph glyph-name="F" unicode=")" horiz-adv-x="797" 
d="M412 627q-2 -191 -35 -342q-35 -152 -84 -262q-47 -111 -84 -177q-17 -32 -27 -55q-12 -24 -12 -37q0 -6 6 -16t16 -10q29 0 46 22q167 172 278 399q111 228 113 478q-2 254 -113 481q-111 223 -278 395q-17 23 -41 23q-27 -2 -27 -31q0 -21 39 -86q37 -66 84 -176
q49 -111 84 -260q33 -154 35 -346v0z" />
    <glyph glyph-name="G" unicode="*" horiz-adv-x="1024" 
d="M512 1386q-25 0 -61 -16q-17 -8 -27 -27q-14 -18 -14 -49q0 -37 16 -67q12 -31 29 -64q18 -33 30 -71q13 -43 13 -99l-17 -10q-53 29 -86 66q-33 38 -55 75q-23 39 -47 64q-27 24 -72 24q-39 -2 -72 -28q-34 -29 -34 -68t22 -72q23 -34 62 -34q32 2 94 0q61 -7 170 -54
v-28q-53 -21 -96 -33q-43 -10 -74 -16q-62 -7 -94 -5q-39 -8 -62 -36q-22 -31 -22 -70q0 -35 34 -66q33 -30 72 -30q45 0 72 26q24 27 47 64q22 39 55 76q33 38 86 63l17 -10q0 -55 -13 -94q-12 -39 -30 -72q-17 -33 -29 -64q-16 -32 -16 -71q2 -53 41 -74q36 -20 61 -18
q29 -2 65 18q35 21 37 74q-2 71 -43 135q-16 33 -28 72q-17 39 -17 94l17 10q57 -25 90 -63q33 -37 53 -76q23 -37 49 -64q27 -26 68 -26q39 0 71 30q33 31 35 66q0 82 -84 106q-32 -2 -92 5q-59 6 -172 49v28q57 25 100 39q43 13 72 15q60 2 92 0q43 0 64 34q20 33 20 72
q-2 39 -35 68q-32 26 -71 28q-41 0 -68 -24q-26 -25 -49 -64q-20 -37 -53 -75q-33 -37 -90 -66l-17 10q0 56 17 99q12 38 28 71q19 33 31 64q12 30 12 67q0 31 -10 49q-10 19 -27 27q-36 16 -65 16v0z" />
    <glyph glyph-name="H" unicode="+" horiz-adv-x="1241" 
d="M532 610h-428v-176h428v-434h177v434h428v176h-428v424h-177v-424z" />
    <glyph glyph-name="I" unicode="," horiz-adv-x="569" 
d="M291 369q-25 -2 -53 -29q-31 -27 -58 -53q-37 -33 -59 -54q-23 -20 -23 -36q0 -15 25 -31q20 -17 49 -41q29 -21 51 -55q21 -33 21 -82q0 -51 -23 -88q-22 -39 -53 -66q-29 -26 -51 -45q-27 -20 -27 -39q2 -24 25 -24q88 4 204 129q56 59 91 131q34 71 36 147
q-2 96 -49 164q-20 35 -49 53q-29 19 -57 19v0z" />
    <glyph glyph-name="J" unicode="-" horiz-adv-x="682" 
d="M160 471q-29 -8 -49 -20q-25 -13 -25 -31v-135q0 -27 20 -27q15 0 54 14l360 127q31 13 53 23q21 12 21 29v135q0 26 -21 26q-14 0 -53 -14z" />
    <glyph glyph-name="K" unicode="." horiz-adv-x="569" 
d="M274 369q-43 -4 -108 -72q-31 -29 -51 -59q-25 -31 -25 -54q0 -18 25 -47q20 -31 51 -61q31 -31 61 -51q15 -11 27 -17q12 -8 20 -8q23 0 54 25q30 20 59 51q33 30 51 61q21 29 21 47q0 23 -21 54q-18 30 -51 59q-29 33 -59 51q-31 21 -54 21v0z" />
    <glyph glyph-name="L" unicode="/" horiz-adv-x="569" 
d="M471 1526l-545 -1792h174l545 1792h-174z" />
    <glyph glyph-name="M" unicode="0" 
d="M500 1280q170 -4 278 -207q111 -203 113 -524q0 -60 -6 -133q-9 -74 -35 -144q-25 -67 -74 -112q-49 -47 -131 -47q-168 4 -276 211q-113 200 -115 520q0 63 10 139q8 72 33 141q25 70 74 113q49 41 129 43v0zM592 1386q-19 0 -98 -16q-80 -23 -181 -96
q-98 -74 -170 -232q-75 -159 -77 -434q0 -178 49 -297q47 -123 118 -196q74 -72 158 -105q82 -33 156 -33q22 0 102 21q80 22 178 96q99 76 172 234q72 157 74 428q0 180 -45 303q-47 119 -119 192q-71 74 -155 107q-84 28 -162 28v0z" />
    <glyph glyph-name="N" unicode="1" 
d="M682 1161q0 62 8 119t8 86q-4 20 -20 20q-4 -2 -70 -49q-37 -20 -106 -49q-70 -29 -185 -59q-20 -2 -45 -11q-28 -10 -30 -40q0 -5 8 -19q6 -16 20 -16q15 0 54 12q34 8 73 8q25 2 47 -12q21 -19 21 -107v-845q-2 -72 -31 -99q-33 -28 -74 -32q-41 -5 -71 -11
q-35 -6 -35 -34q0 -5 4 -17t12 -14q125 6 293 8q135 -4 252 -8q49 0 78 4q26 2 26 31q0 14 -8 22q-10 6 -26 8q-35 2 -84 6q-45 9 -80 39q-39 31 -39 115v944z" />
    <glyph glyph-name="O" unicode="2" 
d="M418 203q-39 0 -53 8q-15 6 -15 16q2 25 86 115q82 92 187 223q106 131 186 268q82 138 84 250q-2 148 -98 226q-97 77 -240 77q-102 0 -182 -32q-80 -33 -140 -80q-55 -47 -86 -88q-16 -21 -22 -37q-10 -19 -10 -29q-2 -26 32 -26q15 0 39 22q25 21 58 45q32 27 82 45
q47 21 108 21q236 -4 242 -232q-2 -67 -31 -149q-31 -84 -82 -168q-106 -176 -203 -291q-182 -227 -235 -291q-31 -35 -39 -53q-10 -16 -10 -31q0 -12 18 -14q15 -6 33 -6q65 6 258 8q336 -4 428 -8q47 2 74 49q24 45 39 76q28 49 61 114q31 66 33 99q-2 26 -29 28
q-16 0 -35 -22q-18 -23 -45 -55q-26 -29 -71 -52q-50 -26 -125 -26h-297z" />
    <glyph glyph-name="P" unicode="3" 
d="M487 678q238 -4 234 -252q-2 -158 -96 -262q-99 -107 -260 -109q-64 0 -111 19q-47 16 -78 37q-31 22 -51 38q-23 15 -41 15q-16 0 -23 -10q-10 -13 -10 -25q0 -35 94 -90q47 -25 115 -41q66 -18 148 -21q237 5 393 152q155 145 157 371q-2 125 -45 194q-45 68 -106 96
q-62 29 -107 37q-47 9 -49 11q0 12 31 36q29 25 63 62q37 37 66 86q27 49 27 110q-5 132 -101 195q-96 59 -219 59q-162 -4 -274 -94q-56 -41 -86 -78q-35 -41 -35 -63q0 -4 8 -14q6 -13 21 -13q10 0 34 25q23 20 60 45q37 29 84 49q45 21 94 21q100 0 160 -58
q57 -59 57 -160q-2 -81 -43 -141q-41 -61 -98 -100q-54 -41 -97 -66q-20 -12 -32 -22q-15 -13 -15 -23q-2 -24 25 -26q10 0 37 6q26 4 69 4v0z" />
    <glyph glyph-name="Q" unicode="4" 
d="M620 641q0 -35 -6 -47q-8 -12 -49 -12h-280q-64 -2 -64 10q-2 18 33 53l317 406q25 41 41 47q11 -2 8 -49v-408zM252 776q-45 -53 -129 -158q-37 -49 -64 -94q-28 -47 -28 -82q0 -20 10 -30q10 -13 25 -15q32 -8 67 -6h434q41 0 49 -4q4 -6 4 -57v-334q0 -49 -8 -68
q-10 -18 -10 -45q0 -14 23 -14q28 0 116 16q39 11 68 19t29 20v422q0 29 6 37t22 8h88q37 0 58 29q22 24 30 65q15 84 13 162q-2 27 -25 27q-25 -2 -33 -41q-12 -41 -57 -43h-76q-28 0 -26 49v686v55q-2 33 -29 35q-12 0 -35 -16q-22 -17 -45 -41q-49 -56 -72 -82z" />
    <glyph glyph-name="R" unicode="5" 
d="M199 768q-4 -25 -4 -39q-3 -18 -3 -31q3 -24 27 -24q72 6 186 10q140 2 234 -55q94 -60 96 -209q-2 -170 -121 -264q-116 -97 -282 -97q-96 2 -158 25q-61 22 -88 25q-8 0 -18 -3q-13 -6 -13 -20q0 -27 45 -45q43 -21 101 -37q129 -27 188 -27q158 3 264 58
q109 51 172 133q68 82 97 172q26 88 26 160q-2 204 -125 295q-123 84 -317 84q-174 -11 -191 -17q-16 0 -16 21q-2 20 2 45l27 164q10 65 32 79q23 11 86 9h310q65 -2 86 6q18 8 28 51l52 164q10 30 12 41q2 18 -25 20q-26 -2 -45 -37q-12 -14 -26 -24q-15 -15 -43 -15h-453
q-10 0 -27 -4q-16 -6 -20 -18z" />
    <glyph glyph-name="S" unicode="6" 
d="M848 367q2 -123 -45 -218q-49 -98 -191 -100q-80 0 -135 43q-59 41 -96 107q-76 139 -74 280q0 117 70 197q67 78 188 80q78 0 133 -35q54 -35 86 -94q64 -123 64 -260v0zM932 1415q-92 0 -236 -47q-141 -49 -284 -154q-144 -104 -240 -270q-100 -166 -102 -399
q0 -234 122 -396q123 -167 365 -172q231 3 369 140q139 135 141 364q0 170 -94 283q-97 112 -273 115q-82 0 -137 -15q-55 -16 -88 -35q-31 -18 -49 -32q-21 -17 -37 -17q-8 0 -12 15q-2 10 -2 16q0 90 98 238q96 147 266 235q60 29 103 43q43 12 73 20q62 13 62 41
q0 19 -15 25q-16 2 -30 2v0z" />
    <glyph glyph-name="T" unicode="7" 
d="M754 1182h63q19 0 31 -7q12 -8 12 -22q-2 -51 -24 -104q-27 -54 -54 -103q-45 -86 -110 -178q-68 -92 -138 -197q-67 -100 -112 -217q-51 -116 -51 -250q0 -22 2 -53t10 -59q12 -66 78 -70q26 0 110 19q39 8 68 20q29 10 29 25q-2 39 -17 96q-20 57 -20 141q0 111 39 225
q34 113 80 211q159 365 200 488q21 67 27 108q4 39 4 70t-6 45q-8 16 -21 18q-26 0 -49 -2h-641q-24 0 -47 -32q-22 -31 -39 -82q-37 -107 -37 -211q0 -15 6 -39q7 -27 27 -27q21 0 33 31q12 29 26 63q15 37 50 66q32 27 96 27h375z" />
    <glyph glyph-name="U" unicode="8" 
d="M850 1053q0 -93 -51 -150q-54 -61 -150 -61q-61 0 -196 69q-60 33 -105 82q-47 45 -47 107q2 102 76 159q71 58 170 58q129 0 215 -64q86 -65 88 -200v0zM145 1003q2 -210 170 -299q-73 -22 -151 -114q-84 -90 -86 -232q0 -59 22 -122q23 -66 74 -125q51 -56 145 -95
q93 -36 232 -39q205 0 352 101q152 100 156 313q0 92 -23 156q-22 61 -65 106q-86 86 -224 140v4q113 28 183 98q69 72 71 178q0 80 -34 139q-39 60 -99 99q-125 75 -272 75q-176 0 -309 -98q-138 -98 -142 -285v0zM676 551q96 -33 155 -94q58 -64 58 -170q-2 -125 -96 -183
q-95 -59 -213 -59q-162 2 -246 119q-86 108 -86 264q0 78 35 145q32 66 112 84z" />
    <glyph glyph-name="V" unicode="9" 
d="M289 999q-2 125 47 219q49 97 188 99q84 0 142 -39q55 -41 92 -107q37 -65 55 -139q16 -76 16 -145q0 -117 -65 -193q-68 -82 -193 -84q-75 0 -129 39q-55 35 -88 92q-65 121 -65 258v0zM205 -23q96 0 239 48q144 45 285 143q143 100 240 262q96 160 98 389
q0 236 -119 399q-123 164 -368 168q-228 -2 -367 -137q-141 -135 -143 -366q0 -170 98 -281q92 -115 268 -117q86 0 139 17q54 14 86 32q33 19 54 35q18 15 32 15q13 0 15 -11v-20q-2 -88 -96 -227q-97 -142 -269 -222q-55 -20 -98 -32q-45 -15 -76 -23t-45 -16
q-18 -10 -18 -29q0 -18 18 -20q14 -7 27 -7v0z" />
    <glyph glyph-name="W" unicode=":" horiz-adv-x="682" 
d="M340 913q-43 -4 -109 -71q-30 -29 -51 -60q-24 -30 -24 -53q0 -18 24 -47q21 -31 51 -62q31 -30 62 -51q14 -10 26 -16q13 -8 21 -8q22 0 53 24q31 21 60 51q32 31 51 62q20 29 20 47q0 23 -20 53q-19 31 -51 60q-29 32 -60 51q-31 20 -53 20v0zM340 369q-43 -4 -109 -72
q-30 -29 -51 -59q-24 -31 -24 -54q0 -18 24 -47q21 -31 51 -61q31 -31 62 -51q14 -11 26 -17q13 -8 21 -8q22 0 53 25q31 20 60 51q32 30 51 61q20 29 20 47q0 23 -20 54q-19 30 -51 59q-29 33 -60 51q-31 21 -53 21v0z" />
    <glyph glyph-name="X" unicode=";" horiz-adv-x="682" 
d="M354 369q-24 -2 -53 -29q-31 -27 -57 -53q-37 -33 -60 -54q-22 -20 -22 -36q0 -15 24 -31q21 -17 50 -41q28 -21 51 -55q20 -33 20 -82q0 -51 -22 -88q-23 -39 -54 -66q-28 -26 -51 -45q-26 -20 -26 -39q2 -24 24 -24q88 4 205 129q55 59 90 131q35 71 37 147
q-2 96 -49 164q-21 35 -49 53q-29 19 -58 19v0zM342 913q-10 0 -39 -22q-29 -23 -63 -55q-33 -33 -56 -62q-26 -31 -26 -45q0 -10 26 -39q23 -29 56 -63q34 -33 63 -56q29 -26 39 -26q14 0 45 26q29 23 61 56q33 34 56 63q22 29 22 39q0 14 -22 45q-23 29 -56 62
q-32 32 -61 55q-31 22 -45 22v0z" />
    <glyph glyph-name="Y" unicode="&#x3c;" horiz-adv-x="1241" 
d="M328 516l815 375v172v0l-1043 -471v-152l1043 -471v0v172z" />
    <glyph glyph-name="Z" unicode="=" horiz-adv-x="1241" 
d="M1137 811h-1033v-176h1033v176zM1137 410h-1033v-177h1033v177z" />
    <glyph glyph-name="bracketleft" unicode="&#x3e;" horiz-adv-x="1241" 
d="M98 141v-172v0l1043 471v152l-1043 471v0v-172l815 -375z" />
    <glyph glyph-name="backslash" unicode="?" horiz-adv-x="797" 
d="M365 1442q-132 -4 -203 -74q-76 -68 -76 -115q0 -8 6 -18q4 -12 17 -12q16 0 30 16q17 14 35 33q39 45 111 49q61 -2 96 -37q33 -39 33 -98q0 -47 -23 -117q-22 -72 -55 -150q-29 -77 -53 -147q-27 -72 -27 -121q0 -61 23 -106q20 -47 51 -47q20 0 20 20q0 19 -4 41
q-6 18 -6 35q0 88 51 168q49 80 109 153q63 74 112 148q45 72 47 141q-2 125 -92 182q-88 56 -202 56v0zM334 369q-43 -4 -109 -72q-30 -29 -51 -59q-25 -31 -25 -54q0 -18 25 -47q21 -31 51 -61q31 -31 62 -51q14 -11 26 -17q13 -8 21 -8q22 0 53 25q31 20 59 51
q33 30 52 61q20 29 20 47q0 23 -20 54q-19 30 -52 59q-28 33 -59 51q-31 21 -53 21v0z" />
    <glyph glyph-name="bracketright" unicode="@" horiz-adv-x="1530" 
d="M803 1012q55 -2 80 -50q20 -49 20 -98q0 -90 -65 -278q-33 -86 -82 -148q-25 -30 -52 -47q-30 -20 -65 -20q-66 2 -86 59q-23 53 -21 109q0 116 74 286q37 80 86 133q49 52 111 54v0zM948 930h-4q-31 143 -176 145q-180 -4 -305 -147q-131 -140 -133 -320q0 -131 69 -213
q70 -84 199 -86q88 0 143 45q58 45 107 117v0q6 -68 41 -119q37 -53 110 -55q144 0 238 70q92 67 143 161q27 49 45 99q19 49 29 94q18 92 18 147q-2 240 -184 414t-485 178q-326 -4 -533 -217q-213 -213 -215 -541q4 -323 226 -520q215 -200 536 -205q434 11 643 396h-135
q-84 -121 -207 -197q-127 -78 -278 -78q-281 0 -467 168q-193 162 -197 451q2 280 184 450q179 170 455 172q266 -4 401 -151q136 -144 136 -324q-2 -137 -86 -309q-41 -80 -88 -131q-50 -57 -101 -57q-45 0 -55 34q-12 33 -2 70l160 588h-203z" />
    <glyph glyph-name="asciicircum" unicode="A" horiz-adv-x="1593" 
d="M575 606q-28 0 -45 2q-20 2 -20 17q2 41 22 75l158 363q17 26 23 24q6 2 16 -16l168 -371q10 -16 16 -34q6 -19 6 -41q-2 -23 -65 -19h-279zM917 496q37 2 62 -29q24 -35 70 -152q34 -75 36 -137q0 -45 -20 -67q-23 -23 -51 -35q-29 -10 -49 -23q-25 -14 -25 -37
q0 -20 20 -22q17 -2 43 -2q91 6 226 8q178 -4 264 -8q43 0 59 4q15 2 15 27q0 26 -17 32q-16 4 -45 6q-28 5 -57 25q-31 18 -58 70l-552 1253q-19 45 -27 57q-8 8 -23 8q-16 0 -28 -22q-10 -23 -23 -49l-555 -1239q-18 -43 -43 -64q-28 -22 -53 -34q-25 -11 -41 -23
q-18 -10 -18 -29q0 -18 20 -20q19 -2 41 -2q88 6 180 8q97 -4 193 -8h71q33 0 35 28q0 21 -33 33q-32 8 -77 19q-41 12 -74 39q-37 26 -37 79q0 39 19 86q14 46 24 76q19 51 37 82q18 29 33 41q16 16 30 19q13 2 25 2h403z" />
    <glyph glyph-name="underscore" unicode="B" horiz-adv-x="1366" 
d="M473 1159q-2 90 21 143q14 27 45 39q26 13 77 13q142 -2 238 -88q94 -88 96 -232q4 -229 -215 -229h-123q-86 4 -112 24q-29 23 -27 93v237zM221 236q-2 -72 -24 -105q-27 -33 -62 -47t-61 -23q-29 -10 -29 -36q-2 -35 68 -33q67 6 145 8q102 -4 510 -8q516 10 522 446
q2 137 -69 226q-74 88 -259 133v4q111 39 168 116q56 76 56 172q0 21 -6 78q-11 54 -56 117q-20 31 -57 61q-37 29 -92 50q-105 45 -293 47q-258 -6 -520 -9q-121 5 -123 9q-6 0 -21 -2q-14 -4 -14 -29q0 -33 37 -43q33 -10 74 -23q41 -12 73 -55q33 -43 33 -149v-905z
M473 555q-2 80 18 121q21 37 107 37q139 0 227 -29q84 -31 129 -78t64 -100q12 -53 12 -101q0 -149 -76 -237q-78 -94 -229 -94q-145 -2 -199 53q-55 57 -53 199v229z" />
    <glyph glyph-name="grave" unicode="C" horiz-adv-x="1479" 
d="M1339 1390q-2 13 -24 13q-19 -2 -29 -33q-6 -12 -14 -23q-13 -12 -27 -12q-20 0 -61 21q-43 20 -101 43q-116 57 -305 61q-383 -8 -555 -268q-88 -119 -129 -256q-43 -141 -43 -272q-2 -62 25 -175q26 -110 98 -229q72 -117 211 -197q137 -83 358 -86q166 3 289 52
t203 114q84 70 123 133q39 60 39 93q0 10 -9 16q-10 6 -20 6q-18 -2 -55 -41t-99 -92q-61 -51 -147 -90q-88 -45 -209 -45q-145 0 -250 69q-106 68 -174 170q-133 224 -131 455q0 215 123 385q119 170 344 176q178 -2 311 -112q133 -109 209 -263q12 -20 27 -43
q12 -26 35 -26q26 0 26 26q2 25 -2 41z" />
    <glyph glyph-name="a" unicode="D" horiz-adv-x="1593" 
d="M229 205q-2 -66 -24 -94q-25 -29 -58 -37q-32 -8 -55 -17q-26 -8 -26 -37q0 -24 28 -26q27 -2 53 -2q95 6 189 8q92 -4 428 -8q86 0 213 41q125 39 248 127q122 90 206 239q84 150 86 369q-2 240 -96 379q-92 137 -233 198q-142 66 -287 82q-145 15 -254 15
q-158 -6 -317 -9q-146 0 -201 5q-55 4 -82 4q-10 0 -22 -9q-15 -8 -15 -24q0 -25 37 -33q33 -10 74 -24q45 -11 76 -48q32 -34 32 -112v-987zM481 1171q-2 107 27 152q31 41 139 41q193 -2 313 -74q121 -74 187 -182q67 -107 90 -217q22 -111 22 -189q-2 -315 -151 -473
q-152 -159 -395 -159q-66 -2 -144 24q-37 15 -61 45q-27 31 -27 80v952z" />
    <glyph glyph-name="b" unicode="E" horiz-adv-x="1251" 
d="M483 1202q0 55 8 84q7 31 29 43q43 18 219 16q148 -2 209 -34q60 -35 72 -84q12 -45 16 -82q4 -39 35 -39q35 2 39 39q2 35 -4 55l-8 203q0 35 -41 39q-260 -6 -467 -9q-445 5 -545 9q-45 -2 -45 -35q0 -29 39 -39q33 -10 78 -23q45 -10 80 -38q32 -31 34 -101v-958
q0 -90 -22 -127q-23 -37 -55 -47q-29 -11 -52 -17q-26 -8 -26 -43q0 -20 39 -22q168 6 262 8q112 -4 536 -8q129 4 209 104q78 99 80 223q0 31 -6 39q-10 7 -16 7q-25 -3 -48 -41q-22 -39 -69 -93q-45 -51 -148 -90q-104 -45 -292 -45q-56 0 -82 17q-31 12 -43 36
q-11 27 -13 64t-2 84v262q-2 88 8 117q13 26 78 26h152q78 0 117 -32q34 -33 49 -74q14 -41 24 -74q8 -37 31 -37q35 2 39 41q2 37 -4 60l-15 364q-2 41 -12 47q-12 4 -26 4q-15 0 -25 -26q-14 -29 -35 -68q-20 -35 -57 -63q-39 -31 -107 -31h-129q-61 -2 -75 20
q-15 21 -13 82v287z" />
    <glyph glyph-name="c" unicode="F" 
d="M477 1202q0 55 8 84q6 31 29 43q43 18 219 16q148 -2 209 -34q59 -35 72 -84q12 -45 16 -82q4 -39 35 -39q35 2 39 39q2 35 -4 55l-8 203q0 35 -41 39q-261 -6 -467 -9q-445 5 -545 9q-43 -2 -45 -35q2 -29 39 -39q33 -10 78 -23q45 -10 79 -38q33 -31 35 -101v-958
q0 -90 -22 -127q-23 -37 -56 -47q-28 -11 -51 -17q-26 -8 -26 -43q0 -20 39 -22q167 6 262 8q131 -4 243 -8q41 0 68 2t27 31q-2 20 -35 30q-35 8 -80 23q-45 16 -78 57q-39 39 -39 121v303q-2 88 8 117q13 26 78 26h152q78 0 116 -32q35 -33 50 -74q14 -41 24 -74
q8 -37 31 -37q35 2 39 41q2 37 -4 60l-15 364q-2 41 -12 47q-12 4 -27 4q-14 0 -24 -26q-14 -29 -35 -68q-20 -35 -57 -63q-39 -31 -107 -31h-129q-61 -2 -76 20q-14 21 -12 82v287z" />
    <glyph glyph-name="d" unicode="G" horiz-adv-x="1593" 
d="M1403 1307q0 26 -2 53q-4 22 -29 24q-22 -2 -35 -28q-16 -27 -47 -29q-18 0 -61 23q-43 20 -107 45q-63 26 -149 45q-86 20 -195 20q-383 -8 -555 -268q-88 -119 -129 -256q-43 -141 -43 -272q-2 -62 25 -175q26 -110 98 -229q72 -117 211 -197q137 -83 358 -86
q170 3 336 62q164 57 309 139q23 10 21 53q-4 43 -6 170q0 97 24 138q11 20 23 32q12 13 24 17q29 10 50 18q20 6 20 35q-2 29 -22 29q-109 -6 -222 -9q-143 5 -286 9q-27 0 -62 2q-39 -2 -39 -45q0 -25 39 -27q37 0 84 -10q49 -8 84 -56q35 -49 37 -165v-45q0 -25 -4 -50
q-8 -49 -43 -94q-35 -43 -113 -71q-78 -31 -215 -31q-123 0 -213 65q-88 62 -147 158q-115 207 -115 430q0 197 47 324q45 125 113 194q72 70 151 101q78 24 150 24q201 -2 315 -67q111 -68 164 -154q27 -39 45 -80q19 -39 27 -74q20 -69 33 -71q30 0 41 10q10 8 10 27v342z
" />
    <glyph glyph-name="e" unicode="H" horiz-adv-x="1706" 
d="M1479 1227q0 75 24 106q21 29 49 37q29 8 51 14q23 9 23 33q2 25 -43 25q-121 -6 -270 -9q-164 5 -264 9q-21 0 -33 -2q-15 -4 -15 -31q0 -21 37 -25q17 -2 37 -6q19 -4 41 -10q45 -10 78 -47q33 -39 33 -123v-289q0 -35 -13 -61q-14 -31 -59 -31h-608q-56 0 -51 82v326
q0 69 26 100q12 16 27 25q14 8 26 14q33 10 56 18q22 8 22 29q-2 31 -47 31q-84 -6 -264 -9q-147 5 -229 9q-31 0 -64 -4q-14 -2 -24 -9q-13 -8 -13 -20q0 -25 39 -33q33 -6 78 -16t80 -43q33 -35 35 -119v-913q-2 -95 -25 -136q-27 -43 -61 -59q-33 -16 -60 -27
q-28 -10 -28 -40q2 -33 45 -31q149 6 274 8q197 -4 299 -8q47 0 57 10q5 10 5 18q-3 27 -37 37q-39 9 -90 23q-48 16 -86 59q-41 41 -41 135v322q-2 68 16 90q16 21 84 21h547q65 0 78 -21q8 -25 6 -88v-369q0 -71 -23 -104q-22 -35 -51 -49q-29 -15 -51 -25
q-25 -10 -25 -37q0 -22 41 -22q152 6 258 8q150 -4 273 -8q20 0 32 4q11 2 11 20q0 31 -33 41q-33 11 -74 27t-72 59q-34 45 -34 138v946z" />
    <glyph glyph-name="f" unicode="I" horiz-adv-x="797" 
d="M524 1223q0 71 27 104q12 18 26 27q13 10 25 12q31 10 53 18q23 6 23 29q0 18 -12 25q-15 4 -60 4q-164 -6 -264 -9q-109 5 -231 9h-39q-29 -2 -31 -29q0 -25 39 -33q33 -10 78 -22q45 -11 80 -43q32 -33 34 -103v-983q0 -69 -22 -102q-23 -35 -51 -49q-29 -15 -50 -25
q-24 -10 -24 -37q-2 -22 22 -24q89 6 230 8q219 -4 311 -8q66 0 66 31q0 12 -9 20q-10 6 -26 8q-35 4 -80 15q-45 10 -78 51q-37 39 -37 129v977z" />
    <glyph glyph-name="g" unicode="J" horiz-adv-x="797" 
d="M547 1253q0 51 20 78q21 25 45 35q27 10 45 18q19 9 19 27q-2 27 -25 31h-51q-61 -6 -217 -9q-88 0 -145 5q-58 4 -91 4h-63q-27 -2 -27 -23q0 -37 39 -45q35 -6 80 -14q49 -6 84 -47q33 -43 35 -150v-1171q2 -47 -6 -127q-6 -37 -23 -64q-18 -26 -49 -28q-31 2 -51 24
q-25 21 -43 49q-19 29 -33 50q-18 20 -33 20q-18 0 -32 -25q-15 -24 -25 -63q-23 -82 -23 -123q0 -14 27 -49q14 -14 45 -25q31 -12 76 -14q180 4 299 180q121 172 123 428v1028z" />
    <glyph glyph-name="h" unicode="K" horiz-adv-x="1479" 
d="M1194 1233q272 180 264 174q-2 26 -18 33q-21 2 -35 2q-64 0 -109 -4q-45 -5 -84 -5q-141 5 -223 9q-18 0 -33 -4q-14 -9 -14 -35q0 -15 20 -21q21 -8 43 -12q27 -6 46 -14q16 -13 16 -37q-2 -35 -31 -78q-28 -43 -74 -90q-45 -47 -86 -84q-40 -41 -65 -64l-270 -264
q-37 -39 -52 -35q-12 7 -10 48v469q0 83 25 114q10 19 24 27q13 10 25 12q29 6 51 10q23 4 23 33q0 19 -15 23q-12 2 -28 2q-86 -6 -285 -9q-102 0 -160 5q-57 4 -86 4q-41 0 -41 -31t35 -39q33 -6 74 -16q41 -11 74 -47q32 -37 32 -131v-891q-2 -111 -24 -156
q-13 -25 -27 -37q-14 -14 -31 -22q-32 -11 -55 -17q-27 -10 -27 -47q0 -16 64 -16q109 6 268 8q86 0 139 -4q52 -4 89 -4q36 0 47 6q10 6 10 18q-2 27 -31 37q-29 8 -67 19q-39 10 -68 43q-35 28 -35 98v268q0 35 4 58q2 20 23 43q35 41 59 63q25 23 37 23q14 -2 51 -58
l408 -559q31 -39 53 -49q21 -10 47 -10q82 6 137 8q84 -4 154 -8q18 0 25 10q2 6 2 16q0 27 -64 45q-31 15 -78 52t-108 114l-391 527q-23 30 -35 51q-15 20 -15 33q0 16 19 34q16 17 26 25z" />
    <glyph glyph-name="i" unicode="L" horiz-adv-x="1251" 
d="M487 1257q0 58 25 80q20 25 49 29q29 8 51 14q21 8 21 35q0 18 -8 25q-13 2 -45 2q-11 -6 -232 -9q-135 5 -278 9q-66 -2 -66 -35q0 -25 39 -33q33 -10 78 -22q45 -11 80 -39q32 -29 35 -97v-968q0 -90 -23 -127t-55 -47q-29 -11 -52 -17q-26 -8 -26 -43q0 -20 39 -22
q168 6 262 8q113 -4 536 -8q129 4 209 104q78 99 80 223q0 31 -6 39q-10 7 -16 7q-25 -3 -47 -41q-23 -39 -70 -93q-45 -51 -148 -90q-104 -45 -292 -45q-56 0 -82 17q-31 12 -43 36q-11 27 -13 64t-2 84v960z" />
    <glyph glyph-name="j" unicode="M" horiz-adv-x="1821" 
d="M322 913q0 15 2 33q4 16 12 19q12 -5 22 -35l398 -883q8 -16 20 -35q10 -20 31 -22q24 2 35 20q10 17 18 37l387 809q49 106 64 109q16 0 16 -93l31 -620q4 -80 -17 -119q-22 -39 -51 -53q-29 -12 -53 -21q-27 -10 -27 -36q0 -25 33 -27q29 -4 61 -4q52 6 230 8l176 -8
q55 0 78 6q20 6 20 29q0 28 -26 34q-29 9 -68 21q-39 14 -68 57q-28 45 -36 142l-35 907q0 88 28 127q27 39 66 49q18 8 37 14q18 4 31 6q28 9 30 33q0 12 -8 19q-10 6 -51 6q-82 -6 -133 -9q-45 5 -119 9q-27 0 -35 -15q-10 -12 -16 -26l-475 -991q0 -5 -11 -23
q-12 -20 -22 -20q-16 0 -27 32l-450 983q-21 45 -37 56q-16 4 -35 4q-49 0 -100 -4q-53 -5 -90 -5q-90 5 -123 9q-25 -2 -25 -29q0 -31 35 -41q33 -10 74 -31q41 -18 73 -75q29 -58 25 -185l-29 -823q-4 -78 -28 -115q-27 -39 -62 -55q-30 -16 -57 -27q-29 -14 -29 -41
q-2 -24 39 -28q49 6 203 8q121 -4 211 -8q41 2 47 14q2 10 2 19q0 30 -33 36q-33 7 -78 23q-41 16 -71 74q-33 55 -31 182z" />
    <glyph glyph-name="k" unicode="N" horiz-adv-x="1706" 
d="M242 270q-2 -75 -31 -114t-68 -60q-39 -18 -67 -33q-31 -16 -31 -47q0 -22 25 -24h39q79 6 176 8q100 -4 241 -8q25 0 51 4q25 2 27 22q-2 35 -41 43q-39 7 -90 23t-90 80q-41 61 -41 205v696q0 31 16 33q17 0 37 -27l985 -1065q13 -12 23 -18q10 -11 30 -11q27 0 25 62
v1149q0 82 29 119q26 38 59 53q19 10 35 16q14 6 27 10q22 9 24 29q0 6 -4 16q-4 11 -35 11q-26 -6 -219 -9q-102 0 -156 5q-53 4 -77 4q-19 0 -25 -11q-8 -12 -8 -24q0 -23 41 -35q39 -10 86 -29q47 -14 86 -49q35 -35 37 -104v-682q0 -76 -17 -76q-8 0 -24 16
q-19 17 -39 37l-823 903q-23 31 -27 43q-6 11 -51 11q-78 0 -127 -4q-49 -5 -88 -5q-58 5 -115 9q-35 -2 -35 -35t37 -39q33 -10 78 -29q45 -18 80 -82q33 -63 35 -208v-779z" />
    <glyph glyph-name="l" unicode="O" horiz-adv-x="1593" 
d="M51 670q2 -314 191 -500q186 -190 497 -193q244 3 400 86q155 80 235 203q84 123 117 258q26 131 26 242q-4 330 -200 514q-197 180 -504 180q-367 -8 -563 -227q-199 -219 -199 -563v0zM303 786q-2 234 96 404q99 172 353 182q206 2 358 -170q151 -174 156 -516
q2 -262 -101 -434q-106 -174 -366 -186q-135 2 -230 71q-94 68 -153 176q-115 232 -113 473v0z" />
    <glyph glyph-name="m" unicode="P" horiz-adv-x="1251" 
d="M479 1223q-4 133 125 133q119 -2 189 -47q36 -21 61 -50q25 -28 39 -59q33 -63 41 -117q8 -57 4 -80q2 -20 -4 -65q-8 -43 -35 -94t-80 -86q-55 -39 -149 -39q-33 0 -58 8q-24 4 -39 4q-16 -2 -22 -12q-6 -12 -6 -27q-2 -8 32 -31q21 -8 64 -18t115 -10q188 0 309 110
q123 109 125 301q-4 222 -160 314q-151 90 -356 84q-248 -9 -320 -9q-116 0 -192 5q-76 4 -90 4q-35 0 -47 -15q-11 -14 -11 -24q0 -13 11 -19q10 -8 24 -12q31 -8 72 -18q41 -11 74 -43q32 -35 32 -117v-901q-2 -94 -24 -139q-25 -48 -58 -68q-32 -20 -55 -31
q-27 -10 -27 -32q0 -25 21 -27q18 -4 22 -4q74 6 252 8q66 -4 279 -8q22 0 37 4q12 2 12 27q-2 26 -31 36q-28 9 -71 21q-39 14 -70 57q-35 41 -35 135v951z" />
    <glyph glyph-name="n" unicode="Q" horiz-adv-x="1593" 
d="M303 786q-2 234 96 404q99 172 353 182q206 2 358 -170q151 -174 156 -516q0 -76 -11 -180q-14 -107 -61 -209q-45 -100 -139 -168q-95 -72 -256 -74q-135 2 -230 74q-94 70 -153 180q-115 236 -113 477v0zM897 -276q108 -66 178 -82q70 -15 113 -15q65 2 127 29
q61 27 108 61q49 39 78 70q27 31 27 41q0 27 -19 27q-20 -2 -57 -29t-107 -29q-45 2 -104 25q-59 20 -119 51q-57 31 -96 59q-41 29 -41 43q2 13 86 48q78 34 180 116q107 84 185 236q79 149 81 391q-4 330 -200 514q-197 180 -504 180q-367 -8 -563 -227
q-199 -219 -199 -563q0 -148 41 -252q39 -105 90 -172q51 -66 90 -103q39 -39 41 -55q-4 -14 -65 -72q-25 -30 -45 -82q-25 -51 -25 -131q0 -28 8 -51q9 -22 39 -24q17 2 31 45q12 41 29 92q18 55 55 94q37 41 102 41q37 -2 54 -20z" />
    <glyph glyph-name="o" unicode="R" horiz-adv-x="1479" 
d="M487 1231q0 88 43 108q39 17 97 15q157 -2 239 -101q82 -98 82 -252q0 -43 -4 -84q-8 -43 -39 -77q-29 -35 -96 -54q-33 -8 -80 -14q-45 -6 -104 -6q-48 -2 -91 8q-18 6 -32 16q-15 9 -15 27v414zM236 283q-3 -93 -25 -138q-25 -45 -57 -61q-33 -16 -56 -25
q-28 -10 -28 -32q0 -29 26 -31q21 -4 39 -4q152 6 316 8q65 0 108 -4t68 -4q37 0 51 10q12 8 12 21q-2 26 -31 34q-28 6 -69 17q-39 10 -68 45q-35 35 -35 112v355q-2 55 9 71q12 15 88 15q73 0 114 -19q41 -22 72 -90l172 -323q25 -43 51 -88q27 -43 60 -80q63 -78 180 -80
q67 2 141 33q35 16 55 34q21 19 21 41q-2 27 -31 29q-14 0 -31 -4q-14 -8 -30 -8q-13 0 -35 4q-23 6 -39 28q-117 205 -215 377q-47 84 -76 135q-31 52 -31 56q0 14 39 35q35 18 80 51q49 37 84 98q33 61 35 158q0 39 -12 102q-6 31 -23 64q-16 30 -41 61q-47 66 -145 111
q-100 45 -268 45q-207 -6 -414 -9q-145 5 -240 9q-43 0 -45 -31q0 -25 37 -33q33 -6 76 -20q45 -13 78 -51q33 -39 33 -123v-901z" />
    <glyph glyph-name="p" unicode="S" 
d="M172 131q6 -37 16 -51q9 -19 43 -27q88 -20 174 -47q82 -26 175 -29q206 3 329 127q125 121 127 324q0 190 -94 287q-92 92 -260 157q-205 86 -295 138q-94 53 -92 147q0 104 65 160q60 55 162 55q131 -2 211 -57q80 -58 121 -131q43 -74 63 -131q21 -60 35 -62
q35 0 43 19q6 10 6 22t-2 29l-22 274q0 37 -2 60q-4 18 -27 18q-20 -2 -49 -16q-33 -17 -55 -17q-21 0 -49 15q-31 10 -68 26q-37 17 -86 29q-49 10 -113 10q-180 -2 -290 -115q-113 -110 -113 -292q0 -156 84 -236q80 -82 213 -137q246 -100 354 -160q55 -33 82 -76
q23 -45 23 -110q-2 -123 -80 -193q-80 -69 -203 -69q-168 2 -268 118q-103 113 -152 265q-4 22 -12 34q-8 11 -33 11q-35 -2 -33 -33t9 -55z" />
    <glyph glyph-name="q" unicode="T" horiz-adv-x="1479" 
d="M614 260q-2 -86 -34 -125q-35 -37 -80 -47q-23 -6 -41 -8q-21 -2 -37 -8q-39 -9 -39 -37q0 -33 25 -37q18 -6 47 -6q102 6 286 8q185 -4 287 -8q47 0 74 4q26 4 26 39q-2 20 -41 28q-38 9 -90 25q-51 16 -90 61q-41 46 -41 136v925q0 72 23 92q20 17 82 17h174
q88 2 129 -29t55 -76q10 -22 16 -41q7 -20 13 -36q10 -37 39 -37q36 2 36 45q-4 37 -10 59l-22 189q2 16 -4 32q-4 17 -29 17q-231 -6 -627 -9q-395 5 -626 9q-21 0 -27 -17q-4 -16 -6 -32l-33 -271q-4 -20 -4 -45q2 -26 31 -26q35 0 49 45q14 39 31 90q18 53 59 92
q39 39 123 41h172q63 0 86 -17q18 -20 18 -92v-950z" />
    <glyph glyph-name="r" unicode="U" horiz-adv-x="1706" 
d="M1497 1202q0 88 25 125q20 39 49 49q28 12 49 17q20 6 20 22q0 29 -37 27q-143 -9 -233 -9q-84 0 -172 9q-18 0 -39 2q-22 -2 -22 -25q0 -24 41 -35q38 -10 86 -26q51 -15 88 -56q34 -41 36 -129v-405q0 -129 -12 -248q-16 -121 -63 -215q-47 -92 -140 -149
q-94 -58 -245 -58q-269 2 -361 170q-49 80 -67 185q-21 102 -21 219v444q0 64 10 109q7 43 19 71q26 54 57 70q35 16 62 20q22 4 24 27q0 27 -22 29q-95 -6 -289 -9q-199 5 -283 9q-12 0 -26 -4q-17 -9 -17 -29q0 -27 35 -35q31 -10 72 -20q41 -11 74 -39q32 -29 32 -94
v-668q2 -580 588 -576q211 3 348 64q135 59 207 164q74 104 102 243q25 138 25 291v463z" />
    <glyph glyph-name="s" unicode="V" horiz-adv-x="1593" 
d="M1417 1255q23 45 47 72q25 25 45 37q23 14 35 24q12 11 12 25q0 27 -18 29h-53q-86 -6 -172 -9q-88 5 -176 9h-50q-32 -4 -34 -33q0 -23 34 -29q31 -8 70 -18q43 -8 72 -37q28 -33 30 -104q0 -23 -8 -80q-12 -58 -57 -162l-281 -623q-4 -10 -10 -24q-6 -19 -16 -19
q-8 0 -15 19q-8 14 -14 24l-266 660q-78 188 -78 282q0 33 20 47q19 15 41 21q27 8 45 16q17 8 17 27q0 27 -12 31q-15 2 -64 2q-37 -6 -223 -9q-105 5 -207 9q-25 0 -57 2q-35 0 -37 -35q0 -10 16 -16q13 -9 17 -13q63 -14 94 -37q31 -26 53 -86l510 -1191q27 -64 45 -84
q18 -23 33 -23q18 0 28 14q13 13 27 52z" />
    <glyph glyph-name="t" unicode="W" horiz-adv-x="2048" 
d="M467 1198q-25 76 -25 102q0 29 19 43q16 13 39 21q22 8 41 20q16 11 16 31q0 18 -14 23q-17 4 -33 4q-10 -6 -244 -9q-92 0 -135 5q-43 4 -65 4q-11 0 -25 -6q-18 -9 -18 -27q0 -19 18 -25q16 -8 41 -14q24 -6 47 -20q23 -17 35 -54l450 -1276q19 -61 52 -61q32 0 43 41
l350 743q2 13 16 15q12 0 17 -15l262 -723q18 -61 51 -61t43 41l461 1270q22 51 43 75q18 25 34 33q19 8 29 17q8 6 8 22q0 19 -10 23q-12 2 -27 2q-24 -6 -192 -9q-51 0 -98 5q-50 4 -70 4q-31 0 -39 -9q-12 -12 -12 -30q0 -17 31 -23l63 -18q39 -8 68 -35q26 -27 26 -86
q0 -76 -20 -158l-209 -606q-35 -106 -45 -106q-15 0 -23 34q-12 33 -26 76l-238 717q-24 76 -24 102q0 29 18 43q16 13 39 21q22 8 41 20q16 11 16 31q0 18 -14 23q-17 4 -33 4q-10 -6 -244 -9q-92 0 -135 5q-43 4 -65 4q-11 0 -25 -6q-18 -9 -18 -27q0 -19 18 -25
q17 -8 41 -14q25 -6 47 -20q23 -17 35 -54l102 -297q11 -26 23 -55q10 -33 10 -49q0 -10 -10 -33q-10 -22 -23 -49l-215 -455q-4 -16 -22 -18q-17 2 -29 57z" />
    <glyph glyph-name="u" unicode="X" horiz-adv-x="1479" 
d="M223 164q-31 -39 -65 -60q-37 -22 -68 -36q-31 -11 -49 -23q-21 -12 -21 -31q0 -18 23 -20q20 -2 51 -2q98 6 199 8q76 -4 215 -8q53 0 53 24q0 27 -27 37q-28 8 -63 15q-35 6 -63 20q-31 14 -31 53q0 47 69 144l168 221q58 80 66 82q12 -4 59 -76l187 -264
q24 -31 36 -58q13 -26 13 -59q0 -27 -17 -39q-16 -14 -39 -22q-22 -7 -38 -15q-19 -10 -19 -35q0 -22 21 -24q16 -4 39 -4q88 2 235 8q72 2 117 -2t78 -6q63 0 86 6q20 6 20 25q-2 26 -68 55q-30 18 -73 57q-43 35 -94 105l-312 448q-24 37 -41 59q-16 25 -16 46q0 18 22 45
q21 24 46 55l243 311q60 72 111 111q51 35 88 49q41 14 61 22q23 9 23 23q0 18 -8 27q-9 6 -37 6q-142 -6 -223 -9q-78 5 -213 9q-9 0 -23 -2q-18 -4 -18 -31q0 -16 26 -25q23 -8 51 -16q33 -8 56 -23q22 -18 22 -51q0 -24 -14 -57q-16 -31 -66 -94l-168 -215
q-12 -17 -22 -31q-12 -18 -25 -18q-8 0 -18 14q-8 10 -18 22l-195 316q-27 41 -27 69q0 29 21 43q16 17 39 25q22 12 41 22q16 9 16 27q0 10 -2 19q-8 6 -41 6q-55 -6 -260 -9q-115 0 -174 5q-62 4 -98 4q-27 0 -35 -6q-12 -7 -12 -23q0 -25 22 -33q18 -6 59 -26
q41 -17 99 -70q59 -55 135 -172l219 -334q20 -28 43 -61q20 -33 20 -49q0 -11 -16 -33q-18 -23 -41 -51z" />
    <glyph glyph-name="v" unicode="Y" horiz-adv-x="1366" 
d="M551 649q18 -31 26 -55q7 -25 7 -74v-266q0 -92 -33 -131t-78 -49q-18 -6 -39 -8q-20 -3 -37 -9q-37 -8 -37 -43q2 -22 56 -22q55 6 301 8q186 0 243 -4q56 -4 62 -4q29 0 47 6q18 4 18 18q-2 39 -36 45q-37 7 -89 11q-47 4 -86 39q-40 34 -40 127v305q0 53 6 77
q6 25 20 52l268 508q205 247 213 239q0 23 -36 23q-43 -6 -236 -9q-78 0 -117 5q-39 4 -59 4q-39 0 -39 -31q0 -21 33 -29q28 -10 67 -20q39 -8 68 -31q29 -22 31 -74q4 -14 -37 -112l-187 -338q-34 -64 -51 -62q-18 -2 -63 95l-185 381q-16 38 -22 61q-6 20 -6 33
q0 26 18 41q17 12 39 18q23 8 39 16q16 11 16 25q2 25 -34 27q-179 -11 -299 -9q-76 0 -117 5q-45 4 -72 4q-71 2 -71 -25q0 -22 22 -31q21 -8 51 -18q33 -8 68 -33q35 -26 63 -80z" />
    <glyph glyph-name="w" unicode="Z" horiz-adv-x="1251" 
d="M121 1178q-4 -27 -2 -54q2 -32 24 -32q37 0 45 38q11 37 31 84q23 47 96 86q72 35 232 37q94 0 168 -2q75 -6 78 -51q0 -16 -15 -45q-12 -29 -26 -49l-603 -1038q-18 -35 -45 -78q-32 -45 -32 -68q0 -16 39 -14q108 6 270 8q113 -4 536 -8q129 4 209 104q78 99 80 223
q0 31 -6 39q-10 7 -16 7q-25 -3 -47 -41q-23 -39 -70 -93q-45 -51 -148 -90q-104 -45 -292 -45q-189 -2 -189 37q0 14 15 37q10 20 14 29l608 1056q88 156 86 166q0 19 -16 21h-68q-301 -4 -538 -9q-269 5 -385 9z" />
    <glyph glyph-name="x" unicode="[" horiz-adv-x="682" 
d="M129 -274h479v75h-176q-63 0 -90 15q-27 12 -27 65v1489q0 53 27 70q27 10 90 10h176v76h-479v-1800z" />
    <glyph glyph-name="y" unicode="\" horiz-adv-x="1241" 
d="M137 1526l762 -1526h205l-762 1526h-205z" />
    <glyph glyph-name="z" unicode="]" horiz-adv-x="682" 
d="M541 1526h-480v-76h177q65 0 92 -10q24 -17 24 -70v-1489q0 -53 -24 -65q-27 -15 -92 -15h-177v-75h480v1800z" />
    <glyph glyph-name="braceleft" unicode="^" horiz-adv-x="1241" 
d="M301 608l319 602v0l320 -602h195l-422 825h-185l-422 -825h195z" />
    <glyph glyph-name="bar" unicode="_" horiz-adv-x="1024" 
d="M1024 -281v105h-1024v-105h1024z" />
    <glyph glyph-name="braceright" unicode="`" horiz-adv-x="682" 
d="M496 985l-250 258q-56 61 -80 84q-29 18 -57 18q-43 -2 -62 -28q-20 -27 -20 -43q0 -41 30 -66q27 -22 60 -43l284 -180h95z" />
    <glyph glyph-name="asciitilde" unicode="a" horiz-adv-x="909" 
d="M526 168q0 -16 -14 -29q-16 -12 -41 -22q-53 -19 -92 -19q-76 2 -92 58q-8 22 -13 45q-4 20 -4 32q0 54 29 93q27 39 63 63q41 27 82 39q39 12 68 12q16 2 14 -73v-199zM743 577q0 304 -311 302q-117 0 -240 -50q-55 -26 -94 -71q-41 -47 -41 -115q0 -27 23 -35
q16 -8 31 -8q20 -2 79 12q27 11 46 31q20 18 20 53q-2 70 18 94q21 21 76 21q62 0 98 -21q37 -22 54 -63q18 -39 22 -94q2 -56 2 -123q-78 -19 -161 -39q-84 -20 -158 -55q-72 -33 -117 -90q-47 -62 -47 -156q0 -84 55 -137q54 -53 138 -56q88 3 172 37q81 35 147 88v0
q6 -34 35 -77q28 -45 98 -48q62 3 129 43q33 19 51 37q19 19 19 33q0 16 -23 19q-24 -7 -65 -11q-37 -2 -45 27q-11 27 -11 100v352z" />
    <glyph glyph-name="Adieresis" unicode="b" horiz-adv-x="1024" 
d="M354 627q2 55 56 84q51 26 100 26q74 -2 125 -37q51 -36 82 -96q59 -125 59 -252q0 -49 -8 -102t-33 -96q-20 -43 -63 -72q-43 -31 -107 -31q-49 -2 -125 43q-35 25 -59 66q-27 39 -27 102v365zM137 166q-10 -150 -14 -166q0 -20 22 -23q19 0 33 17q12 12 25 29
q12 16 22 28q11 12 19 12q20 -2 82 -40q59 -41 196 -46q191 3 311 140q119 137 121 385q0 153 -82 262q-84 112 -243 115q-80 0 -148 -39q-69 -39 -127 -99v0v729v33q-2 21 -18 23q-21 -2 -35 -15q-70 -41 -125 -61q-55 -21 -92 -29q-74 -14 -74 -49q0 -22 21 -29
q20 -4 45 -6q26 -2 45 -22q16 -19 16 -76v-1073z" />
    <glyph glyph-name="Aring" unicode="c" horiz-adv-x="909" 
d="M51 387q0 -178 113 -291q106 -116 284 -119q164 5 273 89q53 36 82 71q28 35 28 53q-2 27 -20 25q-12 0 -35 -14q-24 -17 -57 -39q-33 -21 -74 -37q-41 -19 -88 -19q-72 0 -127 39q-55 37 -94 97q-80 127 -80 282q0 49 10 99q8 47 29 88q22 41 59 65q37 23 94 23
q82 0 119 -45q35 -47 51 -123q2 -11 9 -21q6 -10 18 -10q35 2 90 49q27 23 45 43q17 21 17 33q0 45 -29 76q-29 30 -74 47q-92 31 -155 31q-209 -3 -347 -142q-139 -139 -141 -350v0z" />
    <glyph glyph-name="Ccedilla" unicode="d" horiz-adv-x="1024" 
d="M647 258v-51q-2 -21 -27 -43q-28 -21 -65 -33q-41 -12 -78 -12q-63 0 -110 41q-50 39 -80 98q-64 127 -64 236q0 49 10 102q11 53 31 100q23 47 62 78q36 29 96 29q74 0 133 -35q55 -37 92 -100v-410zM647 827v0q-31 31 -86 41q-57 11 -100 11q-162 -3 -264 -113
q-107 -109 -140 -262q-37 -172 31 -342q33 -80 100 -131q68 -51 170 -54q176 5 289 136v0q0 -76 4 -105q6 -31 23 -31q18 3 84 25q41 14 84 23q43 8 77 14q37 6 60 16q22 8 22 23q0 24 -20 28q-19 5 -47 9q-25 4 -45 26q-25 25 -25 84v1245v41q-2 15 -18 15q-21 -2 -35 -15
q-72 -41 -127 -61q-55 -21 -94 -29q-80 -14 -80 -49q0 -22 24 -29q21 -4 46 -6q28 -2 47 -22q20 -19 20 -76v-412z" />
    <glyph glyph-name="Eacute" unicode="e" horiz-adv-x="909" 
d="M819 494q10 -3 19 6q6 8 6 39q0 92 -88 211q-45 57 -119 92q-74 34 -178 37q-197 -5 -295 -156q-103 -150 -103 -336q2 -209 127 -309q121 -101 277 -101q164 5 272 89q53 36 82 71t29 53q-2 27 -21 25q-12 0 -34 -14q-25 -17 -58 -39q-33 -21 -74 -37q-41 -19 -88 -19
q-135 3 -217 103q-84 96 -86 233q0 47 11 52q8 2 34 0h504zM279 565q-11 -2 -11 39q0 76 39 146q39 67 129 69q49 0 86 -18q37 -19 58 -49q22 -31 34 -66q9 -35 9 -66q0 -40 -9 -47q-12 -10 -39 -8h-296z" />
    <glyph glyph-name="Ntilde" unicode="f" horiz-adv-x="682" 
d="M45 852v-111h113q26 -2 30 -24q4 -25 4 -51v-531q0 -39 -14 -53q-16 -14 -35 -21q-18 -4 -34 -10q-19 -8 -19 -31q0 -28 29 -28q71 6 203 8q77 0 137 -4q57 -4 86 -4q35 -2 37 26q-2 29 -25 37q-27 8 -61 13q-31 8 -58 32q-28 27 -28 95v497q-2 49 30 49h137q21 0 27 23
q6 20 14 43q7 14 17 41q10 24 10 35q0 14 -12 14q-19 -2 -25 -21q-6 -10 -14 -16q-8 -8 -27 -8h-143q-14 0 -12 12q-2 10 -2 23v301q-2 57 12 125q14 69 84 71q33 0 51 -14q14 -16 23 -39q10 -18 18 -35q6 -18 16 -18q17 0 31 22q12 21 21 45q16 60 16 91q-2 45 -35 57
q-35 10 -74 10q-122 -4 -211 -102q-88 -99 -129 -209q-28 -78 -36 -156q-9 -80 -13 -153q-2 -21 -22 -27q-23 -4 -41 -4h-76z" />
    <glyph glyph-name="Odieresis" unicode="g" horiz-adv-x="909" 
d="M723 -192q0 -52 -27 -82q-24 -31 -69 -50q-43 -16 -90 -22q-50 -8 -91 -8q-75 0 -149 28q-33 19 -55 50q-25 30 -25 79q0 39 23 72q18 31 59 31q258 2 346 -12q45 -11 64 -29q14 -21 14 -57v0zM592 563q0 -86 -33 -155q-39 -72 -135 -74q-90 2 -129 86q-19 37 -29 80
q-10 41 -10 80q0 86 20 133q19 49 48 71q28 23 53 31q26 4 39 4q102 -2 141 -84q20 -37 29 -82q6 -47 6 -90v0zM377 -416q94 0 162 11q67 8 153 40q82 33 137 101q52 65 54 155q0 50 -13 89q-14 36 -51 65t-104 43q-70 14 -178 14q-215 0 -267 17q-28 10 -37 28q-8 19 -8 45
q-2 87 86 91q60 -4 105 -4q116 0 192 32q74 33 115 82q43 51 59 107q17 53 13 100q0 45 -2 61q12 9 28 17q17 8 29 29q16 20 24 63q9 41 9 111q0 55 -23 55q-16 -4 -39 -64q-12 -24 -37 -45q-26 -20 -71 -20q-47 2 -115 37q-68 32 -174 35q-156 0 -258 -80
q-107 -80 -109 -230q0 -98 43 -153q43 -58 125 -107q-108 -73 -108 -196q2 -90 39 -133q16 -21 28 -33q15 -15 21 -23q-23 2 -82 -33q-68 -34 -72 -126q0 -58 41 -95q39 -37 92 -55q58 -16 111 -23q51 -8 82 -8v0z" />
    <glyph glyph-name="Udieresis" unicode="h" 
d="M967 522q-5 357 -310 357q-84 0 -155 -41q-74 -41 -127 -109h-4v625q0 86 10 129q6 43 -14 43q0 -4 -187 -82q-47 -15 -78 -25q-32 -8 -51 -14q-35 -8 -33 -33q0 -20 25 -22q20 -5 45 -11q27 -2 45 -18q21 -19 21 -64v-1124q0 -31 -15 -45q-16 -18 -39 -27
q-20 -8 -37 -16q-18 -10 -18 -31q0 -16 27 -18q20 -4 34 -4q48 6 125 8q76 0 119 -4t90 -4h70q22 2 22 24q0 21 -22 33q-25 8 -57 21q-33 12 -56 39q-26 22 -26 73v443q0 28 8 41q10 10 31 26q28 25 65 41q37 17 74 17q63 0 106 -23q39 -25 60 -66q22 -41 30 -90
q5 -24 5 -49v-53v-299q0 -39 -15 -64q-16 -26 -35 -40q-18 -15 -32 -27q-19 -12 -19 -27q0 -16 15 -18q10 -2 18 -2q51 0 94 4q39 4 76 4q113 -4 223 -8q17 0 19 18q0 27 -17 37q-18 8 -45 16q-24 9 -45 31q-20 21 -20 72v356z" />
    <glyph glyph-name="aacute" unicode="i" horiz-adv-x="569" 
d="M176 131q0 -33 -16 -47q-19 -16 -43 -23q-23 -6 -41 -12q-21 -8 -21 -29q0 -22 17 -24q16 -4 41 -4q77 6 151 8q98 -4 195 -8q22 0 53 2q29 2 31 24q0 27 -23 35q-22 8 -51 17q-29 8 -51 28q-25 19 -25 66v690q0 20 -2 33q-4 8 -22 8q0 -8 -222 -88q-51 -10 -75 -19
q-27 -10 -27 -34q0 -21 21 -25q20 -6 45 -8q26 -2 45 -14q20 -15 20 -52v-524zM422 1212q0 13 -14 41q-17 25 -39 54q-21 28 -43 49q-23 20 -39 20q-13 0 -33 -20q-23 -21 -45 -49q-23 -29 -39 -54q-18 -28 -18 -41q0 -10 18 -37q16 -26 39 -55q22 -28 45 -47q20 -22 33 -22
q16 0 39 22q22 19 43 47q22 29 39 55q14 27 14 37v0z" />
    <glyph glyph-name="agrave" unicode="j" horiz-adv-x="569" 
d="M180 -117q0 -57 -4 -114q-4 -29 -16 -45q-15 -19 -39 -21q-25 2 -43 21q-21 18 -39 41q-19 26 -33 45q-16 16 -29 16q-26 -2 -34 -51q-9 -47 -9 -84t11 -70q2 -6 24 -20q21 -15 80 -17q107 2 223 135q119 132 125 373v762q0 20 -2 33q-4 8 -22 8q0 -8 -221 -88
q-52 -10 -76 -19q-27 -10 -27 -34q0 -21 21 -25q20 -6 45 -8q26 -2 45 -14q20 -15 20 -52v-772zM426 1212q0 13 -14 41q-17 25 -39 54q-21 28 -43 49q-23 20 -39 20q-12 0 -33 -20q-22 -21 -45 -49q-23 -29 -39 -54q-18 -28 -18 -41q0 -10 18 -37q16 -26 39 -55
q23 -28 45 -47q21 -22 33 -22q16 0 39 22q22 19 43 47q22 29 39 55q14 27 14 37v0z" />
    <glyph glyph-name="acircumflex" unicode="k" 
d="M162 186q0 -69 -17 -96q-18 -29 -43 -37q-22 -8 -41 -12q-20 -4 -20 -29q0 -14 12 -16q10 -4 23 -4q88 6 182 8q131 -4 229 -8q45 0 43 26q0 17 -22 25q-23 8 -51 20q-29 13 -52 39q-26 27 -26 78v185l76 63v0l192 -281q43 -59 74 -92q29 -32 43 -47q33 -18 37 -16
q37 0 65 4q29 4 49 4q56 -4 109 -8q35 0 55 4q19 6 19 29q-2 26 -56 36q-24 7 -51 19q-29 12 -53 35q-82 96 -191 245q-49 72 -81 129q-37 58 -37 84q0 11 32 41q31 29 80 64q105 80 228 115q14 4 34 12q21 10 21 31q0 20 -47 20q-84 -6 -168 -8q-84 4 -170 8h-33
q-14 -4 -14 -31q0 -14 16 -20q15 -6 33 -12q18 -7 35 -13q14 -8 14 -22q6 -8 -24 -45l-287 -248v0v889q0 86 10 129q6 43 -14 43q0 -4 -187 -82q-47 -15 -77 -25q-33 -8 -52 -14q-34 -8 -32 -33q0 -20 24 -22q21 -5 45 -11q27 -2 45 -18q21 -19 21 -64v-1071z" />
    <glyph glyph-name="adieresis" unicode="l" horiz-adv-x="569" 
d="M168 186q0 -69 -16 -96q-19 -29 -43 -37q-23 -8 -41 -12q-21 -4 -21 -29q0 -14 12 -16q11 -4 23 -4q88 6 182 8q131 -4 230 -8q45 0 43 26q0 17 -23 25t-51 20q-29 13 -51 39q-27 27 -27 78v1174q0 86 10 129q6 43 -14 43q0 -4 -186 -82q-48 -15 -78 -25q-33 -8 -51 -14
q-35 -8 -33 -33q0 -20 24 -22q21 -5 45 -11q27 -2 45 -18q21 -19 21 -64v-1071z" />
    <glyph glyph-name="atilde" unicode="m" horiz-adv-x="1593" 
d="M905 547q0 10 2 45q0 33 10 72q13 38 45 67q31 27 93 27q61 0 96 -23q33 -24 47 -65q16 -37 18 -84q2 -49 2 -97v-368q-2 -39 -40 -55q-17 -9 -27 -19q-14 -8 -14 -24q0 -33 47 -31q67 6 196 8q62 -4 123 -8q23 0 43 4q17 4 19 31q0 22 -19 30q-18 9 -45 17q-24 8 -45 28
q-20 21 -20 62v346q2 168 -52 268q-57 98 -231 101q-98 -3 -168 -46q-72 -43 -109 -96v0q-43 64 -100 103q-59 39 -139 39q-82 -3 -148 -37q-63 -35 -114 -90v0v102q0 20 -2 33q-4 8 -23 8q0 -8 -221 -88q-51 -10 -76 -19q-26 -10 -26 -34q0 -21 20 -25q21 -6 45 -8
q27 -2 45 -14q21 -15 21 -52v-524q0 -33 -15 -47q-16 -16 -34 -23q-19 -6 -33 -12q-19 -8 -19 -29q0 -22 13 -24q10 -4 34 -4q66 6 142 8q98 -4 194 -8q21 0 47 2q23 2 25 24q0 27 -21 35q-18 8 -47 17q-24 8 -45 28q-24 19 -24 66v465q-2 26 30 71q19 23 48 37q28 13 73 13
q72 2 117 -43q45 -50 45 -193v-362q0 -39 -10 -58q-12 -20 -29 -31q-16 -8 -26 -16q-15 -10 -15 -29q-2 -26 37 -26q29 6 186 8q70 0 111 -4q39 -4 66 -4q20 2 26 12q4 10 4 21q0 20 -20 28q-19 8 -45 15q-25 8 -45 30q-23 21 -23 70v379z" />
    <glyph glyph-name="aring" unicode="n" 
d="M162 188q0 -61 -15 -88q-16 -28 -38 -39q-21 -8 -37 -16q-19 -8 -19 -31q-2 -20 23 -22q94 6 205 8q79 0 133 -4q51 -4 67 -4q37 0 51 10q13 8 13 21q-2 18 -25 28q-24 8 -57 21q-33 12 -55 34q-29 21 -29 64v379q-2 90 39 143q39 53 137 53q115 -2 160 -73
q24 -35 32 -78q9 -45 9 -98v-349q0 -26 -13 -45q-12 -18 -32 -32q-19 -13 -33 -25q-17 -12 -17 -27q0 -24 21 -26h47q55 6 150 8q69 -4 174 -8q47 0 47 31q0 16 -17 24q-18 8 -45 16q-24 13 -45 35q-20 23 -20 68v332q0 155 -72 266q-76 112 -240 115q-188 -3 -278 -142h-4
v117q0 20 -2 33q-4 8 -23 8q0 -8 -221 -88q-51 -10 -76 -19q-26 -10 -26 -34q0 -21 20 -25q21 -6 45 -8q27 -2 45 -14q21 -15 21 -52v-467z" />
    <glyph glyph-name="ccedilla" unicode="o" horiz-adv-x="1024" 
d="M483 813q84 -2 140 -53q55 -56 86 -137q57 -177 55 -316q0 -106 -41 -180q-47 -76 -166 -78q-84 0 -139 57q-58 52 -90 127q-33 80 -45 158q-13 76 -13 127q4 55 13 109q10 53 30 94q25 43 66 67q41 25 104 25v0zM971 451q-2 196 -129 313q-127 112 -324 115
q-209 -3 -334 -138q-129 -133 -131 -340q2 -190 129 -305q123 -116 312 -119q217 3 346 134q129 129 131 340v0z" />
    <glyph glyph-name="eacute" unicode="p" horiz-adv-x="1024" 
d="M360 661q29 31 70 54q41 20 82 20q74 0 125 -39q51 -41 84 -100q61 -131 61 -250q0 -49 -8 -100q-8 -54 -33 -97q-47 -96 -170 -98q-49 0 -88 21q-39 18 -67 41q-56 53 -56 63v485zM360 16q76 -36 156 -39q244 7 348 170q101 158 98 355q0 149 -77 262q-82 112 -250 115
q-80 0 -150 -39q-71 -41 -125 -103v0v103v32q-2 21 -18 23q-20 -2 -35 -14q-69 -41 -125 -62q-55 -20 -92 -29q-74 -14 -74 -49q0 -22 21 -28q20 -4 45 -6q27 -3 45 -23q16 -18 16 -76v-897q0 -26 -12 -39q-12 -14 -29 -20q-16 -4 -28 -10q-17 -9 -17 -27q0 -23 15 -27
q14 -4 32 -4q29 6 197 8q96 -4 184 -8q29 0 37 11q6 6 6 16q-2 24 -24 33q-25 8 -58 14q-30 8 -57 31q-29 22 -29 76v251z" />
    <glyph glyph-name="egrave" unicode="q" horiz-adv-x="1024" 
d="M649 184q-69 -67 -166 -67q-63 0 -110 41q-49 39 -82 98q-64 125 -64 233q0 101 25 164q22 62 55 94q35 33 68 48q30 10 53 10q74 0 125 -33q51 -31 96 -84v-504zM649 109v-344q-2 -54 -24 -76q-25 -23 -58 -31q-30 -6 -57 -14q-29 -9 -29 -33q0 -10 8 -16q9 -11 35 -11
q90 6 185 8q96 0 135 -4q41 -4 61 -4q23 0 37 4q12 4 12 27q-2 29 -43 37q-16 6 -28 20q-17 13 -17 39v1139q0 16 2 31q-2 14 -22 14q-15 6 -88 -96v0q-68 32 -135 57q-70 23 -148 23q-211 -5 -319 -156q-109 -152 -109 -358q0 -142 76 -261q37 -57 96 -92q57 -35 137 -35
q172 9 293 132v0z" />
    <glyph glyph-name="ecircumflex" unicode="r" horiz-adv-x="797" 
d="M393 485q-2 23 12 92q9 33 33 58q23 22 62 22q43 0 69 -12q27 -12 41 -29q15 -16 27 -26q12 -15 27 -15q30 2 67 60q37 53 39 112q-2 35 -59 82q-25 23 -54 37q-26 13 -49 13q-37 -3 -92 -50q-55 -51 -123 -133v0v158q0 20 -2 33q-4 8 -22 8q0 -8 -222 -88
q-51 -10 -75 -19q-27 -10 -27 -34q0 -21 21 -25q20 -6 45 -8q26 -2 45 -14q20 -15 20 -52v-481q0 -53 -14 -78q-17 -26 -35 -35q-18 -8 -33 -16q-16 -8 -16 -33q-2 -20 35 -20q69 6 206 8q132 -4 234 -8q18 2 24 14q7 10 7 21q0 22 -27 30q-29 6 -68 17q-34 12 -65 41
q-31 28 -31 98v272z" />
    <glyph glyph-name="edieresis" unicode="s" horiz-adv-x="797" 
d="M641 827q-2 17 -31 25q-28 8 -67 14q-88 13 -113 13q-133 0 -229 -58q-103 -63 -105 -209q0 -90 39 -141t121 -86q139 -55 217 -102t80 -107q0 -65 -41 -102q-41 -41 -107 -41q-81 0 -129 45q-51 39 -77 94q-27 55 -41 96q-17 39 -31 41q-33 2 -37 -35l-6 -211
q0 -20 6 -26q6 -8 14 -14q45 -21 123 -33q78 -13 133 -13q127 0 236 64q111 65 115 225q0 115 -58 176q-57 60 -159 97q-123 45 -185 75q-63 31 -63 97q0 55 41 82q37 22 88 22q71 0 116 -27q43 -26 68 -61q27 -35 41 -61q14 -29 29 -29q26 -2 26 20z" />
    <glyph glyph-name="iacute" unicode="t" horiz-adv-x="682" 
d="M164 207q0 -19 2 -58q2 -36 18 -75q17 -39 62 -66q45 -28 131 -31q129 5 207 58q36 22 59 45q18 20 18 33q0 18 -4 26q-6 4 -18 4q-14 -2 -49 -24q-39 -23 -115 -25q-55 0 -76 31q-20 29 -18 82v534h196q21 0 27 23q6 20 14 43q7 14 17 41q10 24 10 35q0 14 -12 14
q-19 -2 -25 -21q-6 -10 -14 -16q-8 -8 -27 -8h-141q-16 0 -29 4q-16 2 -16 16v220q0 20 -25 22q-20 0 -63 -63q-21 -31 -57 -74q-39 -47 -97 -103q-43 -36 -65 -53q-27 -18 -27 -51q-2 -29 53 -31h64v-532z" />
    <glyph glyph-name="igrave" unicode="u" 
d="M952 833q2 43 -24 46q-15 -3 -56 -25q-47 -16 -94 -23q-47 -8 -88 -14q-37 -2 -59 -12q-27 -8 -27 -31q0 -20 21 -24q20 -7 45 -9q26 -2 45 -14q20 -14 20 -51v-436q-2 -64 -59 -99q-56 -35 -121 -35q-104 0 -141 58q-39 55 -37 151v518q2 43 -25 46q-14 -3 -55 -25
q-47 -16 -94 -23q-47 -8 -88 -14q-37 -2 -60 -12q-26 -8 -26 -31q0 -20 20 -24q21 -7 45 -9q27 -2 45 -14q21 -14 21 -51v-348q0 -68 12 -131q8 -62 39 -111q29 -49 86 -78q55 -28 143 -31q68 3 117 19t82 39q35 24 59 47q23 20 37 33v0q0 -123 15 -138l309 39q22 2 37 7
q14 4 14 26q0 21 -23 25q-22 4 -55 6q-29 2 -53 18q-27 17 -27 62v673z" />
    <glyph glyph-name="icircumflex" unicode="v" horiz-adv-x="1024" 
d="M377 719q-10 31 6 45t43 22q27 9 49 19q21 8 21 26q-2 23 -23 25h-41q-80 -6 -174 -8q-96 4 -143 8q-41 0 -64 -2q-26 -4 -26 -25q6 -10 112 -129l338 -706q6 -12 12 -23q7 -12 19 -12q24 2 35 39l374 731q13 27 29 41t29 23q16 10 24 18t8 20q-2 27 -43 25
q-59 -6 -102 -8q-61 4 -127 8q-31 0 -47 -4q-18 -6 -18 -31q0 -18 20 -24q21 -9 45 -15q27 -6 45 -20q21 -17 21 -53q-2 -33 -19 -78q-18 -45 -39 -80l-123 -244q-2 -8 -12 -26q-12 -23 -22 -23q-13 0 -19 21q-8 18 -12 22z" />
    <glyph glyph-name="idieresis" unicode="w" horiz-adv-x="1479" 
d="M915 659q-16 33 -18 68q0 27 18 41q17 12 35 18q19 9 35 17q14 10 14 24q0 31 -57 29q-20 -6 -166 -8q-76 0 -115 4q-38 4 -57 4q-16 0 -31 -2q-18 -4 -18 -29q0 -24 29 -32q24 -7 43 -23q32 -33 59 -88q23 -55 25 -102q0 -37 -19 -64l-108 -205q-4 -8 -17 -30
q-12 -23 -22 -25q-11 0 -17 23q-8 18 -14 32l-121 326q-28 72 -28 104q0 21 16 33q12 12 29 16q41 9 43 37q0 27 -17 29h-39q-39 -6 -159 -8q-76 0 -111 4t-51 4h-39q-19 -4 -19 -31q2 -30 43 -39q37 -12 60 -51l289 -684q14 -37 28 -63q13 -29 33 -31q20 2 29 20
q8 21 18 46l213 409q14 31 23 31q12 0 22 -29l162 -383q14 -37 29 -63q12 -29 32 -31q21 2 29 20q8 17 18 46l326 729q10 20 23 32q12 11 24 17q23 10 25 35q-2 22 -41 20q-23 -6 -101 -8q-51 0 -77 4q-29 4 -50 4q-38 2 -38 -25q0 -22 20 -28q18 -8 41 -10q25 -3 43 -17
q16 -14 16 -55q-2 -68 -39 -137l-112 -265q-14 -43 -31 -45q-10 0 -16 23q-8 18 -15 33z" />
    <glyph glyph-name="ntilde" unicode="x" horiz-adv-x="1024" 
d="M551 543v0l-80 96q-27 37 -39 61q-14 25 -14 35q0 27 18 39q17 8 35 14q23 5 37 13q14 6 14 26q0 27 -37 29q-102 -6 -237 -8q-74 0 -123 4t-68 4q-18 0 -28 -2q-15 -6 -15 -25q2 -24 43 -36q37 -13 72 -52l276 -346l-247 -252q-146 -120 -140 -123q0 -6 5 -16
q6 -10 22 -12q49 6 115 8l172 -8q20 2 28 12q7 10 7 19q0 14 -15 26q-16 10 -39 19q-18 10 -34 18q-19 10 -19 25q-8 0 68 100l123 127v0l88 -117q34 -41 49 -61q12 -23 12 -43q0 -25 -12 -33q-13 -10 -33 -16q-16 -5 -31 -13q-16 -8 -16 -32q0 -25 18 -27q15 -4 45 -4
q54 6 166 8q68 -4 197 -8q26 0 49 4q22 6 22 27q-2 8 -133 110l-276 354l207 207q194 133 190 133q0 25 -12 29h-37q-63 -6 -129 -8q-72 4 -121 8h-39q-18 -4 -18 -31q0 -14 16 -20q15 -4 33 -10q18 -2 35 -13q14 -8 14 -28q2 -19 -18 -41z" />
    <glyph glyph-name="oacute" unicode="y" horiz-adv-x="1024" 
d="M457 80q28 -51 41 -78q10 -29 10 -45q0 -25 -47 -106l-127 -203q-19 -25 -19 -47q-2 -17 19 -17h96q27 2 33 39l436 1098q12 24 31 41q16 14 32 26q19 13 31 23q10 10 10 22q0 19 -14 21t-37 2q-30 -6 -112 -8q-43 0 -70 4t-45 4q-35 0 -53 -2q-21 -4 -21 -31
q0 -18 25 -26q20 -9 45 -19q29 -8 47 -28q20 -23 20 -72q0 -33 -32 -131l-101 -258q-12 -47 -28 -51q-21 2 -37 51l-168 338q-12 30 -23 59q-14 25 -14 41q0 25 18 35q17 12 39 20q23 8 39 21q17 8 17 26q0 21 -15 27h-43q-41 -6 -178 -8q-67 0 -102 4t-58 4q-28 0 -49 -4
q-22 -6 -22 -27q2 -26 41 -41q16 -8 34 -26q19 -19 33 -51z" />
    <glyph glyph-name="ograve" unicode="z" horiz-adv-x="797" 
d="M96 94q-55 -67 -55 -82q0 -18 27 -20q22 6 96 8q153 0 225 -10q70 -10 148 -13q34 3 71 27q35 27 68 64q31 38 53 75q18 39 18 64q0 29 -20 29q-23 -3 -45 -29q-12 -10 -27 -21q-18 -10 -43 -10h-293q-16 0 -28 6q-17 2 -17 15q-4 10 29 55l408 538q32 37 34 54
q0 12 -32 12q-105 -6 -209 -8q-205 4 -338 8q-10 2 -19 -35q0 -16 -8 -45q-10 -31 -22 -69q-8 -37 -19 -72q-10 -35 -10 -62q0 -16 8 -22q8 -10 15 -10q20 0 38 20q15 21 27 45q12 27 27 45q14 17 33 17h249q29 0 31 -11q0 -10 -10 -22z" />
    <glyph glyph-name="ocircumflex" unicode="{" horiz-adv-x="682" 
d="M197 872q2 -102 -33 -157q-37 -58 -154 -86v-4q117 -25 154 -82q35 -56 33 -162v-336q-2 -199 92 -260q90 -59 301 -57v4q-107 22 -152 84q-45 61 -43 164v358q2 113 -33 186q-38 70 -167 101v4q67 16 108 43q39 24 59 59q35 72 33 184v359q-2 104 43 166q45 61 152 82v4
q-211 2 -301 -56q-94 -61 -92 -262v-336z" />
    <glyph glyph-name="odieresis" unicode="|" horiz-adv-x="1241" 
d="M530 0h179v1526h-179v-1526z" />
    <glyph glyph-name="otilde" unicode="}" horiz-adv-x="682" 
d="M485 1208q0 201 -90 262q-92 58 -303 56v-4q109 -21 154 -82q41 -62 41 -166v-359q0 -55 8 -102q6 -45 27 -82q22 -35 61 -59q41 -27 104 -43v-4q-127 -31 -165 -101q-37 -73 -35 -186v-358q0 -103 -41 -164q-45 -62 -154 -84v-4q211 -2 303 57q90 61 90 260v336
q-2 106 35 162q37 57 152 82v4q-115 28 -152 86q-37 55 -35 157v336z" />
    <glyph glyph-name="uacute" unicode="~" horiz-adv-x="1241" 
d="M1038 700v0q-26 -55 -76 -108q-24 -25 -51 -41q-30 -17 -65 -17q-37 0 -90 25q-56 18 -117 47q-59 29 -119 49q-61 21 -119 21q-108 -2 -178 -78q-71 -74 -119 -168l99 -113v0q33 62 78 121q45 58 118 60q45 0 88 -17q43 -16 82 -35q54 -22 129 -53q37 -14 74 -24
q37 -13 70 -13q55 0 100 23q43 18 80 53t65 74q29 41 50 82z" />
    <glyph glyph-name="uni00A0" unicode="&#xa0;" horiz-adv-x="569" 
 />
    <glyph glyph-name="fl" unicode="&#xa1;" horiz-adv-x="682" 
d="M330 1053q-43 -4 -109 -72q-31 -29 -51 -59q-25 -31 -25 -54q0 -18 25 -47q20 -31 51 -61q31 -31 62 -51q14 -11 26 -17q13 -8 21 -8q22 0 53 25q31 20 59 51q33 30 52 61q20 29 20 47q0 23 -20 54q-19 30 -52 59q-28 33 -59 51q-31 21 -53 21v0zM166 -342q-6 -23 -2 -47
q2 -10 14 -16q12 -11 37 -11q86 2 203 21q35 10 35 43q0 28 -7 55l-94 752q2 18 -4 41q-6 22 -26 24q-31 -2 -35 -51z" />
    <glyph glyph-name="questiondown" unicode="&#xa2;" 
d="M483 207v0q-55 59 -80 153q-26 93 -26 164q0 49 10 99q8 47 29 88q22 41 59 65q37 23 94 23q51 0 70 -6q16 -9 33 -33zM711 879q-181 -3 -287 -58q-109 -55 -162 -137t-70 -158q-16 -78 -16 -123q-4 -280 240 -395l-107 -319h84l98 295q23 -7 78 -7q74 3 146 25
q69 23 125 57q55 35 90 72q32 35 32 64q0 20 -24 22q-12 0 -35 -14q-22 -17 -53 -39q-31 -23 -74 -39q-43 -19 -98 -19q-90 3 -123 37l170 535v0q8 -19 14 -31q4 -14 6 -24q5 -19 21 -19q31 2 90 47q27 23 45 43q16 23 16 37q-2 57 -47 88q-43 31 -86 37l97 287h-80z" />
    <glyph glyph-name="exclamdown" unicode="&#xa3;" 
d="M152 119q-3 76 69 78q43 0 82 -15q19 -6 31 -14q10 -8 10 -19q0 -24 -31 -59q-32 -37 -94 -39q-65 0 -67 68v0zM324 702q26 -63 51 -153q12 -45 18 -92q4 -25 6 -47v-50q0 -106 -16 -120q-41 16 -76 24q-35 10 -78 10q-147 -4 -147 -157q0 -49 22 -76q19 -27 48 -43
q28 -12 57 -14q27 -7 39 -7q74 5 117 52q40 45 53 71q55 -53 135 -86q80 -34 154 -37q102 3 169 50q68 45 107 112q76 146 74 266q0 39 -8 52q-11 8 -23 8q-27 -2 -35 -25q-8 -26 -12 -49q-25 -119 -80 -166q-57 -51 -184 -49q-115 -2 -224 35q35 65 58 151q18 86 18 150
q0 63 -6 108q-10 46 -16 82h94q33 -2 55 7q23 8 23 36q0 33 -23 41q-22 4 -55 4h-119q-26 97 -53 199q-33 100 -33 199q0 86 51 147q47 58 133 60q62 0 99 -17q37 -18 53 -51q27 -68 25 -174q0 -16 6 -29q6 -16 18 -16q17 0 41 20q23 19 45 47q23 29 39 58q14 26 14 43
q0 63 -82 123q-83 59 -241 61q-178 -4 -275 -135q-100 -133 -100 -309q0 -101 35 -226h-107q-30 0 -53 -4q-24 -8 -24 -41q0 -28 24 -36q23 -9 53 -7h136z" />
    <glyph glyph-name="breve" unicode="&#xa4;" 
d="M51 309l135 -137v0l99 98v0q131 -90 288 -90q156 0 281 90v0l98 -98v0l135 137l-98 99q88 124 88 278q0 158 -90 283l98 96l-135 139v0l-98 -98v0q-125 86 -275 88q-159 0 -290 -88v0l-101 98v0l-135 -139l98 -96q-88 -129 -86 -285q0 -150 86 -276zM577 979
q121 -2 203 -86q80 -84 82 -205q-2 -121 -82 -205q-82 -86 -205 -88q-122 2 -206 84q-88 80 -90 205q2 129 90 211q84 82 208 84v0z" />
    <glyph glyph-name="quotedblleft" unicode="&#xa5;" 
d="M459 618q28 -49 28 -102h-176v-106h176v-84h-176v-107h176q0 -70 -26 -102q-29 -33 -68 -43q-39 -11 -67 -19q-31 -8 -31 -30q0 -23 14 -29q15 -4 27 -4q59 6 268 8q105 0 172 -4q64 -4 94 -4q17 0 31 4q14 2 14 22q-2 35 -30 43q-33 9 -74 15q-41 8 -72 37
q-35 28 -35 106h175v107h-175v84h175v106h-175q0 55 7 76q4 22 16 47l221 491q172 242 178 236q0 20 -26 20q-25 -6 -201 -8q-63 0 -96 4t-53 4q-19 0 -25 -10q-8 -10 -8 -20q0 -21 28 -27q23 -8 56 -16q32 -9 57 -29q23 -23 25 -74q-2 -67 -29 -118l-158 -316
q-32 -59 -41 -55q-16 2 -55 94l-158 354q-26 66 -24 92q0 33 16 46q14 12 33 14q18 2 35 10q12 6 12 27q0 26 -29 28q-26 -6 -254 -8q-55 0 -94 4q-41 4 -65 4h-39q-19 -6 -19 -26q0 -23 17 -29q16 -4 41 -10q24 -4 53 -23q24 -18 47 -69z" />
    <glyph glyph-name="brokenbar.001" unicode="&#xa6;" horiz-adv-x="1241" 
d="M530 0h179v610h-179v-610zM530 915h179v611h-179v-611z" />
    <glyph glyph-name="logicalnot" unicode="&#xa7;" horiz-adv-x="1024" 
d="M766 508q0 -41 -33 -82q-35 -45 -96 -47q-39 0 -98 41q-64 35 -127 92q-64 55 -107 115q-47 57 -47 98q2 70 43 100q39 29 82 29q41 -2 104 -37q64 -35 127 -92q64 -55 109 -113q41 -59 43 -104v0zM494 -186q-60 2 -99 24q-43 21 -43 43q2 17 41 41q17 12 29 33
q12 18 12 45q-2 55 -35 82q-37 22 -73 22q-127 -2 -127 -127q0 -51 30 -88q27 -38 70 -63q94 -51 186 -51q131 0 228 65q100 64 102 201q-2 100 -59 174q-25 37 -54 64q-30 28 -59 47l4 4q53 -4 148 51q45 29 73 78q29 49 29 123q-2 112 -78 213q-76 100 -205 196
q-55 45 -102 78t-84 63q-35 31 -53 70q-23 37 -23 90q0 58 53 94q50 35 113 37q66 -2 96 -20q31 -21 31 -31q-2 -22 -41 -51q-16 -14 -29 -33q-14 -20 -14 -49q0 -27 29 -61q28 -39 86 -41q47 0 74 20q24 18 32 41q11 53 8 68q0 51 -59 118q-33 33 -86 56q-55 20 -135 20
q-88 0 -145 -27q-58 -28 -91 -69q-32 -41 -45 -84q-14 -43 -14 -76q0 -63 16 -106q17 -43 41 -74q29 -31 62 -55q31 -27 67 -58v-4q-270 -12 -272 -260q0 -82 53 -160q49 -77 121 -145q74 -68 143 -119q70 -53 113 -88q45 -31 76 -69q29 -39 31 -99q-5 -94 -68 -125
q-61 -28 -104 -28v0z" />
    <glyph glyph-name="nonbreakingspace" unicode="&#xa8;" horiz-adv-x="682" 
d="M156 1245q-21 -2 -56 -45q-16 -18 -26 -39q-15 -20 -15 -37q2 -28 41 -71q17 -19 33 -33q16 -17 23 -17q22 2 57 50q16 18 29 41q10 18 10 30q0 17 -10 37q-13 21 -29 39q-14 21 -31 33q-16 12 -26 12v0zM526 1245q-20 -2 -55 -45q-16 -18 -27 -39q-14 -20 -14 -37
q2 -28 41 -71q16 -19 33 -33q16 -17 22 -17q23 2 58 50q16 18 28 41q11 18 11 30q0 17 -11 37q-12 21 -28 39q-15 21 -31 33t-27 12v0z" />
    <glyph glyph-name="guillemotleft" unicode="&#xa9;" horiz-adv-x="1530" 
d="M762 -23q307 5 508 215q204 205 209 517q-5 315 -209 522q-201 207 -508 211q-303 -4 -504 -213q-205 -207 -209 -520q4 -312 209 -517q201 -210 504 -215v0zM1366 711q-4 -260 -176 -437q-172 -180 -428 -184q-252 4 -422 184q-174 177 -178 437q2 262 178 438
q170 176 422 180q256 -4 428 -178q172 -176 176 -440v0zM1063 1055q-135 55 -279 59q-180 -2 -288 -117q-113 -114 -113 -299q0 -176 104 -286q101 -117 275 -119q102 0 194 49q90 47 131 141l-53 23q2 -6 -41 -64q-20 -24 -61 -45q-43 -22 -111 -22q-69 0 -119 35
q-51 30 -84 84q-63 112 -61 239q0 119 61 211q58 94 183 96q92 -2 139 -57q49 -57 59 -141h64v213z" />
    <glyph glyph-name="Ydieresis" unicode="&#xaa;" horiz-adv-x="569" 
d="M494 795h-451v-70h451v70zM328 1034q0 -39 -97 -45q-43 2 -57 33q-14 29 -12 43q2 65 59 98q51 33 96 33q13 0 11 -27v-135zM469 1278q-2 186 -203 182q-76 0 -155 -29q-37 -14 -62 -43q-26 -30 -26 -69q0 -10 8 -17q4 -8 30 -8q37 0 58 10q18 7 24 17q9 12 11 24
q-2 13 -2 23q0 33 18 43q16 8 43 8q45 0 70 -16q24 -15 32 -43q13 -25 15 -58q-2 -30 -2 -63q-138 -27 -224 -68q-90 -43 -92 -139q0 -49 37 -82q35 -35 90 -35q58 0 113 23q53 22 94 53v0q6 -26 33 -49q24 -27 69 -27q35 0 72 19q19 8 31 20q10 13 10 27q-2 18 -31 16
q-14 -6 -28 -8q-33 0 -33 55v234z" />
    <glyph glyph-name="Acircumflex" unicode="&#xab;" horiz-adv-x="1024" 
d="M483 446l357 -303q12 -8 22 -8q14 0 14 14q-2 17 -24 58q-27 41 -62 92q-79 109 -116 147q37 43 116 152q35 51 62 92q22 39 24 53q0 13 -14 15q-10 0 -22 -8zM152 446l356 -303q12 -8 22 -8q15 0 15 14q-2 17 -25 58q-26 41 -61 92q-80 109 -117 147q37 43 117 152
q35 51 61 92q23 39 25 53q0 13 -15 15q-10 0 -22 -8z" />
    <glyph glyph-name="daggerdbl" unicode="&#xac;" horiz-adv-x="1241" 
d="M960 233h177v578h-1033v-176h856v-402z" />
    <glyph glyph-name="uni00AD" unicode="&#xad;" horiz-adv-x="682" 
d="M160 471q-29 -8 -49 -20q-25 -13 -25 -31v-135q0 -27 20 -27q15 0 54 14l360 127q31 13 53 23q21 12 21 29v135q0 26 -21 26q-14 0 -53 -14z" />
    <glyph glyph-name="Delta" unicode="&#xae;" horiz-adv-x="1530" 
d="M762 -23q307 5 508 215q204 205 209 517q-5 315 -209 522q-201 207 -508 211q-303 -4 -504 -213q-205 -207 -209 -520q4 -312 209 -517q201 -210 504 -215v0zM1366 711q-4 -260 -176 -437q-172 -180 -428 -184q-252 4 -422 184q-174 177 -178 437q2 262 178 438
q170 176 422 180q256 -4 428 -178q172 -176 176 -440v0zM653 688h70q35 -2 59 -29q17 -16 37 -67q23 -51 49 -111q29 -57 60 -100q30 -47 63 -47h141v41q-47 0 -71 45q-29 45 -60 112q-22 58 -59 113t-100 68v4q84 14 141 69q57 54 59 142q-2 75 -63 133q-60 55 -121 57
h-436v-43q29 0 47 2q18 0 27 -6q16 -8 16 -55v-586q0 -41 -25 -49q-24 -8 -67 -6v-41h321v41q-49 -2 -67 6q-21 8 -21 49v258zM653 993q-2 51 11 68q12 12 67 12q164 0 166 -164q0 -61 -18 -94q-19 -33 -54 -49q-69 -27 -172 -25v252z" />
    <glyph glyph-name="Gbreve" unicode="&#xaf;" horiz-adv-x="682" 
d="M666 1067v121h-650v-121h650z" />
    <glyph glyph-name="oslash" unicode="&#xb0;" horiz-adv-x="819" 
d="M717 1135q-2 131 -90 217q-86 88 -217 90q-129 -2 -218 -90q-86 -86 -90 -217q2 -130 93 -216q86 -90 215 -92q131 2 217 92q88 86 90 216v0zM590 1135q0 -76 -51 -127q-52 -54 -129 -54q-76 0 -127 54q-54 51 -54 127q0 75 54 126q51 52 127 54q77 -2 129 -54
q51 -51 51 -126v0z" />
    <glyph glyph-name="oe" unicode="&#xb1;" horiz-adv-x="1241" 
d="M532 743h-428v-176h428v-301h177v301h428v176h-428v291h-177v-291zM104 0h1033v176h-1033v-176z" />
    <glyph glyph-name="twosuperior" unicode="&#xb2;" horiz-adv-x="682" 
d="M256 676q-47 0 -45 14q0 14 57 72q54 53 121 131q72 80 123 164q51 82 53 147q-2 90 -63 135q-64 47 -158 47q-63 0 -117 -20q-53 -19 -90 -47q-37 -29 -55 -53q-23 -25 -23 -39q-2 -17 21 -17q8 0 26 15q17 10 37 26q41 37 123 39q154 -2 158 -139q-4 -84 -74 -189
q-69 -106 -131 -176q-119 -135 -153 -172q-35 -41 -33 -53q2 -14 35 -12q43 4 168 6q106 0 178 -2q71 -4 98 -4q33 2 51 31q14 26 23 45q20 30 41 69q20 39 20 58q-2 16 -18 18q-13 0 -21 -12q-12 -13 -31 -33q-16 -18 -47 -33q-30 -16 -82 -16h-192z" />
    <glyph glyph-name="threesuperior.001" unicode="&#xb3;" horiz-adv-x="682" 
d="M260 954q12 4 70 6q82 0 118 -36q33 -41 33 -113q0 -94 -63 -158q-62 -65 -168 -65q-43 0 -70 10q-31 10 -51 22q-20 13 -35 23q-14 10 -26 10q-21 -2 -21 -20q0 -21 62 -56q59 -34 170 -36q153 2 255 92q101 86 103 221q-2 76 -31 117q-29 43 -67 59q-97 31 -103 27
q4 16 62 61q55 43 59 117q-2 80 -66 117q-61 34 -141 34q-49 0 -94 -16q-47 -16 -84 -41q-33 -22 -55 -45q-23 -23 -23 -39q-2 -14 19 -16q10 2 61 43q49 39 115 41q137 -4 141 -131q0 -50 -27 -84q-28 -37 -63 -62q-35 -24 -64 -39q-30 -14 -30 -26q-2 -15 14 -17v0z" />
    <glyph glyph-name="ellipsis" unicode="&#xb4;" horiz-adv-x="682" 
d="M276 985l285 180q35 21 64 43q26 25 26 66q0 16 -18 43q-21 26 -64 28q-28 0 -53 -18q-29 -23 -84 -84l-250 -258h94z" />
    <glyph glyph-name="quotedblright" unicode="&#xb5;" 
d="M952 833q2 43 -24 46q-15 -3 -56 -25q-47 -16 -94 -23q-47 -8 -88 -14q-37 -2 -59 -12q-27 -8 -27 -31q0 -20 21 -24q20 -7 45 -9q26 -2 45 -14q20 -14 20 -51v-436q-2 -64 -59 -99q-56 -35 -121 -35q-104 0 -141 58q-39 55 -37 151v518q2 43 -25 46q-14 -3 -55 -25
q-47 -16 -94 -23q-47 -8 -88 -14q-37 -2 -60 -12q-26 -8 -26 -31q0 -20 20 -24q21 -7 45 -9q27 -2 45 -14q21 -14 21 -51v-348q-2 -336 -21 -467q-10 -70 -16 -109q-8 -41 -8 -69q0 -56 30 -76q27 -23 70 -23q96 -2 100 99q-2 61 -20 153q-23 92 -25 184q27 -18 64 -30
q39 -13 106 -13q68 3 117 19t82 39q35 24 59 47q23 20 37 33v0q0 -123 15 -138l309 39q22 2 37 7q14 4 14 26q0 21 -23 25q-22 4 -55 6q-29 2 -53 18q-27 17 -27 62v673z" />
    <glyph glyph-name="florin" unicode="&#xb6;" horiz-adv-x="1286" 
d="M1038 1368h131v74h-530h-164q-90 -4 -176 -33q-84 -29 -139 -105q-58 -75 -58 -221q2 -145 62 -223q55 -78 137 -110q82 -29 162 -31q76 -4 125 0v-776h-162v-84h743v84h-131v1425zM895 1368v-1425h-164v1425h164zM588 780h-4q-78 -18 -123 47q-47 68 -47 260
q-2 140 30 213q19 37 56 56q32 16 88 12v-588z" />
    <glyph glyph-name="scedilla" unicode="&#xb8;" horiz-adv-x="682" 
d="M217 -199l29 -12q20 10 57 10q96 -2 96 -80q2 -16 -14 -47q-10 -12 -35 -22q-26 -12 -74 -12q-12 0 -43 4q-30 4 -77 18l-27 -65q37 -13 78 -23q41 -12 78 -12q92 0 182 30q41 19 67 52q25 30 25 86q-2 90 -59 123q-54 30 -97 28q-41 0 -77 -10l55 131h-76z" />
    <glyph glyph-name="onesuperior" unicode="&#xb9;" horiz-adv-x="682" 
d="M408 1251q6 80 10 123q-2 12 -15 12q0 -2 -45 -28q-43 -29 -188 -66q-14 -2 -31 -6q-18 -6 -18 -25q-2 -16 18 -20q8 0 35 8q25 4 47 4q17 0 31 -8q14 -10 14 -63v-508q0 -43 -20 -58q-19 -18 -47 -20q-25 -2 -45 -6q-25 -4 -25 -23q-2 -14 10 -18q80 4 191 6
q88 -4 164 -6q65 -4 67 22q0 17 -22 19q-23 2 -54 4q-28 4 -51 24q-26 19 -26 66v567z" />
    <glyph glyph-name="fraction" unicode="&#xba;" horiz-adv-x="614" 
d="M149 1243q-2 72 29 123q29 53 113 55q53 -2 90 -31q35 -30 55 -81q37 -105 37 -195q0 -70 -29 -111q-32 -45 -106 -45q-49 0 -84 31q-37 29 -59 72q-46 92 -46 182v0zM10 1171q2 -120 88 -186q82 -70 199 -70q141 0 225 82q82 76 84 205q-2 119 -82 188q-82 70 -211 70
q-129 -2 -213 -78q-88 -80 -90 -211v0zM520 795h-450v-70h450v70z" />
    <glyph glyph-name="Ecircumflex" unicode="&#xbb;" horiz-adv-x="1024" 
d="M862 446l-356 304q-10 8 -23 8q-14 -2 -14 -15q0 -14 29 -53q26 -41 61 -92q78 -109 113 -152q-35 -38 -113 -147q-35 -51 -61 -92q-29 -41 -29 -58q0 -14 14 -14q13 0 23 8zM530 446l-356 304q-10 8 -22 8q-15 -2 -15 -15q0 -14 29 -53q26 -41 61 -92q78 -109 113 -152
q-35 -38 -113 -147q-35 -51 -61 -92q-29 -41 -29 -58q0 -14 15 -14q12 0 22 8z" />
    <glyph glyph-name="onequarter.001" unicode="&#xbc;" horiz-adv-x="1708" 
d="M502 0l843 1386h-118l-844 -1386h119zM1063 414q-31 -31 -84 -95q-25 -28 -41 -57q-21 -26 -21 -49q0 -25 25 -27q20 -4 43 -4h283q26 0 32 -2q2 -4 2 -35v-200q0 -29 -4 -39q-8 -12 -8 -29q0 -8 14 -8q21 0 76 10q58 10 62 23v254q-2 26 20 26h58q45 2 55 58q8 49 8 96
q-2 16 -14 16q-17 -2 -23 -24q-4 -11 -10 -17q-8 -10 -27 -10h-49q-20 0 -18 31v411v33q-2 19 -19 21q-20 -2 -51 -35q-33 -31 -47 -49zM1302 340q2 -33 -2 -37q-6 -8 -59 -6h-182q-21 2 -13 16l248 291q8 6 8 -27v-237zM408 1251q6 80 10 123q-2 12 -15 12q0 -2 -45 -28
q-43 -29 -188 -66q-14 -2 -31 -6q-18 -6 -18 -25q-2 -16 18 -20q8 0 35 8q25 4 47 4q17 0 31 -8q14 -10 14 -63v-508q0 -43 -20 -58q-19 -18 -47 -20q-25 -2 -45 -6q-25 -4 -25 -23q-2 -14 10 -18q80 4 191 6q88 -4 164 -6q65 -4 67 22q0 17 -22 19q-23 2 -54 4
q-28 4 -51 24q-26 19 -26 66v567z" />
    <glyph glyph-name="onehalf" unicode="&#xbd;" horiz-adv-x="1708" 
d="M477 0l844 1386h-119l-844 -1386h119zM1196 121q-47 0 -45 14q0 14 57 72q53 53 121 131q72 80 123 164q51 82 53 147q-2 90 -63 135q-64 47 -158 47q-63 0 -117 -20q-53 -18 -90 -47t-55 -53q-23 -25 -23 -39q-2 -17 21 -17q8 0 26 15q17 10 37 26q41 37 123 39
q154 -2 158 -139q-4 -84 -74 -188q-69 -107 -131 -177q-119 -135 -154 -172q-34 -41 -32 -53t35 -12q43 4 167 6q107 0 179 -2q71 -4 98 -4q33 2 51 31q14 26 23 45q20 30 41 69q20 39 20 58q-2 16 -18 18q-13 0 -21 -12q-12 -13 -31 -33q-16 -18 -47 -33q-30 -16 -82 -16
h-192zM408 1251q6 80 10 123q-2 12 -15 12q0 -2 -45 -28q-43 -29 -188 -66q-14 -2 -31 -6q-18 -6 -18 -25q-2 -16 18 -20q8 0 35 8q25 4 47 4q17 0 31 -8q14 -10 14 -63v-508q0 -43 -20 -58q-19 -18 -47 -20q-25 -2 -45 -6q-25 -4 -25 -23q-2 -14 10 -18q80 4 191 6
q88 -4 164 -6q65 -4 67 22q0 17 -22 19q-23 2 -54 4q-28 4 -51 24q-26 19 -26 66v567z" />
    <glyph glyph-name="threequarters.001" unicode="&#xbe;" horiz-adv-x="1708" 
d="M502 0l843 1386h-118l-844 -1386h119zM1063 414q-31 -31 -84 -95q-25 -28 -41 -57q-21 -26 -21 -49q0 -25 25 -27q20 -4 43 -4h283q26 0 32 -2q2 -4 2 -35v-200q0 -29 -4 -39q-8 -12 -8 -29q0 -8 14 -8q21 0 76 10q58 10 62 23v254q-2 26 20 26h58q45 2 55 58q8 49 8 96
q-2 16 -14 16q-17 -2 -23 -24q-4 -11 -10 -17q-8 -10 -27 -10h-49q-20 0 -18 31v411v33q-2 19 -19 21q-20 -2 -51 -35q-33 -31 -47 -49zM1302 340q2 -33 -2 -37q-6 -8 -59 -6h-182q-21 2 -13 16l248 291q8 6 8 -27v-237zM260 954q12 4 70 6q82 0 118 -36q33 -41 33 -113
q0 -94 -63 -158q-62 -65 -168 -65q-43 0 -70 10q-31 10 -51 22q-20 13 -35 23q-14 10 -26 10q-21 -2 -21 -20q0 -21 62 -56q59 -34 170 -36q153 2 255 92q101 86 103 221q-2 76 -31 117q-29 43 -67 59q-97 31 -103 27q4 16 62 61q55 43 59 117q-2 80 -66 117q-61 34 -141 34
q-49 0 -94 -16q-47 -16 -84 -41q-33 -22 -55 -45q-23 -23 -23 -39q-2 -14 19 -16q10 2 61 43q49 39 115 41q137 -4 141 -131q0 -50 -27 -84q-28 -37 -63 -62q-35 -24 -64 -39q-30 -14 -30 -26q-2 -15 14 -17v0z" />
    <glyph glyph-name="fi" unicode="&#xbf;" horiz-adv-x="797" 
d="M418 -416q65 2 116 25q52 20 89 51q36 33 55 64q18 28 18 49q0 10 -2 20q-6 10 -20 10q-13 0 -25 -14q-14 -16 -37 -35q-20 -18 -49 -32q-29 -17 -65 -17q-60 2 -95 39q-34 37 -34 96q0 47 26 119q25 72 53 150q33 77 56 149q22 70 22 117q0 63 -18 108q-21 43 -55 45
q-21 0 -21 -20q0 -19 6 -37q4 -23 4 -39q-2 -84 -47 -164q-49 -80 -112 -153q-60 -74 -109 -146q-51 -73 -51 -147q2 -125 92 -180q88 -58 203 -58v0zM471 1053q-43 -4 -109 -72q-30 -29 -51 -59q-24 -31 -24 -54q0 -18 24 -47q21 -31 51 -61q31 -31 62 -51q14 -11 27 -17
q12 -8 20 -8q23 0 53 25q31 20 60 51q32 30 51 61q20 29 20 47q0 23 -20 54q-19 30 -51 59q-29 33 -60 51q-30 21 -53 21v0z" />
    <glyph glyph-name="Egrave" unicode="&#xc0;" horiz-adv-x="1593" 
d="M575 606q-28 0 -45 2q-20 2 -20 17q2 41 22 75l158 363q17 26 23 24q6 2 16 -16l168 -371q10 -16 16 -34q6 -19 6 -41q-2 -23 -65 -19h-279zM917 496q37 2 62 -29q24 -35 70 -152q34 -75 36 -137q0 -45 -20 -67q-23 -23 -51 -35q-29 -10 -49 -23q-25 -14 -25 -37
q0 -20 20 -22q17 -2 43 -2q91 6 226 8q178 -4 264 -8q43 0 59 4q15 2 15 27q0 26 -17 32q-16 4 -45 6q-28 5 -57 25q-31 18 -58 70l-552 1253q-19 45 -27 57q-8 8 -23 8q-16 0 -28 -22q-10 -23 -23 -49l-555 -1239q-18 -43 -43 -64q-28 -22 -53 -34q-25 -11 -41 -23
q-18 -10 -18 -29q0 -18 20 -20q19 -2 41 -2q88 6 180 8q97 -4 193 -8h71q33 0 35 28q0 21 -33 33q-32 8 -77 19q-41 12 -74 39q-37 26 -37 79q0 39 19 86q14 46 24 76q19 51 37 82q18 29 33 41q16 16 30 19q13 2 25 2h403zM968 1571l-250 258q-56 61 -80 84q-29 18 -57 18
q-43 -2 -62 -28q-20 -27 -20 -43q0 -41 30 -66q27 -22 60 -43l284 -180h95z" />
    <glyph glyph-name="zcaron" unicode="&#xc1;" horiz-adv-x="1593" 
d="M575 606q-28 0 -45 2q-20 2 -20 17q2 41 22 75l158 363q17 26 23 24q6 2 16 -16l168 -371q10 -16 16 -34q6 -19 6 -41q-2 -23 -65 -19h-279zM917 496q37 2 62 -29q24 -35 70 -152q34 -75 36 -137q0 -45 -20 -67q-23 -23 -51 -35q-29 -10 -49 -23q-25 -14 -25 -37
q0 -20 20 -22q17 -2 43 -2q91 6 226 8q178 -4 264 -8q43 0 59 4q15 2 15 27q0 26 -17 32q-16 4 -45 6q-28 5 -57 25q-31 18 -58 70l-552 1253q-19 45 -27 57q-8 8 -23 8q-16 0 -28 -22q-10 -23 -23 -49l-555 -1239q-18 -43 -43 -64q-28 -22 -53 -34q-25 -11 -41 -23
q-18 -10 -18 -29q0 -18 20 -20q19 -2 41 -2q88 6 180 8q97 -4 193 -8h71q33 0 35 28q0 21 -33 33q-32 8 -77 19q-41 12 -74 39q-37 26 -37 79q0 39 19 86q14 46 24 76q19 51 37 82q18 29 33 41q16 16 30 19q13 2 25 2h403zM752 1571l285 180q35 21 64 43q26 25 26 66
q0 16 -18 43q-21 26 -64 28q-28 0 -53 -18q-29 -23 -84 -84l-250 -258h94z" />
    <glyph glyph-name="scaron" unicode="&#xc2;" horiz-adv-x="1593" 
d="M575 606q-28 0 -45 2q-20 2 -20 17q2 41 22 75l158 363q17 26 23 24q6 2 16 -16l168 -371q10 -16 16 -34q6 -19 6 -41q-2 -23 -65 -19h-279zM917 496q37 2 62 -29q24 -35 70 -152q34 -75 36 -137q0 -45 -20 -67q-23 -23 -51 -35q-29 -10 -49 -23q-25 -14 -25 -37
q0 -20 20 -22q17 -2 43 -2q91 6 226 8q178 -4 264 -8q43 0 59 4q15 2 15 27q0 26 -17 32q-16 4 -45 6q-28 5 -57 25q-31 18 -58 70l-552 1253q-19 45 -27 57q-8 8 -23 8q-16 0 -28 -22q-10 -23 -23 -49l-555 -1239q-18 -43 -43 -64q-28 -22 -53 -34q-25 -11 -41 -23
q-18 -10 -18 -29q0 -18 20 -20q19 -2 41 -2q88 6 180 8q97 -4 193 -8h71q33 0 35 28q0 21 -33 33q-32 8 -77 19q-41 12 -74 39q-37 26 -37 79q0 39 19 86q14 46 24 76q19 51 37 82q18 29 33 41q16 16 30 19q13 2 25 2h403zM882 1917h-142l-254 -346h88l238 211v0l235 -211
h89z" />
    <glyph glyph-name="Iacute" unicode="&#xc3;" horiz-adv-x="1593" 
d="M575 606q-28 0 -45 2q-20 2 -20 17q2 41 22 75l158 363q17 26 23 24q6 2 16 -16l168 -371q10 -16 16 -34q6 -19 6 -41q-2 -23 -65 -19h-279zM917 496q37 2 62 -29q24 -35 70 -152q34 -75 36 -137q0 -45 -20 -67q-23 -23 -51 -35q-29 -10 -49 -23q-25 -14 -25 -37
q0 -20 20 -22q17 -2 43 -2q91 6 226 8q178 -4 264 -8q43 0 59 4q15 2 15 27q0 26 -17 32q-16 4 -45 6q-28 5 -57 25q-31 18 -58 70l-552 1253q-19 45 -27 57q-8 8 -23 8q-16 0 -28 -22q-10 -23 -23 -49l-555 -1239q-18 -43 -43 -64q-28 -22 -53 -34q-25 -11 -41 -23
q-18 -10 -18 -29q0 -18 20 -20q19 -2 41 -2q88 6 180 8q97 -4 193 -8h71q33 0 35 28q0 21 -33 33q-32 8 -77 19q-41 12 -74 39q-37 26 -37 79q0 39 19 86q14 46 24 76q19 51 37 82q18 29 33 41q16 16 30 19q13 2 25 2h403zM1106 1854q-2 -11 -24 -54q-12 -18 -31 -34
q-18 -17 -47 -17q-70 2 -147 49q-37 19 -76 35q-39 14 -80 14q-51 0 -90 -20t-68 -55q-55 -74 -67 -150h67q2 15 25 56q20 40 86 43q68 -5 133 -48q37 -18 76 -32q39 -17 84 -17q104 2 157 72q52 65 72 158h-70z" />
    <glyph glyph-name="ucircumflex" unicode="&#xc4;" horiz-adv-x="1593" 
d="M575 606q-28 0 -45 2q-20 2 -20 17q2 41 22 75l158 363q17 26 23 24q6 2 16 -16l168 -371q10 -16 16 -34q6 -19 6 -41q-2 -23 -65 -19h-279zM917 496q37 2 62 -29q24 -35 70 -152q34 -75 36 -137q0 -45 -20 -67q-23 -23 -51 -35q-29 -10 -49 -23q-25 -14 -25 -37
q0 -20 20 -22q17 -2 43 -2q91 6 226 8q178 -4 264 -8q43 0 59 4q15 2 15 27q0 26 -17 32q-16 4 -45 6q-28 5 -57 25q-31 18 -58 70l-552 1253q-19 45 -27 57q-8 8 -23 8q-16 0 -28 -22q-10 -23 -23 -49l-555 -1239q-18 -43 -43 -64q-28 -22 -53 -34q-25 -11 -41 -23
q-18 -10 -18 -29q0 -18 20 -20q19 -2 41 -2q88 6 180 8q97 -4 193 -8h71q33 0 35 28q0 21 -33 33q-32 8 -77 19q-41 12 -74 39q-37 26 -37 79q0 39 19 86q14 46 24 76q19 51 37 82q18 29 33 41q16 16 30 19q13 2 25 2h403zM628 1831q-21 -2 -56 -45q-16 -18 -26 -39
q-15 -20 -15 -37q2 -28 41 -71q17 -19 33 -33q16 -17 23 -17q22 2 57 50q16 18 29 41q10 18 10 30q0 17 -10 37q-13 21 -29 39q-14 21 -31 33q-16 12 -26 12v0zM998 1831q-20 -2 -55 -45q-16 -18 -27 -39q-14 -20 -14 -37q2 -28 41 -71q16 -19 33 -33q16 -17 22 -17
q23 2 58 50q16 18 28 41q11 18 11 30q0 17 -11 37q-12 21 -28 39q-15 21 -31 33t-27 12v0z" />
    <glyph glyph-name="udieresis" unicode="&#xc5;" horiz-adv-x="1593" 
d="M575 606q-28 0 -45 2q-20 2 -20 17q2 41 22 75l158 363q17 26 23 24q6 2 16 -16l168 -371q10 -16 16 -34q6 -19 6 -41q-2 -23 -65 -19h-279zM917 496q37 2 62 -29q24 -35 70 -152q34 -75 36 -137q0 -45 -20 -67q-23 -23 -51 -35q-29 -10 -49 -23q-25 -14 -25 -37
q0 -20 20 -22q17 -2 43 -2q91 6 226 8q178 -4 264 -8q43 0 59 4q15 2 15 27q0 26 -17 32q-16 4 -45 6q-28 5 -57 25q-31 18 -58 70l-552 1253q-19 45 -27 57q-8 8 -23 8q-16 0 -28 -22q-10 -23 -23 -49l-555 -1239q-18 -43 -43 -64q-28 -22 -53 -34q-25 -11 -41 -23
q-18 -10 -18 -29q0 -18 20 -20q19 -2 41 -2q88 6 180 8q97 -4 193 -8h71q33 0 35 28q0 21 -33 33q-32 8 -77 19q-41 12 -74 39q-37 26 -37 79q0 39 19 86q14 46 24 76q19 51 37 82q18 29 33 41q16 16 30 19q13 2 25 2h403zM800 1843q49 0 84 -32q33 -31 33 -82
q0 -47 -33 -80q-35 -37 -84 -37q-47 0 -80 37q-37 33 -37 80q0 51 37 82q33 32 80 32v0zM800 1520q88 0 149 63q58 58 60 146q-2 90 -60 147q-61 57 -149 59q-84 -2 -145 -59q-64 -57 -64 -147q0 -88 64 -146q57 -63 145 -63v0z" />
    <glyph glyph-name="Atilde" unicode="&#xc6;" horiz-adv-x="2048" 
d="M1057 606h-426q-17 0 -35 2q-19 2 -12 17l407 626q14 25 27 41q10 17 24 17q13 0 15 -13v-28v-662zM1057 248q0 -90 -23 -127q-22 -37 -55 -47q-29 -11 -51 -17q-27 -8 -27 -43q0 -20 39 -22q168 6 262 8q113 -4 537 -8q129 4 209 104q77 99 79 223q0 31 -6 39
q-10 7 -16 7q-25 -3 -47 -41q-23 -39 -70 -93q-45 -51 -147 -90q-105 -45 -293 -45q-55 0 -82 17q-31 12 -43 36q-10 27 -12 64t-2 84v262q-2 88 8 117q12 26 78 26h151q78 0 117 -32q35 -33 49 -74t25 -74q8 -37 30 -37q35 2 39 41q2 37 -4 60l-14 364q-2 41 -13 47
q-12 4 -26 4t-25 -26q-14 -29 -35 -68q-20 -35 -57 -63q-39 -31 -106 -31h-129q-62 -2 -76 20q-14 21 -12 82v287q0 55 8 84q6 31 28 43q43 18 220 16q147 -2 208 -34q60 -35 72 -84q12 -45 16 -82q5 -39 35 -39q35 2 39 39q2 35 -4 55l-8 203q0 35 -41 39q-260 -6 -467 -9
q-561 5 -569 9h-41q-29 -4 -31 -29q0 -18 21 -27q20 -10 45 -16q26 -4 45 -10q20 -8 20 -25q0 -8 -20 -41q-21 -33 -43 -67l-695 -1071q-137 -123 -143 -136q-2 -28 47 -28q60 6 187 8q100 -4 253 -8q29 0 41 6q13 6 13 29q0 24 -33 34q-31 9 -76 17q-41 12 -74 35
q-36 24 -36 75q0 27 28 78q29 51 111 176q22 37 45 47q22 7 65 7h482v-248z" />
    <glyph glyph-name="dagger" unicode="&#xc7;" horiz-adv-x="1479" 
d="M1339 1390q-2 13 -24 13q-19 -2 -29 -33q-6 -12 -14 -23q-13 -12 -27 -12q-20 0 -61 21q-43 20 -101 43q-116 57 -305 61q-383 -8 -555 -268q-88 -119 -129 -256q-43 -141 -43 -272q-2 -62 25 -175q26 -110 98 -229q72 -117 211 -197q137 -83 358 -86q166 3 289 52
t203 114q84 70 123 133q39 60 39 93q0 10 -9 16q-10 6 -20 6q-18 -2 -55 -41t-99 -92q-61 -51 -147 -90q-88 -45 -209 -45q-145 0 -250 69q-106 68 -174 170q-133 224 -131 455q0 215 123 385q119 170 344 176q178 -2 311 -112q133 -109 209 -263q12 -20 27 -43
q12 -26 35 -26q26 0 26 26q2 25 -2 41zM629 -199l29 -12q20 10 57 10q96 -2 96 -80q2 -16 -14 -47q-10 -12 -35 -22q-26 -12 -74 -12q-12 0 -43 4q-30 4 -77 18l-27 -65q37 -13 78 -23q41 -12 78 -12q92 0 182 30q41 19 67 52q25 30 25 86q-2 90 -59 123q-54 30 -97 28
q-41 0 -77 -10l55 131h-76z" />
    <glyph glyph-name="Eth.001" unicode="&#xc8;" horiz-adv-x="1251" 
d="M483 1202q0 55 8 84q7 31 29 43q43 18 219 16q148 -2 209 -34q60 -35 72 -84q12 -45 16 -82q4 -39 35 -39q35 2 39 39q2 35 -4 55l-8 203q0 35 -41 39q-260 -6 -467 -9q-445 5 -545 9q-45 -2 -45 -35q0 -29 39 -39q33 -10 78 -23q45 -10 80 -38q32 -31 34 -101v-958
q0 -90 -22 -127q-23 -37 -55 -47q-29 -11 -52 -17q-26 -8 -26 -43q0 -20 39 -22q168 6 262 8q112 -4 536 -8q129 4 209 104q78 99 80 223q0 31 -6 39q-10 7 -16 7q-25 -3 -48 -41q-22 -39 -69 -93q-45 -51 -148 -90q-104 -45 -292 -45q-56 0 -82 17q-31 12 -43 36
q-11 27 -13 64t-2 84v262q-2 88 8 117q13 26 78 26h152q78 0 117 -32q34 -33 49 -74q14 -41 24 -74q8 -37 31 -37q35 2 39 41q2 37 -4 60l-15 364q-2 41 -12 47q-12 4 -26 4q-15 0 -25 -26q-14 -29 -35 -68q-20 -35 -57 -63q-39 -31 -107 -31h-129q-61 -2 -75 20
q-15 21 -13 82v287zM789 1571l-250 258q-56 61 -80 84q-29 18 -57 18q-43 -2 -62 -28q-20 -27 -20 -43q0 -41 30 -66q27 -22 60 -43l284 -180h95z" />
    <glyph glyph-name="degree" unicode="&#xc9;" horiz-adv-x="1251" 
d="M483 1202q0 55 8 84q7 31 29 43q43 18 219 16q148 -2 209 -34q60 -35 72 -84q12 -45 16 -82q4 -39 35 -39q35 2 39 39q2 35 -4 55l-8 203q0 35 -41 39q-260 -6 -467 -9q-445 5 -545 9q-45 -2 -45 -35q0 -29 39 -39q33 -10 78 -23q45 -10 80 -38q32 -31 34 -101v-958
q0 -90 -22 -127q-23 -37 -55 -47q-29 -11 -52 -17q-26 -8 -26 -43q0 -20 39 -22q168 6 262 8q112 -4 536 -8q129 4 209 104q78 99 80 223q0 31 -6 39q-10 7 -16 7q-25 -3 -48 -41q-22 -39 -69 -93q-45 -51 -148 -90q-104 -45 -292 -45q-56 0 -82 17q-31 12 -43 36
q-11 27 -13 64t-2 84v262q-2 88 8 117q13 26 78 26h152q78 0 117 -32q34 -33 49 -74q14 -41 24 -74q8 -37 31 -37q35 2 39 41q2 37 -4 60l-15 364q-2 41 -12 47q-12 4 -26 4q-15 0 -25 -26q-14 -29 -35 -68q-20 -35 -57 -63q-39 -31 -107 -31h-129q-61 -2 -75 20
q-15 21 -13 82v287zM576 1571l285 180q35 21 64 43q26 25 26 66q0 16 -18 43q-21 26 -64 28q-28 0 -53 -18q-29 -23 -84 -84l-250 -258h94z" />
    <glyph glyph-name="Zcaron" unicode="&#xca;" horiz-adv-x="1251" 
d="M483 1202q0 55 8 84q7 31 29 43q43 18 219 16q148 -2 209 -34q60 -35 72 -84q12 -45 16 -82q4 -39 35 -39q35 2 39 39q2 35 -4 55l-8 203q0 35 -41 39q-260 -6 -467 -9q-445 5 -545 9q-45 -2 -45 -35q0 -29 39 -39q33 -10 78 -23q45 -10 80 -38q32 -31 34 -101v-958
q0 -90 -22 -127q-23 -37 -55 -47q-29 -11 -52 -17q-26 -8 -26 -43q0 -20 39 -22q168 6 262 8q112 -4 536 -8q129 4 209 104q78 99 80 223q0 31 -6 39q-10 7 -16 7q-25 -3 -48 -41q-22 -39 -69 -93q-45 -51 -148 -90q-104 -45 -292 -45q-56 0 -82 17q-31 12 -43 36
q-11 27 -13 64t-2 84v262q-2 88 8 117q13 26 78 26h152q78 0 117 -32q34 -33 49 -74q14 -41 24 -74q8 -37 31 -37q35 2 39 41q2 37 -4 60l-15 364q-2 41 -12 47q-12 4 -26 4q-15 0 -25 -26q-14 -29 -35 -68q-20 -35 -57 -63q-39 -31 -107 -31h-129q-61 -2 -75 20
q-15 21 -13 82v287zM706 1917h-142l-254 -346h88l238 211v0l235 -211h89z" />
    <glyph glyph-name="brokenbar" unicode="&#xcb;" horiz-adv-x="1251" 
d="M483 1202q0 55 8 84q7 31 29 43q43 18 219 16q148 -2 209 -34q60 -35 72 -84q12 -45 16 -82q4 -39 35 -39q35 2 39 39q2 35 -4 55l-8 203q0 35 -41 39q-260 -6 -467 -9q-445 5 -545 9q-45 -2 -45 -35q0 -29 39 -39q33 -10 78 -23q45 -10 80 -38q32 -31 34 -101v-958
q0 -90 -22 -127q-23 -37 -55 -47q-29 -11 -52 -17q-26 -8 -26 -43q0 -20 39 -22q168 6 262 8q112 -4 536 -8q129 4 209 104q78 99 80 223q0 31 -6 39q-10 7 -16 7q-25 -3 -48 -41q-22 -39 -69 -93q-45 -51 -148 -90q-104 -45 -292 -45q-56 0 -82 17q-31 12 -43 36
q-11 27 -13 64t-2 84v262q-2 88 8 117q13 26 78 26h152q78 0 117 -32q34 -33 49 -74q14 -41 24 -74q8 -37 31 -37q35 2 39 41q2 37 -4 60l-15 364q-2 41 -12 47q-12 4 -26 4q-15 0 -25 -26q-14 -29 -35 -68q-20 -35 -57 -63q-39 -31 -107 -31h-129q-61 -2 -75 20
q-15 21 -13 82v287zM452 1831q-21 -2 -56 -45q-16 -18 -26 -39q-15 -20 -15 -37q2 -28 41 -71q17 -19 33 -33q16 -17 23 -17q22 2 57 50q16 18 29 41q10 18 10 30q0 17 -10 37q-13 21 -29 39q-14 21 -31 33q-16 12 -26 12v0zM822 1831q-20 -2 -55 -45q-16 -18 -27 -39
q-14 -20 -14 -37q2 -28 41 -71q16 -19 33 -33q16 -17 22 -17q23 2 58 50q16 18 28 41q11 18 11 30q0 17 -11 37q-12 21 -28 39q-15 21 -31 33t-27 12v0z" />
    <glyph glyph-name="Thorn.001" unicode="&#xcc;" horiz-adv-x="797" 
d="M524 1223q0 71 27 104q12 18 26 27q13 10 25 12q31 10 53 18q23 6 23 29q0 18 -12 25q-15 4 -60 4q-164 -6 -264 -9q-109 5 -231 9h-39q-29 -2 -31 -29q0 -25 39 -33q33 -10 78 -22q45 -11 80 -43q32 -33 34 -103v-983q0 -69 -22 -102q-23 -35 -51 -49q-29 -15 -50 -25
q-24 -10 -24 -37q-2 -22 22 -24q89 6 230 8q219 -4 311 -8q66 0 66 31q0 12 -9 20q-10 6 -26 8q-35 4 -80 15q-45 10 -78 51q-37 39 -37 129v977zM554 1571l-250 258q-56 61 -80 84q-29 18 -57 18q-43 -2 -62 -28q-20 -27 -20 -43q0 -41 30 -66q27 -22 60 -43l284 -180h95z
" />
    <glyph glyph-name="eth.001" unicode="&#xcd;" horiz-adv-x="797" 
d="M524 1223q0 71 27 104q12 18 26 27q13 10 25 12q31 10 53 18q23 6 23 29q0 18 -12 25q-15 4 -60 4q-164 -6 -264 -9q-109 5 -231 9h-39q-29 -2 -31 -29q0 -25 39 -33q33 -10 78 -22q45 -11 80 -43q32 -33 34 -103v-983q0 -69 -22 -102q-23 -35 -51 -49q-29 -15 -50 -25
q-24 -10 -24 -37q-2 -22 22 -24q89 6 230 8q219 -4 311 -8q66 0 66 31q0 12 -9 20q-10 6 -26 8q-35 4 -80 15q-45 10 -78 51q-37 39 -37 129v977zM341 1571l285 180q35 21 64 43q26 25 26 66q0 16 -18 43q-21 26 -64 28q-28 0 -53 -18q-29 -23 -84 -84l-250 -258h94z" />
    <glyph glyph-name="Yacute" unicode="&#xce;" horiz-adv-x="797" 
d="M524 1223q0 71 27 104q12 18 26 27q13 10 25 12q31 10 53 18q23 6 23 29q0 18 -12 25q-15 4 -60 4q-164 -6 -264 -9q-109 5 -231 9h-39q-29 -2 -31 -29q0 -25 39 -33q33 -10 78 -22q45 -11 80 -43q32 -33 34 -103v-983q0 -69 -22 -102q-23 -35 -51 -49q-29 -15 -50 -25
q-24 -10 -24 -37q-2 -22 22 -24q89 6 230 8q219 -4 311 -8q66 0 66 31q0 12 -9 20q-10 6 -26 8q-35 4 -80 15q-45 10 -78 51q-37 39 -37 129v977zM471 1917h-142l-254 -346h88l238 211v0l235 -211h89z" />
    <glyph glyph-name="yacute" unicode="&#xcf;" horiz-adv-x="797" 
d="M524 1223q0 71 27 104q12 18 26 27q13 10 25 12q31 10 53 18q23 6 23 29q0 18 -12 25q-15 4 -60 4q-164 -6 -264 -9q-109 5 -231 9h-39q-29 -2 -31 -29q0 -25 39 -33q33 -10 78 -22q45 -11 80 -43q32 -33 34 -103v-983q0 -69 -22 -102q-23 -35 -51 -49q-29 -15 -50 -25
q-24 -10 -24 -37q-2 -22 22 -24q89 6 230 8q219 -4 311 -8q66 0 66 31q0 12 -9 20q-10 6 -26 8q-35 4 -80 15q-45 10 -78 51q-37 39 -37 129v977zM217 1831q-21 -2 -56 -45q-16 -18 -26 -39q-15 -20 -15 -37q2 -28 41 -71q17 -19 33 -33q16 -17 23 -17q22 2 57 50
q16 18 29 41q10 18 10 30q0 17 -10 37q-13 21 -29 39q-14 21 -31 33q-16 12 -26 12v0zM587 1831q-20 -2 -55 -45q-16 -18 -27 -39q-14 -20 -14 -37q2 -28 41 -71q16 -19 33 -33q16 -17 22 -17q23 2 58 50q16 18 28 41q11 18 11 30q0 17 -11 37q-12 21 -28 39q-15 21 -31 33
t-27 12v0z" />
    <glyph glyph-name="Eth" unicode="&#xd0;" horiz-adv-x="1593" 
d="M51 721h178v-516q-2 -66 -24 -94q-25 -29 -58 -37q-32 -8 -55 -17q-26 -8 -26 -37q0 -24 28 -26q27 -2 53 -2q95 6 189 8q92 -4 428 -8q86 0 213 41q125 39 248 127q122 90 206 239q84 150 86 369q-2 240 -96 379q-92 137 -233 198q-142 66 -287 82q-145 15 -254 15
q-158 -6 -317 -9q-146 0 -201 5q-55 4 -82 4q-10 0 -22 -9q-15 -8 -15 -24q0 -25 37 -33q33 -10 74 -24q45 -11 76 -48q32 -34 32 -112v-367h-178v-104zM903 825h-422v346q-2 107 27 152q31 41 139 41q193 -2 313 -74q121 -74 187 -182q67 -107 90 -217q22 -111 22 -189
q-2 -315 -151 -473q-152 -159 -395 -159q-66 -2 -144 24q-37 15 -61 45q-27 31 -27 80v502h422v104z" />
    <glyph glyph-name="cent" unicode="&#xd1;" horiz-adv-x="1706" 
d="M242 270q-2 -75 -31 -114t-68 -60q-39 -18 -67 -33q-31 -16 -31 -47q0 -22 25 -24h39q79 6 176 8q100 -4 241 -8q25 0 51 4q25 2 27 22q-2 35 -41 43q-39 7 -90 23t-90 80q-41 61 -41 205v696q0 31 16 33q17 0 37 -27l985 -1065q13 -12 23 -18q10 -11 30 -11q27 0 25 62
v1149q0 82 29 119q26 38 59 53q19 10 35 16q14 6 27 10q22 9 24 29q0 6 -4 16q-4 11 -35 11q-26 -6 -219 -9q-102 0 -156 5q-53 4 -77 4q-19 0 -25 -11q-8 -12 -8 -24q0 -23 41 -35q39 -10 86 -29q47 -14 86 -49q35 -35 37 -104v-682q0 -76 -17 -76q-8 0 -24 16
q-19 17 -39 37l-823 903q-23 31 -27 43q-6 11 -51 11q-78 0 -127 -4q-49 -5 -88 -5q-58 5 -115 9q-35 -2 -35 -35t37 -39q33 -10 78 -29q45 -18 80 -82q33 -63 35 -208v-779zM1146 1854q-2 -11 -24 -54q-12 -18 -31 -34q-18 -17 -47 -17q-70 2 -147 49q-37 19 -76 35
q-39 14 -80 14q-51 0 -90 -20t-68 -55q-55 -74 -67 -150h67q2 15 25 56q20 40 86 43q68 -5 133 -48q37 -18 76 -32q39 -17 84 -17q104 2 157 72q52 65 72 158h-70z" />
    <glyph glyph-name="onesuperior.001" unicode="&#xd2;" horiz-adv-x="1593" 
d="M51 670q2 -314 191 -500q186 -190 497 -193q244 3 400 86q155 80 235 203q84 123 117 258q26 131 26 242q-4 330 -200 514q-197 180 -504 180q-367 -8 -563 -227q-199 -219 -199 -563v0zM303 786q-2 234 96 404q99 172 353 182q206 2 358 -170q151 -174 156 -516
q2 -262 -101 -434q-106 -174 -366 -186q-135 2 -230 71q-94 68 -153 176q-115 232 -113 473v0zM965 1571l-250 258q-56 61 -80 84q-29 18 -57 18q-43 -2 -62 -28q-20 -27 -20 -43q0 -41 30 -66q27 -22 60 -43l284 -180h95z" />
    <glyph glyph-name="thorn.001" unicode="&#xd3;" horiz-adv-x="1593" 
d="M51 670q2 -314 191 -500q186 -190 497 -193q244 3 400 86q155 80 235 203q84 123 117 258q26 131 26 242q-4 330 -200 514q-197 180 -504 180q-367 -8 -563 -227q-199 -219 -199 -563v0zM303 786q-2 234 96 404q99 172 353 182q206 2 358 -170q151 -174 156 -516
q2 -262 -101 -434q-106 -174 -366 -186q-135 2 -230 71q-94 68 -153 176q-115 232 -113 473v0zM752 1571l285 180q35 21 64 43q26 25 26 66q0 16 -18 43q-21 26 -64 28q-28 0 -53 -18q-29 -23 -84 -84l-250 -258h94z" />
    <glyph glyph-name="minus.001" unicode="&#xd4;" horiz-adv-x="1593" 
d="M51 670q2 -314 191 -500q186 -190 497 -193q244 3 400 86q155 80 235 203q84 123 117 258q26 131 26 242q-4 330 -200 514q-197 180 -504 180q-367 -8 -563 -227q-199 -219 -199 -563v0zM303 786q-2 234 96 404q99 172 353 182q206 2 358 -170q151 -174 156 -516
q2 -262 -101 -434q-106 -174 -366 -186q-135 2 -230 71q-94 68 -153 176q-115 232 -113 473v0zM882 1917h-142l-254 -346h88l238 211v0l235 -211h89z" />
    <glyph glyph-name="Icircumflex" unicode="&#xd5;" horiz-adv-x="1593" 
d="M51 670q2 -314 191 -500q186 -190 497 -193q244 3 400 86q155 80 235 203q84 123 117 258q26 131 26 242q-4 330 -200 514q-197 180 -504 180q-367 -8 -563 -227q-199 -219 -199 -563v0zM303 786q-2 234 96 404q99 172 353 182q206 2 358 -170q151 -174 156 -516
q2 -262 -101 -434q-106 -174 -366 -186q-135 2 -230 71q-94 68 -153 176q-115 232 -113 473v0zM1088 1854q-2 -11 -24 -54q-12 -18 -31 -34q-18 -17 -47 -17q-70 2 -147 49q-37 19 -76 35q-39 14 -80 14q-51 0 -90 -20t-68 -55q-55 -74 -67 -150h67q2 15 25 56q20 40 86 43
q68 -5 133 -48q37 -18 76 -32q39 -17 84 -17q104 2 157 72q52 65 72 158h-70z" />
    <glyph glyph-name="sterling" unicode="&#xd6;" horiz-adv-x="1593" 
d="M51 670q2 -314 191 -500q186 -190 497 -193q244 3 400 86q155 80 235 203q84 123 117 258q26 131 26 242q-4 330 -200 514q-197 180 -504 180q-367 -8 -563 -227q-199 -219 -199 -563v0zM303 786q-2 234 96 404q99 172 353 182q206 2 358 -170q151 -174 156 -516
q2 -262 -101 -434q-106 -174 -366 -186q-135 2 -230 71q-94 68 -153 176q-115 232 -113 473v0zM628 1831q-21 -2 -56 -45q-16 -18 -26 -39q-15 -20 -15 -37q2 -28 41 -71q17 -19 33 -33q16 -17 23 -17q22 2 57 50q16 18 29 41q10 18 10 30q0 17 -10 37q-13 21 -29 39
q-14 21 -31 33q-16 12 -26 12v0zM998 1831q-20 -2 -55 -45q-16 -18 -27 -39q-14 -20 -14 -37q2 -28 41 -71q16 -19 33 -33q16 -17 22 -17q23 2 58 50q16 18 28 41q11 18 11 30q0 17 -11 37q-12 21 -28 39q-15 21 -31 33t-27 12v0z" />
    <glyph glyph-name="multiply" unicode="&#xd7;" horiz-adv-x="1241" 
d="M496 522l-392 -391l125 -125v0l391 391v0l392 -391v0l125 125l-392 391l392 391l-125 125v0l-392 -391v0l-391 391v0l-125 -125z" />
    <glyph glyph-name="Otilde" unicode="&#xd8;" horiz-adv-x="1593" 
d="M541 152v0q-127 118 -183 296q-57 179 -55 338q-2 234 96 404q99 172 353 182q47 0 98 -8q51 -12 88 -33zM1024 1280v0q133 -107 190 -264q52 -158 52 -330q2 -262 -101 -434q-106 -174 -366 -186q-101 0 -172 34zM410 -240h104l78 230q65 -13 147 -13q244 3 400 86
q155 80 235 203q84 123 117 258q26 131 26 242q-12 508 -446 657l94 277h-102l-86 -254q-76 14 -164 14q-367 -8 -563 -227q-199 -219 -199 -563q0 -230 111 -402q110 -174 334 -254z" />
    <glyph glyph-name="onehalf.001" unicode="&#xd9;" horiz-adv-x="1706" 
d="M1497 1202q0 88 25 125q20 39 49 49q28 12 49 17q20 6 20 22q0 29 -37 27q-143 -9 -233 -9q-84 0 -172 9q-18 0 -39 2q-22 -2 -22 -25q0 -24 41 -35q38 -10 86 -26q51 -15 88 -56q34 -41 36 -129v-405q0 -129 -12 -248q-16 -121 -63 -215q-47 -92 -140 -149
q-94 -58 -245 -58q-269 2 -361 170q-49 80 -67 185q-21 102 -21 219v444q0 64 10 109q7 43 19 71q26 54 57 70q35 16 62 20q22 4 24 27q0 27 -22 29q-95 -6 -289 -9q-199 5 -283 9q-12 0 -26 -4q-17 -9 -17 -29q0 -27 35 -35q31 -10 72 -20q41 -11 74 -39q32 -29 32 -94
v-668q2 -580 588 -576q211 3 348 64q135 59 207 164q74 104 102 243q25 138 25 291v463zM1065 1571l-250 258q-56 61 -80 84q-29 18 -57 18q-43 -2 -62 -28q-20 -27 -20 -43q0 -41 30 -66q27 -22 60 -43l284 -180h95z" />
    <glyph glyph-name="twosuperior.001" unicode="&#xda;" horiz-adv-x="1706" 
d="M1497 1202q0 88 25 125q20 39 49 49q28 12 49 17q20 6 20 22q0 29 -37 27q-143 -9 -233 -9q-84 0 -172 9q-18 0 -39 2q-22 -2 -22 -25q0 -24 41 -35q38 -10 86 -26q51 -15 88 -56q34 -41 36 -129v-405q0 -129 -12 -248q-16 -121 -63 -215q-47 -92 -140 -149
q-94 -58 -245 -58q-269 2 -361 170q-49 80 -67 185q-21 102 -21 219v444q0 64 10 109q7 43 19 71q26 54 57 70q35 16 62 20q22 4 24 27q0 27 -22 29q-95 -6 -289 -9q-199 5 -283 9q-12 0 -26 -4q-17 -9 -17 -29q0 -27 35 -35q31 -10 72 -20q41 -11 74 -39q32 -29 32 -94
v-668q2 -580 588 -576q211 3 348 64q135 59 207 164q74 104 102 243q25 138 25 291v463zM809 1571l285 180q35 21 64 43q26 25 26 66q0 16 -18 43q-21 26 -64 28q-28 0 -53 -18q-29 -23 -84 -84l-250 -258h94z" />
    <glyph glyph-name="threesuperior" unicode="&#xdb;" horiz-adv-x="1706" 
d="M1497 1202q0 88 25 125q20 39 49 49q28 12 49 17q20 6 20 22q0 29 -37 27q-143 -9 -233 -9q-84 0 -172 9q-18 0 -39 2q-22 -2 -22 -25q0 -24 41 -35q38 -10 86 -26q51 -15 88 -56q34 -41 36 -129v-405q0 -129 -12 -248q-16 -121 -63 -215q-47 -92 -140 -149
q-94 -58 -245 -58q-269 2 -361 170q-49 80 -67 185q-21 102 -21 219v444q0 64 10 109q7 43 19 71q26 54 57 70q35 16 62 20q22 4 24 27q0 27 -22 29q-95 -6 -289 -9q-199 5 -283 9q-12 0 -26 -4q-17 -9 -17 -29q0 -27 35 -35q31 -10 72 -20q41 -11 74 -39q32 -29 32 -94
v-668q2 -580 588 -576q211 3 348 64q135 59 207 164q74 104 102 243q25 138 25 291v463zM940 1917h-142l-254 -346h88l238 211v0l235 -211h89z" />
    <glyph glyph-name="section" unicode="&#xdc;" horiz-adv-x="1706" 
d="M1497 1202q0 88 25 125q20 39 49 49q28 12 49 17q20 6 20 22q0 29 -37 27q-143 -9 -233 -9q-84 0 -172 9q-18 0 -39 2q-22 -2 -22 -25q0 -24 41 -35q38 -10 86 -26q51 -15 88 -56q34 -41 36 -129v-405q0 -129 -12 -248q-16 -121 -63 -215q-47 -92 -140 -149
q-94 -58 -245 -58q-269 2 -361 170q-49 80 -67 185q-21 102 -21 219v444q0 64 10 109q7 43 19 71q26 54 57 70q35 16 62 20q22 4 24 27q0 27 -22 29q-95 -6 -289 -9q-199 5 -283 9q-12 0 -26 -4q-17 -9 -17 -29q0 -27 35 -35q31 -10 72 -20q41 -11 74 -39q32 -29 32 -94
v-668q2 -580 588 -576q211 3 348 64q135 59 207 164q74 104 102 243q25 138 25 291v463zM685 1831q-21 -2 -56 -45q-16 -18 -26 -39q-15 -20 -15 -37q2 -28 41 -71q17 -19 33 -33q16 -17 23 -17q22 2 57 50q16 18 29 41q10 18 10 30q0 17 -10 37q-13 21 -29 39
q-14 21 -31 33q-16 12 -26 12v0zM1055 1831q-20 -2 -55 -45q-16 -18 -27 -39q-14 -20 -14 -37q2 -28 41 -71q16 -19 33 -33q16 -17 22 -17q23 2 58 50q16 18 28 41q11 18 11 30q0 17 -11 37q-12 21 -28 39q-15 21 -31 33t-27 12v0z" />
    <glyph glyph-name="Yacute.001" unicode="&#xdd;" horiz-adv-x="1366" 
d="M551 649q18 -31 26 -55q7 -25 7 -74v-266q0 -92 -33 -131t-78 -49q-18 -6 -39 -8q-20 -3 -37 -9q-37 -8 -37 -43q2 -22 56 -22q55 6 301 8q186 0 243 -4q56 -4 62 -4q29 0 47 6q18 4 18 18q-2 39 -36 45q-37 7 -89 11q-47 4 -86 39q-40 34 -40 127v305q0 53 6 77
q6 25 20 52l268 508q205 247 213 239q0 23 -36 23q-43 -6 -236 -9q-78 0 -117 5q-39 4 -59 4q-39 0 -39 -31q0 -21 33 -29q28 -10 67 -20q39 -8 68 -31q29 -22 31 -74q4 -14 -37 -112l-187 -338q-34 -64 -51 -62q-18 -2 -63 95l-185 381q-16 38 -22 61q-6 20 -6 33
q0 26 18 41q17 12 39 18q23 8 39 16q16 11 16 25q2 25 -34 27q-179 -11 -299 -9q-76 0 -117 5q-45 4 -72 4q-71 2 -71 -25q0 -22 22 -31q21 -8 51 -18q33 -8 68 -33q35 -26 63 -80zM635 1571l285 180q35 21 64 43q26 25 26 66q0 16 -18 43q-21 26 -64 28q-28 0 -53 -18
q-29 -23 -84 -84l-250 -258h94z" />
    <glyph glyph-name="Thorn" unicode="&#xde;" horiz-adv-x="1251" 
d="M479 922q0 26 4 51q2 24 17 43q14 18 45 30q30 11 86 11q145 -2 227 -97q78 -96 80 -235q0 -94 -27 -152q-28 -59 -69 -92q-41 -30 -82 -43q-43 -12 -76 -12q-12 0 -51 8q-41 6 -56 6q-32 -2 -32 -26q0 -25 26 -37q23 -15 54 -25q69 -14 100 -12q201 0 332 98
q131 99 133 305q0 125 -47 205t-129 121q-82 43 -178 59q-99 15 -205 15h-152v108q2 66 35 88q16 13 29 19q12 4 22 6q23 6 55 12q33 2 52 10q4 13 6 23q0 10 -4 24q-4 11 -35 11q-51 -6 -107 -8q-77 -5 -178 -3q-118 0 -194 5q-74 4 -88 4q-35 0 -47 -15q-11 -14 -11 -24
q0 -13 11 -19q10 -8 24 -12q31 -8 72 -18q41 -11 74 -43q32 -35 32 -117v-901q-2 -94 -24 -139q-25 -48 -58 -68q-32 -20 -55 -31q-27 -10 -27 -32q0 -25 21 -27q18 -4 22 -4q74 6 252 8q66 -4 279 -8q22 0 37 4q12 2 12 27q-2 26 -31 36q-28 9 -71 21q-39 14 -70 57
q-35 41 -35 135v650z" />
    <glyph glyph-name="approxequal" unicode="&#xdf;" 
d="M389 1122q0 53 6 107q2 51 21 94q16 43 55 72q37 26 100 26q62 0 101 -22q39 -25 57 -66q21 -41 29 -88q4 -24 4 -49v-53q0 -127 -47 -201q-51 -74 -185 -88q-16 -2 -18 -35q0 -29 20 -35q17 -6 48 -8q30 -2 67 -10q37 -10 78 -45q43 -37 70 -80q24 -47 36 -96
q21 -103 19 -211q0 -94 -12 -150q-17 -53 -35 -78q-19 -22 -35 -28t-25 -6q-20 0 -39 24q-18 21 -32 49q-15 29 -29 52q-18 20 -39 20q-35 -2 -43 -47q-8 -43 -6 -78q-2 -74 31 -90q30 -16 131 -16q119 0 235 102q119 100 123 303q-2 150 -57 238q-58 88 -135 129
q-76 45 -140 59q-63 10 -79 10v4q133 21 221 109q90 88 92 221q-2 164 -111 254q-108 90 -268 90q-129 0 -211 -47q-82 -49 -129 -131q-45 -82 -63 -184q-21 -103 -23 -215v-754q2 -51 -14 -74q-17 -22 -39 -34q-23 -9 -39 -15q-21 -8 -21 -24q0 -11 11 -21q8 -12 20 -14
q82 6 168 8q123 -4 219 -8q33 0 33 26q0 21 -16 29q-19 8 -43 16q-23 9 -41 29q-21 19 -21 60v970z" />
    <glyph glyph-name="paragraph" unicode="&#xe0;" horiz-adv-x="909" 
d="M526 168q0 -16 -14 -29q-16 -12 -41 -22q-53 -19 -92 -19q-76 2 -92 58q-8 22 -13 45q-4 20 -4 32q0 54 29 93q27 39 63 63q41 27 82 39q39 12 68 12q16 2 14 -73v-199zM743 577q0 304 -311 302q-117 0 -240 -50q-55 -26 -94 -71q-41 -47 -41 -115q0 -27 23 -35
q16 -8 31 -8q20 -2 79 12q27 11 46 31q20 18 20 53q-2 70 18 94q21 21 76 21q62 0 98 -21q37 -22 54 -63q18 -39 22 -94q2 -56 2 -123q-78 -19 -161 -39q-84 -20 -158 -55q-72 -33 -117 -90q-47 -62 -47 -156q0 -84 55 -137q54 -53 138 -56q88 3 172 37q81 35 147 88v0
q6 -34 35 -77q28 -45 98 -48q62 3 129 43q33 19 51 37q19 19 19 33q0 16 -23 19q-24 -7 -65 -11q-37 -2 -45 27q-11 27 -11 100v352zM613 985l-250 258q-56 61 -80 84q-29 18 -57 18q-43 -2 -62 -28q-20 -27 -20 -43q0 -41 30 -66q27 -22 60 -43l284 -180h95z" />
    <glyph glyph-name="bullet" unicode="&#xe1;" horiz-adv-x="909" 
d="M526 168q0 -16 -14 -29q-16 -12 -41 -22q-53 -19 -92 -19q-76 2 -92 58q-8 22 -13 45q-4 20 -4 32q0 54 29 93q27 39 63 63q41 27 82 39q39 12 68 12q16 2 14 -73v-199zM743 577q0 304 -311 302q-117 0 -240 -50q-55 -26 -94 -71q-41 -47 -41 -115q0 -27 23 -35
q16 -8 31 -8q20 -2 79 12q27 11 46 31q20 18 20 53q-2 70 18 94q21 21 76 21q62 0 98 -21q37 -22 54 -63q18 -39 22 -94q2 -56 2 -123q-78 -19 -161 -39q-84 -20 -158 -55q-72 -33 -117 -90q-47 -62 -47 -156q0 -84 55 -137q54 -53 138 -56q88 3 172 37q81 35 147 88v0
q6 -34 35 -77q28 -45 98 -48q62 3 129 43q33 19 51 37q19 19 19 33q0 16 -23 19q-24 -7 -65 -11q-37 -2 -45 27q-11 27 -11 100v352zM399 985l285 180q35 21 64 43q26 25 26 66q0 16 -18 43q-21 26 -64 28q-28 0 -53 -18q-29 -23 -84 -84l-250 -258h94z" />
    <glyph glyph-name="germandbls" unicode="&#xe2;" horiz-adv-x="909" 
d="M526 168q0 -16 -14 -29q-16 -12 -41 -22q-53 -19 -92 -19q-76 2 -92 58q-8 22 -13 45q-4 20 -4 32q0 54 29 93q27 39 63 63q41 27 82 39q39 12 68 12q16 2 14 -73v-199zM743 577q0 304 -311 302q-117 0 -240 -50q-55 -26 -94 -71q-41 -47 -41 -115q0 -27 23 -35
q16 -8 31 -8q20 -2 79 12q27 11 46 31q20 18 20 53q-2 70 18 94q21 21 76 21q62 0 98 -21q37 -22 54 -63q18 -39 22 -94q2 -56 2 -123q-78 -19 -161 -39q-84 -20 -158 -55q-72 -33 -117 -90q-47 -62 -47 -156q0 -84 55 -137q54 -53 138 -56q88 3 172 37q81 35 147 88v0
q6 -34 35 -77q28 -45 98 -48q62 3 129 43q33 19 51 37q19 19 19 33q0 16 -23 19q-24 -7 -65 -11q-37 -2 -45 27q-11 27 -11 100v352zM530 1331h-142l-254 -346h88l238 211v0l235 -211h89z" />
    <glyph glyph-name="copyright" unicode="&#xe3;" horiz-adv-x="909" 
d="M526 168q0 -16 -14 -29q-16 -12 -41 -22q-53 -19 -92 -19q-76 2 -92 58q-8 22 -13 45q-4 20 -4 32q0 54 29 93q27 39 63 63q41 27 82 39q39 12 68 12q16 2 14 -73v-199zM743 577q0 304 -311 302q-117 0 -240 -50q-55 -26 -94 -71q-41 -47 -41 -115q0 -27 23 -35
q16 -8 31 -8q20 -2 79 12q27 11 46 31q20 18 20 53q-2 70 18 94q21 21 76 21q62 0 98 -21q37 -22 54 -63q18 -39 22 -94q2 -56 2 -123q-78 -19 -161 -39q-84 -20 -158 -55q-72 -33 -117 -90q-47 -62 -47 -156q0 -84 55 -137q54 -53 138 -56q88 3 172 37q81 35 147 88v0
q6 -34 35 -77q28 -45 98 -48q62 3 129 43q33 19 51 37q19 19 19 33q0 16 -23 19q-24 -7 -65 -11q-37 -2 -45 27q-11 27 -11 100v352zM735 1268q-2 -11 -24 -54q-12 -18 -31 -34q-18 -17 -47 -17q-70 2 -147 49q-37 19 -76 35q-39 14 -80 14q-51 0 -90 -20t-68 -55
q-55 -74 -67 -150h67q2 15 25 56q20 40 86 43q68 -5 133 -48q37 -18 76 -32q39 -17 84 -17q104 2 157 72q52 65 72 158h-70z" />
    <glyph glyph-name="registered" unicode="&#xe4;" horiz-adv-x="909" 
d="M526 168q0 -16 -14 -29q-16 -12 -41 -22q-53 -19 -92 -19q-76 2 -92 58q-8 22 -13 45q-4 20 -4 32q0 54 29 93q27 39 63 63q41 27 82 39q39 12 68 12q16 2 14 -73v-199zM743 577q0 304 -311 302q-117 0 -240 -50q-55 -26 -94 -71q-41 -47 -41 -115q0 -27 23 -35
q16 -8 31 -8q20 -2 79 12q27 11 46 31q20 18 20 53q-2 70 18 94q21 21 76 21q62 0 98 -21q37 -22 54 -63q18 -39 22 -94q2 -56 2 -123q-78 -19 -161 -39q-84 -20 -158 -55q-72 -33 -117 -90q-47 -62 -47 -156q0 -84 55 -137q54 -53 138 -56q88 3 172 37q81 35 147 88v0
q6 -34 35 -77q28 -45 98 -48q62 3 129 43q33 19 51 37q19 19 19 33q0 16 -23 19q-24 -7 -65 -11q-37 -2 -45 27q-11 27 -11 100v352zM275 1245q-21 -2 -56 -45q-16 -18 -26 -39q-15 -20 -15 -37q2 -28 41 -71q17 -19 33 -33q16 -17 23 -17q22 2 57 50q16 18 29 41
q10 18 10 30q0 17 -10 37q-13 21 -29 39q-14 21 -31 33q-16 12 -26 12v0zM645 1245q-20 -2 -55 -45q-16 -18 -27 -39q-14 -20 -14 -37q2 -28 41 -71q16 -19 33 -33q16 -17 22 -17q23 2 58 50q16 18 28 41q11 18 11 30q0 17 -11 37q-12 21 -28 39q-15 21 -31 33t-27 12v0z
" />
    <glyph glyph-name="trademark" unicode="&#xe5;" horiz-adv-x="909" 
d="M526 168q0 -16 -14 -29q-16 -12 -41 -22q-53 -19 -92 -19q-76 2 -92 58q-8 22 -13 45q-4 20 -4 32q0 54 29 93q27 39 63 63q41 27 82 39q39 12 68 12q16 2 14 -73v-199zM743 577q0 304 -311 302q-117 0 -240 -50q-55 -26 -94 -71q-41 -47 -41 -115q0 -27 23 -35
q16 -8 31 -8q20 -2 79 12q27 11 46 31q20 18 20 53q-2 70 18 94q21 21 76 21q62 0 98 -21q37 -22 54 -63q18 -39 22 -94q2 -56 2 -123q-78 -19 -161 -39q-84 -20 -158 -55q-72 -33 -117 -90q-47 -62 -47 -156q0 -84 55 -137q54 -53 138 -56q88 3 172 37q81 35 147 88v0
q6 -34 35 -77q28 -45 98 -48q62 3 129 43q33 19 51 37q19 19 19 33q0 16 -23 19q-24 -7 -65 -11q-37 -2 -45 27q-11 27 -11 100v352zM421 1298q49 0 84 -32q33 -31 33 -82q0 -47 -33 -80q-35 -37 -84 -37q-47 0 -80 37q-37 33 -37 80q0 51 37 82q33 32 80 32v0zM421 975
q88 0 149 63q58 58 60 146q-2 90 -60 147q-61 57 -149 59q-84 -2 -145 -59q-64 -57 -64 -147q0 -88 64 -146q57 -63 145 -63v0z" />
    <glyph glyph-name="guilsinglleft" unicode="&#xe6;" horiz-adv-x="1479" 
d="M1376 494q10 -3 19 6q6 8 6 39q0 92 -88 211q-45 57 -119 92q-74 34 -178 37q-164 2 -275 -97q-10 -4 -71 43q-33 23 -84 39q-54 15 -133 15q-117 0 -240 -50q-55 -26 -94 -71q-41 -47 -41 -115q0 -27 22 -35q17 -8 31 -8q21 -2 80 12q27 11 45 31q20 18 20 53
q-2 70 19 94q20 21 76 21q69 0 112 -21q41 -22 62 -63q20 -39 26 -94q2 -56 2 -123q-90 -19 -178 -39q-90 -20 -164 -55q-73 -33 -118 -90q-50 -62 -50 -156q0 -84 56 -137q53 -53 137 -56q131 0 215 43t180 125v0q117 -163 371 -168q164 5 272 89q53 36 82 71t29 53
q-2 27 -21 25q-12 0 -34 -14q-25 -17 -58 -39q-33 -21 -74 -37q-40 -19 -88 -19q-149 3 -233 103q-90 96 -90 233q0 47 20 52q17 2 45 0h504zM573 229q-4 -77 -67 -104q-66 -29 -107 -27q-75 2 -92 58q-8 22 -12 45q-4 20 -4 32q0 54 31 93q28 41 69 65q90 53 141 53
q33 0 39 -16q2 -18 2 -61v-138zM836 565q-7 0 -21 8q-18 9 -18 31q-2 76 43 146q22 32 61 51q37 18 92 18q49 0 86 -18q37 -19 58 -49q22 -31 34 -66q9 -35 9 -66q0 -40 -9 -47q-12 -10 -39 -8h-296z" />
    <glyph glyph-name="acute" unicode="&#xe7;" horiz-adv-x="909" 
d="M51 387q0 -178 113 -291q106 -116 284 -119q164 5 273 89q53 36 82 71q28 35 28 53q-2 27 -20 25q-12 0 -35 -14q-24 -17 -57 -39q-33 -21 -74 -37q-41 -19 -88 -19q-72 0 -127 39q-55 37 -94 97q-80 127 -80 282q0 49 10 99q8 47 29 88q22 41 59 65q37 23 94 23
q82 0 119 -45q35 -47 51 -123q2 -11 9 -21q6 -10 18 -10q35 2 90 49q27 23 45 43q17 21 17 33q0 45 -29 76q-29 30 -74 47q-92 31 -155 31q-209 -3 -347 -142q-139 -139 -141 -350v0zM336 -199l29 -12q20 10 57 10q96 -2 96 -80q2 -16 -14 -47q-10 -12 -35 -22
q-26 -12 -74 -12q-12 0 -43 4q-30 4 -77 18l-27 -65q37 -13 78 -23q41 -12 78 -12q92 0 182 30q41 19 67 52q25 30 25 86q-2 90 -59 123q-54 30 -97 28q-41 0 -77 -10l55 131h-76z" />
    <glyph glyph-name="notequal" unicode="&#xe8;" horiz-adv-x="909" 
d="M819 494q10 -3 19 6q6 8 6 39q0 92 -88 211q-45 57 -119 92q-74 34 -178 37q-197 -5 -295 -156q-103 -150 -103 -336q2 -209 127 -309q121 -101 277 -101q164 5 272 89q53 36 82 71t29 53q-2 27 -21 25q-12 0 -34 -14q-25 -17 -58 -39q-33 -21 -74 -37q-41 -19 -88 -19
q-135 3 -217 103q-84 96 -86 233q0 47 11 52q8 2 34 0h504zM279 565q-11 -2 -11 39q0 76 39 146q39 67 129 69q49 0 86 -18q37 -19 58 -49q22 -31 34 -66q9 -35 9 -66q0 -40 -9 -47q-12 -10 -39 -8h-296zM613 985l-250 258q-56 61 -80 84q-29 18 -57 18q-43 -2 -62 -28
q-20 -27 -20 -43q0 -41 30 -66q27 -22 60 -43l284 -180h95z" />
    <glyph glyph-name="dieresis" unicode="&#xe9;" horiz-adv-x="909" 
d="M819 494q10 -3 19 6q6 8 6 39q0 92 -88 211q-45 57 -119 92q-74 34 -178 37q-197 -5 -295 -156q-103 -150 -103 -336q2 -209 127 -309q121 -101 277 -101q164 5 272 89q53 36 82 71t29 53q-2 27 -21 25q-12 0 -34 -14q-25 -17 -58 -39q-33 -21 -74 -37q-41 -19 -88 -19
q-135 3 -217 103q-84 96 -86 233q0 47 11 52q8 2 34 0h504zM279 565q-11 -2 -11 39q0 76 39 146q39 67 129 69q49 0 86 -18q37 -19 58 -49q22 -31 34 -66q9 -35 9 -66q0 -40 -9 -47q-12 -10 -39 -8h-296zM399 985l285 180q35 21 64 43q26 25 26 66q0 16 -18 43
q-21 26 -64 28q-28 0 -53 -18q-29 -23 -84 -84l-250 -258h94z" />
    <glyph glyph-name="AE" unicode="&#xea;" horiz-adv-x="909" 
d="M819 494q10 -3 19 6q6 8 6 39q0 92 -88 211q-45 57 -119 92q-74 34 -178 37q-197 -5 -295 -156q-103 -150 -103 -336q2 -209 127 -309q121 -101 277 -101q164 5 272 89q53 36 82 71t29 53q-2 27 -21 25q-12 0 -34 -14q-25 -17 -58 -39q-33 -21 -74 -37q-41 -19 -88 -19
q-135 3 -217 103q-84 96 -86 233q0 47 11 52q8 2 34 0h504zM279 565q-11 -2 -11 39q0 76 39 146q39 67 129 69q49 0 86 -18q37 -19 58 -49q22 -31 34 -66q9 -35 9 -66q0 -40 -9 -47q-12 -10 -39 -8h-296zM530 1331h-142l-254 -346h88l238 211v0l235 -211h89z" />
    <glyph glyph-name="Oslash" unicode="&#xeb;" horiz-adv-x="909" 
d="M819 494q10 -3 19 6q6 8 6 39q0 92 -88 211q-45 57 -119 92q-74 34 -178 37q-197 -5 -295 -156q-103 -150 -103 -336q2 -209 127 -309q121 -101 277 -101q164 5 272 89q53 36 82 71t29 53q-2 27 -21 25q-12 0 -34 -14q-25 -17 -58 -39q-33 -21 -74 -37q-41 -19 -88 -19
q-135 3 -217 103q-84 96 -86 233q0 47 11 52q8 2 34 0h504zM279 565q-11 -2 -11 39q0 76 39 146q39 67 129 69q49 0 86 -18q37 -19 58 -49q22 -31 34 -66q9 -35 9 -66q0 -40 -9 -47q-12 -10 -39 -8h-296zM275 1245q-21 -2 -56 -45q-16 -18 -26 -39q-15 -20 -15 -37
q2 -28 41 -71q17 -19 33 -33q16 -17 23 -17q22 2 57 50q16 18 29 41q10 18 10 30q0 17 -10 37q-13 21 -29 39q-14 21 -31 33q-16 12 -26 12v0zM645 1245q-20 -2 -55 -45q-16 -18 -27 -39q-14 -20 -14 -37q2 -28 41 -71q16 -19 33 -33q16 -17 22 -17q23 2 58 50q16 18 28 41
q11 18 11 30q0 17 -11 37q-12 21 -28 39q-15 21 -31 33t-27 12v0z" />
    <glyph glyph-name="plusminus" unicode="&#xec;" horiz-adv-x="569" 
d="M176 131q0 -33 -16 -47q-19 -16 -43 -23q-23 -6 -41 -12q-21 -8 -21 -29q0 -22 17 -24q16 -4 41 -4q77 6 151 8q98 -4 195 -8q22 0 53 2q29 2 31 24q0 27 -23 35q-22 8 -51 17q-29 8 -51 28q-25 19 -25 66v690q0 20 -2 33q-4 8 -22 8q0 -8 -222 -88q-51 -10 -75 -19
q-27 -10 -27 -34q0 -21 21 -25q20 -6 45 -8q26 -2 45 -14q20 -15 20 -52v-524zM437 985l-250 258q-56 61 -80 84q-29 18 -57 18q-43 -2 -62 -28q-20 -27 -20 -43q0 -41 30 -66q27 -22 60 -43l284 -180h95z" />
    <glyph glyph-name="infinity" unicode="&#xed;" horiz-adv-x="569" 
d="M176 131q0 -33 -16 -47q-19 -16 -43 -23q-23 -6 -41 -12q-21 -8 -21 -29q0 -22 17 -24q16 -4 41 -4q77 6 151 8q98 -4 195 -8q22 0 53 2q29 2 31 24q0 27 -23 35q-22 8 -51 17q-29 8 -51 28q-25 19 -25 66v690q0 20 -2 33q-4 8 -22 8q0 -8 -222 -88q-51 -10 -75 -19
q-27 -10 -27 -34q0 -21 21 -25q20 -6 45 -8q26 -2 45 -14q20 -15 20 -52v-524zM224 985l285 180q35 21 64 43q26 25 26 66q0 16 -18 43q-21 26 -64 28q-28 0 -53 -18q-29 -23 -84 -84l-250 -258h94z" />
    <glyph glyph-name="lessequal" unicode="&#xee;" horiz-adv-x="569" 
d="M176 131q0 -33 -16 -47q-19 -16 -43 -23q-23 -6 -41 -12q-21 -8 -21 -29q0 -22 17 -24q16 -4 41 -4q77 6 151 8q98 -4 195 -8q22 0 53 2q29 2 31 24q0 27 -23 35q-22 8 -51 17q-29 8 -51 28q-25 19 -25 66v690q0 20 -2 33q-4 8 -22 8q0 -8 -222 -88q-51 -10 -75 -19
q-27 -10 -27 -34q0 -21 21 -25q20 -6 45 -8q26 -2 45 -14q20 -15 20 -52v-524zM354 1331h-142l-254 -346h88l238 211v0l235 -211h89z" />
    <glyph glyph-name="greaterequal" unicode="&#xef;" horiz-adv-x="569" 
d="M176 131q0 -33 -16 -47q-19 -16 -43 -23q-23 -6 -41 -12q-21 -8 -21 -29q0 -22 17 -24q16 -4 41 -4q77 6 151 8q98 -4 195 -8q22 0 53 2q29 2 31 24q0 27 -23 35q-22 8 -51 17q-29 8 -51 28q-25 19 -25 66v690q0 20 -2 33q-4 8 -22 8q0 -8 -222 -88q-51 -10 -75 -19
q-27 -10 -27 -34q0 -21 21 -25q20 -6 45 -8q26 -2 45 -14q20 -15 20 -52v-524zM100 1245q-21 -2 -56 -45q-16 -18 -26 -39q-15 -20 -15 -37q2 -28 41 -71q17 -19 33 -33q16 -17 23 -17q22 2 57 50q16 18 29 41q10 18 10 30q0 17 -10 37q-13 21 -29 39q-14 21 -31 33
q-16 12 -26 12v0zM470 1245q-20 -2 -55 -45q-16 -18 -27 -39q-14 -20 -14 -37q2 -28 41 -71q16 -19 33 -33q16 -17 22 -17q23 2 58 50q16 18 28 41q11 18 11 30q0 17 -11 37q-12 21 -28 39q-15 21 -31 33t-27 12v0z" />
    <glyph glyph-name="eth" unicode="&#xf0;" horiz-adv-x="1024" 
d="M270 518q0 55 11 109q10 53 30 94q25 43 66 67q43 25 106 25q84 -2 140 -53q55 -56 86 -137q57 -177 55 -316q0 -106 -41 -180q-47 -76 -166 -78q-82 0 -137 57q-58 52 -90 127q-31 80 -45 158q-15 76 -15 127v0zM219 1034v0l256 148v0q154 -183 211 -349l-4 -4
q-27 19 -70 35q-41 15 -114 15q-195 -3 -316 -138q-127 -133 -129 -340q2 -190 129 -305q123 -116 312 -119q225 3 350 144q125 135 127 354q-2 227 -105 430q-49 103 -116 191q-68 86 -150 157l229 133l-36 66v0l-256 -148v0q-78 64 -179 129q-47 33 -86 52q-36 18 -57 18
q-14 0 -25 -10q-14 -12 -14 -31q2 -24 80 -80q76 -55 166 -143l-242 -139z" />
    <glyph glyph-name="yen" unicode="&#xf1;" 
d="M162 188q0 -61 -15 -88q-16 -28 -38 -39q-21 -8 -37 -16q-19 -8 -19 -31q-2 -20 23 -22q94 6 205 8q79 0 133 -4q51 -4 67 -4q37 0 51 10q13 8 13 21q-2 18 -25 28q-24 8 -57 21q-33 12 -55 34q-29 21 -29 64v379q-2 90 39 143q39 53 137 53q115 -2 160 -73
q24 -35 32 -78q9 -45 9 -98v-349q0 -26 -13 -45q-12 -18 -32 -32q-19 -13 -33 -25q-17 -12 -17 -27q0 -24 21 -26h47q55 6 150 8q69 -4 174 -8q47 0 47 31q0 16 -17 24q-18 8 -45 16q-24 13 -45 35q-20 23 -20 68v332q0 155 -72 266q-76 112 -240 115q-188 -3 -278 -142h-4
v117q0 20 -2 33q-4 8 -23 8q0 -8 -221 -88q-51 -10 -76 -19q-26 -10 -26 -34q0 -21 20 -25q21 -6 45 -8q27 -2 45 -14q21 -15 21 -52v-467zM854 1268q-2 -11 -24 -54q-12 -18 -31 -34q-18 -17 -47 -17q-70 2 -147 49q-37 19 -76 35q-39 14 -80 14q-51 0 -90 -20t-68 -55
q-55 -74 -67 -150h67q2 15 25 56q20 40 86 43q68 -5 133 -48q37 -18 76 -32q39 -17 84 -17q104 2 157 72q52 65 72 158h-70z" />
    <glyph glyph-name="partialdiff" unicode="&#xf2;" horiz-adv-x="1024" 
d="M483 813q84 -2 140 -53q55 -56 86 -137q57 -177 55 -316q0 -106 -41 -180q-47 -76 -166 -78q-84 0 -139 57q-58 52 -90 127q-33 80 -45 158q-13 76 -13 127q4 55 13 109q10 53 30 94q25 43 66 67q41 25 104 25v0zM971 451q-2 196 -129 313q-127 112 -324 115
q-209 -3 -334 -138q-129 -133 -131 -340q2 -190 129 -305q123 -116 312 -119q217 3 346 134q129 129 131 340v0zM671 985l-250 258q-56 61 -80 84q-29 18 -57 18q-43 -2 -62 -28q-20 -27 -20 -43q0 -41 30 -66q27 -22 60 -43l284 -180h95z" />
    <glyph glyph-name="mu" unicode="&#xf3;" horiz-adv-x="1024" 
d="M483 813q84 -2 140 -53q55 -56 86 -137q57 -177 55 -316q0 -106 -41 -180q-47 -76 -166 -78q-84 0 -139 57q-58 52 -90 127q-33 80 -45 158q-13 76 -13 127q4 55 13 109q10 53 30 94q25 43 66 67q41 25 104 25v0zM971 451q-2 196 -129 313q-127 112 -324 115
q-209 -3 -334 -138q-129 -133 -131 -340q2 -190 129 -305q123 -116 312 -119q217 3 346 134q129 129 131 340v0zM457 985l285 180q35 21 64 43q26 25 26 66q0 16 -18 43q-21 26 -64 28q-28 0 -53 -18q-29 -23 -84 -84l-250 -258h94z" />
    <glyph glyph-name="summation" unicode="&#xf4;" horiz-adv-x="1024" 
d="M483 813q84 -2 140 -53q55 -56 86 -137q57 -177 55 -316q0 -106 -41 -180q-47 -76 -166 -78q-84 0 -139 57q-58 52 -90 127q-33 80 -45 158q-13 76 -13 127q4 55 13 109q10 53 30 94q25 43 66 67q41 25 104 25v0zM971 451q-2 196 -129 313q-127 112 -324 115
q-209 -3 -334 -138q-129 -133 -131 -340q2 -190 129 -305q123 -116 312 -119q217 3 346 134q129 129 131 340v0zM588 1331h-142l-254 -346h88l238 211v0l235 -211h89z" />
    <glyph glyph-name="pi" unicode="&#xf5;" horiz-adv-x="1024" 
d="M483 813q84 -2 140 -53q55 -56 86 -137q57 -177 55 -316q0 -106 -41 -180q-47 -76 -166 -78q-84 0 -139 57q-58 52 -90 127q-33 80 -45 158q-13 76 -13 127q4 55 13 109q10 53 30 94q25 43 66 67q41 25 104 25v0zM971 451q-2 196 -129 313q-127 112 -324 115
q-209 -3 -334 -138q-129 -133 -131 -340q2 -190 129 -305q123 -116 312 -119q217 3 346 134q129 129 131 340v0zM796 1268q-2 -11 -24 -54q-12 -18 -31 -34q-18 -17 -47 -17q-70 2 -147 49q-37 19 -76 35q-39 14 -80 14q-51 0 -90 -20t-68 -55q-55 -74 -67 -150h67
q2 15 25 56q20 40 86 43q68 -5 133 -48q37 -18 76 -32q39 -17 84 -17q104 2 157 72q52 65 72 158h-70z" />
    <glyph glyph-name="product" unicode="&#xf6;" horiz-adv-x="1024" 
d="M483 813q84 -2 140 -53q55 -56 86 -137q57 -177 55 -316q0 -106 -41 -180q-47 -76 -166 -78q-84 0 -139 57q-58 52 -90 127q-33 80 -45 158q-13 76 -13 127q4 55 13 109q10 53 30 94q25 43 66 67q41 25 104 25v0zM971 451q-2 196 -129 313q-127 112 -324 115
q-209 -3 -334 -138q-129 -133 -131 -340q2 -190 129 -305q123 -116 312 -119q217 3 346 134q129 129 131 340v0zM333 1245q-21 -2 -56 -45q-16 -18 -26 -39q-15 -20 -15 -37q2 -28 41 -71q17 -19 33 -33q16 -17 23 -17q22 2 57 50q16 18 29 41q10 18 10 30q0 17 -10 37
q-13 21 -29 39q-14 21 -31 33q-16 12 -26 12v0zM703 1245q-20 -2 -55 -45q-16 -18 -27 -39q-14 -20 -14 -37q2 -28 41 -71q16 -19 33 -33q16 -17 22 -17q23 2 58 50q16 18 28 41q11 18 11 30q0 17 -11 37q-12 21 -28 39q-15 21 -31 33t-27 12v0z" />
    <glyph glyph-name="Ugrave" unicode="&#xf7;" horiz-adv-x="1241" 
d="M1137 434v176h-1033v-176h1033zM620 0q78 0 130 53q51 51 51 127t-51 127q-52 51 -130 53q-75 -2 -126 -53q-54 -51 -54 -127t54 -127q51 -53 126 -53v0zM620 1044q-75 -2 -126 -53q-54 -51 -54 -127t54 -127q51 -53 126 -53q78 0 130 53q51 51 51 127t-51 127
q-52 51 -130 53v0z" />
    <glyph glyph-name="guilsinglright" unicode="&#xf8;" horiz-adv-x="1024" 
d="M395 123v0q-129 149 -125 395q4 55 13 109q10 53 30 94q25 43 66 67q41 25 104 25q80 -2 129 -51zM440 -18q25 -2 54 -5q217 3 346 134q129 129 131 340q-6 276 -244 385l98 290h-90l-88 -264q-61 17 -129 17q-209 -3 -336 -138q-127 -133 -129 -338q0 -137 82 -251
q80 -115 219 -154l-102 -299h92zM676 684v0q51 -86 71 -188q17 -103 17 -189q0 -106 -41 -180q-47 -76 -166 -78q-51 0 -88 19z" />
    <glyph glyph-name="ordfeminine" unicode="&#xf9;" 
d="M952 833q2 43 -24 46q-15 -3 -56 -25q-47 -16 -94 -23q-47 -8 -88 -14q-37 -2 -59 -12q-27 -8 -27 -31q0 -20 21 -24q20 -7 45 -9q26 -2 45 -14q20 -14 20 -51v-436q-2 -64 -59 -99q-56 -35 -121 -35q-104 0 -141 58q-39 55 -37 151v518q2 43 -25 46q-14 -3 -55 -25
q-47 -16 -94 -23q-47 -8 -88 -14q-37 -2 -60 -12q-26 -8 -26 -31q0 -20 20 -24q21 -7 45 -9q27 -2 45 -14q21 -14 21 -51v-348q0 -68 12 -131q8 -62 39 -111q29 -49 86 -78q55 -28 143 -31q68 3 117 19t82 39q35 24 59 47q23 20 37 33v0q0 -123 15 -138l309 39q22 2 37 7
q14 4 14 26q0 21 -23 25q-22 4 -55 6q-29 2 -53 18q-27 17 -27 62v673zM732 985l-250 258q-56 61 -80 84q-29 18 -57 18q-43 -2 -62 -28q-20 -27 -20 -43q0 -41 30 -66q27 -22 60 -43l284 -180h95z" />
    <glyph glyph-name="integral" unicode="&#xfa;" 
d="M952 833q2 43 -24 46q-15 -3 -56 -25q-47 -16 -94 -23q-47 -8 -88 -14q-37 -2 -59 -12q-27 -8 -27 -31q0 -20 21 -24q20 -7 45 -9q26 -2 45 -14q20 -14 20 -51v-436q-2 -64 -59 -99q-56 -35 -121 -35q-104 0 -141 58q-39 55 -37 151v518q2 43 -25 46q-14 -3 -55 -25
q-47 -16 -94 -23q-47 -8 -88 -14q-37 -2 -60 -12q-26 -8 -26 -31q0 -20 20 -24q21 -7 45 -9q27 -2 45 -14q21 -14 21 -51v-348q0 -68 12 -131q8 -62 39 -111q29 -49 86 -78q55 -28 143 -31q68 3 117 19t82 39q35 24 59 47q23 20 37 33v0q0 -123 15 -138l309 39q22 2 37 7
q14 4 14 26q0 21 -23 25q-22 4 -55 6q-29 2 -53 18q-27 17 -27 62v673zM518 985l285 180q35 21 64 43q26 25 26 66q0 16 -18 43q-21 26 -64 28q-28 0 -53 -18q-29 -23 -84 -84l-250 -258h94z" />
    <glyph glyph-name="ordmasculine" unicode="&#xfb;" 
d="M952 833q2 43 -24 46q-15 -3 -56 -25q-47 -16 -94 -23q-47 -8 -88 -14q-37 -2 -59 -12q-27 -8 -27 -31q0 -20 21 -24q20 -7 45 -9q26 -2 45 -14q20 -14 20 -51v-436q-2 -64 -59 -99q-56 -35 -121 -35q-104 0 -141 58q-39 55 -37 151v518q2 43 -25 46q-14 -3 -55 -25
q-47 -16 -94 -23q-47 -8 -88 -14q-37 -2 -60 -12q-26 -8 -26 -31q0 -20 20 -24q21 -7 45 -9q27 -2 45 -14q21 -14 21 -51v-348q0 -68 12 -131q8 -62 39 -111q29 -49 86 -78q55 -28 143 -31q68 3 117 19t82 39q35 24 59 47q23 20 37 33v0q0 -123 15 -138l309 39q22 2 37 7
q14 4 14 26q0 21 -23 25q-22 4 -55 6q-29 2 -53 18q-27 17 -27 62v673zM649 1331h-142l-254 -346h88l238 211v0l235 -211h89z" />
    <glyph glyph-name="Omega" unicode="&#xfc;" 
d="M952 833q2 43 -24 46q-15 -3 -56 -25q-47 -16 -94 -23q-47 -8 -88 -14q-37 -2 -59 -12q-27 -8 -27 -31q0 -20 21 -24q20 -7 45 -9q26 -2 45 -14q20 -14 20 -51v-436q-2 -64 -59 -99q-56 -35 -121 -35q-104 0 -141 58q-39 55 -37 151v518q2 43 -25 46q-14 -3 -55 -25
q-47 -16 -94 -23q-47 -8 -88 -14q-37 -2 -60 -12q-26 -8 -26 -31q0 -20 20 -24q21 -7 45 -9q27 -2 45 -14q21 -14 21 -51v-348q0 -68 12 -131q8 -62 39 -111q29 -49 86 -78q55 -28 143 -31q68 3 117 19t82 39q35 24 59 47q23 20 37 33v0q0 -123 15 -138l309 39q22 2 37 7
q14 4 14 26q0 21 -23 25q-22 4 -55 6q-29 2 -53 18q-27 17 -27 62v673zM394 1245q-21 -2 -56 -45q-16 -18 -26 -39q-15 -20 -15 -37q2 -28 41 -71q17 -19 33 -33q16 -17 23 -17q22 2 57 50q16 18 29 41q10 18 10 30q0 17 -10 37q-13 21 -29 39q-14 21 -31 33q-16 12 -26 12
v0zM764 1245q-20 -2 -55 -45q-16 -18 -27 -39q-14 -20 -14 -37q2 -28 41 -71q16 -19 33 -33q16 -17 22 -17q23 2 58 50q16 18 28 41q11 18 11 30q0 17 -11 37q-12 21 -28 39q-15 21 -31 33t-27 12v0z" />
    <glyph glyph-name="yacute.001" unicode="&#xfd;" horiz-adv-x="1024" 
d="M457 80q28 -51 41 -78q10 -29 10 -45q0 -25 -47 -106l-127 -203q-19 -25 -19 -47q-2 -17 19 -17h96q27 2 33 39l436 1098q12 24 31 41q16 14 32 26q19 13 31 23q10 10 10 22q0 19 -14 21t-37 2q-30 -6 -112 -8q-43 0 -70 4t-45 4q-35 0 -53 -2q-21 -4 -21 -31
q0 -18 25 -26q20 -9 45 -19q29 -8 47 -28q20 -23 20 -72q0 -33 -32 -131l-101 -258q-12 -47 -28 -51q-21 2 -37 51l-168 338q-12 30 -23 59q-14 25 -14 41q0 25 18 35q17 12 39 20q23 8 39 21q17 8 17 26q0 21 -15 27h-43q-41 -6 -178 -8q-67 0 -102 4t-58 4q-28 0 -49 -4
q-22 -6 -22 -27q2 -26 41 -41q16 -8 34 -26q19 -19 33 -51zM502 985l285 180q35 21 64 43q26 25 26 66q0 16 -18 43q-21 26 -64 28q-28 0 -53 -18q-29 -23 -84 -84l-250 -258h94z" />
    <glyph glyph-name="thorn" unicode="&#xfe;" horiz-adv-x="1024" 
d="M360 661q29 31 70 54q41 20 82 20q74 0 125 -39q51 -41 84 -100q61 -131 61 -250q0 -49 -8 -100q-8 -54 -33 -97q-47 -96 -170 -98q-49 0 -88 21q-39 18 -67 41q-56 53 -56 63v485zM360 16q76 -36 156 -39q244 7 348 170q101 158 98 355q0 149 -77 262q-82 112 -250 115
q-80 0 -150 -39q-71 -41 -125 -103v0v733v33q-2 21 -18 23q-20 -2 -35 -15q-69 -41 -125 -61q-55 -21 -92 -29q-74 -14 -74 -49q0 -22 21 -29q20 -4 45 -6q27 -2 45 -22q16 -19 16 -76v-1528q0 -26 -12 -39q-12 -14 -29 -20q-16 -4 -28 -10q-17 -9 -17 -27q0 -23 15 -27
q14 -4 32 -4q29 6 197 8q96 -4 184 -8q29 0 37 11q6 6 6 16q-2 24 -24 33q-25 8 -58 14q-30 8 -57 31q-29 22 -29 76v251z" />
    <glyph glyph-name="circumflex" unicode="&#xff;" horiz-adv-x="1024" 
d="M457 80q28 -51 41 -78q10 -29 10 -45q0 -25 -47 -106l-127 -203q-19 -25 -19 -47q-2 -17 19 -17h96q27 2 33 39l436 1098q12 24 31 41q16 14 32 26q19 13 31 23q10 10 10 22q0 19 -14 21t-37 2q-30 -6 -112 -8q-43 0 -70 4t-45 4q-35 0 -53 -2q-21 -4 -21 -31
q0 -18 25 -26q20 -9 45 -19q29 -8 47 -28q20 -23 20 -72q0 -33 -32 -131l-101 -258q-12 -47 -28 -51q-21 2 -37 51l-168 338q-12 30 -23 59q-14 25 -14 41q0 25 18 35q17 12 39 20q23 8 39 21q17 8 17 26q0 21 -15 27h-43q-41 -6 -178 -8q-67 0 -102 4t-58 4q-28 0 -49 -4
q-22 -6 -22 -27q2 -26 41 -41q16 -8 34 -26q19 -19 33 -51zM378 1245q-21 -2 -56 -45q-16 -18 -26 -39q-15 -20 -15 -37q2 -28 41 -71q17 -19 33 -33q16 -17 23 -17q22 2 57 50q16 18 29 41q10 18 10 30q0 17 -10 37q-13 21 -29 39q-14 21 -31 33q-16 12 -26 12v0zM748 1245
q-20 -2 -55 -45q-16 -18 -27 -39q-14 -20 -14 -37q2 -28 41 -71q16 -19 33 -33q16 -17 22 -17q23 2 58 50q16 18 28 41q11 18 11 30q0 17 -11 37q-12 21 -28 39q-15 21 -31 33t-27 12v0z" />
    <glyph glyph-name="onequarter.002" unicode="&#x131;" horiz-adv-x="569" 
d="M176 131q0 -33 -16 -47q-19 -16 -43 -23q-23 -6 -41 -12q-21 -8 -21 -29q0 -22 17 -24q16 -4 41 -4q77 6 151 8q98 -4 195 -8q22 0 53 2q29 2 31 24q0 27 -23 35q-22 8 -51 17q-29 8 -51 28q-25 19 -25 66v690q0 20 -2 33q-4 8 -22 8q0 -8 -222 -88q-51 -10 -75 -19
q-27 -10 -27 -34q0 -21 21 -25q20 -6 45 -8q26 -2 45 -14q20 -15 20 -52v-524z" />
    <glyph glyph-name="Lslash.001" unicode="&#x141;" horiz-adv-x="1251" 
d="M487 903v354q0 58 25 80q20 25 49 29q29 8 51 14q21 8 21 35q0 18 -8 25q-13 2 -45 2q-11 -6 -232 -9q-135 5 -278 9q-66 -2 -66 -35q0 -25 39 -33q33 -10 78 -22q45 -11 80 -39q32 -29 35 -97v-497l-209 -158v-180v0l209 158v0v-291q0 -90 -23 -127t-55 -47
q-29 -11 -52 -17q-26 -8 -26 -43q0 -20 39 -22q168 6 262 8q113 -4 536 -8q129 4 209 104q78 99 80 223q0 31 -6 39q-10 7 -16 7q-25 -3 -47 -41q-23 -39 -70 -93q-45 -51 -148 -90q-104 -45 -292 -45q-56 0 -82 17q-31 12 -43 36q-11 27 -13 64t-2 84v426l220 174v180v0
l-220 -174v0z" />
    <glyph glyph-name="lslash" unicode="&#x142;" horiz-adv-x="569" 
d="M176 657v-471q0 -69 -16 -96q-19 -29 -43 -37q-23 -8 -41 -12q-21 -4 -21 -29q0 -14 13 -16q10 -4 22 -4q88 6 182 8q131 -4 230 -8q45 0 43 26q0 17 -23 25q-22 8 -51 20q-29 13 -51 39q-27 27 -27 78v656l154 122v140v0l-154 -123v0v379q0 86 10 129q7 43 -14 43
q0 -4 -186 -82q-47 -15 -78 -25q-33 -8 -51 -14q-35 -8 -33 -33q0 -20 25 -22q20 -5 45 -11q26 -2 45 -18q20 -19 20 -64v-460l-153 -123v-140v0l153 123v0z" />
    <glyph glyph-name="Idieresis" unicode="&#x152;" horiz-adv-x="2048" 
d="M1089 436q0 -121 -22 -194q-25 -76 -68 -115t-102 -51q-59 -15 -131 -15q-146 0 -238 76q-94 72 -143 178q-47 107 -66 217q-20 111 -20 187q-2 246 94 440q51 94 144 150q88 53 225 55q190 -2 262 -107q68 -104 65 -276v-545zM1931 1403q0 35 -41 39q-229 -6 -442 -9
q-516 5 -678 9q-713 -9 -723 -756q6 -356 201 -524q186 -170 420 -170q251 6 567 8q112 -4 536 -8q56 2 105 31q47 28 84 73q74 99 76 223q0 31 -7 39q-10 7 -16 7q-25 -3 -43 -41q-18 -39 -61 -93q-41 -51 -140 -90q-100 -45 -288 -45q-56 0 -82 17q-31 12 -43 36
q-11 27 -13 64t-2 84v262q-2 88 9 117q12 26 77 26h152q70 0 102 -32q33 -33 43 -74q13 -41 21 -74q8 -37 30 -37q35 2 39 41q2 37 -4 60l-14 364q-2 41 -12 47q-13 4 -27 4t-25 -26q-12 -29 -30 -68q-19 -35 -51 -63q-35 -31 -93 -31h-129q-61 -2 -75 20q-15 21 -13 82v287
q0 55 9 84q6 31 28 43q43 18 219 16q70 0 119 -8q47 -10 74 -26q55 -35 65 -84q9 -23 11 -41q2 -23 4 -41q4 -39 35 -39q34 2 38 39q2 35 -4 55z" />
    <glyph glyph-name="Igrave" unicode="&#x153;" horiz-adv-x="1593" 
d="M967 565q-11 -2 -11 39q0 76 39 146q39 67 129 69q49 0 86 -18q37 -19 58 -49q22 -31 34 -66q9 -35 9 -66q0 -40 -9 -47q-12 -10 -38 -8h-297zM1507 494q10 -3 19 6q6 8 6 39q0 92 -88 211q-45 57 -119 92q-74 34 -178 37q-86 0 -168 -39q-80 -41 -109 -107v0
q-149 148 -352 146q-209 -3 -334 -138q-129 -133 -131 -340q2 -190 129 -305q123 -116 312 -119q83 3 147 21q63 18 106 43q86 57 93 70q102 -129 313 -134q164 5 272 89q54 36 82 71q29 35 29 53q-2 27 -21 25q-12 0 -34 -14q-25 -17 -58 -39q-33 -21 -73 -37
q-41 -19 -89 -19q-135 3 -217 103q-84 96 -86 233q0 47 11 52q8 2 34 0h504zM483 813q84 -2 140 -53q55 -56 86 -137q57 -177 55 -316q0 -106 -41 -180q-47 -76 -166 -78q-84 0 -139 57q-58 52 -90 127q-33 80 -45 158q-13 76 -13 127q4 55 13 109q10 53 30 94q25 43 66 67
q41 25 104 25v0z" />
    <glyph glyph-name="Scaron.001" unicode="&#x160;" 
d="M172 131q6 -37 16 -51q9 -19 43 -27q88 -20 174 -47q82 -26 175 -29q206 3 329 127q125 121 127 324q0 190 -94 287q-92 92 -260 157q-205 86 -295 138q-94 53 -92 147q0 104 65 160q60 55 162 55q131 -2 211 -57q80 -58 121 -131q43 -74 63 -131q21 -60 35 -62
q35 0 43 19q6 10 6 22t-2 29l-22 274q0 37 -2 60q-4 18 -27 18q-20 -2 -49 -16q-33 -17 -55 -17q-21 0 -49 15q-31 10 -68 26q-37 17 -86 29q-49 10 -113 10q-180 -2 -290 -115q-113 -110 -113 -292q0 -156 84 -236q80 -82 213 -137q246 -100 354 -160q55 -33 82 -76
q23 -45 23 -110q-2 -123 -80 -193q-80 -69 -203 -69q-168 2 -268 118q-103 113 -152 265q-4 22 -12 34q-8 11 -33 11q-35 -2 -33 -33t9 -55zM501 1571h142l254 346h-89l-235 -211v0l-238 211h-88z" />
    <glyph glyph-name="scaron.001" unicode="&#x161;" horiz-adv-x="797" 
d="M641 827q-2 17 -31 25q-28 8 -67 14q-88 13 -113 13q-133 0 -229 -58q-103 -63 -105 -209q0 -90 39 -141t121 -86q139 -55 217 -102t80 -107q0 -65 -41 -102q-41 -41 -107 -41q-81 0 -129 45q-51 39 -77 94q-27 55 -41 96q-17 39 -31 41q-33 2 -37 -35l-6 -211
q0 -20 6 -26q6 -8 14 -14q45 -21 123 -33q78 -13 133 -13q127 0 236 64q111 65 115 225q0 115 -58 176q-57 60 -159 97q-123 45 -185 75q-63 31 -63 97q0 55 41 82q37 22 88 22q71 0 116 -27q43 -26 68 -61q27 -35 41 -61q14 -29 29 -29q26 -2 26 20zM328 985h142l254 346
h-89l-235 -211v0l-238 211h-88z" />
    <glyph glyph-name="tilde" unicode="&#x178;" horiz-adv-x="1366" 
d="M551 649q18 -31 26 -55q7 -25 7 -74v-266q0 -92 -33 -131t-78 -49q-18 -6 -39 -8q-20 -3 -37 -9q-37 -8 -37 -43q2 -22 56 -22q55 6 301 8q186 0 243 -4q56 -4 62 -4q29 0 47 6q18 4 18 18q-2 39 -36 45q-37 7 -89 11q-47 4 -86 39q-40 34 -40 127v305q0 53 6 77
q6 25 20 52l268 508q205 247 213 239q0 23 -36 23q-43 -6 -236 -9q-78 0 -117 5q-39 4 -59 4q-39 0 -39 -31q0 -21 33 -29q28 -10 67 -20q39 -8 68 -31q29 -22 31 -74q4 -14 -37 -112l-187 -338q-34 -64 -51 -62q-18 -2 -63 95l-185 381q-16 38 -22 61q-6 20 -6 33
q0 26 18 41q17 12 39 18q23 8 39 16q16 11 16 25q2 25 -34 27q-179 -11 -299 -9q-76 0 -117 5q-45 4 -72 4q-71 2 -71 -25q0 -22 22 -31q21 -8 51 -18q33 -8 68 -33q35 -26 63 -80zM553 1831q-21 -2 -56 -45q-16 -18 -26 -39q-15 -20 -15 -37q2 -28 41 -71q17 -19 33 -33
q16 -17 23 -17q22 2 57 50q16 18 29 41q10 18 10 30q0 17 -10 37q-13 21 -29 39q-14 21 -31 33q-16 12 -26 12v0zM923 1831q-20 -2 -55 -45q-16 -18 -27 -39q-14 -20 -14 -37q2 -28 41 -71q16 -19 33 -33q16 -17 22 -17q23 2 58 50q16 18 28 41q11 18 11 30q0 17 -11 37
q-12 21 -28 39q-15 21 -31 33t-27 12v0z" />
    <glyph glyph-name="quotesinglbase" unicode="&#x192;" 
d="M346 53q-14 -133 -27 -209q-14 -77 -26 -110t-25 -41q-12 -6 -28 -6q-19 2 -35 24q-15 21 -31 49q-14 29 -31 52q-16 22 -34 22q-13 0 -23 -16q-12 -19 -20 -47q-17 -58 -17 -92q-2 -44 25 -68q26 -29 98 -29q66 2 129 41q64 39 119 99q114 129 135 270l88 700q2 17 4 29
t17 12h143q41 2 45 105q-2 16 -35 14h-141q-19 0 -12 18l49 267q8 49 39 102q30 53 86 55q47 0 73 -22q25 -23 39 -51q15 -29 27 -50q10 -24 24 -24q31 0 48 51q14 47 14 98q0 35 -14 54q-17 18 -41 26q-54 10 -107 10q-123 -2 -213 -69q-90 -68 -135 -144q-35 -61 -53 -116
q-21 -58 -33 -105q-8 -47 -19 -71q-8 -29 -24 -29h-154q-41 -2 -45 -105q0 -16 35 -14h137q23 0 25 -31z" />
    <glyph glyph-name="threequarters" unicode="&#x2c6;" horiz-adv-x="682" 
d="M412 1331h-142l-254 -346h88l238 211v0l235 -211h89z" />
    <glyph glyph-name="Ccaron" unicode="&#x2c7;" horiz-adv-x="682" 
d="M270 985h142l254 346h-89l-235 -211v0l-238 211h-88z" />
    <glyph glyph-name="gbreve" unicode="&#x2d8;" horiz-adv-x="682" 
d="M43 1309q10 -318 305 -324q141 2 215 98q74 92 76 226h-76q0 -11 -6 -39q-8 -31 -33 -66q-20 -35 -65 -59q-45 -27 -121 -27q-64 0 -107 25q-41 22 -65 53q-23 33 -35 63q-10 31 -16 50h-72z" />
    <glyph glyph-name="Idotaccent" unicode="&#x2d9;" horiz-adv-x="682" 
d="M244 1124q2 -28 41 -71q16 -19 32 -33q17 -17 23 -17q22 2 57 50q17 18 29 41q10 18 10 30q0 17 -10 37q-12 21 -29 39q-14 21 -30 33q-17 12 -27 12q-21 -2 -55 -45q-17 -18 -27 -39q-14 -20 -14 -37v0z" />
    <glyph glyph-name="Scedilla" unicode="&#x2da;" horiz-adv-x="682" 
d="M342 1298q49 0 84 -32q33 -31 33 -82q0 -47 -33 -80q-35 -37 -84 -37q-47 0 -80 37q-37 33 -37 80q0 51 37 82q33 32 80 32v0zM342 975q88 0 149 63q58 58 60 146q-2 90 -60 147q-61 57 -149 59q-84 -2 -145 -59q-64 -57 -64 -147q0 -88 64 -146q57 -63 145 -63v0z" />
    <glyph glyph-name="cacute" unicode="&#x2db;" horiz-adv-x="682" 
d="M598 -352q-53 -15 -86 -21q-33 -8 -59 -8q-66 2 -97 53q-28 45 -28 101q0 47 30 110q29 60 84 117h-77q-54 0 -121 -76q-31 -35 -52 -82q-24 -49 -24 -106q0 -82 55 -141q56 -62 166 -64q66 0 125 18q59 15 96 46z" />
    <glyph glyph-name="onequarter" unicode="&#x2dc;" horiz-adv-x="682" 
d="M620 1268q-2 -11 -24 -54q-12 -18 -31 -34q-18 -17 -47 -17q-70 2 -147 49q-37 19 -76 35q-39 14 -80 14q-51 0 -90 -20t-68 -55q-55 -74 -67 -150h67q2 15 25 56q20 40 86 43q68 -5 133 -48q37 -18 76 -32q39 -17 84 -17q104 2 157 72q52 65 72 158h-70z" />
    <glyph glyph-name="Oacute" unicode="&#x2013;" horiz-adv-x="1024" 
d="M0 375h1024v147h-1024v-147z" />
    <glyph glyph-name="Ocircumflex" unicode="&#x2014;" horiz-adv-x="2048" 
d="M0 375h2048v147h-2048v-147z" />
    <glyph glyph-name="Uacute" unicode="&#x2018;" horiz-adv-x="569" 
d="M244 817q28 2 57 31q29 26 53 51q41 35 62 55q20 21 20 35q0 19 -20 35q-23 18 -51 39q-29 22 -50 55q-24 31 -24 80q0 55 26 94q23 37 52 64q30 28 53 47q22 18 22 33q-2 26 -24 24q-88 -4 -203 -125q-53 -59 -90 -131q-39 -74 -39 -151q0 -93 51 -162q23 -35 51 -53
q25 -21 54 -21v0z" />
    <glyph glyph-name="Ucircumflex" unicode="&#x2019;" horiz-adv-x="569" 
d="M305 1460q-24 -2 -53 -29q-31 -26 -57 -53q-37 -33 -60 -53q-22 -21 -22 -37q0 -14 24 -31q21 -16 49 -41q29 -20 52 -55q20 -33 20 -82q0 -51 -22 -88q-23 -39 -54 -65q-28 -27 -51 -45q-27 -21 -27 -39q2 -27 25 -25q88 2 205 129q55 59 90 131t37 148q-2 96 -49 163
q-21 35 -50 54q-28 18 -57 18v0z" />
    <glyph glyph-name="Lslash" unicode="&#x201a;" horiz-adv-x="569" 
d="M285 369q-25 -2 -54 -29q-30 -27 -57 -53q-37 -33 -59 -54q-23 -20 -23 -36q0 -15 25 -31q20 -17 49 -41q29 -21 51 -55q21 -33 21 -82q0 -51 -23 -88q-23 -39 -53 -66q-29 -26 -51 -45q-27 -20 -27 -39q2 -24 25 -24q88 4 204 129q56 59 90 131q35 71 37 147
q-2 96 -49 164q-20 35 -49 53q-29 19 -57 19v0z" />
    <glyph glyph-name="apple" unicode="&#x201c;" horiz-adv-x="1024" 
d="M250 817q29 2 57 31q29 26 53 51q41 35 62 55q20 21 20 35q0 19 -20 35q-23 18 -51 39q-29 22 -49 55q-25 31 -25 80q0 55 27 94q22 37 51 64q30 28 53 47q23 18 23 33q-3 26 -25 24q-88 -4 -203 -125q-53 -59 -90 -131q-39 -74 -39 -151q0 -93 51 -162q23 -35 52 -53
q24 -21 53 -21v0zM727 817q29 2 57 31q29 26 54 51q41 35 61 55q20 21 20 35q0 19 -20 35q-23 18 -51 39q-29 22 -49 55q-25 31 -25 80q0 55 27 94q22 37 51 64q31 28 53 47q23 18 23 33q-2 26 -25 24q-88 -4 -203 -125q-53 -59 -90 -131q-39 -74 -39 -151q0 -93 52 -162
q22 -35 51 -53q24 -21 53 -21v0z" />
    <glyph glyph-name="Ograve" unicode="&#x201d;" horiz-adv-x="1024" 
d="M287 1460q-25 -2 -54 -29q-30 -26 -57 -53q-37 -33 -59 -53q-23 -21 -23 -37q0 -14 25 -31q20 -16 49 -41q29 -20 51 -55q21 -33 21 -82q0 -51 -23 -88q-22 -39 -53 -65q-29 -27 -51 -45q-27 -21 -27 -39q2 -27 25 -25q88 2 204 129q56 59 90 131q35 72 37 148
q-2 96 -49 163q-20 35 -49 54q-29 18 -57 18v0zM764 1460q-25 -2 -53 -29q-31 -26 -58 -53q-37 -33 -59 -53q-23 -21 -23 -37q0 -14 25 -31q20 -16 49 -41q29 -20 51 -55q21 -33 21 -82q0 -51 -23 -88q-22 -39 -53 -65q-29 -27 -51 -45q-27 -21 -27 -39q2 -27 25 -25
q88 2 205 129q55 59 90 131q34 72 36 148q-2 96 -49 163q-20 35 -49 54q-28 18 -57 18v0z" />
    <glyph glyph-name="lslash.001" unicode="&#x201e;" horiz-adv-x="1024" 
d="M768 369q-25 -2 -53 -29q-31 -27 -58 -53q-37 -33 -59 -54q-23 -20 -23 -36q0 -15 25 -31q20 -17 49 -41q29 -21 51 -55q21 -33 21 -82q0 -51 -23 -88q-22 -39 -53 -66q-29 -26 -51 -45q-27 -20 -27 -39q2 -24 25 -24q88 4 205 129q55 59 90 131q35 71 37 147
q-2 96 -50 164q-20 35 -49 53q-28 19 -57 19v0zM285 369q-25 -2 -54 -29q-30 -27 -57 -53q-37 -33 -59 -54q-23 -20 -23 -36q0 -15 25 -31q20 -17 49 -41q29 -21 51 -55q21 -33 21 -82q0 -51 -23 -88q-23 -39 -53 -66q-29 -26 -51 -45q-27 -20 -27 -39q2 -24 25 -24
q88 4 204 129q56 59 90 131q35 71 37 147q-2 96 -49 164q-20 35 -49 53q-29 19 -57 19v0z" />
    <glyph glyph-name="ae" unicode="&#x2020;" horiz-adv-x="1024" 
d="M541 -164l6 273q0 286 104 555q-61 102 -86 167q-26 66 -24 193q98 2 168 -39q34 -18 65 -33q29 -16 53 -16q49 0 78 35q27 32 27 75q0 46 -27 78q-29 33 -78 33q-24 0 -53 -14q-31 -13 -65 -33q-33 -16 -76 -29q-43 -14 -92 -12q-2 70 12 119q12 49 31 84q20 37 32 71
q15 33 15 72q-2 55 -35 84q-35 27 -84 27q-47 0 -82 -27q-37 -29 -37 -84q2 -74 49 -143q21 -35 33 -84q10 -49 8 -119q-96 0 -164 41q-32 20 -63 33q-31 14 -59 14q-48 0 -76 -33q-29 -32 -29 -78q0 -43 29 -75q28 -35 76 -35q28 0 59 16q31 15 63 33q33 20 76 33
q39 10 88 6q6 -127 -20 -193q-29 -65 -90 -167q104 -269 104 -555l6 -273h58z" />
    <glyph glyph-name="ogonek" unicode="&#x2021;" horiz-adv-x="1024" 
d="M541 295q98 2 168 -39q34 -18 65 -33q29 -16 53 -16q49 0 78 35q27 32 27 75q0 45 -27 78q-29 33 -78 33q-24 0 -53 -14q-31 -13 -65 -33q-33 -16 -76 -29q-43 -14 -92 -12q-7 90 22 176q27 86 74 166q-47 82 -74 168q-29 86 -22 174q98 2 168 -39q34 -18 65 -33
q29 -16 53 -16q49 0 78 35q27 32 27 75q0 46 -27 78q-29 33 -78 33q-24 0 -53 -14q-31 -13 -65 -33q-33 -16 -76 -29q-43 -14 -92 -12q-2 70 12 119q12 49 31 84q20 37 32 71q15 33 15 72q-2 55 -35 84q-35 27 -84 27q-47 0 -82 -27q-37 -29 -37 -84q2 -74 49 -143
q21 -35 33 -84q10 -49 8 -119q-96 0 -164 41q-32 20 -63 33q-31 14 -59 14q-48 0 -76 -33q-29 -32 -29 -78q0 -43 29 -75q28 -35 76 -35q28 0 59 16q31 15 63 33q33 20 76 33q39 10 88 6q8 -180 -96 -342q104 -162 96 -342q-96 0 -164 41q-32 20 -63 33q-31 14 -59 14
q-48 0 -76 -33q-29 -33 -29 -78q0 -43 29 -75q28 -35 76 -35q28 0 59 16q31 15 63 33q33 20 76 33q39 10 88 6q2 -66 -8 -115q-12 -49 -33 -86q-18 -37 -32 -69q-17 -33 -17 -76q0 -55 37 -82q35 -29 82 -29q49 0 84 29q33 27 35 82q0 43 -15 76q-12 32 -32 69
q-19 37 -31 86q-14 49 -12 115v0z" />
    <glyph glyph-name="radical" unicode="&#x2022;" horiz-adv-x="1241" 
d="M981 721q-2 153 -105 256q-102 102 -256 104q-151 -2 -253 -104q-105 -103 -107 -256q2 -152 107 -254q102 -105 253 -107q154 2 256 107q103 102 105 254v0z" />
    <glyph glyph-name="Aacute" unicode="&#x2026;" horiz-adv-x="2048" 
d="M342 369q-43 -4 -109 -72q-30 -29 -51 -59q-24 -31 -24 -54q0 -18 24 -47q21 -31 51 -61q31 -31 62 -51q14 -11 27 -17q12 -8 20 -8q23 0 53 25q31 20 60 51q32 30 51 61q20 29 20 47q0 23 -20 54q-19 30 -51 59q-29 33 -60 51q-30 21 -53 21v0zM1024 369
q-43 -4 -109 -72q-30 -29 -51 -59q-24 -31 -24 -54q0 -18 24 -47q21 -31 51 -61q31 -31 62 -51q14 -11 26 -17q13 -8 21 -8q22 0 53 25q31 20 60 51q32 30 51 61q20 29 20 47q0 23 -20 54q-19 30 -51 59q-29 33 -60 51q-31 21 -53 21v0zM1706 369q-43 -4 -109 -72
q-30 -29 -51 -59q-24 -31 -24 -54q0 -18 24 -47q21 -31 51 -61q31 -31 62 -51q14 -11 26 -17q13 -8 21 -8q22 0 53 25q31 20 59 51q33 30 52 61q20 29 20 47q0 23 -20 54q-19 30 -52 59q-28 33 -59 51q-31 21 -53 21v0z" />
    <glyph glyph-name="Scaron" unicode="&#x2030;" horiz-adv-x="2048" 
d="M991 1386l-780 -1386h100l776 1386h-96zM4 1057q0 -142 90 -234q84 -96 228 -98q141 2 227 92q84 86 86 225q0 154 -76 248q-80 94 -240 96q-315 -8 -315 -329v0zM299 1331q57 0 94 -33q35 -34 53 -88q19 -49 27 -106q4 -55 4 -101q0 -75 -22 -145q-29 -76 -119 -78
q-51 0 -82 41q-33 37 -51 90q-17 54 -23 111q-8 53 -8 92q-2 74 20 143q21 72 107 74v0zM674 332q0 -142 90 -234q84 -96 227 -98q141 2 227 92q84 86 86 225q0 154 -75 248q-80 94 -240 96q-315 -8 -315 -329v0zM969 606q57 0 94 -33q35 -34 53 -88q19 -49 27 -106
q4 -55 4 -100q0 -76 -23 -146q-28 -76 -119 -78q-51 0 -81 41q-33 37 -52 90q-16 54 -22 111q-8 53 -8 92q-2 74 20 143q21 72 107 74v0zM1405 332q0 -142 90 -234q84 -96 227 -98q142 2 228 92q84 86 86 225q0 154 -76 248q-80 94 -240 96q-315 -8 -315 -329v0zM1700 606
q57 0 94 -33q35 -34 53 -88q19 -49 27 -106q4 -55 4 -100q0 -76 -23 -146q-28 -76 -118 -78q-52 0 -82 41q-33 37 -52 90q-16 54 -22 111q-8 53 -8 92q-2 74 20 143q21 72 107 74v0z" />
    <glyph glyph-name="dotaccent" unicode="&#x2039;" horiz-adv-x="682" 
d="M143 446l357 -303q12 -8 22 -8q15 0 15 14q-3 17 -25 58q-27 41 -61 92q-80 109 -117 147q37 43 117 152q34 51 61 92q22 39 25 53q0 13 -15 15q-10 0 -22 -8z" />
    <glyph glyph-name="ring" unicode="&#x203a;" horiz-adv-x="682" 
d="M530 446l-356 304q-10 8 -22 8q-15 -2 -15 -15q0 -14 29 -53q26 -41 61 -92q78 -109 113 -152q-35 -38 -113 -147q-35 -51 -61 -92q-29 -41 -29 -58q0 -14 15 -14q12 0 22 8z" />
    <glyph glyph-name="guillemotright" unicode="&#x2122;" horiz-adv-x="2005" 
d="M631 606v53q-72 0 -99 23q-26 20 -24 51v635h90q82 0 117 -29q32 -32 32 -114h62v208h-752v-208h62q2 82 35 114q32 29 114 29h90v-616q0 -41 -26 -66q-29 -27 -105 -27v-53h404zM1433 862l-241 571h-270v-49h30q47 0 53 -14q3 -16 3 -59v-582q0 -47 -21 -57
q-25 -11 -82 -13v-53h268v53q-49 0 -73 11q-27 10 -29 55v602h4l305 -721h21l293 721h4v-569q0 -64 -17 -80q-18 -19 -88 -19v-53h355v53q-66 5 -84 23q-19 16 -17 78v551q-2 39 8 57q11 16 54 16h39v49h-273l-242 -571v0z" />
    <glyph glyph-name="minus" unicode="&#x2212;" horiz-adv-x="1241" 
d="M104 434h1033v176h-1033v-176z" />
    <glyph glyph-name="macron" unicode="&#x2215;" horiz-adv-x="342" 
d="M-192 0l843 1386h-119l-843 -1386h119z" />
    <glyph glyph-name="caron" unicode="&#x2219;" horiz-adv-x="569" 
d="M285 707q-43 -5 -109 -72q-31 -29 -51 -60q-25 -30 -25 -53q0 -18 25 -47q20 -31 51 -61q31 -31 62 -52q14 -10 26 -16q12 -8 21 -8q22 0 53 24q31 21 59 52q33 30 51 61q21 29 21 47q0 23 -21 53q-18 31 -51 60q-28 33 -59 51q-31 21 -53 21v0z" />
    <glyph glyph-name="cedilla" unicode="&#xf001;" 
d="M33 852v-111h112q27 -2 31 -24q4 -25 4 -51v-531q0 -39 -14 -53q-17 -14 -35 -21q-18 -4 -35 -10q-18 -8 -18 -31q0 -28 28 -28q72 6 203 8q78 0 137 -4q58 -4 86 -4q35 -2 37 26q-2 29 -24 37q-27 8 -62 13q-30 8 -57 32q-29 27 -29 95v497q-2 49 31 49h238q59 0 75 -22
q13 -25 11 -64v-524q0 -33 -15 -47q-16 -16 -35 -23q-18 -6 -32 -12q-19 -8 -19 -29q0 -22 10 -24q9 -4 27 -4q78 6 152 8q98 -4 194 -8q23 0 53 2q29 2 31 24q0 27 -22 35q-23 8 -52 17q-28 8 -51 28q-24 19 -24 66v690q0 20 -2 33q-5 8 -23 8q-12 -2 -39 -21
q-29 -20 -125 -22h-340q-18 0 -26 6q-9 6 -13 23q-2 18 -2 55q-2 37 -2 94q2 141 72 252q33 53 76 84q41 31 84 31t69 -23q27 -22 45 -51q19 -29 37 -51q15 -27 33 -27q16 0 37 16q22 17 43 37q22 23 39 43q12 19 12 31q0 23 -47 74q-49 53 -150 57q-104 0 -204 -45
q-101 -47 -178 -123q-78 -78 -134 -207q-59 -131 -59 -245q-2 -21 -23 -27q-22 -4 -40 -4h-76z" />
    <glyph glyph-name="hungarumlaut" unicode="&#xf002;" 
d="M45 852v-111h113q26 -2 30 -24q4 -25 4 -51v-531q0 -39 -14 -53q-16 -14 -35 -21q-18 -4 -34 -10q-19 -8 -19 -31q0 -28 29 -28q71 6 203 8q77 0 137 -4q57 -4 86 -4q35 -2 37 26q-2 29 -25 37q-27 8 -61 13q-31 8 -58 32q-28 27 -28 95v497q-2 49 30 49h137q21 0 27 23
q6 20 14 43q7 14 17 41q10 24 10 35q0 14 -12 14q-19 -2 -25 -21q-6 -10 -14 -16q-8 -8 -27 -8h-143q-14 -2 -12 29q-2 32 -2 149q2 141 71 252q33 53 76 84q41 31 84 31q78 -2 104 -45q23 -45 23 -95v-1071q0 -69 -16 -96q-19 -29 -43 -37q-23 -8 -41 -12q-21 -4 -21 -29
q0 -14 12 -16q11 -4 23 -4q88 6 182 8q131 -4 230 -8q45 0 43 26q0 17 -23 25q-22 8 -51 20q-29 13 -51 39q-27 27 -27 78v1174q0 86 10 129q6 43 -14 43q-27 -2 -49 -25q-13 -10 -25 -16q-12 -11 -31 -11q-12 0 -38 17q-29 10 -78 12q-105 0 -205 -45q-100 -47 -178 -123
q-78 -78 -133 -207q-60 -131 -60 -245q-2 -21 -22 -27q-23 -4 -41 -4h-76z" />
    <glyph glyph-name="NULL" horiz-adv-x="0" 
 />
    </font>
</defs>
</svg>
