<?xml version="1.0" standalone="no"?>
<!DOCTYPE svg PUBLIC "-//W3C//DTD SVG 1.1//EN" "http://www.w3.org/Graphics/SVG/1.1/DTD/svg11.dtd" >
<svg xmlns="http://www.w3.org/2000/svg" xmlns:xlink="http://www.w3.org/1999/xlink" version="1.1">
<metadata>
Created by FontForge 20201107 at Fri Apr 20 16:04:42 2018
 By 
Copyright (c) 1981 Allied Corporation. Copyright (c) 1985, 1987 Adobe Systems Incorporated. All rights reserved.
</metadata>
<defs>
<font id="Goudy" horiz-adv-x="500" >
  <font-face 
    font-family="Goudy"
    font-weight="400"
    font-stretch="normal"
    units-per-em="1000"
    panose-1="0 0 4 0 0 0 0 0 0 0"
    ascent="800"
    descent="-200"
    x-height="414"
    cap-height="704"
    bbox="-168 -213 1001 967"
    underline-thickness="51"
    underline-position="-136"
    unicode-range="U+0020-F002"
  />
<missing-glyph 
d="M63 0v791h375v-791h-375zM125 63h250v666h-250v-666z" />
    <glyph glyph-name=".notdef" 
d="M63 0v791h375v-791h-375zM125 63h250v666h-250v-666z" />
    <glyph glyph-name=".null" horiz-adv-x="0" 
 />
    <glyph glyph-name="nonmarkingreturn" horiz-adv-x="250" 
 />
    <glyph glyph-name="space" unicode=" " horiz-adv-x="250" 
 />
    <glyph glyph-name="exclam" unicode="!" horiz-adv-x="333" 
d="M153 237v0l-27 403q-2 24 7.5 31.5t32.5 7.5t32.5 -7.5t7.5 -31.5l-27 -403q-2 -29 -13 -29q-10 0 -13 29zM102 64q0 7 9 12q15 9 23.5 18.5t19.5 25.5q5 8 12 8q8 0 13 -7q12 -18 19.5 -26.5t22.5 -17.5q9 -6 9 -13t-9 -14q-15 -11 -23.5 -19.5t-18.5 -22.5
q-5 -8 -13 -8q-7 0 -13 7q-12 17 -18.5 23.5t-23.5 19.5q-9 7 -9 14z" />
    <glyph glyph-name="quotedbl" unicode="&#x22;" horiz-adv-x="371" 
d="M96 704q34 0 34 -53q0 -11 -2 -28l-21 -204q-3 -31 -11 -31t-11 31l-21 204q-2 17 -2 28q0 53 34 53zM239 704q34 0 34 -53q0 -11 -2 -28l-21 -204q-3 -31 -11 -31t-11 31l-21 204q-2 17 -2 28q0 53 34 53z" />
    <glyph glyph-name="numbersign" unicode="#" 
d="M428 534l-35 -85q-6 -24 -6 -18q0 -7 23 -7h91q23 0 23 -6q0 -3 -6 -18q-8 -21 -10 -22.5t-20 -1.5h-104q-17 0 -19.5 -1.5t-8.5 -17.5l-29 -73q-6 -15 -6 -17q0 -7 22 -7h92q22 0 22 -7q0 -2 -6 -17q-8 -21 -10 -22.5t-20 -1.5h-104q-17 0 -18.5 -1.5t-8.5 -17.5
l-44 -109q-3 -7 -6 -15q-3 -4 -12 -4q-14 0 -14 7q0 3 6 18l40 97q6 24 6 18q0 7 -23 7h-88q-17 0 -18.5 -1.5t-8.5 -17.5l-44 -109q-3 -7 -6 -15q-3 -4 -12 -4q-12 0 -12 7q0 3 6 18l39 97q6 15 6 18q0 7 -22 7h-85q-22 0 -22 6q0 3 6 18q9 21 10.5 22.5t18.5 1.5h98
q17 0 19 1t8 17l30 73q6 15 6 18q0 7 -22 7h-86q-22 0 -22 6q0 3 6 18q9 21 10.5 22.5t19.5 1.5h98q17 0 18.5 1.5t8.5 17.5l39 96q3 7 6 15q2 4 11 4q13 0 13 -7q0 -2 -6 -17l-35 -85q-6 -15 -6 -18q0 -7 23 -7h88q17 0 18.5 1.5t8.5 17.5l40 96q8 19 17 19q14 0 14 -7
q0 -2 -6 -17zM309 375h-88q-17 0 -19 -1t-8 -17l-30 -74q-6 -15 -6 -17q0 -7 23 -7h88q17 0 19 1.5t8 16.5l30 74q6 15 6 17q0 7 -23 7z" />
    <glyph glyph-name="dollar" unicode="$" 
d="M215 430v245q-49 0 -84 -37t-35 -87q0 -94 119 -121zM252 335v-304q51 0 92.5 47.5t41.5 105.5q0 109 -134 151zM215 31v315q-165 43 -165 179q0 69 49.5 124t115.5 55v78h37v-78q42 0 88 -21q58 -26 58 -68q0 -15 -8 -36t-16 -21q-5 0 -11 15q-9 25 -22 44
q-40 58 -89 58v-252q186 -45 186 -207q0 -81 -52 -146q-55 -70 -134 -70v-124h-37v124q-65 0 -123.5 27.5t-58.5 57.5q0 80 18 80q3 0 17 -29q17 -37 45 -63q45 -42 102 -42z" />
    <glyph glyph-name="percent" unicode="%" horiz-adv-x="833" 
d="M629 704l-389 -710h-40l389 710h40zM616 0q-73 0 -119 57q-42 53 -42 128q0 71 40 123q43 56 112 56q77 0 123 -53t46 -131q0 -79 -40 -127q-43 -53 -120 -53zM600 343q-80 0 -80 -128q0 -67 20 -121q28 -73 84 -73q87 0 87 129q0 75 -20 124q-28 69 -91 69zM218 336
q-73 0 -119 57q-42 53 -42 128q0 71 40 123q43 56 112 56q77 0 123 -53t46 -131q0 -79 -40 -127q-43 -53 -120 -53zM202 679q-80 0 -80 -128q0 -67 20 -121q28 -73 84 -73q87 0 87 129q0 75 -20 124q-28 69 -91 69z" />
    <glyph glyph-name="ampersand" unicode="&#x26;" horiz-adv-x="833" 
d="M351 48q104 0 179 64q-115 98 -230 227q-80 90 -96 90q-45 0 -77 -44.5t-32 -91.5q0 -98 79 -171.5t177 -73.5zM454 658l3 -95q0 -8 -10 -8q-7 0 -15 18q-20 43 -55 72q-39 33 -82 33q-35 0 -59 -23t-24 -58q0 -88 364 -425q29 32 29 106q0 51 -24 73q-14 12 -46 20
q-24 5 -24 16q0 9 23 9q21 0 51.5 -2t35.5 -2q4 0 24 2t40 2q14 0 14 -12q0 -5 -20 -14.5t-23 -34.5q-14 -125 -47 -184q43 -37 86 -75q63 -52 91 -52q12 0 23.5 2.5t13.5 2.5q8 0 8 -8q0 -12 -28 -22t-55 -10q-48 0 -100 34q-7 5 -85 67q-109 -101 -246 -101
q-114 0 -193 68q-83 72 -83 185q0 82 41 138.5t119 73.5q-46 57 -46 114q0 64 51 102q45 34 111 34q39 0 75.5 -13.5t31.5 -13.5q2 0 7.5 4.5t10.5 4.5q11 0 12 -28z" />
    <glyph glyph-name="quotesingle" unicode="'" horiz-adv-x="222" 
d="M95 704q34 0 34 -53q0 -11 -2 -28l-21 -204q-3 -31 -11 -31t-11 31l-21 204q-2 17 -2 28q0 53 34 53z" />
    <glyph glyph-name="parenleft" unicode="(" horiz-adv-x="389" 
d="M83 294q0 105 45 219q37 94 92 166q50 66 75 66q11 0 11 -12q0 -1 -37 -52q-44 -61 -70 -127q-37 -97 -37 -210q0 -126 34 -245q23 -78 65 -161q34 -70 34 -76q0 -10 -12 -10q-22 0 -68 60q-53 69 -88 159q-44 111 -44 223z" />
    <glyph glyph-name="parenright" unicode=")" horiz-adv-x="389" 
d="M306 303q0 -105 -45 -219q-37 -94 -92 -166q-50 -66 -75 -66q-11 0 -11 12q0 1 37 52q44 61 70 127q37 97 37 210q0 126 -34 245q-23 78 -65 161q-34 70 -34 76q0 10 12 10q22 0 68 -60q53 -69 88 -159q44 -111 44 -223z" />
    <glyph glyph-name="asterisk" unicode="*" 
d="M251 704q17 0 27 -12t10 -29q0 -8 -15 -58t-13 -91q48 27 87 72q30 35 45 35q39 0 39 -39q0 -31 -54 -42q-76 -17 -109 -42q35 -25 111 -41q52 -11 52 -42q0 -37 -38 -37q-20 0 -53 41q-40 48 -80 65q0 -66 14 -102t14 -46q0 -17 -11.5 -30t-28.5 -13q-34 0 -34 42
q0 11 13.5 44.5t13.5 104.5q-46 -27 -86 -73q-30 -33 -50 -33q-36 0 -36 38q0 30 52 42q78 17 113 40q-33 23 -112 42q-53 12 -53 46q0 35 38 35q16 0 53 -41q44 -49 81 -66q2 49 -11.5 92.5t-13.5 57.5q0 40 35 40z" />
    <glyph glyph-name="plus" unicode="+" horiz-adv-x="606" 
d="M81 336h195v194h54v-194h194v-54h-194v-195h-54v195h-195v54z" />
    <glyph glyph-name="comma" unicode="," horiz-adv-x="250" 
d="M123 125q19 0 40 -28q25 -33 25 -78q0 -66 -41 -119q-35 -46 -63 -46q-9 0 -9 10q0 1 27 30.5t27 70.5q0 29 -17 52q-10 13 -33 30q-17 14 -17 19q0 12 24 35.5t37 23.5z" />
    <glyph glyph-name="hyphen" unicode="-" horiz-adv-x="333" 
d="M82 223l152 54l34 12q9 0 9 -24q0 -28 -2.5 -32.5t-24.5 -12.5l-152 -54l-34 -12q-9 0 -9 22q0 29 2.5 34t24.5 13z" />
    <glyph glyph-name="hyphen" unicode="&#x2010;" horiz-adv-x="333" 
d="M82 223l152 54l34 12q9 0 9 -24q0 -28 -2.5 -32.5t-24.5 -12.5l-152 -54l-34 -12q-9 0 -9 22q0 29 2.5 34t24.5 13z" />
    <glyph glyph-name="period" unicode="." horiz-adv-x="250" 
d="M61 64q0 7 9 12q15 9 23.5 18.5t19.5 25.5q5 8 12 8q8 0 13 -7q12 -18 19.5 -26.5t22.5 -17.5q9 -6 9 -13t-9 -14q-15 -11 -23.5 -19.5t-18.5 -22.5q-5 -8 -13 -8q-7 0 -13 7q-12 17 -18.5 23.5t-23.5 19.5q-9 7 -9 14z" />
    <glyph glyph-name="slash" unicode="/" horiz-adv-x="278" 
d="M54 -148h-54l226 893h55z" />
    <glyph glyph-name="zero" unicode="0" 
d="M238 -11q-85 0 -140 71q-67 87 -67 256q0 190 78 297q66 91 157 91q74 0 131 -69q71 -89 71 -256q0 -183 -77 -294q-66 -96 -153 -96zM229 650q-79 0 -117 -96q-28 -70 -28 -164q0 -163 61 -261q53 -84 121 -84q56 0 97 52q55 71 55 217q0 167 -72 262q-55 74 -117 74z
" />
    <glyph glyph-name="one" unicode="1" 
d="M212 86v460q0 36 -4 45q-6 18 -32 18q-9 0 -33 -8t-27 -8q-10 0 -10 10q0 11 16 18q28 11 56 21q36 15 73 40q32 22 31 22q10 0 10 -15q0 -6 -3.5 -26t-3.5 -40v-521q0 -50 29 -68q15 -10 52 -13q29 -2 29 -14q0 -11 -35 -11q-15 0 -49 2t-54 2t-64 -2t-57 -2
q-21 0 -21 12q0 10 25 13q34 5 47 12q25 15 25 53z" />
    <glyph glyph-name="two" unicode="2" 
d="M243 704q66 0 107 -39.5t41 -104.5t-62 -183q-38 -71 -115 -190q-62 -95 -62 -104q0 -14 50 -16q-22 1 95 1q54 0 86 18q19 11 35 34q13 18 22 18q8 0 8 -8q0 -3 -29 -54l-43 -76h-302q-23 0 -23 9q0 6 42 62q225 298 225 461q0 118 -112 118q-36 0 -69 -17
q-20 -10 -45 -31q-19 -17 -24 -17q-8 0 -8 17q0 23 55 60q63 42 128 42z" />
    <glyph glyph-name="three" unicode="3" 
d="M188 373q-28 0 -28 8q0 7 38 30q47 29 70 53q38 40 38 89q0 46 -27 73t-73 27q-34 0 -62 -14q-17 -9 -36 -27q-15 -14 -20 -14q-12 0 -12 9q0 23 50 58q58 39 121 39q55 0 92.5 -32t37.5 -86q0 -48 -33 -96q-31 -43 -75 -67l2 -2q65 1 106 -46.5t41 -117.5
q0 -106 -77.5 -187t-183.5 -81q-44 0 -92.5 23t-48.5 42q0 10 11 10q5 0 43.5 -24t83.5 -24q80 0 134 66q51 61 51 143q0 79 -48 117q-40 31 -103 31z" />
    <glyph glyph-name="four" unicode="4" 
d="M292 -17v228h-231q-29 0 -31 1q-10 2 -10 16q0 26 124 203q80 113 155 212q17 23 35 46q13 15 23 15q8 0 8 -29v-394h43q17 0 34.5 14.5l17.5 14.5q6 0 6 -7q0 -8 -7 -40q-8 -35 -14 -47q-2 -5 -10 -5q2 0 -70 0v-265q0 -8 -27 -15q-23 -6 -36 -6q-8 0 -9 9q-1 4 -1 49z
M292 281v296h-2l-202 -296h204z" />
    <glyph glyph-name="five" unicode="5" 
d="M160 600l-28 -143q50 11 82 11q91 0 147.5 -55.5t56.5 -145.5q0 -96 -53 -172q-71 -101 -207 -101q-57 0 -97 16q-32 12 -32 22t8 10q-3 0 28 -10.5t70 -10.5q87 0 145 55q63 59 63 159q0 165 -166 165q-15 0 -42 -4.5t-34 -4.5q-13 0 -11 11l46 250q6 30 10 36
q8 12 34 12h168q29 0 46.5 16.5t19.5 16.5q8 0 8 -6t-15 -40.5t-22 -46t-22 -13.5h-41h-110q-25 0 -34 -3q-14 -6 -18 -24z" />
    <glyph glyph-name="six" unicode="6" 
d="M258 -11q-80 0 -141 59q-78 75 -78 214q0 162 124 306.5t260 144.5q14 0 14 -9q0 -7 -7 -10q-21 -8 -43 -15q-96 -33 -165 -120q-63 -79 -86 -175q83 61 143 61q81 0 133 -68q48 -63 48 -146q0 -88 -42 -155q-55 -87 -160 -87zM271 20q60 0 94 51q29 44 29 107
q0 88 -35 149q-42 75 -123 75q-116 0 -116 -159q0 -78 35 -144q43 -79 116 -79z" />
    <glyph glyph-name="seven" unicode="7" 
d="M73 584l19 88q5 21 8.5 26.5t21.5 5.5q14 0 40.5 -2t39.5 -2h193q21 0 23 -1q13 -7 12 -40q-2 -52 -45 -167q-38 -105 -76 -209q-41 -125 -41 -202q0 -33 9.5 -68t9.5 -37q0 -10 -27 -16q-20 -5 -35 -5q-23 0 -31 11q-10 16 -10 70q0 84 52 211q48 105 96 211
q52 115 52 169h-181q-56 0 -82 -23q-14 -13 -22 -41q-6 -23 -16 -23q-19 0 -10 44z" />
    <glyph glyph-name="eight" unicode="8" 
d="M253 18q67 0 106 42t39 109q0 55 -48 105q-36 36 -91 64q-44 22 -54 22q-34 0 -71 -46q-40 -50 -40 -108q0 -69 44 -126q48 -62 115 -62zM278 420q48 0 76 34t28 88q0 57 -38 95.5t-96 38.5q-51 0 -85 -32.5t-34 -83.5q0 -62 50 -103q45 -37 99 -37zM174 380
q-44 20 -71.5 60.5t-27.5 87.5q0 74 54 125t128 51q79 0 126 -42t47 -120q0 -48 -34 -90q-31 -37 -79 -58q138 -62 138 -194q0 -93 -60.5 -152t-153.5 -59q-82 0 -137 54q-59 56 -59 146q0 126 129 191z" />
    <glyph glyph-name="nine" unicode="9" 
d="M237 704q80 0 141 -59q78 -75 78 -214q0 -152 -120 -295q-123 -147 -264 -147q-14 0 -14 9q0 7 7 9l44 12q87 25 159 114q68 82 91 176q-79 -58 -143 -58q-81 0 -133 67q-48 61 -48 144q0 123 79 191q59 51 123 51zM101 515q0 -87 35 -148q42 -73 123 -73q116 0 116 156
q0 78 -35 144q-43 79 -116 79q-60 0 -94 -51q-29 -44 -29 -107z" />
    <glyph glyph-name="colon" unicode=":" horiz-adv-x="250" 
d="M61 349q0 7 9 12q15 9 23.5 18.5t19.5 25.5q5 8 12 8q8 0 13 -7q12 -18 19.5 -26.5t22.5 -17.5q9 -6 9 -13t-9 -14q-15 -11 -23.5 -19.5t-18.5 -22.5q-5 -8 -13 -8q-7 0 -13 7q-12 17 -18.5 23.5t-23.5 19.5q-9 7 -9 14zM61 64q0 7 9 12q15 9 23.5 18.5t19.5 25.5
q5 8 12 8q8 0 13 -7q12 -18 19.5 -26.5t22.5 -17.5q9 -6 9 -13t-9 -14q-15 -11 -23.5 -19.5t-18.5 -22.5q-5 -8 -13 -8q-7 0 -13 7q-12 17 -18.5 23.5t-23.5 19.5q-9 7 -9 14z" />
    <glyph glyph-name="semicolon" unicode=";" horiz-adv-x="250" 
d="M123 125q19 0 40 -28q25 -33 25 -78q0 -66 -41 -119q-35 -46 -63 -46q-9 0 -9 10q0 1 27 30.5t27 70.5q0 29 -17 52q-10 13 -33 30q-17 14 -17 19q0 12 24 35.5t37 23.5zM61 349q0 7 9 12q15 9 23.5 18.5t19.5 25.5q5 8 12 8q8 0 13 -7q12 -18 19.5 -26.5t22.5 -17.5
q9 -6 9 -13t-9 -14q-15 -11 -23.5 -19.5t-18.5 -22.5q-5 -8 -13 -8q-7 0 -13 7q-12 17 -18.5 23.5t-23.5 19.5q-9 7 -9 14z" />
    <glyph glyph-name="less" unicode="&#x3c;" horiz-adv-x="606" 
d="M520 125v-55l-472 215v50l472 217v-55l-411 -188z" />
    <glyph glyph-name="equal" unicode="=" horiz-adv-x="606" 
d="M81 402h443v-54h-443v54zM81 254h443v-54h-443v54z" />
    <glyph glyph-name="greater" unicode="&#x3e;" horiz-adv-x="606" 
d="M86 125l410 184l-410 188v55l472 -217v-50l-472 -215v55z" />
    <glyph glyph-name="question" unicode="?" horiz-adv-x="333" 
d="M324 567q0 -43 -34 -95q-32 -47 -64 -93q-34 -59 -34 -117q0 -6 1.5 -19t1.5 -20q0 -16 -13 -16q-19 0 -19 78q0 45 43.5 142t43.5 134q0 33 -22.5 56.5t-55.5 23.5q-23 0 -40 -13t-21 -13q-7 0 -7 8q0 18 25 35q30 21 81 21q47 0 80.5 -33t33.5 -79zM122 64q0 7 9 12
q15 9 23.5 18.5t19.5 25.5q5 8 12 8q8 0 13 -7q12 -18 19.5 -26.5t22.5 -17.5q9 -6 9 -13t-9 -14q-15 -11 -23.5 -19.5t-18.5 -22.5q-5 -8 -13 -8q-7 0 -13 7q-12 17 -18.5 23.5t-23.5 19.5q-9 7 -9 14z" />
    <glyph glyph-name="at" unicode="@" horiz-adv-x="747" 
d="M412 294l47 140q8 18 8 32q0 27 -17 48.5t-40 21.5q-68 0 -122 -125q-47 -107 -47 -186q0 -26 15.5 -42.5t40.5 -16.5q38 0 72 44q27 35 43 84zM487 506l13 45h80l-90 -267q-24 -71 -24 -86q0 -20 24 -20q70 0 125 75q53 72 53 161q0 109 -85 185q-82 73 -192 73
q-130 0 -221.5 -92t-91.5 -224q0 -136 89 -231t222 -95q83 0 157 45t113 118h42q-35 -92 -126 -149q-87 -55 -187 -55q-148 0 -249.5 106t-101.5 258q0 147 102 253.5t247 106.5q133 0 226 -82q97 -87 97 -220q0 -131 -85 -210q-69 -64 -146 -64q-70 0 -79 56
q-31 -32 -43 -39q-27 -16 -74 -16q-53 0 -85 42q-29 38 -29 93q0 103 59 192q66 99 162 99q82 0 96 -58h2z" />
    <glyph glyph-name="A" unicode="A" horiz-adv-x="778" 
d="M364 578l-113 -243q-3 -6 -3 -9q0 -9 16 -9h198q19 0 19 9q0 3 -3 11l-98 241q-4 9 -8 9t-8 -9zM553 153l-32 82q-15 38 -44 38h-220q-37 0 -47 -21l-64 -140q-7 -15 -7 -35q0 -30 18 -42q9 -6 35 -11q18 -3 18 -13q0 -12 -9 -14q-2 -1 -18 -1q-14 0 -42 2t-42 2
t-40.5 -2t-39.5 -2q-9 0 -9 11q0 7 27 17q31 12 46 44l239 510q27 59 55 118q11 24 20 24q6 0 21 -37l208 -515l22 -58q14 -34 28 -56q16 -25 55 -32q33 -6 33 -17q0 -9 -14 -9q-20 0 -61 2t-62 2q-13 0 -40 -2t-41 -2q-22 0 -22 10t30 20.5t30 31.5q0 16 -31 95z" />
    <glyph glyph-name="B" unicode="B" horiz-adv-x="611" 
d="M206 340v-224q0 -60 15 -73q23 -20 122 -20q90 0 134 52q35 39 35 96q0 79 -31 120q-53 72 -203 72q-50 0 -65 -8q-7 -4 -7 -15zM206 596v-165q0 -32 24 -37q-1 0 54 0q109 0 148 36q24 23 24 72q0 78 -58 125q-54 44 -134 44q-44 0 -53 -16q-5 -9 -5 -59zM127 112v492
q0 33 -23 52q-13 10 -43 20q-23 7 -23 14q0 14 27 14q8 0 33 -2t47 -2q15 0 65 2t95 2q119 0 176 -57q44 -45 44 -113q0 -45 -24 -81q-17 -24 -46 -44l-24 -17q0 -2 41 -17q48 -19 75 -49q41 -45 41 -118q0 -71 -48 -131q-66 -81 -195 -81q-18 0 -65.5 2t-64.5 2
q-23 0 -69.5 -2t-69.5 -2q-25 0 -25 11q0 10 30 19q46 14 46 86z" />
    <glyph glyph-name="C" unicode="C" horiz-adv-x="722" 
d="M25 337q0 158 102 267t258 109q83 0 147 -20q41 -13 81 -37q33 -20 41 -20q4 0 11.5 5t12.5 5q8 0 10 -16q2 -11 4 -65q1 -14 3 -38q1 -20 1 -28q0 -20 -10 -20q-7 0 -14 14q-5 9 -9 19q-50 86 -106 126q-64 46 -156 46q-142 0 -218 -88q-71 -83 -71 -228q0 -141 74 -239
q82 -109 218 -109q105 0 188 56q67 45 82 90q4 13 14 13q12 0 9 -11l-23 -100q-4 -16 -64 -41q-91 -38 -233 -38q-155 0 -253.5 97t-98.5 251z" />
    <glyph glyph-name="D" unicode="D" horiz-adv-x="722" 
d="M194 616v-475q0 -67 6 -73q45 -45 154 -45q120 0 192 67q85 79 85 240q0 162 -98 257q-93 92 -240 92q-67 0 -85 -14q-14 -10 -14 -49zM115 99v498q0 45 -21 64q-12 12 -40 19q-21 5 -21 14q0 10 14 10q16 0 45.5 -2t44.5 -2q31 0 101.5 2t115.5 2q137 0 242 -90
q109 -94 109 -229q0 -182 -89 -281q-98 -108 -297 -108q-25 0 -76 2t-77 2q-5 0 -57 -2t-55 -2q-10 0 -10 10q0 8 18 13q24 7 35 19q18 19 18 61z" />
    <glyph glyph-name="E" unicode="E" horiz-adv-x="556" 
d="M183 599v-186q0 -26 4.5 -30t33.5 -4h108q46 0 67 21q13 12 20 38q6 21 14 21q11 0 11 -19q0 -18 -1 -51.5t-1 -49.5q0 -13 1 -39t1 -40q0 -13 -11 -13t-16 23q-7 32 -14 42q-15 23 -51 23h-148q-14 0 -17 -10q-1 -4 -1 -22v-184q0 -53 7 -64q12 -19 69 -19q102 0 172 27
q48 18 79 49q28 27 27 27q8 0 8 -12q0 -42 -50 -97q-22 -24 -45 -30q-13 -4 -53 -4q-31 0 -114 3q-72 2 -114 1q-12 0 -61 -2q-38 -2 -61 -2q-15 0 -15 10q1 8 18 16l26 10q18 9 24 31q4 16 4 56v456q0 46 -7 64q-11 32 -47 37q-30 8 -30 16q0 12 35 12q113 0 196.5 -2
t86.5 -2q9 0 67.5 2t75.5 2q10 0 10 -22q0 -119 -20 -119q-13 0 -15 27q-2 34 -9 44q-16 22 -80 27q-13 1 -90 1q-73 0 -83.5 -6.5t-10.5 -56.5z" />
    <glyph glyph-name="F" unicode="F" 
d="M183 599v-186q0 -26 4.5 -30t33.5 -4h108q46 0 67 21q13 12 20 38q6 21 14 21q11 0 11 -19q0 -18 -1 -51.5t-1 -49.5q0 -13 1 -39t1 -40q0 -13 -11 -13t-16 23q-7 32 -14 42q-15 23 -51 23h-148q-15 0 -18 -10v-22v-202q0 -42 24 -61q14 -11 46 -18q24 -5 24 -13
q0 -14 -22 -14q7 0 -23 2.5t-87 2.5q-30 0 -64.5 -2.5t-39.5 -2.5q-10 0 -10 9t19 16q24 9 35 22q19 23 19 72v461q0 46 -7 64q-11 32 -47 37q-30 8 -30 16q0 12 35 12q113 0 196.5 -2t86.5 -2q9 0 67.5 2t75.5 2q10 0 10 -22q0 -119 -20 -119q-13 0 -15 27q-2 34 -9 44
q-16 22 -80 27q-13 1 -90 1q-73 0 -83.5 -6.5t-10.5 -56.5z" />
    <glyph glyph-name="G" unicode="G" horiz-adv-x="778" 
d="M548 368h167q27 0 27 -9q0 -7 -13 -11q-18 -5 -25 -12q-13 -13 -13 -42v-204q-35 -11 -86.5 -41t-85.5 -41q-57 -19 -136 -19q-166 0 -262 96.5t-96 262.5q0 160 108 264q105 101 266 101q76 0 136 -18q37 -11 76 -32q31 -18 39 -18q6 0 13.5 9t12.5 9q9 0 11 -8v-15
l10 -131q1 -18 -11 -18q-5 0 -39 50q-40 60 -89 93q-75 50 -179 50q-128 0 -202 -97q-68 -88 -68 -220q0 -142 75 -239q82 -107 220 -107q77 0 138 33q70 38 70 97v155q0 26 -43.5 33.5t-43.5 17.5q0 11 23 11z" />
    <glyph glyph-name="H" unicode="H" horiz-adv-x="778" 
d="M113 106v512q0 32 -23 47q-11 8 -41 15q-23 5 -23 13q0 11 16 11q19 0 55.5 -2t54.5 -2q16 0 47 2t46 2q19 0 19 -10q0 -7 -19 -12q-24 -7 -34 -15q-19 -16 -19 -49v-216q0 -18 15 -18h366q8 0 8 29v205q0 30 -19 45q-10 7 -37 16q-19 6 -19 14q0 11 17 11q18 0 57 -2
t47 -2q21 0 42.5 2t29.5 2q28 0 28 -16q0 -6 -17 -11q-23 -6 -33 -14q-17 -15 -17 -45v-530q0 -32 24 -48q11 -7 43 -16q24 -7 24 -16q0 -12 -11 -12q-12 0 -43.5 2t-50.5 2q-38 0 -72.5 -2t-38.5 -2q-24 0 -24 13q0 9 18 16q26 9 34 15q18 15 18 42v240q0 23 1 19
q-1 6 -9 6h-369q-12 0 -12 -17v-249q0 -29 25 -43q8 -5 45 -15q25 -7 25 -19q0 -8 -16 -8q-1 0 -54 2t-85 2q-44 0 -68 -2t-18 -2q-11 0 -11 15q0 10 20 16q27 7 38 17q20 19 20 62z" />
    <glyph glyph-name="I" unicode="I" horiz-adv-x="333" 
d="M123 106v512q0 32 -21 47q-11 8 -39 15q-21 5 -21 13q0 11 10 11q19 0 55.5 -2t54.5 -2q16 0 47 2t46 2q19 0 19 -10q0 -9 -19 -14q-25 -7 -34 -14q-19 -15 -19 -48v-537q0 -29 23 -43q9 -5 43 -14q23 -7 23 -18q0 -10 -20 -10q-9 0 -47 2t-62 2q-36 0 -65.5 -2t-30.5 -2
q-21 0 -21 15q0 10 20 16q27 7 38 17q20 19 20 62z" />
    <glyph glyph-name="J" unicode="J" horiz-adv-x="333" 
d="M132 6v590q0 44 -25 64q-14 11 -47 18q-25 6 -25 15q0 11 15 11q21 0 53 -2t55 -2q27 0 56 2t37 2q19 0 19 -14q0 -8 -15 -11q-20 -5 -29 -13q-15 -14 -15 -48v-531q0 -117 -56.5 -197.5t-137.5 -80.5q-24 0 -31.5 7.5t-7.5 28.5q0 14 6 33q7 23 16 23q6 0 26 -20t36 -20
q32 0 51 39.5t19 105.5z" />
    <glyph glyph-name="K" unicode="K" horiz-adv-x="667" 
d="M197 382l201 182q21 19 43 38q28 27 28 43q0 18 -28 29t-28 18q0 12 13 12q17 0 47.5 -2t58.5 -2q29 0 54 2t38 2q18 0 18 -8q0 -12 -11 -15q-29 -7 -42 -13q-37 -17 -84 -59l-234 -208q-15 -13 -15 -19q0 -7 11 -19l278 -291q28 -30 58 -41q7 -2 38 -7q14 -3 14 -15
q0 -13 -12 -13q-10 0 -30.5 2t-30.5 2t-30.5 -2t-31.5 -2q-8 0 -15.5 8.5t-14.5 16.5l-282 294q-10 10 -18 10q-9 0 -9 -10v-209q0 -48 25 -67q13 -10 48 -16q25 -4 25 -17q0 -10 -27 -10q8 0 -21 2t-77 2q-30 0 -62 -2t-36 -2q-25 0 -25 16q0 5 18 10q23 7 35 18
q18 19 18 56v512q0 36 -22 53q-11 9 -40 17q-22 6 -22 15q0 11 13 11q16 0 48 -2t49 -2q23 0 56.5 2t46.5 2q8 0 8 -9q0 -8 -15 -16q-20 -10 -28 -19q-15 -17 -15 -48v-225q0 -10 5 -10t11 5z" />
    <glyph glyph-name="L" unicode="L" horiz-adv-x="556" 
d="M181 605v-486q0 -53 7 -64q12 -19 69 -19q102 0 172 27q48 18 79 49q28 27 27 27q8 0 8 -12q0 -42 -50 -97q-22 -24 -45 -30q-13 -4 -53 -4q-31 0 -114 3q-72 2 -114 1q-12 0 -61 -2q-38 -2 -61 -2q-15 0 -15 10q1 8 18 16l26 10q18 9 24 31q4 16 4 56v507q0 30 -42 44.5
t-42 20.5q0 13 20 13q7 0 40 -2t61 -2q34 0 64 2t32 2q19 0 19 -14q0 -8 -19 -13q-24 -7 -35 -16q-19 -18 -19 -56z" />
    <glyph glyph-name="M" unicode="M" horiz-adv-x="889" 
d="M760 584l14 -496q1 -36 22 -51q8 -6 37 -13q20 -5 20 -18q0 -10 -24 -10q-7 0 -39 2t-55 2q-16 0 -46 -2t-42 -2q-11 0 -11 9q0 11 16 18q24 10 31 17q16 15 15 47l-10 388q-1 39 -11 39q-11 0 -26 -30l-207 -422q-25 -50 -31 -50t-20 29l-213 446q-5 11 -12 11
q-6 0 -7 -15l-12 -351q-2 -58 21 -84q13 -14 45 -22q24 -7 24 -19q0 -11 -25 -11q-4 0 -37.5 2t-50.5 2q-30 0 -56 -2t-31 -2q-10 0 -10 12t17 17q23 7 32 16q19 19 22 64q8 104 16 209q8 101 8 166q0 103 -25 152q-15 31 -45 43q-25 9 -25 18q0 11 17 11q9 0 27 -2t28 -2
q9 0 27 2t27 2t13 -9.5t8 -18.5l238 -508q14 -30 22 -30q4 0 31 54l238 478q17 34 26 34q5 0 25 -2t22 -2q12 0 26.5 2t21.5 2q10 0 10 -12q0 -11 -20 -16q-27 -6 -38 -18q-19 -22 -18 -74z" />
    <glyph glyph-name="N" unicode="N" horiz-adv-x="778" 
d="M115 138v369q0 91 -31 133q-20 25 -59 35q-31 8 -31 19q0 10 15 10q8 0 23.5 -2t23.5 -2t23.5 2t22.5 2q5 0 26 -23l477 -531q10 -11 12 -11q3 0 3 11v418q0 57 -29 84q-16 15 -53 24q-29 7 -29 18q0 10 11 10q15 0 45 -2t46 -2q18 0 54 2t47 2q10 0 10 -9q0 -10 -15 -16
q-21 -10 -29 -17q-15 -16 -15 -48v-579q0 -43 -9 -43q-13 0 -38 28l-430 484q-17 19 -21 19q-7 0 -7 -23v-409q0 -39 23 -55q12 -9 42 -14q23 -3 23 -13q0 -13 -11 -13q-9 0 -41 2t-60 2q-21 0 -57.5 -2l-36.5 -2q-13 0 -13 11q0 12 23 18q29 9 42 25q23 27 23 88z" />
    <glyph glyph-name="O" unicode="O" horiz-adv-x="778" 
d="M362 680q-121 0 -195 -89q-69 -84 -69 -208q0 -146 85 -251q92 -113 234 -113q112 0 187.5 83t75.5 219q0 143 -86 248q-91 111 -232 111zM375 -11q-160 0 -255 102t-95 263q0 155 106 257t261 102q154 0 257.5 -100t103.5 -254q0 -168 -105 -269t-273 -101z" />
    <glyph glyph-name="P" unicode="P" horiz-adv-x="556" 
d="M199 639v-505q0 -63 27 -89q16 -15 51 -21q27 -5 27 -16q0 -12 -29 -12q-14 0 -44.5 2t-63.5 2q-26 0 -61.5 -2t-47.5 -2q-16 0 -16 12q0 9 20 15q26 8 38 21q20 22 20 71v479q0 52 -21 70q-12 9 -40 11q-21 1 -21 14q0 15 13 15q-2 0 32.5 -2t69.5 -2q25 0 57.5 2
t56.5 2q112 0 182 -41q86 -50 86 -152q0 -59 -42 -111q-64 -81 -201 -81q-17 0 -38 5q-30 7 -30 18q0 9 10 9q1 0 22.5 -3t42.5 -3q77 0 119.5 36t42.5 103q0 88 -61 138q-57 47 -147 47q-29 0 -39 -4q-15 -6 -15 -26z" />
    <glyph glyph-name="Q" unicode="Q" horiz-adv-x="778" 
d="M362 680q-121 0 -195 -89q-69 -84 -69 -208q0 -146 85 -251q92 -113 234 -113q112 0 187.5 83t75.5 219q0 143 -86 248q-91 111 -232 111zM392 713q154 0 257.5 -100t103.5 -254q0 -153 -87.5 -251t-232.5 -116v-2q16 -1 35 -11q37 -19 134 -83q45 -30 89 -30
q16 0 39.5 11t25.5 11q10 0 10 -12q1 -17 -37 -35q-46 -21 -111 -21q-53 0 -200.5 93t-202.5 93q-40 0 -61 -26q-11 -15 -21 -50q-8 -26 -16 -26q-18 0 -18 21q0 37 25 73q24 33 55 47q-73 44 -113.5 125t-40.5 184q0 155 106 257t261 102z" />
    <glyph glyph-name="R" unicode="R" horiz-adv-x="667" 
d="M375 358l167 -253q31 -48 64 -69q17 -11 42 -17q15 -3 15 -11q0 -12 -65 -12q-50 0 -89 32q-28 24 -61 76l-111 175q-27 43 -39 48t-94 5q-21 0 -25 -10q-1 -3 -1 -18v-211q0 -37 27 -54q12 -7 50 -16q27 -6 27 -19q0 -8 -17 -8q5 0 -29.5 2t-85.5 2q-19 0 -57 -2t-57 -2
q-10 0 -10 11q0 9 19 17q26 10 35 19q19 18 19 51v509q0 42 -22 58q-11 8 -42 14q-22 5 -22 17t20 12q5 0 19.5 -2t44.5 -2t86 2t81 2q82 0 125 -14q112 -38 112 -159q0 -57 -36 -104t-90 -69zM178 634v-254q0 -12 37 -14q-2 0 72 0q50 0 86 25q53 36 53 117q0 85 -59 127
q-50 36 -132 36q-33 0 -42 -4q-15 -7 -15 -33z" />
    <glyph glyph-name="S" unicode="S" horiz-adv-x="556" 
d="M60 44l-25 129q-6 31 11 31q9 0 13 -9l6 -24q13 -50 58 -92q61 -58 152 -58q77 0 130 40q58 43 58 118q0 79 -105 117l-196 66q-105 52 -105 163q0 90 68 142q61 46 154 46q53 0 94 -9q27 -6 51 -18q20 -9 23 -9q4 0 10 5.5t11 5.5q10 0 12 -14l15 -136q2 -15 -11 -15
q-11 0 -21 30q-22 63 -72.5 96.5t-118.5 33.5q-66 0 -111 -30q-52 -36 -52 -100q0 -76 105 -114q98 -34 196 -67q105 -56 105 -173q0 -80 -58 -136q-75 -74 -228 -74q-52 0 -111 21q-55 19 -58 34z" />
    <glyph glyph-name="T" unicode="T" horiz-adv-x="667" 
d="M292 83v520q0 46 -10 46h-163q-43 0 -58 -14q-9 -10 -24 -56q-7 -23 -17 -23t-10 12l11 97l3 24q4 15 15 15q33 0 123 -2t161 -2q111 0 207 2t86 2q17 0 22.5 -6t6.5 -23l5 -80q1 -22 -11 -22q-14 0 -16 20q-3 27 -10 36q-15 20 -59 20h-143q-33 0 -36.5 -4.5t-3.5 -44.5
v-510q0 -36 21 -52q10 -7 39 -14q21 -5 21 -16q0 -12 -9 -12q-11 0 -38.5 2t-42.5 2q-50 0 -84 -1q-24 -1 -38.5 -2l-14.5 -1q-12 0 -12 13q0 9 20 17q30 10 39 16q20 15 20 41z" />
    <glyph glyph-name="U" unicode="U" horiz-adv-x="778" 
d="M169 622v-359q0 -115 69 -176q63 -57 170 -57q231 0 231 242v324q0 44 -24 62q-11 9 -45 16q-24 6 -24 20q0 10 10 10q20 0 59 -2t58 -2q10 0 28 2t27 2q13 0 13 -11q0 -10 -15 -17q-21 -10 -29 -21q-15 -20 -15 -60v-310q0 -296 -279 -296q-180 0 -255 93
q-58 71 -58 208v337q0 25 -21 36q-4 3 -39 13q-21 5 -21 18q0 10 22 10q13 0 38.5 -2t39.5 -2q16 0 48 2t47 2q32 0 32 -10t-17 -15q-25 -7 -33 -13q-17 -13 -17 -44z" />
    <glyph glyph-name="V" unicode="V" horiz-adv-x="722" 
d="M332 43l-247 584q-14 34 -48 46q-29 10 -29 17q0 14 14 14q16 0 46.5 -2t45.5 -2t44.5 2t34.5 2q14 0 14 -10q0 -4 -20.5 -17t-20.5 -34q0 -18 9 -39l175 -412l24 -58q9 -18 16 -18t18 28l174 429q18 45 14 68q0 26 -32 33.5t-32 16.5q0 13 15 13q11 0 33 -2t33 -2
q28 0 51 2t26 2q17 0 17 -13q0 -7 -17 -15q-23 -11 -39 -49l-249 -589q-7 -19 -15.5 -38.5t-17.5 -19.5q-10 0 -21 24q-8 19 -16 39z" />
    <glyph glyph-name="W" unicode="W" horiz-adv-x="1000" 
d="M300 78l-219 544q-14 34 -45 48q-27 12 -27 18q0 16 23 16q15 0 44.5 -2t43.5 -2q12 0 36 2t36 2q8 0 8 -12q0 -5 -21.5 -17.5t-21.5 -31.5q0 -10 6 -25l190 -470q11 -26 17 -26t14 18l74 176q12 29 12 41q0 7 -10 31l-100 241q-12 28 -37 38q-5 2 -41 9q-19 4 -19 17
q0 11 15 11q20 0 58.5 -2t42.5 -2q27 0 58 2t39 2q6 0 6 -12q0 -6 -20.5 -16.5t-20.5 -29.5q0 -12 7 -30l52 -132q10 -26 13 -26q4 0 14 25l49 117q9 21 9 36q0 24 -29 37.5t-29 21.5q0 9 20 9q11 0 32.5 -2t32.5 -2q25 0 46.5 2t26.5 2q7 0 7 -6q0 -10 -8 -14
q-14 -6 -23 -16q-18 -20 -38 -65l-71 -164q-9 -21 -9 -38q0 -16 13 -48l84 -207q13 -31 22 -31q7 0 22 37l182 448q7 17 7 33q0 24 -32.5 36.5t-32.5 19.5q0 15 11 15t34.5 -2t35.5 -2q16 0 44 2t39 2q12 0 12 -11q0 -6 -16 -16q-23 -12 -42 -58l-257 -606q-14 -33 -29 -33
q-11 0 -27 38l-110 263q-4 9 -7 9q-6 0 -9 -7l-112 -278q-10 -25 -25 -25q-10 0 -20 23q-15 38 -30 75z" />
    <glyph glyph-name="X" unicode="X" horiz-adv-x="667" 
d="M248 565l71 -111q22 -34 26 -34t30 37l90 129q33 47 33 65q0 15 -27.5 24t-27.5 20q0 9 13 9q9 0 31.5 -2t60.5 -2q41 0 60.5 2t15.5 2q8 0 8 -10q0 -8 -13 -12q-22 -8 -34 -16q-26 -17 -51 -52l-152 -215q-8 -11 -8 -19q0 -7 12 -26l174 -274q22 -35 46 -49q9 -4 32 -9
q11 -3 11 -15q0 -11 -18 -11q-4 0 -36 2t-55 2q-22 0 -53.5 -2t-35.5 -2q-13 0 -13 10t21 19.5t21 23.5q0 16 -22 51l-125 197q-6 9 -10 9q-7 0 -14 -11l-109 -162q-43 -64 -43 -81q0 -19 31.5 -27t31.5 -19q0 -10 -15 -10q-11 0 -42 2t-55 2q-14 0 -42.5 -2t-42.5 -2
q-12 0 -12 9q0 10 34 21q40 14 58 40l184 264q10 14 10 17q0 4 -10 19l-155 232q-32 48 -64 67q-18 11 -43 15q-15 3 -15 12q0 12 12 12q4 0 31.5 -2t78.5 -2q16 0 47.5 2t46.5 2q17 0 17 -13q0 -5 -22 -13.5t-22 -24.5q0 -11 49 -88z" />
    <glyph glyph-name="Y" unicode="Y" horiz-adv-x="611" 
d="M250 374l-167 267q-15 24 -47 34q-28 8 -28 14q0 15 13 15q8 0 41.5 -2t72.5 -2q19 0 43.5 2t26.5 2q19 0 19 -10q0 -7 -23.5 -19t-23.5 -28q0 -12 18 -41l121 -193q11 -18 20 -18q7 0 19 20l103 167q21 34 21 55q0 28 -37.5 35.5t-37.5 16.5q0 15 21 15q12 0 36.5 -2
t36.5 -2q15 0 44 2t43 2q11 0 11 -12q0 -7 -8.5 -11.5t-15.5 -7.5q-19 -11 -56 -69l-140 -218q-24 -37 -24 -45v-245q0 -38 21 -55q10 -8 40 -17q21 -7 21 -18q0 -10 -23 -10q-5 0 -47 2t-63 2q-27 0 -58.5 -2l-31.5 -2q-15 0 -15 12q0 10 20 16q28 7 37 13q20 13 20 44v242
q0 14 -23 51z" />
    <glyph glyph-name="Z" unicode="Z" horiz-adv-x="556" 
d="M498 654l-338 -566q-15 -25 -15 -33q0 -14 39 -14h186q57 0 92 17q19 10 41 33q17 17 30 17q4 0 6 -6q3 -5 0 -11l-35 -66q-13 -25 -50 -25h-408q-17 0 -17 15q0 7 7 19l353 589q17 28 17 30q0 6 -8 6h-210q-61 0 -90 -27q-17 -16 -27 -51q-9 -27 -19 -27q-14 0 -14 12
l14 103q3 22 8.5 26.5t29.5 4.5h389q29 0 29 -16q0 -13 -10 -30z" />
    <glyph glyph-name="bracketleft" unicode="[" horiz-adv-x="278" 
d="M263 -148h-182v893h182v-31h-55q-39 0 -43.5 -5t-4.5 -39v-743q0 -34 4.5 -39t43.5 -5h55v-31z" />
    <glyph glyph-name="backslash" unicode="\" horiz-adv-x="606" 
d="M405 0l-262 745h60l260 -745h-58z" />
    <glyph glyph-name="bracketright" unicode="]" horiz-adv-x="278" 
d="M15 -148h182v893h-182v-31h55q39 0 43.5 -5t4.5 -39v-743q0 -34 -4.5 -39t-43.5 -5h-55v-31z" />
    <glyph glyph-name="asciicircum" unicode="^" horiz-adv-x="606" 
d="M97 232h-54l215 472h49l217 -472h-54l-188 408z" />
    <glyph glyph-name="underscore" unicode="_" 
d="M0 -87h500v-51h-500v51z" />
    <glyph glyph-name="grave" unicode="`" horiz-adv-x="333" 
d="M206 477l-130 81q-17 10 -34 21q-21 15 -21 30q0 14 9 25.5t23 11.5q18 0 41 -23l147 -146h-35z" />
    <glyph glyph-name="a" unicode="a" horiz-adv-x="444" 
d="M292 99v116q-91 -20 -117 -31q-69 -30 -69 -87q0 -79 82 -79q33 0 66 21q38 24 38 60zM292 239v77q0 39 -28.5 63t-74.5 24q-43 0 -61 -9q-26 -14 -26 -51q0 -8 3 -22t3 -19q0 -19 -22 -19q-14 0 -30.5 10t-16.5 23q1 40 43 74q49 40 125 39q158 -3 158 -103v-207
q0 -50 2 -59q8 -34 41 -34q2 0 8.5 1t8.5 1q13 0 13 -7q0 -25 -58 -25t-78 51q-68 -58 -153 -58q-108 0 -108 95q0 52 38 83q57 46 213 72z" />
    <glyph glyph-name="b" unicode="b" 
d="M153 293v-187q0 -40 46 -69q39 -26 76 -26q67 0 106 49q36 46 36 114q0 79 -43 140q-48 69 -123 69q-28 0 -63 -22q-30 -20 -32.5 -28.5t-2.5 -39.5zM153 729v-366q70 66 144 66q63 0 111 -44q59 -55 59 -157q0 -101 -50 -166q-56 -73 -158 -73q-44 0 -91 27.5t-45 27.5
q-3 0 -16 -27.5t-21 -27.5q-9 0 -9 12q0 3 1.5 21.5t1.5 32.5v574q0 26 -18 36q-8 5 -32 9q-18 2 -18 10q0 9 9 11q43 10 80 32q31 18 40 18q12 0 12 -16z" />
    <glyph glyph-name="c" unicode="c" horiz-adv-x="444" 
d="M227 -11q-84 0 -141 63.5t-57 148.5q0 94 65.5 161t159.5 67q42 0 78 -10q41 -11 43 -27q1 -9 1 -59q0 -21 -8 -21q-7 0 -24 23q-45 61 -124 61q-59 0 -91 -53q-27 -45 -27 -107q0 -84 46 -139q49 -58 131 -58q47 0 92 29l45 29q8 0 8 -6q0 -23 -47 -57q-62 -45 -150 -45
z" />
    <glyph glyph-name="d" unicode="d" 
d="M350 119v171q0 54 -38 85t-94 31q-66 0 -103 -54q-33 -48 -33 -117q0 -70 42 -133q47 -70 113 -70q57 0 88 30q25 24 25 57zM350 394v235q0 26 -20 36q-10 5 -39 9q-20 2 -20 10q0 9 9 11q43 10 86 32q36 18 45 18q12 0 12 -16v-684q0 -17 53 -25q11 -2 11 -9
q0 -14 -63 -14q-15 0 -38 -4t-25 -4q-11 0 -11 15v55h-2q-55 -70 -147 -70q-79 0 -130 63q-47 59 -47 141q0 93 57 162q61 74 152 74q65 0 117 -35z" />
    <glyph glyph-name="e" unicode="e" horiz-adv-x="444" 
d="M372 253h-266q0 -111 58 -169q44 -45 103 -45q51 0 94.5 26t46.5 26q4 0 4 -7q0 -21 -55 -56q-61 -39 -122 -39q-100 0 -157 78q-45 60 -45 127q0 100 52.5 167.5t143.5 67.5q81 0 135 -64q42 -51 42 -95q0 -12 -6.5 -14.5t-27.5 -2.5zM106 280h197q20 0 20 20
q0 41 -34.5 73.5t-76.5 32.5q-44 0 -75 -40.5t-31 -85.5z" />
    <glyph glyph-name="f" unicode="f" horiz-adv-x="278" 
d="M19 416h62q0 117 59 211q23 36 63 67q52 40 99 40q41 0 41 -21q0 -71 -15 -71q-4 0 -10.5 12.5t-14.5 18.5q-15 11 -43 11q-37 0 -66 -34q-25 -30 -32 -69q-8 -42 -8 -165h77q15 0 27.5 8.5t11.5 8.5q7 0 7 -8q0 -3 -6 -14l-20 -36h-97v-304q0 -28 18 -40q9 -5 35 -10
q18 -4 18 -12q0 -9 -21 -9h-155q-16 0 -16 6q0 7 24 18.5t24 38.5v312h-68z" />
    <glyph glyph-name="g" unicode="g" horiz-adv-x="444" 
d="M316 268q0 55 -23 93q-27 46 -79 46q-98 0 -98 -123q0 -54 23 -91q28 -44 79 -44q50 0 75 36q23 31 23 83zM208 429q48 0 92 -20t51 -20q28 0 46 32t21 32q8 0 8 -16q0 -53 -12 -72q-7 -12 -40 -32q7 -30 7 -53q0 -69 -48 -111t-118 -42q-30 0 -48.5 4t-20.5 4
q-17 0 -32.5 -18.5t-15.5 -36.5q0 -48 118 -48q101 0 130 -7q67 -17 67 -82q0 -57 -47 -97q-59 -49 -173 -49q-62 0 -108 22q-61 29 -61 84q0 57 73 84q-38 15 -38 79q0 40 52 81v2q-64 39 -64 123q0 68 46.5 112.5t114.5 44.5zM73 -96q0 -84 126 -84q91 0 134 36
q32 26 32 63q0 29 -30 38q-23 6 -108 9q-51 2 -79.5 6t-25.5 4q-21 0 -35 -24.5t-14 -47.5z" />
    <glyph glyph-name="h" unicode="h" horiz-adv-x="556" 
d="M156 729v-371q75 71 144 71q87 0 132 -66q35 -53 35 -131v-167q0 -29 40 -38t40 -18q0 -13 -20 -13q-6 0 -34 2t-50 2q-23 0 -51.5 -2t-30.5 -2q-16 0 -16 11q0 5 24.5 17.5t24.5 33.5v183q0 81 -47 120q-33 27 -74 27q-37 0 -75 -26q-42 -28 -42 -64v-211q0 -38 23 -54
q13 -10 42 -14q23 -3 23 -9q0 -14 -17 -14q-9 0 -47 2t-55 2t-51 -2t-40 -2q-10 0 -10 10q0 6 29.5 18t29.5 40v565q0 26 -20 36q-10 5 -37 9q-20 2 -20 10q0 9 8 11q41 8 84 30q37 20 46 20q12 0 12 -16z" />
    <glyph glyph-name="i" unicode="i" horiz-adv-x="278" 
d="M106 85v236q0 26 -14 36q-7 5 -27 9q-14 2 -14 10q0 9 9 11q35 10 69 32q28 18 38 18q12 0 12 -16v-359q0 -29 39.5 -37t39.5 -18q0 -11 -19 -11q-8 0 -39 2t-54 2q-19 0 -42.5 -2t-26.5 -2q-14 0 -15 11q0 9 11 11q15 3 22 12q11 15 11 55zM142 635q9 0 25.5 -21.5
t16.5 -31.5t-16.5 -31t-25.5 -21t-25.5 21.5t-16.5 30.5t16.5 31t25.5 22z" />
    <glyph glyph-name="j" unicode="j" horiz-adv-x="278" 
d="M179 421v-415q0 -73 -29 -132q-37 -73 -102 -73q-40 0 -40 41q0 40 20 40q11 0 28 -20.5t30 -20.5q6 0 13 13t7 38v429q0 26 -19 36q-10 5 -37 9q-19 2 -19 10q0 7 16 11q43 10 80 32q31 18 40 18q12 0 12 -16zM142 635q9 0 25.5 -21.5t16.5 -31.5t-16.5 -31t-25.5 -21
t-25.5 21.5t-16.5 30.5t16.5 31t25.5 22z" />
    <glyph glyph-name="k" unicode="k" 
d="M186 201l-30 -27v-97q0 -30 22 -42q9 -5 39 -11q22 -4 22 -14q0 -14 -23 -14q-1 0 -29 2t-63 2q-27 0 -51.5 -2t-26.5 -2q-12 0 -12 13q0 4 24.5 17t24.5 38v565q0 26 -19 36q-10 5 -37 9q-19 2 -19 10q0 9 9 11q48 10 86 32q33 18 41 18q12 0 12 -16v-516l127 115
q40 36 40 46q0 11 -23 17t-23 14q0 11 9 11q4 0 26.5 -2t41.5 -2q13 0 36.5 2t36.5 2h24q11 -2 11 -11q0 -8 -24 -13q-33 -6 -57 -22q-30 -20 -73 -60q-54 -49 -71 -63q44 -64 159 -193q22 -25 66 -32q36 -6 36 -14q0 -12 -10 -12q-2 0 -24.5 2t-47.5 2q-15 0 -36 -2t-25 -2
q-17 21 -86 99q-45 51 -83 106z" />
    <glyph glyph-name="l" unicode="l" horiz-adv-x="278" 
d="M177 729v-652q0 -30 22 -42q9 -5 39 -11q22 -4 22 -14q0 -14 -23 -14q-3 0 -33.5 2t-58.5 2q-29 0 -53.5 -2l-24.5 -2q-12 0 -12 13q0 4 24.5 17t24.5 38v565q0 26 -18 36q-8 5 -32 9q-18 2 -18 10q0 9 9 11q43 10 80 32q31 18 40 18q12 0 12 -16z" />
    <glyph glyph-name="m" unicode="m" horiz-adv-x="778" 
d="M161 304v-227q0 -30 20 -42q9 -5 37 -11q20 -4 20 -14q0 -14 -17 -14q-3 0 -33 2t-55 2q-24 0 -48 -2t-26 -2q-12 0 -12 13q0 4 20.5 17t20.5 38v257q0 26 -16 36q-8 5 -31 9q-16 2 -16 10q0 9 9 11q40 10 76 32q30 18 39 18q12 0 12 -16v-58q58 66 119 66q86 0 129 -73
q49 73 139 73q143 0 143 -183v-169q0 -30 20 -42q9 -5 37 -11q20 -4 20 -14q0 -14 -17 -14q-3 0 -33 2t-55 2q-24 0 -48 -2t-26 -2q-12 0 -12 13q0 4 20.5 17t20.5 38v194q0 55 -22 90q-27 44 -82 44q-32 0 -62 -22q-26 -20 -26 -34v-259q0 -30 20 -42q9 -5 37 -11
q20 -4 20 -14q0 -14 -17 -14q-3 0 -33 2t-55 2q-24 0 -48 -2t-26 -2q-12 0 -12 13q0 4 20.5 17t20.5 38v211q0 56 -30 88q-27 29 -67 29q-31 0 -58 -18q-37 -24 -37 -70z" />
    <glyph glyph-name="n" unicode="n" horiz-adv-x="556" 
d="M161 307v-230q0 -30 23 -42q10 -5 42 -11q23 -4 23 -14q0 -14 -22 -14q-3 0 -32 2t-63 2q-32 0 -58 -2t-27 -2q-18 0 -18 12q0 7 15 11q21 6 29 13q15 13 15 41v248q0 26 -19 36q-9 5 -36 9q-19 2 -19 10q0 9 9 11q47 10 86 32q32 18 40 18q12 0 12 -16v-66q8 7 15 14
q24 24 49 38q38 22 81 22q90 0 132 -65q31 -49 31 -122v-165q0 -30 20 -42q9 -5 38 -11q20 -4 20 -14q0 -14 -17 -14q-2 0 -30 2t-57 2q-22 0 -45.5 -2t-26.5 -2q-18 0 -18 12q0 7 11 11q15 6 21 13q11 13 11 41v187q0 44 -28 81q-34 44 -89 44t-90 -33q-28 -25 -28 -45z
" />
    <glyph glyph-name="o" unicode="o" 
d="M254 -11q-100 0 -162 56.5t-62 155.5q0 93 64.5 160.5t158.5 67.5q80 0 137 -42q80 -58 80 -181q0 -92 -62 -154.5t-154 -62.5zM263 10q137 0 137 181q0 88 -36 147q-44 69 -126 69q-69 0 -106 -54q-32 -46 -32 -117q0 -86 38 -150q45 -76 125 -76z" />
    <glyph glyph-name="p" unicode="p" 
d="M149 303v-199q0 -39 40 -66q37 -25 90 -25q64 0 100 54q31 46 31 113q0 78 -36 135q-43 67 -116 67q-45 0 -74 -20q-20 -15 -30 -38q-7 -17 -5 -21zM149 16v-145q0 -29 24 -41q11 -6 44 -11q24 -4 24 -13q0 -13 -19 -13l-32 2t-72 2q-23 0 -50 -2t-29 -2q-15 0 -15 11
q0 9 26 22.5t26 48.5v446q0 26 -18 36q-8 5 -32 9q-18 2 -18 10q0 9 9 11q43 10 80 32q31 18 40 18q12 0 12 -16v-58q71 66 137 66q85 0 134 -60q45 -56 45 -143q0 -85 -48 -153q-60 -84 -165 -84q-49 0 -103 27z" />
    <glyph glyph-name="q" unicode="q" 
d="M356 113v215q0 17 -33 45q-42 35 -97 35q-63 0 -104 -58q-36 -52 -36 -116q0 -74 34 -130q44 -72 129 -72q35 0 71 26.5t36 54.5zM429 425v-561q0 -27 33.5 -39t33.5 -19q0 -13 -17 -13q-2 0 -27 2t-53 2q-30 0 -56 -2t-25 -2q-15 0 -15 10q0 7 26.5 16.5t26.5 33.5v210
h-2q-56 -74 -152 -74q-78 0 -129 61q-48 58 -48 139q0 94 62 165q64 75 157 75q42 0 75 -12q22 -8 41 -23q16 -12 17 -12q3 0 19.5 27.5t23.5 27.5q9 0 9 -12z" />
    <glyph glyph-name="r" unicode="r" horiz-adv-x="333" 
d="M162 303v-219q0 -40 23 -54q11 -7 43 -9q23 -2 23 -14q0 -11 -16 -11q-2 0 -31.5 2t-62.5 2q-41 0 -68.5 -2t-23.5 -2q-11 0 -11 9q0 8 25.5 21.5t25.5 36.5v258q0 26 -19 36q-9 5 -34 9q-19 2 -19 10t13 11q43 10 80 32q31 18 40 18q12 0 12 -16v-75h2q60 83 99 83
q17 0 41.5 -15.5t24.5 -29.5q0 -11 -13.5 -28t-22.5 -17q-7 0 -26.5 11.5t-39.5 11.5q-27 0 -48 -25q-17 -20 -17 -34z" />
    <glyph glyph-name="s" unicode="s" horiz-adv-x="333" 
d="M161 185q-62 31 -81 45q-40 33 -40 79q0 57 40 90q37 30 95 30q19 0 51 -6q39 -7 47 -17q5 -6 5 -49q0 -31 0 -30q-1 -9 -11 -9q-2 0 -13 23q-13 27 -30 41q-27 23 -67 23q-30 0 -50 -17t-20 -47q0 -25 26.5 -44.5t104.5 -51.5q83 -34 83 -119q0 -56 -40 -96.5t-95 -40.5
q-41 0 -73.5 14.5t-38.5 14.5q-16 0 -19 10.5t-3 69.5q0 49 12 49q7 0 17 -34q12 -43 28 -64q27 -34 74 -34q38 0 63.5 22t25.5 60q0 34 -31 57q-7 5 -60 31z" />
    <glyph glyph-name="t" unicode="t" horiz-adv-x="333" 
d="M86 105v270q-54 0 -54 7q0 4 19 22q31 30 57 59q8 10 24 32q10 14 14 14q10 0 12 -19q1 -12 1 -74h110q15 0 27.5 8.5t11.5 8.5q7 0 7 -8q0 -3 -6 -14l-20 -36h-130v-291q0 -60 70 -60q31 0 56 11.5t29 11.5q8 0 8 -9q0 -13 -36 -30q-40 -19 -88 -19q-112 0 -112 116z
" />
    <glyph glyph-name="u" unicode="u" 
d="M351 95v261q0 21 -26.5 24.5t-26.5 13.5q0 9 17 9t46.5 5.5t44.5 5.5q18 0 18 -24v-346q0 -13 31.5 -18.5t31.5 -16.5q0 -9 -37 -9q-24 0 -54 -5q-22 -6 -34 -6q-9 0 -9 15v55h-2q-46 -70 -133 -70q-62 0 -104 36t-42 98v233q0 21 -26.5 24.5t-26.5 13.5q0 9 17 9
t46.5 5.5t44.5 5.5q18 0 18 -24v-253q0 -67 44 -96q25 -17 53 -17q41 0 75 24t34 47z" />
    <glyph glyph-name="v" unicode="v" 
d="M169 321l98 -240l67 144q15 31 29 62q15 36 15 65q0 24 -16 33q-6 3 -30 8q-16 2 -16 12q0 13 24 13q10 0 30.5 -2t31.5 -2q9 0 26.5 2t25.5 2q27 0 27 -15q0 -5 -21 -12.5t-29 -24.5l-153 -324q-9 -21 -19 -42q-5 -11 -15 -11q-9 0 -20 24l-151 345q-11 25 -35 34
q-20 7 -20 14q0 12 21 12q4 0 25 -2t60 -2q22 0 40.5 2t21.5 2q23 0 23 -11q0 -9 -28.5 -15t-28.5 -22q0 -7 17 -49z" />
    <glyph glyph-name="w" unicode="w" horiz-adv-x="667" 
d="M614 361l-132 -314q-7 -17 -13 -34q-12 -24 -23 -24q-12 0 -18.5 17t-12.5 35l-74 206l-97 -208q-7 -16 -14 -31q-10 -19 -23 -19q-10 0 -19 21q0 1 -19 55l-92 263q-15 42 -32 59q-10 10 -24 12q-9 2 -9 9q0 10 12 10t31.5 -2t31.5 -2q11 0 38 2t45 2q9 0 9 -13
q0 -5 -17 -14.5t-17 -24.5q0 -20 17 -70l72 -210l95 199l-33 82q-6 15 -29 23.5t-23 13.5q0 14 19 14q11 0 32.5 -2t31.5 -2q11 0 32.5 2t31.5 2q25 0 25 -14q0 -5 -18 -14t-18 -22q0 -15 20 -74l70 -208l88 219q8 20 8 48q0 22 -29 33.5t-29 18.5q0 13 21 13q38 -4 58 -4
q9 0 26 2t25 2q16 0 16 -12q0 -6 -16 -16t-24 -29z" />
    <glyph glyph-name="x" unicode="x" 
d="M259 251l76 96q8 10 8 25q0 12 -23.5 18t-23.5 15q0 13 17 13q-1 0 20 -2t52 -2q20 0 39.5 2t21.5 2q14 0 14 -13q0 -5 -22 -13q-30 -11 -57 -42l-106 -122l133 -174q15 -20 46 -30q24 -8 24 -16q0 -12 -15 -12q-2 0 -25.5 2t-51.5 2q-27 0 -50.5 -2t-24.5 -2
q-18 0 -18 10q0 7 16 14.5t16 19.5t-17 34l-77 101l-79 -98q-9 -11 -9 -23q0 -21 25.5 -29.5t25.5 -16.5q0 -12 -16 -12q-1 0 -25 2t-53 2q-11 0 -33 -2t-33 -2q-12 0 -12 13q0 6 24 16q34 14 64 49l105 123l-116 157q-14 19 -48 32q-29 10 -29 18q0 14 20 14q2 0 24 -2
t45 -2q26 0 52 2t29 2q12 0 12 -10q0 -8 -17 -14t-17 -14q0 -12 41 -68q24 -30 48 -61z" />
    <glyph glyph-name="y" unicode="y" horiz-adv-x="444" 
d="M378 348l-190 -548q-1 -3 -33 -3q-37 0 -37 7q0 4 45.5 66.5t45.5 108.5q0 18 -20 67l-131 323q-5 12 -26 21.5t-21 15.5q0 12 20 12q10 0 33 -2t37 -2q20 0 44 2t30 2q21 0 21 -13q0 -8 -28.5 -13.5t-28.5 -27.5q0 -11 4 -20q2 -1 3 -2l-2 -2l107 -272l77 226
q12 35 12 52q0 31 -32 42.5t-32 18.5q0 11 30 11q4 0 22 -2t34 -2q13 0 30.5 2t20.5 2q19 0 19 -12q0 -8 -19 -15q-23 -9 -35 -43z" />
    <glyph glyph-name="z" unicode="z" horiz-adv-x="333" 
d="M264 336l-177 -277h142q27 0 42 18q6 9 15 35q7 18 15 18q10 0 10 -9q0 -8 -13.5 -49t-13.5 -47q0 -25 -26 -25h-214q-15 0 -15 13q0 7 9 21l203 319h-137q-33 0 -43.5 -27.5t-21.5 -27.5q-9 0 -9 12q0 14 11 55q12 49 22 49h219q19 0 19 -16q0 -4 -37 -62z" />
    <glyph glyph-name="braceleft" unicode="{" horiz-adv-x="278" 
d="M179 166v-192q0 -52 19 -77q21 -28 75 -43v-2q-104 0 -143 36q-30 27 -30 85v220q0 93 -94 104v2q94 14 94 105v220q0 58 30 85q39 36 143 36v-2q-54 -15 -74 -41.5t-20 -78.5v-191q0 -60 -18 -87q-23 -35 -84 -46v-2q61 -11 84 -44q18 -28 18 -87z" />
    <glyph glyph-name="bar" unicode="|" horiz-adv-x="606" 
d="M276 0v745h54v-745h-54z" />
    <glyph glyph-name="braceright" unicode="}" horiz-adv-x="278" 
d="M99 -26v192q0 59 18 87q23 33 84 44v2q-61 11 -84 46q-18 27 -18 87v191q0 52 -20 78.5t-74 41.5v2q104 0 144 -36q29 -27 29 -85v-220q0 -91 94 -105v-2q-94 -11 -94 -104v-220q0 -58 -29 -85q-40 -36 -144 -36v2q54 15 75 43q19 25 19 77z" />
    <glyph glyph-name="asciitilde" unicode="~" horiz-adv-x="606" 
d="M87 248v0l-40 27q61 95 136 95q38 0 111 -30.5t100 -30.5q44 0 87 61l41 -23q-31 -44 -52 -62q-33 -28 -75 -28q-28 0 -129 38q-61 23 -85 23q-49 0 -94 -70z" />
    <glyph glyph-name="exclamdown" unicode="&#xa1;" horiz-adv-x="333" 
d="M126 -169v0l27 403q2 29 13 29t13 -29l27 -403q2 -24 -7.5 -31.5t-32.5 -7.5t-32 7.5t-8 31.5zM102 406q0 7 9 12q15 9 23.5 18.5t19.5 25.5q5 8 12 8q8 0 13 -7q12 -18 19.5 -26.5t22.5 -17.5q9 -6 9 -13t-9 -14q-15 -11 -23.5 -19.5t-18.5 -22.5q-5 -8 -13 -8
q-7 0 -13 7q-12 17 -18.5 23.5t-23.5 19.5q-9 7 -9 14z" />
    <glyph glyph-name="cent" unicode="&#xa2;" 
d="M195 76l103 312q-29 8 -54 8q-59 0 -91 -53q-27 -45 -27 -107q0 -114 69 -160zM310 427l43 131h38l-45 -137q51 -8 53 -29q1 -13 1 -59q0 -21 -8 -21q-6 0 -24 23q-21 27 -38 37l-104 -316q31 -17 77 -17q47 0 92 29l45 29q8 0 8 -6q0 -23 -47 -57q-62 -45 -150 -45
q-24 0 -45 6l-49 -148h-37l51 161q-54 23 -86 76.5t-32 116.5q0 94 65.5 161t159.5 67q25 0 32 -2z" />
    <glyph glyph-name="sterling" unicode="&#xa3;" 
d="M144 66q-39 32 -64 32q-43 0 -43 -41q0 -39 38 -39q40 0 69 48zM205 373h88q15 0 15 -16q0 -15 -15 -15h-80q20 -80 20 -110q0 -67 -39 -145q64 -26 115 -26q82 0 112 33q25 28 33 78q6 38 18 38t12 -11q0 -96 -54 -156q-49 -54 -119 -54q-65 0 -140 60q-32 -60 -92 -60
q-29 0 -50 19.5t-21 48.5q0 31 21 50.5t53 19.5q28 0 78 -22q10 23 10 68q0 76 -43 169h-85q-15 0 -15 15q0 16 15 16h77q-16 54 -16 113q0 90 46 151q50 67 137 67q58 0 103 -31q39 -26 39 -49q0 -13 -20.5 -38t-33.5 -25q-11 0 -11 50q0 17 -21 41q-27 28 -64 28
q-54 0 -82 -38.5t-28 -93.5q0 -37 13 -89z" />
    <glyph glyph-name="currency" unicode="&#xa4;" 
d="M38 125l50 50q-49 60 -49 135q0 78 49 136l-50 49l27 27l49 -49q60 49 137 49q81 0 136 -49l49 49l27 -27l-49 -49q48 -60 48 -137t-48 -134l49 -50l-27 -26l-49 49q-61 -50 -139 -50q-71 0 -134 50l-49 -49zM251 472q-67 0 -114.5 -47t-47.5 -114q0 -66 47.5 -114.5
t113.5 -48.5q67 0 114.5 47t47.5 114q0 68 -46.5 115.5t-114.5 47.5z" />
    <glyph glyph-name="yen" unicode="&#xa5;" 
d="M200 374l-140 274q-9 18 -33.5 26.5t-24.5 14.5q0 15 11 15t40.5 -2t52.5 -2q10 0 29.5 2t28.5 2q14 0 14 -10q0 -7 -18.5 -19t-18.5 -28q0 -14 16 -45l76 -146q33 -63 50 -63q5 0 33 54l75 144q11 21 11 46q0 28 -30.5 35.5t-30.5 16.5q0 15 17 15q10 0 30 -2t30 -2
q12 0 35.5 2t35.5 2q9 0 9 -12q0 -9 -14 -17q-18 -9 -24 -21l-142 -268q-20 -38 -20 -58h89v-44h-89v-59h89v-44h-89v-85q0 -38 21 -55q10 -8 40 -17q21 -7 21 -18q0 -10 -23 -10q-5 0 -47 2t-63 2q-27 0 -58.5 -2l-31.5 -2q-15 0 -15 12q0 10 20 16q28 7 37 13q20 13 20 44
v100h-88v44h88v59h-88v44h88q0 9 -19 46z" />
    <glyph glyph-name="brokenbar" unicode="&#xa6;" horiz-adv-x="606" 
d="M276 0v298h54v-298h-54zM276 447v298h54v-298h-54z" />
    <glyph glyph-name="section" unicode="&#xa7;" 
d="M193 420q-30 0 -50 -20.5t-20 -49.5q0 -44 66 -102q38 -33 52 -43q32 -22 61 -22q34 0 54.5 20t20.5 54q3 25 -25 56q-7 7 -49 45q-69 62 -110 62zM234 522l80 -66q113 -93 113 -171q0 -58 -37 -94t-93 -29l-2 -2q92 -69 92 -146q0 -58 -41.5 -91.5t-103.5 -33.5
q-48 0 -89 24q-48 28 -48 73q0 22 14.5 39.5t36.5 17.5q21 0 36 -13t15 -34q0 -13 -17 -30.5t-17 -20.5q0 -16 28 -27q23 -8 46 -8q33 0 58.5 20t25.5 52q0 50 -67 105q-62 49 -124 97q-67 64 -67 136q0 54 32.5 88t83.5 34q8 0 17 -1l2 2q-97 71 -97 149q0 56 44 90
q40 31 98 31q48 0 84 -26q41 -29 41 -75q0 -22 -16 -36.5t-38 -14.5q-18 0 -30.5 13.5t-12.5 31.5q0 17 16.5 34t16.5 21q0 16 -25 24q-19 7 -38 7q-41 0 -64 -24q-20 -20 -20 -48q0 -43 67 -98z" />
    <glyph glyph-name="dieresis" unicode="&#xa8;" horiz-adv-x="333" 
d="M254 595q9 0 25 -21.5t16 -31.5q0 -9 -16 -30.5t-25 -21.5t-25.5 21t-16.5 31t16.5 31.5t25.5 21.5zM80 595q9 0 25.5 -21.5t16.5 -31.5t-16.5 -31t-25.5 -21t-25.5 21.5t-16.5 30.5t16.5 31t25.5 22z" />
    <glyph glyph-name="copyright" unicode="&#xa9;" horiz-adv-x="747" 
d="M373 -11q-150 0 -256 106.5t-106 253.5q0 150 104.5 257t257.5 107q150 0 256 -104.5t106 -254.5q0 -153 -105 -259t-257 -106zM373 27q135 0 229.5 93.5t94.5 229.5t-93.5 230.5t-230.5 94.5t-230.5 -94.5t-93.5 -230.5q0 -132 94.5 -227.5t229.5 -95.5zM529 544v-115
h-31q-2 51 -31.5 81.5t-79.5 30.5q-72 0 -111 -56q-34 -49 -34 -123q0 -77 38 -131q42 -61 114 -61q43 0 71 20q23 16 50 55l26 -8q-19 -49 -69.5 -77t-105.5 -28q-93 0 -150 62t-57 156q0 100 60.5 162t158.5 62q66 0 151 -30z" />
    <glyph glyph-name="ordfeminine" unicode="&#xaa;" horiz-adv-x="394" 
d="M332 347h-296v37h296v-37zM90 504q0 -37 77 -37q22 0 49 14.5t27 26.5v57q-46 -9 -91 -17q-62 -17 -62 -44zM243 590q2 52 -14.5 69.5t-62.5 17.5q-80 0 -80 -30q0 -4 2 -13.5t2 -12.5q0 -5 -19 -5q-46 0 -46 23q0 17 28 36q44 29 135 29q51 0 85 -19t34 -49v-121
q0 -27 3 -36q7 -20 34 -20q4 0 12 1t9 1q4 0 4 -7q0 -14 -51 -14q-31 0 -49 31q-64 -31 -128 -31q-115 0 -115 57q0 71 217 93z" />
    <glyph glyph-name="guillemotleft" unicode="&#xab;" 
d="M157 227q40 -41 72 -88q30 -43 30 -55q0 -9 -6 -9q-7 0 -39 31q-50 49 -65 62q-12 10 -48 36q-18 13 -18 23t18 23q36 26 49.5 37.5t63.5 60.5q32 31 39 31q6 0 6 -9q0 -12 -30 -55q-32 -47 -72 -88zM314 227q40 -41 72 -88q30 -43 30 -55q0 -9 -6 -9q-7 0 -39 31
q-50 49 -65 62q-12 10 -48 36q-18 13 -18 23t18 23q36 26 49.5 37.5t63.5 60.5q32 31 39 31q6 0 6 -9q0 -12 -30 -55q-32 -47 -72 -88z" />
    <glyph glyph-name="logicalnot" unicode="&#xac;" horiz-adv-x="606" 
d="M524 402v-269h-54v215h-389v54h443z" />
    <glyph glyph-name="minus" unicode="&#xad;" horiz-adv-x="606" 
d="M524 282h-443v54h443v-54z" />
    <glyph glyph-name="minus" unicode="&#x2212;" horiz-adv-x="606" 
d="M524 282h-443v54h443v-54z" />
    <glyph glyph-name="registered" unicode="&#xae;" horiz-adv-x="747" 
d="M373 -11q-150 0 -256 106.5t-106 253.5q0 150 104.5 257t257.5 107q150 0 256 -104.5t106 -254.5q0 -153 -105 -259t-257 -106zM373 27q135 0 229.5 93.5t94.5 229.5t-93.5 230.5t-230.5 94.5t-230.5 -94.5t-93.5 -230.5q0 -132 94.5 -227.5t229.5 -95.5zM306 347v-117
q0 -43 6 -49t44 -8v-19h-168v19q30 0 39.5 4.5t9.5 26.5v325q-2 19 -17 24q-6 2 -32 2v22h169q165 0 165 -105q0 -45 -34.5 -77t-79.5 -35v-2q38 -7 65 -55l40 -86q24 -44 58 -44v-19h-28q-55 0 -71 12t-44 80q-27 65 -34 74q-21 27 -70 27h-18zM306 371h16q62 0 91 15
q40 21 40 78q0 89 -97 89q-34 0 -42 -6.5t-8 -37.5v-138z" />
    <glyph glyph-name="macron" unicode="&#xaf;" horiz-adv-x="333" 
d="M318 517h-303v50h303v-50z" />
    <glyph glyph-name="macron" unicode="&#x2c9;" horiz-adv-x="333" 
d="M318 517h-303v50h303v-50z" />
    <glyph glyph-name="degree" unicode="&#xb0;" horiz-adv-x="400" 
d="M344 560q0 -60 -42.5 -102t-101.5 -42q-60 0 -102 42t-42 102q0 59 42 101.5t102 42.5q59 0 101.5 -42.5t42.5 -101.5zM295 560q0 39 -28 67t-68 28q-39 0 -66.5 -28.5t-27.5 -66.5q0 -40 27.5 -67.5t67.5 -27.5q39 0 67 27.5t28 67.5z" />
    <glyph glyph-name="plusminus" unicode="&#xb1;" horiz-adv-x="606" 
d="M81 351h195v179h54v-179h194v-54h-194v-179h-54v179h-195v54zM81 54h443v-54h-443v54z" />
    <glyph glyph-name="twosuperior" unicode="&#xb2;" horiz-adv-x="300" 
d="M146 704q43 0 72 -24t29 -62q0 -39 -40 -108q-26 -45 -75 -111q-40 -55 -40 -58q0 -8 30 -9q-11 0 59 0q45 0 65.5 16t22.5 16q10 0 10 -7q0 -3 -17 -29l-30 -46h-196q-15 0 -15 5q0 4 15 25q25 34 42 60q107 167 107 229q0 71 -63 71q-25 0 -52.5 -19.5t-32.5 -19.5
q-10 0 -10 10q0 14 36 36q41 25 83 25z" />
    <glyph glyph-name="threesuperior" unicode="&#xb3;" horiz-adv-x="300" 
d="M109 510q0 4 42.5 37t42.5 66q0 50 -55 50q-31 0 -54 -14l-23 -14q-8 0 -8 11q0 14 31 34q36 24 77 24q39 0 66 -19.5t27 -51.5q0 -33 -22 -60.5t-53 -36.5l2 -2q42 1 68 -27.5t26 -70.5q0 -64 -49 -112.5t-120 -48.5q-32 0 -62 14.5t-30 25.5t9 11l25 -12.5t56 -12.5
q52 0 81 33t29 83q0 46 -27 67q-18 13 -52 17q-27 4 -27 9z" />
    <glyph glyph-name="acute" unicode="&#xb4;" horiz-adv-x="333" 
d="M130 477h-35l147 146q23 23 41 23q14 0 23 -11.5t9 -25.5q0 -15 -21 -30q-17 -11 -34 -21z" />
    <glyph glyph-name="mu" unicode="&#xb5;" 
d="M351 95v261q0 21 -26.5 24.5t-26.5 13.5q0 9 17 9t46.5 5.5t44.5 5.5q18 0 18 -24v-346q0 -13 31.5 -18.5t31.5 -16.5q0 -9 -37 -9q-24 0 -54 -5q-22 -6 -34 -6q-9 0 -9 15v55h-2q-46 -70 -133 -70q-37 0 -66.5 12.5t-26.5 12.5q-18 0 -44 -77l-47 -137q-1 -3 -33 -3
q-37 0 -37 7q0 8 28 42q34 42 52 86q28 69 28 161v263q0 21 -26.5 24.5t-26.5 13.5q0 9 17 9t46.5 5.5t44.5 5.5q18 0 18 -24v-253q0 -67 44 -96q25 -17 53 -17q41 0 75 24t34 47z" />
    <glyph glyph-name="mu" unicode="&#x3bc;" 
d="M351 95v261q0 21 -26.5 24.5t-26.5 13.5q0 9 17 9t46.5 5.5t44.5 5.5q18 0 18 -24v-346q0 -13 31.5 -18.5t31.5 -16.5q0 -9 -37 -9q-24 0 -54 -5q-22 -6 -34 -6q-9 0 -9 15v55h-2q-46 -70 -133 -70q-37 0 -66.5 12.5t-26.5 12.5q-18 0 -44 -77l-47 -137q-1 -3 -33 -3
q-37 0 -37 7q0 8 28 42q34 42 52 86q28 69 28 161v263q0 21 -26.5 24.5t-26.5 13.5q0 9 17 9t46.5 5.5t44.5 5.5q18 0 18 -24v-253q0 -67 44 -96q25 -17 53 -17q41 0 75 24t34 47z" />
    <glyph glyph-name="paragraph" unicode="&#xb6;" horiz-adv-x="628" 
d="M316 654h-30q-189 0 -189 -134q0 -69 58 -122q62 -58 161 -65v321zM484 645v-681q0 -42 -25 -42q-26 0 -26 42v689h-66v-689q0 -42 -25 -42q-26 0 -26 42v330q-119 12 -198 62q-100 62 -100 169q0 175 222 175h308q40 0 40 -29q0 -26 -40 -26h-64z" />
    <glyph glyph-name="periodcentered" unicode="&#xb7;" horiz-adv-x="250" 
d="M61 309q0 7 9 12q15 9 23.5 18.5t19.5 25.5q5 8 12 8q8 0 13 -7q12 -18 19.5 -26.5t22.5 -17.5q9 -6 9 -13t-9 -14q-15 -11 -23.5 -19.5t-18.5 -22.5q-5 -8 -13 -8q-7 0 -13 7q-12 17 -18.5 23.5t-23.5 19.5q-9 7 -9 14z" />
    <glyph glyph-name="periodcentered" unicode="&#x2219;" horiz-adv-x="250" 
d="M61 309q0 7 9 12q15 9 23.5 18.5t19.5 25.5q5 8 12 8q8 0 13 -7q12 -18 19.5 -26.5t22.5 -17.5q9 -6 9 -13t-9 -14q-15 -11 -23.5 -19.5t-18.5 -22.5q-5 -8 -13 -8q-7 0 -13 7q-12 17 -18.5 23.5t-23.5 19.5q-9 7 -9 14z" />
    <glyph glyph-name="cedilla" unicode="&#xb8;" horiz-adv-x="333" 
d="M57 -198l14 30q40 -12 62 -12q21 0 39 11t18 31q0 17 -13 28.5t-31 11.5q-17 0 -25 -6l-23 5l44 99h35l-30 -66q22 6 34 6q31 0 54.5 -19.5t23.5 -49.5q0 -45 -40 -67q-32 -17 -81 -17q-43 0 -81 15z" />
    <glyph glyph-name="onesuperior" unicode="&#xb9;" horiz-adv-x="300" 
d="M116 336v271q0 38 -18 38q-6 0 -21.5 -5t-17.5 -5q-7 0 -7 6q0 10 13 16q20 6 40.5 13.5t45.5 20.5q20 11 21 11q6 0 6 -9q0 -3 -2.5 -15t-2.5 -25v-307q0 -30 19 -41q8 -5 34 -9q19 -3 19 -12q0 -7 -23 -7q-10 0 -32 1t-35 1t-41.5 -1t-36.5 -1q-19 0 -19 7t29 14.5
t29 37.5z" />
    <glyph glyph-name="ordmasculine" unicode="&#xba;" horiz-adv-x="425" 
d="M214 440q-67 0 -109 31q-46 34 -46 95q0 56 45 97t109 41t107 -37.5t43 -97.5q0 -58 -43 -93.5t-106 -35.5zM219 468q80 0 80 94q0 47 -21 78q-26 37 -73 37q-40 0 -62 -29q-20 -25 -20 -62q0 -45 23 -79q27 -39 73 -39zM359 347h-296v37h296v-37z" />
    <glyph glyph-name="guillemotright" unicode="&#xbb;" 
d="M342 227q-40 41 -72 88q-30 43 -30 55q0 9 6 9q7 0 39 -31q50 -49 65 -62q12 -10 48 -36q18 -13 18 -23t-18 -23q-36 -26 -48 -36q-15 -13 -65 -62q-32 -31 -39 -31q-6 0 -6 9q0 12 30 55q32 47 72 88zM185 227q-40 41 -72 88q-30 43 -30 55q0 9 6 9q7 0 39 -31
q50 -49 65 -62q12 -10 48 -36q18 -13 18 -23t-18 -23q-36 -26 -48 -36q-15 -13 -65 -62q-32 -31 -39 -31q-6 0 -6 9q0 12 30 55q32 47 72 88z" />
    <glyph glyph-name="onequarter" unicode="&#xbc;" horiz-adv-x="750" 
d="M183 0h-44l457 704h44zM567 92h-150q-27 0 -27 15q0 19 102 152t117 133t15 -17v-236q37 0 47.5 8.5t13.5 8.5q4 0 4 -4q0 -33 -12 -56q-2 -4 -53 -4v-154q0 -4 -15 -8.5t-25 -4.5q-17 0 -17 18v149zM567 139v161h-2l-120 -161h122zM116 336v271q0 38 -18 38
q-6 0 -21.5 -5t-17.5 -5q-7 0 -7 6q0 10 13 16q20 6 40.5 13.5t45.5 20.5q20 11 21 11q6 0 6 -9q0 -3 -2.5 -15t-2.5 -25v-307q0 -30 19 -41q8 -5 34 -9q19 -3 19 -12q0 -7 -23 -7q-10 0 -32 1t-35 1t-41.5 -1t-36.5 -1q-19 0 -19 7t29 14.5t29 37.5z" />
    <glyph glyph-name="onehalf" unicode="&#xbd;" horiz-adv-x="750" 
d="M163 0h-44l457 704h44zM568 422q43 0 72 -24t29 -62q0 -39 -40 -108q-26 -45 -75 -111q-40 -55 -40 -58q0 -8 30 -9q-11 0 59 0q45 0 65.5 16t22.5 16q10 0 10 -7q0 -3 -17 -29l-30 -46h-196q-15 0 -15 5q0 4 15 25q25 34 42 60q107 167 107 229q0 71 -63 71
q-25 0 -52.5 -19.5t-32.5 -19.5q-10 0 -10 10q0 14 36 36q41 25 83 25zM116 336v271q0 38 -18 38q-6 0 -21.5 -5t-17.5 -5q-7 0 -7 6q0 10 13 16q20 6 40.5 13.5t45.5 20.5q20 11 21 11q6 0 6 -9q0 -3 -2.5 -15t-2.5 -25v-307q0 -30 19 -41q8 -5 34 -9q19 -3 19 -12
q0 -7 -23 -7q-10 0 -32 1t-35 1t-41.5 -1t-36.5 -1q-19 0 -19 7t29 14.5t29 37.5z" />
    <glyph glyph-name="threequarters" unicode="&#xbe;" horiz-adv-x="750" 
d="M183 0h-44l457 704h44zM567 92h-150q-27 0 -27 15q0 19 102 152t117 133t15 -17v-236q37 0 47.5 8.5t13.5 8.5q4 0 4 -4q0 -33 -12 -56q-2 -4 -53 -4v-154q0 -4 -15 -8.5t-25 -4.5q-17 0 -17 18v149zM567 139v161h-2l-120 -161h122zM109 510q0 4 42.5 37t42.5 66
q0 50 -55 50q-31 0 -54 -14l-23 -14q-8 0 -8 11q0 14 31 34q36 24 77 24q39 0 66 -19.5t27 -51.5q0 -33 -22 -60.5t-53 -36.5l2 -2q42 1 68 -27.5t26 -70.5q0 -64 -49 -112.5t-120 -48.5q-32 0 -62 14.5t-30 25.5t9 11l25 -12.5t56 -12.5q52 0 81 33t29 83q0 46 -27 67
q-18 13 -52 17q-27 4 -27 9z" />
    <glyph glyph-name="questiondown" unicode="&#xbf;" horiz-adv-x="333" 
d="M61 -85q0 43 34 95q32 47 64 93q34 59 34 117q0 7 -1.5 20t-1.5 19q0 16 13 16q19 0 19 -78q0 -45 -43.5 -142t-43.5 -134q0 -33 22.5 -56.5t55.5 -23.5q23 0 40 13t21 13q7 0 7 -8q0 -18 -24 -35q-31 -21 -82 -21q-47 0 -80.5 33t-33.5 79zM135 406q0 7 9 12
q15 9 23.5 18.5t19.5 25.5q5 8 12 8q8 0 13 -7q12 -18 19.5 -26.5t22.5 -17.5q9 -6 9 -13t-9 -14q-15 -11 -23.5 -19.5t-18.5 -22.5q-5 -8 -13 -8q-7 0 -13 7q-12 17 -18.5 23.5t-23.5 19.5q-9 7 -9 14z" />
    <glyph glyph-name="Agrave" unicode="&#xc0;" horiz-adv-x="778" 
d="M364 578l-113 -243q-3 -6 -3 -9q0 -9 16 -9h198q19 0 19 9q0 3 -3 11l-98 241q-4 9 -8 9t-8 -9zM553 153l-32 82q-15 38 -44 38h-220q-37 0 -47 -21l-64 -140q-7 -15 -7 -35q0 -30 18 -42q9 -6 35 -11q18 -3 18 -13q0 -12 -9 -14q-2 -1 -18 -1q-14 0 -42 2t-42 2
t-40.5 -2t-39.5 -2q-9 0 -9 11q0 7 27 17q31 12 46 44l239 510q27 59 55 118q11 24 20 24q6 0 21 -37l208 -515l22 -58q14 -34 28 -56q16 -25 55 -32q33 -6 33 -17q0 -9 -14 -9q-20 0 -61 2t-62 2q-13 0 -40 -2t-41 -2q-22 0 -22 10t30 20.5t30 31.5q0 16 -31 95zM429 763
l-130 81q-17 10 -34 21q-21 15 -21 30q0 14 9 25.5t23 11.5q18 0 41 -23l147 -146h-35z" />
    <glyph glyph-name="Aacute" unicode="&#xc1;" horiz-adv-x="778" 
d="M364 578l-113 -243q-3 -6 -3 -9q0 -9 16 -9h198q19 0 19 9q0 3 -3 11l-98 241q-4 9 -8 9t-8 -9zM553 153l-32 82q-15 38 -44 38h-220q-37 0 -47 -21l-64 -140q-7 -15 -7 -35q0 -30 18 -42q9 -6 35 -11q18 -3 18 -13q0 -12 -9 -14q-2 -1 -18 -1q-14 0 -42 2t-42 2
t-40.5 -2t-39.5 -2q-9 0 -9 11q0 7 27 17q31 12 46 44l239 510q27 59 55 118q11 24 20 24q6 0 21 -37l208 -515l22 -58q14 -34 28 -56q16 -25 55 -32q33 -6 33 -17q0 -9 -14 -9q-20 0 -61 2t-62 2q-13 0 -40 -2t-41 -2q-22 0 -22 10t30 20.5t30 31.5q0 16 -31 95zM353 763
h-35l147 146q23 23 41 23q14 0 23 -11.5t9 -25.5q0 -15 -21 -30q-17 -11 -34 -21z" />
    <glyph glyph-name="Acircumflex" unicode="&#xc2;" horiz-adv-x="778" 
d="M364 578l-113 -243q-3 -6 -3 -9q0 -9 16 -9h198q19 0 19 9q0 3 -3 11l-98 241q-4 9 -8 9t-8 -9zM553 153l-32 82q-15 38 -44 38h-220q-37 0 -47 -21l-64 -140q-7 -15 -7 -35q0 -30 18 -42q9 -6 35 -11q18 -3 18 -13q0 -12 -9 -14q-2 -1 -18 -1q-14 0 -42 2t-42 2
t-40.5 -2t-39.5 -2q-9 0 -9 11q0 7 27 17q31 12 46 44l239 510q27 59 55 118q11 24 20 24q6 0 21 -37l208 -515l22 -58q14 -34 28 -56q16 -25 55 -32q33 -6 33 -17q0 -9 -14 -9q-20 0 -61 2t-62 2q-13 0 -40 -2t-41 -2q-22 0 -22 10t30 20.5t30 31.5q0 16 -31 95zM391 868
l-118 -105h-33l123 167h56l122 -167h-34z" />
    <glyph glyph-name="Atilde" unicode="&#xc3;" horiz-adv-x="778" 
d="M364 578l-113 -243q-3 -6 -3 -9q0 -9 16 -9h198q19 0 19 9q0 3 -3 11l-98 241q-4 9 -8 9t-8 -9zM553 153l-32 82q-15 38 -44 38h-220q-37 0 -47 -21l-64 -140q-7 -15 -7 -35q0 -30 18 -42q9 -6 35 -11q18 -3 18 -13q0 -12 -9 -14q-2 -1 -18 -1q-14 0 -42 2t-42 2
t-40.5 -2t-39.5 -2q-9 0 -9 11q0 7 27 17q31 12 46 44l239 510q27 59 55 118q11 24 20 24q6 0 21 -37l208 -515l22 -58q14 -34 28 -56q16 -25 55 -32q33 -6 33 -17q0 -9 -14 -9q-20 0 -61 2t-62 2q-13 0 -40 -2t-41 -2q-22 0 -22 10t30 20.5t30 31.5q0 16 -31 95zM253 787v0
h-27q5 41 36 70t71 29q23 0 68 -23.5t64 -23.5q41 0 58 50h29q-10 -42 -37 -70q-30 -32 -70 -32q-28 0 -78 25q-42 21 -59 21q-44 0 -55 -46z" />
    <glyph glyph-name="Adieresis" unicode="&#xc4;" horiz-adv-x="778" 
d="M364 578l-113 -243q-3 -6 -3 -9q0 -9 16 -9h198q19 0 19 9q0 3 -3 11l-98 241q-4 9 -8 9t-8 -9zM553 153l-32 82q-15 38 -44 38h-220q-37 0 -47 -21l-64 -140q-7 -15 -7 -35q0 -30 18 -42q9 -6 35 -11q18 -3 18 -13q0 -12 -9 -14q-2 -1 -18 -1q-14 0 -42 2t-42 2
t-40.5 -2t-39.5 -2q-9 0 -9 11q0 7 27 17q31 12 46 44l239 510q27 59 55 118q11 24 20 24q6 0 21 -37l208 -515l22 -58q14 -34 28 -56q16 -25 55 -32q33 -6 33 -17q0 -9 -14 -9q-20 0 -61 2t-62 2q-13 0 -40 -2t-41 -2q-22 0 -22 10t30 20.5t30 31.5q0 16 -31 95zM477 881
q9 0 25 -21.5t16 -31.5q0 -9 -16 -30.5t-25 -21.5t-25.5 21t-16.5 31t16.5 31.5t25.5 21.5zM303 881q9 0 25.5 -21.5t16.5 -31.5t-16.5 -31t-25.5 -21t-25.5 21.5t-16.5 30.5t16.5 31t25.5 22z" />
    <glyph glyph-name="Aring" unicode="&#xc5;" horiz-adv-x="778" 
d="M364 578l-113 -243q-3 -6 -3 -9q0 -9 16 -9h198q19 0 19 9q0 3 -3 11l-98 241q-4 9 -8 9t-8 -9zM553 153l-32 82q-15 38 -44 38h-220q-37 0 -47 -21l-64 -140q-7 -15 -7 -35q0 -30 18 -42q9 -6 35 -11q18 -3 18 -13q0 -12 -9 -14q-2 -1 -18 -1q-14 0 -42 2t-42 2
t-40.5 -2t-39.5 -2q-9 0 -9 11q0 7 27 17q31 12 46 44l239 510q27 59 55 118q11 24 20 24q6 0 21 -37l208 -515l22 -58q14 -34 28 -56q16 -25 55 -32q33 -6 33 -17q0 -9 -14 -9q-20 0 -61 2t-62 2q-13 0 -40 -2t-41 -2q-22 0 -22 10t30 20.5t30 31.5q0 16 -31 95zM410 751
q-43 0 -75 32t-32 76q0 43 32 75.5t75 32.5q44 0 76 -32t32 -76q0 -43 -32 -75.5t-76 -32.5zM410 926q-28 0 -47.5 -19.5t-19.5 -47.5t19.5 -47.5t47.5 -19.5t47.5 19.5t19.5 47.5t-19.5 47.5t-47.5 19.5z" />
    <glyph glyph-name="AE" unicode="&#xc6;" horiz-adv-x="1000" 
d="M548 351v260q0 31 -6 31q-7 0 -30 -32l-186 -254q-17 -23 -17 -31t20 -8h181q30 0 34 4t4 30zM234 228l-76 -102q-28 -38 -28 -62q0 -23 38.5 -36.5t38.5 -16.5q0 -15 -32 -15q-14 0 -42 2t-42 2t-40.5 -2t-39.5 -2q-9 0 -9 11q0 5 19 14q25 12 45 40l406 559
q24 33 24 40q0 16 -31 18t-31 14t35 12q132 0 223 -2t90 -2q9 0 67.5 2t75.5 2q10 0 10 -22q0 -119 -20 -119q-13 0 -15 27q-2 34 -9 44q-16 22 -80 27q-13 1 -90 1q-73 0 -83.5 -6.5t-10.5 -56.5v-186q0 -26 4.5 -30t33.5 -4h108q46 0 67 21q13 12 20 38q6 21 14 21
q11 0 11 -19q0 -18 -1 -51.5t-1 -49.5q0 -13 1 -39t1 -40q0 -13 -11 -13t-16 23q-7 32 -14 42q-15 23 -51 23h-148q-14 0 -17 -10q-1 -4 -1 -22v-184q0 -53 7 -64q12 -19 69 -19q102 0 172 27q48 18 79 49q28 27 27 27q8 0 8 -12q0 -42 -50 -97q-22 -24 -45 -30
q-13 -4 -53 -4q-31 0 -114 3q-72 2 -114 1q-12 0 -61 -2q-38 -2 -61 -2q-15 0 -15 10q1 8 18 16l26 10q18 9 24 31q4 16 4 56v122q0 18 -1 22q-3 10 -17 10h-231q-31 0 -65 -45z" />
    <glyph glyph-name="Ccedilla" unicode="&#xc7;" horiz-adv-x="722" 
d="M25 337q0 158 102 267t258 109q83 0 147 -20q41 -13 81 -37q33 -20 41 -20q4 0 11.5 5t12.5 5q8 0 10 -16q2 -11 4 -65q1 -14 3 -38q1 -20 1 -28q0 -20 -10 -20q-7 0 -14 14q-5 9 -9 19q-50 86 -106 126q-64 46 -156 46q-142 0 -218 -88q-71 -83 -71 -228q0 -141 74 -239
q82 -109 218 -109q105 0 188 56q67 45 82 90q4 13 14 13q12 0 9 -11l-23 -100q-4 -16 -64 -41q-91 -38 -233 -38q-155 0 -253.5 97t-98.5 251zM252 -198l14 30q40 -12 62 -12q21 0 39 11t18 31q0 17 -13 28.5t-31 11.5q-17 0 -25 -6l-23 5l44 99h35l-30 -66q22 6 34 6
q31 0 54.5 -19.5t23.5 -49.5q0 -45 -40 -67q-32 -17 -81 -17q-43 0 -81 15z" />
    <glyph glyph-name="Egrave" unicode="&#xc8;" horiz-adv-x="556" 
d="M183 599v-186q0 -26 4.5 -30t33.5 -4h108q46 0 67 21q13 12 20 38q6 21 14 21q11 0 11 -19q0 -18 -1 -51.5t-1 -49.5q0 -13 1 -39t1 -40q0 -13 -11 -13t-16 23q-7 32 -14 42q-15 23 -51 23h-148q-14 0 -17 -10q-1 -4 -1 -22v-184q0 -53 7 -64q12 -19 69 -19q102 0 172 27
q48 18 79 49q28 27 27 27q8 0 8 -12q0 -42 -50 -97q-22 -24 -45 -30q-13 -4 -53 -4q-31 0 -114 3q-72 2 -114 1q-12 0 -61 -2q-38 -2 -61 -2q-15 0 -15 10q1 8 18 16l26 10q18 9 24 31q4 16 4 56v456q0 46 -7 64q-11 32 -47 37q-30 8 -30 16q0 12 35 12q113 0 196.5 -2
t86.5 -2q9 0 67.5 2t75.5 2q10 0 10 -22q0 -119 -20 -119q-13 0 -15 27q-2 34 -9 44q-16 22 -80 27q-13 1 -90 1q-73 0 -83.5 -6.5t-10.5 -56.5zM318 763l-130 81q-17 10 -34 21q-21 15 -21 30q0 14 9 25.5t23 11.5q18 0 41 -23l147 -146h-35z" />
    <glyph glyph-name="Eacute" unicode="&#xc9;" horiz-adv-x="556" 
d="M183 599v-186q0 -26 4.5 -30t33.5 -4h108q46 0 67 21q13 12 20 38q6 21 14 21q11 0 11 -19q0 -18 -1 -51.5t-1 -49.5q0 -13 1 -39t1 -40q0 -13 -11 -13t-16 23q-7 32 -14 42q-15 23 -51 23h-148q-14 0 -17 -10q-1 -4 -1 -22v-184q0 -53 7 -64q12 -19 69 -19q102 0 172 27
q48 18 79 49q28 27 27 27q8 0 8 -12q0 -42 -50 -97q-22 -24 -45 -30q-13 -4 -53 -4q-31 0 -114 3q-72 2 -114 1q-12 0 -61 -2q-38 -2 -61 -2q-15 0 -15 10q1 8 18 16l26 10q18 9 24 31q4 16 4 56v456q0 46 -7 64q-11 32 -47 37q-30 8 -30 16q0 12 35 12q113 0 196.5 -2
t86.5 -2q9 0 67.5 2t75.5 2q10 0 10 -22q0 -119 -20 -119q-13 0 -15 27q-2 34 -9 44q-16 22 -80 27q-13 1 -90 1q-73 0 -83.5 -6.5t-10.5 -56.5zM242 763h-35l147 146q23 23 41 23q14 0 23 -11.5t9 -25.5q0 -15 -21 -30q-17 -11 -34 -21z" />
    <glyph glyph-name="Ecircumflex" unicode="&#xca;" horiz-adv-x="556" 
d="M183 599v-186q0 -26 4.5 -30t33.5 -4h108q46 0 67 21q13 12 20 38q6 21 14 21q11 0 11 -19q0 -18 -1 -51.5t-1 -49.5q0 -13 1 -39t1 -40q0 -13 -11 -13t-16 23q-7 32 -14 42q-15 23 -51 23h-148q-14 0 -17 -10q-1 -4 -1 -22v-184q0 -53 7 -64q12 -19 69 -19q102 0 172 27
q48 18 79 49q28 27 27 27q8 0 8 -12q0 -42 -50 -97q-22 -24 -45 -30q-13 -4 -53 -4q-31 0 -114 3q-72 2 -114 1q-12 0 -61 -2q-38 -2 -61 -2q-15 0 -15 10q1 8 18 16l26 10q18 9 24 31q4 16 4 56v456q0 46 -7 64q-11 32 -47 37q-30 8 -30 16q0 12 35 12q113 0 196.5 -2
t86.5 -2q9 0 67.5 2t75.5 2q10 0 10 -22q0 -119 -20 -119q-13 0 -15 27q-2 34 -9 44q-16 22 -80 27q-13 1 -90 1q-73 0 -83.5 -6.5t-10.5 -56.5zM280 868l-118 -105h-33l123 167h56l122 -167h-34z" />
    <glyph glyph-name="Edieresis" unicode="&#xcb;" horiz-adv-x="556" 
d="M183 599v-186q0 -26 4.5 -30t33.5 -4h108q46 0 67 21q13 12 20 38q6 21 14 21q11 0 11 -19q0 -18 -1 -51.5t-1 -49.5q0 -13 1 -39t1 -40q0 -13 -11 -13t-16 23q-7 32 -14 42q-15 23 -51 23h-148q-14 0 -17 -10q-1 -4 -1 -22v-184q0 -53 7 -64q12 -19 69 -19q102 0 172 27
q48 18 79 49q28 27 27 27q8 0 8 -12q0 -42 -50 -97q-22 -24 -45 -30q-13 -4 -53 -4q-31 0 -114 3q-72 2 -114 1q-12 0 -61 -2q-38 -2 -61 -2q-15 0 -15 10q1 8 18 16l26 10q18 9 24 31q4 16 4 56v456q0 46 -7 64q-11 32 -47 37q-30 8 -30 16q0 12 35 12q113 0 196.5 -2
t86.5 -2q9 0 67.5 2t75.5 2q10 0 10 -22q0 -119 -20 -119q-13 0 -15 27q-2 34 -9 44q-16 22 -80 27q-13 1 -90 1q-73 0 -83.5 -6.5t-10.5 -56.5zM366 881q9 0 25 -21.5t16 -31.5q0 -9 -16 -30.5t-25 -21.5t-25.5 21t-16.5 31t16.5 31.5t25.5 21.5zM192 881q9 0 25.5 -21.5
t16.5 -31.5t-16.5 -31t-25.5 -21t-25.5 21.5t-16.5 30.5t16.5 31t25.5 22z" />
    <glyph glyph-name="Igrave" unicode="&#xcc;" horiz-adv-x="333" 
d="M123 106v512q0 32 -21 47q-11 8 -39 15q-21 5 -21 13q0 11 10 11q19 0 55.5 -2t54.5 -2q16 0 47 2t46 2q19 0 19 -10q0 -9 -19 -14q-25 -7 -34 -14q-19 -15 -19 -48v-537q0 -29 23 -43q9 -5 43 -14q23 -7 23 -18q0 -10 -20 -10q-9 0 -47 2t-62 2q-36 0 -65.5 -2t-30.5 -2
q-21 0 -21 15q0 10 20 16q27 7 38 17q20 19 20 62zM206 763l-130 81q-17 10 -34 21q-21 15 -21 30q0 14 9 25.5t23 11.5q18 0 41 -23l147 -146h-35z" />
    <glyph glyph-name="Iacute" unicode="&#xcd;" horiz-adv-x="333" 
d="M123 106v512q0 32 -21 47q-11 8 -39 15q-21 5 -21 13q0 11 10 11q19 0 55.5 -2t54.5 -2q16 0 47 2t46 2q19 0 19 -10q0 -9 -19 -14q-25 -7 -34 -14q-19 -15 -19 -48v-537q0 -29 23 -43q9 -5 43 -14q23 -7 23 -18q0 -10 -20 -10q-9 0 -47 2t-62 2q-36 0 -65.5 -2t-30.5 -2
q-21 0 -21 15q0 10 20 16q27 7 38 17q20 19 20 62zM130 763h-35l147 146q23 23 41 23q14 0 23 -11.5t9 -25.5q0 -15 -21 -30q-17 -11 -34 -21z" />
    <glyph glyph-name="Icircumflex" unicode="&#xce;" horiz-adv-x="333" 
d="M123 106v512q0 32 -21 47q-11 8 -39 15q-21 5 -21 13q0 11 10 11q19 0 55.5 -2t54.5 -2q16 0 47 2t46 2q19 0 19 -10q0 -9 -19 -14q-25 -7 -34 -14q-19 -15 -19 -48v-537q0 -29 23 -43q9 -5 43 -14q23 -7 23 -18q0 -10 -20 -10q-9 0 -47 2t-62 2q-36 0 -65.5 -2t-30.5 -2
q-21 0 -21 15q0 10 20 16q27 7 38 17q20 19 20 62zM168 868l-118 -105h-33l123 167h56l122 -167h-34z" />
    <glyph glyph-name="Idieresis" unicode="&#xcf;" horiz-adv-x="333" 
d="M123 106v512q0 32 -21 47q-11 8 -39 15q-21 5 -21 13q0 11 10 11q19 0 55.5 -2t54.5 -2q16 0 47 2t46 2q19 0 19 -10q0 -9 -19 -14q-25 -7 -34 -14q-19 -15 -19 -48v-537q0 -29 23 -43q9 -5 43 -14q23 -7 23 -18q0 -10 -20 -10q-9 0 -47 2t-62 2q-36 0 -65.5 -2t-30.5 -2
q-21 0 -21 15q0 10 20 16q27 7 38 17q20 19 20 62zM254 881q9 0 25 -21.5t16 -31.5q0 -9 -16 -30.5t-25 -21.5t-25.5 21t-16.5 31t16.5 31.5t25.5 21.5zM80 881q9 0 25.5 -21.5t16.5 -31.5t-16.5 -31t-25.5 -21t-25.5 21.5t-16.5 30.5t16.5 31t25.5 22z" />
    <glyph glyph-name="Eth" unicode="&#xd0;" horiz-adv-x="722" 
d="M23 374v42h92v181q0 45 -21 64q-12 12 -40 19q-21 5 -21 14q0 10 14 10q16 0 45.5 -2t44.5 -2q31 0 101.5 2t115.5 2q137 0 242 -90q109 -94 109 -229q0 -182 -89 -281q-98 -108 -297 -108q-25 0 -76 2t-77 2q-5 0 -57 -2t-55 -2q-10 0 -10 10q0 8 18 13q24 7 35 19
q18 19 18 61v275h-92zM276 416v-42h-82v-233q0 -67 6 -73q45 -45 154 -45q120 0 192 67q85 79 85 240q0 162 -98 257q-93 92 -240 92q-67 0 -85 -14q-14 -10 -14 -49v-200h82z" />
    <glyph glyph-name="Ntilde" unicode="&#xd1;" horiz-adv-x="778" 
d="M115 138v369q0 91 -31 133q-20 25 -59 35q-31 8 -31 19q0 10 15 10q8 0 23.5 -2t23.5 -2t23.5 2t22.5 2q5 0 26 -23l477 -531q10 -11 12 -11q3 0 3 11v418q0 57 -29 84q-16 15 -53 24q-29 7 -29 18q0 10 11 10q15 0 45 -2t46 -2q18 0 54 2t47 2q10 0 10 -9q0 -10 -15 -16
q-21 -10 -29 -17q-15 -16 -15 -48v-579q0 -43 -9 -43q-13 0 -38 28l-430 484q-17 19 -21 19q-7 0 -7 -23v-409q0 -39 23 -55q12 -9 42 -14q23 -3 23 -13q0 -13 -11 -13q-9 0 -41 2t-60 2q-21 0 -57.5 -2l-36.5 -2q-13 0 -13 11q0 12 23 18q29 9 42 25q23 27 23 88zM253 787
v0h-27q5 41 36 70t71 29q23 0 68 -23.5t64 -23.5q41 0 58 50h29q-10 -42 -37 -70q-30 -32 -70 -32q-28 0 -78 25q-42 21 -59 21q-44 0 -55 -46z" />
    <glyph glyph-name="Ograve" unicode="&#xd2;" horiz-adv-x="778" 
d="M362 680q-121 0 -195 -89q-69 -84 -69 -208q0 -146 85 -251q92 -113 234 -113q112 0 187.5 83t75.5 219q0 143 -86 248q-91 111 -232 111zM375 -11q-160 0 -255 102t-95 263q0 155 106 257t261 102q154 0 257.5 -100t103.5 -254q0 -168 -105 -269t-273 -101zM429 763
l-130 81q-17 10 -34 21q-21 15 -21 30q0 14 9 25.5t23 11.5q18 0 41 -23l147 -146h-35z" />
    <glyph glyph-name="Oacute" unicode="&#xd3;" horiz-adv-x="778" 
d="M362 680q-121 0 -195 -89q-69 -84 -69 -208q0 -146 85 -251q92 -113 234 -113q112 0 187.5 83t75.5 219q0 143 -86 248q-91 111 -232 111zM375 -11q-160 0 -255 102t-95 263q0 155 106 257t261 102q154 0 257.5 -100t103.5 -254q0 -168 -105 -269t-273 -101zM353 763h-35
l147 146q23 23 41 23q14 0 23 -11.5t9 -25.5q0 -15 -21 -30q-17 -11 -34 -21z" />
    <glyph glyph-name="Ocircumflex" unicode="&#xd4;" horiz-adv-x="778" 
d="M362 680q-121 0 -195 -89q-69 -84 -69 -208q0 -146 85 -251q92 -113 234 -113q112 0 187.5 83t75.5 219q0 143 -86 248q-91 111 -232 111zM375 -11q-160 0 -255 102t-95 263q0 155 106 257t261 102q154 0 257.5 -100t103.5 -254q0 -168 -105 -269t-273 -101zM391 868
l-118 -105h-33l123 167h56l122 -167h-34z" />
    <glyph glyph-name="Otilde" unicode="&#xd5;" horiz-adv-x="778" 
d="M362 680q-121 0 -195 -89q-69 -84 -69 -208q0 -146 85 -251q92 -113 234 -113q112 0 187.5 83t75.5 219q0 143 -86 248q-91 111 -232 111zM375 -11q-160 0 -255 102t-95 263q0 155 106 257t261 102q154 0 257.5 -100t103.5 -254q0 -168 -105 -269t-273 -101zM253 787v0
h-27q5 41 36 70t71 29q23 0 68 -23.5t64 -23.5q41 0 58 50h29q-10 -42 -37 -70q-30 -32 -70 -32q-28 0 -78 25q-42 21 -59 21q-44 0 -55 -46z" />
    <glyph glyph-name="Odieresis" unicode="&#xd6;" horiz-adv-x="778" 
d="M362 680q-121 0 -195 -89q-69 -84 -69 -208q0 -146 85 -251q92 -113 234 -113q112 0 187.5 83t75.5 219q0 143 -86 248q-91 111 -232 111zM375 -11q-160 0 -255 102t-95 263q0 155 106 257t261 102q154 0 257.5 -100t103.5 -254q0 -168 -105 -269t-273 -101zM477 881
q9 0 25 -21.5t16 -31.5q0 -9 -16 -30.5t-25 -21.5t-25.5 21t-16.5 31t16.5 31.5t25.5 21.5zM303 881q9 0 25.5 -21.5t16.5 -31.5t-16.5 -31t-25.5 -21t-25.5 21.5t-16.5 30.5t16.5 31t25.5 22z" />
    <glyph glyph-name="multiply" unicode="&#xd7;" horiz-adv-x="606" 
d="M81 126l183 183l-183 183l39 39l183 -183l183 183l39 -39l-183 -183l183 -183l-39 -39l-183 183l-183 -183z" />
    <glyph glyph-name="Oslash" unicode="&#xd8;" horiz-adv-x="778" 
d="M194 120l357 491q-83 69 -189 69q-122 0 -195 -89q-69 -84 -69 -208q0 -158 96 -263zM580 585l-358 -492q50 -41 90 -56q44 -18 105 -18q112 0 187.5 83t75.5 219q0 160 -100 264zM184 40l-88 -122h-49l105 144q-127 100 -127 292q0 155 106 257t261 102q108 0 195 -52
l73 101h48l-89 -123q134 -102 134 -280q0 -168 -105 -269t-273 -101q-109 0 -191 51z" />
    <glyph glyph-name="Ugrave" unicode="&#xd9;" horiz-adv-x="778" 
d="M169 622v-359q0 -115 69 -176q63 -57 170 -57q231 0 231 242v324q0 44 -24 62q-11 9 -45 16q-24 6 -24 20q0 10 10 10q20 0 59 -2t58 -2q10 0 28 2t27 2q13 0 13 -11q0 -10 -15 -17q-21 -10 -29 -21q-15 -20 -15 -60v-310q0 -296 -279 -296q-180 0 -255 93
q-58 71 -58 208v337q0 25 -21 36q-4 3 -39 13q-21 5 -21 18q0 10 22 10q13 0 38.5 -2t39.5 -2q16 0 48 2t47 2q32 0 32 -10t-17 -15q-25 -7 -33 -13q-17 -13 -17 -44zM429 763l-130 81q-17 10 -34 21q-21 15 -21 30q0 14 9 25.5t23 11.5q18 0 41 -23l147 -146h-35z" />
    <glyph glyph-name="Uacute" unicode="&#xda;" horiz-adv-x="778" 
d="M169 622v-359q0 -115 69 -176q63 -57 170 -57q231 0 231 242v324q0 44 -24 62q-11 9 -45 16q-24 6 -24 20q0 10 10 10q20 0 59 -2t58 -2q10 0 28 2t27 2q13 0 13 -11q0 -10 -15 -17q-21 -10 -29 -21q-15 -20 -15 -60v-310q0 -296 -279 -296q-180 0 -255 93
q-58 71 -58 208v337q0 25 -21 36q-4 3 -39 13q-21 5 -21 18q0 10 22 10q13 0 38.5 -2t39.5 -2q16 0 48 2t47 2q32 0 32 -10t-17 -15q-25 -7 -33 -13q-17 -13 -17 -44zM353 763h-35l147 146q23 23 41 23q14 0 23 -11.5t9 -25.5q0 -15 -21 -30q-17 -11 -34 -21z" />
    <glyph glyph-name="Ucircumflex" unicode="&#xdb;" horiz-adv-x="778" 
d="M169 622v-359q0 -115 69 -176q63 -57 170 -57q231 0 231 242v324q0 44 -24 62q-11 9 -45 16q-24 6 -24 20q0 10 10 10q20 0 59 -2t58 -2q10 0 28 2t27 2q13 0 13 -11q0 -10 -15 -17q-21 -10 -29 -21q-15 -20 -15 -60v-310q0 -296 -279 -296q-180 0 -255 93
q-58 71 -58 208v337q0 25 -21 36q-4 3 -39 13q-21 5 -21 18q0 10 22 10q13 0 38.5 -2t39.5 -2q16 0 48 2t47 2q32 0 32 -10t-17 -15q-25 -7 -33 -13q-17 -13 -17 -44zM391 868l-118 -105h-33l123 167h56l122 -167h-34z" />
    <glyph glyph-name="Udieresis" unicode="&#xdc;" horiz-adv-x="778" 
d="M169 622v-359q0 -115 69 -176q63 -57 170 -57q231 0 231 242v324q0 44 -24 62q-11 9 -45 16q-24 6 -24 20q0 10 10 10q20 0 59 -2t58 -2q10 0 28 2t27 2q13 0 13 -11q0 -10 -15 -17q-21 -10 -29 -21q-15 -20 -15 -60v-310q0 -296 -279 -296q-180 0 -255 93
q-58 71 -58 208v337q0 25 -21 36q-4 3 -39 13q-21 5 -21 18q0 10 22 10q13 0 38.5 -2t39.5 -2q16 0 48 2t47 2q32 0 32 -10t-17 -15q-25 -7 -33 -13q-17 -13 -17 -44zM477 881q9 0 25 -21.5t16 -31.5q0 -9 -16 -30.5t-25 -21.5t-25.5 21t-16.5 31t16.5 31.5t25.5 21.5z
M303 881q9 0 25.5 -21.5t16.5 -31.5t-16.5 -31t-25.5 -21t-25.5 21.5t-16.5 30.5t16.5 31t25.5 22z" />
    <glyph glyph-name="Yacute" unicode="&#xdd;" horiz-adv-x="611" 
d="M250 374l-167 267q-15 24 -47 34q-28 8 -28 14q0 15 13 15q8 0 41.5 -2t72.5 -2q19 0 43.5 2t26.5 2q19 0 19 -10q0 -7 -23.5 -19t-23.5 -28q0 -12 18 -41l121 -193q11 -18 20 -18q7 0 19 20l103 167q21 34 21 55q0 28 -37.5 35.5t-37.5 16.5q0 15 21 15q12 0 36.5 -2
t36.5 -2q15 0 44 2t43 2q11 0 11 -12q0 -7 -8.5 -11.5t-15.5 -7.5q-19 -11 -56 -69l-140 -218q-24 -37 -24 -45v-245q0 -38 21 -55q10 -8 40 -17q21 -7 21 -18q0 -10 -23 -10q-5 0 -47 2t-63 2q-27 0 -58.5 -2l-31.5 -2q-15 0 -15 12q0 10 20 16q28 7 37 13q20 13 20 44v242
q0 14 -23 51zM269 763h-35l147 146q23 23 41 23q14 0 23 -11.5t9 -25.5q0 -15 -21 -30q-17 -11 -34 -21z" />
    <glyph glyph-name="Thorn" unicode="&#xde;" horiz-adv-x="556" 
d="M120 115v479q0 52 -21 70q-12 9 -40 11q-21 1 -21 14q0 15 13 15q-2 0 32.5 -2t69.5 -2q27 0 59.5 2t29.5 2q29 0 30 -12q0 -10 -18 -15q-27 -7 -36 -14q-19 -14 -19 -44v-27q0 -21 16 -25q6 -2 52 -2q112 0 182 -41q86 -50 86 -152q0 -59 -42 -111q-64 -81 -201 -81
q-17 0 -38 5q-30 7 -30 18q0 9 10 9q1 0 22.5 -3t42.5 -3q77 0 119.5 36t42.5 103q0 88 -61 138q-57 47 -147 47q-29 0 -39 -3q-15 -5 -15 -23v-385q0 -56 27 -79q15 -12 51 -17q27 -3 27 -15t-29 -12q-31 0 -67 2t-41 2q-53 0 -83.5 -2t-25.5 -2q-16 0 -16 12q0 9 20 15
q26 8 38 21q20 22 20 71z" />
    <glyph glyph-name="germandbls" unicode="&#xdf;" 
d="M76 86v409q0 239 166 239q81 0 128.5 -48.5t47.5 -130.5q0 -58 -43 -101q-35 -36 -89 -52v-2q179 -19 179 -218q0 -79 -44 -134q-47 -59 -122 -59q-17 0 -29.5 12t-12.5 29q0 45 16 45q14 0 32 -23t33 -23q56 0 56 155q0 200 -152 200q-23 0 -23 13q0 17 31 17
q40 0 68 39q32 43 32 114q0 57 -24 96q-29 46 -83 46q-63 0 -83 -66q-11 -36 -11 -119v-475q0 -21 30 -26.5t30 -13.5q0 -9 -14 -9h-162q-12 0 -12 10q0 2 15.5 7t25.5 17q14 18 14 52z" />
    <glyph glyph-name="agrave" unicode="&#xe0;" horiz-adv-x="444" 
d="M292 99v116q-91 -20 -117 -31q-69 -30 -69 -87q0 -79 82 -79q33 0 66 21q38 24 38 60zM292 239v77q0 39 -28.5 63t-74.5 24q-43 0 -61 -9q-26 -14 -26 -51q0 -8 3 -22t3 -19q0 -19 -22 -19q-14 0 -30.5 10t-16.5 23q1 40 43 74q49 40 125 39q158 -3 158 -103v-207
q0 -50 2 -59q8 -34 41 -34q2 0 8.5 1t8.5 1q13 0 13 -7q0 -25 -58 -25t-78 51q-68 -58 -153 -58q-108 0 -108 95q0 52 38 83q57 46 213 72zM262 477l-130 81q-17 10 -34 21q-21 15 -21 30q0 14 9 25.5t23 11.5q18 0 41 -23l147 -146h-35z" />
    <glyph glyph-name="aacute" unicode="&#xe1;" horiz-adv-x="444" 
d="M292 99v116q-91 -20 -117 -31q-69 -30 -69 -87q0 -79 82 -79q33 0 66 21q38 24 38 60zM292 239v77q0 39 -28.5 63t-74.5 24q-43 0 -61 -9q-26 -14 -26 -51q0 -8 3 -22t3 -19q0 -19 -22 -19q-14 0 -30.5 10t-16.5 23q1 40 43 74q49 40 125 39q158 -3 158 -103v-207
q0 -50 2 -59q8 -34 41 -34q2 0 8.5 1t8.5 1q13 0 13 -7q0 -25 -58 -25t-78 51q-68 -58 -153 -58q-108 0 -108 95q0 52 38 83q57 46 213 72zM186 477h-35l147 146q23 23 41 23q14 0 23 -11.5t9 -25.5q0 -15 -21 -30q-17 -11 -34 -21z" />
    <glyph glyph-name="acircumflex" unicode="&#xe2;" horiz-adv-x="444" 
d="M292 99v116q-91 -20 -117 -31q-69 -30 -69 -87q0 -79 82 -79q33 0 66 21q38 24 38 60zM292 239v77q0 39 -28.5 63t-74.5 24q-43 0 -61 -9q-26 -14 -26 -51q0 -8 3 -22t3 -19q0 -19 -22 -19q-14 0 -30.5 10t-16.5 23q1 40 43 74q49 40 125 39q158 -3 158 -103v-207
q0 -50 2 -59q8 -34 41 -34q2 0 8.5 1t8.5 1q13 0 13 -7q0 -25 -58 -25t-78 51q-68 -58 -153 -58q-108 0 -108 95q0 52 38 83q57 46 213 72zM224 582l-118 -105h-33l123 167h56l122 -167h-34z" />
    <glyph glyph-name="atilde" unicode="&#xe3;" horiz-adv-x="444" 
d="M292 99v116q-91 -20 -117 -31q-69 -30 -69 -87q0 -79 82 -79q33 0 66 21q38 24 38 60zM292 239v77q0 39 -28.5 63t-74.5 24q-43 0 -61 -9q-26 -14 -26 -51q0 -8 3 -22t3 -19q0 -19 -22 -19q-14 0 -30.5 10t-16.5 23q1 40 43 74q49 40 125 39q158 -3 158 -103v-207
q0 -50 2 -59q8 -34 41 -34q2 0 8.5 1t8.5 1q13 0 13 -7q0 -25 -58 -25t-78 51q-68 -58 -153 -58q-108 0 -108 95q0 52 38 83q57 46 213 72zM86 501v0h-27q5 41 36 70t71 29q23 0 68 -23.5t64 -23.5q41 0 58 50h29q-10 -42 -37 -70q-30 -32 -70 -32q-28 0 -78 25
q-42 21 -59 21q-44 0 -55 -46z" />
    <glyph glyph-name="adieresis" unicode="&#xe4;" horiz-adv-x="444" 
d="M292 99v116q-91 -20 -117 -31q-69 -30 -69 -87q0 -79 82 -79q33 0 66 21q38 24 38 60zM292 239v77q0 39 -28.5 63t-74.5 24q-43 0 -61 -9q-26 -14 -26 -51q0 -8 3 -22t3 -19q0 -19 -22 -19q-14 0 -30.5 10t-16.5 23q1 40 43 74q49 40 125 39q158 -3 158 -103v-207
q0 -50 2 -59q8 -34 41 -34q2 0 8.5 1t8.5 1q13 0 13 -7q0 -25 -58 -25t-78 51q-68 -58 -153 -58q-108 0 -108 95q0 52 38 83q57 46 213 72zM310 595q9 0 25 -21.5t16 -31.5q0 -9 -16 -30.5t-25 -21.5t-25.5 21t-16.5 31t16.5 31.5t25.5 21.5zM136 595q9 0 25.5 -21.5
t16.5 -31.5t-16.5 -31t-25.5 -21t-25.5 21.5t-16.5 30.5t16.5 31t25.5 22z" />
    <glyph glyph-name="aring" unicode="&#xe5;" horiz-adv-x="444" 
d="M292 99v116q-91 -20 -117 -31q-69 -30 -69 -87q0 -79 82 -79q33 0 66 21q38 24 38 60zM292 239v77q0 39 -28.5 63t-74.5 24q-43 0 -61 -9q-26 -14 -26 -51q0 -8 3 -22t3 -19q0 -19 -22 -19q-14 0 -30.5 10t-16.5 23q1 40 43 74q49 40 125 39q158 -3 158 -103v-207
q0 -50 2 -59q8 -34 41 -34q2 0 8.5 1t8.5 1q13 0 13 -7q0 -25 -58 -25t-78 51q-68 -58 -153 -58q-108 0 -108 95q0 52 38 83q57 46 213 72zM223 465q-43 0 -75 32t-32 76q0 43 32 75.5t75 32.5q44 0 76 -32t32 -76q0 -43 -32 -75.5t-76 -32.5zM223 640q-28 0 -47.5 -19.5
t-19.5 -47.5t19.5 -47.5t47.5 -19.5t47.5 19.5t19.5 47.5t-19.5 47.5t-47.5 19.5z" />
    <glyph glyph-name="ae" unicode="&#xe6;" horiz-adv-x="722" 
d="M382 280h197q20 0 20 20q0 41 -34.5 73.5t-76.5 32.5q-44 0 -75 -40.5t-31 -85.5zM305 239v77q0 39 -28.5 63t-74.5 24q-43 0 -61 -9q-26 -14 -26 -51q0 -8 3 -22t3 -19q0 -19 -22 -19q-14 0 -30.5 10t-16.5 23q1 41 43 75q49 40 125 38q56 -2 87 -12q35 -13 63 -45
q55 57 135 57q81 0 135 -64q42 -51 42 -95q0 -12 -6.5 -14.5t-27.5 -2.5h-266q0 -111 58 -169q44 -45 103 -45q51 0 94.5 26t46.5 26q4 0 4 -7q0 -21 -55 -56q-61 -39 -122 -39t-101 24q-29 17 -69 63q-70 -87 -179 -87q-108 0 -108 95q0 52 38 83q57 46 213 72zM305 99v116
q-91 -20 -117 -31q-69 -30 -69 -87q0 -79 82 -79q33 0 66 21q38 24 38 60z" />
    <glyph glyph-name="ccedilla" unicode="&#xe7;" horiz-adv-x="444" 
d="M227 -11q-84 0 -141 63.5t-57 148.5q0 94 65.5 161t159.5 67q42 0 78 -10q41 -11 43 -27q1 -9 1 -59q0 -21 -8 -21q-7 0 -24 23q-45 61 -124 61q-59 0 -91 -53q-27 -45 -27 -107q0 -84 46 -139q49 -58 131 -58q47 0 92 29l45 29q8 0 8 -6q0 -23 -47 -57q-62 -45 -150 -45
zM113 -198l14 30q40 -12 62 -12q21 0 39 11t18 31q0 17 -13 28.5t-31 11.5q-17 0 -25 -6l-23 5l44 99h35l-30 -66q22 6 34 6q31 0 54.5 -19.5t23.5 -49.5q0 -45 -40 -67q-32 -17 -81 -17q-43 0 -81 15z" />
    <glyph glyph-name="egrave" unicode="&#xe8;" horiz-adv-x="444" 
d="M372 253h-266q0 -111 58 -169q44 -45 103 -45q51 0 94.5 26t46.5 26q4 0 4 -7q0 -21 -55 -56q-61 -39 -122 -39q-100 0 -157 78q-45 60 -45 127q0 100 52.5 167.5t143.5 67.5q81 0 135 -64q42 -51 42 -95q0 -12 -6.5 -14.5t-27.5 -2.5zM106 280h197q20 0 20 20
q0 41 -34.5 73.5t-76.5 32.5q-44 0 -75 -40.5t-31 -85.5zM262 477l-130 81q-17 10 -34 21q-21 15 -21 30q0 14 9 25.5t23 11.5q18 0 41 -23l147 -146h-35z" />
    <glyph glyph-name="eacute" unicode="&#xe9;" horiz-adv-x="444" 
d="M372 253h-266q0 -111 58 -169q44 -45 103 -45q51 0 94.5 26t46.5 26q4 0 4 -7q0 -21 -55 -56q-61 -39 -122 -39q-100 0 -157 78q-45 60 -45 127q0 100 52.5 167.5t143.5 67.5q81 0 135 -64q42 -51 42 -95q0 -12 -6.5 -14.5t-27.5 -2.5zM106 280h197q20 0 20 20
q0 41 -34.5 73.5t-76.5 32.5q-44 0 -75 -40.5t-31 -85.5zM186 477h-35l147 146q23 23 41 23q14 0 23 -11.5t9 -25.5q0 -15 -21 -30q-17 -11 -34 -21z" />
    <glyph glyph-name="ecircumflex" unicode="&#xea;" horiz-adv-x="444" 
d="M372 253h-266q0 -111 58 -169q44 -45 103 -45q51 0 94.5 26t46.5 26q4 0 4 -7q0 -21 -55 -56q-61 -39 -122 -39q-100 0 -157 78q-45 60 -45 127q0 100 52.5 167.5t143.5 67.5q81 0 135 -64q42 -51 42 -95q0 -12 -6.5 -14.5t-27.5 -2.5zM106 280h197q20 0 20 20
q0 41 -34.5 73.5t-76.5 32.5q-44 0 -75 -40.5t-31 -85.5zM224 582l-118 -105h-33l123 167h56l122 -167h-34z" />
    <glyph glyph-name="edieresis" unicode="&#xeb;" horiz-adv-x="444" 
d="M372 253h-266q0 -111 58 -169q44 -45 103 -45q51 0 94.5 26t46.5 26q4 0 4 -7q0 -21 -55 -56q-61 -39 -122 -39q-100 0 -157 78q-45 60 -45 127q0 100 52.5 167.5t143.5 67.5q81 0 135 -64q42 -51 42 -95q0 -12 -6.5 -14.5t-27.5 -2.5zM106 280h197q20 0 20 20
q0 41 -34.5 73.5t-76.5 32.5q-44 0 -75 -40.5t-31 -85.5zM310 595q9 0 25 -21.5t16 -31.5q0 -9 -16 -30.5t-25 -21.5t-25.5 21t-16.5 31t16.5 31.5t25.5 21.5zM136 595q9 0 25.5 -21.5t16.5 -31.5t-16.5 -31t-25.5 -21t-25.5 21.5t-16.5 30.5t16.5 31t25.5 22z" />
    <glyph glyph-name="igrave" unicode="&#xec;" horiz-adv-x="278" 
d="M106 85v236q0 26 -14 36q-7 5 -27 9q-14 2 -14 10q0 9 9 11q35 10 69 32q28 18 38 18q12 0 12 -16v-359q0 -29 39.5 -37t39.5 -18q0 -7 -14 -7h-157q-24 0 -25 7q0 9 11 11q15 3 22 12q11 15 11 55zM179 477l-130 81q-17 10 -34 21q-21 15 -21 30q0 14 9 25.5t23 11.5
q18 0 41 -23l147 -146h-35z" />
    <glyph glyph-name="iacute" unicode="&#xed;" horiz-adv-x="278" 
d="M106 85v236q0 26 -14 36q-7 5 -27 9q-14 2 -14 10q0 9 9 11q35 10 69 32q28 18 38 18q12 0 12 -16v-359q0 -29 39.5 -37t39.5 -18q0 -7 -14 -7h-157q-24 0 -25 7q0 9 11 11q15 3 22 12q11 15 11 55zM103 477h-35l147 146q23 23 41 23q14 0 23 -11.5t9 -25.5
q0 -15 -21 -30q-17 -11 -34 -21z" />
    <glyph glyph-name="icircumflex" unicode="&#xee;" horiz-adv-x="278" 
d="M106 85v236q0 26 -14 36q-7 5 -27 9q-14 2 -14 10q0 9 9 11q35 10 69 32q28 18 38 18q12 0 12 -16v-359q0 -29 39.5 -37t39.5 -18q0 -7 -14 -7h-157q-24 0 -25 7q0 9 11 11q15 3 22 12q11 15 11 55zM141 582l-118 -105h-33l123 167h56l122 -167h-34z" />
    <glyph glyph-name="idieresis" unicode="&#xef;" horiz-adv-x="278" 
d="M106 85v236q0 26 -14 36q-7 5 -27 9q-14 2 -14 10q0 9 9 11q35 10 69 32q28 18 38 18q12 0 12 -16v-359q0 -29 39.5 -37t39.5 -18q0 -7 -14 -7h-157q-24 0 -25 7q0 9 11 11q15 3 22 12q11 15 11 55zM227 595q9 0 25 -21.5t16 -31.5q0 -9 -16 -30.5t-25 -21.5t-25.5 21
t-16.5 31t16.5 31.5t25.5 21.5zM53 595q9 0 25.5 -21.5t16.5 -31.5t-16.5 -31t-25.5 -21t-25.5 21.5t-16.5 30.5t16.5 31t25.5 22z" />
    <glyph glyph-name="eth" unicode="&#xf0;" 
d="M258 10q137 0 137 181q0 88 -36 147q-44 69 -126 69q-69 0 -106 -54q-32 -46 -32 -117q0 -86 38 -150q45 -76 125 -76zM273 643l128 64q10 6 16 6q10 0 10 -10q0 -14 -13 -21l-121 -61q93 -118 129 -198q43 -97 43 -217q0 -92 -62 -154.5t-154 -62.5q-100 0 -162 56.5
t-62 155.5q0 93 64.5 160.5t158.5 67.5q4 0 22 -2t27 -2q23 0 23 27q0 51 -73 146l-111 -56q-10 -5 -15 -5q-11 0 -11 9q0 15 13 22l106 53q-28 34 -68 78q-31 34 -31 35q0 11 11 11q10 0 46 -26q43 -31 86 -76z" />
    <glyph glyph-name="ntilde" unicode="&#xf1;" horiz-adv-x="556" 
d="M161 307v-230q0 -30 23 -42q10 -5 42 -11q23 -4 23 -14q0 -14 -22 -14q-3 0 -32 2t-63 2q-32 0 -58 -2t-27 -2q-18 0 -18 12q0 7 15 11q21 6 29 13q15 13 15 41v248q0 26 -19 36q-9 5 -36 9q-19 2 -19 10q0 9 9 11q47 10 86 32q32 18 40 18q12 0 12 -16v-66q8 7 15 14
q24 24 49 38q38 22 81 22q90 0 132 -65q31 -49 31 -122v-165q0 -30 20 -42q9 -5 38 -11q20 -4 20 -14q0 -14 -17 -14q-2 0 -30 2t-57 2q-22 0 -45.5 -2t-26.5 -2q-18 0 -18 12q0 7 11 11q15 6 21 13q11 13 11 41v187q0 44 -28 81q-34 44 -89 44t-90 -33q-28 -25 -28 -45z
M142 501v0h-27q5 41 36 70t71 29q23 0 68 -23.5t64 -23.5q41 0 58 50h29q-10 -42 -37 -70q-30 -32 -70 -32q-28 0 -78 25q-42 21 -59 21q-44 0 -55 -46z" />
    <glyph glyph-name="ograve" unicode="&#xf2;" 
d="M254 -11q-100 0 -162 56.5t-62 155.5q0 93 64.5 160.5t158.5 67.5q80 0 137 -42q80 -58 80 -181q0 -92 -62 -154.5t-154 -62.5zM263 10q137 0 137 181q0 88 -36 147q-44 69 -126 69q-69 0 -106 -54q-32 -46 -32 -117q0 -86 38 -150q45 -76 125 -76zM290 477l-130 81
q-17 10 -34 21q-21 15 -21 30q0 14 9 25.5t23 11.5q18 0 41 -23l147 -146h-35z" />
    <glyph glyph-name="oacute" unicode="&#xf3;" 
d="M254 -11q-100 0 -162 56.5t-62 155.5q0 93 64.5 160.5t158.5 67.5q80 0 137 -42q80 -58 80 -181q0 -92 -62 -154.5t-154 -62.5zM263 10q137 0 137 181q0 88 -36 147q-44 69 -126 69q-69 0 -106 -54q-32 -46 -32 -117q0 -86 38 -150q45 -76 125 -76zM214 477h-35l147 146
q23 23 41 23q14 0 23 -11.5t9 -25.5q0 -15 -21 -30q-17 -11 -34 -21z" />
    <glyph glyph-name="ocircumflex" unicode="&#xf4;" 
d="M254 -11q-100 0 -162 56.5t-62 155.5q0 93 64.5 160.5t158.5 67.5q80 0 137 -42q80 -58 80 -181q0 -92 -62 -154.5t-154 -62.5zM263 10q137 0 137 181q0 88 -36 147q-44 69 -126 69q-69 0 -106 -54q-32 -46 -32 -117q0 -86 38 -150q45 -76 125 -76zM252 582l-118 -105
h-33l123 167h56l122 -167h-34z" />
    <glyph glyph-name="otilde" unicode="&#xf5;" 
d="M254 -11q-100 0 -162 56.5t-62 155.5q0 93 64.5 160.5t158.5 67.5q80 0 137 -42q80 -58 80 -181q0 -92 -62 -154.5t-154 -62.5zM263 10q137 0 137 181q0 88 -36 147q-44 69 -126 69q-69 0 -106 -54q-32 -46 -32 -117q0 -86 38 -150q45 -76 125 -76zM114 501v0h-27
q5 41 36 70t71 29q23 0 68 -23.5t64 -23.5q41 0 58 50h29q-10 -42 -37 -70q-30 -32 -70 -32q-28 0 -78 25q-42 21 -59 21q-44 0 -55 -46z" />
    <glyph glyph-name="odieresis" unicode="&#xf6;" 
d="M254 -11q-100 0 -162 56.5t-62 155.5q0 93 64.5 160.5t158.5 67.5q80 0 137 -42q80 -58 80 -181q0 -92 -62 -154.5t-154 -62.5zM263 10q137 0 137 181q0 88 -36 147q-44 69 -126 69q-69 0 -106 -54q-32 -46 -32 -117q0 -86 38 -150q45 -76 125 -76zM338 595q9 0 25 -21.5
t16 -31.5q0 -9 -16 -30.5t-25 -21.5t-25.5 21t-16.5 31t16.5 31.5t25.5 21.5zM164 595q9 0 25.5 -21.5t16.5 -31.5t-16.5 -31t-25.5 -21t-25.5 21.5t-16.5 30.5t16.5 31t25.5 22z" />
    <glyph glyph-name="divide" unicode="&#xf7;" horiz-adv-x="606" 
d="M81 336h443v-54h-443v54zM240 150q0 26 18.5 45t44.5 19t44.5 -19t18.5 -45t-18.5 -44.5t-44.5 -18.5t-44.5 18.5t-18.5 44.5zM240 467q0 26 18.5 45t44.5 19t44.5 -19t18.5 -45t-18.5 -44.5t-44.5 -18.5t-44.5 18.5t-18.5 44.5z" />
    <glyph glyph-name="oslash" unicode="&#xf8;" 
d="M351 356l-173 -316q35 -30 85 -30q137 0 137 181q0 105 -49 165zM153 66l171 314q-37 27 -86 27q-69 0 -106 -54q-32 -46 -32 -117q0 -106 53 -170zM159 5l-66 -122h-39l74 137q-98 55 -98 181q0 93 64.5 160.5t158.5 67.5q49 0 90 -17l52 97h39l-60 -111q96 -54 96 -192
q0 -92 -62 -154.5t-154 -62.5q-53 0 -95 16z" />
    <glyph glyph-name="ugrave" unicode="&#xf9;" 
d="M351 95v261q0 21 -26.5 24.5t-26.5 13.5q0 9 17 9t46.5 5.5t44.5 5.5q18 0 18 -24v-346q0 -13 31.5 -18.5t31.5 -16.5q0 -9 -37 -9q-24 0 -54 -5q-22 -6 -34 -6q-9 0 -9 15v55h-2q-46 -70 -133 -70q-62 0 -104 36t-42 98v233q0 21 -26.5 24.5t-26.5 13.5q0 9 17 9
t46.5 5.5t44.5 5.5q18 0 18 -24v-253q0 -67 44 -96q25 -17 53 -17q41 0 75 24t34 47zM290 477l-130 81q-17 10 -34 21q-21 15 -21 30q0 14 9 25.5t23 11.5q18 0 41 -23l147 -146h-35z" />
    <glyph glyph-name="uacute" unicode="&#xfa;" 
d="M351 95v261q0 21 -26.5 24.5t-26.5 13.5q0 9 17 9t46.5 5.5t44.5 5.5q18 0 18 -24v-346q0 -13 31.5 -18.5t31.5 -16.5q0 -9 -37 -9q-24 0 -54 -5q-22 -6 -34 -6q-9 0 -9 15v55h-2q-46 -70 -133 -70q-62 0 -104 36t-42 98v233q0 21 -26.5 24.5t-26.5 13.5q0 9 17 9
t46.5 5.5t44.5 5.5q18 0 18 -24v-253q0 -67 44 -96q25 -17 53 -17q41 0 75 24t34 47zM214 477h-35l147 146q23 23 41 23q14 0 23 -11.5t9 -25.5q0 -15 -21 -30q-17 -11 -34 -21z" />
    <glyph glyph-name="ucircumflex" unicode="&#xfb;" 
d="M351 95v261q0 21 -26.5 24.5t-26.5 13.5q0 9 17 9t46.5 5.5t44.5 5.5q18 0 18 -24v-346q0 -13 31.5 -18.5t31.5 -16.5q0 -9 -37 -9q-24 0 -54 -5q-22 -6 -34 -6q-9 0 -9 15v55h-2q-46 -70 -133 -70q-62 0 -104 36t-42 98v233q0 21 -26.5 24.5t-26.5 13.5q0 9 17 9
t46.5 5.5t44.5 5.5q18 0 18 -24v-253q0 -67 44 -96q25 -17 53 -17q41 0 75 24t34 47zM252 582l-118 -105h-33l123 167h56l122 -167h-34z" />
    <glyph glyph-name="udieresis" unicode="&#xfc;" 
d="M351 95v261q0 21 -26.5 24.5t-26.5 13.5q0 9 17 9t46.5 5.5t44.5 5.5q18 0 18 -24v-346q0 -13 31.5 -18.5t31.5 -16.5q0 -9 -37 -9q-24 0 -54 -5q-22 -6 -34 -6q-9 0 -9 15v55h-2q-46 -70 -133 -70q-62 0 -104 36t-42 98v233q0 21 -26.5 24.5t-26.5 13.5q0 9 17 9
t46.5 5.5t44.5 5.5q18 0 18 -24v-253q0 -67 44 -96q25 -17 53 -17q41 0 75 24t34 47zM338 595q9 0 25 -21.5t16 -31.5q0 -9 -16 -30.5t-25 -21.5t-25.5 21t-16.5 31t16.5 31.5t25.5 21.5zM164 595q9 0 25.5 -21.5t16.5 -31.5t-16.5 -31t-25.5 -21t-25.5 21.5t-16.5 30.5
t16.5 31t25.5 22z" />
    <glyph glyph-name="yacute" unicode="&#xfd;" horiz-adv-x="444" 
d="M378 348l-190 -548q-1 -3 -33 -3q-37 0 -37 7q0 4 45.5 66.5t45.5 108.5q0 18 -20 67l-131 323q-5 12 -26 21.5t-21 15.5q0 12 20 12q10 0 33 -2t37 -2q20 0 44 2t30 2q21 0 21 -13q0 -8 -28.5 -13.5t-28.5 -27.5q0 -11 4 -20q2 -1 3 -2l-2 -2l107 -272l77 226
q12 35 12 52q0 31 -32 42.5t-32 18.5q0 11 30 11q4 0 22 -2t34 -2q13 0 30.5 2t20.5 2q19 0 19 -12q0 -8 -19 -15q-23 -9 -35 -43zM186 477h-35l147 146q23 23 41 23q14 0 23 -11.5t9 -25.5q0 -15 -21 -30q-17 -11 -34 -21z" />
    <glyph glyph-name="thorn" unicode="&#xfe;" 
d="M149 303v-199q0 -39 40 -66q37 -25 90 -25q64 0 100 54q31 46 31 113q0 78 -36 135q-43 67 -116 67q-45 0 -74 -20q-20 -15 -30 -38q-7 -17 -5 -21zM149 729v-366q71 66 137 66q85 0 134 -60q45 -56 45 -143q0 -85 -48 -153q-60 -84 -165 -84q-49 0 -103 27v-145
q0 -29 24 -41q11 -6 44 -11q24 -4 24 -13q0 -8 -16 -9q6 0 -28 0h-138q-35 0 -35 7q0 9 26 22.5t26 48.5v754q0 26 -18 36q-8 5 -32 9q-18 2 -18 10q0 9 9 11q43 10 80 32q31 18 40 18q12 0 12 -16z" />
    <glyph glyph-name="ydieresis" unicode="&#xff;" horiz-adv-x="444" 
d="M378 348l-190 -548q-1 -3 -33 -3q-37 0 -37 7q0 4 45.5 66.5t45.5 108.5q0 18 -20 67l-131 323q-5 12 -26 21.5t-21 15.5q0 12 20 12q10 0 33 -2t37 -2q20 0 44 2t30 2q21 0 21 -13q0 -8 -28.5 -13.5t-28.5 -27.5q0 -11 4 -20q2 -1 3 -2l-2 -2l107 -272l77 226
q12 35 12 52q0 31 -32 42.5t-32 18.5q0 11 30 11q4 0 22 -2t34 -2q13 0 30.5 2t20.5 2q19 0 19 -12q0 -8 -19 -15q-23 -9 -35 -43zM310 595q9 0 25 -21.5t16 -31.5q0 -9 -16 -30.5t-25 -21.5t-25.5 21t-16.5 31t16.5 31.5t25.5 21.5zM136 595q9 0 25.5 -21.5t16.5 -31.5
t-16.5 -31t-25.5 -21t-25.5 21.5t-16.5 30.5t16.5 31t25.5 22z" />
    <glyph glyph-name="dotlessi" unicode="&#x131;" horiz-adv-x="278" 
d="M106 85v236q0 26 -14 36q-7 5 -27 9q-14 2 -14 10q0 9 9 11q35 10 69 32q28 18 38 18q12 0 12 -16v-359q0 -29 39.5 -37t39.5 -18q0 -7 -14 -7h-157q-24 0 -25 7q0 9 11 11q15 3 22 12q11 15 11 55z" />
    <glyph glyph-name="Lslash" unicode="&#x141;" horiz-adv-x="556" 
d="M181 605v-181l95 66v-51l-95 -66v-254q0 -53 7 -64q12 -19 69 -19q102 0 172 27q48 18 79 49q28 27 27 27q8 0 8 -12q0 -42 -50 -97q-22 -24 -45 -30q-13 -4 -53 -4q-31 0 -114 3q-72 2 -114 1q-12 0 -61 -2q-38 -2 -61 -2q-15 0 -15 10q1 8 18 16l26 10q18 9 24 31
q4 16 4 56v197l-79 -54v51l79 54v259q0 29 -42 45t-42 20q0 13 20 13q18 0 50 -2t76 -2q30 0 50 1q14 1 19.5 2t1.5 1q19 0 19 -14q0 -8 -19 -13q-24 -7 -35 -16q-19 -18 -19 -56z" />
    <glyph glyph-name="lslash" unicode="&#x142;" horiz-adv-x="278" 
d="M177 729v-257l65 54v-56l-65 -54v-339q0 -30 22 -42q9 -5 39 -11q22 -4 22 -14q0 -8 -10 -9q-3 -1 -28 -1h-155q-12 0 -12 9q0 4 24.5 17t24.5 38v299l-65 -54v56l65 54v210q0 26 -18 36q-8 5 -32 9q-18 2 -18 10q0 9 9 11q43 10 80 32q31 18 40 18q12 0 12 -16z" />
    <glyph glyph-name="OE" unicode="&#x152;" horiz-adv-x="1000" 
d="M571 199v307q0 94 -53 135q-48 37 -148 37q-133 0 -203 -83q-66 -79 -66 -217q0 -135 83 -241q92 -118 232 -118q76 0 113 38q42 43 42 142zM650 599v-186q0 -26 4.5 -30t33.5 -4h93q46 0 67 21q13 12 20 38q6 21 14 21q11 0 11 -19q0 -18 -1 -51.5t-1 -49.5q0 -13 1 -39
t1 -40q0 -13 -11 -13t-16 23q-7 32 -14 42q-15 23 -51 23h-133q-14 0 -17 -10q-1 -4 -1 -22v-184q0 -54 5 -64q10 -19 60 -19q102 0 172 27q48 18 79 49q28 27 27 27q8 0 8 -12q0 -42 -50 -97q-22 -24 -45 -30q-13 -4 -53 -4q-38 0 -114 2t-114 2h-133q-30 0 -71 -5.5
t-46 -5.5q-160 0 -255 102t-95 262q0 153 99 254q95 97 229 97q29 0 115 -2t122 -2q71 0 205 2t138 2q10 0 10 -22q0 -119 -20 -119q-13 0 -15 27q-2 34 -9 44q-16 22 -80 27q-13 1 -90 1q-62 0 -70.5 -6.5t-8.5 -56.5z" />
    <glyph glyph-name="oe" unicode="&#x153;" horiz-adv-x="778" 
d="M257 9q133 0 133 176q0 120 -56 179q-42 44 -98 44q-70 0 -104 -54q-28 -45 -28 -119q0 -83 35 -147q42 -79 118 -79zM457 280h195q15 0 15 20q0 42 -33.5 73.5t-75.5 31.5q-43 0 -72 -40t-29 -85zM717 253h-260q0 -111 58 -169q44 -45 103 -45q44 0 87 26t47 26t4 -7
q0 -23 -51 -57q-58 -38 -119 -38q-107 0 -165 88q-59 -88 -189 -88q-90 0 -147 63q-55 60 -55 151q0 93 61.5 159.5t153.5 66.5q107 0 175 -85q18 35 64 60t96 25q77 0 129 -64q42 -52 42 -95q0 -12 -6.5 -14.5t-27.5 -2.5z" />
    <glyph glyph-name="Scaron" unicode="&#x160;" horiz-adv-x="556" 
d="M60 44l-25 129q-6 31 11 31q9 0 13 -9l6 -24q13 -50 58 -92q61 -58 152 -58q77 0 130 40q58 43 58 118q0 79 -105 117l-196 66q-105 52 -105 163q0 90 68 142q61 46 154 46q53 0 94 -9q27 -6 51 -18q20 -9 23 -9q4 0 10 5.5t11 5.5q10 0 12 -14l15 -136q2 -15 -11 -15
q-11 0 -21 30q-22 63 -72.5 96.5t-118.5 33.5q-66 0 -111 -30q-52 -36 -52 -100q0 -76 105 -114q98 -34 196 -67q105 -56 105 -173q0 -80 -58 -136q-75 -74 -228 -74q-52 0 -111 21q-55 19 -58 34zM279 824l116 106h34l-122 -167h-56l-123 167h36z" />
    <glyph glyph-name="scaron" unicode="&#x161;" horiz-adv-x="333" 
d="M161 185q-62 31 -81 45q-40 33 -40 79q0 57 40 90q37 30 95 30q19 0 51 -6q39 -7 47 -17q5 -6 5 -49q0 -31 0 -30q-1 -9 -11 -9q-2 0 -13 23q-13 27 -30 41q-27 23 -67 23q-30 0 -50 -17t-20 -47q0 -25 26.5 -44.5t104.5 -51.5q83 -34 83 -119q0 -56 -40 -96.5t-95 -40.5
q-41 0 -73.5 14.5t-38.5 14.5q-16 0 -19 10.5t-3 69.5q0 49 12 49q7 0 17 -34q12 -43 28 -64q27 -34 74 -34q38 0 63.5 22t25.5 60q0 34 -31 57q-7 5 -60 31zM167 538l116 106h34l-122 -167h-56l-123 167h36z" />
    <glyph glyph-name="Ydieresis" unicode="&#x178;" horiz-adv-x="611" 
d="M250 374l-167 267q-15 24 -47 34q-28 8 -28 14q0 15 13 15q8 0 41.5 -2t72.5 -2q19 0 43.5 2t26.5 2q19 0 19 -10q0 -7 -23.5 -19t-23.5 -28q0 -12 18 -41l121 -193q11 -18 20 -18q7 0 19 20l103 167q21 34 21 55q0 28 -37.5 35.5t-37.5 16.5q0 15 21 15q12 0 36.5 -2
t36.5 -2q15 0 44 2t43 2q11 0 11 -12q0 -7 -8.5 -11.5t-15.5 -7.5q-19 -11 -56 -69l-140 -218q-24 -37 -24 -45v-245q0 -38 21 -55q10 -8 40 -17q21 -7 21 -18q0 -10 -23 -10q-5 0 -47 2t-63 2q-27 0 -58.5 -2l-31.5 -2q-15 0 -15 12q0 10 20 16q28 7 37 13q20 13 20 44v242
q0 14 -23 51zM393 881q9 0 25 -21.5t16 -31.5q0 -9 -16 -30.5t-25 -21.5t-25.5 21t-16.5 31t16.5 31.5t25.5 21.5zM219 881q9 0 25.5 -21.5t16.5 -31.5t-16.5 -31t-25.5 -21t-25.5 21.5t-16.5 30.5t16.5 31t25.5 22z" />
    <glyph glyph-name="Zcaron" unicode="&#x17d;" horiz-adv-x="556" 
d="M498 654l-338 -566q-15 -25 -15 -33q0 -14 39 -14h186q57 0 92 17q19 10 41 33q17 17 30 17q4 0 6 -6q3 -5 0 -11l-35 -66q-13 -25 -50 -25h-408q-17 0 -17 15q0 7 7 19l353 589q17 28 17 30q0 6 -8 6h-210q-61 0 -90 -27q-17 -16 -27 -51q-9 -27 -19 -27q-14 0 -14 12
l14 103q3 22 8.5 26.5t29.5 4.5h389q29 0 29 -16q0 -13 -10 -30zM279 824l116 106h34l-122 -167h-56l-123 167h36z" />
    <glyph glyph-name="zcaron" unicode="&#x17e;" horiz-adv-x="333" 
d="M264 336l-177 -277h142q27 0 42 18q6 9 15 35q7 18 15 18q10 0 10 -9q0 -8 -13.5 -49t-13.5 -47q0 -25 -26 -25h-214q-15 0 -15 13q0 7 9 21l203 319h-137q-33 0 -43.5 -27.5t-21.5 -27.5q-9 0 -9 12q0 14 11 55q12 49 22 49h219q19 0 19 -16q0 -4 -37 -62zM167 538
l116 106h34l-122 -167h-56l-123 167h36z" />
    <glyph glyph-name="florin" unicode="&#x192;" 
d="M287 424h56q19 0 19 -20q0 -17 -18 -17h-65q-14 0 -16 -20l-40 -331q-13 -106 -38 -155q-38 -74 -118 -74q-35 0 -35 27q0 62 26 62q11 0 18.5 -27t23.5 -27q31 0 40 76l56 457q1 12 -14 12h-68q-13 0 -13 17q0 20 22 20h68q11 0 16 17q0 1 7 46q16 98 73 163
q52 61 109 61q32 0 43.5 -9t11.5 -31q0 -45 -17 -45q-4 0 -24 22t-45 22q-38 0 -68 -88q-27 -79 -27 -150q0 -8 17 -8z" />
    <glyph glyph-name="circumflex" unicode="&#x2c6;" horiz-adv-x="333" 
d="M168 582l-118 -105h-33l123 167h56l122 -167h-34z" />
    <glyph glyph-name="caron" unicode="&#x2c7;" horiz-adv-x="333" 
d="M167 538l116 106h34l-122 -167h-56l-123 167h36z" />
    <glyph glyph-name="breve" unicode="&#x2d8;" horiz-adv-x="333" 
d="M27 632h27q3 -43 35.5 -71.5t75.5 -28.5q45 0 76 27.5t36 72.5h28q-4 -71 -40 -111q-38 -44 -107 -44q-61 0 -100 48q-36 45 -31 107z" />
    <glyph glyph-name="dotaccent" unicode="&#x2d9;" horiz-adv-x="333" 
d="M166 595q9 0 25.5 -21.5t16.5 -31.5t-16.5 -31t-25.5 -21t-25.5 21.5t-16.5 30.5t16.5 31t25.5 22z" />
    <glyph glyph-name="ring" unicode="&#x2da;" horiz-adv-x="333" 
d="M207 465q-43 0 -75 32t-32 76q0 43 32 75.5t75 32.5q44 0 76 -32t32 -76q0 -43 -32 -75.5t-76 -32.5zM207 640q-28 0 -47.5 -19.5t-19.5 -47.5t19.5 -47.5t47.5 -19.5t47.5 19.5t19.5 47.5t-19.5 47.5t-47.5 19.5z" />
    <glyph glyph-name="ogonek" unicode="&#x2db;" horiz-adv-x="333" 
d="M239 -68l16 -21q-62 -56 -113 -56q-27 0 -45.5 18.5t-18.5 46.5q0 50 50 80h37v-2q-40 -27 -40 -61q0 -17 12 -29t29 -12q37 0 73 36z" />
    <glyph glyph-name="tilde" unicode="&#x2dc;" horiz-adv-x="333" 
d="M30 501v0h-27q5 41 36 70t71 29q23 0 68 -23.5t64 -23.5q41 0 58 50h29q-10 -42 -37 -70q-30 -32 -70 -32q-28 0 -78 25q-42 21 -59 21q-44 0 -55 -46z" />
    <glyph glyph-name="hungarumlaut" unicode="&#x2dd;" horiz-adv-x="333" 
d="M-13 477h-35l147 146q23 23 41 23q14 0 23 -11.5t9 -25.5q0 -15 -21 -30q-17 -11 -34 -21zM197 477h-35l147 146q23 23 41 23q14 0 23 -11.5t9 -25.5q0 -15 -21 -30q-17 -11 -34 -21z" />
    <glyph glyph-name="endash" unicode="&#x2013;" 
d="M500 197h-500v46h500v-46z" />
    <glyph glyph-name="emdash" unicode="&#x2014;" horiz-adv-x="1000" 
d="M1000 197h-1000v46h1000v-46z" />
    <glyph glyph-name="quoteleft" unicode="&#x2018;" horiz-adv-x="222" 
d="M113 433q-19 0 -40 28q-25 33 -25 78q0 66 41 119q35 46 63 46q9 0 9 -10q0 -1 -27 -30.5t-27 -70.5q0 -29 17 -52q10 -13 33 -30q17 -14 17 -19q0 -12 -24 -35.5t-37 -23.5z" />
    <glyph glyph-name="quoteright" unicode="&#x2019;" horiz-adv-x="222" 
d="M109 704q19 0 40 -28q25 -33 25 -78q0 -66 -41 -119q-35 -46 -63 -46q-9 0 -9 10q0 1 27 30.5t27 70.5q0 29 -17 52q-10 13 -33 30q-17 14 -17 19q0 12 24 35.5t37 23.5z" />
    <glyph glyph-name="quotesinglbase" unicode="&#x201a;" horiz-adv-x="222" 
d="M109 126q19 0 40 -28q25 -33 25 -78q0 -66 -41 -119q-35 -46 -63 -46q-9 0 -9 10q0 1 27 30.5t27 70.5q0 29 -17 52q-10 13 -33 30q-17 14 -17 19q0 12 24 35.5t37 23.5z" />
    <glyph glyph-name="quotedblleft" unicode="&#x201c;" horiz-adv-x="389" 
d="M101 433q-19 0 -40 28q-25 33 -25 78q0 66 41 119q35 46 63 46q9 0 9 -10q0 -1 -27 -30.5t-27 -70.5q0 -29 17 -52q10 -13 33 -30q17 -14 17 -19q0 -12 -24 -35.5t-37 -23.5zM292 433q-19 0 -40 28q-25 33 -25 78q0 66 41 119q35 46 63 46q9 0 9 -10q0 -1 -27 -30.5
t-27 -70.5q0 -29 17 -52q10 -13 33 -30q17 -14 17 -19q0 -12 -24 -35.5t-37 -23.5z" />
    <glyph glyph-name="quotedblright" unicode="&#x201d;" horiz-adv-x="389" 
d="M288 704q19 0 40 -28q25 -33 25 -78q0 -66 -41 -119q-35 -46 -63 -46q-9 0 -9 10q0 1 27 30.5t27 70.5q0 29 -17 52q-10 13 -33 30q-17 14 -17 19q0 12 24 35.5t37 23.5zM97 704q19 0 40 -28q25 -33 25 -78q0 -66 -41 -119q-35 -46 -63 -46q-9 0 -9 10q0 1 27 30.5
t27 70.5q0 29 -17 52q-10 13 -33 30q-17 14 -17 19q0 12 24 35.5t37 23.5z" />
    <glyph glyph-name="quotedblbase" unicode="&#x201e;" horiz-adv-x="389" 
d="M288 125q19 0 40 -28q25 -33 25 -78q0 -66 -41 -119q-35 -46 -63 -46q-9 0 -9 10q0 1 27 30.5t27 70.5q0 29 -17 52q-10 13 -33 30q-17 14 -17 19q0 12 24 35.5t37 23.5zM97 125q19 0 40 -28q25 -33 25 -78q0 -66 -41 -119q-35 -46 -63 -46q-9 0 -9 10q0 1 27 30.5
t27 70.5q0 29 -17 52q-10 13 -33 30q-17 14 -17 19q0 12 24 35.5t37 23.5z" />
    <glyph glyph-name="dagger" unicode="&#x2020;" 
d="M260 -112h-20q-1 143 -6 204q-9 114 -37 200q28 33 36 87q4 21 6 96q-47 0 -83.5 -17t-57.5 -17q-42 0 -42 45q0 16 11.5 29t30.5 13q21 0 57.5 -17.5t83.5 -17.5q2 46 -17 103t-19 73q0 19 14.5 31.5t32.5 12.5t32.5 -12.5t14.5 -31.5q0 -16 -19 -73t-17 -103
q47 0 83.5 17.5t57.5 17.5q19 0 30.5 -13t11.5 -29q0 -45 -42 -45q-21 0 -57.5 17t-83.5 17q2 -75 6 -96q8 -54 36 -87q-28 -86 -37 -200q-5 -61 -6 -204z" />
    <glyph glyph-name="daggerdbl" unicode="&#x2021;" 
d="M98 104q-19 0 -30.5 13t-11.5 29q0 45 42 45q21 0 57.5 -17t83.5 -17q2 121 -40 175q42 54 40 175q-47 0 -83.5 -17t-57.5 -17q-42 0 -42 45q0 16 11.5 29t30.5 13q21 0 57.5 -17.5t83.5 -17.5q2 46 -17 103t-19 73q0 19 14.5 31.5t32.5 12.5t32.5 -12.5t14.5 -31.5
q0 -16 -19 -73t-17 -103q47 0 83.5 17.5t57.5 17.5q19 0 30.5 -13t11.5 -29q0 -45 -42 -45q-21 0 -57.5 17t-83.5 17q-4 -120 40 -175q-44 -55 -40 -175q47 0 83.5 17t57.5 17q42 0 42 -45q0 -16 -11.5 -29t-30.5 -13q-21 0 -57.5 17.5t-83.5 17.5q-2 -46 17 -103t19 -73
q0 -19 -14.5 -31.5t-32.5 -12.5t-32.5 12.5t-14.5 31.5q0 16 19 73t17 103q-47 0 -83.5 -17.5t-57.5 -17.5z" />
    <glyph glyph-name="bullet" unicode="&#x2022;" horiz-adv-x="606" 
d="M127 352q0 73 51.5 124.5t124.5 51.5t124.5 -51.5t51.5 -124.5t-51.5 -124.5t-124.5 -51.5t-124.5 51.5t-51.5 124.5z" />
    <glyph glyph-name="ellipsis" unicode="&#x2026;" horiz-adv-x="1000" 
d="M102 64q0 7 9 12q15 9 23.5 18.5t19.5 25.5q5 8 12 8q8 0 13 -7q12 -18 19.5 -26.5t22.5 -17.5q9 -6 9 -13t-9 -14q-15 -11 -23.5 -19.5t-18.5 -22.5q-5 -8 -13 -8q-7 0 -13 7q-12 17 -18.5 23.5t-23.5 19.5q-9 7 -9 14zM436 64q0 7 9 12q15 9 23.5 18.5t19.5 25.5
q5 8 12 8q8 0 13 -7q12 -18 19.5 -26.5t22.5 -17.5q9 -6 9 -13t-9 -14q-15 -11 -23.5 -19.5t-18.5 -22.5q-5 -8 -13 -8q-7 0 -13 7q-12 17 -18.5 23.5t-23.5 19.5q-9 7 -9 14zM770 64q0 7 9 12q15 9 23.5 18.5t19.5 25.5q5 8 12 8q8 0 13 -7q12 -18 19.5 -26.5t22.5 -17.5
q9 -6 9 -13t-9 -14q-15 -11 -23.5 -19.5t-18.5 -22.5q-5 -8 -13 -8q-7 0 -13 7q-12 17 -18.5 23.5t-23.5 19.5q-9 7 -9 14z" />
    <glyph glyph-name="perthousand" unicode="&#x2030;" horiz-adv-x="1000" 
d="M147 -6h-40l389 710h40zM474 0q-69 0 -110 54q-39 49 -39 119q0 66 43 108.5t109 42.5q69 0 114 -46.5t45 -115.5q0 -73 -44.5 -117.5t-117.5 -44.5zM471 302q-44 0 -66 -41q-17 -32 -17 -80q0 -59 18 -102q25 -57 76 -57q91 0 91 122q0 158 -102 158zM836 0
q-69 0 -110 54q-39 49 -39 119q0 66 43 108.5t109 42.5q69 0 114 -46.5t45 -115.5q0 -73 -44.5 -117.5t-117.5 -44.5zM833 302q-44 0 -66 -41q-17 -32 -17 -80q0 -59 18 -102q25 -57 76 -57q91 0 91 122q0 158 -102 158zM151 376q-69 0 -110 54q-39 49 -39 119
q0 66 43 108.5t109 42.5q69 0 114 -46.5t45 -115.5q0 -73 -44.5 -117.5t-117.5 -44.5zM148 678q-44 0 -66 -41q-17 -32 -17 -80q0 -59 18 -102q25 -57 76 -57q91 0 91 122q0 158 -102 158z" />
    <glyph glyph-name="guilsinglleft" unicode="&#x2039;" horiz-adv-x="333" 
d="M152 227q40 -41 72 -88q30 -43 30 -55q0 -9 -6 -9q-7 0 -39 31q-50 49 -65 62q-12 10 -48 36q-18 13 -18 23t18 23q36 26 49.5 37.5t63.5 60.5q32 31 39 31q6 0 6 -9q0 -12 -30 -55q-32 -47 -72 -88z" />
    <glyph glyph-name="guilsinglright" unicode="&#x203a;" horiz-adv-x="333" 
d="M180 227q-40 41 -72 88q-30 43 -30 55q0 9 6 9q7 0 39 -31q50 -49 65 -62q12 -10 48 -36q18 -13 18 -23t-18 -23q-36 -26 -48 -36q-15 -13 -65 -62q-32 -31 -39 -31q-6 0 -6 9q0 12 30 55q32 47 72 88z" />
    <glyph glyph-name="fraction" unicode="&#x2044;" horiz-adv-x="167" 
d="M-124 0h-44l457 704h44z" />
    <glyph glyph-name="trademark" unicode="&#x2122;" horiz-adv-x="979" 
d="M103 617v83h294v-83h-22q0 38 -17 50q-13 10 -54 10h-26v-274q0 -25 49 -27v-19h-155v19q49 2 49 27v274h-20q-44 0 -57 -8q-19 -11 -19 -52h-22zM555 700l106 -253l101 253h105v-18q-34 0 -34 -14v-251q0 -26 7.5 -33t35.5 -8v-19h-142v19q28 1 35.5 8t7.5 33v245h-7
l-120 -305h-8l-122 305h-7v-259q0 -25 49 -27v-19h-122v19q49 2 49 27v265q0 14 -34 14v18h100z" />
    <glyph glyph-name="fi" unicode="&#xf001;" 
d="M401 421v-359q0 -29 39.5 -37t39.5 -18q0 -7 -14 -7h-157q-24 0 -25 7q0 9 11 11q15 3 22 12q11 15 11 55v236q0 37 -3 42q-6 12 -37 12h-129v-304q0 -28 18 -40q9 -5 35 -10q18 -4 18 -12q0 -9 -21 -9h-155q-16 0 -16 6q0 7 24 18.5t24 38.5v312h-68l6 41h62
q0 117 59 211q23 36 63 67q52 40 99 40q69 0 69 -21q0 -71 -15 -71q-4 0 -12 14.5t-22 22.5q-22 13 -62 13q-36 0 -66 -38q-24 -33 -32 -74t-8 -164h147q46 0 66 10.5t17 10.5q12 0 12 -16z" />
    <glyph glyph-name="fl" unicode="&#xf002;" 
d="M326 64v602q-28 18 -65 18t-66 -34q-25 -30 -32 -69q-8 -42 -8 -165h77q15 0 27.5 8.5t11.5 8.5q7 0 7 -8q0 -3 -6 -14l-20 -36h-97v-304q0 -28 18 -40q9 -5 35 -10q18 -4 18 -12q0 -9 -21 -9h-155q-16 0 -16 6q0 7 24 18.5t24 38.5v312h-68l6 41h62q0 117 59 211
q23 36 63 67q52 40 99 40q6 0 29 -3.5t24 -3.5q8 0 17.5 9t13.5 9q12 0 12 -16v-652q0 -30 22 -42q9 -5 39 -11q22 -4 22 -14q0 -8 -10 -9q-3 -1 -28 -1h-155q-12 0 -12 9q0 4 24.5 17t24.5 38z" />
    <glyph glyph-name="NULL" horiz-adv-x="0" 
 />
    <glyph glyph-name="_231" horiz-adv-x="250" 
 />
  </font>
</defs>
</svg>
