<?xml version="1.0" standalone="no"?>
<!DOCTYPE svg PUBLIC "-//W3C//DTD SVG 1.1//EN" "http://www.w3.org/Graphics/SVG/1.1/DTD/svg11.dtd" >
<svg xmlns="http://www.w3.org/2000/svg" xmlns:xlink="http://www.w3.org/1999/xlink" version="1.1">
<metadata>
Created by FontForge 20201107 at Mon Jan  1 16:55:34 2024
 By 
Copyright (c) 1985, 1987, 1990, 1998 Adobe Systems Incorporated.  All Rights Reserved.
</metadata>
<defs>
<font id="Goudy-Italic" horiz-adv-x="1024" >
  <font-face 
    font-family="Goudy"
    font-weight="400"
    font-style="italic"
    font-stretch="normal"
    units-per-em="2048"
    panose-1="2 2 5 0 0 0 0 0 0 0"
    ascent="1638"
    descent="-410"
    x-height="895"
    cap-height="1442"
    bbox="-342 -512 2060 1948"
    underline-thickness="102"
    underline-position="-204"
    slope="-7"
    unicode-range="U+0020-FB02"
  />
<missing-glyph horiz-adv-x="512" 
 />
    <glyph glyph-name=".notdef" horiz-adv-x="512" 
 />
    <glyph glyph-name=".null" horiz-adv-x="0" 
 />
    <glyph glyph-name="nonmarkingreturn" horiz-adv-x="682" 
 />
    <glyph glyph-name="space" unicode=" " horiz-adv-x="512" 
 />
    <glyph glyph-name="space" unicode="&#xa0;" horiz-adv-x="512" 
 />
    <glyph glyph-name="exclam" unicode="!" horiz-adv-x="681" 
d="M242 -8q-10 0 -53.5 51.5t-43.5 62.5q0 12 50 66.5t73 54.5q10 0 53.5 -52t43.5 -64q0 -11 -50 -65t-73 -54zM436 1042l-121 -657q0 -4 -5 -10t-13 -6q-4 0 -9 5t-5 7l26 688q2 43 2.5 68t4 50t4 36.5t8 23t9.5 14.5t15 6t18 3h25q42 0 55 -9t13 -36q0 -24 -27 -183z" />
    <glyph glyph-name="quotedbl" unicode="&#x22;" horiz-adv-x="909" 
d="M317 971h-67l74 387q8 45 33.5 64.5t52.5 19.5q75 0 84 -58q3 -25 -13 -57zM682 971h-68l74 387q8 45 33.5 64.5t52.5 19.5q75 0 84 -58q3 -27 -12 -57z" />
    <glyph glyph-name="numbersign" unicode="#" 
d="M963 594v-123h-224l-63 -471h-119l64 471h-275l-67 -471h-119l67 471h-219v123h238l43 285h-226v125h242l64 438h118l-63 -438h272l62 438h119l-62 -438h199v-125h-215l-41 -285h205zM680 879h-272l-43 -285h274z" />
    <glyph glyph-name="dollar" unicode="$" 
d="M471 870l66 512q-119 0 -202 -67.5t-83 -184.5q0 -51 17.5 -92.5t51.5 -72.5t68 -52t82 -43zM524 678l-82 -643q145 0 236.5 98.5t91.5 243.5q0 113 -65 182t-181 119zM633 1532l-15 -98q17 0 63 -17.5t98.5 -44.5t93 -67.5t40.5 -79.5q0 -27 -22 -65t-47 -38
q-7 0 -13.5 17.5t-18 46t-31.5 60.5t-64 66.5t-105 57.5l-67 -536q48 -22 80 -38.5t73 -41t67.5 -47t54.5 -54t44 -65.5t26.5 -78t10.5 -94q0 -83 -22.5 -151t-57 -112.5t-81.5 -78.5t-91 -51.5t-90.5 -28.5t-75 -14t-49.5 -3l-24 -217q-5 -44 -9.5 -51.5t-31.5 -7.5
q-3 0 -9.5 -0.5t-11 -0.5t-10 1t-8 4t-2.5 8q0 11 4 47l26 217q-59 0 -134.5 38t-128 89.5t-52.5 88.5q0 41 19.5 109.5t43.5 68.5q13 0 21 -19.5t13 -50.5t19 -69.5t35 -74.5t66 -68.5t107 -49.5l84 672q-68 29 -117 59t-93 73t-66.5 102t-22.5 132q0 90 34.5 160.5
t82 108.5t106 62.5t99.5 32t69 7.5l12 84q7 48 11 53q6 6 30 6q3 0 9.5 0.5t11 0.5t10 -1t8 -4t2.5 -8q0 -11 -4 -47z" />
    <glyph glyph-name="percent" unicode="%" horiz-adv-x="1705" 
d="M1208 -8q-132 0 -203 89t-71 224q0 77 26 153t71.5 138t115 100.5t149.5 38.5q132 0 209.5 -81.5t77.5 -213.5q0 -81 -26 -160t-72.5 -143.5t-119 -104.5t-157.5 -40zM1061 383q0 -35 2.5 -68.5t9.5 -74t21 -73.5t34 -61.5t51.5 -44.5t71.5 -16q41 0 74 15.5t53.5 37
t35 58.5t21.5 64.5t10.5 72t4 64.5t0.5 57q0 268 -197 268q-57 0 -97 -28t-59.5 -75t-27.5 -94.5t-8 -101.5zM403 690q-132 0 -203 89.5t-71 224.5q0 77 26 153t72 138t115.5 100.5t149.5 38.5q132 0 209 -81.5t77 -213.5q0 -81 -26 -160t-72.5 -144t-119 -105t-157.5 -40z
M256 1081q0 -35 2.5 -68.5t9.5 -74t21 -73.5t34 -61.5t51.5 -44.5t71.5 -16q41 0 74 15.5t53.5 37t35 58.5t21.5 64.5t10.5 72t4 64.5t0.5 57q0 268 -196 268q-57 0 -97 -28t-60 -75t-28 -94.5t-8 -101.5zM334 0l936 1442h90l-934 -1442h-92z" />
    <glyph glyph-name="ampersand" unicode="&#x26;" horiz-adv-x="1705" 
d="M725 850q0 70 -92 70q-70 0 -121 -33q17 -56 53.5 -80.5t96.5 -24.5q24 0 43.5 21.5t19.5 46.5zM1673 1214q0 -67 -29 -130t-73 -111t-106 -92.5t-117.5 -74t-118.5 -56.5q64 -31 95.5 -91t31.5 -135q0 -92 -49 -188t-135 -176t-218 -131.5t-282 -51.5q-111 0 -201 23
t-146 57.5t-98 83.5t-62 91t-32 89.5t-14 71t-2 43.5q0 153 87.5 290.5t227.5 193.5q-16 49 -16 118q0 178 125 300t303 122q89 0 159 -46t70 -130q0 -58 -40.5 -101.5t-98.5 -43.5q-16 0 -23 1t-11.5 7t-4.5 18q0 29 16.5 55t16.5 40q0 45 -49.5 67.5t-100.5 22.5
q-44 0 -92.5 -20.5t-94 -59t-75 -104.5t-29.5 -146q0 -41 7 -70q14 5 34.5 13t30.5 11t32.5 6t55.5 3q42 0 80 -11.5t67 -41t29 -72.5q0 -72 -49.5 -111.5t-122.5 -39.5q-64 0 -119 45t-83 108q-183 -91 -183 -307q0 -135 63 -247.5t174.5 -178.5t246.5 -66q82 0 169.5 30
t160.5 82t120 130t47 166q0 96 -49.5 150.5t-144.5 54.5q-73 0 -118.5 -46t-45.5 -118q0 -31 20.5 -65.5t48.5 -34.5q25 0 42 7t23 15.5t14 15.5t18 7q20 0 20 -17q0 -45 -37.5 -69.5t-91.5 -24.5t-90 36t-49.5 82t-13.5 95q0 51 21 94.5t50 72.5t77 57t83.5 43t87.5 34
q41 15 68 26t74 30.5t80 38t74.5 43.5t69.5 52t53.5 58.5t38.5 67.5t13 75q0 73 -40.5 116.5t-110.5 39.5q-46 -1 -77.5 -36t-31.5 -71q0 -28 17.5 -41t38 -14t38 -11t17.5 -32q0 -30 -25 -57t-61 -27q-57 0 -87 40t-30 99q0 89 62 147t151 58q103 0 166 -71t63 -175z" />
    <glyph glyph-name="quotesingle" unicode="'" horiz-adv-x="569" 
d="M307 971h-67l73 387q8 45 33.5 64.5t52.5 19.5q75 0 84 -58q3 -27 -12 -57z" />
    <glyph glyph-name="parenleft" unicode="(" horiz-adv-x="796" 
d="M143 510q0 155 47.5 317.5t128.5 309.5q53 98 175.5 243.5t156.5 145.5q25 0 25 -17q0 -19 -23 -45q-354 -394 -354 -1007q0 -339 104 -578q5 -13 23 -42.5t31.5 -54.5t13.5 -34q0 -22 -14 -22q-36 0 -90.5 81t-85.5 152q-69 155 -103.5 281.5t-34.5 269.5z" />
    <glyph glyph-name="parenright" unicode=")" horiz-adv-x="796" 
d="M567 741q0 -305 -176 -626q-53 -98 -175.5 -243.5t-156.5 -145.5q-24 0 -24 16q0 21 22 45q355 395 355 1008q0 336 -105 577q-5 13 -22.5 42.5t-31 54.5t-13.5 34q0 23 14 23q36 0 90.5 -81.5t85.5 -152.5q69 -154 103 -281t34 -270z" />
    <glyph glyph-name="asterisk" unicode="*" 
d="M508 1460q34 0 55 -25t21 -59q0 -22 -16.5 -69.5t-30.5 -110.5t-11 -125q61 34 109 76.5t70 72t45.5 50t46.5 20.5q37 0 58.5 -21t21.5 -59q0 -40 -32.5 -60.5t-77 -26t-110 -27t-114.5 -58.5q52 -37 118.5 -58t110 -26.5t74.5 -25.5t31 -60q0 -35 -21 -55t-57 -20
q-24 0 -45.5 16t-42.5 42t-44.5 54t-60.5 57.5t-80 47.5q0 -79 9 -134t20 -76t20 -45t9 -48q0 -35 -23.5 -62t-58.5 -27q-33 0 -51.5 26.5t-18.5 60.5q0 27 8.5 49.5t19 41t19 74t8.5 140.5q-61 -36 -108.5 -79t-69 -71t-47 -47.5t-53.5 -19.5q-35 0 -54.5 20.5t-19.5 56.5
q0 39 31 59t74.5 26t111 27t121.5 56q-53 37 -120.5 58.5t-111.5 28t-75 28.5t-31 66q0 32 23 51.5t55 19.5q23 0 52.5 -25t56 -58.5t72 -73t93.5 -62.5q3 75 -10 133.5t-27 100t-14 73.5q0 33 20 57.5t52 24.5z" />
    <glyph glyph-name="plus" unicode="+" horiz-adv-x="1241" 
d="M555 584v452h131v-452h451v-131h-451v-453h-131v453h-451v131h451z" />
    <glyph glyph-name="comma" unicode="," horiz-adv-x="681" 
d="M369 225q14 0 34.5 -20t40 -67.5t19.5 -108.5q0 -56 -26 -119t-61 -108.5t-69.5 -76t-52.5 -30.5q-21 0 -21 20q0 8 19 31t41.5 49.5t41.5 70t19 87.5q0 41 -10.5 66.5t-25.5 35.5t-30 15.5t-25.5 14t-10.5 24.5q0 27 41.5 71.5t75.5 44.5z" />
    <glyph glyph-name="hyphen" unicode="-" horiz-adv-x="681" 
d="M150 451l380 135q43 16 52 16q8 0 10 -18t2 -82q0 -13 -64 -37l-380 -135q-45 -17 -52 -17q-8 0 -10 18.5t-2 82.5q0 13 64 37z" />
    <glyph glyph-name="hyphen" unicode="&#xad;" horiz-adv-x="681" 
d="M150 451l380 135q43 16 52 16q8 0 10 -18t2 -82q0 -13 -64 -37l-380 -135q-45 -17 -52 -17q-8 0 -10 18.5t-2 82.5q0 13 64 37z" />
    <glyph glyph-name="period" unicode="." horiz-adv-x="681" 
d="M332 -8q-10 0 -53 51.5t-43 62.5q0 12 49.5 66.5t72.5 54.5q10 0 53.5 -52t43.5 -64q0 -11 -50 -65t-73 -54z" />
    <glyph glyph-name="slash" unicode="/" horiz-adv-x="569" 
d="M-16 -207l462 1733h138l-465 -1733h-135z" />
    <glyph glyph-name="zero" unicode="0" 
d="M477 78q71 0 130 34.5t97.5 88.5t68.5 125t45.5 137.5t25.5 133t13 104.5t3 59q0 129 -29.5 242t-76 187t-101.5 116.5t-108 42.5q-83 0 -151 -51.5t-110 -130t-70.5 -177.5t-40 -187t-11.5 -165q0 -52 9.5 -118.5t33 -145.5t57.5 -143.5t90.5 -108t124.5 -43.5z
M588 1442q71 0 129 -24t96 -61.5t67 -90t44 -103t24.5 -107t12 -95t2.5 -74.5q0 -116 -21 -239.5t-66 -243.5t-107.5 -215t-152.5 -153.5t-194 -58.5q-71 0 -129 24t-96 61.5t-67 90t-44 103t-24.5 107t-12 95t-2.5 74.5q0 114 23.5 239t70.5 244.5t110 214.5t151.5 153.5
t185.5 58.5z" />
    <glyph glyph-name="one" unicode="1" 
d="M383 197l121 923q4 36 4 78q0 13 -1.5 23.5t-3.5 18t-6.5 13.5t-7.5 9.5t-8.5 6.5t-9 4.5t-9.5 2t-8.5 0.5h-8.5h-7q-8 0 -29.5 -4t-29.5 -4q-23 0 -23 20q0 17 26.5 28.5t93.5 35t128 55.5q10 5 22 14.5t22 15t22 5.5q10 0 10 -29q0 -28 -8 -74l-135 -1060
q-15 -101 -15 -125q0 -40 17 -64t41 -31.5t48 -11t41 -9.5t17 -20q0 -26 -22 -26q-27 0 -93.5 4t-101.5 4q-42 0 -120 -4t-113 -4q-23 0 -23 20q0 21 14.5 26.5t36.5 6.5t45.5 9t44 43.5t29.5 99.5z" />
    <glyph glyph-name="two" unicode="2" 
d="M350 141h258q51 0 90.5 15t62.5 36t39.5 42t30.5 36t27 15q19 0 19 -23q0 -19 -58.5 -114.5t-68.5 -135.5q-5 -20 -37 -20q-67 0 -203 4t-203 4q-42 0 -114.5 -4t-98.5 -4q-22 0 -22 14q0 27 53 88q314 345 471.5 598.5t157.5 433.5q0 104 -62.5 160.5t-167.5 56.5
q-58 0 -107 -18.5t-74.5 -41.5t-48 -41.5t-34.5 -18.5q-27 0 -27 24q0 7 15.5 28t47.5 49.5t73 54.5t100 44.5t121 18.5q85 0 148.5 -27.5t95 -64t50.5 -84.5t23 -77t4 -54q0 -89 -66 -219.5t-159.5 -255t-187.5 -235.5t-160 -185.5t-66 -81.5q0 -17 78 -17z" />
    <glyph glyph-name="three" unicode="3" 
d="M412 725q-42 0 -81 -7t-44 -7q-25 0 -25 20q0 3 2 6.5t5.5 7t7 6t9.5 6t9.5 5t10 4.5t7.5 4q48 25 82 44t82 49.5t80 61t63 68.5t46.5 83t15.5 93q0 96 -57.5 143.5t-157.5 47.5q-46 0 -86.5 -12t-62.5 -27t-40 -27t-24 -12q-12 0 -19.5 8t-7.5 17q0 18 45.5 50t120 58.5
t139.5 26.5q72 0 138 -25.5t112.5 -81t46.5 -129.5q0 -60 -30.5 -118t-74 -100t-87.5 -76t-74.5 -58.5t-30.5 -34.5q0 -5 18 -8.5t46.5 -9.5t63.5 -16t70 -31.5t63.5 -51.5t46.5 -81t18 -115q0 -85 -57.5 -180t-146.5 -171.5t-206 -127t-227 -50.5q-30 0 -85 10.5t-58 32.5
q-12 110 -12 119q0 26 6 34.5t18 8.5q15 0 27 -11.5t24.5 -28t31.5 -33t56.5 -28t89.5 -11.5q156 0 271 120.5t115 282.5q0 119 -82 185.5t-211 66.5z" />
    <glyph glyph-name="four" unicode="4" 
d="M664 1163l-494 -594h412l86 590zM827 1346l-104 -777h59q37 0 65 15.5t44.5 31t26.5 15.5q18 0 18 -25q0 -21 -30 -87.5t-54 -82.5q-12 -7 -34.5 -8.5t-108.5 -1.5l-60 -461q-1 -7 -2.5 -22.5t-2.5 -20t-2.5 -15t-3.5 -13t-5 -9.5t-7 -8.5t-10 -5t-13.5 -4t-17 -1.5
t-22.5 -1h-7.5h-8.5t-8.5 0.5t-9.5 1.5t-8 2.5t-7.5 4t-5.5 6t-4.5 9t-1.5 11.5q0 25 4 53l57 473h-540q-9 0 -16 8.5t-7 20.5q0 27 10 39l764 907q3 4 9 11.5t8.5 10.5t7 7.5t7 6.5t7 3.5t8.5 1.5q13 0 14.5 -15.5t-4.5 -49.5q-3 -19 -4 -31z" />
    <glyph glyph-name="five" unicode="5" 
d="M352 1245l-39 -139q-1 -4 -4.5 -16.5t-5.5 -23.5t-2 -24q0 -20 23.5 -23t92 -10t140.5 -30q272 -89 272 -381q0 -163 -95.5 -308t-244 -229t-303.5 -84q-7 0 -25.5 -1t-29.5 -0.5t-25.5 2t-24 7.5t-15.5 15q-17 27 -29 77.5t-12 84.5q0 24 20 24q13 0 32 -18t40 -39
t68.5 -39t109.5 -18q40 0 89 15t104 50.5t100 86t74.5 131.5t29.5 177q0 144 -78.5 222t-226.5 106q-13 2 -69.5 6.5t-95 11.5t-38.5 17q0 20 10.5 78t44.5 177.5t83 244.5q16 47 28 47q32 0 146 -4q118 -4 188 -4q53 0 91.5 15.5t54.5 34.5t29.5 34.5t23.5 15.5
q20 0 20 -27q0 -26 -37.5 -114t-62.5 -99q-12 -4 -187 -4q-53 0 -128.5 5t-81.5 5q-11 0 -17 -1t-13.5 -6.5t-13 -17t-10.5 -30.5z" />
    <glyph glyph-name="six" unicode="6" 
d="M80 473q0 203 83 395.5t230 335.5q103 99 236 168.5t256 69.5q26 0 26 -15q0 -26 -22 -28q-212 -39 -388 -220t-227 -395l5 -4q47 63 121.5 101.5t156.5 38.5q116 0 203.5 -66.5t129.5 -165.5t42 -211q0 -137 -56 -250t-163 -181.5t-246 -68.5q-95 0 -171 44.5t-122 117
t-70 158.5t-24 176zM496 834q-71 0 -124.5 -29.5t-84 -80t-45.5 -109.5t-15 -126q0 -59 9 -118t30.5 -120t54.5 -107t85.5 -75.5t117.5 -29.5q71 0 124.5 39.5t81.5 103t41 128.5t13 130q0 72 -15.5 138.5t-47.5 125.5t-90 94.5t-135 35.5z" />
    <glyph glyph-name="seven" unicode="7" 
d="M260 1434h651q23 0 35.5 4.5t14.5 10.5t8.5 10.5t19.5 4.5q17 0 22 -6.5t5 -17.5q0 -18 -35 -86l-633 -1186q-5 -9 -15 -28t-13 -24.5t-10.5 -20t-9 -20.5t-6 -18t-5.5 -20.5t-3 -21t-2.5 -25.5t-0.5 -29q0 -37 -16 -48t-68 -11h-17h-17t-15 0.5t-14.5 1t-12 2.5t-11 4.5
t-8.5 6.5t-7 9t-3.5 12t-1.5 15q0 14 5.5 31.5t16.5 38.5t18.5 34.5t22 36t17.5 27.5l653 1079q31 53 31 74q0 8 -22 8h-453q-52 0 -85 -13t-46 -32t-20 -37.5t-15.5 -31.5t-24.5 -13q-4 0 -7.5 1t-5.5 1.5t-3.5 3t-2 4t-1 6t-0.5 6v7.5v8q0 24 34 133t56 109z" />
    <glyph glyph-name="eight" unicode="8" 
d="M434 33q45 0 88 8t92 32t85.5 61.5t60.5 104t24 152.5q0 68 -35.5 126t-84.5 92.5t-103 58.5t-89 33.5t-44 9.5q-8 0 -34.5 -11.5t-68 -41t-78.5 -70.5t-64 -110.5t-27 -151.5q0 -131 75.5 -212t202.5 -81zM532 1376q-104 0 -189 -73t-85 -177q0 -61 33 -114t79 -86
t95.5 -57t81 -34t37.5 -10t28.5 8.5t58 30t67.5 52.5t55.5 83t23.5 113q0 124 -80.5 194t-204.5 70zM420 -23q-39 0 -82 8t-97.5 32.5t-96 64t-70.5 110t-29 162.5q0 68 28.5 131.5t77 113t104 87t118.5 66.5q-112 68 -160.5 147t-48.5 184q0 104 57.5 187.5t148 127.5
t191.5 44q96 0 177 -35.5t132.5 -108.5t51.5 -172q0 -122 -73.5 -205t-195.5 -126q262 -107 262 -375q0 -86 -26.5 -157t-70.5 -117.5t-96.5 -81t-110 -52.5t-104.5 -26.5t-87 -8.5z" />
    <glyph glyph-name="nine" unicode="9" 
d="M506 588q71 0 124.5 29.5t84 79.5t45 109t14.5 126q0 59 -9 118t-30.5 120t-54.5 107t-85.5 75.5t-117.5 29.5q-71 0 -124.5 -39.5t-81.5 -103t-41 -128.5t-13 -130q0 -72 15.5 -138t47.5 -125t90.5 -94.5t135.5 -35.5zM924 946q0 -203 -83.5 -395t-230.5 -336
q-103 -99 -235.5 -168.5t-255.5 -69.5q-27 0 -27 15q0 25 23 28q212 39 387.5 220t226.5 395l-4 4q-47 -63 -122 -101t-157 -38q-87 0 -159.5 38.5t-118.5 101.5t-71 141t-25 161q0 137 56 250t163 181.5t246 68.5q95 0 171 -44.5t122 -117t70 -158.5t24 -176z" />
    <glyph glyph-name="colon" unicode=":" horiz-adv-x="681" 
d="M297 -8q-10 0 -53 51.5t-43 62.5q0 12 50 66.5t73 54.5q10 0 53 -52t43 -64q0 -11 -50 -65t-73 -54zM367 608q-10 0 -53.5 52t-43.5 63q0 12 50 66.5t73 54.5q10 0 53 -52.5t43 -64.5q0 -11 -49.5 -65t-72.5 -54z" />
    <glyph glyph-name="semicolon" unicode=";" horiz-adv-x="681" 
d="M319 225q14 0 35 -20t40.5 -67.5t19.5 -108.5q0 -56 -26 -119t-61 -108.5t-69.5 -76t-52.5 -30.5q-21 0 -21 20q0 8 19 31t41.5 49.5t41.5 70t19 87.5q0 41 -10.5 66.5t-25.5 35.5t-30 15.5t-25.5 14t-10.5 24.5q0 27 41 71.5t75 44.5zM352 612q-10 0 -53 52t-43 63
q0 12 50 66.5t73 54.5q10 0 53 -52.5t43 -64.5q0 -11 -50 -65t-73 -54z" />
    <glyph glyph-name="less" unicode="&#x3c;" horiz-adv-x="1241" 
d="M1143 111v-127l-1043 479v110l1043 480v-127l-877 -408z" />
    <glyph glyph-name="equal" unicode="=" horiz-adv-x="1241" 
d="M1137 782v-129h-1033v129h1033zM1137 383v-129h-1033v129h1033z" />
    <glyph glyph-name="greater" unicode="&#x3e;" horiz-adv-x="1241" 
d="M98 111l877 407l-877 408v127l1043 -480v-110l-1043 -479v127z" />
    <glyph glyph-name="question" unicode="?" horiz-adv-x="796" 
d="M406 1251q88 0 156.5 -64t68.5 -151q0 -47 -33.5 -106.5t-81 -117.5l-95 -116t-81 -119.5t-33.5 -111.5q0 -25 3 -44.5t3 -25.5q0 -24 -18 -24q-22 0 -30.5 41.5t-8.5 85.5q0 59 37 139.5t82 146.5t82 136t37 110q0 64 -43 104t-107 40q-24 0 -52 -13t-46.5 -26
t-20.5 -13q-7 0 -11.5 4.5t-4.5 8.5q0 30 58.5 73t138.5 43zM244 -8q-10 0 -53.5 51.5t-43.5 62.5q0 12 50 66.5t73 54.5q10 0 53.5 -52t43.5 -64q0 -11 -50 -65t-73 -54z" />
    <glyph glyph-name="at" unicode="@" horiz-adv-x="1529" 
d="M592 358q67 0 125 57.5t92.5 140.5t54 166t19.5 144t-29.5 110.5t-87.5 49.5q-54 0 -104.5 -33.5t-87.5 -86t-65 -115.5t-42 -123.5t-14 -108.5q0 -74 35 -137.5t104 -63.5zM922 909l36 148h154l-158 -578q-8 -36 -8 -53q0 -53 68 -53q47 0 105 37t111.5 99t89.5 157.5
t36 199.5q0 146 -78 261.5t-213 179t-301 63.5q-177 0 -326.5 -88.5t-236 -239.5t-86.5 -327q0 -174 87 -323t236.5 -236.5t325.5 -87.5q175 0 315.5 81t237.5 226h104q-98 -181 -275 -289.5t-382 -108.5q-200 0 -370.5 100t-269.5 270t-99 368q0 201 98.5 372.5t269 272
t371.5 100.5q112 0 207.5 -20.5t164 -55.5t123 -83.5t89 -101.5t57.5 -112t32 -112.5t9 -106.5q0 -94 -19.5 -174.5t-51.5 -137.5t-75 -103t-87.5 -74.5t-91 -47.5t-84 -26.5t-68.5 -7.5q-42 0 -72.5 14.5t-47 40.5t-24 55.5t-8.5 65.5h-4q-63 -85 -114.5 -124.5
t-129.5 -39.5q-26 0 -57 7t-70.5 27.5t-70.5 52t-52.5 87.5t-21.5 127q0 92 34 172t85.5 132t113 90t114.5 54.5t91 16.5q77 0 123 -44.5t60 -121.5h4z" />
    <glyph glyph-name="A" unicode="A" horiz-adv-x="1478" 
d="M535 627h432q24 0 24 18q0 17 -16 57l-158 447l-3 9t-3.5 9.5t-3.5 8.5t-3.5 8l-3.5 7t-3.5 6.5t-3.5 4.5t-4.5 3t-4.5 1q-12 0 -41 -55l-247 -451q-23 -46 -23 -57q0 -16 54 -16h8zM1098 336l-64 170q-1 1 -3.5 8t-4.5 11t-6.5 8t-9.5 4h-578q-4 0 -7.5 -0.5t-6 -1.5
t-5.5 -3t-4 -3t-3.5 -5t-3 -4.5t-3 -5.5t-2.5 -6l-157 -315q-19 -48 -19 -74q0 -30 24 -45t53 -17t53 -9.5t24 -24.5q0 -31 -31 -31q-7 0 -65.5 4t-122.5 4q-47 0 -94.5 -4t-57.5 -4q-9 0 -14.5 8t-5.5 16q0 15 14 24.5t34.5 16.5t48 31.5t48.5 63.5l666 1253
q15 30 26.5 42.5t24.5 12.5q20 0 29 -10.5t18 -40.5l401 -1229q16 -50 38.5 -81t42.5 -41t38 -15t28.5 -10t10.5 -19q0 -6 -2 -10.5t-4.5 -7t-7.5 -3.5t-8 -1h-8.5h-6.5q-48 0 -102 4t-70 4q-31 0 -96 -4t-98 -4q-24 0 -33.5 4.5t-9.5 17.5q0 16 22 24t48.5 10.5t48.5 15
t22 36.5q0 99 -49 236z" />
    <glyph glyph-name="B" unicode="B" horiz-adv-x="1251" 
d="M451 1292l-41 -344q-7 -51 -7 -117q0 -10 11 -17.5t31.5 -12t41.5 -7t49.5 -3t47 -1t41.5 0t26 0.5q82 0 142 22t91.5 52.5t49.5 74t22.5 74.5t4.5 67q0 16 -1 29.5t-7.5 46.5t-19 59t-39.5 58t-63.5 54t-95.5 37t-133 15q-24 0 -66 -6.5t-55 -13.5q-8 -5 -18.5 -26.5
t-11.5 -41.5zM182 156l107 1007q6 59 6 92q0 48 -16.5 76t-39.5 36.5t-46 12t-39.5 11.5t-16.5 26q0 9 3 14.5t14 8t17.5 2.5h26.5h15q13 0 93.5 -4t121.5 -4q28 0 112.5 4t155.5 4q84 0 151.5 -16t110 -40t73.5 -58.5t45.5 -64t23 -65.5t9.5 -52.5t1 -35.5
q0 -71 -23.5 -131t-56 -96.5t-74 -65t-68.5 -40t-48 -17.5v-4q6 -2 27.5 -7.5t40.5 -11t46.5 -17.5t50 -27t46 -40.5t40 -56.5t27 -76t10.5 -98q0 -110 -68 -210t-181 -160t-238 -60q-41 0 -205 8q-58 0 -173 -4t-173 -4q-37 0 -37 18q0 22 18.5 32.5t41 14.5t43.5 28.5
t26 70.5zM385 692l-55 -475q-2 -18 -2 -78q0 -48 40.5 -68t129.5 -20q469 0 469 357q0 74 -22.5 131t-74.5 103.5t-147 71.5t-231 25h-7q-38 0 -54.5 -1.5t-30 -12t-15.5 -33.5z" />
    <glyph glyph-name="C" unicode="C" horiz-adv-x="1478" 
d="M1376 1307l8 -277q0 -3 1 -12.5t1.5 -17.5t0 -16.5t-4.5 -13.5t-10 -5q-22 0 -37 43t-36.5 104t-53.5 92q-105 99 -215.5 147t-243.5 48q-35 0 -76.5 -6t-99.5 -25t-112 -49.5t-109 -84.5t-95 -124t-65.5 -175t-25.5 -230q0 -94 20.5 -187t65.5 -180t109 -153t158.5 -106
t205.5 -40q89 0 166 20.5t129.5 53.5t95 72.5t70 79.5t47.5 73t34 53.5t23 20.5q19 0 19 -21q0 -28 -25 -113.5t-31 -119.5q-1 -7 -10 -15t-16 -12q-8 -4 -48 -28t-79.5 -41.5t-102 -39t-149 -33.5t-187.5 -12q-207 0 -356.5 89t-225 245t-75.5 361q0 127 35.5 246
t103 216.5t158.5 171t208.5 114t246.5 40.5q102 0 197 -23.5t150.5 -51t102 -51t62.5 -23.5q14 0 29 19.5t24 19.5t13 -6.5t4.5 -12.5t0.5 -19v-5z" />
    <glyph glyph-name="D" unicode="D" horiz-adv-x="1478" 
d="M436 1241l-125 -999q-8 -65 -8 -105q0 -18 4 -32.5t9 -23.5t17.5 -15.5t19 -10t25.5 -5t26 -2t30 0t29 0.5q124 0 229.5 23t181 61t137.5 93t102 111.5t70 124t45.5 124t24.5 118.5t11 99t2 74q0 100 -29.5 184t-82 144t-125 102t-158.5 62t-183 20q-133 0 -196 -31
q-7 -3 -13 -8t-10.5 -8.5t-8.5 -10.5t-6.5 -10.5t-5 -13t-3.5 -12.5t-3 -14t-2.5 -12.5t-2 -14t-1.5 -13.5zM160 188l127 1020q6 52 6 72q0 36 -18 59t-44 31.5t-52 13t-44 11.5t-18 20q0 27 41 27q53 0 123 -4t86 -4q18 0 153 4t193 4q133 0 242 -22.5t181.5 -57.5
t127.5 -85.5t85 -99.5t48.5 -106.5t24 -100t5.5 -85.5q0 -59 -9.5 -127.5t-36.5 -157t-68.5 -171t-111.5 -163.5t-159 -140.5t-218 -96.5t-281 -37q-60 0 -158.5 4t-142.5 4q-38 0 -105 -4t-92 -4q-12 0 -21.5 7.5t-9.5 16.5q0 13 13 20t32 12.5t39.5 17t38 42.5t23.5 80z
" />
    <glyph glyph-name="E" unicode="E" horiz-adv-x="1251" 
d="M453 1255l-47 -389q-3 -21 -3 -41q0 -8 1 -14.5t2 -10.5t4.5 -7t5 -4.5t8 -2t9.5 -0.5h12h14h270q47 0 81 11.5t50.5 29t28 37.5t16.5 37.5t14 29t21 11.5q18 0 18 -24q0 -32 -12 -104.5t-14 -106.5q-1 -16 -2 -38t-1.5 -36.5t-1.5 -32.5t-2 -30t-3 -25.5t-4 -21.5
t-5.5 -15.5t-8 -10.5t-9.5 -3q-15 0 -21 15t-6 37.5t-4.5 48.5t-15 48.5t-40.5 37.5t-77 15h-305q-38 0 -52 -131q-1 -4 -1 -6l-39 -358q-4 -46 -4 -74q0 -40 21.5 -48.5t117.5 -8.5q114 0 206.5 9.5t152 25t105 35t69.5 40t42 40t26 35t18 25t22 9.5q9 0 16 -6t7 -15
q0 -81 -132 -229q-25 -26 -56 -36.5t-99 -10.5q-52 0 -188 4t-255 4q-116 0 -208.5 -4t-98.5 -4h-11h-10h-8.5h-7t-5.5 1t-5 2t-3.5 3t-2 4.5t-0.5 5.5q0 16 12 24t29.5 11.5t36 9.5t34 27t19.5 57l125 1030q10 72 10 115q0 38 -16 61t-39.5 31.5t-46.5 13t-39 11t-16 20.5
q0 23 57 23q83 0 250 -4t250 -4q22 0 180.5 4t259.5 4q11 0 16 -3.5t5.5 -6.5t0.5 -9v-227q0 -16 -0.5 -24t-3 -21t-9.5 -19t-19 -6q-6 0 -10 2.5t-7 7.5t-5 10t-3 12.5t-2 12.5t-1.5 12t-0.5 9q-6 46 -19 73.5t-38 48.5t-72.5 31t-113.5 14.5t-171 4.5q-1 0 -35 0.5
t-52.5 0t-48.5 -2.5t-50.5 -6.5t-32.5 -12.5q-4 -2 -7 -6.5t-5 -10.5t-3.5 -11t-3 -14.5t-2 -14.5t-2 -16t-1.5 -15z" />
    <glyph glyph-name="F" unicode="F" horiz-adv-x="1138" 
d="M459 1300l-58 -434q-2 -14 -2 -41q0 -8 1 -14.5t2 -10.5t4.5 -7t5 -4.5t8 -2t9.5 -0.5h12h14h256q47 0 81 11.5t50.5 29t28 37.5t16.5 37.5t14 29t21 11.5q6 0 9 -1t6 -7.5t3 -18.5q0 -30 -12.5 -101t-14.5 -107q-1 -18 -2 -45t-2 -44t-2.5 -38.5t-3.5 -35t-5.5 -26
t-8.5 -18.5t-12 -6q-15 0 -21 15t-6 37.5t-4.5 48.5t-15 48.5t-40.5 37.5t-77 15h-291q-38 0 -52 -131q-1 -4 -1 -6l-29 -293l-10 -127q0 -36 21 -55.5t50.5 -25t59 -7t50.5 -8.5t21 -23q0 -19 -5.5 -23.5t-24.5 -4.5q-22 0 -103 4t-123 4q-38 0 -100 -4t-80 -4h-11h-10
h-8.5h-7t-5.5 1t-5 2t-3.5 3t-2 4.5t-0.5 5.5q0 16 12 24t29.5 11.5t36 9.5t34 27t19.5 57l125 1030q10 72 10 115q0 38 -16 61t-39.5 31.5t-46.5 13t-39 11t-16 20.5q0 23 57 23q71 0 209 -4t196 -4q22 0 181 4t260 4q22 0 22 -23q0 -1 -1 -6t-2.5 -15.5t-2.5 -35t-1 -65
t1 -105.5v-13v-14t-0.5 -12.5t-2 -12t-4.5 -9.5t-8 -7t-12 -2q-8 0 -13 4.5t-8 14t-4 16t-2 18.5t-1 13q-6 46 -19 73.5t-38 48.5t-72.5 31t-113.5 14.5t-171 4.5q-84 0 -111 -12.5t-32 -47.5z" />
    <glyph glyph-name="G" unicode="G" horiz-adv-x="1593" 
d="M61 694q0 132 31.5 244t82.5 188.5t119 137.5t137 97t141.5 59t127.5 31.5t99 8.5q108 0 203 -21t148 -46.5t100 -46.5t69 -21q21 0 36 17.5t25 17.5q17 0 17 -33q0 -92 4.5 -162.5t9 -107.5t4.5 -47q0 -8 -5.5 -17.5t-14.5 -9.5q-19 0 -28.5 14.5t-18 42.5t-20.5 60.5
t-44.5 75.5t-81.5 81q-187 146 -399 146q-98 0 -180.5 -23.5t-141.5 -63t-105.5 -95t-75.5 -115.5t-47.5 -129.5t-26 -132.5t-7.5 -127q0 -130 40.5 -251.5t113 -217t183 -153.5t239.5 -58q79 0 166.5 22.5t132.5 67.5q42 41 65.5 112.5t29 134.5t5.5 152q0 48 -9.5 79.5
t-25 44.5t-34.5 18t-38 4t-34.5 -1t-25 5.5t-9.5 21.5t8.5 23.5t17.5 8.5t30 1h5q4 0 67.5 -4t135.5 -4q21 0 74 4t90 4q23 0 29 -4.5t6 -21.5q0 -19 -12 -26t-29.5 -8.5t-36 -6t-33 -24.5t-18.5 -58q-27 -277 -27 -330q0 -37 5 -79t5 -44q0 -22 -20.5 -31.5t-46.5 -9.5
q-23 0 -69.5 -17.5t-97 -38t-138 -38t-183.5 -17.5q-114 0 -217.5 24.5t-196 80t-159.5 137.5t-106.5 203.5t-39.5 271.5z" />
    <glyph glyph-name="H" unicode="H" horiz-adv-x="1593" 
d="M1126 137l56 488q0 6 2 23t2 24q0 16 -7.5 24.5t-14 9.5t-19.5 1h-735q-22 0 -29 -72l-41 -408q-1 -8 -2.5 -23.5t-2.5 -27t-1 -16.5q0 -34 14 -56t35 -30.5t45 -14t45 -8t35 -11t14 -24.5q0 -24 -22 -24q-38 0 -115 4t-115 4q-39 0 -120 -4t-89 -4q-13 0 -19 4t-6.5 8
t-0.5 12q0 18 21 26t47 10.5t49.5 23t27.5 61.5l107 969q8 78 8 158q0 48 -28 74t-61 31t-61 16.5t-28 33.5q0 23 35 23q7 0 69.5 -4t122.5 -4q62 0 143 4t101 4q14 0 19 -6.5t5 -20.5q0 -11 -23 -21.5t-51 -20.5t-54 -40.5t-31 -75.5l-39 -393q-6 -48 -6 -55
q0 -17 12.5 -22t40.5 -5h686q29 0 41.5 16.5t15.5 53.5l25 254q14 137 14 158q0 48 -28 74t-61 31t-61 16.5t-28 33.5q0 23 35 23q7 0 69.5 -4t122.5 -4q62 0 143 4t101 4q25 0 25 -27q0 -11 -23 -21.5t-51.5 -20.5t-54.5 -40.5t-31 -75.5l-115 -1030q-1 -8 -2.5 -23
t-2.5 -26t-1 -18q0 -40 21 -63.5t51 -30.5t60.5 -11t51.5 -12.5t21 -26.5q0 -14 -8 -19t-31 -5q-38 0 -114.5 4t-114.5 4q-41 0 -125 -4l-84 -4q-27 0 -27 22q0 15 14 22t34 11t40.5 10.5t37 26.5t19.5 53z" />
    <glyph glyph-name="I" unicode="I" horiz-adv-x="681" 
d="M195 152l116 946q5 51 10 95t7 62.5t2 32.5q0 33 -17.5 53.5t-43 28t-51 13t-43 14t-17.5 24.5q0 11 9.5 16t35.5 5q1 0 59.5 -4t134.5 -4q47 0 106.5 4t78.5 4h9h8h7t5.5 -0.5t4 -0.5t4 -1t2.5 -2.5t1.5 -3t1 -4t0.5 -5.5q0 -19 -12.5 -27t-30.5 -11.5t-37.5 -11
t-35.5 -34t-22 -73.5l-120 -998q-15 -94 -15 -133q0 -36 16.5 -55.5t40 -25t47 -8t40 -11t16.5 -27.5q0 -12 -7.5 -15t-27.5 -3q-17 0 -87 4t-132 4q-74 0 -129 -4t-57 -4q-29 0 -29 22q0 15 21.5 23t48.5 13.5t52 31t30 70.5z" />
    <glyph glyph-name="J" unicode="J" horiz-adv-x="681" 
d="M508 1278l-129 -1036q-14 -112 -54.5 -203t-90.5 -145t-108 -90.5t-103 -50t-80 -13.5q-88 0 -88 55q0 26 17 89t44 63q15 0 27 -16.5t20 -36t24.5 -36t39.5 -16.5q37 0 66 16.5t50.5 51t37.5 75t28.5 103.5t21 119.5t17.5 138.5l82 723q18 162 18 223q0 39 -29.5 60.5
t-64.5 26t-64.5 15t-29.5 29.5q0 9 7 14t17 5q5 0 70 -4t133 -4q87 0 158 4t78 4q8 0 16 -6.5t8 -16.5q0 -16 -12.5 -23.5t-31.5 -11.5t-38.5 -12t-35.5 -31.5t-21 -62.5z" />
    <glyph glyph-name="K" unicode="K" horiz-adv-x="1366" 
d="M479 807l557 401q56 39 81.5 76t25.5 57q0 18 -16.5 27.5t-36 11t-36 11.5t-16.5 30q0 8 6 14.5t15 6.5q34 0 102.5 -4t102.5 -4q24 0 70 4t69 4q20 0 27.5 -4.5t7.5 -20.5q0 -12 -8 -19t-21.5 -11t-40.5 -17t-55 -33l-674 -501q-11 -9 -26 -20t-23.5 -17.5t-17 -14
t-12 -12.5t-3.5 -10q0 -3 1.5 -6t5 -8t7 -9.5t9.5 -12t10.5 -12.5t12.5 -14t13 -14l445 -518q37 -43 77.5 -71.5t70 -39t54 -16.5t37.5 -11.5t13 -17.5q0 -20 -10 -20q-16 0 -53.5 4t-57.5 4q-32 0 -67.5 -2t-58 -4t-24.5 -2q-7 0 -14.5 5t-12.5 10t-14.5 17t-13.5 17
l-514 598q-29 33 -41 33q-10 0 -18 -2.5t-14 -9t-10.5 -12t-8.5 -16t-6 -16.5t-4 -18.5t-2.5 -17t-2 -16.5t-1.5 -13l-31 -279q-8 -73 -8 -96q0 -41 14 -68t34.5 -37.5t44.5 -17t44.5 -8t34.5 -8.5t14 -21q0 -9 -3.5 -14t-15 -7t-20 -2.5t-30.5 -0.5h-15q-26 0 -76 4t-76 4
q-38 0 -113.5 -4t-113.5 -4q-22 0 -22 18q0 17 14 25t34 12.5t41 12.5t38.5 31.5t21.5 62.5l113 999q10 82 10 127q0 41 -19.5 64t-47 29.5t-55 9t-47 10.5t-19.5 26q0 23 32 23q4 0 28 -2t73 -4t114 -2q58 0 118.5 4t78.5 4h9q9 1 16 1t15.5 -1.5t13.5 -6t5 -12.5
q0 -20 -22.5 -29.5t-50 -13.5t-53.5 -27.5t-31 -68.5l-60 -469q0 -5 -1 -17t-1 -18q0 -18 15 -18q4 0 69 45z" />
    <glyph glyph-name="L" unicode="L" horiz-adv-x="1138" 
d="M172 180l123 957q12 89 12 120q0 48 -19.5 76t-47.5 35.5t-56 11t-47.5 11.5t-19.5 28q0 11 6.5 17t15.5 6q25 0 125.5 -4t163.5 -4q28 0 84 4t84 4q7 0 14.5 -6t7.5 -17q0 -17 -21.5 -26t-48 -13.5t-51.5 -28.5t-30 -67l-148 -1083q-4 -46 -4 -74q0 -39 22 -48t118 -9
q114 0 206.5 9.5t152 25t105 35t69.5 40t42 40t26 35t18 25t22 9.5q9 0 15.5 -6t6.5 -15q0 -82 -131 -229q-25 -26 -56 -36.5t-100 -10.5q-53 0 -188 4t-254 4q-78 0 -176 -4t-133 -4q-66 0 -73 5q-5 4 -5 13q0 14 11 20t27.5 6t36.5 6t38.5 17t34.5 42t22 79z" />
    <glyph glyph-name="M" unicode="M" horiz-adv-x="1820" 
d="M1415 215v766q0 37 -16 37q-13 0 -70 -103l-338 -655q-44 -86 -73.5 -158.5t-37.5 -92t-18 -19.5q-6 0 -12.5 8.5t-14.5 24.5t-14.5 31t-15.5 36.5t-14 32.5l-390 858q-12 29 -24 29q-8 0 -13 -16t-12 -56l-108 -625q-17 -96 -17 -170q0 -43 30 -66.5t65.5 -27.5
t65.5 -11t30 -20q0 -26 -25 -26q-4 0 -72.5 4t-127.5 4q-47 0 -102 -4t-56 -4q-31 0 -31 20q0 15 10.5 21.5t26.5 11.5t33.5 15t34.5 38.5t26 75.5l121 617q37 188 37 294q0 92 -18 153.5t-45 86.5t-59 38.5t-59 15t-45 11t-18 31.5q0 21 14 21q27 0 83 -4t83 -4q26 0 59 4
t44 4q38 0 129 -223q6 -13 8 -19q116 -278 263 -604t163 -326q22 0 193.5 333.5t291.5 596.5q81 176 100 209t36 33q16 0 47 -4t47 -4q14 0 45 4t45 4q9 0 14.5 -7t5.5 -16q0 -17 -16 -24.5t-38 -13t-44.5 -17t-38.5 -44t-16 -85.5v-1045q0 -43 10 -72t26.5 -41.5t36 -18.5
t39 -6t36 -1t26.5 -6.5t10 -19.5q0 -18 -11.5 -25.5t-43.5 -7.5q-6 0 -35.5 2t-76 4t-93.5 2q-63 0 -124 -4t-71 -4q-41 0 -41 31q0 11 12 16.5t29.5 8t38.5 12t38.5 24.5t29.5 49t12 82z" />
    <glyph glyph-name="N" unicode="N" horiz-adv-x="1593" 
d="M160 182l116 676q33 191 33 313q0 64 -16 107.5t-39.5 62t-51 30.5t-51 15t-39.5 12t-16 25q0 8 6.5 13.5t16.5 5.5q3 0 42.5 -4t76.5 -4q35 0 72 4t44 4q8 0 13 -1t19 -11.5t31.5 -31t48 -62t69.5 -101.5l616 -932q22 -35 29 -35q14 0 52 188.5t70.5 431.5t32.5 369
q0 44 -11.5 71.5t-28.5 36.5t-36.5 14t-36.5 5.5t-28.5 9t-11.5 25.5q0 14 8.5 18.5t30.5 4.5l55 -4q54 -4 123 -4q45 0 92.5 4t60.5 4q29 0 29 -25q0 -18 -10 -25t-25.5 -6t-34.5 -7t-37 -25t-33 -64t-22 -119q-22 -240 -102.5 -717t-110.5 -477q-10 0 -19 6.5t-19.5 21.5
t-20 30.5t-26 42.5t-31.5 49l-607 920q-50 77 -67 77q-20 0 -35 -100l-92 -582q-29 -179 -29 -286q0 -39 16.5 -62.5t40 -31.5t47 -12t40 -11.5t16.5 -22.5q0 -9 -2 -14.5t-8 -7.5t-9 -2.5t-14 0t-14 0.5q-13 0 -82.5 4t-126.5 4q-40 0 -88 -4t-60 -4q-14 0 -17 6t-3 20
q0 15 14.5 22.5t36 13t44 16t42.5 39t27 73.5z" />
    <glyph glyph-name="O" unicode="O" horiz-adv-x="1593" 
d="M844 1460q140 0 266 -53.5t217.5 -144t145 -216t53.5 -264.5q0 -180 -61.5 -332.5t-166.5 -255t-246 -160t-300 -57.5q-201 0 -359.5 75.5t-252 225t-93.5 351.5q0 163 49 302t130 234.5t185.5 163.5t214.5 99.5t218 31.5zM815 1403q-141 0 -258.5 -62.5t-193 -167.5
t-117 -238.5t-41.5 -279.5q0 -124 33.5 -228.5t89 -175t128.5 -120t150.5 -72t157.5 -22.5q102 0 188.5 28.5t147.5 75.5t109 111.5t77 132.5t48 142.5t26.5 137.5t7.5 121q0 128 -37 240t-106 196t-175 132.5t-235 48.5z" />
    <glyph glyph-name="P" unicode="P" horiz-adv-x="1138" 
d="M469 1210l-115 -919q-10 -103 -10 -127q0 -46 20.5 -73t50 -34.5t59.5 -10.5t50.5 -8t20.5 -20q0 -10 -5 -15.5t-16.5 -7.5t-18 -2.5t-20.5 -0.5q-19 0 -84 4t-122 4q-44 0 -108 -4t-73 -4q-6 0 -16 -0.5t-14.5 -0.5t-10.5 1.5t-8 5t-2 10.5q0 21 13 29.5t32.5 11t40 9.5
t37.5 32.5t23 71.5l126 1079q3 21 3 57q0 38 -25 57t-55 21.5t-55 11.5t-25 29q0 25 39 25q12 0 44 -2t96 -4t153 -2q40 0 119.5 4t119.5 4q175 0 273 -85t98 -255q0 -99 -39.5 -182.5t-106.5 -139t-155 -86t-185 -30.5h-31t-31 1t-33.5 3.5t-26 6.5t-21 11t-6.5 16
q0 23 33 23q7 0 30 -2t41 -2q67 0 123 16.5t93 42t65 60.5t43.5 68.5t25 70t12.5 60.5t3 44q0 145 -88 221t-236 76q-48 0 -73.5 -5t-40 -23.5t-19 -41t-9.5 -70.5q-2 -19 -3 -30z" />
    <glyph glyph-name="Q" unicode="Q" horiz-adv-x="1593" 
d="M815 1403q-141 0 -258.5 -62.5t-193 -167.5t-117 -238.5t-41.5 -279.5q0 -124 33.5 -228.5t89 -175t128.5 -120t150.5 -72t157.5 -22.5q102 0 188.5 28.5t147.5 75.5t109 111.5t77 132.5t48 142.5t26.5 137.5t7.5 121q0 128 -37 240t-106 196t-175 132.5t-235 48.5z
M844 1460q140 0 266 -53.5t217.5 -144t145 -216t53.5 -264.5q0 -152 -44 -284.5t-118 -226t-170 -161.5t-200.5 -100.5t-209.5 -32.5v-4q110 -72 283 -147.5t262 -75.5q33 0 61 16.5t42.5 37t29.5 37t25 16.5q20 0 20 -21q0 -10 -8.5 -31t-30.5 -50.5t-53 -55t-82.5 -43.5
t-113.5 -18q-71 0 -202.5 56t-225.5 111q-14 8 -106.5 66t-160 98t-149.5 77.5t-123 37.5q-18 0 -38 -7t-44.5 -25t-40.5 -58.5t-16 -97.5q0 -29 8 -56t8 -30q0 -12 -7 -21.5t-16 -9.5q-4 0 -9 2t-14 11t-16 25t-12.5 48.5t-5.5 75.5q0 141 127 231q10 6 10 23
q0 11 -21.5 46t-48 79.5t-48 128t-21.5 180.5q0 163 49 302t130 234.5t185.5 163.5t214.5 99.5t218 31.5z" />
    <glyph glyph-name="R" unicode="R" horiz-adv-x="1251" 
d="M469 1298l-41 -315q-16 -125 -16 -145q0 -21 6.5 -32.5t28 -16.5t38.5 -6t60 -1h22q93 0 142 11q203 44 234 250q5 34 5 73q0 95 -42.5 156.5t-110.5 86.5t-160 25q-155 0 -166 -86zM178 145l131 1051q6 60 6 86q0 39 -16.5 61t-40 29t-47.5 11t-40.5 12t-16.5 26
q0 6 2.5 10t5 6.5t8 3.5t8 1h8.5h7q27 0 82.5 -4t84.5 -4q51 0 154 4t154 4q442 0 442 -312q0 -75 -25.5 -138t-63.5 -102t-82 -69.5t-82 -46t-63.5 -27t-25.5 -16.5q0 -9 27 -74l190 -462q20 -48 46 -79t49.5 -42t46.5 -17t39.5 -6t27 -6t10.5 -20q0 -33 -139 -33
q-2 0 -20.5 -0.5t-27.5 -0.5t-29.5 3.5t-34 9.5t-33.5 18t-35 29.5t-31 45t-29 61.5l-166 452q-2 7 -6.5 20t-7 20.5t-6.5 18.5t-8 17.5t-8.5 12.5t-10.5 9t-12 3h-172q-6 0 -11.5 -3.5t-9.5 -11.5t-6.5 -15t-5 -21t-4 -22t-3.5 -25.5t-3 -24.5l-37 -287q-10 -74 -10 -117
t15 -72t37 -40.5t48.5 -19t48.5 -9t37 -8t15 -19.5q0 -15 -9.5 -19.5t-37.5 -4.5q-6 0 -99 4t-162 4q-42 0 -92 -4t-69 -4q-20 0 -26.5 4t-6.5 22q0 13 13 18.5t32 9t39 11t36.5 30t20.5 58.5z" />
    <glyph glyph-name="S" unicode="S" 
d="M455 705q-174 186 -224.5 269t-50.5 181q0 75 26 133t63 89.5t85 51.5t84 25.5t68 5.5q65 0 131 -17t111 -34.5t61 -17.5q4 0 27 13t32 13q17 0 17 -39q0 -69 6 -130t12 -97t6 -45q0 -27 -22 -27q-24 0 -39 51q-24 70 -66 125.5t-90.5 86.5t-96 47t-89.5 16
q-92 0 -142.5 -53.5t-50.5 -145.5t43.5 -157t212.5 -234q90 -90 134.5 -135.5t89.5 -98t62 -86.5t27.5 -72.5t10.5 -84.5q0 -43 -13 -87.5t-48 -95t-88.5 -89t-143.5 -64t-203 -25.5q-241 0 -280 66q-14 23 -37 103.5t-23 115.5q0 37 25 37q6 0 10 -1.5t7.5 -5.5t5 -6
t4.5 -9t4 -9q63 -119 141.5 -173t212.5 -54q78 0 142.5 25.5t106.5 82.5t42 136q0 26 -3 46.5t-15.5 45t-23.5 41.5t-41.5 51.5t-53 58.5t-74.5 79.5t-92 97.5z" />
    <glyph glyph-name="T" unicode="T" horiz-adv-x="1366" 
d="M819 1309l-129 -1045q-8 -62 -8 -108q0 -43 17.5 -68t42.5 -32.5t50 -10.5t42.5 -8.5t17.5 -20.5q0 -24 -25 -24q-38 0 -113.5 4t-113.5 4q-36 0 -107.5 -4t-107.5 -4q-9 0 -12.5 0.5t-8 5.5t-4.5 16q0 14 15 19.5t37.5 10t46 15t43.5 43t26 86.5l131 1035q9 73 9 96
q0 16 -5.5 20t-21.5 4h-264q-69 0 -118.5 -15.5t-73 -38t-39.5 -49.5t-22 -49.5t-17 -38t-27 -15.5q-9 0 -17 5t-8 13q0 13 9 39t28.5 81t36.5 116q6 27 15.5 39t27.5 12q106 0 316 -4t315 -4q89 0 262.5 4t255.5 4q11 0 17.5 -1t13 -9t6.5 -23v-219v-11v-10.5v-9.5t-1 -9
t-2 -7t-3 -6.5t-4.5 -4.5t-6 -3t-8.5 -1q-15 0 -22.5 16t-9 40t-8.5 51.5t-18 51.5t-39.5 40t-72.5 16h-250h-15.5h-15h-13.5t-13.5 -1t-11 -2.5t-10 -4t-7.5 -6.5t-5.5 -9t-2.5 -11z" />
    <glyph glyph-name="U" unicode="U" horiz-adv-x="1593" 
d="M719 53q129 0 230.5 42t155.5 92.5t94.5 128t50 113t19.5 82.5q2 10 3 13q27 108 60.5 335.5t33.5 367.5q0 53 -10.5 88t-27 48t-35 20t-35 7.5t-27 7.5t-10.5 23q0 21 20 21q10 0 67.5 -4t108.5 -4q45 0 88.5 4t59.5 4q12 0 15 -4.5t3 -12.5q0 -17 -7.5 -25t-19 -8.5
t-27 -7.5t-29.5 -20.5t-28 -49.5t-22 -91q-12 -81 -32 -236q-16 -127 -25 -189.5t-28 -170.5t-36.5 -162t-49 -136.5t-67 -123.5t-88.5 -93.5t-116.5 -76t-147 -41t-184.5 -17.5q-42 0 -77 2t-87.5 12t-93.5 26.5t-86 49t-75 77t-49.5 113t-19.5 153.5q0 120 39 470t39 388
q0 59 -20 87.5t-43.5 30.5t-43.5 8.5t-20 24.5q0 23 35 23q2 0 58.5 -4t113.5 -4q67 0 124 4l58 4q29 0 29 -23q0 -15 -8.5 -21.5t-22 -6t-31 -7.5t-33.5 -24t-31 -58t-23 -106q-27 -205 -47.5 -452t-20.5 -314q0 -93 22.5 -162.5t58 -109.5t87.5 -64.5t101.5 -32.5
t109.5 -8z" />
    <glyph glyph-name="V" unicode="V" horiz-adv-x="1366" 
d="M516 16l-336 1203q-16 58 -38.5 94.5t-43.5 48t-39.5 17t-29.5 11t-11 19.5q0 33 21 33q34 0 100.5 -4t100.5 -4q54 0 99 2t63 4l18 2q2 0 6 -0.5t10 -6.5t6 -16q0 -16 -11.5 -23.5t-28.5 -10.5t-34 -9t-28.5 -26.5t-11.5 -55.5q0 -54 11 -109t42 -159l180 -620
q2 -7 11.5 -41.5t15.5 -52.5t15 -43.5t17 -37.5t15 -12q12 0 35.5 40t61.5 114q7 15 11 22l279 555q87 173 113 248t26 119q0 27 -14 40t-34.5 16t-40.5 5t-34 10.5t-14 28.5q0 10 9.5 17.5t23.5 7.5q13 0 61 -4t82 -4q52 0 103 4t63 4q27 0 27 -27q0 -16 -14 -25.5
t-34.5 -17t-50 -38t-53.5 -81.5l-326 -669q-302 -625 -356 -625q-11 0 -18 2.5t-11 9.5t-6 12t-4.5 16.5t-3.5 16.5z" />
    <glyph glyph-name="W" unicode="W" horiz-adv-x="1933" 
d="M1296 1284l-118 -215q-42 -78 -86.5 -154t-63 -107.5t-18.5 -37.5q0 -14 75 -270q11 -37 26.5 -93.5t24 -86t19 -61t18.5 -45t15 -13.5q14 0 153.5 241.5t276.5 518.5t137 352q0 36 -23 51.5t-50.5 15.5t-50.5 7.5t-23 29.5q0 25 30 25q6 0 86 -4t152 -4q31 0 80 4t51 4
q23 0 23 -21q0 -24 -8 -29t-26.5 -7.5t-42.5 -13.5t-63 -59t-82 -132q-305 -598 -478.5 -909.5t-215.5 -311.5q-17 0 -35.5 54.5t-91.5 310.5q-69 245 -80 245q-10 0 -170 -278q-20 -34 -53 -92q-95 -166 -119.5 -203t-40.5 -37q-21 0 -40.5 63t-88.5 339q-124 498 -239 939
q-10 35 -29 55t-36.5 25t-30.5 15.5t-13 29.5q0 7 4 11t11.5 5t13 1.5t15 0t11.5 -0.5q16 0 48 -4t47 -4q73 0 139 4t80 4q16 0 16 -21q0 -15 -12 -22t-29 -10.5t-34.5 -10.5t-29.5 -28t-12 -56q0 -41 34.5 -182t105 -404.5t102.5 -388.5q28 -104 45 -104q11 0 42 48
t138 229t107 186q0 20 -164 592q-12 42 -34 66t-44.5 31t-43.5 11t-34.5 12.5t-13.5 28.5q0 14 9 18.5t30 4.5q2 0 62 -4t143 -4q29 0 81 4t72 4q12 0 18.5 -4t7.5 -7.5t1 -9.5q0 -14 -16.5 -23.5t-36 -14.5t-36 -22t-16.5 -44q0 -54 49 -246t66 -192q7 0 56.5 83.5
t98 191.5t48.5 159q0 30 -21 46.5t-45.5 20t-45.5 11.5t-21 24q0 10 6 18.5t16 8.5q16 0 76.5 -4t128.5 -4q25 0 74 4t65 4q35 0 35 -25q0 -17 -8 -21t-23.5 -5t-34.5 -5.5t-46 -30t-52 -71.5z" />
    <glyph glyph-name="X" unicode="X" horiz-adv-x="1366" 
d="M623 815l-134 305q-20 47 -39 79.5t-47 64.5t-66 48.5t-85 16.5q-58 0 -91.5 -35.5t-33.5 -95.5q0 -49 24 -89t60 -40q14 0 21.5 -1.5t13.5 -8t6 -19.5q0 -16 -9 -24.5t-19 -10t-27 -1.5q-58 0 -101 55t-43 141q0 102 84.5 172t188.5 70q122 0 196 -86q58 -67 111.5 -187
t83.5 -203t41 -83q31 0 211 250q106 146 106 194q0 52 -84 57q-16 4 -22 6t-10.5 9.5t-4.5 21.5q0 11 7.5 16t31.5 5q14 0 69 -4t109 -4q44 0 97.5 4t62.5 4q27 0 27 -27q0 -17 -9 -24.5t-30 -15.5t-48 -22t-72 -55t-93 -104l-229 -301q-76 -104 -76 -121q0 -18 71.5 -189.5
t168 -345.5t147.5 -174q32 0 64 7.5t44 7.5q33 0 33 -21q0 -65 -235 -65q-81 0 -136.5 90.5t-218.5 462.5q-35 82 -47 82q-17 0 -104.5 -107t-169.5 -232t-82 -165q0 -30 24.5 -47.5t53.5 -22t53.5 -13t24.5 -22.5q0 -26 -31 -26q-29 0 -97.5 4t-105.5 4q-60 0 -123.5 -4
t-73.5 -4q-1 0 -9 -0.5t-12.5 0t-11 2t-9.5 7t-3 13.5q0 15 17 24.5t40.5 15.5t57 24t59.5 45q59 61 258 318.5t199 287.5q0 31 -24 86z" />
    <glyph glyph-name="Y" unicode="Y" horiz-adv-x="1138" 
d="M430 170l39 328q8 54 8 106q0 66 -18 101l-297 600q-19 38 -44 58.5t-43.5 23.5t-32 10t-13.5 22q0 13 4.5 18t17.5 5q6 0 68.5 -4t126.5 -4q34 0 100 4t76 4q11 0 14.5 -4t3.5 -15q0 -20 -17.5 -29t-38.5 -11t-38.5 -14t-17.5 -36q0 -23 24 -76l191 -397q47 -94 58 -104
q5 -4 9 -4q3 0 6.5 1.5t7 4.5t6.5 6.5t8 10t8.5 11.5t10 14.5t11.5 16.5l241 352q62 88 62 150q0 36 -22.5 51t-49.5 14.5t-49.5 7.5t-22.5 31q0 19 47 19q20 0 95.5 -4t105.5 -4q17 0 62 4t75 4q33 0 33 -25q0 -16 -13.5 -22t-32.5 -7t-48 -18t-53 -51l-432 -617
q-32 -47 -54 -218t-22 -300q0 -51 14 -82t34.5 -40.5t44.5 -13t44.5 -2t34.5 -6t14 -26.5q0 -13 -8 -17.5t-29 -4.5q-51 0 -120 4t-99 4q-35 0 -103.5 -4t-103.5 -4q-14 0 -17 3.5t-3 12.5q0 13 8.5 19t21 7t29 7t31 17t28 39.5t19.5 72.5z" />
    <glyph glyph-name="Z" unicode="Z" horiz-adv-x="1138" 
d="M190 213l648 954q59 88 59 103q0 12 -27 12q-91 0 -208 13.5t-183 13.5q-25 0 -45.5 -1.5t-62 -6.5t-73 -19t-64 -35.5t-50.5 -59.5t-18 -87q0 -32 8 -52t19.5 -27.5t23 -12t19.5 -10.5t8 -17q0 -35 -47 -35q-38 0 -67.5 42.5t-29.5 113.5q0 33 10.5 73t41.5 92
t78.5 93.5t132 70.5t190.5 29q65 0 192.5 -13t313.5 -13q26 0 26 -17q0 -5 -1 -9t-4 -10t-5 -9.5t-8.5 -13.5t-9.5 -15l-785 -1159q-24 -36 -24 -41q0 -10 12 -12.5t44 -2.5h7h592q33 0 64.5 16t31.5 40q0 23 -17.5 30.5t-38.5 6t-38.5 15.5t-17.5 58q0 36 27 58t55 22
q43 0 71.5 -40.5t28.5 -84.5q0 -59 -22 -108.5t-57.5 -82t-80 -55.5t-88.5 -33t-84 -10q-57 0 -216.5 11.5t-397.5 11.5q-50 0 -64 2t-14 12q0 13 23.5 43.5t62 77t59.5 78.5z" />
    <glyph glyph-name="bracketleft" unicode="[" horiz-adv-x="569" 
d="M209 1526h352l-6 -60q-18 -1 -87.5 -1.5t-105.5 -6.5q-38 -12 -43 -100l-163 -1389q-1 -23 -3 -43t7.5 -38.5t32.5 -26.5q24 -8 56.5 -10.5t59 -1.5t58.5 -1l-7 -55h-358z" />
    <glyph glyph-name="backslash" unicode="\" horiz-adv-x="1241" 
d="M166 1526h147l762 -1733h-147z" />
    <glyph glyph-name="bracketright" unicode="]" horiz-adv-x="569" 
d="M319 -207h-352l6 60q18 1 87.5 1.5t105.5 6.5q38 12 43 100l164 1389q1 23 3 43t-7.5 38.5t-32.5 26.5q-24 8 -56.5 10t-59 1t-58.5 1l6 56h358z" />
    <glyph glyph-name="asciicircum" unicode="^" horiz-adv-x="1241" 
d="M248 602h-144l449 832h135l447 -832h-144l-370 668z" />
    <glyph glyph-name="underscore" unicode="_" 
d="M0 -154h1024v-102h-1024v102z" />
    <glyph glyph-name="grave" unicode="`" horiz-adv-x="681" 
d="M614 995h-65l-297 187q-1 0 -23 14t-30.5 21t-19.5 23.5t-11 35.5t21.5 40t54.5 21q8 0 14.5 -1.5t16 -7t18 -12.5t24.5 -22t32 -31.5t43.5 -44.5t56 -57.5t73.5 -74.5t92 -91z" />
    <glyph glyph-name="a" unicode="a" horiz-adv-x="909" 
d="M154 250q0 -16 1.5 -31t9 -42t21.5 -46t42 -34t67 -15q56 0 110.5 31t89.5 71t56.5 75t21.5 48t39 212.5t39 232.5q0 29 -28 54t-91 25q-70 0 -141.5 -60.5t-122 -149t-82.5 -189.5t-32 -182zM23 215q0 72 27.5 163t78 181t114 166t143.5 123t159 47q23 0 80 -21
q50 -22 80 -22q16 0 47 43t43 43q18 0 18 -18q0 -3 -10.5 -55.5t-25.5 -133.5t-30 -172t-25.5 -186t-10.5 -160q0 -34 5.5 -55t15.5 -28.5t15.5 -9t14.5 -1.5q19 0 38 19t31 42.5t25.5 42.5t24.5 19h6.5h7t5.5 -1t5 -3.5t2.5 -6.5t1.5 -10q0 -10 -17.5 -45.5t-44.5 -77
t-67 -74t-78 -32.5q-44 0 -74 37t-40.5 84.5t-7.5 93.5l-5 4q-69 -101 -161.5 -167.5t-202.5 -66.5q-51 0 -88.5 19t-58.5 53t-31 75t-10 91z" />
    <glyph glyph-name="b" unicode="b" horiz-adv-x="909" 
d="M547 778q-139 0 -240.5 -166.5t-101.5 -435.5q0 -40 3.5 -62t16 -44t39.5 -31.5t72 -9.5q86 0 164 53.5t129 134.5t80.5 172.5t29.5 171.5q0 97 -48 157t-144 60zM88 270l154 1014q14 89 14 119q0 27 -36 31.5t-72.5 5.5t-36.5 18q0 12 8.5 19t28.5 10t43.5 5.5t63 8.5
t77.5 15q42 10 53 10q10 0 17.5 -5.5t7.5 -13.5q0 -7 -9 -63l-116 -752l4 -4q60 87 155 147t174 60q125 0 190.5 -81t65.5 -212q0 -68 -23.5 -149t-72 -164t-113.5 -151t-156.5 -113t-193.5 -48q-64 -2 -115.5 13t-87.5 57.5t-36 108.5q0 36 12 114z" />
    <glyph glyph-name="c" unicode="c" horiz-adv-x="796" 
d="M180 375q0 -129 55 -210t177 -81q64 0 116.5 17.5t79 39t50 39t36.5 17.5q7 0 12 -7t5 -16q0 -4 -15 -23.5t-48 -49t-77 -57.5t-112.5 -47.5t-143.5 -19.5q-90 0 -153 45.5t-91 116.5t-28 160q0 132 43 246.5t112.5 189.5t156.5 117.5t177 42.5q74 0 147 -39.5t73 -97.5
q0 -78 -76 -78q-19 0 -33.5 14.5t-27.5 35t-29.5 41.5t-49.5 35.5t-79 14.5q-59 0 -107.5 -31.5t-79 -80t-51.5 -109.5t-30 -117.5t-9 -107.5z" />
    <glyph glyph-name="d" unicode="d" horiz-adv-x="909" 
d="M311 78q81 0 149 57.5t99 138.5q21 52 45.5 225t24.5 224q0 31 -3 48.5t-14 35.5t-36.5 25.5t-67.5 7.5q-73 0 -136.5 -46t-104.5 -113.5t-70.5 -146.5t-42.5 -144t-13 -107q0 -85 44.5 -145t125.5 -60zM643 846l51 438q15 95 15 119q0 27 -36.5 31.5t-73 5.5t-36.5 18
q0 12 8.5 19t28.5 10t43.5 5.5t63 8.5t77.5 15q42 10 54 10q10 0 17 -5.5t7 -13.5q0 -13 -8 -63q-28 -167 -88.5 -636t-60.5 -544q0 -12 -0.5 -35t-0.5 -34.5t1 -29t4.5 -26.5t9 -19t15 -14t22.5 -4q17 0 36.5 21t34 46t31.5 46t31 21q6 0 12 -5.5t6 -11.5q0 -57 -68.5 -142
t-146.5 -85q-122 0 -117 213l-4 4q-38 -107 -126.5 -169.5t-198.5 -62.5q-111 0 -168.5 77.5t-57.5 191.5q0 46 13.5 109.5t39.5 137t68.5 144.5t94.5 129t123.5 93.5t150.5 35.5q64 0 133 -49z" />
    <glyph glyph-name="e" unicode="e" horiz-adv-x="796" 
d="M43 283q0 113 44 226t113 197t156.5 136.5t171.5 52.5q32 0 61.5 -7.5t57.5 -25.5t45 -53t17 -84q0 -63 -34.5 -115.5t-87.5 -86t-119 -57t-126 -33t-111 -9.5q-41 0 -49 -7t-8 -48q0 -153 67.5 -218t192.5 -65q56 0 101.5 14.5t68.5 31.5t44.5 31.5t35.5 14.5
q23 0 23 -18q0 -9 -17.5 -30t-52.5 -47t-79 -50t-104.5 -40t-121.5 -16q-133 0 -211 86t-78 220zM479 827q-49 0 -96.5 -29t-82 -71.5t-61 -91t-40 -89t-13.5 -63.5q0 -16 47 -16q45 0 102 16t114.5 45.5t96 81t38.5 113.5q0 104 -105 104z" />
    <glyph glyph-name="f" unicode="f" horiz-adv-x="569" 
d="M94 850h123q11 0 18 31t27 117t51 176q52 149 146 240t192 91q42 0 63 -8.5t25 -19.5t4 -33v-27.5t-1 -26t-3 -27t-5.5 -20t-10 -16t-14.5 -4.5q-10 0 -21 14t-21.5 31t-34 31t-54.5 14q-44 0 -81 -51.5t-58.5 -123t-36.5 -151t-21 -132t-6 -70.5q0 -4 -1.5 -14.5
t-1 -15.5t4.5 -5h129q37 0 46 -7q11 -9 11 -32q0 -7 -1 -12t-3.5 -9t-4 -7t-6 -4.5t-6.5 -2.5t-8.5 -1.5t-8.5 -0.5h-10h-9h-107q-14 0 -22.5 -2.5t-13.5 -5t-8 -11t-3.5 -14.5t-1.5 -21t-2 -24l-86 -747q-11 -98 -44.5 -171.5t-70 -110t-80 -58.5t-67 -26.5t-37.5 -4.5
q-61 0 -61 53q0 45 15.5 93.5t37.5 48.5q13 0 21 -16.5t11 -36t12.5 -36t25.5 -16.5q44 0 66 44q18 33 24 91l108 953q4 18 -12 18h-117h-9h-10t-8.5 0.5t-8.5 1.5t-6.5 2.5t-6 4.5t-4 7t-3.5 9t-1 12t1 12.5t3.5 9.5t4 7t6 5t6.5 3t8.5 1.5t8 0.5h10h9.5z" />
    <glyph glyph-name="g" unicode="g" horiz-adv-x="796" 
d="M379 291q45 0 78.5 23t52.5 57t30.5 80.5t15 85t3.5 79.5q0 50 -10.5 96.5t-38.5 82.5t-68 36q-14 0 -25.5 -1t-33 -7.5t-38.5 -18t-37 -35t-33 -56t-22 -84.5t-9 -117q0 -39 5.5 -73.5t18.5 -70t41.5 -56.5t69.5 -21zM414 895q77 0 133 -29q40 -24 70 -28q15 -2 34 -2
q35 0 92 22q61 21 74 21q22 0 32.5 -15.5t10.5 -34.5q0 -23 -16.5 -38.5t-34 -20t-33.5 -4.5q-30 0 -57.5 5.5t-44 11t-19.5 5.5q-12 0 -12 -4q0 -8 11.5 -27t23.5 -60t12 -103q0 -87 -35 -165.5t-104.5 -130.5t-157.5 -52q-21 0 -62 5t-63 5q-67 0 -67 -63q0 -55 50 -84
t210 -83q52 -18 82 -28q88 -31 136 -76t48 -127q0 -56 -24.5 -96.5t-59.5 -62t-88 -34t-94 -15.5t-94 -3q-58 0 -110 6t-106 24t-92.5 46t-63 75.5t-24.5 110.5q0 55 28.5 96t63 58t63 29.5t28.5 17.5t-8 16.5t-15.5 36t-7.5 60.5q0 26 16.5 51t41 47.5t28.5 28.5
q0 1 -7.5 8.5t-11.5 12t-12.5 15.5t-14 21t-13 24.5t-12.5 31t-9.5 35.5t-7 42.5t-2.5 48.5q0 147 88 258t207 111zM379 -375q70 0 119 15t71 38t30.5 41.5t8.5 34.5q0 49 -59.5 92.5t-132 68t-144.5 50.5t-88 41q-108 -24 -108 -158q0 -59 27 -104t72 -70t96.5 -37
t107.5 -12z" />
    <glyph glyph-name="h" unicode="h" horiz-adv-x="909" 
d="M152 645l88 639q14 89 14 119q0 27 -36 31.5t-72.5 5.5t-36.5 18q0 12 8.5 19t28.5 10t43.5 5.5t63 8.5t77.5 15q42 10 53 10q10 0 17.5 -5.5t7.5 -13.5q0 -7 -9 -63q-1 -9 -27.5 -184t-51.5 -345.5t-29 -197.5l4 -4q49 71 129 126.5t154 55.5q41 0 73 -15.5t51 -39.5
t31 -58.5t16.5 -68t4.5 -72.5q0 -63 -19 -244q-20 -152 -20 -200q0 -84 43 -84q22 0 46 22.5t45 45t34 22.5q18 0 18 -17q0 -11 -19.5 -41.5t-50 -65t-75.5 -61t-88 -26.5q-28 0 -46.5 12t-26 36t-9.5 43.5t-2 49.5q0 97 17 283t17 198q0 78 -24 123t-86 45
q-80 0 -136.5 -65.5t-100.5 -224t-78 -431.5q-3 -34 -8 -47.5t-19 -13.5h-76h-17.5t-11.5 2.5t-10 9t-2 17.5q0 9 18 109t44 251t41 256z" />
    <glyph glyph-name="i" unicode="i" horiz-adv-x="454" 
d="M221 182q0 -31 7 -42t26 -11q21 0 46.5 31t47 62.5t33.5 31.5q8 0 14 -6t6 -15q0 -23 -33 -79.5t-90 -109t-108 -52.5q-44 0 -64 40t-20 89q0 85 25.5 235.5t51 273.5t25.5 142q0 28 -39 31.5t-77.5 5t-38.5 25.5q0 17 23 21t83.5 7t110.5 12q17 3 40.5 12t31.5 9
q13 0 20 -4.5t7.5 -8t0.5 -10.5q0 -2 -32 -148.5t-64.5 -316t-32.5 -225.5zM403 1233q0 -25 -31 -66t-53 -41q-21 0 -47 48t-26 71q0 25 31 66t53 41q21 0 47 -48t26 -71z" />
    <glyph glyph-name="j" unicode="j" horiz-adv-x="454" 
d="M53 844q0 16 23 21t76 8t92 12q17 3 40 11.5t31 8.5q13 0 20 -4t8 -7.5t1 -10.5q0 -113 -35 -377l-63 -486q-12 -90 -34 -162.5t-45.5 -117t-55.5 -76.5t-55.5 -47t-52.5 -23t-40 -9t-26 -1q-22 0 -37 9t-22 19t-10.5 32t-4 33t-0.5 36q0 49 31 49q16 0 57.5 -49
t56.5 -49q54 0 89 266q2 13 3 19q109 772 109 809q0 30 -24.5 43t-53.5 12.5t-53.5 5.5t-24.5 25zM414 1233q0 -25 -31 -66t-53 -41q-21 0 -47.5 48t-26.5 71q0 25 31 66t53 41q21 0 47.5 -48t26.5 -71z" />
    <glyph glyph-name="k" unicode="k" horiz-adv-x="909" 
d="M66 29l174 1255q2 20 6 47.5t6 44.5t2 27q0 27 -36 31.5t-72.5 5.5t-36.5 18q0 12 8.5 19t28.5 10t43.5 5.5t63 8.5t77.5 15q42 10 53 10q10 0 17.5 -5.5t7.5 -13.5q0 -7 -9 -63q-16 -141 -48.5 -380t-56.5 -408t-24 -179q0 -2 -0.5 -8.5t-0.5 -11t0.5 -9.5t2 -7.5
t4.5 -2.5q5 0 38.5 18.5t83 53.5t99 77t91 97t55.5 107q29 104 92 104q29 0 50.5 -14t21.5 -47q0 -51 -62.5 -115.5t-250.5 -202.5q24 -49 50.5 -99t66.5 -121.5t75.5 -116t56.5 -44.5t43 18.5t37 41t30.5 41t25.5 18.5q18 0 18 -21q0 -11 -15 -48t-39.5 -81t-62 -78
t-75.5 -34q-18 0 -31.5 4t-28 17.5t-26 28.5t-31.5 48.5t-37.5 64.5t-50.5 89.5t-64 111.5q-3 5 -9.5 16.5t-11.5 20.5t-12 18.5t-13 15t-11 5.5q-13 0 -58.5 -20t-52.5 -31q-23 -32 -59 -320q-3 -34 -8 -47.5t-19 -13.5h-76q-17 0 -22.5 0.5t-11.5 7t-6 21.5z" />
    <glyph glyph-name="l" unicode="l" horiz-adv-x="454" 
d="M104 307l136 977q14 91 14 119q0 27 -36 31.5t-72.5 5.5t-36.5 18q0 12 8.5 19t28.5 10t43.5 5.5t63 8.5t77.5 15q42 10 53 10q10 0 17.5 -5.5t7.5 -13.5q0 -4 -9 -53t-21 -113.5t-16 -97.5l-131 -973q-10 -72 -10 -88q0 -65 37 -65q24 0 52 23.5t48.5 51t40.5 51
t29 23.5q23 0 23 -22q0 -18 -22.5 -58.5t-58.5 -84t-91 -76.5t-109 -33q-43 0 -62.5 38.5t-19.5 98.5q0 70 16 178z" />
    <glyph glyph-name="m" unicode="m" horiz-adv-x="1478" 
d="M1300 659q0 -72 -19 -259t-19 -230q0 -36 6 -47.5t24 -11.5q23 0 47 17t40.5 38t32 38t24.5 17q20 0 20 -12q0 -26 -35 -76.5t-94.5 -95.5t-114.5 -45q-43 0 -63.5 28t-20.5 107q0 52 23 276q20 230 20 242q0 72 -24.5 113t-91.5 41q-59 0 -106.5 -46t-75 -117.5
t-43 -134t-21.5 -120.5l-49 -320q-3 -34 -8 -47.5t-19 -13.5h-76h-17.5t-11.5 2.5t-10 9t-2 17.5q0 29 44.5 294t44.5 304q0 170 -138 172q-48 0 -88.5 -32t-66.5 -78t-46 -106.5t-29.5 -109t-14.5 -92.5l-50 -320q-2 -19 -3 -27t-4 -17.5t-7.5 -13t-11.5 -3.5h-76h-17.5
t-11.5 2.5t-10 9t-2 17.5q0 29 44 294t44 304q0 71 -8 99t-35 28q-31 0 -54 -19t-33 -41.5t-22.5 -41.5t-25.5 -19q-21 0 -21 24q0 42 29.5 98t76.5 98t91 42q27 0 46 -15t28 -33.5t14 -51t5.5 -51.5t-0.5 -51t-1 -34h4q62 95 155.5 165.5t184.5 70.5q46 0 75.5 -11
t48.5 -39t28.5 -58t21.5 -85q149 193 299 193q98 0 137 -61.5t39 -174.5z" />
    <glyph glyph-name="n" unicode="n" 
d="M848 659q0 -72 -19.5 -259t-19.5 -230q0 -36 6.5 -47.5t24.5 -11.5q29 0 59 27.5t52 55t32 27.5q21 0 21 -12q0 -26 -35 -76.5t-94.5 -95.5t-114.5 -45q-43 0 -63.5 28t-20.5 107q0 45 21.5 276t21.5 242q0 2 0.5 14.5t0.5 21.5t-2.5 24.5t-7.5 27t-16.5 24.5t-27.5 21.5
t-41.5 14.5t-57.5 6q-48 0 -88.5 -32t-66.5 -78t-46 -106.5t-29.5 -109t-14.5 -92.5l-50 -320q-2 -19 -3 -27t-4 -17.5t-7.5 -13t-11.5 -3.5h-76h-17.5t-11.5 2.5t-10 9t-2 17.5q0 29 44 294t44 304q0 71 -8 99t-35 28q-31 0 -54 -19t-33 -41.5t-22.5 -41.5t-25.5 -19
q-21 0 -21 24q0 42 29.5 98t76.5 98t91 42q27 0 46 -15t28 -33.5t14 -51t5.5 -51.5t-0.5 -51t-1 -34h4q62 95 155.5 165.5t184.5 70.5q197 0 197 -236z" />
    <glyph glyph-name="o" unicode="o" horiz-adv-x="909" 
d="M379 -23q-155 0 -241.5 100t-86.5 259q0 97 32 195t89 179.5t145 133t191 51.5q161 0 248.5 -103.5t87.5 -267.5q0 -101 -32.5 -198t-90.5 -175t-147.5 -126t-194.5 -48zM188 317q0 -292 191 -292q75 0 134.5 38.5t94.5 96.5t58.5 134.5t32 144.5t8.5 134q0 47 -5 84.5
t-18.5 74.5t-35 61.5t-58 39.5t-84.5 15q-72 0 -129.5 -37t-92 -93.5t-57 -130t-31 -140t-8.5 -130.5z" />
    <glyph glyph-name="p" unicode="p" horiz-adv-x="909" 
d="M317 782l-79 -637q-5 -39 -5 -61q0 -35 16.5 -47t55.5 -12q79 0 146.5 30t114.5 80.5t80 116t49 135.5t16 141q0 78 -23.5 138t-57.5 93t-76.5 52.5t-78 24.5t-63.5 2q-88 0 -95 -56zM57 -268l133 1056q-31 -6 -58 -17.5t-41 -19.5t-19 -8q-23 0 -23 25q0 39 152 82
q3 1 9 48.5t13 108t13 83.5q7 26 45.5 42.5t62.5 16.5q12 0 17.5 -6t5.5 -23q0 -7 -14.5 -110t-14.5 -109q0 -22 18 -22q2 0 52 8t102 8q69 0 130 -19.5t110.5 -59t78.5 -106t29 -153.5q0 -57 -15 -120t-43.5 -128.5t-76 -124.5t-107 -105.5t-142.5 -74t-177 -27.5
q-14 0 -39 5q-20 4 -22 4q-15 0 -29 -105t-14 -157q0 -38 16.5 -59t40.5 -26.5t47.5 -6.5t40 -6t16.5 -19q0 -23 -30 -23q-27 0 -100.5 4t-114.5 4q-23 0 -66 -4t-66 -4h-3h-5h-4t-4.5 0.5t-4 1.5t-3.5 2t-3 2.5t-3 3.5t-1.5 5t-0.5 6q0 18 15.5 25.5t34.5 10t38 25t24 66.5
z" />
    <glyph glyph-name="q" unicode="q" horiz-adv-x="909" 
d="M158 264q0 -78 34.5 -131t106.5 -53q74 0 135.5 35t101.5 93t69.5 126t45 142t22.5 131.5t7 103.5q0 58 -41 86t-102 28q-59 0 -111 -26.5t-89.5 -69t-69 -97.5t-51 -110t-33.5 -108t-19.5 -91t-5.5 -59zM821 766l-123 -942q-10 -83 -10 -119q0 -34 15 -51.5t36.5 -21
t43 -4t36.5 -6t15 -21.5q0 -20 -56 -17q-4 0 -62 4t-122 4q-42 0 -88.5 -4t-56.5 -4q-19 0 -28.5 1t-16.5 5t-7 13q0 16 14.5 23t36 10t44 10t40.5 30t23 62l68 506l-5 4q-19 -39 -51.5 -81.5t-80 -87t-111.5 -73.5t-131 -29q-108 0 -166 70t-58 178q0 99 47.5 217
t122.5 218t179.5 167.5t208.5 67.5q44 0 92 -23q6 -3 16.5 -7.5t16 -7.5t13 -5t13.5 -2q13 0 54 78t59 78q10 0 15 -6t5 -13q0 -16 -17.5 -92.5t-23.5 -128.5z" />
    <glyph glyph-name="r" unicode="r" horiz-adv-x="681" 
d="M588 895q24 0 58 -17.5t34 -41.5q0 -23 -22.5 -91.5t-45.5 -68.5q-9 0 -20 23.5t-32 47t-54 23.5q-24 0 -45 -15t-36 -45t-25.5 -55t-19.5 -67.5t-12 -58t-8 -48.5l-63 -420q-3 -34 -8 -47.5t-19 -13.5h-75h-17.5t-11.5 2.5t-10 9t-2 17.5q58 336 70 412t12 114
q0 182 -84 182q-25 0 -44.5 -25t-29.5 -54.5t-24.5 -54.5t-30.5 -25q-13 0 -13 38q0 28 13.5 73.5t35 92t55.5 80t70 33.5q47 0 89.5 -59.5t50.5 -167.5q2 2 37.5 50t63.5 80.5t75 64.5t88 32z" />
    <glyph glyph-name="s" unicode="s" horiz-adv-x="681" 
d="M279 31q73 0 120 39.5t47 101.5q0 47 -23 91.5t-57.5 78.5t-75 72t-75 72t-57.5 79.5t-23 93.5q0 58 19 101.5t47 68.5t66 40.5t71 20.5t68 5q50 0 88.5 -13.5t58.5 -34t29.5 -39t9.5 -32.5q0 -32 -20.5 -44.5t-43.5 -12.5q-28 0 -46.5 13t-28.5 31.5t-20 37.5t-30 32
t-51 13q-47 0 -76.5 -31.5t-29.5 -87.5q0 -35 23.5 -72t58.5 -69t76.5 -72t76.5 -79t58.5 -92t23.5 -110q0 -66 -27.5 -117t-73 -80.5t-97.5 -44t-107 -14.5q-31 0 -66 6t-75 19.5t-66 43t-26 69.5v8.5t3.5 13.5t9 17t18 12.5t30.5 5.5q33 0 53 -22t29.5 -48.5t37 -48.5
t73.5 -22z" />
    <glyph glyph-name="t" unicode="t" horiz-adv-x="569" 
d="M356 850h150q37 0 46 -7q11 -9 11 -32q0 -7 -1 -12t-3.5 -9t-4 -7t-6 -4.5t-6.5 -2.5t-8.5 -1.5t-8.5 -0.5h-10h-9h-158q-12 0 -52 -259t-40 -300q0 -21 2 -35t8.5 -33.5t24.5 -30t45 -10.5q39 0 73.5 18.5t54 40t38 40t30.5 18.5q21 0 21 -18q0 -12 -26 -47.5t-66 -76.5
t-98.5 -72.5t-112.5 -31.5q-127 0 -127 187q0 64 37 321t37 269q0 22 -26.5 23.5t-53.5 3t-27 22.5q0 19 86 63q40 21 74.5 55t52.5 62t36.5 49t31.5 21q22 0 22 -23q0 -5 -4.5 -23.5t-5.5 -25.5z" />
    <glyph glyph-name="u" unicode="u" 
d="M154 248l65 354q10 62 10 100q0 41 -26 41t-48 -23t-34.5 -50.5t-28 -50.5t-29.5 -23q-16 0 -16 25q0 58 41 124t93.5 108t88.5 42q26 0 45 -11t28 -24t13.5 -36t5 -35t0.5 -32v-7q0 -8 -6 -49.5t-17.5 -118.5t-19.5 -131q-45 -272 -45 -299q0 -60 41 -60q32 0 97 63
t137 161.5t137.5 240.5t91.5 279q5 28 14 35.5t27 7.5h68q18 0 18 -23q0 -8 -61.5 -320t-61.5 -364q0 -20 2 -32t11.5 -23t27.5 -11q33 0 62.5 21t46 47t33 47t26.5 21q19 0 19 -21q0 -23 -23.5 -63t-61.5 -81t-94 -70.5t-112 -29.5q-41 0 -58.5 34.5t-17.5 80.5
q0 39 17 155.5t28 168.5l-4 4q-35 -58 -70.5 -110.5t-86.5 -116t-99 -109t-104.5 -76.5t-106.5 -31q-12 0 -24 4.5t-25.5 15.5t-22 36.5t-8.5 62.5q0 62 17 152z" />
    <glyph glyph-name="v" unicode="v" horiz-adv-x="909" 
d="M250 729q-39 0 -87 -70.5t-48 -173.5q0 -52 22 -89.5t70 -37.5q14 0 28.5 9.5t14.5 27.5q0 46 13 143t13 130q0 35 -5 48t-21 13zM471 115q24 0 61 26t77.5 75.5t76 112t59 145t23.5 165.5q0 53 -18.5 100t-18.5 82q0 39 16 56.5t39 17.5q9 0 19 -4t23.5 -16t22.5 -41
t9 -72q0 -123 -36.5 -246t-93.5 -217t-124.5 -168.5t-132.5 -114t-113 -39.5q-32 0 -56.5 32t-36.5 79t-17.5 87t-5.5 69q0 35 -10.5 47t-45.5 18q-37 6 -62.5 25t-38 48t-17 59t-4.5 69q0 88 26.5 164t65.5 122.5t81 72.5t76 26q88 0 88 -133q0 -70 -14 -243t-14 -251
q0 -1 -0.5 -22.5t0 -29.5t3 -27.5t9 -29t16.5 -21.5t27.5 -17.5t40.5 -5.5z" />
    <glyph glyph-name="w" unicode="w" horiz-adv-x="1366" 
d="M240 729q-39 0 -87.5 -71t-48.5 -173q0 -52 22.5 -89.5t70.5 -37.5q14 0 28.5 9.5t14.5 27.5q0 46 10 143t10 130v13q0 20 -0.5 28t-5 14t-14.5 6zM793 879h77q13 0 16 -7.5t3 -29.5q0 -2 -5 -35.5t-12.5 -88.5t-14.5 -120t-12 -144t-5 -147q0 -67 6 -108.5t20 -60
t28 -24t38 -5.5q35 0 84.5 43t95.5 112t78.5 171t32.5 206q0 53 -18.5 100t-18.5 82q0 39 16 56.5t39 17.5q9 0 19 -4t23.5 -16t22.5 -41t9 -72q0 -131 -35.5 -257.5t-90 -219.5t-118.5 -165t-123 -108.5t-100 -36.5q-27 0 -48.5 14t-35.5 34.5t-24 54.5t-15 64t-8 73.5
t-3.5 71.5t-0.5 69h-4q-39 -135 -158.5 -258t-200.5 -123q-32 0 -56.5 32t-37 78.5t-18 87t-5.5 69.5q0 35 -10 47t-45 18q-37 6 -62.5 25t-38 48t-17.5 59t-5 69q0 88 26.5 164t66 122.5t81 72.5t76.5 26q39 0 66.5 -29t27.5 -104q0 -74 -16 -238q-18 -148 -18 -217
q0 -91 8 -133.5t22 -53.5t45 -11q28 0 69 39t84 105.5t81 169.5t55 216q16 106 27 157.5t18.5 67t18.5 15.5z" />
    <glyph glyph-name="x" unicode="x" horiz-adv-x="909" 
d="M471 332q-7 0 -26.5 -35.5t-48 -89.5t-48.5 -82q-31 -49 -58.5 -78.5t-70.5 -49.5t-98 -20q-31 0 -51.5 17t-20.5 49q0 33 21.5 52.5t48.5 19.5q18 0 45 -12.5t49 -12.5q36 0 93.5 78t97.5 156.5t40 91.5t-27 89.5t-67 154t-67 77.5q-26 0 -42.5 -20.5t-22 -45t-15 -45
t-23.5 -20.5q-22 0 -22 45q0 46 17 100.5t53.5 99t82.5 44.5q40 0 74.5 -33t57 -80.5t39 -95t28.5 -80.5t18 -33q5 0 35.5 50.5t67.5 110.5t90.5 110.5t99.5 50.5q38 0 60 -19t22 -55q0 -80 -67 -80q-29 0 -51.5 10.5t-30.5 10.5q-38 0 -118.5 -108t-80.5 -160
q0 -34 117 -310l4 -12q4 -11 9 -22t13 -26.5t18 -28.5t23 -25t30 -18.5t36 -6.5q18 0 37 2t26 2q29 0 29 -22q0 -20 -42.5 -35t-115.5 -15q-65 0 -105.5 22t-64.5 77q-31 70 -52.5 137.5t-29.5 93t-16 25.5z" />
    <glyph glyph-name="y" unicode="y" horiz-adv-x="909" 
d="M721 895q43 0 59.5 -35.5t16.5 -107.5q0 -76 -21 -190t-57.5 -244.5t-92.5 -261t-121 -235.5t-147.5 -171t-167.5 -66q-64 0 -102.5 30.5t-38.5 70.5q0 30 17.5 45.5t39.5 15.5q24 0 81.5 -28.5t72.5 -28.5q52 0 106.5 47t91 108.5t60 115.5t23.5 73q0 98 -66.5 269
t-152 303t-134.5 132q-33 0 -52.5 -26t-25 -57t-15.5 -57t-25 -26q-21 0 -21 33q0 146 51.5 218.5t126.5 72.5q23 0 48.5 -16.5t44 -35.5t43.5 -54t34.5 -51l28.5 -48q69 -116 117.5 -225.5t65.5 -151t30 -41.5q8 0 25.5 56.5t32 133.5t14.5 126q0 55 -8.5 95t-18.5 57
t-18.5 37t-8.5 40q0 36 16.5 57t47.5 21z" />
    <glyph glyph-name="z" unicode="z" horiz-adv-x="796" 
d="M709 700l-385 -475q-2 -3 -8 -9t-9.5 -11t-3.5 -8q0 -10 49 -39q47 -29 85.5 -74t61 -87.5t43 -81.5t42.5 -63t49 -24q22 0 34 18.5t16.5 40t21 40t45.5 18.5q18 0 27 -14t9 -33q0 -38 -52.5 -78.5t-117.5 -40.5q-48 0 -97.5 30t-89 72.5t-75.5 85.5t-70 73t-59 30
q-26 0 -43.5 -14.5t-24.5 -32t-21 -32t-34 -14.5q-14 0 -23 10.5t-9 30.5q0 15 13.5 25.5t43 33t55.5 54.5l385 492q-71 -2 -180 71q-5 3 -17.5 12.5t-17.5 13t-16 11.5t-16.5 11.5t-15 9.5t-15.5 8.5t-13.5 6t-13.5 4.5t-12 1q-20 0 -34.5 -11t-20.5 -26.5t-8.5 -25.5
t-2.5 -15q0 -30 22.5 -59t22.5 -43q0 -7 -5 -12t-11 -5q-9 0 -22 8t-27.5 24t-24.5 49t-10 75q0 60 40.5 112t98.5 52q66 0 168 -64q117 -71 213 -71q29 0 39.5 18.5t8.5 41t9 41t42 18.5q21 0 33 -14.5t12 -26.5q0 -33 -84 -138z" />
    <glyph glyph-name="braceleft" unicode="{" horiz-adv-x="569" 
d="M227 887l60 358q15 88 44.5 144.5t78 86t104.5 40t139 10.5v-4q-101 -22 -148 -80.5t-65 -167.5l-61 -356q-20 -117 -63.5 -176t-147.5 -85v-4q63 -16 97 -49.5t34 -105.5q0 -56 -70 -455q-8 -46 -8 -86q0 -133 137 -160v-4q-36 1 -74 0t-74.5 8.5t-65.5 26.5t-46.5 55
t-17.5 92q0 84 67 445q11 60 11 96q0 64 -33.5 93t-93.5 44v4q96 27 137 78t59 152z" />
    <glyph glyph-name="bar" unicode="|" horiz-adv-x="1241" 
d="M555 1536h131v-2048h-131v2048z" />
    <glyph glyph-name="braceright" unicode="}" horiz-adv-x="569" 
d="M455 430l-60 -358q-15 -88 -44.5 -144.5t-78 -86t-104.5 -40t-139 -10.5v4q101 22 148 80.5t65 167.5l61 356q20 117 63 175.5t148 84.5v5q-63 16 -97 49.5t-34 105.5q0 56 70 455q8 46 8 86q0 133 -137 160v4q29 2 61 0t63 -4.5t59 -15t49 -31t33.5 -52.5t12.5 -80
q0 -83 -67 -444q-11 -60 -11 -96q0 -64 33.5 -93t93.5 -44v-5q-96 -27 -137 -77.5t-59 -151.5z" />
    <glyph glyph-name="asciitilde" unicode="~" horiz-adv-x="1241" 
d="M1065 694l72 -82q-49 -95 -123 -159t-166 -64q-18 0 -42.5 5t-45.5 11.5t-53 18t-48.5 18.5t-48.5 20.5t-39 16.5q-3 1 -27 11.5t-31 13t-27.5 10t-32.5 10t-28.5 5.5t-31.5 3q-32 0 -61.5 -13t-48 -27.5t-42.5 -47t-33.5 -47.5t-31.5 -53l-72 82q28 51 52.5 86.5
t61 73.5t81 58t96.5 20q34 0 79.5 -12.5t75 -24t85.5 -35.5q58 -26 84 -37.5t66 -24t65 -12.5q64 0 122.5 53.5t92.5 122.5z" />
    <glyph glyph-name="exclamdown" unicode="&#xa1;" horiz-adv-x="681" 
d="M442 868q10 0 53.5 -51.5t43.5 -62.5q0 -12 -50 -66.5t-73 -54.5q-10 0 -53.5 52.5t-43.5 64.5q0 11 50 64.5t73 53.5zM254 -188l121 657q0 4 5 10t13 6q4 0 9.5 -5t5.5 -7l-27 -688q-2 -43 -2.5 -68t-4 -50t-4 -36.5t-8 -23t-9.5 -14.5t-15 -6t-18 -3h-25q-42 0 -55 9
t-13 36q0 24 27 183z" />
    <glyph glyph-name="cent" unicode="&#xa2;" 
d="M311 133l269 672q-29 16 -78 16q-59 0 -107.5 -31.5t-79 -80t-51.5 -109.5t-30 -117.5t-9 -107.5q0 -164 86 -242zM614 893l88 213q3 10 43 10q37 0 37 -10q0 -1 -14 -43l-78 -191q107 -52 107 -114q0 -78 -76 -78q-14 0 -25.5 5t-20 15t-13.5 17.5t-11 19.5t-8 15
l-266 -656q32 -12 80 -12q64 0 116.5 17.5t79 39t50 39t36.5 17.5q7 0 12 -7t5 -16q0 -4 -15 -23.5t-48 -49t-77 -57.5t-112.5 -47.5t-143.5 -19.5q-19 0 -28 3l-103 -261q-7 -12 -10 -13q-4 -1 -29 -1q-36 0 -36 10q0 13 12 45l90 236q-168 74 -168 303q0 132 43 246.5
t113 189.5t157 117.5t177 42.5q26 0 36 -2z" />
    <glyph glyph-name="sterling" unicode="&#xa3;" 
d="M213 543h-90q-31 0 -31 30q0 16 9.5 23.5t21.5 7.5h94q8 61 16 152t18 153t32 160q20 74 49.5 136.5t73 118t106.5 87t139 31.5q49 0 83.5 -12.5t49.5 -32.5t21 -36t6 -30q0 -24 -15 -42.5t-53 -18.5q-25 0 -42 11.5t-26 27.5t-17.5 32t-24 27.5t-37.5 11.5
q-147 0 -217 -471q-1 -11 -2 -16q-3 -20 -31 -289h199q12 0 21 -7.5t9 -23.5q0 -30 -30 -30h-209q-35 -235 -146 -412l5 -4q49 28 75.5 42t74.5 30t89 16q25 0 48.5 -3.5t49.5 -13.5t37 -14.5t41.5 -20t32.5 -16.5q13 -7 38.5 -21.5t39.5 -22.5t34.5 -14.5t37.5 -6.5
q39 0 66.5 33t27.5 65q0 19 -16 29.5t-34.5 14.5t-34.5 19.5t-16 43.5q0 27 18.5 47t57.5 20q32 0 54 -15.5t31.5 -40.5t13.5 -46.5t4 -44.5q0 -19 -6 -43.5t-22.5 -55.5t-40.5 -56.5t-64.5 -42.5t-90.5 -17q-15 0 -28.5 2t-32 9.5t-25.5 10.5t-33 16l-30 15
q-112 51 -219 51q-61 0 -105.5 -12.5t-67.5 -30t-39.5 -34.5t-31.5 -29.5t-33 -12.5q-76 0 -76 48q0 28 24.5 52t55 43.5t37.5 31.5q9 14 17 32t14.5 45t11 48.5t9.5 61t8 61.5t8 71.5t8 71.5z" />
    <glyph glyph-name="currency" unicode="&#xa4;" 
d="M-2 272l119 119q-113 137 -113 316q0 196 117 319l-125 123l72 74l125 -123q131 119 327 119q176 0 314 -113l118 117l72 -74l-121 -117q123 -129 123 -323q0 -185 -115 -318l119 -119l-72 -71l-118 118q-134 -122 -324 -122q-185 0 -328 122l-120 -118zM520 1104
q-168 0 -284.5 -115t-116.5 -282q0 -165 117 -280.5t282 -115.5q162 0 277.5 117.5t115.5 282.5q0 160 -115 276.5t-276 116.5z" />
    <glyph glyph-name="yen" unicode="&#xa5;" 
d="M274 567h203v37q0 66 -18 101l-297 600q-19 38 -44 58.5t-43.5 23.5t-32 10t-13.5 22q0 13 4.5 18t17.5 5q6 0 68.5 -4t126.5 -4q34 0 100 4t76 4q11 0 14.5 -4t3.5 -15q0 -20 -17.5 -29t-38.5 -11t-38.5 -14t-17.5 -36q0 -23 24 -76l191 -397q47 -94 58 -104q5 -4 9 -4
q3 0 6.5 1.5t7 4.5t6.5 6.5t8 10t8.5 11.5t10 14.5t11.5 16.5l241 352q62 88 62 150q0 36 -22.5 51t-49.5 14.5t-49.5 7.5t-22.5 31q0 19 47 19q20 0 95.5 -4t105.5 -4q17 0 62 4t75 4q33 0 33 -25q0 -16 -13.5 -22t-32.5 -7t-48 -18t-53 -51l-432 -617q-28 -39 -41 -135
h198l-16 -92h-197l-14 -145h207l-17 -92h-196q-4 -69 8 -112.5t33 -58t46 -20.5t47 -4t37 -4t15 -25q0 -13 -8 -17.5t-29 -4.5q-51 0 -120 4t-99 4q-35 0 -103.5 -4t-103.5 -4q-14 0 -17 3.5t-3 12.5q0 15 14.5 21t35.5 12.5t42 21.5t36.5 59.5t16.5 115.5h-209l17 92h205
l16 145h-209z" />
    <glyph glyph-name="brokenbar" unicode="&#xa6;" horiz-adv-x="1241" 
d="M555 1382h131v-716h-131v716zM555 358h131v-716h-131v716z" />
    <glyph glyph-name="section" unicode="&#xa7;" 
d="M430 870q-56 0 -99.5 -36t-43.5 -91q0 -63 65.5 -158.5t151 -167t139.5 -71.5q61 0 100 39t39 100q0 49 -38.5 117.5t-92.5 127t-116 99.5t-105 41zM406 913q31 0 83 -18l5 4q-86 95 -107 125q-59 86 -59 197q0 37 15 74.5t48.5 76.5t99.5 63.5t156 24.5q96 0 167 -53
t71 -145q0 -38 -28.5 -70.5t-65.5 -32.5q-44 0 -73.5 21t-29.5 65q0 34 15 56.5t30 38t15 30.5q0 23 -36 38t-73 15q-85 0 -141 -50t-56 -134q0 -33 12 -63t44.5 -69t63.5 -70.5t95 -95.5t113 -116q127 -134 127 -266q0 -105 -61 -181.5t-164 -76.5q-45 0 -68 6l-4 -4
q39 -40 51 -52.5t39.5 -46.5t37 -55.5t19 -56.5t9.5 -72q0 -81 -50 -146t-124 -97.5t-154 -32.5q-65 0 -117 19t-82.5 49t-46.5 64.5t-16 68.5q0 51 27 87t77 36q39 0 71 -22t32 -75q0 -34 -18.5 -56t-37 -35.5t-18.5 -26.5q0 -36 40.5 -51t84.5 -15q88 0 152.5 48t64.5 134
q0 47 -23 91.5t-45.5 68t-68.5 66.5l-135 131q-86 82 -138.5 165.5t-52.5 176.5q0 102 64 173.5t164 71.5z" />
    <glyph glyph-name="dieresis" unicode="&#xa8;" horiz-adv-x="681" 
d="M600 1008q-22 0 -46 43.5t-24 72.5q0 22 40.5 59.5t60.5 37.5q22 0 45.5 -44t23.5 -73q0 -22 -40 -59t-60 -37zM250 1008q-22 0 -46 43.5t-24 72.5q0 22 40.5 59.5t60.5 37.5q22 0 45.5 -44t23.5 -73q0 -22 -40 -59t-60 -37z" />
    <glyph glyph-name="copyright" unicode="&#xa9;" horiz-adv-x="1529" 
d="M1505 717q0 -150 -59 -287t-158 -236.5t-236.5 -158t-287.5 -58.5q-200 0 -370.5 100t-269.5 270t-99 368q0 201 98.5 372.5t269 272t371.5 100.5q150 0 287.5 -58.5t236.5 -158t158 -237t59 -289.5zM1415 717q0 178 -88 328.5t-238 237.5t-325 87q-177 0 -326.5 -88.5
t-236 -239.5t-86.5 -327q0 -174 87 -323t236.5 -236.5t325.5 -87.5q175 0 325 87t238 236.5t88 325.5zM1079 1081v-219h-53q-2 104 -58.5 161.5t-162.5 57.5q-97 0 -167 -50.5t-102 -129t-32 -174.5q0 -91 32.5 -174t103.5 -141t165 -58q85 0 151 41.5t101 116.5l43 -18
q-37 -95 -131.5 -149t-202.5 -54q-180 0 -290.5 118.5t-110.5 299.5q0 191 116.5 308.5t309.5 117.5q131 0 288 -54z" />
    <glyph glyph-name="ordfeminine" unicode="&#xaa;" 
d="M223 1063q0 71 49.5 164.5t126 163t144.5 69.5q29 0 65 -8q32 -8 51 -8q17 0 38 25.5t28 25.5q12 0 12 -10q0 -1 -16.5 -75t-32.5 -175.5t-16 -169.5q0 -28 7.5 -42.5t16.5 -14.5q15 0 29 11.5t22.5 26t18 26t16.5 11.5q15 0 15 -16q0 -21 -43 -77t-88 -56q-40 0 -58 43
t-18 88h-4q-105 -145 -240 -145q-65 0 -94 39.5t-29 103.5zM307 1096q0 -113 94 -113q63 0 118.5 51t60.5 80q7 28 27 131.5t24 138.5q1 10 -1 15t-19.5 9.5t-55.5 4.5q-57 0 -107 -40.5t-79 -96.5t-45.5 -105t-16.5 -75z" />
    <glyph glyph-name="guillemotleft" unicode="&#xab;" 
d="M455 446q37 31 110 89.5t122 100t81 73.5q29 30 37 37.5t14 7.5q19 0 19 -17t-25 -50.5t-76.5 -85t-79 -78t-82.5 -77.5q16 -29 58 -104t68 -124t26 -56q0 -10 -14 -10q-11 0 -26.5 13.5t-71 80t-160.5 200.5zM188 446q38 32 110 89.5t122 99.5t82 74q29 30 37 37.5
t14 7.5q18 0 18 -17t-25.5 -51t-75 -84t-79.5 -79t-82 -77q16 -29 58 -104t68 -124t26 -56q0 -10 -15 -10q-11 0 -26.5 13.5t-71 80t-160.5 200.5z" />
    <glyph glyph-name="logicalnot" unicode="&#xac;" horiz-adv-x="1241" 
d="M1008 242v411h-904v129h1033v-540h-129z" />
    <glyph glyph-name="registered" unicode="&#xae;" horiz-adv-x="1529" 
d="M1505 717q0 -150 -59 -287t-158 -236.5t-236.5 -158t-287.5 -58.5q-200 0 -370.5 100t-269.5 270t-99 368q0 201 98.5 372.5t269 272t371.5 100.5q150 0 287.5 -58.5t236.5 -158t158 -237t59 -289.5zM1415 717q0 178 -88 328.5t-238 237.5t-325 87q-177 0 -326.5 -88.5
t-236 -239.5t-86.5 -327q0 -174 87 -323t236.5 -236.5t325.5 -87.5q175 0 325 87t238 236.5t88 325.5zM633 711v-265q0 -42 10 -57.5t47 -19.5h43v-33h-311v33h33q42 5 53.5 14.5t11.5 48.5v621q-1 38 -12.5 47t-52.5 12h-35v37h401q60 0 105 -15.5t69.5 -37.5t39 -52
t18.5 -52.5t4 -45.5q0 -92 -66 -146.5t-162 -66.5v-4q36 3 70.5 -26t60.5 -75.5t47 -93.5t38.5 -88t27.5 -51q26 -26 80 -26v-33h-55h-21h-23t-21 1t-23.5 3.5t-19.5 7.5t-19 12q-32 26 -94 167t-76 155q-8 8 -19.5 14t-20 9t-23.5 4.5t-22 1.5h-24.5h-21.5h-37zM633 752h55
q54 0 95 7t79.5 26t59 57t20.5 94q0 87 -51.5 130.5t-140.5 43.5h-60q-21 0 -33 -5t-17 -18.5t-6 -23.5t-1 -32v-9v-270z" />
    <glyph glyph-name="macron" unicode="&#xaf;" horiz-adv-x="681" 
d="M739 1165l-16 -98h-584l17 98h583z" />
    <glyph glyph-name="macron" unicode="&#x2c9;" horiz-adv-x="681" 
d="M739 1165l-16 -98h-584l17 98h583z" />
    <glyph glyph-name="degree" unicode="&#xb0;" horiz-adv-x="819" 
d="M717 1135q0 -127 -90.5 -217.5t-216.5 -90.5q-128 0 -218 90.5t-90 217.5q-1 126 89.5 216.5t218.5 90.5q126 0 216.5 -90.5t90.5 -216.5zM635 1135q0 92 -66.5 158.5t-160.5 66.5q-92 0 -158.5 -66.5t-65.5 -158.5q0 -94 66 -160t160 -66q92 0 158.5 66.5t66.5 159.5z
" />
    <glyph glyph-name="plusminus" unicode="&#xb1;" horiz-adv-x="1241" 
d="M555 707v329h131v-329h451v-132h-451v-329h-131v329h-451v132h451zM104 0v131h1033v-131h-1033z" />
    <glyph glyph-name="twosuperior" unicode="&#xb2;" horiz-adv-x="614" 
d="M209 662h168q41 0 71 13.5t43 29.5t26 29.5t22 13.5q12 0 12 -15q0 -11 -38 -67.5t-44 -81.5q-5 -13 -25 -13q-44 0 -132 3.5t-132 3.5q-26 0 -73 -3.5t-64 -3.5q-14 0 -14 9q0 19 34 53q203 208 305.5 360.5t102.5 259.5q0 62 -40 95.5t-109 33.5q-49 0 -85.5 -18
t-57 -35.5t-29.5 -17.5q-17 0 -17 14q0 4 10 16.5t31 29.5t48 33t65 27t78 11q56 0 97 -16.5t61.5 -38.5t32.5 -51t14.5 -46.5t2.5 -32.5q0 -66 -65 -169.5t-142.5 -189t-142.5 -154t-65 -72.5q0 -10 51 -10z" />
    <glyph glyph-name="threesuperior" unicode="&#xb3;" horiz-adv-x="614" 
d="M182 1004q-14 0 -14 12q0 9 33 22q40 20 64.5 33t62 37.5t58.5 47t37.5 55t16.5 67.5q0 58 -37.5 86.5t-101.5 28.5q-39 0 -70 -11.5t-48 -23.5t-21 -12q-7 0 -12 4.5t-5 9.5q0 20 67.5 51t129.5 31q75 0 135 -38t60 -104q0 -44 -30.5 -86.5t-67 -68.5t-67 -47.5
t-30.5 -28.5q0 -4 22 -7.5t53.5 -12t62.5 -25t53 -53.5t22 -90q0 -51 -37.5 -108t-95.5 -103t-134 -76.5t-147 -30.5q-10 0 -28.5 1.5t-41.5 8.5t-24 17q-8 66 -8 69q0 27 16 27q11 0 22 -10.5t20.5 -23.5t37.5 -23.5t70 -10.5q101 0 175.5 72.5t74.5 169.5q0 72 -53.5 112
t-137.5 40q-27 0 -52.5 -4t-29.5 -4z" />
    <glyph glyph-name="acute" unicode="&#xb4;" horiz-adv-x="681" 
d="M356 995h-65q47 46 92 91t73.5 74.5t56.5 57.5t44 44.5t32 31.5t24.5 22t18 12.5t16 7t14.5 1.5q33 0 54 -21t21 -40t-11 -35.5t-19.5 -23.5t-30.5 -21t-23 -14z" />
    <glyph glyph-name="mu" unicode="&#xb5;" 
d="M137 164l82 438q10 62 10 100q0 41 -26 41t-48 -23t-34.5 -50.5t-28 -50.5t-29.5 -23q-16 0 -16 25q0 58 41 124t93.5 108t88.5 42q26 0 45 -11t28 -24t13.5 -36t5 -35t0.5 -32v-7q0 -8 -6 -49.5t-17.5 -118.5t-19.5 -131q-45 -272 -45 -299q0 -60 41 -60q32 0 97 63
t137 161.5t137.5 240.5t91.5 279q5 28 14 35.5t27 7.5h68q18 0 18 -23q0 -8 -61.5 -320t-61.5 -364q0 -20 2 -32t11.5 -23t27.5 -11q33 0 62.5 21t46 47t33 47t26.5 21q19 0 19 -21q0 -23 -23.5 -63t-61.5 -81t-94 -70.5t-112 -29.5q-41 0 -58.5 34.5t-17.5 80.5
q0 39 17 155.5t28 168.5l-4 4q-35 -58 -70.5 -110.5t-86.5 -116t-99 -109t-104.5 -76.5t-106.5 -31q-13 0 -28.5 6.5t-22.5 16.5q-27 -114 -27 -305q0 -111 -86 -111q-22 0 -37.5 19t-15.5 53q0 35 21.5 95.5t56.5 171.5t59 241z" />
    <glyph glyph-name="mu" unicode="&#x3bc;" 
d="M137 164l82 438q10 62 10 100q0 41 -26 41t-48 -23t-34.5 -50.5t-28 -50.5t-29.5 -23q-16 0 -16 25q0 58 41 124t93.5 108t88.5 42q26 0 45 -11t28 -24t13.5 -36t5 -35t0.5 -32v-7q0 -8 -6 -49.5t-17.5 -118.5t-19.5 -131q-45 -272 -45 -299q0 -60 41 -60q32 0 97 63
t137 161.5t137.5 240.5t91.5 279q5 28 14 35.5t27 7.5h68q18 0 18 -23q0 -8 -61.5 -320t-61.5 -364q0 -20 2 -32t11.5 -23t27.5 -11q33 0 62.5 21t46 47t33 47t26.5 21q19 0 19 -21q0 -23 -23.5 -63t-61.5 -81t-94 -70.5t-112 -29.5q-41 0 -58.5 34.5t-17.5 80.5
q0 39 17 155.5t28 168.5l-4 4q-35 -58 -70.5 -110.5t-86.5 -116t-99 -109t-104.5 -76.5t-106.5 -31q-13 0 -28.5 6.5t-22.5 16.5q-27 -114 -27 -305q0 -111 -86 -111q-22 0 -37.5 19t-15.5 53q0 35 21.5 95.5t56.5 171.5t59 241z" />
    <glyph glyph-name="paragraph" unicode="&#xb6;" horiz-adv-x="1286" 
d="M1030 1366l-229 -1544h106l-12 -78h-713l13 78h182l112 758q-5 0 -27 -3.5t-34 -3.5q-171 0 -256.5 93.5t-85.5 251.5q0 66 13 132.5t46 137t82.5 124t130.5 88t181 34.5h628l-10 -68h-127zM922 1366h-205l-230 -1544h205zM498 633l108 733q-48 8 -88.5 -6t-69 -40
t-51 -69.5t-36 -83t-23.5 -94t-14 -88.5t-6.5 -81t-2.5 -56.5v-28.5q0 -105 47.5 -145.5t135.5 -40.5z" />
    <glyph glyph-name="periodcentered" unicode="&#xb7;" horiz-adv-x="681" 
d="M317 399q-10 0 -53 52t-43 63q0 12 50 66.5t73 54.5q10 0 53 -52.5t43 -64.5q0 -11 -50 -65t-73 -54z" />
    <glyph glyph-name="periodcentered" unicode="&#x2219;" horiz-adv-x="681" 
d="M317 399q-10 0 -53 52t-43 63q0 12 50 66.5t73 54.5q10 0 53 -52.5t43 -64.5q0 -11 -50 -65t-73 -54z" />
    <glyph glyph-name="cedilla" unicode="&#xb8;" horiz-adv-x="681" 
d="M133 -190l127 190h74l-90 -133q27 6 55 6q72 0 116 -39.5t44 -107.5q0 -35 -16.5 -64t-42 -47t-59 -30.5t-65.5 -17.5t-63 -5q-65 0 -114 14t-70 29l37 53q72 -29 114 -29q60 0 98.5 23.5t38.5 66.5q0 42 -25 63t-69 21q-41 0 -76 -14z" />
    <glyph glyph-name="onesuperior" unicode="&#xb9;" horiz-adv-x="614" 
d="M451 1380l-89 -637q-8 -64 -8 -73q0 -29 16.5 -44.5t37 -17.5t37 -6t16.5 -14q0 -17 -15 -17q-19 0 -62 3.5t-65 3.5q-27 0 -78 -3.5t-73 -3.5q-14 0 -14 13q0 11 7 15t17 3.5t23 2.5t25 9.5t22 26.5t14 53l80 555q0 3 1 18.5t1 28.5q0 9 -1.5 16.5t-3.5 12t-6 8t-6.5 5
t-7.5 2.5t-7 1h-7h-6q-5 0 -19.5 -2t-19.5 -2q-14 0 -14 13q0 10 18 16.5t61 20.5t83 34q6 3 13.5 8.5t14 9t13.5 3.5q8 0 8 -17q0 -3 -6 -45z" />
    <glyph glyph-name="ordmasculine" unicode="&#xba;" 
d="M467 920q-101 0 -157 60t-56 155q0 79 35 152.5t104.5 123t157.5 49.5q102 0 160.5 -55.5t58.5 -155.5q0 -83 -35.5 -157t-106.5 -123t-161 -49zM344 1118q0 -176 123 -176q47 0 85 22t61 56.5t39 80t22 88.5t6 85q0 78 -29 121t-102 43q-58 0 -100.5 -32.5t-64 -84
t-31 -102.5t-9.5 -101z" />
    <glyph glyph-name="guillemotright" unicode="&#xbb;" 
d="M829 446q-39 -32 -110.5 -89.5t-121 -99t-81.5 -73.5q-29 -30 -37 -37.5t-14 -7.5q-19 0 -19 17q0 16 24 49t77.5 86.5t78 76.5t83.5 78q-15 28 -57.5 104t-68.5 125t-26 56q0 10 14 10q11 0 26.5 -14t71 -80t160.5 -201zM565 446q-39 -32 -110.5 -89.5t-121 -99
t-81.5 -73.5q-29 -30 -37 -37.5t-14 -7.5q-19 0 -19 17t25 50t76 84.5t78.5 78t82.5 77.5q-14 26 -57 103.5t-68.5 126t-25.5 55.5q0 10 14 10q11 0 26.5 -14t71 -80t160.5 -201z" />
    <glyph glyph-name="onequarter" unicode="&#xbc;" horiz-adv-x="1536" 
d="M1337 754l-67 -467h39q24 0 42 9.5t28 18.5t16 9q12 0 12 -15q0 -12 -19 -52.5t-34 -49.5q-12 -6 -94 -6l-39 -277q-5 -42 -11 -49q-9 -10 -45 -10h-5h-8t-7 0.5t-7.5 2t-5.5 3.5t-4.5 5.5t-1.5 8.5q0 25 2 33l37 283h-352q-5 0 -9.5 5.5t-4.5 12.5q0 15 8 23l496 544
q2 3 6 8t6 7t5.5 5t6.5 4t6 1q8 0 9 -8.5t-2 -26.5q-2 -14 -3 -22zM1178 287l53 352l-4 4l-318 -356h269zM260 0l936 1442h90l-934 -1442h-92zM451 1380l-89 -637q-8 -64 -8 -73q0 -29 16.5 -44.5t37 -17.5t37 -6t16.5 -14q0 -17 -15 -17q-19 0 -62 3.5t-65 3.5
q-27 0 -78 -3.5t-73 -3.5q-14 0 -14 13q0 11 7 15t17 3.5t23 2.5t25 9.5t22 26.5t14 53l80 555q0 3 1 18.5t1 28.5q0 9 -1.5 16.5t-3.5 12t-6 8t-6.5 5t-7.5 2.5t-7 1h-7h-6q-5 0 -19.5 -2t-19.5 -2q-14 0 -14 13q0 10 18 16.5t61 20.5t83 34q6 3 13.5 8.5t14 9t13.5 3.5
q8 0 8 -17q0 -3 -6 -45z" />
    <glyph glyph-name="onehalf" unicode="&#xbd;" horiz-adv-x="1536" 
d="M260 0l936 1442h90l-934 -1442h-92zM1073 84h168q41 0 71 13.5t43 29.5t26 29.5t22 13.5q12 0 12 -14q0 -11 -38 -68t-44 -82q-5 -12 -24 -12q-44 0 -132.5 3t-132.5 3q-26 0 -73 -3t-64 -3q-14 0 -14 8q0 18 35 53q407 416 407 621q0 62 -40 95.5t-109 33.5
q-49 0 -85.5 -18t-57 -36t-29.5 -18q-17 0 -17 15q0 4 10 16.5t31 29.5t48 32.5t65 26.5t78 11q56 0 97 -16.5t62 -38.5t33 -50.5t14.5 -46t2.5 -32.5q0 -54 -43 -132.5t-104 -153t-122 -141t-104 -111t-43 -48.5q0 -10 51 -10zM451 1380l-89 -637q-8 -64 -8 -73
q0 -29 16.5 -44.5t37 -17.5t37 -6t16.5 -14q0 -17 -15 -17q-19 0 -62 3.5t-65 3.5q-27 0 -78 -3.5t-73 -3.5q-14 0 -14 13q0 11 7 15t17 3.5t23 2.5t25 9.5t22 26.5t14 53l80 555q0 3 1 18.5t1 28.5q0 9 -1.5 16.5t-3.5 12t-6 8t-6.5 5t-7.5 2.5t-7 1h-7h-6q-5 0 -19.5 -2
t-19.5 -2q-14 0 -14 13q0 10 18 16.5t61 20.5t83 34q6 3 13.5 8.5t14 9t13.5 3.5q8 0 8 -17q0 -3 -6 -45z" />
    <glyph glyph-name="threequarters" unicode="&#xbe;" horiz-adv-x="1536" 
d="M260 0l936 1442h90l-934 -1442h-92zM182 1004q-14 0 -14 12q0 9 33 22q40 20 64.5 33t62 37.5t58.5 47t37.5 55t16.5 67.5q0 58 -37.5 86.5t-101.5 28.5q-39 0 -70 -11.5t-48 -23.5t-21 -12q-7 0 -12 4.5t-5 9.5q0 20 67.5 51t129.5 31q75 0 135 -38t60 -104
q0 -44 -30.5 -86.5t-67 -68.5t-67 -47.5t-30.5 -28.5q0 -4 22 -7.5t53.5 -12t62.5 -25t53 -53.5t22 -90q0 -51 -37.5 -108t-95.5 -103t-134 -76.5t-147 -30.5q-10 0 -28.5 1.5t-41.5 8.5t-24 17q-8 66 -8 69q0 27 16 27q11 0 22 -10.5t20.5 -23.5t37.5 -23.5t70 -10.5
q101 0 175.5 72.5t74.5 169.5q0 72 -53.5 112t-137.5 40q-27 0 -52.5 -4t-29.5 -4zM1337 754l-67 -467h39q24 0 42 9.5t28 18.5t16 9q12 0 12 -15q0 -12 -19 -52.5t-34 -49.5q-12 -6 -94 -6l-39 -277q-5 -42 -11 -49q-9 -10 -45 -10h-5h-8t-7 0.5t-7.5 2t-5.5 3.5t-4.5 5.5
t-1.5 8.5q0 25 2 33l37 283h-352q-5 0 -9.5 5.5t-4.5 12.5q0 15 8 23l496 544q2 3 6 8t6 7t5.5 5t6.5 4t6 1q8 0 9 -8.5t-2 -26.5q-2 -14 -3 -22zM1178 287l53 352l-4 4l-318 -356h269z" />
    <glyph glyph-name="questiondown" unicode="&#xbf;" horiz-adv-x="796" 
d="M389 -381q-88 0 -156.5 64t-68.5 151q0 47 33.5 107t80.5 117.5t94.5 116t81 120t33.5 111.5q0 25 -3 44t-3 25q0 25 19 25q22 0 30.5 -41.5t8.5 -85.5q0 -59 -37 -139.5t-82 -147t-82 -136.5t-37 -110q0 -63 43 -103t107 -40q24 0 51.5 12.5t46 25.5t20.5 13q7 0 12 -4
t5 -8q0 -30 -58.5 -73.5t-138.5 -43.5zM551 862q10 0 53 -51.5t43 -62.5q0 -12 -50 -66.5t-73 -54.5q-10 0 -53 52t-43 64q0 11 50 65t73 54z" />
    <glyph glyph-name="Agrave" unicode="&#xc0;" horiz-adv-x="1478" 
d="M535 627h432q24 0 24 18q0 17 -16 57l-158 447l-3 9t-3.5 9.5t-3.5 8.5t-3.5 8l-3.5 7t-3.5 6.5t-3.5 4.5t-4.5 3t-4.5 1q-12 0 -41 -55l-247 -451q-23 -46 -23 -57q0 -16 54 -16h8zM1098 336l-64 170q-1 1 -3.5 8t-4.5 11t-6.5 8t-9.5 4h-578q-4 0 -7.5 -0.5t-6 -1.5
t-5.5 -3t-4 -3t-3.5 -5t-3 -4.5t-3 -5.5t-2.5 -6l-157 -315q-19 -48 -19 -74q0 -30 24 -45t53 -17t53 -9.5t24 -24.5q0 -31 -31 -31q-7 0 -65.5 4t-122.5 4q-47 0 -94.5 -4t-57.5 -4q-9 0 -14.5 8t-5.5 16q0 15 14 24.5t34.5 16.5t48 31.5t48.5 63.5l666 1253
q15 30 26.5 42.5t24.5 12.5q20 0 29 -10.5t18 -40.5l401 -1229q16 -50 38.5 -81t42.5 -41t38 -15t28.5 -10t10.5 -19q0 -6 -2 -10.5t-4.5 -7t-7.5 -3.5t-8 -1h-8.5h-6.5q-48 0 -102 4t-70 4q-31 0 -96 -4t-98 -4q-24 0 -33.5 4.5t-9.5 17.5q0 16 22 24t48.5 10.5t48.5 15
t22 36.5q0 99 -49 236zM1014 1542h-66l-297 187q-1 0 -23 14t-30.5 21t-19.5 23.5t-11 35.5t21.5 40t54.5 21q8 0 14.5 -1.5t16 -7t18 -12.5t24.5 -22t32 -31.5t44 -44.5t56.5 -57.5t73.5 -74.5t92 -91z" />
    <glyph glyph-name="Aacute" unicode="&#xc1;" horiz-adv-x="1478" 
d="M535 627h432q24 0 24 18q0 17 -16 57l-158 447l-3 9t-3.5 9.5t-3.5 8.5t-3.5 8l-3.5 7t-3.5 6.5t-3.5 4.5t-4.5 3t-4.5 1q-12 0 -41 -55l-247 -451q-23 -46 -23 -57q0 -16 54 -16h8zM1098 336l-64 170q-1 1 -3.5 8t-4.5 11t-6.5 8t-9.5 4h-578q-4 0 -7.5 -0.5t-6 -1.5
t-5.5 -3t-4 -3t-3.5 -5t-3 -4.5t-3 -5.5t-2.5 -6l-157 -315q-19 -48 -19 -74q0 -30 24 -45t53 -17t53 -9.5t24 -24.5q0 -31 -31 -31q-7 0 -65.5 4t-122.5 4q-47 0 -94.5 -4t-57.5 -4q-9 0 -14.5 8t-5.5 16q0 15 14 24.5t34.5 16.5t48 31.5t48.5 63.5l666 1253
q15 30 26.5 42.5t24.5 12.5q20 0 29 -10.5t18 -40.5l401 -1229q16 -50 38.5 -81t42.5 -41t38 -15t28.5 -10t10.5 -19q0 -6 -2 -10.5t-4.5 -7t-7.5 -3.5t-8 -1h-8.5h-6.5q-48 0 -102 4t-70 4q-31 0 -96 -4t-98 -4q-24 0 -33.5 4.5t-9.5 17.5q0 16 22 24t48.5 10.5t48.5 15
t22 36.5q0 99 -49 236zM756 1542h-66q47 46 92 91t73.5 74.5t56.5 57.5t44 44.5t32 31.5t24.5 22t18 12.5t16 7t14.5 1.5q33 0 54.5 -21t21.5 -40t-11 -35.5t-19.5 -23.5t-30.5 -21t-23 -14z" />
    <glyph glyph-name="Acircumflex" unicode="&#xc2;" horiz-adv-x="1478" 
d="M535 627h432q24 0 24 18q0 17 -16 57l-158 447l-3 9t-3.5 9.5t-3.5 8.5t-3.5 8l-3.5 7t-3.5 6.5t-3.5 4.5t-4.5 3t-4.5 1q-12 0 -41 -55l-247 -451q-23 -46 -23 -57q0 -16 54 -16h8zM1098 336l-64 170q-1 1 -3.5 8t-4.5 11t-6.5 8t-9.5 4h-578q-4 0 -7.5 -0.5t-6 -1.5
t-5.5 -3t-4 -3t-3.5 -5t-3 -4.5t-3 -5.5t-2.5 -6l-157 -315q-19 -48 -19 -74q0 -30 24 -45t53 -17t53 -9.5t24 -24.5q0 -31 -31 -31q-7 0 -65.5 4t-122.5 4q-47 0 -94.5 -4t-57.5 -4q-9 0 -14.5 8t-5.5 16q0 15 14 24.5t34.5 16.5t48 31.5t48.5 63.5l666 1253
q15 30 26.5 42.5t24.5 12.5q20 0 29 -10.5t18 -40.5l401 -1229q16 -50 38.5 -81t42.5 -41t38 -15t28.5 -10t10.5 -19q0 -6 -2 -10.5t-4.5 -7t-7.5 -3.5t-8 -1h-8.5h-6.5q-48 0 -102 4t-70 4q-31 0 -96 -4t-98 -4q-24 0 -33.5 4.5t-9.5 17.5q0 16 22 24t48.5 10.5t48.5 15
t22 36.5q0 99 -49 236zM897 1872l180 -344h-65l-170 219l-277 -219h-76l330 344h78z" />
    <glyph glyph-name="Atilde" unicode="&#xc3;" horiz-adv-x="1478" 
d="M535 627h432q24 0 24 18q0 17 -16 57l-158 447l-3 9t-3.5 9.5t-3.5 8.5t-3.5 8l-3.5 7t-3.5 6.5t-3.5 4.5t-4.5 3t-4.5 1q-12 0 -41 -55l-247 -451q-23 -46 -23 -57q0 -16 54 -16h8zM1098 336l-64 170q-1 1 -3.5 8t-4.5 11t-6.5 8t-9.5 4h-578q-4 0 -7.5 -0.5t-6 -1.5
t-5.5 -3t-4 -3t-3.5 -5t-3 -4.5t-3 -5.5t-2.5 -6l-157 -315q-19 -48 -19 -74q0 -30 24 -45t53 -17t53 -9.5t24 -24.5q0 -31 -31 -31q-7 0 -65.5 4t-122.5 4q-47 0 -94.5 -4t-57.5 -4q-9 0 -14.5 8t-5.5 16q0 15 14 24.5t34.5 16.5t48 31.5t48.5 63.5l666 1253
q15 30 26.5 42.5t24.5 12.5q20 0 29 -10.5t18 -40.5l401 -1229q16 -50 38.5 -81t42.5 -41t38 -15t28.5 -10t10.5 -19q0 -6 -2 -10.5t-4.5 -7t-7.5 -3.5t-8 -1h-8.5h-6.5q-48 0 -102 4t-70 4q-31 0 -96 -4t-98 -4q-24 0 -33.5 4.5t-9.5 17.5q0 16 22 24t48.5 10.5t48.5 15
t22 36.5q0 99 -49 236zM1120 1794h51q-15 -101 -82 -165t-163 -38q-23 5 -118.5 45.5t-131.5 40.5q-35 0 -76 -37q-15 -20 -31 -59h-51q15 88 63.5 147.5t131.5 59.5q48 0 166 -43q104 -45 133 -45q14 0 25.5 2t21 8t15 9.5t13.5 15t10.5 16t11 21.5t11.5 22z" />
    <glyph glyph-name="Adieresis" unicode="&#xc4;" horiz-adv-x="1478" 
d="M535 627h432q24 0 24 18q0 17 -16 57l-158 447l-3 9t-3.5 9.5t-3.5 8.5t-3.5 8l-3.5 7t-3.5 6.5t-3.5 4.5t-4.5 3t-4.5 1q-12 0 -41 -55l-247 -451q-23 -46 -23 -57q0 -16 54 -16h8zM1098 336l-64 170q-1 1 -3.5 8t-4.5 11t-6.5 8t-9.5 4h-578q-4 0 -7.5 -0.5t-6 -1.5
t-5.5 -3t-4 -3t-3.5 -5t-3 -4.5t-3 -5.5t-2.5 -6l-157 -315q-19 -48 -19 -74q0 -30 24 -45t53 -17t53 -9.5t24 -24.5q0 -31 -31 -31q-7 0 -65.5 4t-122.5 4q-47 0 -94.5 -4t-57.5 -4q-9 0 -14.5 8t-5.5 16q0 15 14 24.5t34.5 16.5t48 31.5t48.5 63.5l666 1253
q15 30 26.5 42.5t24.5 12.5q20 0 29 -10.5t18 -40.5l401 -1229q16 -50 38.5 -81t42.5 -41t38 -15t28.5 -10t10.5 -19q0 -6 -2 -10.5t-4.5 -7t-7.5 -3.5t-8 -1h-8.5h-6.5q-48 0 -102 4t-70 4q-31 0 -96 -4t-98 -4q-24 0 -33.5 4.5t-9.5 17.5q0 16 22 24t48.5 10.5t48.5 15
t22 36.5q0 99 -49 236zM999 1554q-22 0 -45.5 44t-23.5 73q0 22 40 59t60 37q22 0 46 -43.5t24 -72.5q0 -22 -40.5 -59.5t-60.5 -37.5zM649 1554q-22 0 -45.5 44t-23.5 73q0 22 40 59t60 37q22 0 46 -43.5t24 -72.5q0 -22 -40.5 -59.5t-60.5 -37.5z" />
    <glyph glyph-name="Aring" unicode="&#xc5;" horiz-adv-x="1478" 
d="M535 627h432q24 0 24 18q0 17 -16 57l-158 447l-3 9t-3.5 9.5t-3.5 8.5t-3.5 8l-3.5 7t-3.5 6.5t-3.5 4.5t-4.5 3t-4.5 1q-12 0 -41 -55l-247 -451q-23 -46 -23 -57q0 -16 54 -16h8zM1098 336l-64 170q-1 1 -3.5 8t-4.5 11t-6.5 8t-9.5 4h-578q-4 0 -7.5 -0.5t-6 -1.5
t-5.5 -3t-4 -3t-3.5 -5t-3 -4.5t-3 -5.5t-2.5 -6l-157 -315q-19 -48 -19 -74q0 -30 24 -45t53 -17t53 -9.5t24 -24.5q0 -31 -31 -31q-7 0 -65.5 4t-122.5 4q-47 0 -94.5 -4t-57.5 -4q-9 0 -14.5 8t-5.5 16q0 15 14 24.5t34.5 16.5t48 31.5t48.5 63.5l666 1253
q15 30 26.5 42.5t24.5 12.5q20 0 29 -10.5t18 -40.5l401 -1229q16 -50 38.5 -81t42.5 -41t38 -15t28.5 -10t10.5 -19q0 -6 -2 -10.5t-4.5 -7t-7.5 -3.5t-8 -1h-8.5h-6.5q-48 0 -102 4t-70 4q-31 0 -96 -4t-98 -4q-24 0 -33.5 4.5t-9.5 17.5q0 16 22 24t48.5 10.5t48.5 15
t22 36.5q0 99 -49 236zM885 1530q-86 0 -147.5 62t-61.5 147q0 86 61.5 147.5t147.5 61.5t146.5 -62t60.5 -147t-61 -147t-146 -62zM885 1866q-51 0 -89 -38t-38 -89q0 -50 38.5 -87.5t88.5 -37.5q49 0 87 38t38 87q0 50 -37.5 88.5t-87.5 38.5z" />
    <glyph glyph-name="AE" unicode="&#xc6;" horiz-adv-x="1933" 
d="M608 627h420q18 0 22 11t9 58q17 151 37 315.5t27 226t7 75.5q0 18 -14 18q-5 0 -10 -3t-12 -11t-11.5 -14t-14.5 -19t-15 -20l-455 -598q-16 -24 -16 -33q0 -6 26 -6zM995 137l49 393h-546q-218 -300 -242 -337q-31 -48 -31 -70q0 -38 23.5 -55t52.5 -17.5t52.5 -7.5
t23.5 -27q0 -10 -6 -17t-15 -7q-7 0 -77 4t-109 4q-43 0 -105.5 -4t-68.5 -4q-19 0 -19 20q0 16 12 25t29.5 13t44.5 22t50 49l839 1132q35 48 45.5 67t10.5 38q0 15 -28 19t-55.5 10.5t-27.5 27.5q0 27 29 27q12 0 249.5 -4t354.5 -4q22 0 143.5 4t222.5 4q11 0 16.5 -3.5
t6 -6.5t0.5 -9v-227q0 -15 -0.5 -24t-3.5 -21.5t-10 -18.5t-19 -6q-8 0 -13 4.5t-8 14t-4 16t-2 18.5t-1 13q-10 74 -40.5 109t-97 49t-202.5 14q-1 0 -35 0.5t-52.5 0t-49 -2.5t-51 -6.5t-32.5 -12.5q-4 -2 -7 -6.5t-5 -10.5t-3.5 -11t-3 -14.5t-2 -14.5t-2 -16t-1.5 -15
l-47 -389q-2 -14 -2 -41q0 -8 1 -14.5t1.5 -10.5t4 -7t5.5 -4.5t8 -2t9 -0.5h12h14h197q47 0 81 11.5t50.5 29t28 37.5t16.5 37.5t14 29t21 11.5q18 0 18 -24q0 -32 -12.5 -104.5t-14.5 -106.5q-1 -16 -2 -38t-1.5 -36.5t-1.5 -32.5t-2 -30t-3 -25.5t-4 -21.5t-5.5 -15.5
t-8 -10.5t-9.5 -3q-15 0 -21 15t-5.5 37.5t-4.5 48.5t-15 48.5t-40 37.5t-77 15h-232q-38 0 -52 -131q-1 -4 -1 -6l-39 -358q-4 -46 -4 -74q0 -40 21.5 -48.5t117.5 -8.5q114 0 203.5 12t142.5 31.5t90.5 42.5t55.5 46.5t30 43t22.5 31.5t23.5 12q9 0 15.5 -6t6.5 -15
q0 -82 -131 -229q-44 -47 -82 -47q-53 0 -188 4t-254 4q-115 0 -210 -4t-108 -4q-2 0 -9.5 -0.5t-12 -0.5t-10 1.5t-8.5 6t-3 11.5q0 16 12 23t29.5 10.5t36 9.5t34 27t19.5 57z" />
    <glyph glyph-name="Ccedilla" unicode="&#xc7;" horiz-adv-x="1478" 
d="M532 -190l113 170q-286 17 -445 205.5t-159 486.5q0 127 35.5 246t103 216.5t158.5 171t208.5 114t246.5 40.5q102 0 197 -23.5t150.5 -51t102 -51t62.5 -23.5q14 0 29 19.5t24 19.5t13 -6.5t4.5 -12.5t0.5 -19v-5l8 -277q0 -3 1 -12.5t1.5 -17.5t0 -16.5t-4.5 -13.5
t-10 -5q-22 0 -37 43t-36.5 104t-53.5 92q-105 99 -215.5 147t-243.5 48q-35 0 -76.5 -6t-99.5 -25t-112 -49.5t-109 -84.5t-95 -124t-65.5 -175t-25.5 -230q0 -94 20.5 -187t65.5 -180t109 -153t158.5 -106t205.5 -40q89 0 166 20.5t129.5 53.5t95 72.5t70 79.5t47.5 73
t34 53.5t23 20.5q19 0 19 -21q0 -28 -25 -113.5t-31 -119.5q-1 -7 -10 -15t-16 -12q-8 -4 -47 -27.5t-76.5 -40.5t-98 -38.5t-144 -34t-181.5 -13.5l-74 -110q27 6 55 6q72 0 116 -39.5t44 -107.5q0 -35 -16.5 -64t-42 -47t-59 -30.5t-65.5 -17.5t-63 -5q-65 0 -114 14
t-70 29l37 53q73 -29 115 -29q60 0 98.5 23.5t38.5 66.5q0 42 -25 63t-69 21q-41 0 -76 -14z" />
    <glyph glyph-name="Egrave" unicode="&#xc8;" horiz-adv-x="1251" 
d="M453 1255l-47 -389q-3 -21 -3 -41q0 -8 1 -14.5t2 -10.5t4.5 -7t5 -4.5t8 -2t9.5 -0.5h12h14h270q47 0 81 11.5t50.5 29t28 37.5t16.5 37.5t14 29t21 11.5q18 0 18 -24q0 -32 -12 -104.5t-14 -106.5q-1 -16 -2 -38t-1.5 -36.5t-1.5 -32.5t-2 -30t-3 -25.5t-4 -21.5
t-5.5 -15.5t-8 -10.5t-9.5 -3q-15 0 -21 15t-6 37.5t-4.5 48.5t-15 48.5t-40.5 37.5t-77 15h-305q-38 0 -52 -131q-1 -4 -1 -6l-39 -358q-4 -46 -4 -74q0 -40 21.5 -48.5t117.5 -8.5q114 0 206.5 9.5t152 25t105 35t69.5 40t42 40t26 35t18 25t22 9.5q9 0 16 -6t7 -15
q0 -81 -132 -229q-25 -26 -56 -36.5t-99 -10.5q-52 0 -188 4t-255 4q-116 0 -208.5 -4t-98.5 -4h-11h-10h-8.5h-7t-5.5 1t-5 2t-3.5 3t-2 4.5t-0.5 5.5q0 16 12 24t29.5 11.5t36 9.5t34 27t19.5 57l125 1030q10 72 10 115q0 38 -16 61t-39.5 31.5t-46.5 13t-39 11t-16 20.5
q0 23 57 23q83 0 250 -4t250 -4q22 0 180.5 4t259.5 4q11 0 16 -3.5t5.5 -6.5t0.5 -9v-227q0 -16 -0.5 -24t-3 -21t-9.5 -19t-19 -6q-6 0 -10 2.5t-7 7.5t-5 10t-3 12.5t-2 12.5t-1.5 12t-0.5 9q-6 46 -19 73.5t-38 48.5t-72.5 31t-113.5 14.5t-171 4.5q-1 0 -35 0.5
t-52.5 0t-48.5 -2.5t-50.5 -6.5t-32.5 -12.5q-4 -2 -7 -6.5t-5 -10.5t-3.5 -11t-3 -14.5t-2 -14.5t-2 -16t-1.5 -15zM899 1542h-65l-297 187q-1 0 -23 14t-30.5 21t-19.5 23.5t-11 35.5t21 40t54 21q8 0 14.5 -1.5t16 -7t18 -12.5t24.5 -22t32 -31.5t44 -44.5t56.5 -57.5
t73.5 -74.5t92 -91z" />
    <glyph glyph-name="Eacute" unicode="&#xc9;" horiz-adv-x="1251" 
d="M453 1255l-47 -389q-3 -21 -3 -41q0 -8 1 -14.5t2 -10.5t4.5 -7t5 -4.5t8 -2t9.5 -0.5h12h14h270q47 0 81 11.5t50.5 29t28 37.5t16.5 37.5t14 29t21 11.5q18 0 18 -24q0 -32 -12 -104.5t-14 -106.5q-1 -16 -2 -38t-1.5 -36.5t-1.5 -32.5t-2 -30t-3 -25.5t-4 -21.5
t-5.5 -15.5t-8 -10.5t-9.5 -3q-15 0 -21 15t-6 37.5t-4.5 48.5t-15 48.5t-40.5 37.5t-77 15h-305q-38 0 -52 -131q-1 -4 -1 -6l-39 -358q-4 -46 -4 -74q0 -40 21.5 -48.5t117.5 -8.5q114 0 206.5 9.5t152 25t105 35t69.5 40t42 40t26 35t18 25t22 9.5q9 0 16 -6t7 -15
q0 -81 -132 -229q-25 -26 -56 -36.5t-99 -10.5q-52 0 -188 4t-255 4q-116 0 -208.5 -4t-98.5 -4h-11h-10h-8.5h-7t-5.5 1t-5 2t-3.5 3t-2 4.5t-0.5 5.5q0 16 12 24t29.5 11.5t36 9.5t34 27t19.5 57l125 1030q10 72 10 115q0 38 -16 61t-39.5 31.5t-46.5 13t-39 11t-16 20.5
q0 23 57 23q83 0 250 -4t250 -4q22 0 180.5 4t259.5 4q11 0 16 -3.5t5.5 -6.5t0.5 -9v-227q0 -16 -0.5 -24t-3 -21t-9.5 -19t-19 -6q-6 0 -10 2.5t-7 7.5t-5 10t-3 12.5t-2 12.5t-1.5 12t-0.5 9q-6 46 -19 73.5t-38 48.5t-72.5 31t-113.5 14.5t-171 4.5q-1 0 -35 0.5
t-52.5 0t-48.5 -2.5t-50.5 -6.5t-32.5 -12.5q-4 -2 -7 -6.5t-5 -10.5t-3.5 -11t-3 -14.5t-2 -14.5t-2 -16t-1.5 -15zM641 1542h-66q47 46 92 91t73.5 74.5t56.5 57.5t44 44.5t32 31.5t24.5 22t18 12.5t16 7t14.5 1.5q33 0 54.5 -21t21.5 -40t-11 -35.5t-19.5 -23.5
t-30.5 -21t-23 -14z" />
    <glyph glyph-name="Ecircumflex" unicode="&#xca;" horiz-adv-x="1251" 
d="M453 1255l-47 -389q-3 -21 -3 -41q0 -8 1 -14.5t2 -10.5t4.5 -7t5 -4.5t8 -2t9.5 -0.5h12h14h270q47 0 81 11.5t50.5 29t28 37.5t16.5 37.5t14 29t21 11.5q18 0 18 -24q0 -32 -12 -104.5t-14 -106.5q-1 -16 -2 -38t-1.5 -36.5t-1.5 -32.5t-2 -30t-3 -25.5t-4 -21.5
t-5.5 -15.5t-8 -10.5t-9.5 -3q-15 0 -21 15t-6 37.5t-4.5 48.5t-15 48.5t-40.5 37.5t-77 15h-305q-38 0 -52 -131q-1 -4 -1 -6l-39 -358q-4 -46 -4 -74q0 -40 21.5 -48.5t117.5 -8.5q114 0 206.5 9.5t152 25t105 35t69.5 40t42 40t26 35t18 25t22 9.5q9 0 16 -6t7 -15
q0 -81 -132 -229q-25 -26 -56 -36.5t-99 -10.5q-52 0 -188 4t-255 4q-116 0 -208.5 -4t-98.5 -4h-11h-10h-8.5h-7t-5.5 1t-5 2t-3.5 3t-2 4.5t-0.5 5.5q0 16 12 24t29.5 11.5t36 9.5t34 27t19.5 57l125 1030q10 72 10 115q0 38 -16 61t-39.5 31.5t-46.5 13t-39 11t-16 20.5
q0 23 57 23q83 0 250 -4t250 -4q22 0 180.5 4t259.5 4q11 0 16 -3.5t5.5 -6.5t0.5 -9v-227q0 -16 -0.5 -24t-3 -21t-9.5 -19t-19 -6q-6 0 -10 2.5t-7 7.5t-5 10t-3 12.5t-2 12.5t-1.5 12t-0.5 9q-6 46 -19 73.5t-38 48.5t-72.5 31t-113.5 14.5t-171 4.5q-1 0 -35 0.5
t-52.5 0t-48.5 -2.5t-50.5 -6.5t-32.5 -12.5q-4 -2 -7 -6.5t-5 -10.5t-3.5 -11t-3 -14.5t-2 -14.5t-2 -16t-1.5 -15zM782 1872l181 -344h-66l-170 219l-276 -219h-76l330 344h77z" />
    <glyph glyph-name="Edieresis" unicode="&#xcb;" horiz-adv-x="1251" 
d="M453 1255l-47 -389q-3 -21 -3 -41q0 -8 1 -14.5t2 -10.5t4.5 -7t5 -4.5t8 -2t9.5 -0.5h12h14h270q47 0 81 11.5t50.5 29t28 37.5t16.5 37.5t14 29t21 11.5q18 0 18 -24q0 -32 -12 -104.5t-14 -106.5q-1 -16 -2 -38t-1.5 -36.5t-1.5 -32.5t-2 -30t-3 -25.5t-4 -21.5
t-5.5 -15.5t-8 -10.5t-9.5 -3q-15 0 -21 15t-6 37.5t-4.5 48.5t-15 48.5t-40.5 37.5t-77 15h-305q-38 0 -52 -131q-1 -4 -1 -6l-39 -358q-4 -46 -4 -74q0 -40 21.5 -48.5t117.5 -8.5q114 0 206.5 9.5t152 25t105 35t69.5 40t42 40t26 35t18 25t22 9.5q9 0 16 -6t7 -15
q0 -81 -132 -229q-25 -26 -56 -36.5t-99 -10.5q-52 0 -188 4t-255 4q-116 0 -208.5 -4t-98.5 -4h-11h-10h-8.5h-7t-5.5 1t-5 2t-3.5 3t-2 4.5t-0.5 5.5q0 16 12 24t29.5 11.5t36 9.5t34 27t19.5 57l125 1030q10 72 10 115q0 38 -16 61t-39.5 31.5t-46.5 13t-39 11t-16 20.5
q0 23 57 23q83 0 250 -4t250 -4q22 0 180.5 4t259.5 4q11 0 16 -3.5t5.5 -6.5t0.5 -9v-227q0 -16 -0.5 -24t-3 -21t-9.5 -19t-19 -6q-6 0 -10 2.5t-7 7.5t-5 10t-3 12.5t-2 12.5t-1.5 12t-0.5 9q-6 46 -19 73.5t-38 48.5t-72.5 31t-113.5 14.5t-171 4.5q-1 0 -35 0.5
t-52.5 0t-48.5 -2.5t-50.5 -6.5t-32.5 -12.5q-4 -2 -7 -6.5t-5 -10.5t-3.5 -11t-3 -14.5t-2 -14.5t-2 -16t-1.5 -15zM885 1554q-22 0 -46 44t-24 73q0 22 40 59t60 37q22 0 46 -43.5t24 -72.5q0 -22 -40 -59.5t-60 -37.5zM535 1554q-22 0 -46 44t-24 73q0 22 40 59t60 37
q22 0 46 -43.5t24 -72.5q0 -22 -40 -59.5t-60 -37.5z" />
    <glyph glyph-name="Igrave" unicode="&#xcc;" horiz-adv-x="681" 
d="M195 152l116 946q5 51 10 95t7 62.5t2 32.5q0 33 -17.5 53.5t-43 28t-51 13t-43 14t-17.5 24.5q0 11 9.5 16t35.5 5q1 0 59.5 -4t134.5 -4q47 0 106.5 4t78.5 4h9h8h7t5.5 -0.5t4 -0.5t4 -1t2.5 -2.5t1.5 -3t1 -4t0.5 -5.5q0 -19 -12.5 -27t-30.5 -11.5t-37.5 -11
t-35.5 -34t-22 -73.5l-120 -998q-15 -94 -15 -133q0 -36 16.5 -55.5t40 -25t47 -8t40 -11t16.5 -27.5q0 -12 -7.5 -15t-27.5 -3q-17 0 -87 4t-132 4q-74 0 -129 -4t-57 -4q-29 0 -29 22q0 15 21.5 23t48.5 13.5t52 31t30 70.5zM614 1542h-65l-297 187q-1 0 -23 14t-30.5 21
t-19.5 23.5t-11 35.5t21.5 40t54.5 21q8 0 14.5 -1.5t16 -7t18 -12.5t24.5 -22t32 -31.5t43.5 -44.5t56 -57.5t73.5 -74.5t92 -91z" />
    <glyph glyph-name="Iacute" unicode="&#xcd;" horiz-adv-x="681" 
d="M195 152l116 946q5 51 10 95t7 62.5t2 32.5q0 33 -17.5 53.5t-43 28t-51 13t-43 14t-17.5 24.5q0 11 9.5 16t35.5 5q1 0 59.5 -4t134.5 -4q47 0 106.5 4t78.5 4h9h8h7t5.5 -0.5t4 -0.5t4 -1t2.5 -2.5t1.5 -3t1 -4t0.5 -5.5q0 -19 -12.5 -27t-30.5 -11.5t-37.5 -11
t-35.5 -34t-22 -73.5l-120 -998q-15 -94 -15 -133q0 -36 16.5 -55.5t40 -25t47 -8t40 -11t16.5 -27.5q0 -12 -7.5 -15t-27.5 -3q-17 0 -87 4t-132 4q-74 0 -129 -4t-57 -4q-29 0 -29 22q0 15 21.5 23t48.5 13.5t52 31t30 70.5zM356 1542h-65q47 46 92 91t73.5 74.5
t56.5 57.5t44 44.5t32 31.5t24.5 22t18 12.5t16 7t14.5 1.5q33 0 54 -21t21 -40t-11 -35.5t-19.5 -23.5t-30.5 -21t-23 -14z" />
    <glyph glyph-name="Icircumflex" unicode="&#xce;" horiz-adv-x="681" 
d="M195 152l116 946q5 51 10 95t7 62.5t2 32.5q0 33 -17.5 53.5t-43 28t-51 13t-43 14t-17.5 24.5q0 11 9.5 16t35.5 5q1 0 59.5 -4t134.5 -4q47 0 106.5 4t78.5 4h9h8h7t5.5 -0.5t4 -0.5t4 -1t2.5 -2.5t1.5 -3t1 -4t0.5 -5.5q0 -19 -12.5 -27t-30.5 -11.5t-37.5 -11
t-35.5 -34t-22 -73.5l-120 -998q-15 -94 -15 -133q0 -36 16.5 -55.5t40 -25t47 -8t40 -11t16.5 -27.5q0 -12 -7.5 -15t-27.5 -3q-17 0 -87 4t-132 4q-74 0 -129 -4t-57 -4q-29 0 -29 22q0 15 21.5 23t48.5 13.5t52 31t30 70.5zM498 1872l180 -344h-66l-170 219l-276 -219
h-76l330 344h78z" />
    <glyph glyph-name="Idieresis" unicode="&#xcf;" horiz-adv-x="681" 
d="M195 152l116 946q5 51 10 95t7 62.5t2 32.5q0 33 -17.5 53.5t-43 28t-51 13t-43 14t-17.5 24.5q0 11 9.5 16t35.5 5q1 0 59.5 -4t134.5 -4q47 0 106.5 4t78.5 4h9h8h7t5.5 -0.5t4 -0.5t4 -1t2.5 -2.5t1.5 -3t1 -4t0.5 -5.5q0 -19 -12.5 -27t-30.5 -11.5t-37.5 -11
t-35.5 -34t-22 -73.5l-120 -998q-15 -94 -15 -133q0 -36 16.5 -55.5t40 -25t47 -8t40 -11t16.5 -27.5q0 -12 -7.5 -15t-27.5 -3q-17 0 -87 4t-132 4q-74 0 -129 -4t-57 -4q-29 0 -29 22q0 15 21.5 23t48.5 13.5t52 31t30 70.5zM600 1554q-22 0 -46 44t-24 73q0 22 40.5 59
t60.5 37q22 0 45.5 -43.5t23.5 -72.5q0 -22 -40 -59.5t-60 -37.5zM250 1554q-22 0 -46 44t-24 73q0 22 40.5 59t60.5 37q22 0 45.5 -43.5t23.5 -72.5q0 -22 -40 -59.5t-60 -37.5z" />
    <glyph glyph-name="Eth" unicode="&#xd0;" horiz-adv-x="1478" 
d="M436 1241l-53 -424h444l-10 -76h-442l-64 -499q-8 -65 -8 -105q0 -18 4 -32.5t9 -23.5t17.5 -15.5t19 -10t25.5 -5t26 -2t30 0t29 0.5q124 0 229.5 23t181 61t137.5 93t102 111.5t70 124t45.5 124t24.5 118.5t11 99t2 74q0 100 -29.5 184t-82 144t-125 102t-158.5 62
t-183 20q-133 0 -196 -31q-20 -9 -32.5 -31t-16 -38.5t-7.5 -47.5zM160 188l69 553h-178l12 76h177l47 391q6 52 6 72q0 36 -18 59t-44 31.5t-52 13t-44 11.5t-18 20q0 27 41 27q53 0 123 -4t86 -4q18 0 153 4t193 4q133 0 242 -22.5t181.5 -57.5t127.5 -85.5t85 -99.5
t48.5 -106.5t24 -100t5.5 -85.5q0 -59 -9.5 -127.5t-36.5 -157t-68.5 -171t-111.5 -163.5t-159 -140.5t-218 -96.5t-281 -37q-60 0 -158.5 4t-142.5 4q-38 0 -105 -4t-92 -4q-12 0 -21.5 7.5t-9.5 16.5q0 12 9.5 19t23.5 10t31.5 11.5t33.5 21.5t29.5 41.5t18.5 68.5z" />
    <glyph glyph-name="Ntilde" unicode="&#xd1;" horiz-adv-x="1593" 
d="M160 182l116 676q33 191 33 313q0 64 -16 107.5t-39.5 62t-51 30.5t-51 15t-39.5 12t-16 25q0 8 6.5 13.5t16.5 5.5q3 0 42.5 -4t76.5 -4q35 0 72 4t44 4q8 0 13 -1t19 -11.5t31.5 -31t48 -62t69.5 -101.5l616 -932q22 -35 29 -35q14 0 52 188.5t70.5 431.5t32.5 369
q0 44 -11.5 71.5t-28.5 36.5t-36.5 14t-36.5 5.5t-28.5 9t-11.5 25.5q0 14 8.5 18.5t30.5 4.5l55 -4q54 -4 123 -4q45 0 92.5 4t60.5 4q29 0 29 -25q0 -18 -10 -25t-25.5 -6t-34.5 -7t-37 -25t-33 -64t-22 -119q-22 -240 -102.5 -717t-110.5 -477q-10 0 -19 6.5t-19.5 21.5
t-20 30.5t-26 42.5t-31.5 49l-607 920q-50 77 -67 77q-20 0 -35 -100l-92 -582q-29 -179 -29 -286q0 -39 16.5 -62.5t40 -31.5t47 -12t40 -11.5t16.5 -22.5q0 -9 -2 -14.5t-8 -7.5t-9 -2.5t-14 0t-14 0.5q-13 0 -82.5 4t-126.5 4q-40 0 -88 -4t-60 -4q-14 0 -17 6t-3 20
q0 15 14.5 22.5t36 13t44 16t42.5 39t27 73.5zM1178 1794h51q-15 -101 -82.5 -165t-163.5 -38q-23 5 -118.5 45.5t-131.5 40.5q-35 0 -76 -37q-13 -17 -30 -59h-52q15 88 63.5 147.5t131.5 59.5q48 0 166 -43q104 -45 133 -45q14 0 25.5 1.5t21.5 8t15 9.5t13.5 16
t10.5 15.5t11.5 21.5t11.5 22z" />
    <glyph glyph-name="Ograve" unicode="&#xd2;" horiz-adv-x="1593" 
d="M844 1460q140 0 266 -53.5t217.5 -144t145 -216t53.5 -264.5q0 -180 -61.5 -332.5t-166.5 -255t-246 -160t-300 -57.5q-201 0 -359.5 75.5t-252 225t-93.5 351.5q0 163 49 302t130 234.5t185.5 163.5t214.5 99.5t218 31.5zM815 1403q-141 0 -258.5 -62.5t-193 -167.5
t-117 -238.5t-41.5 -279.5q0 -124 33.5 -228.5t89 -175t128.5 -120t150.5 -72t157.5 -22.5q102 0 188.5 28.5t147.5 75.5t109 111.5t77 132.5t48 142.5t26.5 137.5t7.5 121q0 128 -37 240t-106 196t-175 132.5t-235 48.5zM1071 1542h-65l-297 187q-1 0 -23 14t-30.5 21
t-19.5 23.5t-11 35.5t21 40t54 21q8 0 14.5 -1.5t16 -7t18 -12.5t24.5 -22t32 -31.5t44 -44.5t56.5 -57.5t73.5 -74.5t92 -91z" />
    <glyph glyph-name="Oacute" unicode="&#xd3;" horiz-adv-x="1593" 
d="M844 1460q140 0 266 -53.5t217.5 -144t145 -216t53.5 -264.5q0 -180 -61.5 -332.5t-166.5 -255t-246 -160t-300 -57.5q-201 0 -359.5 75.5t-252 225t-93.5 351.5q0 163 49 302t130 234.5t185.5 163.5t214.5 99.5t218 31.5zM815 1403q-141 0 -258.5 -62.5t-193 -167.5
t-117 -238.5t-41.5 -279.5q0 -124 33.5 -228.5t89 -175t128.5 -120t150.5 -72t157.5 -22.5q102 0 188.5 28.5t147.5 75.5t109 111.5t77 132.5t48 142.5t26.5 137.5t7.5 121q0 128 -37 240t-106 196t-175 132.5t-235 48.5zM813 1542h-65q47 46 92 91t73.5 74.5t56 57.5
t43.5 44.5t32 31.5t24.5 22t18 12.5t16 7t14.5 1.5q33 0 54.5 -21t21.5 -40t-11 -35.5t-19.5 -23.5t-30.5 -21t-23 -14z" />
    <glyph glyph-name="Ocircumflex" unicode="&#xd4;" horiz-adv-x="1593" 
d="M844 1460q140 0 266 -53.5t217.5 -144t145 -216t53.5 -264.5q0 -180 -61.5 -332.5t-166.5 -255t-246 -160t-300 -57.5q-201 0 -359.5 75.5t-252 225t-93.5 351.5q0 163 49 302t130 234.5t185.5 163.5t214.5 99.5t218 31.5zM815 1403q-141 0 -258.5 -62.5t-193 -167.5
t-117 -238.5t-41.5 -279.5q0 -124 33.5 -228.5t89 -175t128.5 -120t150.5 -72t157.5 -22.5q102 0 188.5 28.5t147.5 75.5t109 111.5t77 132.5t48 142.5t26.5 137.5t7.5 121q0 128 -37 240t-106 196t-175 132.5t-235 48.5zM954 1872l181 -344h-66l-170 219l-276 -219h-76
l330 344h77z" />
    <glyph glyph-name="Otilde" unicode="&#xd5;" horiz-adv-x="1593" 
d="M844 1460q140 0 266 -53.5t217.5 -144t145 -216t53.5 -264.5q0 -180 -61.5 -332.5t-166.5 -255t-246 -160t-300 -57.5q-201 0 -359.5 75.5t-252 225t-93.5 351.5q0 163 49 302t130 234.5t185.5 163.5t214.5 99.5t218 31.5zM815 1403q-141 0 -258.5 -62.5t-193 -167.5
t-117 -238.5t-41.5 -279.5q0 -124 33.5 -228.5t89 -175t128.5 -120t150.5 -72t157.5 -22.5q102 0 188.5 28.5t147.5 75.5t109 111.5t77 132.5t48 142.5t26.5 137.5t7.5 121q0 128 -37 240t-106 196t-175 132.5t-235 48.5zM1178 1794h51q-15 -101 -82.5 -165t-163.5 -38
q-23 5 -118.5 45.5t-131.5 40.5q-35 0 -76 -37q-13 -17 -30 -59h-52q15 88 63.5 147.5t131.5 59.5q48 0 166 -43q104 -45 133 -45q14 0 25.5 1.5t21.5 8t15 9.5t13.5 16t10.5 15.5t11.5 21.5t11.5 22z" />
    <glyph glyph-name="Odieresis" unicode="&#xd6;" horiz-adv-x="1593" 
d="M844 1460q140 0 266 -53.5t217.5 -144t145 -216t53.5 -264.5q0 -180 -61.5 -332.5t-166.5 -255t-246 -160t-300 -57.5q-201 0 -359.5 75.5t-252 225t-93.5 351.5q0 163 49 302t130 234.5t185.5 163.5t214.5 99.5t218 31.5zM815 1403q-141 0 -258.5 -62.5t-193 -167.5
t-117 -238.5t-41.5 -279.5q0 -124 33.5 -228.5t89 -175t128.5 -120t150.5 -72t157.5 -22.5q102 0 188.5 28.5t147.5 75.5t109 111.5t77 132.5t48 142.5t26.5 137.5t7.5 121q0 128 -37 240t-106 196t-175 132.5t-235 48.5zM1057 1554q-22 0 -46 44t-24 73q0 22 40 59t60 37
q22 0 46 -43.5t24 -72.5q0 -22 -40 -59.5t-60 -37.5zM707 1554q-22 0 -46 44t-24 73q0 22 40 59t60 37q22 0 46 -43.5t24 -72.5q0 -22 -40 -59.5t-60 -37.5z" />
    <glyph glyph-name="multiply" unicode="&#xd7;" horiz-adv-x="1241" 
d="M528 518l-424 424l93 92l424 -424l423 424l93 -92l-424 -424l424 -424l-93 -92l-423 424l-424 -424l-93 92z" />
    <glyph glyph-name="Oslash" unicode="&#xd8;" horiz-adv-x="1593" 
d="M362 213l783 1085q-143 105 -330 105q-141 0 -258.5 -62.5t-193 -167.5t-117 -238.5t-41.5 -279.5q0 -279 157 -442zM362 72l-165 -232h-103l197 275q-117 85 -180.5 215.5t-63.5 298.5q0 163 49 302t130 234.5t185.5 163.5t214.5 99.5t218 31.5q187 0 348 -96l147 205
h103l-180 -250q124 -96 194 -235t70 -302q0 -180 -61.5 -332.5t-166.5 -255t-246 -160t-300 -57.5q-220 0 -390 95zM1206 1243l-782 -1085q141 -121 340 -121q102 0 188.5 28.5t147.5 75.5t109 111.5t77 132.5t48 142.5t26.5 137.5t7.5 121q0 135 -41 254t-121 203z" />
    <glyph glyph-name="Ugrave" unicode="&#xd9;" horiz-adv-x="1593" 
d="M719 53q129 0 230.5 42t155.5 92.5t94.5 128t50 113t19.5 82.5q2 10 3 13q27 108 60.5 335.5t33.5 367.5q0 53 -10.5 88t-27 48t-35 20t-35 7.5t-27 7.5t-10.5 23q0 21 20 21q10 0 67.5 -4t108.5 -4q45 0 88.5 4t59.5 4q12 0 15 -4.5t3 -12.5q0 -17 -7.5 -25t-19 -8.5
t-27 -7.5t-29.5 -20.5t-28 -49.5t-22 -91q-12 -81 -32 -236q-16 -127 -25 -189.5t-28 -170.5t-36.5 -162t-49 -136.5t-67 -123.5t-88.5 -93.5t-116.5 -76t-147 -41t-184.5 -17.5q-42 0 -77 2t-87.5 12t-93.5 26.5t-86 49t-75 77t-49.5 113t-19.5 153.5q0 120 39 470t39 388
q0 59 -20 87.5t-43.5 30.5t-43.5 8.5t-20 24.5q0 23 35 23q2 0 58.5 -4t113.5 -4q67 0 124 4l58 4q29 0 29 -23q0 -15 -8.5 -21.5t-22 -6t-31 -7.5t-33.5 -24t-31 -58t-23 -106q-27 -205 -47.5 -452t-20.5 -314q0 -93 22.5 -162.5t58 -109.5t87.5 -64.5t101.5 -32.5
t109.5 -8zM1071 1542h-65l-297 187q-1 0 -23 14t-30.5 21t-19.5 23.5t-11 35.5t21 40t54 21q8 0 14.5 -1.5t16 -7t18 -12.5t24.5 -22t32 -31.5t44 -44.5t56.5 -57.5t73.5 -74.5t92 -91z" />
    <glyph glyph-name="Uacute" unicode="&#xda;" horiz-adv-x="1593" 
d="M719 53q129 0 230.5 42t155.5 92.5t94.5 128t50 113t19.5 82.5q2 10 3 13q27 108 60.5 335.5t33.5 367.5q0 53 -10.5 88t-27 48t-35 20t-35 7.5t-27 7.5t-10.5 23q0 21 20 21q10 0 67.5 -4t108.5 -4q45 0 88.5 4t59.5 4q12 0 15 -4.5t3 -12.5q0 -17 -7.5 -25t-19 -8.5
t-27 -7.5t-29.5 -20.5t-28 -49.5t-22 -91q-12 -81 -32 -236q-16 -127 -25 -189.5t-28 -170.5t-36.5 -162t-49 -136.5t-67 -123.5t-88.5 -93.5t-116.5 -76t-147 -41t-184.5 -17.5q-42 0 -77 2t-87.5 12t-93.5 26.5t-86 49t-75 77t-49.5 113t-19.5 153.5q0 120 39 470t39 388
q0 59 -20 87.5t-43.5 30.5t-43.5 8.5t-20 24.5q0 23 35 23q2 0 58.5 -4t113.5 -4q67 0 124 4l58 4q29 0 29 -23q0 -15 -8.5 -21.5t-22 -6t-31 -7.5t-33.5 -24t-31 -58t-23 -106q-27 -205 -47.5 -452t-20.5 -314q0 -93 22.5 -162.5t58 -109.5t87.5 -64.5t101.5 -32.5
t109.5 -8zM813 1542h-65q47 46 92 91t73.5 74.5t56 57.5t43.5 44.5t32 31.5t24.5 22t18 12.5t16 7t14.5 1.5q33 0 54.5 -21t21.5 -40t-11 -35.5t-19.5 -23.5t-30.5 -21t-23 -14z" />
    <glyph glyph-name="Ucircumflex" unicode="&#xdb;" horiz-adv-x="1593" 
d="M719 53q129 0 230.5 42t155.5 92.5t94.5 128t50 113t19.5 82.5q2 10 3 13q27 108 60.5 335.5t33.5 367.5q0 53 -10.5 88t-27 48t-35 20t-35 7.5t-27 7.5t-10.5 23q0 21 20 21q10 0 67.5 -4t108.5 -4q45 0 88.5 4t59.5 4q12 0 15 -4.5t3 -12.5q0 -17 -7.5 -25t-19 -8.5
t-27 -7.5t-29.5 -20.5t-28 -49.5t-22 -91q-12 -81 -32 -236q-16 -127 -25 -189.5t-28 -170.5t-36.5 -162t-49 -136.5t-67 -123.5t-88.5 -93.5t-116.5 -76t-147 -41t-184.5 -17.5q-42 0 -77 2t-87.5 12t-93.5 26.5t-86 49t-75 77t-49.5 113t-19.5 153.5q0 120 39 470t39 388
q0 59 -20 87.5t-43.5 30.5t-43.5 8.5t-20 24.5q0 23 35 23q2 0 58.5 -4t113.5 -4q67 0 124 4l58 4q29 0 29 -23q0 -15 -8.5 -21.5t-22 -6t-31 -7.5t-33.5 -24t-31 -58t-23 -106q-27 -205 -47.5 -452t-20.5 -314q0 -93 22.5 -162.5t58 -109.5t87.5 -64.5t101.5 -32.5
t109.5 -8zM954 1872l181 -344h-66l-170 219l-276 -219h-76l330 344h77z" />
    <glyph glyph-name="Udieresis" unicode="&#xdc;" horiz-adv-x="1593" 
d="M719 53q129 0 230.5 42t155.5 92.5t94.5 128t50 113t19.5 82.5q2 10 3 13q27 108 60.5 335.5t33.5 367.5q0 53 -10.5 88t-27 48t-35 20t-35 7.5t-27 7.5t-10.5 23q0 21 20 21q10 0 67.5 -4t108.5 -4q45 0 88.5 4t59.5 4q12 0 15 -4.5t3 -12.5q0 -17 -7.5 -25t-19 -8.5
t-27 -7.5t-29.5 -20.5t-28 -49.5t-22 -91q-12 -81 -32 -236q-16 -127 -25 -189.5t-28 -170.5t-36.5 -162t-49 -136.5t-67 -123.5t-88.5 -93.5t-116.5 -76t-147 -41t-184.5 -17.5q-42 0 -77 2t-87.5 12t-93.5 26.5t-86 49t-75 77t-49.5 113t-19.5 153.5q0 120 39 470t39 388
q0 59 -20 87.5t-43.5 30.5t-43.5 8.5t-20 24.5q0 23 35 23q2 0 58.5 -4t113.5 -4q67 0 124 4l58 4q29 0 29 -23q0 -15 -8.5 -21.5t-22 -6t-31 -7.5t-33.5 -24t-31 -58t-23 -106q-27 -205 -47.5 -452t-20.5 -314q0 -93 22.5 -162.5t58 -109.5t87.5 -64.5t101.5 -32.5
t109.5 -8zM1057 1554q-22 0 -46 44t-24 73q0 22 40 59t60 37q22 0 46 -43.5t24 -72.5q0 -22 -40 -59.5t-60 -37.5zM707 1554q-22 0 -46 44t-24 73q0 22 40 59t60 37q22 0 46 -43.5t24 -72.5q0 -22 -40 -59.5t-60 -37.5z" />
    <glyph glyph-name="Yacute" unicode="&#xdd;" horiz-adv-x="1138" 
d="M430 170l39 328q8 54 8 106q0 66 -18 101l-297 600q-19 38 -44 58.5t-43.5 23.5t-32 10t-13.5 22q0 13 4.5 18t17.5 5q6 0 68.5 -4t126.5 -4q34 0 100 4t76 4q11 0 14.5 -4t3.5 -15q0 -20 -17.5 -29t-38.5 -11t-38.5 -14t-17.5 -36q0 -23 24 -76l191 -397q47 -94 58 -104
q5 -4 9 -4q3 0 6.5 1.5t7 4.5t6.5 6.5t8 10t8.5 11.5t10 14.5t11.5 16.5l241 352q62 88 62 150q0 36 -22.5 51t-49.5 14.5t-49.5 7.5t-22.5 31q0 19 47 19q20 0 95.5 -4t105.5 -4q17 0 62 4t75 4q33 0 33 -25q0 -16 -13.5 -22t-32.5 -7t-48 -18t-53 -51l-432 -617
q-32 -47 -54 -218t-22 -300q0 -51 14 -82t34.5 -40.5t44.5 -13t44.5 -2t34.5 -6t14 -26.5q0 -13 -8 -17.5t-29 -4.5q-51 0 -120 4t-99 4q-35 0 -103.5 -4t-103.5 -4q-14 0 -17 3.5t-3 12.5q0 13 8.5 19t21 7t29 7t31 17t28 39.5t19.5 72.5zM586 1542h-66q47 46 92 91
t73.5 74.5t56.5 57.5t44 44.5t32 31.5t24.5 22t18 12.5t16 7t14.5 1.5q33 0 54.5 -21t21.5 -40t-11 -35.5t-19.5 -23.5t-30.5 -21t-23 -14z" />
    <glyph glyph-name="Thorn" unicode="&#xde;" horiz-adv-x="1138" 
d="M193 162l118 981q11 113 11 127q0 46 -20.5 73t-50 34.5t-59.5 10t-50.5 7.5t-20.5 20q0 10 5 15.5t15.5 8t18 3t20.5 0.5q19 0 84.5 -4t122.5 -4q44 0 107.5 4t72.5 4q51 0 51 -17q0 -21 -13 -29.5t-32.5 -11t-39.5 -9t-37 -32t-23 -71.5l-16 -158q39 0 117.5 4t117.5 4
q175 0 273 -85t98 -255q0 -132 -68 -233.5t-177.5 -153t-239.5 -51.5q-150 0 -150 39q0 23 33 23q7 0 30 -2.5t41 -2.5q78 0 140.5 21t100.5 56.5t64.5 75t38.5 83.5t16.5 73.5t4.5 53.5q0 145 -88 221t-236 76h-41.5t-31 -5t-23 -6.5t-16 -15t-11.5 -20t-8 -31t-7 -39
t-7 -53.5l-74 -600q-10 -103 -10 -127q0 -46 20.5 -73t50 -34.5t59.5 -10.5t50.5 -8t20.5 -20q0 -10 -5 -15.5t-16.5 -7.5t-18 -2.5t-20.5 -0.5q-19 0 -84 4t-122 4q-44 0 -108 -4t-73 -4q-14 0 -20.5 0.5t-15 1.5t-12 4.5t-3.5 9.5q0 21 13 29.5t32.5 11t40 9.5t37.5 32.5
t23 71.5z" />
    <glyph glyph-name="germandbls" unicode="&#xdf;" 
d="M473 823q0 14 15.5 18t58 9t80.5 16q62 18 104 64t59.5 106t23 102.5t5.5 84.5q0 225 -164 225q-78 0 -133 -66.5t-88 -171.5q-82 -258 -194 -1261q-11 -98 -44.5 -171.5t-70 -110t-80 -58.5t-67 -26.5t-37.5 -4.5q-23 0 -42.5 16t-19.5 37q0 49 14 95.5t39 46.5
q13 0 21 -16.5t11 -36t12.5 -36t25.5 -16.5q44 0 66 44q18 33 24 91q2 18 14.5 132t22.5 203t26.5 228t32 249t32 221t33 188.5t30.5 110.5q7 16 18.5 49t20.5 58t26.5 60t36.5 61t49 54t66 45.5t86.5 29t109.5 11.5q64 0 113 -26.5t78.5 -72t44 -101t14.5 -117.5
q0 -86 -29 -153t-70.5 -102.5t-83 -58t-70.5 -33t-29 -14.5q0 -5 14 -9.5t36.5 -12.5t50 -20t55 -36t50 -56t36.5 -84.5t14 -117.5q0 -104 -27.5 -192t-70.5 -145.5t-97 -98t-106.5 -58.5t-100.5 -18q-58 0 -91.5 22t-33.5 48q0 37 13 86t40 49q14 0 25 -21.5t19 -47t34 -47
t66 -21.5q6 0 23 8t46.5 38t55 76.5t44.5 136t19 204.5q0 39 -1.5 64.5t-8.5 61.5t-23.5 63t-42.5 46q-36 26 -81 37t-75.5 10.5t-51.5 6t-21 26.5z" />
    <glyph glyph-name="agrave" unicode="&#xe0;" horiz-adv-x="909" 
d="M154 250q0 -16 1.5 -31t9 -42t21.5 -46t42 -34t67 -15q56 0 110.5 31t89.5 71t56.5 75t21.5 48t39 212.5t39 232.5q0 29 -28 54t-91 25q-70 0 -141.5 -60.5t-122 -149t-82.5 -189.5t-32 -182zM23 215q0 72 27.5 163t78 181t114 166t143.5 123t159 47q23 0 80 -21
q50 -22 80 -22q16 0 47 43t43 43q18 0 18 -18q0 -3 -10.5 -55.5t-25.5 -133.5t-30 -172t-25.5 -186t-10.5 -160q0 -34 5.5 -55t15.5 -28.5t15.5 -9t14.5 -1.5q19 0 38 19t31 42.5t25.5 42.5t24.5 19h6.5h7t5.5 -1t5 -3.5t2.5 -6.5t1.5 -10q0 -10 -17.5 -45.5t-44.5 -77
t-67 -74t-78 -32.5q-44 0 -74 37t-40.5 84.5t-7.5 93.5l-5 4q-69 -101 -161.5 -167.5t-202.5 -66.5q-51 0 -88.5 19t-58.5 53t-31 75t-10 91zM729 995h-65l-297 187q-1 0 -23 14t-30.5 21t-19.5 23.5t-11 35.5t21 40t54 21q8 0 14.5 -1.5t16 -7t18 -12.5t24.5 -22t32 -31.5
t44 -44.5t56.5 -57.5t73.5 -74.5t92 -91z" />
    <glyph glyph-name="aacute" unicode="&#xe1;" horiz-adv-x="909" 
d="M154 250q0 -16 1.5 -31t9 -42t21.5 -46t42 -34t67 -15q56 0 110.5 31t89.5 71t56.5 75t21.5 48t39 212.5t39 232.5q0 29 -28 54t-91 25q-70 0 -141.5 -60.5t-122 -149t-82.5 -189.5t-32 -182zM23 215q0 72 27.5 163t78 181t114 166t143.5 123t159 47q23 0 80 -21
q50 -22 80 -22q16 0 47 43t43 43q18 0 18 -18q0 -3 -10.5 -55.5t-25.5 -133.5t-30 -172t-25.5 -186t-10.5 -160q0 -34 5.5 -55t15.5 -28.5t15.5 -9t14.5 -1.5q19 0 38 19t31 42.5t25.5 42.5t24.5 19h6.5h7t5.5 -1t5 -3.5t2.5 -6.5t1.5 -10q0 -10 -17.5 -45.5t-44.5 -77
t-67 -74t-78 -32.5q-44 0 -74 37t-40.5 84.5t-7.5 93.5l-5 4q-69 -101 -161.5 -167.5t-202.5 -66.5q-51 0 -88.5 19t-58.5 53t-31 75t-10 91zM471 995h-65q47 46 92 91t73.5 74.5t56 57.5t43.5 44.5t32 31.5t24.5 22t18 12.5t16 7t14.5 1.5q33 0 54.5 -21t21.5 -40
t-11 -35.5t-19.5 -23.5t-30.5 -21t-23 -14z" />
    <glyph glyph-name="acircumflex" unicode="&#xe2;" horiz-adv-x="909" 
d="M154 250q0 -16 1.5 -31t9 -42t21.5 -46t42 -34t67 -15q56 0 110.5 31t89.5 71t56.5 75t21.5 48t39 212.5t39 232.5q0 29 -28 54t-91 25q-70 0 -141.5 -60.5t-122 -149t-82.5 -189.5t-32 -182zM23 215q0 72 27.5 163t78 181t114 166t143.5 123t159 47q23 0 80 -21
q50 -22 80 -22q16 0 47 43t43 43q18 0 18 -18q0 -3 -10.5 -55.5t-25.5 -133.5t-30 -172t-25.5 -186t-10.5 -160q0 -34 5.5 -55t15.5 -28.5t15.5 -9t14.5 -1.5q19 0 38 19t31 42.5t25.5 42.5t24.5 19h6.5h7t5.5 -1t5 -3.5t2.5 -6.5t1.5 -10q0 -10 -17.5 -45.5t-44.5 -77
t-67 -74t-78 -32.5q-44 0 -74 37t-40.5 84.5t-7.5 93.5l-5 4q-69 -101 -161.5 -167.5t-202.5 -66.5q-51 0 -88.5 19t-58.5 53t-31 75t-10 91zM612 1325l181 -344h-66l-170 219l-276 -219h-76l330 344h77z" />
    <glyph glyph-name="atilde" unicode="&#xe3;" horiz-adv-x="909" 
d="M154 250q0 -16 1.5 -31t9 -42t21.5 -46t42 -34t67 -15q56 0 110.5 31t89.5 71t56.5 75t21.5 48t39 212.5t39 232.5q0 29 -28 54t-91 25q-70 0 -141.5 -60.5t-122 -149t-82.5 -189.5t-32 -182zM23 215q0 72 27.5 163t78 181t114 166t143.5 123t159 47q23 0 80 -21
q50 -22 80 -22q16 0 47 43t43 43q18 0 18 -18q0 -3 -10.5 -55.5t-25.5 -133.5t-30 -172t-25.5 -186t-10.5 -160q0 -34 5.5 -55t15.5 -28.5t15.5 -9t14.5 -1.5q19 0 38 19t31 42.5t25.5 42.5t24.5 19h6.5h7t5.5 -1t5 -3.5t2.5 -6.5t1.5 -10q0 -10 -17.5 -45.5t-44.5 -77
t-67 -74t-78 -32.5q-44 0 -74 37t-40.5 84.5t-7.5 93.5l-5 4q-69 -101 -161.5 -167.5t-202.5 -66.5q-51 0 -88.5 19t-58.5 53t-31 75t-10 91zM836 1247h51q-15 -101 -82.5 -165t-163.5 -38q-23 5 -118.5 45.5t-131.5 40.5t-76 -36q-12 -16 -30 -60h-52q15 88 63.5 147.5
t131.5 59.5q48 0 166 -43q104 -45 133 -45q14 0 25.5 1.5t21.5 8t15 9.5t13.5 16t10.5 15.5t11.5 21.5t11.5 22z" />
    <glyph glyph-name="adieresis" unicode="&#xe4;" horiz-adv-x="909" 
d="M154 250q0 -16 1.5 -31t9 -42t21.5 -46t42 -34t67 -15q56 0 110.5 31t89.5 71t56.5 75t21.5 48t39 212.5t39 232.5q0 29 -28 54t-91 25q-70 0 -141.5 -60.5t-122 -149t-82.5 -189.5t-32 -182zM23 215q0 72 27.5 163t78 181t114 166t143.5 123t159 47q23 0 80 -21
q50 -22 80 -22q16 0 47 43t43 43q18 0 18 -18q0 -3 -10.5 -55.5t-25.5 -133.5t-30 -172t-25.5 -186t-10.5 -160q0 -34 5.5 -55t15.5 -28.5t15.5 -9t14.5 -1.5q19 0 38 19t31 42.5t25.5 42.5t24.5 19h6.5h7t5.5 -1t5 -3.5t2.5 -6.5t1.5 -10q0 -10 -17.5 -45.5t-44.5 -77
t-67 -74t-78 -32.5q-44 0 -74 37t-40.5 84.5t-7.5 93.5l-5 4q-69 -101 -161.5 -167.5t-202.5 -66.5q-51 0 -88.5 19t-58.5 53t-31 75t-10 91zM715 1008q-22 0 -46 43.5t-24 72.5q0 22 40 59.5t60 37.5q22 0 46 -44t24 -73q0 -22 -40 -59t-60 -37zM365 1008q-22 0 -46 43.5
t-24 72.5q0 22 40 59.5t60 37.5q22 0 46 -44t24 -73q0 -22 -40 -59t-60 -37z" />
    <glyph glyph-name="aring" unicode="&#xe5;" horiz-adv-x="909" 
d="M154 250q0 -16 1.5 -31t9 -42t21.5 -46t42 -34t67 -15q56 0 110.5 31t89.5 71t56.5 75t21.5 48t39 212.5t39 232.5q0 29 -28 54t-91 25q-70 0 -141.5 -60.5t-122 -149t-82.5 -189.5t-32 -182zM23 215q0 72 27.5 163t78 181t114 166t143.5 123t159 47q23 0 80 -21
q50 -22 80 -22q16 0 47 43t43 43q18 0 18 -18q0 -3 -10.5 -55.5t-25.5 -133.5t-30 -172t-25.5 -186t-10.5 -160q0 -34 5.5 -55t15.5 -28.5t15.5 -9t14.5 -1.5q19 0 38 19t31 42.5t25.5 42.5t24.5 19h6.5h7t5.5 -1t5 -3.5t2.5 -6.5t1.5 -10q0 -10 -17.5 -45.5t-44.5 -77
t-67 -74t-78 -32.5q-44 0 -74 37t-40.5 84.5t-7.5 93.5l-5 4q-69 -101 -161.5 -167.5t-202.5 -66.5q-51 0 -88.5 19t-58.5 53t-31 75t-10 91zM621 1008q-86 0 -147.5 62t-61.5 147q0 86 61.5 147t147.5 61t146 -61.5t60 -146.5t-61 -147t-145 -62zM621 1343q-51 0 -89 -37.5
t-38 -88.5q0 -50 38.5 -87.5t88.5 -37.5q49 0 86.5 37.5t37.5 87.5t-37 88t-87 38z" />
    <glyph glyph-name="ae" unicode="&#xe6;" horiz-adv-x="1366" 
d="M180 184q0 -63 42 -104t100 -41q140 0 206 82q33 41 54 139t24 152q-164 -6 -234 -22q-192 -45 -192 -206zM1049 827q-49 0 -96.5 -29t-82 -71.5t-61 -91t-40 -89t-13.5 -63.5q0 -16 47 -16q45 0 102 16t114 45.5t95.5 81t38.5 113.5q0 104 -104 104zM637 641
q0 42 -11 75.5t-25.5 54t-38 35t-40 21t-40 10t-29.5 3.5h-17q-30 0 -54.5 -6t-41 -17t-29.5 -23.5t-20 -30t-11.5 -31t-6 -31.5t-2 -28t0 -23.5t0.5 -14.5q0 -15 -8.5 -22t-34.5 -7q-20 0 -60 24.5t-40 35.5q0 60 47.5 114t116.5 84.5t135 30.5q69 0 135.5 -15.5t125 -53.5
t81.5 -91q55 63 138 111.5t190 48.5q32 0 61.5 -7.5t57.5 -25.5t44.5 -53t16.5 -84q0 -63 -34.5 -115.5t-87 -86t-118.5 -57t-126 -33t-111 -9.5q-42 0 -50 -7t-8 -48q0 -153 67.5 -218t193.5 -65q56 0 101.5 14.5t68 31.5t44 31.5t35.5 14.5q23 0 23 -18q0 -9 -17.5 -30
t-52.5 -47t-79 -50t-104.5 -40t-121.5 -16q-89 0 -149 29.5t-115 108.5q-28 -26 -53 -44t-69.5 -43t-105.5 -38t-133 -13q-60 0 -105.5 17.5t-69.5 41.5t-39 56.5t-19 57t-4 47.5q0 49 19.5 88t49.5 64.5t75 44.5t88 29t97.5 16.5t93.5 8.5t85 3.5t65 3.5q2 14 7.5 45
t9 49.5t6 44.5t2.5 47z" />
    <glyph glyph-name="ccedilla" unicode="&#xe7;" horiz-adv-x="796" 
d="M190 -190l113 170q-128 3 -194 93.5t-66 225.5q0 132 43 246.5t112.5 189.5t156.5 117.5t177 42.5q74 0 147 -39.5t73 -97.5q0 -78 -76 -78q-19 0 -33.5 14.5t-27.5 35t-29.5 41.5t-49.5 35.5t-79 14.5q-59 0 -107.5 -31.5t-79 -80t-51.5 -109.5t-30 -117.5t-9 -107.5
q0 -129 55 -210t177 -81q64 0 116.5 17.5t79 39t50 39t36.5 17.5q7 0 12 -7t5 -16q0 -4 -12.5 -21t-40 -43t-64.5 -51.5t-94.5 -47t-120.5 -27.5l-78 -117q27 6 55 6q72 0 116 -39.5t44 -107.5q0 -35 -16.5 -64t-42 -47t-59 -30.5t-65.5 -17.5t-63 -5q-65 0 -114 14t-70 29
l37 53q72 -29 115 -29q60 0 98.5 23.5t38.5 66.5q0 42 -25 63t-69 21q-41 0 -76 -14z" />
    <glyph glyph-name="egrave" unicode="&#xe8;" horiz-adv-x="796" 
d="M43 283q0 113 44 226t113 197t156.5 136.5t171.5 52.5q32 0 61.5 -7.5t57.5 -25.5t45 -53t17 -84q0 -63 -34.5 -115.5t-87.5 -86t-119 -57t-126 -33t-111 -9.5q-41 0 -49 -7t-8 -48q0 -153 67.5 -218t192.5 -65q56 0 101.5 14.5t68.5 31.5t44.5 31.5t35.5 14.5
q23 0 23 -18q0 -9 -17.5 -30t-52.5 -47t-79 -50t-104.5 -40t-121.5 -16q-133 0 -211 86t-78 220zM479 827q-49 0 -96.5 -29t-82 -71.5t-61 -91t-40 -89t-13.5 -63.5q0 -16 47 -16q45 0 102 16t114.5 45.5t96 81t38.5 113.5q0 104 -105 104zM672 995h-66l-297 187
q-1 0 -23 14t-30.5 21t-19.5 23.5t-11 35.5t21.5 40t54.5 21q8 0 14.5 -1.5t16 -7t18 -12.5t24.5 -22t32 -31.5t44 -44.5t56.5 -57.5t73.5 -74.5t92 -91z" />
    <glyph glyph-name="eacute" unicode="&#xe9;" horiz-adv-x="796" 
d="M43 283q0 113 44 226t113 197t156.5 136.5t171.5 52.5q32 0 61.5 -7.5t57.5 -25.5t45 -53t17 -84q0 -63 -34.5 -115.5t-87.5 -86t-119 -57t-126 -33t-111 -9.5q-41 0 -49 -7t-8 -48q0 -153 67.5 -218t192.5 -65q56 0 101.5 14.5t68.5 31.5t44.5 31.5t35.5 14.5
q23 0 23 -18q0 -9 -17.5 -30t-52.5 -47t-79 -50t-104.5 -40t-121.5 -16q-133 0 -211 86t-78 220zM479 827q-49 0 -96.5 -29t-82 -71.5t-61 -91t-40 -89t-13.5 -63.5q0 -16 47 -16q45 0 102 16t114.5 45.5t96 81t38.5 113.5q0 104 -105 104zM414 995h-66q47 46 92 91
t73.5 74.5t56.5 57.5t44 44.5t32 31.5t24.5 22t18 12.5t16 7t14.5 1.5q33 0 54.5 -21t21.5 -40t-11 -35.5t-19.5 -23.5t-30.5 -21t-23 -14z" />
    <glyph glyph-name="ecircumflex" unicode="&#xea;" horiz-adv-x="796" 
d="M43 283q0 113 44 226t113 197t156.5 136.5t171.5 52.5q32 0 61.5 -7.5t57.5 -25.5t45 -53t17 -84q0 -63 -34.5 -115.5t-87.5 -86t-119 -57t-126 -33t-111 -9.5q-41 0 -49 -7t-8 -48q0 -153 67.5 -218t192.5 -65q56 0 101.5 14.5t68.5 31.5t44.5 31.5t35.5 14.5
q23 0 23 -18q0 -9 -17.5 -30t-52.5 -47t-79 -50t-104.5 -40t-121.5 -16q-133 0 -211 86t-78 220zM479 827q-49 0 -96.5 -29t-82 -71.5t-61 -91t-40 -89t-13.5 -63.5q0 -16 47 -16q45 0 102 16t114.5 45.5t96 81t38.5 113.5q0 104 -105 104zM555 1325l180 -344h-65l-170 219
l-277 -219h-76l330 344h78z" />
    <glyph glyph-name="edieresis" unicode="&#xeb;" horiz-adv-x="796" 
d="M43 283q0 113 44 226t113 197t156.5 136.5t171.5 52.5q32 0 61.5 -7.5t57.5 -25.5t45 -53t17 -84q0 -63 -34.5 -115.5t-87.5 -86t-119 -57t-126 -33t-111 -9.5q-41 0 -49 -7t-8 -48q0 -153 67.5 -218t192.5 -65q56 0 101.5 14.5t68.5 31.5t44.5 31.5t35.5 14.5
q23 0 23 -18q0 -9 -17.5 -30t-52.5 -47t-79 -50t-104.5 -40t-121.5 -16q-133 0 -211 86t-78 220zM479 827q-49 0 -96.5 -29t-82 -71.5t-61 -91t-40 -89t-13.5 -63.5q0 -16 47 -16q45 0 102 16t114.5 45.5t96 81t38.5 113.5q0 104 -105 104zM657 1008q-22 0 -45.5 43.5
t-23.5 72.5q0 22 40 59.5t60 37.5q22 0 46 -44t24 -73q0 -22 -40.5 -59t-60.5 -37zM307 1008q-22 0 -45.5 43.5t-23.5 72.5q0 22 40 59.5t60 37.5q22 0 46 -44t24 -73q0 -22 -40.5 -59t-60.5 -37z" />
    <glyph glyph-name="igrave" unicode="&#xec;" horiz-adv-x="454" 
d="M221 182q0 -31 7 -42t26 -11q21 0 46.5 31t47 62.5t33.5 31.5q8 0 14 -6t6 -15q0 -23 -33 -79.5t-90 -109t-108 -52.5q-44 0 -64 40t-20 89q0 85 25.5 235.5t51 273.5t25.5 142q0 28 -39 31.5t-77.5 5t-38.5 25.5q0 17 23 21t83.5 7t110.5 12q17 3 40.5 12t31.5 9
q13 0 20 -4.5t7.5 -8t0.5 -10.5q0 -2 -32 -148.5t-64.5 -316t-32.5 -225.5zM502 995h-66l-297 187q-1 0 -23 14t-30.5 21t-19.5 23.5t-11 35.5t21.5 40t54.5 21q8 0 14.5 -1.5t16 -7t18 -12.5t24.5 -22t32 -31.5t44 -44.5t56.5 -57.5t73.5 -74.5t92 -91z" />
    <glyph glyph-name="iacute" unicode="&#xed;" horiz-adv-x="454" 
d="M221 182q0 -31 7 -42t26 -11q21 0 46.5 31t47 62.5t33.5 31.5q8 0 14 -6t6 -15q0 -23 -33 -79.5t-90 -109t-108 -52.5q-44 0 -64 40t-20 89q0 85 25.5 235.5t51 273.5t25.5 142q0 28 -39 31.5t-77.5 5t-38.5 25.5q0 17 23 21t83.5 7t110.5 12q17 3 40.5 12t31.5 9
q13 0 20 -4.5t7.5 -8t0.5 -10.5q0 -2 -32 -148.5t-64.5 -316t-32.5 -225.5zM244 995h-66q47 46 92 91t73.5 74.5t56.5 57.5t44 44.5t32 31.5t24.5 22t18 12.5t16 7t14.5 1.5q33 0 54.5 -21t21.5 -40t-11 -35.5t-19.5 -23.5t-30.5 -21t-23 -14z" />
    <glyph glyph-name="icircumflex" unicode="&#xee;" horiz-adv-x="454" 
d="M221 182q0 -31 7 -42t26 -11q21 0 46.5 31t47 62.5t33.5 31.5q8 0 14 -6t6 -15q0 -23 -33 -79.5t-90 -109t-108 -52.5q-44 0 -64 40t-20 89q0 85 25.5 235.5t51 273.5t25.5 142q0 28 -39 31.5t-77.5 5t-38.5 25.5q0 17 23 21t83.5 7t110.5 12q17 3 40.5 12t31.5 9
q13 0 20 -4.5t7.5 -8t0.5 -10.5q0 -2 -32 -148.5t-64.5 -316t-32.5 -225.5zM385 1325l180 -344h-65l-170 219l-277 -219h-76l330 344h78z" />
    <glyph glyph-name="idieresis" unicode="&#xef;" horiz-adv-x="454" 
d="M221 182q0 -31 7 -42t26 -11q21 0 46.5 31t47 62.5t33.5 31.5q8 0 14 -6t6 -15q0 -23 -33 -79.5t-90 -109t-108 -52.5q-44 0 -64 40t-20 89q0 85 25.5 235.5t51 273.5t25.5 142q0 28 -39 31.5t-77.5 5t-38.5 25.5q0 17 23 21t83.5 7t110.5 12q17 3 40.5 12t31.5 9
q13 0 20 -4.5t7.5 -8t0.5 -10.5q0 -2 -32 -148.5t-64.5 -316t-32.5 -225.5zM424 1008q-22 0 -46 43.5t-24 72.5q0 22 40.5 59.5t60.5 37.5q22 0 45.5 -44t23.5 -73q0 -22 -40 -59t-60 -37zM74 1008q-22 0 -46 43.5t-24 72.5q0 22 40 59.5t60 37.5q22 0 46 -44t24 -73
q0 -22 -40 -59t-60 -37z" />
    <glyph glyph-name="eth" unicode="&#xf0;" horiz-adv-x="909" 
d="M252 1124l237 111q-30 31 -78.5 70t-78 63.5t-29.5 36.5q0 13 8.5 21t22.5 8q23 0 99 -52t142 -106l242 113l45 -54l-235 -110q32 -38 53 -65.5t55.5 -87.5t55 -120t37 -152t16.5 -194q0 -175 -54.5 -317t-161.5 -227t-249 -85q-155 0 -241.5 100t-86.5 259q0 97 32 195
t89 179.5t145 133t191 51.5q125 0 190 -86l4 4q-12 95 -57.5 199.5t-107.5 171.5l-240 -113zM188 317q0 -292 191 -292q75 0 134.5 38.5t94.5 96.5t58.5 134.5t32 144.5t8.5 134q0 47 -5 84.5t-18.5 74.5t-35 61.5t-58 39.5t-84.5 15q-72 0 -129.5 -37t-92 -93.5t-57 -130
t-31 -140t-8.5 -130.5z" />
    <glyph glyph-name="ntilde" unicode="&#xf1;" 
d="M848 659q0 -72 -19.5 -259t-19.5 -230q0 -36 6.5 -47.5t24.5 -11.5q29 0 59 27.5t52 55t32 27.5q21 0 21 -12q0 -26 -35 -76.5t-94.5 -95.5t-114.5 -45q-43 0 -63.5 28t-20.5 107q0 45 21.5 276t21.5 242q0 2 0.5 14.5t0.5 21.5t-2.5 24.5t-7.5 27t-16.5 24.5t-27.5 21.5
t-41.5 14.5t-57.5 6q-48 0 -88.5 -32t-66.5 -78t-46 -106.5t-29.5 -109t-14.5 -92.5l-50 -320q-2 -19 -3 -27t-4 -17.5t-7.5 -13t-11.5 -3.5h-76h-17.5t-11.5 2.5t-10 9t-2 17.5q0 29 44 294t44 304q0 71 -8 99t-35 28q-31 0 -54 -19t-33 -41.5t-22.5 -41.5t-25.5 -19
q-21 0 -21 24q0 42 29.5 98t76.5 98t91 42q27 0 46 -15t28 -33.5t14 -51t5.5 -51.5t-0.5 -51t-1 -34h4q62 95 155.5 165.5t184.5 70.5q197 0 197 -236zM831 1247h52q-15 -101 -82.5 -165t-163.5 -38q-23 5 -118.5 45.5t-131.5 40.5t-76 -36q-12 -16 -30 -60h-52
q15 88 63.5 147.5t131.5 59.5q48 0 166 -43q104 -45 133 -45q14 0 25.5 2t21 8t15 9.5t13.5 15t10.5 16t11 21.5t11.5 22z" />
    <glyph glyph-name="ograve" unicode="&#xf2;" horiz-adv-x="909" 
d="M379 -23q-155 0 -241.5 100t-86.5 259q0 97 32 195t89 179.5t145 133t191 51.5q161 0 248.5 -103.5t87.5 -267.5q0 -101 -32.5 -198t-90.5 -175t-147.5 -126t-194.5 -48zM188 317q0 -292 191 -292q75 0 134.5 38.5t94.5 96.5t58.5 134.5t32 144.5t8.5 134q0 47 -5 84.5
t-18.5 74.5t-35 61.5t-58 39.5t-84.5 15q-72 0 -129.5 -37t-92 -93.5t-57 -130t-31 -140t-8.5 -130.5zM729 995h-65l-297 187q-1 0 -23 14t-30.5 21t-19.5 23.5t-11 35.5t21 40t54 21q8 0 14.5 -1.5t16 -7t18 -12.5t24.5 -22t32 -31.5t44 -44.5t56.5 -57.5t73.5 -74.5
t92 -91z" />
    <glyph glyph-name="oacute" unicode="&#xf3;" horiz-adv-x="909" 
d="M379 -23q-155 0 -241.5 100t-86.5 259q0 97 32 195t89 179.5t145 133t191 51.5q161 0 248.5 -103.5t87.5 -267.5q0 -101 -32.5 -198t-90.5 -175t-147.5 -126t-194.5 -48zM188 317q0 -292 191 -292q75 0 134.5 38.5t94.5 96.5t58.5 134.5t32 144.5t8.5 134q0 47 -5 84.5
t-18.5 74.5t-35 61.5t-58 39.5t-84.5 15q-72 0 -129.5 -37t-92 -93.5t-57 -130t-31 -140t-8.5 -130.5zM471 995h-65q47 46 92 91t73.5 74.5t56 57.5t43.5 44.5t32 31.5t24.5 22t18 12.5t16 7t14.5 1.5q33 0 54.5 -21t21.5 -40t-11 -35.5t-19.5 -23.5t-30.5 -21t-23 -14z" />
    <glyph glyph-name="ocircumflex" unicode="&#xf4;" horiz-adv-x="909" 
d="M379 -23q-155 0 -241.5 100t-86.5 259q0 97 32 195t89 179.5t145 133t191 51.5q161 0 248.5 -103.5t87.5 -267.5q0 -101 -32.5 -198t-90.5 -175t-147.5 -126t-194.5 -48zM188 317q0 -292 191 -292q75 0 134.5 38.5t94.5 96.5t58.5 134.5t32 144.5t8.5 134q0 47 -5 84.5
t-18.5 74.5t-35 61.5t-58 39.5t-84.5 15q-72 0 -129.5 -37t-92 -93.5t-57 -130t-31 -140t-8.5 -130.5zM612 1325l181 -344h-66l-170 219l-276 -219h-76l330 344h77z" />
    <glyph glyph-name="otilde" unicode="&#xf5;" horiz-adv-x="909" 
d="M379 -23q-155 0 -241.5 100t-86.5 259q0 97 32 195t89 179.5t145 133t191 51.5q161 0 248.5 -103.5t87.5 -267.5q0 -101 -32.5 -198t-90.5 -175t-147.5 -126t-194.5 -48zM188 317q0 -292 191 -292q75 0 134.5 38.5t94.5 96.5t58.5 134.5t32 144.5t8.5 134q0 47 -5 84.5
t-18.5 74.5t-35 61.5t-58 39.5t-84.5 15q-72 0 -129.5 -37t-92 -93.5t-57 -130t-31 -140t-8.5 -130.5zM836 1247h51q-15 -101 -82.5 -165t-163.5 -38q-23 5 -118.5 45.5t-131.5 40.5t-76 -36q-12 -16 -30 -60h-52q15 88 63.5 147.5t131.5 59.5q48 0 166 -43q104 -45 133 -45
q14 0 25.5 1.5t21.5 8t15 9.5t13.5 16t10.5 15.5t11.5 21.5t11.5 22z" />
    <glyph glyph-name="odieresis" unicode="&#xf6;" horiz-adv-x="909" 
d="M379 -23q-155 0 -241.5 100t-86.5 259q0 97 32 195t89 179.5t145 133t191 51.5q161 0 248.5 -103.5t87.5 -267.5q0 -101 -32.5 -198t-90.5 -175t-147.5 -126t-194.5 -48zM188 317q0 -292 191 -292q75 0 134.5 38.5t94.5 96.5t58.5 134.5t32 144.5t8.5 134q0 47 -5 84.5
t-18.5 74.5t-35 61.5t-58 39.5t-84.5 15q-72 0 -129.5 -37t-92 -93.5t-57 -130t-31 -140t-8.5 -130.5zM715 1008q-22 0 -46 43.5t-24 72.5q0 22 40 59.5t60 37.5q22 0 46 -44t24 -73q0 -22 -40 -59t-60 -37zM365 1008q-22 0 -46 43.5t-24 72.5q0 22 40 59.5t60 37.5
q22 0 46 -44t24 -73q0 -22 -40 -59t-60 -37z" />
    <glyph glyph-name="divide" unicode="&#xf7;" horiz-adv-x="1241" 
d="M1137 453h-1033v131h1033v-131zM621 -8q-46 0 -78.5 32t-32.5 78q0 45 33 78t78 33t77.5 -33t32.5 -78q0 -46 -32 -78t-78 -32zM621 823q-46 0 -78.5 32.5t-32.5 78.5q0 44 33 77t78 33t77.5 -32.5t32.5 -77.5q0 -46 -32 -78.5t-78 -32.5z" />
    <glyph glyph-name="oslash" unicode="&#xf8;" horiz-adv-x="909" 
d="M207 158l444 628q-50 62 -145 62q-72 0 -129.5 -37t-92 -93.5t-57 -130t-31 -140t-8.5 -130.5q0 -90 19 -159zM686 719l-450 -627q57 -67 143 -67q75 0 134.5 38.5t94.5 96.5t58.5 134.5t32 144.5t8.5 134q0 90 -21 146zM193 31l-119 -166h-76l147 207q-94 94 -94 264
q0 77 20 156t59.5 151.5t93 128.5t127.5 89.5t157 33.5q106 0 192 -51l111 160h78l-148 -207q54 -33 78.5 -112.5t24.5 -158.5q0 -101 -32.5 -199t-90.5 -176t-147.5 -126t-194.5 -48q-110 0 -186 54z" />
    <glyph glyph-name="ugrave" unicode="&#xf9;" 
d="M154 248l65 354q10 62 10 100q0 41 -26 41t-48 -23t-34.5 -50.5t-28 -50.5t-29.5 -23q-16 0 -16 25q0 58 41 124t93.5 108t88.5 42q26 0 45 -11t28 -24t13.5 -36t5 -35t0.5 -32v-7q0 -8 -6 -49.5t-17.5 -118.5t-19.5 -131q-45 -272 -45 -299q0 -60 41 -60q32 0 97 63
t137 161.5t137.5 240.5t91.5 279q5 28 14 35.5t27 7.5h68q18 0 18 -23q0 -8 -61.5 -320t-61.5 -364q0 -20 2 -32t11.5 -23t27.5 -11q33 0 62.5 21t46 47t33 47t26.5 21q19 0 19 -21q0 -23 -23.5 -63t-61.5 -81t-94 -70.5t-112 -29.5q-41 0 -58.5 34.5t-17.5 80.5
q0 39 17 155.5t28 168.5l-4 4q-35 -58 -70.5 -110.5t-86.5 -116t-99 -109t-104.5 -76.5t-106.5 -31q-12 0 -24 4.5t-25.5 15.5t-22 36.5t-8.5 62.5q0 62 17 152zM786 995h-65l-297 187q-1 0 -23 14t-30.5 21t-19.5 23.5t-11 35.5t21.5 40t54.5 21q8 0 14.5 -1.5t16 -7
t18 -12.5t24.5 -22t32 -31.5t43.5 -44.5t56 -57.5t73.5 -74.5t92 -91z" />
    <glyph glyph-name="uacute" unicode="&#xfa;" 
d="M154 248l65 354q10 62 10 100q0 41 -26 41t-48 -23t-34.5 -50.5t-28 -50.5t-29.5 -23q-16 0 -16 25q0 58 41 124t93.5 108t88.5 42q26 0 45 -11t28 -24t13.5 -36t5 -35t0.5 -32v-7q0 -8 -6 -49.5t-17.5 -118.5t-19.5 -131q-45 -272 -45 -299q0 -60 41 -60q32 0 97 63
t137 161.5t137.5 240.5t91.5 279q5 28 14 35.5t27 7.5h68q18 0 18 -23q0 -8 -61.5 -320t-61.5 -364q0 -20 2 -32t11.5 -23t27.5 -11q33 0 62.5 21t46 47t33 47t26.5 21q19 0 19 -21q0 -23 -23.5 -63t-61.5 -81t-94 -70.5t-112 -29.5q-41 0 -58.5 34.5t-17.5 80.5
q0 39 17 155.5t28 168.5l-4 4q-35 -58 -70.5 -110.5t-86.5 -116t-99 -109t-104.5 -76.5t-106.5 -31q-12 0 -24 4.5t-25.5 15.5t-22 36.5t-8.5 62.5q0 62 17 152zM528 995h-65q47 46 92 91t73.5 74.5t56.5 57.5t44 44.5t32 31.5t24.5 22t18 12.5t16 7t14.5 1.5q33 0 54 -21
t21 -40t-11 -35.5t-19.5 -23.5t-30.5 -21t-23 -14z" />
    <glyph glyph-name="ucircumflex" unicode="&#xfb;" 
d="M154 248l65 354q10 62 10 100q0 41 -26 41t-48 -23t-34.5 -50.5t-28 -50.5t-29.5 -23q-16 0 -16 25q0 58 41 124t93.5 108t88.5 42q26 0 45 -11t28 -24t13.5 -36t5 -35t0.5 -32v-7q0 -8 -6 -49.5t-17.5 -118.5t-19.5 -131q-45 -272 -45 -299q0 -60 41 -60q32 0 97 63
t137 161.5t137.5 240.5t91.5 279q5 28 14 35.5t27 7.5h68q18 0 18 -23q0 -8 -61.5 -320t-61.5 -364q0 -20 2 -32t11.5 -23t27.5 -11q33 0 62.5 21t46 47t33 47t26.5 21q19 0 19 -21q0 -23 -23.5 -63t-61.5 -81t-94 -70.5t-112 -29.5q-41 0 -58.5 34.5t-17.5 80.5
q0 39 17 155.5t28 168.5l-4 4q-35 -58 -70.5 -110.5t-86.5 -116t-99 -109t-104.5 -76.5t-106.5 -31q-12 0 -24 4.5t-25.5 15.5t-22 36.5t-8.5 62.5q0 62 17 152zM670 1325l180 -344h-66l-170 219l-276 -219h-76l330 344h78z" />
    <glyph glyph-name="udieresis" unicode="&#xfc;" 
d="M154 248l65 354q10 62 10 100q0 41 -26 41t-48 -23t-34.5 -50.5t-28 -50.5t-29.5 -23q-16 0 -16 25q0 58 41 124t93.5 108t88.5 42q26 0 45 -11t28 -24t13.5 -36t5 -35t0.5 -32v-7q0 -8 -6 -49.5t-17.5 -118.5t-19.5 -131q-45 -272 -45 -299q0 -60 41 -60q32 0 97 63
t137 161.5t137.5 240.5t91.5 279q5 28 14 35.5t27 7.5h68q18 0 18 -23q0 -8 -61.5 -320t-61.5 -364q0 -20 2 -32t11.5 -23t27.5 -11q33 0 62.5 21t46 47t33 47t26.5 21q19 0 19 -21q0 -23 -23.5 -63t-61.5 -81t-94 -70.5t-112 -29.5q-41 0 -58.5 34.5t-17.5 80.5
q0 39 17 155.5t28 168.5l-4 4q-35 -58 -70.5 -110.5t-86.5 -116t-99 -109t-104.5 -76.5t-106.5 -31q-12 0 -24 4.5t-25.5 15.5t-22 36.5t-8.5 62.5q0 62 17 152zM772 1008q-22 0 -46 43.5t-24 72.5q0 22 40.5 59.5t60.5 37.5q22 0 45.5 -44t23.5 -73q0 -22 -40 -59t-60 -37z
M422 1008q-22 0 -46 43.5t-24 72.5q0 22 40.5 59.5t60.5 37.5q22 0 45.5 -44t23.5 -73q0 -22 -40 -59t-60 -37z" />
    <glyph glyph-name="yacute" unicode="&#xfd;" horiz-adv-x="909" 
d="M721 895q43 0 59.5 -35.5t16.5 -107.5q0 -76 -21 -190t-57.5 -244.5t-92.5 -261t-121 -235.5t-147.5 -171t-167.5 -66q-64 0 -102.5 30.5t-38.5 70.5q0 30 17.5 45.5t39.5 15.5q24 0 81.5 -28.5t72.5 -28.5q52 0 106.5 47t91 108.5t60 115.5t23.5 73q0 98 -66.5 269
t-152 303t-134.5 132q-33 0 -52.5 -26t-25 -57t-15.5 -57t-25 -26q-21 0 -21 33q0 146 51.5 218.5t126.5 72.5q23 0 48.5 -16.5t44 -35.5t43.5 -54t34.5 -51l28.5 -48q69 -116 117.5 -225.5t65.5 -151t30 -41.5q8 0 25.5 56.5t32 133.5t14.5 126q0 55 -8.5 95t-18.5 57
t-18.5 37t-8.5 40q0 36 16.5 57t47.5 21zM471 995h-65q47 46 92 91t73.5 74.5t56 57.5t43.5 44.5t32 31.5t24.5 22t18 12.5t16 7t14.5 1.5q33 0 54.5 -21t21.5 -40t-11 -35.5t-19.5 -23.5t-30.5 -21t-23 -14z" />
    <glyph glyph-name="thorn" unicode="&#xfe;" horiz-adv-x="909" 
d="M317 782l-79 -637q-5 -39 -5 -61q0 -35 16.5 -47t55.5 -12q79 0 146.5 30t114.5 80.5t80 116t49 135.5t16 141q0 78 -23.5 137t-57 91t-77.5 51.5t-77 25t-64 5.5q-88 0 -95 -56zM57 -268l133 1056q-31 -6 -58 -17.5t-41 -19.5t-19 -8q-23 0 -23 25q0 43 152 82l55 434
q14 89 14 119q0 27 -36 31.5t-72.5 5.5t-36.5 18q0 12 8.5 19t28.5 10t43.5 5.5t63 8.5t77.5 15q42 10 53 10q10 0 17.5 -5.5t7.5 -13.5q0 -13 -8 -63q-7 -47 -30.5 -196t-36.5 -234.5t-13 -100.5q0 -34 20 -34q2 0 52 8t102 8q69 0 130 -19.5t110.5 -59t78.5 -106
t29 -153.5q0 -57 -15 -120t-43.5 -128.5t-76 -124.5t-107 -105.5t-142.5 -74t-177 -27.5q-12 0 -37 5q-20 4 -24 4q-15 0 -29 -105t-14 -157q0 -38 16.5 -59t40.5 -26.5t47.5 -6.5t40 -6t16.5 -19q0 -23 -30 -23q-27 0 -100.5 4t-114.5 4q-23 0 -66 -4t-66 -4q-32 0 -32 21
q0 18 15.5 25.5t34.5 10t38 25t24 66.5z" />
    <glyph glyph-name="ydieresis" unicode="&#xff;" horiz-adv-x="909" 
d="M721 895q43 0 59.5 -35.5t16.5 -107.5q0 -76 -21 -190t-57.5 -244.5t-92.5 -261t-121 -235.5t-147.5 -171t-167.5 -66q-64 0 -102.5 30.5t-38.5 70.5q0 30 17.5 45.5t39.5 15.5q24 0 81.5 -28.5t72.5 -28.5q52 0 106.5 47t91 108.5t60 115.5t23.5 73q0 98 -66.5 269
t-152 303t-134.5 132q-33 0 -52.5 -26t-25 -57t-15.5 -57t-25 -26q-21 0 -21 33q0 146 51.5 218.5t126.5 72.5q23 0 48.5 -16.5t44 -35.5t43.5 -54t34.5 -51l28.5 -48q69 -116 117.5 -225.5t65.5 -151t30 -41.5q8 0 25.5 56.5t32 133.5t14.5 126q0 55 -8.5 95t-18.5 57
t-18.5 37t-8.5 40q0 36 16.5 57t47.5 21zM653 1008q-22 0 -45.5 43.5t-23.5 72.5q0 22 40 59.5t60 37.5q22 0 46 -44t24 -73q0 -22 -40.5 -59t-60.5 -37zM303 1008q-22 0 -46 43.5t-24 72.5q0 22 40.5 59.5t60.5 37.5q22 0 45.5 -44t23.5 -73q0 -22 -40 -59t-60 -37z" />
    <glyph glyph-name="dotlessi" unicode="&#x131;" horiz-adv-x="454" 
d="M221 182q0 -31 7 -42t26 -11q21 0 46.5 31t47 62.5t33.5 31.5q8 0 14 -6t6 -15q0 -23 -33 -79.5t-90 -109t-108 -52.5q-44 0 -64 40t-20 89q0 85 25.5 235.5t51 273.5t25.5 142q0 28 -39 31.5t-77.5 5t-38.5 25.5q0 17 23 21t83.5 7t110.5 12q17 3 40.5 12t31.5 9
q13 0 20 -4.5t7.5 -8t0.5 -10.5q0 -2 -32 -148.5t-64.5 -316t-32.5 -225.5z" />
    <glyph glyph-name="Lslash" unicode="&#x141;" horiz-adv-x="1138" 
d="M172 180l66 510l-191 -119l19 136l190 118l39 312q12 89 12 120q0 48 -19.5 76t-47.5 35.5t-56 11t-47.5 11.5t-19.5 28q0 11 6.5 17t15.5 6q25 0 125.5 -4t163.5 -4q28 0 84 4t84 4q7 0 14.5 -6t7.5 -17q0 -17 -21.5 -26t-48 -13.5t-51.5 -28.5t-30 -67l-45 -317
l192 120l-18 -133l-190 -118l-87 -635q-4 -46 -4 -74q0 -39 22 -48t118 -9q114 0 206.5 9.5t152 25t105 35t69.5 40t42 40t26 35t18 25t22 9.5q9 0 15.5 -6t6.5 -15q0 -82 -131 -229q-25 -26 -56 -36.5t-100 -10.5q-53 0 -188 4t-254 4q-78 0 -176 -4t-133 -4q-66 0 -73 5
q-5 4 -5 13q0 14 11 20t27.5 6t36.5 6t38.5 17t34.5 42t22 79z" />
    <glyph glyph-name="lslash" unicode="&#x142;" horiz-adv-x="454" 
d="M362 1243l-32 -244l166 127l-21 -147l-164 -111l-80 -598q-10 -72 -10 -88q0 -65 37 -65q24 0 53.5 23.5t50.5 51t39 51t21 23.5q29 0 29 -24q0 -11 -14 -38.5t-40.5 -63.5t-60 -69.5t-78 -56t-88.5 -22.5q-43 0 -62.5 38.5t-19.5 98.5q0 70 16 178l60 426l-166 -127
l20 148l164 110l58 420q14 91 14 119q0 27 -36 31.5t-72.5 5.5t-36.5 18q0 12 8.5 19t28.5 10t43.5 5.5t63 8.5t77.5 15q42 10 53 10q10 0 17.5 -5.5t7.5 -13.5q0 -4 -9 -53t-21 -113.5t-16 -97.5z" />
    <glyph glyph-name="OE" unicode="&#x152;" horiz-adv-x="1933" 
d="M1016 420l74 610q8 47 8 109q0 54 -20.5 98t-54.5 72.5t-79 48t-92.5 27.5t-97.5 8q-105 0 -193 -32t-147 -83t-105 -120.5t-72 -138t-42 -142.5t-21.5 -127.5t-5.5 -98.5q0 -96 16.5 -183.5t54.5 -167.5t93 -138t138 -92.5t185 -34.5q64 0 116 12t86.5 30.5t61 49.5
t41.5 59t26.5 69.5t16 70t10.5 71.5q2 15 3 23zM1915 1423v-227q0 -15 -0.5 -24t-3.5 -21.5t-10 -18.5t-19 -6q-6 0 -10 2.5t-7 7.5t-5 10t-3 12.5t-2 12.5t-1.5 12t-0.5 9q-10 74 -41 109t-99 49t-208 14q-1 0 -35 0.5t-52.5 0t-48.5 -2.5t-50.5 -6.5t-32.5 -12.5
q-4 -2 -7 -6.5t-5 -10.5t-3.5 -11t-3 -14.5t-2 -14.5t-2 -16t-1.5 -15l-48 -389q-2 -14 -2 -41q0 -8 1 -14.5t2 -10.5t4.5 -7t5 -4.5t8 -2t9.5 -0.5h12h14h205q55 0 92 16t52.5 39t24.5 46t18 39t23 16q19 0 19 -24q0 -32 -12.5 -104.5t-14.5 -106.5q-1 -16 -2 -38
t-1.5 -36.5t-1.5 -32.5t-2 -30t-3 -25.5t-4 -21.5t-5.5 -15.5t-8 -10.5t-9.5 -3q-15 0 -21 15t-5.5 37.5t-4.5 48.5t-15 48.5t-40 37.5t-77 15h-240q-38 0 -52 -131q-1 -4 -1 -6l-39 -358q-4 -46 -4 -74q0 -40 21.5 -48.5t117.5 -8.5q102 0 185 9.5t135.5 25t93 35t61.5 40
t37 40t24 35t17.5 25t21.5 9.5q9 0 16 -6t7 -15q0 -82 -131 -229q-44 -47 -90 -47q-53 0 -189 4t-254 4q-84 0 -319 -10q-204 -13 -264 -13q-45 0 -91 5t-109.5 22t-118.5 45t-112 79t-97 118.5t-65.5 169t-25.5 225.5q0 55 9.5 119t34 142.5t61 153t96.5 145.5t135 124
t181.5 85t230.5 32q64 0 281.5 -4t412.5 -4q62 0 204.5 4t235.5 4q11 0 16.5 -3.5t6 -6.5t0.5 -9z" />
    <glyph glyph-name="oe" unicode="&#x153;" horiz-adv-x="1478" 
d="M199 317q0 -292 190 -292q75 0 134.5 38.5t94.5 96.5t58.5 134.5t32 144.5t8.5 134q0 47 -5 84.5t-18.5 74.5t-35 61.5t-58 39.5t-84.5 15q-72 0 -129.5 -37t-91.5 -93.5t-56.5 -130t-31 -140t-8.5 -130.5zM1161 827q-49 0 -96.5 -29t-82 -71.5t-61 -91t-40 -89
t-13.5 -63.5q0 -16 47 -16q45 0 102 16t114.5 45.5t96 81t38.5 113.5q0 104 -105 104zM61 336q0 97 32 195t89 179.5t145 133t191 51.5q219 0 322 -211l15 17q15 17 31.5 33t43.5 40t57 44t65 38t76 28.5t82 10.5q32 0 61.5 -7.5t57.5 -25.5t45 -53t17 -84
q0 -63 -34.5 -115.5t-87.5 -86t-119 -57t-126 -33t-111 -9.5q-41 0 -49 -7t-8 -48q0 -153 67.5 -218t192.5 -65q56 0 101.5 14.5t68.5 31.5t44.5 31.5t35.5 14.5q23 0 23 -18q0 -9 -17.5 -30t-52.5 -47t-79 -50t-104.5 -40t-121.5 -16q-209 0 -281 162
q-59 -69 -148.5 -115.5t-195.5 -46.5q-155 0 -241.5 100t-86.5 259z" />
    <glyph glyph-name="Scaron" unicode="&#x160;" 
d="M455 705q-174 186 -224.5 269t-50.5 181q0 75 26 133t63 89.5t85 51.5t84 25.5t68 5.5q65 0 131 -17t111 -34.5t61 -17.5q4 0 27 13t32 13q17 0 17 -39q0 -69 6 -130t12 -97t6 -45q0 -27 -22 -27q-24 0 -39 51q-24 70 -66 125.5t-90.5 86.5t-96 47t-89.5 16
q-92 0 -142.5 -53.5t-50.5 -145.5t43.5 -157t212.5 -234q90 -90 134.5 -135.5t89.5 -98t62 -86.5t27.5 -72.5t10.5 -84.5q0 -43 -13 -87.5t-48 -95t-88.5 -89t-143.5 -64t-203 -25.5q-241 0 -280 66q-14 23 -37 103.5t-23 115.5q0 37 25 37q6 0 10 -1.5t7.5 -5.5t5 -6
t4.5 -9t4 -9q63 -119 141.5 -173t212.5 -54q78 0 142.5 25.5t106.5 82.5t42 136q0 26 -3 46.5t-15.5 45t-23.5 41.5t-41.5 51.5t-53 58.5t-74.5 79.5t-92 97.5zM621 1528h-78l-203 344h70l186 -217l295 217h70z" />
    <glyph glyph-name="scaron" unicode="&#x161;" horiz-adv-x="681" 
d="M279 31q73 0 120 39.5t47 101.5q0 47 -23 91.5t-57.5 78.5t-75 72t-75 72t-57.5 79.5t-23 93.5q0 58 19 101.5t47 68.5t66 40.5t71 20.5t68 5q50 0 88.5 -13.5t58.5 -34t29.5 -39t9.5 -32.5q0 -32 -20.5 -44.5t-43.5 -12.5q-28 0 -46.5 13t-28.5 31.5t-20 37.5t-30 32
t-51 13q-47 0 -76.5 -31.5t-29.5 -87.5q0 -35 23.5 -72t58.5 -69t76.5 -72t76.5 -79t58.5 -92t23.5 -110q0 -66 -27.5 -117t-73 -80.5t-97.5 -44t-107 -14.5q-31 0 -66 6t-75 19.5t-66 43t-26 69.5v8.5t3.5 13.5t9 17t18 12.5t30.5 5.5q33 0 53 -22t29.5 -48.5t37 -48.5
t73.5 -22zM449 981h-78l-203 344h70l186 -217l295 217h69z" />
    <glyph glyph-name="Ydieresis" unicode="&#x178;" horiz-adv-x="1138" 
d="M430 170l39 328q8 54 8 106q0 66 -18 101l-297 600q-19 38 -44 58.5t-43.5 23.5t-32 10t-13.5 22q0 13 4.5 18t17.5 5q6 0 68.5 -4t126.5 -4q34 0 100 4t76 4q11 0 14.5 -4t3.5 -15q0 -20 -17.5 -29t-38.5 -11t-38.5 -14t-17.5 -36q0 -23 24 -76l191 -397q47 -94 58 -104
q5 -4 9 -4q3 0 6.5 1.5t7 4.5t6.5 6.5t8 10t8.5 11.5t10 14.5t11.5 16.5l241 352q62 88 62 150q0 36 -22.5 51t-49.5 14.5t-49.5 7.5t-22.5 31q0 19 47 19q20 0 95.5 -4t105.5 -4q17 0 62 4t75 4q33 0 33 -25q0 -16 -13.5 -22t-32.5 -7t-48 -18t-53 -51l-432 -617
q-32 -47 -54 -218t-22 -300q0 -51 14 -82t34.5 -40.5t44.5 -13t44.5 -2t34.5 -6t14 -26.5q0 -13 -8 -17.5t-29 -4.5q-51 0 -120 4t-99 4q-35 0 -103.5 -4t-103.5 -4q-14 0 -17 3.5t-3 12.5q0 13 8.5 19t21 7t29 7t31 17t28 39.5t19.5 72.5zM829 1554q-22 0 -45.5 44
t-23.5 73q0 22 40 59t60 37q22 0 46 -43.5t24 -72.5q0 -22 -40.5 -59.5t-60.5 -37.5zM479 1554q-22 0 -45.5 44t-23.5 73q0 22 40 59t60 37q22 0 46 -43.5t24 -72.5q0 -22 -40.5 -59.5t-60.5 -37.5z" />
    <glyph glyph-name="Zcaron" unicode="&#x17d;" horiz-adv-x="1138" 
d="M190 213l648 954q59 88 59 103q0 12 -27 12q-91 0 -208 13.5t-183 13.5q-25 0 -45.5 -1.5t-62 -6.5t-73 -19t-64 -35.5t-50.5 -59.5t-18 -87q0 -32 8 -52t19.5 -27.5t23 -12t19.5 -10.5t8 -17q0 -35 -47 -35q-38 0 -67.5 42.5t-29.5 113.5q0 33 10.5 73t41.5 92
t78.5 93.5t132 70.5t190.5 29q65 0 192.5 -13t313.5 -13q26 0 26 -17q0 -5 -1 -9t-4 -10t-5 -9.5t-8.5 -13.5t-9.5 -15l-785 -1159q-24 -36 -24 -41q0 -10 12 -12.5t44 -2.5h7h592q33 0 64.5 16t31.5 40q0 23 -17.5 30.5t-38.5 6t-38.5 15.5t-17.5 58q0 36 27 58t55 22
q43 0 71.5 -40.5t28.5 -84.5q0 -59 -22 -108.5t-57.5 -82t-80 -55.5t-88.5 -33t-84 -10q-57 0 -216.5 11.5t-397.5 11.5q-50 0 -64 2t-14 12q0 13 23.5 43.5t62 77t59.5 78.5zM678 1528h-78l-203 344h70l186 -217l295 217h70z" />
    <glyph glyph-name="zcaron" unicode="&#x17e;" horiz-adv-x="796" 
d="M709 700l-385 -475q-2 -3 -8 -9t-9.5 -11t-3.5 -8q0 -10 49 -39q47 -29 85.5 -74t61 -87.5t43 -81.5t42.5 -63t49 -24q22 0 34 18.5t16.5 40t21 40t45.5 18.5q18 0 27 -14t9 -33q0 -38 -52.5 -78.5t-117.5 -40.5q-48 0 -97.5 30t-89 72.5t-75.5 85.5t-70 73t-59 30
q-26 0 -43.5 -14.5t-24.5 -32t-21 -32t-34 -14.5q-14 0 -23 10.5t-9 30.5q0 15 13.5 25.5t43 33t55.5 54.5l385 492q-71 -2 -180 71q-5 3 -17.5 12.5t-17.5 13t-16 11.5t-16.5 11.5t-15 9.5t-15.5 8.5t-13.5 6t-13.5 4.5t-12 1q-20 0 -34.5 -11t-20.5 -26.5t-8.5 -25.5
t-2.5 -15q0 -30 22.5 -59t22.5 -43q0 -7 -5 -12t-11 -5q-9 0 -22 8t-27.5 24t-24.5 49t-10 75q0 60 40.5 112t98.5 52q66 0 168 -64q117 -71 213 -71q29 0 39.5 18.5t8.5 41t9 41t42 18.5q21 0 33 -14.5t12 -26.5q0 -33 -84 -138zM506 981h-78l-203 344h70l186 -217l295 217
h70z" />
    <glyph glyph-name="florin" unicode="&#x192;" 
d="M254 879h143q10 0 17 46.5t26.5 129t53.5 147.5q56 105 150.5 181.5t186.5 76.5q123 0 123 -61q0 -121 -24 -121q-16 0 -32.5 14.5t-30 32.5t-42.5 32.5t-67 14.5q-44 0 -81 -44t-58.5 -106t-36.5 -131t-21 -115t-6 -63q0 -5 -1.5 -14.5t-1 -14.5t4.5 -5h129q37 0 46 -7
q11 -9 11 -32q0 -7 -1 -12t-3.5 -9t-4 -7t-6 -4.5t-6.5 -2.5t-8.5 -1.5t-8.5 -0.5h-10h-9h-106q-14 0 -22.5 -2.5t-14 -5t-8 -11.5t-3.5 -14t-2 -20.5t-2 -24.5l-86 -748q-8 -71 -28 -129.5t-44.5 -96t-55.5 -66t-58.5 -43t-56.5 -23t-46 -10.5t-30 -2q-24 0 -53 16.5
t-29 36.5q0 48 14 94.5t39 46.5q13 0 21 -16.5t11 -35.5t12.5 -35.5t25.5 -16.5q41 0 59 13q39 28 51 122l129 952q4 19 -12 19h-137h-9h-10t-8.5 0.5t-8.5 1.5t-6.5 2.5t-6 4.5t-4 7t-3.5 9t-1 12t1 12.5t3.5 9.5t4 7t6 5t6.5 3t8.5 1.5t8 0.5h10h9.5z" />
    <glyph glyph-name="circumflex" unicode="&#x2c6;" horiz-adv-x="681" 
d="M498 1325l180 -344h-66l-170 219l-276 -219h-76l330 344h78z" />
    <glyph glyph-name="caron" unicode="&#x2c7;" horiz-adv-x="681" 
d="M449 981h-78l-203 344h70l186 -217l295 217h69z" />
    <glyph glyph-name="breve" unicode="&#x2d8;" horiz-adv-x="681" 
d="M156 1313h57q6 -97 65.5 -153t157.5 -56q96 0 171 58t106 151h53q-30 -144 -117.5 -237t-226.5 -93q-266 0 -266 330z" />
    <glyph glyph-name="dotaccent" unicode="&#x2d9;" horiz-adv-x="681" 
d="M326 1008q-22 0 -46 43.5t-24 72.5q0 22 40 59.5t60 37.5q22 0 46 -44t24 -73q0 -22 -40 -59t-60 -37z" />
    <glyph glyph-name="ring" unicode="&#x2da;" horiz-adv-x="681" 
d="M506 983q-86 0 -147.5 62t-61.5 147q0 86 61.5 147.5t147.5 61.5t146.5 -62t60.5 -147t-61 -147t-146 -62zM506 1319q-51 0 -89 -38t-38 -89q0 -50 38.5 -87.5t88.5 -37.5t87.5 37.5t37.5 87.5t-37.5 88.5t-87.5 38.5z" />
    <glyph glyph-name="ogonek" unicode="&#x2db;" horiz-adv-x="681" 
d="M557 -203l29 -8q-39 -78 -94 -127t-121 -49q-51 0 -80 37t-29 100q0 25 8 52t16 45t28.5 45t29 37.5t35 38.5t29.5 32h69q-5 -6 -23 -27t-28 -34t-23 -33.5t-19.5 -41t-6.5 -40.5q0 -42 21.5 -69t56.5 -27q48 0 102 69z" />
    <glyph glyph-name="tilde" unicode="&#x2dc;" horiz-adv-x="681" 
d="M721 1247h51q-15 -101 -82.5 -165t-163.5 -38q-23 5 -118.5 45.5t-131.5 40.5q-35 0 -75 -36q-14 -19 -31 -60h-51q15 88 63 147.5t131 59.5q48 0 166 -43q104 -45 133 -45q14 0 25.5 1.5t21.5 8t15 9.5t13.5 16t10.5 15.5t11.5 21.5t11.5 22z" />
    <glyph glyph-name="hungarumlaut" unicode="&#x2dd;" horiz-adv-x="909" 
d="M109 983h-66q47 46 92 91t73.5 74.5t56.5 57.5t44 44.5t32 31.5t24.5 22t18 12.5t16 7t14.5 1.5q33 0 54 -21t21 -40q0 -15 -5.5 -28t-16.5 -23.5t-19.5 -17t-23.5 -15.5t-18 -11zM487 983h-65q47 46 92 91t73.5 74.5t56.5 57.5t44 44.5t32 31.5t24.5 22t18 12.5t16 7
t14.5 1.5q33 0 54 -21t21 -40q0 -15 -5.5 -28t-17 -23.5t-20 -17t-23 -15.5t-18.5 -11z" />
    <glyph glyph-name="endash" unicode="&#x2013;" 
d="M1024 397h-1036l12 97h1036z" />
    <glyph glyph-name="emdash" unicode="&#x2014;" horiz-adv-x="2048" 
d="M2048 397h-2060l12 97h2060z" />
    <glyph glyph-name="quoteleft" unicode="&#x2018;" horiz-adv-x="569" 
d="M326 930q-14 0 -35 20t-40.5 67.5t-19.5 108.5q0 56 26 119t61 108.5t69.5 76t52.5 30.5q21 0 21 -20q0 -8 -19 -31t-41.5 -49.5t-41.5 -70t-19 -87.5q0 -41 10.5 -66.5t25.5 -35t30 -15t25.5 -14t10.5 -24.5q0 -27 -41 -72t-75 -45z" />
    <glyph glyph-name="quoteright" unicode="&#x2019;" horiz-adv-x="569" 
d="M287 1460q14 0 34.5 -20t40 -67.5t19.5 -108.5q0 -56 -26 -119t-61 -108.5t-69.5 -76t-52.5 -30.5q-20 0 -20 20q0 8 19 31t41 49.5t41 70t19 87.5q0 41 -10.5 66.5t-25.5 35t-30 15t-25.5 14t-10.5 24.5q0 27 41.5 72t75.5 45z" />
    <glyph glyph-name="quotesinglbase" unicode="&#x201a;" horiz-adv-x="569" 
d="M293 242q14 0 34.5 -20t40 -68t19.5 -109q0 -56 -26 -119t-61 -108.5t-69.5 -76t-52.5 -30.5q-20 0 -20 21q0 8 19 30.5t41.5 49t41.5 70t19 87.5q0 41 -10.5 66.5t-25.5 35.5t-30.5 15.5t-26 14t-10.5 24.5q0 27 41.5 72t75.5 45z" />
    <glyph glyph-name="quotedblleft" unicode="&#x201c;" horiz-adv-x="909" 
d="M330 930q-14 0 -34.5 20t-40 67.5t-19.5 108.5q0 56 26 119t60.5 108.5t69 76t52.5 30.5q21 0 21 -20q0 -8 -19 -31t-41.5 -49.5t-41.5 -70t-19 -87.5q0 -41 10.5 -66.5t25.5 -35t30 -15t25.5 -14t10.5 -24.5q0 -27 -41 -72t-75 -45zM684 930q-14 0 -34.5 20t-40 67.5
t-19.5 108.5q0 56 26 119t61 108.5t69.5 76t52.5 30.5q20 0 20 -20q0 -8 -19 -31t-41.5 -49.5t-41.5 -70t-19 -87.5q0 -41 10.5 -66.5t26 -35t30.5 -15t25.5 -14t10.5 -24.5q0 -27 -41.5 -72t-75.5 -45z" />
    <glyph glyph-name="quotedblright" unicode="&#x201d;" horiz-adv-x="909" 
d="M645 1460q14 0 34.5 -20t40 -67.5t19.5 -108.5q0 -56 -26 -119t-61 -108.5t-69.5 -76t-52.5 -30.5q-20 0 -20 20q0 8 19 31t41.5 49.5t41.5 70t19 87.5q0 41 -10.5 66.5t-25.5 35t-30.5 15t-26 14t-10.5 24.5q0 27 41.5 72t75.5 45zM287 1460q14 0 34.5 -20t40 -67.5
t19.5 -108.5q0 -56 -26 -119t-61 -108.5t-69.5 -76t-52.5 -30.5q-20 0 -20 20q0 8 19 31t41 49.5t41 70t19 87.5q0 41 -10.5 66.5t-25.5 35t-30 15t-25.5 14t-10.5 24.5q0 27 41.5 72t75.5 45z" />
    <glyph glyph-name="quotedblbase" unicode="&#x201e;" horiz-adv-x="909" 
d="M238 242q14 0 34.5 -20t40 -68t19.5 -109q0 -56 -26 -119t-61 -108.5t-69.5 -76t-52.5 -30.5q-21 0 -21 21q0 8 19 30.5t41.5 49t41.5 70t19 87.5q0 41 -10.5 66.5t-25.5 35.5t-30 15.5t-25.5 14t-10.5 24.5q0 27 41.5 72t75.5 45zM606 242q14 0 34.5 -20t40 -68
t19.5 -109q0 -56 -26 -119t-60.5 -108.5t-69 -76t-52.5 -30.5q-21 0 -21 21q0 8 19 30.5t41.5 49t41.5 70t19 87.5q0 41 -10.5 66.5t-26 35.5t-30.5 15.5t-25.5 14t-10.5 24.5q0 27 41.5 72t75.5 45z" />
    <glyph glyph-name="dagger" unicode="&#x2020;" 
d="M442 -252h-45q3 31 16 150t19.5 199.5t12.5 189.5t0 192t-23 135q41 56 80.5 161t40.5 188q-50 0 -156 -46.5t-133 -46.5q-35 0 -56.5 26t-21.5 62q0 42 27.5 62t70.5 20q15 0 45 -8.5t88.5 -17t143.5 -8.5q1 9 4.5 40t3.5 48q0 61 -16 147q-19 78 -19 105q0 47 25 80.5
t69 33.5q87 0 87 -92q0 -33 -27 -93t-56 -133t-32 -134q50 0 156 46t133 46q35 0 56 -26t21 -62q0 -42 -27.5 -62t-70.5 -20q-15 0 -44.5 8.5t-88 17.5t-143.5 9q-16 -54 0.5 -185t48.5 -166q-33 -48 -60.5 -130t-48.5 -193.5t-33.5 -192t-27.5 -203t-19 -147.5z" />
    <glyph glyph-name="daggerdbl" unicode="&#x2021;" 
d="M799 367q35 0 56.5 -26t21.5 -62q0 -42 -28 -62t-71 -20q-15 0 -44.5 8.5t-88 17t-143.5 8.5q-1 -9 -4.5 -40t-3.5 -48q0 -61 16 -147q18 -74 18 -105q0 -47 -25 -80.5t-69 -33.5q-86 0 -86 92q0 33 27 93t56 133t32 134q-50 0 -156 -46t-133 -46q-35 0 -56.5 26
t-21.5 62q0 42 28 62t71 20q15 0 44.5 -8.5t88 -17.5t143.5 -9q16 54 -0.5 184t-48.5 162q41 51 80.5 156t40.5 189q-50 0 -156 -46.5t-133 -46.5q-35 0 -56.5 26t-21.5 62q0 42 27.5 62t70.5 20q15 0 45 -8.5t88.5 -17t143.5 -8.5q1 9 4.5 40t3.5 48q0 61 -16 147
q-19 78 -19 105q0 47 25 80.5t69 33.5q87 0 87 -92q0 -33 -27 -93t-56 -133t-32 -134q50 0 156 46t133 46q35 0 56 -26t21 -62q0 -42 -27.5 -62t-70.5 -20q-15 0 -44.5 8.5t-88 17.5t-143.5 9q-16 -54 0.5 -184.5t48.5 -162.5q-41 -51 -80.5 -156t-40.5 -188q50 0 156 46.5
t133 46.5z" />
    <glyph glyph-name="bullet" unicode="&#x2022;" horiz-adv-x="1241" 
d="M258 725q0 148 107 254t256 106q151 0 256.5 -105.5t105.5 -254.5q0 -150 -105.5 -256.5t-256.5 -106.5q-149 0 -256 107t-107 256z" />
    <glyph glyph-name="ellipsis" unicode="&#x2026;" horiz-adv-x="2048" 
d="M328 -8q-10 0 -53.5 51.5t-43.5 62.5q0 12 50 66.5t73 54.5q10 0 53.5 -52t43.5 -64q0 -11 -50 -65t-73 -54zM1010 -8q-10 0 -53.5 51.5t-43.5 62.5q0 12 50 66.5t73 54.5q10 0 53.5 -52t43.5 -64q0 -11 -50 -65t-73 -54zM1692 -8q-10 0 -53.5 51.5t-43.5 62.5
q0 12 50 66.5t73 54.5q10 0 53.5 -52t43.5 -64q0 -11 -50 -65t-73 -54z" />
    <glyph glyph-name="perthousand" unicode="&#x2030;" horiz-adv-x="2048" 
d="M1726 627q-53 0 -91 -23.5t-57.5 -63t-28.5 -83t-9 -92.5q0 -44 4 -83t16.5 -84t33 -77t57 -53t84.5 -21q178 0 178 287q0 293 -187 293zM1694 0q-125 0 -203 81.5t-78 207.5q0 154 102.5 269.5t253.5 115.5q128 0 199.5 -83t71.5 -212q0 -148 -99.5 -263.5
t-246.5 -115.5zM154 0l936 1442h90l-934 -1442h-92zM289 760q-125 0 -203 81.5t-78 207.5q0 154 103 269.5t254 115.5q128 0 199 -83t71 -212q0 -148 -99.5 -263.5t-246.5 -115.5zM322 1386q-53 0 -91 -23.5t-58 -63t-29 -83t-9 -92.5q0 -44 4 -83t16.5 -83.5t33 -76.5
t57 -53t84.5 -21q178 0 178 287q0 292 -186 292zM948 0q-125 0 -202.5 81.5t-77.5 207.5q0 154 102.5 269.5t253.5 115.5q128 0 199 -83t71 -212q0 -148 -99.5 -263.5t-246.5 -115.5zM981 627q-53 0 -91 -23.5t-57.5 -63t-28.5 -83t-9 -92.5q0 -44 4 -83t16.5 -84t32.5 -77
t56.5 -53t84.5 -21q178 0 178 287q0 293 -186 293z" />
    <glyph glyph-name="guilsinglleft" unicode="&#x2039;" horiz-adv-x="681" 
d="M162 446q37 31 110 89.5t122 100t81 73.5q29 30 37 37.5t14 7.5q19 0 19 -17t-25.5 -51t-75 -84t-79.5 -79t-82 -77l57.5 -103.5t68 -125t25.5 -55.5q0 -10 -14 -10q-11 0 -26.5 13.5t-71 80t-160.5 200.5z" />
    <glyph glyph-name="guilsinglright" unicode="&#x203a;" horiz-adv-x="681" 
d="M518 446q-39 -32 -110.5 -89.5t-121 -99t-81.5 -73.5q-29 -30 -37 -37.5t-14 -7.5q-19 0 -19 17t25 50t76 84.5t78.5 78t82.5 77.5q-14 26 -57 103.5t-68.5 126t-25.5 55.5q0 10 14 10q11 0 26.5 -14t71 -80t160.5 -201z" />
    <glyph glyph-name="fraction" unicode="&#x2044;" horiz-adv-x="342" 
d="M-342 0l936 1442h90l-934 -1442h-92z" />
    <glyph glyph-name="fraction" unicode="&#x2215;" horiz-adv-x="342" 
d="M-342 0l936 1442h90l-934 -1442h-92z" />
    <glyph glyph-name="Euro" unicode="&#x20ac;" 
d="M999 1130q0 -8 1 -26t1 -29.5t-2 -24.5t-7.5 -19.5t-14.5 -6.5q-8 0 -13 5t-9.5 18.5t-8 28.5t-11.5 44.5t-17 57.5q-31 91 -104.5 145.5t-168.5 54.5q-81 0 -149 -47t-112.5 -125t-73.5 -164t-44 -180h598q21 0 10 -22l-18 -39q-10 -21 -29 -21h-573q-4 -36 -8 -104h530
q7 0 9 -5t-3 -16l-20 -45q-8 -16 -27 -16h-489q1 -74 9 -142.5t29 -147t53.5 -135.5t89.5 -94.5t130 -37.5q145 0 266 203q15 26 35.5 67.5t32 59.5t20.5 18t14 -6t5 -14q0 -18 -17 -95.5t-28 -115.5q-5 -14 -21 -27q-57 -46 -89 -68.5t-76 -44.5t-90.5 -29.5t-110.5 -7.5
q-91 0 -161.5 38.5t-112.5 98.5t-68.5 142.5t-36 161.5t-8.5 164v12h-109q-15 0 -8 14l26 56q6 12 23 12h72q2 33 10 104h-102q-17 0 -9 17l27 53q6 12 22 12h76q17 88 45 168t72.5 156.5t100 131.5t131.5 88.5t163 33.5q109 0 179 -33.5t153 -116.5q12 -12 14 -26
q2 -23 2 -134z" />
    <glyph glyph-name="trademark" unicode="&#x2122;" horiz-adv-x="2004" 
d="M639 606h-373v41q82 0 107 12q6 3 10.5 9t7 11.5t3.5 15t1 14v15v13.5v647h-84q-91 0 -124 -29t-33 -118h-48v197h693v-197h-47q0 89 -33 118t-125 29h-84v-647v-13.5v-15t1 -14t3.5 -15t7 -11.5t10.5 -9q25 -12 107 -12v-41zM1178 1434l264 -631l270 631h230v-37h-44
q-55 0 -55 -41v-613q0 -62 16.5 -76.5t82.5 -19.5v-41h-318v41h23q54 3 68 21t14 73v611h-5l-307 -746h-16l-311 746h-3v-635v-11v-10t1 -7.5t3 -8t5.5 -6.5t9.5 -8t12 -7.5t10 -5t12 -3t10.5 -1.5t13 -1t12.5 -1h14v-41h-252v41q62 2 76 10q25 12 22 58v606v19v16t-0.5 12
t-1.5 10l-3.5 7t-6.5 6t-10 3t-13 2.5t-18 0.5h-29v37h224z" />
    <glyph glyph-name="minus" unicode="&#x2212;" horiz-adv-x="1241" 
d="M1137 453h-1033v131h1033v-131z" />
    <glyph glyph-name="fi" unicode="&#xfb01;" 
d="M94 850h123q13 0 19 5t7.5 10t2.5 18q14 65 24.5 108.5t33.5 114.5t48 119.5t66.5 105t90 91t117.5 58t150 23.5q48 0 87 -7.5t62 -18.5t39 -24t21.5 -23.5t5.5 -18.5q0 -26 -18 -60t-41 -34q-19 0 -35.5 12.5t-31.5 29.5t-34 34.5t-54.5 30t-82.5 12.5
q-65 0 -119.5 -38.5t-89.5 -98t-60 -133.5t-35.5 -142t-10.5 -127q0 -10 2.5 -17.5t6 -12.5t10 -8.5t11 -5t13 -2.5t11.5 -1h11h9h421h2q35 0 35 -27q0 -5 -28.5 -140.5t-57 -291.5t-28.5 -209q0 -31 6.5 -42t25.5 -11q21 0 46.5 31t47 62.5t33.5 31.5q8 0 14.5 -6t6.5 -15
q0 -16 -21 -55t-52.5 -81t-75.5 -73.5t-83 -31.5q-44 0 -63.5 40t-19.5 89q0 91 20 209l70 368q11 60 5.5 68t-63.5 8h-295q-14 0 -22.5 -2.5t-13.5 -5t-8 -11t-3.5 -14.5t-1.5 -21t-2 -24l-86 -747q-11 -98 -44.5 -171.5t-70 -110t-80 -58.5t-67 -26.5t-37.5 -4.5
q-61 0 -61 53q0 45 15.5 93.5t37.5 48.5q13 0 21 -16.5t11 -36t12.5 -36t25.5 -16.5q44 0 66 44q18 33 24 91l108 953q4 18 -12 18h-117h-9h-10t-8.5 0.5t-8.5 1.5t-6.5 2.5t-6 4.5t-4 7t-3.5 9t-1 12t1 12.5t3.5 9.5t4 7t6 5t6.5 3t8.5 1.5t8 0.5h10h9.5z" />
    <glyph glyph-name="fl" unicode="&#xfb02;" 
d="M115 -197l108 953q4 18 -12 18h-117h-9h-10t-8.5 0.5t-8.5 1.5t-6.5 2.5t-6 4.5t-4 7t-3.5 9t-1 12t1 12.5t3.5 9.5t4 7t6 5t6.5 3t8.5 1.5t8 0.5h10h9.5h123q11 0 18 31t27 117t51 176q6 19 14.5 38.5t28.5 56.5t43.5 68.5t61.5 68t82 61.5t105 42t130 17q28 0 54 -10.5
t42 -10.5q20 0 48.5 10.5t35.5 10.5q10 0 17.5 -5.5t7.5 -13.5q0 -4 -9 -53t-20.5 -113.5t-15.5 -97.5l-131 -973q-10 -72 -10 -88q0 -65 37 -65q24 0 52 23.5t48.5 51t40.5 51t29 23.5q22 0 22 -22q0 -18 -22.5 -58.5t-58.5 -84t-91 -76.5t-109 -33q-81 0 -81 137
q0 70 16 178l135 977q8 56 8 70q0 41 -41 57t-116 16q-70 0 -125 -52.5t-85 -124.5t-49.5 -155.5t-25.5 -135.5t-6 -74q0 -4 -1.5 -14.5t-1 -15.5t4.5 -5h129q37 0 46 -7q11 -9 11 -32q0 -7 -1 -12t-3.5 -9t-4 -7t-6 -4.5t-6.5 -2.5t-8.5 -1.5t-8.5 -0.5h-10h-9h-107
q-14 0 -22.5 -2.5t-13.5 -5t-8 -11t-3.5 -14.5t-1.5 -21t-2 -24l-86 -747q-11 -98 -44.5 -171.5t-70 -110t-80 -58.5t-67 -26.5t-37.5 -4.5q-61 0 -61 53q0 45 15.5 93.5t37.5 48.5q13 0 21 -16.5t11 -36t12.5 -36t25.5 -16.5q44 0 66 44q18 33 24 91z" />
    <glyph glyph-name="NULL" horiz-adv-x="0" 
 />
    <glyph glyph-name="CR" horiz-adv-x="512" 
 />
    </font>
</defs>
</svg>
