<?xml version="1.0" standalone="no"?>
<!DOCTYPE svg PUBLIC "-//W3C//DTD SVG 1.1//EN" "http://www.w3.org/Graphics/SVG/1.1/DTD/svg11.dtd" >
<svg xmlns="http://www.w3.org/2000/svg" xmlns:xlink="http://www.w3.org/1999/xlink" version="1.1">
<metadata>
Created by FontForge 20201107 at Mon Jan  1 16:55:33 2024
 By 
(c) by Lorenz Goldnagl 1998 http://www.goldnagl.at - fonts@goldnagl.at - all rights reserved
</metadata>
<defs>
<font id="GFOrdnerInverted-Regular" horiz-adv-x="1429" >
  <font-face 
    font-family="GF Ordner full"
    font-weight="400"
    font-stretch="normal"
    units-per-em="2048"
    panose-1="0 0 0 0 0 0 0 0 0 0"
    ascent="1638"
    descent="-410"
    x-height="1645"
    cap-height="1645"
    bbox="-4 -401 1532 1645"
    underline-thickness="40"
    underline-position="-292"
    unicode-range="U+000D-00FC"
  />
<missing-glyph horiz-adv-x="1024" 
d="M63 0v1640h898v-1640h-898zM897 63v1514h-770v-1514h770z" />
    <glyph glyph-name=".notdef" horiz-adv-x="1024" 
d="M63 0v1640h898v-1640h-898zM897 63v1514h-770v-1514h770z" />
    <glyph glyph-name=".null" horiz-adv-x="0" 
 />
    <glyph glyph-name="nonmarkingreturn" horiz-adv-x="682" 
 />
    <glyph glyph-name="NULL" horiz-adv-x="0" 
 />
    <glyph glyph-name="NULL" horiz-adv-x="0" 
 />
    <glyph glyph-name="CR" unicode="&#xd;" horiz-adv-x="2050" 
 />
    <glyph glyph-name="space" unicode=" " horiz-adv-x="2050" 
 />
    <glyph glyph-name="exclam" unicode="!" horiz-adv-x="1355" 
d="M1356 -399h-1360v2044h1360v-2044zM823 324v759q0 31 -16 41q-15 6 -74 6q-50 0 -67 -10q-17 -14 -17 -51v-33q0 -25 2 -39q0 -62 19 -170q18 -102 18 -184q0 -78 -10 -123q-27 -102 -27 -119v-28q-2 -10 -2 -27q0 -25 17 -39q15 -12 65 -12q23 -2 43 -2q9 0 17 4
q7 7 32 27zM823 25q0 31 -28 73q-30 37 -64 37q-23 0 -49 -39q-31 -42 -31 -76q0 -39 17 -49q13 -8 63 -8h29q32 0 49 10q14 8 14 52z" />
    <glyph glyph-name="quotedbl" unicode="&#x22;" horiz-adv-x="1335" 
d="M1335 -399h-1339v2044h1339v-2044zM975 846v352q-4 4 -14 19q-15 12 -54 12t-55 -31q-14 -28 -14 -90v-43q0 -29 2 -43v-45q-2 -16 -2 -47q0 -68 16 -90q15 -21 51 -21q29 0 41 6q6 2 29 21zM641 838v370q-35 21 -61 21q-37 0 -50 -10q-12 -9 -12 -39v-342q8 -6 27 -13
q15 -6 35 -6q14 0 34 4q3 1 27 15z" />
    <glyph glyph-name="numbersign" unicode="#" horiz-adv-x="1333" 
d="M1333 307q-101 101 -119 133q-22 36 -22 80v25q0 95 31 117q12 8 110 28v-383zM995 545q0 -91 -22 -113t-99 -22h-61q-99 0 -123 4q-59 15 -59 131q0 89 26 112t93 23h63q134 0 160 -16q22 -16 22 -119zM1333 -395h-1337v2040h1337v-777q-86 15 -121 56q-24 30 -24 86
q0 20 2 32q0 27 2 43q0 38 -18 56q-21 18 -80 18q-62 0 -80 -18q-19 -22 -19 -64q0 -25 2 -39l4 -41q0 -57 -30 -84q-42 -36 -158 -36q-43 -3 -63 -3q-58 0 -82 21q-35 27 -35 104v29q0 23 2 37q0 90 -14 125q-15 35 -41 35q-22 0 -43 -21q-11 -10 -22.5 -22.5t-12.5 -14.5
q-38 -38 -53 -73q-15 -34 -15 -70q0 -19 2 -33t2 -30q0 -31 -12 -46q-17 -26 -143 -38q-127 -15 -127 -97q0 -63 34 -84q22 -14 80 -14h33q66 0 90 -18q41 -30 41 -119q0 -87 -37 -117q-28 -22 -86 -22q-29 2 -63 2q-46 0 -70 -17q-22 -19 -22 -78q0 -89 123 -98
q123 -12 139 -31q7 -11 16 -129q9 -121 98 -121q61 0 82 21q19 22 19 61q0 25 -2 39l-4 41q0 58 30 82q44 35 156 35t156 -23q30 -15 30 -61q0 -19 -2 -35t-2 -39q0 -24 11 -57q24 -64 88 -64q65 0 86 43q16 32 16 97v35q-2 10 -2 26q0 28 10 45q9 14 51 27q41 12 78 24
v-626z" />
    <glyph glyph-name="parenleft" unicode="(" 
d="M1430 -395h-1434v2040h1434v-2040zM926 170q0 39 -21 51q-23 10 -61 10q-31 -2 -66 -2q-33 0 -51 9q-22 6 -31 32q-10 30 -10 97v79q0 76 2 127v97q-2 31 -2 84q0 76 12 123q21 72 125 81q103 9 103 66q0 64 -41 111q-39 45 -103 45q-132 0 -184 -119q-33 -80 -72 -184
q39 -36 39 -66q0 -31 -14 -45q-35 -35 -35 -145q0 -68 16 -150q15 -79 15 -92q0 -37 -21 -72q40 -137 97 -215q56 -80 159 -80q63 0 105 54q39 51 39 104z" />
    <glyph glyph-name="parenright" unicode=")" 
d="M1430 -395h-1434v2040h1434v-2040zM971 621q0 87 -13 124l-32 70q0 27 18 45q10 10 10 25q0 105 -84 209q-71 86 -174 86q-52 0 -92 -43q-39 -42 -39 -88q0 -56 115 -86q113 -30 113 -86v-627q-42 -6 -136 -23q-92 -18 -92 -82q0 -39 41 -86t66 -47q54 0 63 21
q9 17 29 26q27 0 41 2q78 12 121 123v27q-2 8 -2 33q0 33 2 35q0 2 14 10t14 24q0 3 -24 49q-12 24 -12 50q0 23 6 41q6 19 26 30q21 12 21 138z" />
    <glyph glyph-name="comma" unicode="," horiz-adv-x="1468" 
d="M1468 -397h-1472v2042h1472v-2042zM1155 -68q0 52 -37 82q-38 27 -74 27q-30 0 -45 -12q-16 -13 -16 -58q0 -19 2 -37t2 -40q0 -41 -8 -60q-9 -21 -43 -33q-12 2 -39 2q-14 2 -53 2q-108 0 -150 -22q-43 -21 -43 -66q0 -38 54 -63q57 -23 102 -23q85 0 117 19l32 28h60
q30 0 45 9q27 15 39 61q18 88 26 119q3 5 10.5 14.5t10.5 14.5q8 13 8 36z" />
    <glyph glyph-name="hyphen" unicode="-" horiz-adv-x="1335" 
d="M1335 -399h-1339v2044h1339v-2044zM1212 571q0 26 -30 56q-36 28 -56 28h-731q-2 -3 -43 -55q-24 -30 -24 -51q0 -34 16 -47q17 -17 41 -17h731q31 0 64 33q32 28 32 53z" />
    <glyph glyph-name="period" unicode="." horiz-adv-x="1376" 
d="M1376 -401h-1380v2046h1380v-2046zM1012 94q0 42 -60 90q-60 45 -121 45q-56 0 -92 -26q-39 -26 -39 -84q0 -42 23 -68q40 -43 133 -43q62 0 111 19q45 17 45 67z" />
    <glyph glyph-name="zero" unicode="0" horiz-adv-x="1409" 
d="M1409 -395h-1413v2040h1413v-2040zM1323 670q0 375 -63 409q-83 47 -146 158q-29 -21 -39 -29q-13 -8 -55 -8q-44 0 -66 19q-21 18 -30 18q-5 0 -15 -10q-18 -27 -131 -27q-49 0 -116 23q-64 22 -89 22q-55 0 -94 -26q-3 -1 -123 -134q37 -34 37 -65q0 -21 -14 -41
q-33 -47 -33 -66v-577q53 -86 92 -135q45 -60 88 -74q20 -4 41 -4q42 0 62 2q18 2 30 2q14 -3 29 -25q16 -22 47 -22h285q41 0 57 16q5 5 14.5 15.5t14.5 15.5h14q6 -2 23 -2q27 0 39 2q20 4 28 10q75 41 99 234q14 104 14 299zM1135 393l-21 -20q-9 15 -18 33l-19 34
q-19 -13 -53 -73q-27 -50 -70 -50h-227q-27 0 -45 -18q-20 -20 -37 -20q-73 0 -100 94q-21 65 -21 170v51q0 21 2 27q-3 3 -8.5 7.5t-7.5 6.5q-14 14 -14 31q0 15 14 26q12 7 16 23q3 6 0 39q-1 8 -2 17t-1.5 14t-0.5 8q0 51 21 92q26 51 98 86q7 3 31 26q21 21 45 21h274
q9 -3 24 -9.5t17 -7.5q35 -14 103 -49v-559z" />
    <glyph glyph-name="one" unicode="1" horiz-adv-x="1316" 
d="M1317 -397h-1321v2042h1321v-2042zM946 453q0 184 -10 282q-12 90 -39 142q0 26 25 51q24 24 24 114q0 107 -45 136q-36 22 -137 22h-64q-38 0 -55 -10q-14 -11 -14 -51q0 -58 51 -92q25 -11 53.5 -24.5t30.5 -14.5v-865q0 -32 29 -61q19 -19 55 -51q70 40 82 69
q16 32 16 129v86q-2 31 -2 101v37z" />
    <glyph glyph-name="two" unicode="2" horiz-adv-x="1409" 
d="M1409 -395h-1413v2040h1413v-2040zM934 887q-17 17 -29 22q-20 4 -37 4h-28l-9 -18q31 -8 72 -8h31zM1274 784q0 191 -109 271q-71 53 -182 53h-27q-4 -1 -11.5 -2t-10.5 -2q-20 20 -55 35q-37 12 -93 12q-68 0 -102 -12q-40 -29 -59 -37t-64 -8q-29 0 -45 2t-27 2
q-49 0 -71 -25q-25 -28 -25 -106q0 -55 8 -66q6 -12 54 -12q53 0 114 61q31 31 54 31h378q31 0 62 -31t31 -73q0 -53 -41 -56q-44 -6 -52 -20v-123q-20 -38 -106 -60q-67 -11 -188 -26q-9 -3 -29 -23q-18 -17 -37 -24h-35q-50 0 -108 -10q-53 -9 -95 -48q-8 -5 -8 -47v-37
v-20q-9 -34 -30 -43t-21 -127q0 -84 14 -119q21 -61 93 -61h561q26 0 41 -15q14 -14 18 -14l12 12q18 14 31 17q14 -2 43 -2q40 0 55 18q17 20 17 49q0 26 -12 47t-46 21h-368q-23 0 -94 41q-41 24 -50 43q-20 50 -71 59q-51 6 -51 33q4 6 10 23q72 0 174 24q102 25 194 70
q16 4 23 4q4 0 12 -0.5t23 -1.5t28 -2q12 -1 26.5 -2t22 -1.5t11.5 -0.5q51 0 78 12q28 13 43 49q19 43 63 119q29 53 29 149z" />
    <glyph glyph-name="three" unicode="3" horiz-adv-x="1394" 
d="M1395 -401h-1399v2046h1399v-2046zM1233 332q0 97 -29 160l-65 102q0 24 24 51q23 30 23 47v266q0 67 -64 119q-37 26 -98 72h-561q-70 -134 -70 -156q0 -49 39 -82q26 -26 49 -26q20 0 70 47t74 47h323q18 0 35 -10q4 -3 12 -10t11 -9v-295l-50 -10q-8 31 -8 86v37
q0 25 2 37q0 55 -12 82q-12 26 -53 26q-28 0 -37 -12q-2 -3 -5.5 -7t-5.5 -6.5t-3 -4.5q49 -34 63 -54q12 -21 12 -49q0 -72 -114 -102q-115 -30 -115 -90q0 -16 41 -51t65 -35h263q0 -90 2 -135q0 -93 2 -140q-53 -24 -105 -24q-5 0 -55 4t-53 4t-35 -4q-18 -21 -53 -33
q-32 -14 -90 -14q-103 0 -127 71q-25 72 -101 72q-14 2 -33 2q-34 0 -43 -18q-10 -23 -10 -60q0 -29 12 -41l27 -26q8 -11 8 -37q0 -24 11 -39q3 -3 38 -6q13 -1 38 -2t38 -2q12 -3 31 -25q16 -22 45 -22h381q24 0 45 12q1 1 41 35q119 61 143 92q29 37 29 92v39
q-2 12 -2 35z" />
    <glyph glyph-name="four" unicode="4" horiz-adv-x="1409" 
d="M1409 -395h-1413v2040h1413v-2040zM1266 291q0 45 -35 57q-33 12 -60 35v674q0 31 -16 41q-20 10 -53 10q-23 -2 -49 -2q-113 0 -140 -49q-65 -115 -73 -123h-37l-12 37q-1 2 -8 12.5t-9 15.5q-27 -67 -86 -102q-20 -11 -20 -23q0 -15 18 -24q19 -10 19 -35
q0 -35 -136 -192q-90 -101 -137 -154l-2 -102q-2 -29 -2 -64q0 -38 12 -59q13 -23 49 -23h588v-47q-8 -10 -14.5 -19.5t-9.5 -14t-4 -5.5q-13 -19 -13 -35q0 -25 43 -71q4 -4 18.5 -17.5t24.5 -23.5q32 0 41 24q11 29 11 72v35q-3 15 -3 26q0 71 48 80q47 9 47 66zM1065 854
q0 -13 -16 -35q-19 -25 -19 -47v-389l-18 -18h-49q0 33 10 75q-33 15 -55 17q-40 4 -56 4h-37q-20 0 -30 2q-16 0 -31 6v123q60 0 151 31q43 15 61.5 33t14.5 40q-3 9 -18 27q-19 16 -19 37q4 12 27 57q35 60 51 60q9 0 23 -7q10 -7 10 -16z" />
    <glyph glyph-name="five" unicode="5" horiz-adv-x="1468" 
d="M1468 -397h-1472v2042h1472v-2042zM1364 162v196q0 11 2 23t2 37q0 86 -18 141q-27 86 -101 117q-27 0 -39 2q-18 0 -26 8q-10 7 -10 16q0 22 -5 37q-3 11 -24 31h-342q-33 0 -45 12q-13 13 -13 52q0 31 97 79q4 1 20 7.5t27 11.5h219q4 4 131 22q125 15 125 88
q0 48 -29 58q-54 15 -86 51h-237q-19 -22 -33 -31q-22 -14 -64 -14q-60 0 -69 22q-10 23 -66 23q-29 0 -73 -23q-42 -22 -48 -22q-16 0 -41 22q-26 23 -75 23q-41 0 -76 -66q-37 -64 -37 -90q0 -42 31 -73q67 -70 67 -117q0 -71 -24 -80q-25 -9 -25 -104q0 -76 53 -123
q42 -39 82 -39q20 0 35 37q6 17 13 35.5t8 21.5h428q18 0 45 -27q5 -5 15.5 -15t15.5 -15v-39q-78 -21 -87 -135q-12 -113 -94 -113h-227q-23 0 -45 -19q-21 -18 -43 -18q-11 0 -76 68q-64 67 -84 67q-27 0 -33 -37q-6 -40 -6 -88q0 -68 60 -125q81 -75 141 -75h475
q34 0 117 77t92 103zM414 846q-29 -23 -29 -47q0 -25 8 -33q1 -1 10 -4q6 14 9 31q2 10 2 30v23z" />
    <glyph glyph-name="six" unicode="6" horiz-adv-x="1355" 
d="M1356 -399h-1360v2044h1360v-2044zM1251 229v256q0 12 -77 121q-57 80 -132 164l-391 2v45q22 37 62 53q35 15 82 15q31 -2 65 -2q29 0 53 6q25 6 43 24h-92q-29 -2 -78 -2q-32 0 -57 7q-24 6 -39 43q44 20 72 20q23 -2 63 -2q71 0 148 -25q74 -24 117 -61q9 7 26.5 21.5
t26.5 21.5q12 15 12 35q0 71 -127 151q-128 78 -225 78q-85 0 -107 -16q-41 -33 -49 -35q-20 -4 -39 -4q-1 0 -59 4q-13 1 -25.5 2t-19 1.5t-8.5 0.5q-54 0 -97 -29q-53 -38 -80 -127q-3 -11 -26 -34t-23 -43q0 -23 43 -35q45 -12 54 -39v-170q3 -19 26 -35q21 -18 21 -45
q0 -31 -15 -49l-32 -33v-324q39 -26 49 -63q0 -2 8 -33q3 -11 39 -14q13 -1 38 -2t38 -2q14 -20 34 -33q17 -14 41 -14h428q42 0 125 86q84 87 84 114zM1061 389l-19 -18q-9 12 -24 39q-14 25 -25 36q-21 -21 -24 -40q-6 -21 -6 -29q2 -18 2 -41q0 -38 -19 -70h-313
q-38 0 -62 41q-26 39 -26 99q0 56 24 96q24 41 64 41h342q20 0 47 -27q16 -18 39 -41v-86zM956 457q17 0 25 2q0 6 -100 18q-113 10 -148 10q-22 0 -26 -2q0 -6 2 -8q46 -22 120 -22h52q37 0 57 2h18z" />
    <glyph glyph-name="seven" unicode="7" horiz-adv-x="1509" 
d="M1509 -401h-1513v2046h1513v-2046zM1024 846q-10 10 -10 18h-76l-12 -22l20 -21q4 -12 10 -33q32 18 39 25q29 23 29 33zM946 741q-2 7 -4.5 17t-3.5 12q-45 -48 -76 -102q-30 -45 -47 -99l19 -10q56 72 81 115q20 34 31 67zM1327 993q0 71 -33 97q-23 20 -73 20
q-33 0 -47 -2t-46 -6q-75 43 -157 69q-92 29 -158 29q-124 0 -133 -20q-13 -22 -47 -31q-21 -4 -103 -10q-88 -9 -88 -74q0 -31 45 -64q28 -22 52 -22h598q47 0 47 -31q0 -15 -127 -219q-139 -219 -148 -246q-7 -20 -143 -217l-135 -190q0 -26 22 -35q21 -12 47 -12
q59 0 174 145q111 140 168 301q120 146 201 279q84 141 84 239zM803 508q-8 11 -8 22q-1 -2 -17 -14q-12 -9 -12 -20q10 -20 10 -31q9 12 19 22q8 8 8 21z" />
    <glyph glyph-name="eight" unicode="8" horiz-adv-x="1488" 
d="M1489 -401h-1493v2046h1493v-2046zM575 911q-2 -6 -2 -20q-1 -1 -3 -4t-3 -4q0 15 8 28zM1241 356q0 108 -47 164t-47 74q0 28 12 37q33 20 33 149q0 113 -49 195q-13 19 -205 223h-420q-22 -28 -80 -49q-62 -22 -119 -94q-1 -5 -2 -16t-2 -15q-9 -38 -43 -84
q53 -12 70 -45q18 -34 18 -86q0 -35 -2 -53q-1 -9 -2 -27.5t-2 -26.5q0 -16 4 -32q3 -15 25 -31q23 -20 23 -45q0 -40 -44 -49t-53 -23v-94q-7 -25 -30 -39q-17 -10 -17 -59q0 -10 49 -123q50 -115 56 -121q5 -8 57 -8q35 -2 104 -2q12 -16 25 -25q27 -24 51 -24h381
q74 0 152 75q104 98 104 254zM899 932q-17 -10 -25 -10q-13 0 -22 6l-18 12l8 21h49q3 -3 6 -13q2 -6 2 -16zM709 932q-45 -5 -52 -6q-28 -4 -61 -4v28q3 2 6.5 4t9 5.5t9.5 5.5q12 6 34 6q13 0 33 -4q15 -6 21 -6v-29zM909 778q0 -47 -47 -47h-219q-21 0 -29 8q-2 1 -28 31
v107h127h32q70 0 107 -13q57 -20 57 -86zM1042 428l-18 -20h-29l-20 20l20 18h29zM946 334q0 -18 -31 -43t-45 -25h-266q-1 1 -4 6.5t-6 10.5q-8 8 -8 26q0 14 6 23l12 18h334q8 -5 8 -16z" />
    <glyph glyph-name="nine" unicode="9" horiz-adv-x="1394" 
d="M1395 -401h-1399v2046h1399v-2046zM1157 227v637q0 31 -16 47q-12 10 -31 29v18q0 15 2 25q0 46 -12 61q-48 22 -101 50q-104 58 -147 104h-371q-89 -59 -133 -92q-123 -92 -123 -141q0 -23 47 -35t47 -56v-352q118 -54 181 -86q58 -28 67 -28h285q24 0 74 30
q31 17 45 17q34 0 43 -6q10 -7 10 -46q0 -48 -57 -51q-57 -6 -66 -12q-1 -3 -4 -9t-4 -9q-16 -36 -41 -68h-285q-4 16 -4 33q0 16 2 30t2 33q-67 0 -123 21q-20 8 -114 55q0 -10 -0.5 -29t-1.5 -55t-2 -66q-7 -140 -7 -145q0 -41 37 -53q16 -4 39 -4q78 -28 234 -64
q51 -12 51 -22l16 -4q26 23 52 43q2 2 18 2h25q31 -2 102 -2q54 -3 63 0q70 12 136 84q65 71 65 116zM252 713v133q-20 -26 -23 -35q-4 -12 -4 -37q0 -43 4 -51q17 -4 23 -10zM909 883h-57q-3 9 0 28q7 -1 21.5 -3t21.5 -3q4 -12 14 -22zM872 756q0 -45 -12 -60
q-16 -16 -47 -16q-17 0 -33 2t-43 2q-93 0 -155 27q-82 34 -82 112q0 31 2 37q0 10 8 41h29q6 -28 12 -37q5 -14 24 -39h269q16 -16 24 -28q4 -12 4 -41z" />
    <glyph glyph-name="colon" unicode=":" horiz-adv-x="1409" 
d="M1409 -395h-1413v2040h1413v-2040zM819 788q0 109 -131 109q-53 0 -94 -35q-41 -38 -41 -76q0 -61 53 -88q38 -18 82 -18q10 -2 25 -2q54 0 82 31q24 27 24 79zM819 125q0 108 -131 108q-65 0 -98 -36q-37 -40 -37 -74q0 -50 41 -80q42 -31 94 -31q62 0 98 25
q33 23 33 88z" />
    <glyph glyph-name="semicolon" unicode=";" 
d="M1430 -395h-1434v2040h1434v-2040zM1221 336q0 20 -52 72q-60 63 -106 63q-53 0 -105 -43q-53 -47 -53 -68q0 -50 21 -71q36 -39 137 -39q69 0 115 22q43 21 43 64zM1122 -90v45q0 29 2 41q0 27 -10 37q-11 8 -51 8q-97 0 -109 -109q-12 -105 -28 -118q-2 -2 -152 -11
q-151 -9 -151 -82q0 -45 51 -65q52 -21 104 -21q54 0 80 11q63 33 68 35q22 7 67 21.5t68 21.5q61 40 61 186z" />
    <glyph glyph-name="equal" unicode="=" horiz-adv-x="1335" 
d="M1335 -399h-1339v2044h1339v-2044zM1192 762q0 15 -31 51q-29 33 -53 33h-780q-3 -7 -8.5 -17.5t-6.5 -13.5q-6 -12 -6 -29q0 -47 37 -81q32 -29 62 -29h720l6 6q5 6 15.5 17t23.5 24q21 21 21 39zM1192 428q0 19 -14 25q-65 21 -99 61h-381q-25 -28 -36 -35
q-15 -12 -31 -12q-21 0 -49 25q-27 24 -115 24q-71 0 -117 -22q-43 -24 -43 -93q0 -17 10 -34q1 -1 3.5 -4l7.5 -9l10 -12h788q12 16 43 47q23 23 23 39z" />
    <glyph glyph-name="question" unicode="?" horiz-adv-x="1394" 
d="M1395 -401h-1399v2046h1399v-2046zM1262 817v219q0 28 -80 111q-45 45 -82 80q-9 3 -45 0q-54 -4 -58 -4q-22 0 -32 2q-19 4 -27 10l-41 33q-15 6 -59 6q-72 0 -95 -23q-21 -24 -53 -24h-248q-14 -34 -123 -127q-40 -37 -40 -78q0 -42 32 -74q30 -35 78 -35q60 0 72 52
q6 28 14 36q7 7 41 7h35q10 -2 35 -2q37 0 57 10q2 4 5 8.5t4.5 7t2.5 4.5q15 21 43 21q35 0 58 -29l20 -20q8 -4 23 -4q15 -3 24 -3q17 0 78 7q15 1 29.5 2t22.5 1.5t10 0.5q40 0 61 -15q8 -5 8 -98q2 -18 2 -41q0 -40 -12 -49q-15 -12 -45 -12h-258q-11 -20 -21 -49
q-10 -33 -10 -60v-16q0 -6 2 -8q-9 -28 -33 -37q-43 -18 -43 -133q-2 -27 -2 -54q0 -24 13 -37q8 -14 47 -14q58 0 73 94q15 95 89 95h237q49 0 123 108q68 100 68 131zM831 119q0 41 -22 69q-35 41 -111 41q-70 0 -100 -34q-33 -36 -33 -105q0 -57 10 -70q9 -12 62 -12h43
q71 0 98 12q53 21 53 99z" />
    <glyph glyph-name="A" unicode="A" horiz-adv-x="1359" 
d="M1360 -397h-1364v2042h1364v-2042zM522 977v65q-11 -11 -16 -24q-7 -17 -10 -33zM1217 121q-10 25 -26.5 58t-19.5 40q-62 127 -73 146q-33 57 -49 133q-3 21 -9.5 71t-9.5 78q-27 102 -82 203l-57 98q-2 2 -2 21v24v56q0 24 2 30l-57 58q-43 3 -72 6q-8 1 -24 2t-23 2
q-80 0 -107 -10q-25 -13 -65 -76q41 -24 41 -47q0 -19 -23 -35l-29 -21q-3 -3 0 -36t0 -39q-1 -1 -8.5 -4.5t-13.5 -4.5q-16 -6 -25 -30v-33q0 -47 -18 -90q-22 -48 -57 -92q-3 -92 -37 -219q-38 -133 -152 -318q56 -16 66 -22q5 -3 18 -11.5t21 -13.5q54 63 86 125
q6 14 21.5 47.5t23.5 52.5h489q44 0 64 -57q46 -131 125 -131h28q17 0 37 4q17 3 17 35zM928 412q-30 -10 -35 -11q-24 0 -33 35q-3 10 -8.5 30.5t-7.5 29.5q-23 -12 -146 -54q-12 -4 -30 -9.5t-46.5 -15t-48.5 -16.5q-2 0 -18 13q-1 0 -6 4t-8 8q0 10 18 31q21 25 21 26
q2 6 2 33q-2 29 -2 72q-3 27 0 30q42 76 82 134q16 26 16 41q0 22 -2 53q-2 29 -2 65l35 2q19 0 34 -30q16 -31 62 -160q18 -49 39 -84q35 -59 35 -70q0 -17 -27 -63q48 -38 76 -66v-28z" />
    <glyph glyph-name="B" unicode="B" horiz-adv-x="1452" 
d="M1452 -395h-1456v2040h1456v-2040zM1253 381q0 99 -47 137t-47 168q0 92 15 129q13 24 34 55q0 12 -22 48q-2 4 -25 30q-2 4 -2 35v29q0 16 2 22q-20 55 -104 109q-125 78 -193 78q-4 0 -22 -11q-15 -12 -29 -12l-18 4q-3 11 -13 21q-21 18 -100 18q-65 0 -104 -20
q-5 -4 -46 -27q-9 -3 -49 0q-51 0 -69 2q-52 0 -70 -2q-28 -3 -35 -8q-15 -10 -39 -49q-30 -43 -30 -56v-376q0 -24 8 -35q6 -15 39 -41v-535q0 -35 26 -47q27 -12 76 -12h43q29 0 43 2q101 0 150 14q11 4 35.5 16t39.5 17h414q68 0 111 147q15 62 28 150zM918 940
q-55 -9 -191 -12q-135 -3 -170 -6q-33 -3 -39 -45q-9 -41 -24 -41q-17 0 -39 28q-13 19 -17 29q0 7 19 29l37 36q3 1 12.5 5t13.5 6q15 6 68 6q60 0 162 -10q1 0 168 -25zM889 799v-23q-1 -3 -3.5 -8t-7 -15.5t-8.5 -19.5h-282q-14 14 -15 17q-4 8 -4 51q0 41 2 43
q14 14 17 20h282q19 -40 19 -65zM504 705q-22 -16 -47 -19l-19 19l19 18h28zM1077 410q0 -5 -4 -17l-6 -18l-76 20q-7 -59 -12 -102q-6 -31 -53 -31h-367q-1 0 -31 -10q-30 -13 -43 -16q-12 44 -12 63t2 27q1 3 2 10.5t2 11.5q0 5 -4 17q-2 6 -26 30q-23 23 -23 56
q0 17 12 32q14 17 31 17q23 0 33 -17q15 -33 39 -80h424l6 21q-9 15 -17 27h-254l-28 18q37 29 57 29h244q24 0 63 -33q41 -35 41 -55z" />
    <glyph glyph-name="C" unicode="C" horiz-adv-x="1419" 
d="M1419 -401h-1423v2046h1423v-2046zM1315 236q0 43 -37 83q-26 29 -76 62q-97 -91 -237 -164q-119 -61 -158 -61q-86 0 -131 57q-23 29 -31 29t-24 -19q-15 -18 -46 -18q-30 0 -67 69q-12 21 -31 70v479q0 7 19 47q9 20 25 51.5t22 45.5h536q7 -16 21.5 -47.5t21.5 -47.5
q27 -49 84 -49q39 0 72 33q11 11 29 35q0 24 -60 102q-34 37 -63 76q-6 25 -21 61q-30 62 -84 62h-395q-16 0 -63 -27q-19 -12 -57.5 -33.5t-57.5 -33.5h-14q-15 0 -23 2q-41 0 -57 -13q-8 -3 -52 -118q-45 -113 -45 -125q0 -4 13 -17q10 -17 10 -32q0 -13 -2 -19
q-15 -12 -21 -24q-20 -39 -20 -121q0 -76 16 -105q19 -38 33 -59v-238q0 -32 27 -53l20 -20q2 -21 10 -68q6 -6 56 -6q31 -2 96 -2q11 -4 22 -17q30 -30 52 -30h405q28 0 49 18q9 7 18.5 15t13.5 11t5 3q47 7 74 14q123 30 123 142z" />
    <glyph glyph-name="D" unicode="D" horiz-adv-x="1452" 
d="M1452 -395h-1456v2040h1456v-2040zM1219 309v631q-71 68 -89 107q-3 7 -8 21.5t-8 21.5q-8 8 -29 8q-34 0 -36 2q-45 56 -91 102q-39 39 -69 39h-414q-16 -16 -37 -59q-12 -27 -35 -27q-6 0 -30 21q-23 20 -58 20q-36 0 -45 -20q-8 -18 -24.5 -52.5t-24.5 -52.5
q16 -16 19 -20q10 -17 10 -27v-555q0 -30 22 -49q23 -20 23 -109q0 -78 -23 -116q-22 -36 -22 -50q0 -24 2 -30q12 -31 53 -31h725q58 0 127 106q62 92 62 119zM1085 569q0 -115 -41 -118q-40 -6 -53 -29q-12 -30 -22 -60q-30 -53 -80 -53h-330q-19 23 -29 45q-13 23 -26 41
q-20 -30 -25 -45q-8 -16 -8 -39q4 -54 4 -67q-11 -4 -29 -8v770h461q31 0 80 -58t49 -100q0 -54 -22 -76q-23 -23 -23 -37q0 -47 47 -53t47 -113z" />
    <glyph glyph-name="E" unicode="E" horiz-adv-x="1400" 
d="M1401 -401h-1405v2046h1405v-2046zM1241 98q-71 71 -98 92q-29 19 -45 19q-3 0 -23 -4q-18 -6 -28 -6l-33 4q-24 3 -41 20q-19 19 -25 27q-2 2 -22 2t-43 -2t-56 -2q-53 0 -86 8q-35 6 -67 31q-9 -27 -12 -39q-1 -3 -2 -7.5t-2 -7t-1 -4.5q0 -5 -6 -8q-14 -10 -51 -47
h-39q-10 45 -10 68q0 11 4 39q2 14 2 24q0 30 -8 66q-5 21 -35 114l29 19h329q36 0 66 35q29 37 29 55q0 11 -11 22q-16 13 -26 29l-21 66q-12 12 -55 12q-45 0 -68 -2q-33 -3 -36 0q-15 25 -17 27q-25 32 -67 49q-3 -5 -9.5 -14.5t-9.5 -14.5q-12 -12 -20 -18
q16 -28 18 -35q2 -6 2 -31q-33 -8 -49 -8q-21 0 -29 8q-8 10 -16 18v160q0 77 8 142q41 0 70 -19q5 -3 16 -18q17 -3 43 30q1 1 2.5 3.5t4.5 6.5t5 7q34 9 78 12q54 4 76 4q56 0 137 -8t152 -8q37 0 47 16q8 13 8 53q0 49 -117 107q-67 30 -116 49h-301q-19 0 -39 -14
q-41 -29 -47 -33q-14 2 -33 2q-69 0 -109 -18q-65 -27 -65 -97v-942q0 -31 33 -67q34 -37 61 -37h688q30 0 51 24q5 6 17 20.5t18 20.5z" />
    <glyph glyph-name="F" unicode="F" horiz-adv-x="1323" 
d="M1323 -397h-1327v2042h1327v-2042zM1159 1081q0 13 -53 66q-55 49 -68 49q-21 0 -37 -25q-15 -24 -61 -24q-25 0 -47 22q-52 52 -66 52q-6 0 -22 -13q-14 -14 -19 -14q-2 -2 -38 -2q-39 0 -76 2t-76 2q-14 -2 -27 -2q-21 -5 -32 -23q-10 -16 -37 -22q-30 -6 -41 -6
q-25 0 -35 2q-47 8 -57 8q-18 0 -33 -6t-31 -25q-7 -10 -18.5 -27t-16.5 -24q16 -16 19 -20q10 -17 10 -27v-885q0 -35 16 -45q13 -8 72 -8h33q39 0 47 8q10 10 10 27q0 18 -18 39q-8 8 -18 16.5t-11 9.5v349h57q12 -15 21 -21q8 -8 26 -8h263q30 0 63 33q31 31 31 57
q0 87 -88 111q-213 62 -240 186h-20q-4 -20 -4 -37v-33v-26q0 -63 -9 -84q-15 -37 -53 -37q-19 0 -35 16q-14 14 -14 37q0 31 25 53q24 21 24 64q0 32 -24 69q-25 39 -25 54q0 4 4 16l8 21h37q18 -15 39 -27q18 -12 37 -12h471q41 0 92 57q35 42 45 57z" />
    <glyph glyph-name="G" unicode="G" horiz-adv-x="1452" 
d="M1452 -395h-1456v2040h1456v-2040zM1356 498q0 50 -78 116q-80 62 -127 62q-38 0 -141 -47q-105 -49 -105 -82t43 -82q39 -51 90 -51q46 0 78 14t64 14l8 -43q0 -32 -131 -69q-10 -2 -53.5 -12t-77.5 -17q-8 -4 -19 -18q-18 -21 -47 -29q-2 -2 -29 -2h-65q-47 0 -74 2
q-12 -12 -20 -23q-19 -22 -51 -22q-22 0 -52 27v638q0 22 60 60q59 35 71 35h377q43 -43 86 -84q8 -8 62 -58q37 0 61 41q25 42 25 72l-56 197q-7 10 -174 71q-85 33 -112 33q-87 0 -101 -14q-6 -5 -18.5 -16.5t-18.5 -16.5q-46 -7 -129 -19.5t-114 -17.5
q-120 -53 -207 -199q-1 -1 -19 -8q-18 -9 -18 -28t14 -33q33 -39 33 -53v-553q0 -38 17 -52q27 -21 30 -24q-2 -10 -2 -31q0 -15 10 -35q18 -30 50 -43q87 -35 110 -61h471q40 0 129 65q94 68 107 95q2 2 2 34v78q-2 27 -2 78v27q4 12 30 51q13 19 13 33z" />
    <glyph glyph-name="H" unicode="H" horiz-adv-x="1531" 
d="M1532 -401h-1536v2046h1536v-2046zM1307 166q0 5 -31 53q-16 26 -16 49v594q0 41 24 56q23 13 23 92q0 74 -29 106q-28 31 -82 31q-40 0 -51 -14q-15 -15 -15 -46q0 -23 3 -38q2 -19 5 -38.5t4 -27.5t1 -10q0 -48 -23 -86q-25 -44 -96 -72q-17 -7 -37 -27t-39 -20h-340
q-14 0 -26 4l-50 25q0 -45 17 -72q10 -17 10 -18q0 -10 -8 -21q-2 -3 -8.5 -10t-16.5 -18.5t-20 -22.5h-39v452q0 60 -66 60q-27 0 -69 -39q-43 -40 -43 -76v-282q0 -35 24 -62q23 -30 23 -80q0 -66 -23 -82q-24 -18 -24 -51v-338q0 -38 18 -47q16 -8 70 -8h39q20 0 28 8
q3 2 11 9t12 10v423h57q3 -4 7.5 -9t5.5 -5q14 -14 34 -14h453q30 0 57 24q28 25 39 25q3 0 19 -4q21 -7 26 -8q0 -41 -14 -66t-14 -37v-340q16 -8 26 -10q15 -6 33 -6q50 0 82 29q29 29 29 55zM1100 682l-47 10l8 29h39q6 -21 0 -39z" />
    <glyph glyph-name="I" unicode="I" horiz-adv-x="1341" 
d="M1341 -397h-1345v2042h1345v-2042zM768 102v1016q-29 29 -82 29q-63 0 -76 -23q-12 -21 -12 -112q0 -75 14 -144l33 -127v-405q0 -3 -22 -39q-25 -39 -25 -104q-2 -25 -2 -52q0 -32 16 -45q14 -14 74 -14q20 -2 37 -2q4 0 16 6q14 7 29 16z" />
    <glyph glyph-name="J" unicode="J" horiz-adv-x="1341" 
d="M1341 -397h-1345v2042h1345v-2042zM1200 1079q0 40 -37 92q-41 50 -71 50q-6 0 -33 -27l-29 -29v-809q0 -33 -43 -67q-43 -37 -69 -37h-357q-34 0 -47 16q-14 14 -14 45q0 19 6 56q1 10 2 19.5t1.5 14.5t0.5 7q0 39 -16 55q-22 22 -80 22q-70 0 -80 -16q-10 -17 -10 -115
q0 -81 41 -143q60 -84 102 -84h545q34 0 88 57q53 56 53 76v696q0 40 25 56q22 16 22 65z" />
    <glyph glyph-name="K" unicode="K" horiz-adv-x="1452" 
d="M1452 -395h-1456v2040h1456v-2040zM1208 145q0 82 -88 125q-48 21 -82 39q-45 26 -108 117q-65 94 -88 109q-23 0 -33 2q-66 9 -145 73q30 65 61 74q35 2 106 10q0 44 5 64q3 12 16 22q2 2 16 2h17q18 0 30 4q1 0 107 113q105 111 111 115q7 1 20.5 2t20.5 2q18 0 26 8
t8 80q0 59 -45 92q-38 23 -63 23q-70 0 -115 -91q-52 -107 -67 -116q-27 -10 -33 -10q-18 0 -37 22q-19 19 -35 16q-54 -40 -86 -59q-42 -25 -70 -25q-15 0 -30 5q-25 17 -47 24q-11 -53 -11 -55v-25q0 -70 41 -76t41 -30q0 -41 -26 -58q-27 -18 -66 -18q-17 0 -47 27v385
q0 25 -37 65q-36 39 -53 39q-8 0 -49 -72q-41 -74 -41 -88q0 -25 24 -59q25 -36 25 -45v-836q0 -27 14 -41t51 -14q33 0 50 10q4 5 16 17v469h57q40 -37 49 -74q1 -7 9 -31q3 -13 96 -76q70 -46 166 -139q66 -59 149 -115q91 -61 109 -61q43 0 53 10q8 8 8 49z" />
    <glyph glyph-name="L" unicode="L" horiz-adv-x="1284" 
d="M1284 -395h-1288v2040h1288v-2040zM1171 123q0 19 -36 55l-29 29h-293q-32 0 -49 26q-13 15 -35 50q-15 -54 -35 -68q-9 -6 -55 -6q-14 -2 -25 -2q-8 0 -45 29v854q0 40 -39 73t-75 33q-31 0 -47 -25q-17 -27 -17 -43v-987q0 -26 12 -41q13 -16 43 -16h678q16 0 33 10
q14 8 14 29z" />
    <glyph glyph-name="M" unicode="M" horiz-adv-x="1472" 
d="M1473 -395h-1477v2040h1477v-2040zM1413 1128q0 27 -88 70q-87 43 -104 43q-34 0 -82 -51q-11 -11 -34 -34.5t-44 -44.5t-41 -40v-57q20 -2 31 -8q1 -6 8 -19h-47q-5 -4 -15.5 -12t-15.5 -12q-59 -109 -147 -136q-4 7 -8.5 16t-7.5 14.5t-5 8.5q-11 19 -27 35
q2 -39 2 -70q0 -21 -12 -61q-59 12 -76 45q-20 29 -20 78q0 42 2 65l-84 95q-22 59 -43 94q-58 94 -129 94q-50 0 -84 -55q-21 -43 -27 -58q0 -35 25 -63q22 -28 22 -41v-838q0 -28 13 -41q8 -14 51 -14q36 0 45 6q4 4 8 8.5t8.5 8.5t6.5 6v573q0 49 51 49q33 0 73 -125
q23 -74 74 -122v-84h-47q-11 13 -29 28l-18 -28l8 -29q41 -6 82 24q18 14 33 5q18 -9 18 -37v-29q8 -14 31 -14h23q28 0 49 -9q23 -10 47 -34q118 101 180 254q102 245 129 245h35q20 -11 20 -75q0 -48 -22 -84q-23 -38 -23 -39v-479q14 -7 29 -13t55 -6q33 0 43 2
q19 4 43 17v903q0 29 19 51q16 19 16 24zM1143 338v178h-29q0 -44 -10 -61q-26 -31 -27 -33q21 -15 31 -41q9 -23 35 -43zM860 610h-26v58q3 -2 12 -11q14 -17 14 -47z" />
    <glyph glyph-name="N" unicode="N" horiz-adv-x="1488" 
d="M1489 -401h-1493v2046h1493v-2046zM1374 950v219q0 21 -35 56q-32 32 -51 32q-15 0 -49 -43q-35 -47 -35 -55v-84v-67v-56v-47v-39v-35v-30v-27v-24v-80q-2 -27 -2 -82v-27h-65v313q0 17 -13 27q-4 0 -6 2q-6 -18 -10 -59q-1 -9 -2 -19.5t-1.5 -15.5t-0.5 -8q0 -42 2 -60
t2 -28q-7 -20 -25 -35t-30 -80h-39q-138 153 -230 336q-23 45 -63 129t-51 106q-58 88 -160 88q-95 0 -125 -40q-29 -63 -66 -134q35 -6 39 -8q22 -11 37 -20v-867q0 -32 19 -41q18 -12 47 -12q40 0 51 8q9 16 16 19v721q0 51 52 51q38 0 96 -135q53 -124 53 -154
q55 -15 76 -45q18 -35 18 -96q50 -70 131 -180t82 -111q95 -127 205 -127q23 -2 43 -2q7 0 43 20v770q0 28 19 50q3 5 28 26zM672 655v68h-21q-6 -12 -6 -16q-2 -4 -2 -21q0 -10 8 -18q4 -2 8.5 -5l7.5 -5t5 -3z" />
    <glyph glyph-name="O" unicode="O" 
d="M1430 -395h-1434v2040h1434v-2040zM1315 365v616q0 31 -68 102q-95 98 -141 154q-44 -23 -64 -23q-18 0 -22 7q-7 7 -10 16q3 -13 -4 -23t-25 -10q-2 0 -18 4q-13 3 -19 19q-5 13 -37 10q-8 -3 -14 -14q-10 -13 -14 -15q-30 -10 -66 -10q-47 0 -111 21q-90 24 -133 38
q-59 0 -131 -69q-53 -50 -82 -103q31 -28 31 -73q0 -19 -2 -23q-41 -125 -41 -129q-6 -62 -6 -477q0 -49 76 -147q69 -90 92 -99q27 -10 45 -10q12 0 33 6t30 6q12 0 35 -10q19 -11 49 -41h332q35 0 47 18q10 19 39 29q42 0 62 2q32 0 43 8q38 24 47 95t18 86q8 14 19 14
q10 0 10 25zM1135 678l-2 -295h-37l-9 47q-12 12 -20 12q-14 0 -43 -63q-30 -64 -88 -64h-229q-13 0 -31 -12t-35 -12q-30 0 -43 16q-22 28 -23 29q-32 32 -43 63q-14 28 -14 60q0 19 6 53t6 53q0 3 -4 35q-5 19 -22 39t-17 29q0 6 19 28q18 21 20 33q2 10 2 33q0 3 -4 43
t-4 47q0 38 21 68q24 31 82 51q10 3 39 26q27 21 45 21h294q83 0 113 -70q23 -54 23 -151v-60q-2 -20 -2 -59z" />
    <glyph glyph-name="P" unicode="P" horiz-adv-x="1376" 
d="M1376 -401h-1380v2046h1380v-2046zM1319 969q0 34 -27 43q-83 27 -106 71l-21 66q-3 3 -32 6l-33 4q-5 5 -13 35q-8 32 -34 61h-582q-10 -10 -29 -30t-28 -29q-29 -32 -29 -55v-953q0 -30 35 -65q34 -37 61 -37q49 0 70 59q14 41 14 119q0 139 -30 160q-15 9 -15 37
q0 17 6 26q8 12 21 25h581q105 0 132 182q10 165 12 199q2 10 26 41q21 24 21 35zM1090 862v-39q0 -26 -3 -35q-6 -18 -16 -38q-20 20 -27 38q-6 15 -6 31q6 30 6 45q0 16 -12 31q-10 13 -28 27q-6 -18 -11 -48q-2 -12 -2 -34q4 -40 4 -43q0 -21 -18 -56h-334q-3 5 -9 15.5
t-9 15.5q-2 8 -2 62q0 26 2 40q0 21 18 48h342q12 15 29 32t28 17q30 0 39 -19q9 -18 9 -53v-37z" />
    <glyph glyph-name="Q" unicode="Q" horiz-adv-x="1523" 
d="M1524 -395h-1528v2040h1528v-2040zM1511 150q0 58 -69 61q-70 3 -70 59q0 16 31 58q16 22 16 34v543q-12 12 -104 152q-94 141 -115 151q-9 3 -37 0q-9 -1 -17.5 -2t-12.5 -1.5t-5 -0.5h-12q-2 1 -4.5 2t-3.5 1.5t-2 0.5q-16 20 -19 23q-24 24 -47 24h-256q-28 0 -49 -18
q-25 -25 -37 -29h-41q-30 0 -53 -10q-19 -8 -137 -141q-123 -138 -123 -172q0 -17 33 -31q6 -3 29 -16t36 -19v-483q0 -45 76 -146q72 -94 94 -102q3 -3 47 0q31 2 52 2q30 0 34 -2l58 -41q21 -6 127 -6q52 0 114 12q166 34 195 37q28 3 41 14q14 11 29 15q5 -2 33 -13
t44 -16q40 -12 62 -12q31 0 47 16t16 56zM385 600q0 31 -2 37q-4 11 -18 31q-8 -13 -15 -31q-6 -15 -6 -35q0 -18 8 -37q5 -18 15 -41q2 6 5.5 14.5t5.5 13.5t3 9q4 16 4 39zM1229 786q0 -1 -0.5 -3t-1.5 -6.5t-2 -8.5q-1 -3 -1.5 -6t-1 -5t-1 -3t-0.5 -2q-15 11 -23 22
q-5 26 -16 55l-37 -28v-238q0 -37 -58 -55q-60 -21 -86 -96q-17 -47 -65 -95q-47 -47 -100 -47q-54 0 -68 17q-8 8 -23 28q-20 4 -22 4q-22 0 -39 -26q-8 -14 -18 -14q-11 0 -13 2t-10.5 7.5t-11.5 8.5v541q0 17 49 75q46 58 84 58h342q22 0 74 -76q49 -76 49 -109z" />
    <glyph glyph-name="R" unicode="R" horiz-adv-x="1394" 
d="M1395 -401h-1399v2046h1399v-2046zM1329 150v276q-96 93 -96 125q0 20 39 82q43 68 57 80v284q-48 48 -110 148q-46 75 -91 100q-21 12 -49 12q-7 0 -35 -4q-21 -3 -30 0q-9 15 -17 27q-13 23 -41 23q-29 -18 -45 -25q-21 -12 -30 -12q-11 0 -35 18q-25 19 -55 19
q-28 0 -43 -9q-17 -10 -48 -41h-294q-24 0 -64 -67q-43 -67 -43 -88q0 -35 25 -66q24 -30 24 -45v-799q0 -33 23 -43q50 -17 92 -53q6 5 22 18t25 21q12 12 18 47q16 97 25 228q1 15 2 51.5t2 54.5h496q25 0 65 -37q39 -36 39 -67v-230q0 -28 31 -59q26 -33 53 -33
q20 0 43 23q7 7 22.5 20.5t22.5 20.5zM291 717v63q0 42 2 60q0 25 -4 61q-3 27 -19 49q-13 -30 -16 -61q-4 -46 -4 -74v-96v-70q-2 -23 -2 -57q0 -48 24 -119q21 41 21 117v57q-2 18 -2 51v19zM1081 993q-17 -96 -26 -127q-38 -127 -88 -127h-277q-14 20 -47 43l-16 9
q-10 0 -27 -17q-26 -45 -43 -72l-18 19q1 49 2 102.5t1.5 81.5t0.5 41v33q-4 28 -4 37h532q3 -13 10 -23z" />
    <glyph glyph-name="S" unicode="S" 
d="M1430 -395h-1434v2040h1434v-2040zM1020 952l-19 19h-342l-18 -29q10 -1 26 -1.5t39.5 -1t41.5 -1.5q94 -4 206 -4q15 0 33 6q5 2 16.5 6t16.5 6zM1315 315v258q-61 58 -70 134q-9 73 -74 73h-559q-40 0 -67 41q-29 43 -29 84q0 74 41 101q41 24 111 24q32 0 57 -2t51 -2
q21 0 27 2q9 4 31 21q22 16 38 16q30 0 41 -14q15 -18 39 -21q27 -6 47 -6q55 0 82 2t43 2q20 -10 23 -51q3 -43 57 -43q45 0 78 33t33 80q0 80 -62 104q-15 7 -61 10q-2 12 -12 41q-9 24 -35 53h-334q-15 24 -18 27q-21 21 -60 21q-24 0 -45 -15q-41 -29 -47 -33
q-2 -2 -14 -2h-17q-10 1 -30.5 2t-28.5 2q-27 0 -33 -2q-50 -15 -137 -139q-90 -128 -90 -164q0 -51 57 -137q67 -106 160 -205h295q27 0 53 -20q25 -22 45 -25q24 -4 31 -4h26q31 0 54 2t51 2q52 0 72 -20l36 -109q-14 -68 -20 -86q-27 -88 -61 -88l-41 6q6 29 18 68
q12 37 12 53q0 33 -30 60q-43 -80 -172 -101q-123 -20 -189 -41l-22 -22q-23 -23 -50 -23q-60 0 -84 70q-23 69 -81 69q-31 0 -48 -14q-18 -15 -18 -57v-37q0 -98 39 -131q28 -25 88 -25q27 2 55 2q5 0 29 -4q22 -7 35 -26q15 -21 39 -21h360q35 0 47 18q10 19 39 29
q59 22 101 25q-2 4 69 119q11 0 19 2q10 3 10 34zM1030 469l-10 18q-30 8 -47 9q10 -24 26 -27h31z" />
    <glyph glyph-name="T" unicode="T" horiz-adv-x="1509" 
d="M1509 -401h-1513v2046h1513v-2046zM737 760q10 -17 21 8q10 23 10 92t-8 88q-9 19 -23 2q-30 -40 -30 -94q0 -56 30 -96zM1356 1141q0 69 -47 96q-30 18 -95 18h-49h-28q-9 15 -17 23q-22 25 -49 25h-446q-45 0 -113 -39q-90 -50 -135 -95q15 -24 33 -47q43 -49 82 -49
h294q14 -27 19 -49q4 -32 4 -55q-6 -62 -6 -84q-3 -17 2 -31q20 -12 22 -14q25 -22 25 -52v-380q0 -26 -25 -54q-24 -27 -24 -116q-2 -23 -2 -48q0 -27 8 -40q6 -19 55 -19q36 0 76 29q35 27 35 57q-23 738 -23 768q0 62 23 88h268q29 0 37 -14q9 -15 18 -15q26 0 41 35
q17 39 17 62zM920 1245l-11 -28l-47 10l8 28z" />
    <glyph glyph-name="U" unicode="U" horiz-adv-x="1488" 
d="M1489 -401h-1493v2046h1493v-2046zM1327 455v667q0 33 -39 84t-71 51q-35 0 -76 -71q-18 -32 -35 -74q0 -11 27 -35q24 -27 24 -51v-655q0 -22 -8 -35q-6 -6 -13 -14t-8 -9h-38v590h-19v-104q0 -68 2 -99v-28q0 -104 -8 -185q-9 -92 -211 -163q-186 -66 -227 -66
q-67 0 -107 27q-39 26 -39 65v801q0 29 -39 68q-38 38 -53 38q-13 0 -78 -92l-61 -92q0 -18 53 -45l45 -20v-723q0 -95 129 -133q164 -46 185 -68h380q8 0 121 76q111 73 117 86q3 3 0 39q-2 23 -2 57q0 21 4 33t25 39q20 26 20 41zM651 342l-37 8l-10 -18q17 -7 39 -10z
" />
    <glyph glyph-name="V" unicode="V" horiz-adv-x="1394" 
d="M1395 -401h-1399v2046h1399v-2046zM956 854v57q-43 -24 -59 -55q-16 -37 -16 -72q0 -25 4 -41q4 -15 16 -30q8 31 8 51q0 19 2 31q0 20 45 59zM1278 1094q0 25 -33 45t-65 20q-41 0 -68 -104q-21 -76 -78 -133h-20q-8 21 -8 75h-21l-8 -67q37 0 43 -2q8 -3 8 -21
q-4 -46 -4 -65q0 -69 -102 -324q-62 -156 -99 -291h-47q-8 49 -33 84q-26 33 -26 49q0 37 47 52q45 14 51 24q-4 20 -4 37q0 22 10 49q11 26 41 56v38h-39q-35 -100 -43 -129q-9 -20 -28 -20q-49 0 -64 70q-3 20 -6 69q-6 14 -25 27q-18 12 -24 31q2 20 2 53q0 16 -2 22
q-51 82 -62 101q-24 42 -32 61q-5 28 -16.5 90.5t-16.5 95.5q-35 72 -107 72q-56 0 -73 -14q-19 -16 -19 -70q0 -38 45 -112q85 -141 148 -289q2 -2 2 -33q0 -16 -2 -43q-3 -44 0 -47q6 -25 30 -62q12 -16 33 -46.5t33 -45.5v-30q0 -34 2 -50q0 -25 6 -34l86 -123
q4 -8 4 -23q0 -37 4 -41q2 -5 47 -8q27 -2 54 -2q50 -4 59 -4q30 0 43 10l105 201q4 23 10 55.5t6 34.5q19 88 53 162q43 102 117 301q86 238 86 248z" />
    <glyph glyph-name="W" unicode="W" 
d="M1430 -395h-1434v2040h1434v-2040zM1323 1071q2 12 2 27q0 42 -18 69q-27 41 -93 41q-32 0 -73 -71q-17 -30 -35 -72v-530q-3 -2 -9.5 -6.5t-9.5 -6.5q-9 -6 -16 -6q-19 0 -22 6q-9 19 -84 31v47l75 68v237q-89 -24 -116 -24q-15 0 -21 12q-14 33 -110 33q-89 0 -111 -25
q-21 -24 -55 -24q-19 0 -49 6t-50 6q-3 0 -39 -4q-4 20 -8 61q-4 46 -4 76v37q0 77 -16 106q-24 43 -96 43q-38 0 -56 -41q-18 -34 -39 -82q18 -18 25 -34q6 -21 6 -47q0 -27 -2 -41l-4 -45q0 -26 6 -41q3 -13 21 -39q13 -18 20 -47q6 -27 6 -46q-2 -16 -2 -49l49 -86v-274
q0 -31 19 -47q8 -7 14.5 -13.5t9.5 -11.5l4 -4q-2 -10 -2 -27q0 -48 19 -88q27 -55 90 -55q62 0 92 113q29 112 66 112q23 -11 63 -34q69 -40 70 -41l10 49q-5 5 -45 39q-7 7 -19 16q-4 -4 -16 -10q-23 -13 -53 -19q-6 18 -12 39q0 10 10 27q31 52 49 211h47q8 -44 33 -80
q20 -30 24 -35v-18q-2 -6 -2 -19q0 -27 2 -37q3 -20 11 -30q70 -169 86 -207q34 -76 108 -76h35q18 4 27 19q3 3 0 32q-1 7 -2 16.5t-2 16t-1 10.5q0 35 11 92q10 52 41 115v25q-2 8 -2 33t4 65q3 26 16 49q47 71 62 164q16 94 16 166v31q0 12 -2 18q8 32 29 41q18 6 18 88z
M575 772l-20 -18q-6 10 -18 34q0 8 6 17q8 8 12 14l20 -18v-29z" />
    <glyph glyph-name="X" unicode="X" horiz-adv-x="1468" 
d="M1468 -397h-1472v2042h1472v-2042zM557 485l-20 -10zM510 438l-21 -10zM1270 1118q0 30 -35 60q-34 30 -76 30q-47 0 -76 -45q-39 -53 -61 -88h-29l-10 66h-27q-71 -99 -112 -150q-64 -83 -78 -96q33 -10 43 -10h33v-58q-9 -6 -18.5 -11.5t-13.5 -7.5t-5 -3
q-27 -14 -39 -17q-91 218 -213 357q-93 112 -127 112q-27 -31 -45 -49q-45 -51 -45 -67q0 -43 59 -99q160 -148 228 -348q-70 -21 -74 -39q-17 -68 -117 -198q11 -11 35 -31q12 -15 12 -53q0 -53 -71 -80q-72 -28 -72 -96q0 -34 35 -72q33 -39 61 -39q29 0 94 80
q63 77 88 139q49 35 91 80q36 38 51 111h47q126 -178 225 -299q88 -111 131 -111q41 0 51 10q11 11 11 54q0 34 -74 161q-58 99 -78 127q-11 11 -20 11q-37 0 -45 8q-9 54 -43 94t-101 49v37q78 33 101 63q18 26 49 74.5t41 63.5q19 18 56 54t56 54q107 113 107 172z
M946 989l-18 -47h-21v66h27q12 -3 12 -19zM696 621q-10 -26 -18 -37q-39 -45 -103 -70v66q32 36 41 51q13 44 17 53q27 -19 35 -27q28 -25 28 -36z" />
    <glyph glyph-name="Y" unicode="Y" horiz-adv-x="1394" 
d="M1395 -401h-1399v2046h1399v-2046zM995 1055l-28 -29v-29q28 22 28 58zM1327 1118q0 30 -35 60q-34 30 -75 30q-54 0 -113 -133q-78 -180 -115 -268q-74 -160 -145 -201h-21q-10 23 -14 49q-3 18 -43 58v65h39q9 -15 16 -35q2 -6 2 -41q41 41 70 109q26 67 55 90v57
q-71 -38 -74 -84q-3 -47 -88 -47q-44 0 -100 68q-43 51 -61 102q-2 2 -2 21v22q0 68 -17 107q-30 61 -121 61q-49 0 -69 -14q-23 -16 -23 -53q0 -14 25 -62q24 -47 63 -100q11 -15 11 -35q0 -30 8 -43q8 -14 43 -41q32 -25 43 -43q-4 -32 -4 -49q0 -13 4 -37q3 -18 18 -39
q43 -67 113 -205q59 -118 59 -127v-258q11 -7 25 -10q15 -6 37 -6t32 -2q8 8 31 18v248q0 34 111 221l205 340q110 183 110 207z" />
    <glyph glyph-name="Z" unicode="Z" horiz-adv-x="1468" 
d="M1468 -397h-1472v2042h1472v-2042zM1315 125q0 18 -60 53q-60 31 -71 31h-428q-22 0 -45 -23q-22 -22 -47 -22l-31 8l-10 25q24 54 57 79q6 3 65 39q-2 10 -2 31q0 12 7 29q3 16 16 35q7 11 57 55q9 8 28 24.5t28 24.5q8 8 8 18q0 13 2 23q0 16 47 63q234 227 250 246
q129 132 129 183q0 49 -29 81q-28 31 -65 31h-408q-19 60 -27 80q-9 18 -30 18q-10 0 -31 -24q-22 -25 -55 -25h-228q-27 0 -41 -20q-16 -22 -16 -47q0 -34 43 -74q41 -41 72 -41h579v-55q-20 -12 -90 -82q-44 -47 -90 -62q-4 11 -8 37q-2 12 -2 29q2 18 2 39q0 23 -17 33
q-18 6 -90 6q-20 2 -43 2q-14 0 -26 -6q-13 -6 -25 -25q44 -38 55 -57q21 -35 21 -86q6 4 22.5 13t24.5 15q23 13 41 13l45 -2v-39q-13 -17 -53 -73t-62 -85q-61 -76 -143 -137h-27v76h-28q-2 -2 -6.5 -8t-13.5 -17t-19 -23q-19 -22 -19 -36q9 -15 9 -29q29 25 34 27
q20 10 52 10v-84q-31 -33 -146 -144q-92 -89 -92 -126q0 -33 12 -48q10 -16 45 -16h314q16 -10 28 -12q88 -33 256 -33q12 0 35 -2q20 -2 58 -2q82 0 120 14q62 21 62 74zM745 770l-5 -6q-4 -5 -9 -10q-14 -11 -14 -21q10 -13 10 -28q11 18 16 49q0 8 2 16zM823 287
q-3 3 -8 9t-8 9h-41q2 -6 10 -14q5 -8 21 -8z" />
    <glyph glyph-name="bracketleft" unicode="[" 
d="M1430 -395h-1434v2040h1434v-2040zM926 170q0 39 -21 51q-23 10 -61 10q-31 -2 -66 -2q-33 0 -51 9q-22 6 -31 32q-10 30 -10 97v79q0 76 2 127v97q-2 31 -2 84q0 76 12 123q21 72 125 81q103 9 103 66q0 64 -41 111q-39 45 -103 45q-132 0 -184 -119q-33 -80 -72 -184
q39 -36 39 -66q0 -31 -14 -45q-35 -35 -35 -145q0 -68 16 -150q15 -79 15 -92q0 -37 -21 -72q40 -137 97 -215q56 -80 159 -80q63 0 105 54q39 51 39 104z" />
    <glyph glyph-name="bracketright" unicode="]" 
d="M1430 -395h-1434v2040h1434v-2040zM971 621q0 87 -13 124l-32 70q0 27 18 45q10 10 10 25q0 105 -84 209q-71 86 -174 86q-52 0 -92 -43q-39 -42 -39 -88q0 -56 115 -86q113 -30 113 -86v-627q-42 -6 -136 -23q-92 -18 -92 -82q0 -39 41 -86t66 -47q54 0 63 21
q9 17 29 26q27 0 41 2q78 12 121 123v27q-2 8 -2 33q0 33 2 35q0 2 14 10t14 24q0 3 -24 49q-12 24 -12 50q0 23 6 41q6 19 26 30q21 12 21 138z" />
    <glyph glyph-name="underscore" unicode="_" horiz-adv-x="1335" 
d="M1335 -399h-1339v2044h1339v-2044zM1212 96q0 28 -45 64q-28 22 -41 22h-770q-4 -4 -7.5 -8.5t-5.5 -7.5t-3 -4q-12 -15 -12 -41q0 -31 16 -47q17 -17 41 -17h780q47 0 47 39z" />
    <glyph glyph-name="a" unicode="a" horiz-adv-x="1359" 
d="M1360 -397h-1364v2042h1364v-2042zM522 977v65q-11 -11 -16 -24q-7 -17 -10 -33zM1217 121q-10 25 -26.5 58t-19.5 40q-62 127 -73 146q-33 57 -49 133q-3 21 -9.5 71t-9.5 78q-27 102 -82 203l-57 98q-2 2 -2 21v24v56q0 24 2 30l-57 58q-43 3 -72 6q-8 1 -24 2t-23 2
q-80 0 -107 -10q-25 -13 -65 -76q41 -24 41 -47q0 -19 -23 -35l-29 -21q-3 -3 0 -36t0 -39q-1 -1 -8.5 -4.5t-13.5 -4.5q-16 -6 -25 -30v-33q0 -47 -18 -90q-22 -48 -57 -92q-3 -92 -37 -219q-38 -133 -152 -318q56 -16 66 -22q5 -3 18 -11.5t21 -13.5q54 63 86 125
q6 14 21.5 47.5t23.5 52.5h489q44 0 64 -57q46 -131 125 -131h28q17 0 37 4q17 3 17 35zM928 412q-30 -10 -35 -11q-24 0 -33 35q-3 10 -8.5 30.5t-7.5 29.5q-23 -12 -146 -54q-12 -4 -30 -9.5t-46.5 -15t-48.5 -16.5q-2 0 -18 13q-1 0 -6 4t-8 8q0 10 18 31q21 25 21 26
q2 6 2 33q-2 29 -2 72q-3 27 0 30q42 76 82 134q16 26 16 41q0 22 -2 53q-2 29 -2 65l35 2q19 0 34 -30q16 -31 62 -160q18 -49 39 -84q35 -59 35 -70q0 -17 -27 -63q48 -38 76 -66v-28z" />
    <glyph glyph-name="b" unicode="b" horiz-adv-x="1452" 
d="M1452 -395h-1456v2040h1456v-2040zM1253 381q0 99 -47 137t-47 168q0 92 15 129q13 24 34 55q0 12 -22 48q-2 4 -25 30q-2 4 -2 35v29q0 16 2 22q-20 55 -104 109q-125 78 -193 78q-4 0 -22 -11q-15 -12 -29 -12l-18 4q-3 11 -13 21q-21 18 -100 18q-65 0 -104 -20
q-5 -4 -46 -27q-9 -3 -49 0q-51 0 -69 2q-52 0 -70 -2q-28 -3 -35 -8q-15 -10 -39 -49q-30 -43 -30 -56v-376q0 -24 8 -35q6 -15 39 -41v-535q0 -35 26 -47q27 -12 76 -12h43q29 0 43 2q101 0 150 14q11 4 35.5 16t39.5 17h414q68 0 111 147q15 62 28 150zM918 940
q-55 -9 -191 -12q-135 -3 -170 -6q-33 -3 -39 -45q-9 -41 -24 -41q-17 0 -39 28q-13 19 -17 29q0 7 19 29l37 36q3 1 12.5 5t13.5 6q15 6 68 6q60 0 162 -10q1 0 168 -25zM889 799v-23q-1 -3 -3.5 -8t-7 -15.5t-8.5 -19.5h-282q-14 14 -15 17q-4 8 -4 51q0 41 2 43
q14 14 17 20h282q19 -40 19 -65zM504 705q-22 -16 -47 -19l-19 19l19 18h28zM1077 410q0 -5 -4 -17l-6 -18l-76 20q-7 -59 -12 -102q-6 -31 -53 -31h-367q-1 0 -31 -10q-30 -13 -43 -16q-12 44 -12 63t2 27q1 3 2 10.5t2 11.5q0 5 -4 17q-2 6 -26 30q-23 23 -23 56
q0 17 12 32q14 17 31 17q23 0 33 -17q15 -33 39 -80h424l6 21q-9 15 -17 27h-254l-28 18q37 29 57 29h244q24 0 63 -33q41 -35 41 -55z" />
    <glyph glyph-name="c" unicode="c" horiz-adv-x="1419" 
d="M1419 -401h-1423v2046h1423v-2046zM1315 236q0 43 -37 83q-26 29 -76 62q-97 -91 -237 -164q-119 -61 -158 -61q-86 0 -131 57q-23 29 -31 29t-24 -19q-15 -18 -46 -18q-30 0 -67 69q-12 21 -31 70v479q0 7 19 47q9 20 25 51.5t22 45.5h536q7 -16 21.5 -47.5t21.5 -47.5
q27 -49 84 -49q39 0 72 33q11 11 29 35q0 24 -60 102q-34 37 -63 76q-6 25 -21 61q-30 62 -84 62h-395q-16 0 -63 -27q-19 -12 -57.5 -33.5t-57.5 -33.5h-14q-15 0 -23 2q-41 0 -57 -13q-8 -3 -52 -118q-45 -113 -45 -125q0 -4 13 -17q10 -17 10 -32q0 -13 -2 -19
q-15 -12 -21 -24q-20 -39 -20 -121q0 -76 16 -105q19 -38 33 -59v-238q0 -32 27 -53l20 -20q2 -21 10 -68q6 -6 56 -6q31 -2 96 -2q11 -4 22 -17q30 -30 52 -30h405q28 0 49 18q9 7 18.5 15t13.5 11t5 3q47 7 74 14q123 30 123 142z" />
    <glyph glyph-name="d" unicode="d" horiz-adv-x="1452" 
d="M1452 -395h-1456v2040h1456v-2040zM1219 309v631q-71 68 -89 107q-3 7 -8 21.5t-8 21.5q-8 8 -29 8q-34 0 -36 2q-45 56 -91 102q-39 39 -69 39h-414q-16 -16 -37 -59q-12 -27 -35 -27q-6 0 -30 21q-23 20 -58 20q-36 0 -45 -20q-8 -18 -24.5 -52.5t-24.5 -52.5
q16 -16 19 -20q10 -17 10 -27v-555q0 -30 22 -49q23 -20 23 -109q0 -78 -23 -116q-22 -36 -22 -50q0 -24 2 -30q12 -31 53 -31h725q58 0 127 106q62 92 62 119zM1085 569q0 -115 -41 -118q-40 -6 -53 -29q-12 -30 -22 -60q-30 -53 -80 -53h-330q-19 23 -29 45q-13 23 -26 41
q-20 -30 -25 -45q-8 -16 -8 -39q4 -54 4 -67q-11 -4 -29 -8v770h461q31 0 80 -58t49 -100q0 -54 -22 -76q-23 -23 -23 -37q0 -47 47 -53t47 -113z" />
    <glyph glyph-name="e" unicode="e" horiz-adv-x="1400" 
d="M1401 -401h-1405v2046h1405v-2046zM1241 98q-71 71 -98 92q-29 19 -45 19q-3 0 -23 -4q-18 -6 -28 -6l-33 4q-24 3 -41 20q-19 19 -25 27q-2 2 -22 2t-43 -2t-56 -2q-53 0 -86 8q-35 6 -67 31q-9 -27 -12 -39q-1 -3 -2 -7.5t-2 -7t-1 -4.5q0 -5 -6 -8q-14 -10 -51 -47
h-39q-10 45 -10 68q0 11 4 39q2 14 2 24q0 30 -8 66q-5 21 -35 114l29 19h329q36 0 66 35q29 37 29 55q0 11 -11 22q-16 13 -26 29l-21 66q-12 12 -55 12q-45 0 -68 -2q-33 -3 -36 0q-15 25 -17 27q-25 32 -67 49q-3 -5 -9.5 -14.5t-9.5 -14.5q-12 -12 -20 -18
q16 -28 18 -35q2 -6 2 -31q-33 -8 -49 -8q-21 0 -29 8q-8 10 -16 18v160q0 77 8 142q41 0 70 -19q5 -3 16 -18q17 -3 43 30q1 1 2.5 3.5t4.5 6.5t5 7q34 9 78 12q54 4 76 4q56 0 137 -8t152 -8q37 0 47 16q8 13 8 53q0 49 -117 107q-67 30 -116 49h-301q-19 0 -39 -14
q-41 -29 -47 -33q-14 2 -33 2q-69 0 -109 -18q-65 -27 -65 -97v-942q0 -31 33 -67q34 -37 61 -37h688q30 0 51 24q5 6 17 20.5t18 20.5z" />
    <glyph glyph-name="f" unicode="f" horiz-adv-x="1323" 
d="M1323 -397h-1327v2042h1327v-2042zM1159 1081q0 13 -53 66q-55 49 -68 49q-21 0 -37 -25q-15 -24 -61 -24q-25 0 -47 22q-52 52 -66 52q-6 0 -22 -13q-14 -14 -19 -14q-2 -2 -38 -2q-39 0 -76 2t-76 2q-14 -2 -27 -2q-21 -5 -32 -23q-10 -16 -37 -22q-30 -6 -41 -6
q-25 0 -35 2q-47 8 -57 8q-18 0 -33 -6t-31 -25q-7 -10 -18.5 -27t-16.5 -24q16 -16 19 -20q10 -17 10 -27v-885q0 -35 16 -45q13 -8 72 -8h33q39 0 47 8q10 10 10 27q0 18 -18 39q-8 8 -18 16.5t-11 9.5v349h57q12 -15 21 -21q8 -8 26 -8h263q30 0 63 33q31 31 31 57
q0 87 -88 111q-213 62 -240 186h-20q-4 -20 -4 -37v-33v-26q0 -63 -9 -84q-15 -37 -53 -37q-19 0 -35 16q-14 14 -14 37q0 31 25 53q24 21 24 64q0 32 -24 69q-25 39 -25 54q0 4 4 16l8 21h37q18 -15 39 -27q18 -12 37 -12h471q41 0 92 57q35 42 45 57z" />
    <glyph glyph-name="g" unicode="g" horiz-adv-x="1452" 
d="M1452 -395h-1456v2040h1456v-2040zM1356 498q0 50 -78 116q-80 62 -127 62q-38 0 -141 -47q-105 -49 -105 -82t43 -82q39 -51 90 -51q46 0 78 14t64 14l8 -43q0 -32 -131 -69q-10 -2 -53.5 -12t-77.5 -17q-8 -4 -19 -18q-18 -21 -47 -29q-2 -2 -29 -2h-65q-47 0 -74 2
q-12 -12 -20 -23q-19 -22 -51 -22q-22 0 -52 27v638q0 22 60 60q59 35 71 35h377q43 -43 86 -84q8 -8 62 -58q37 0 61 41q25 42 25 72l-56 197q-7 10 -174 71q-85 33 -112 33q-87 0 -101 -14q-6 -5 -18.5 -16.5t-18.5 -16.5q-46 -7 -129 -19.5t-114 -17.5
q-120 -53 -207 -199q-1 -1 -19 -8q-18 -9 -18 -28t14 -33q33 -39 33 -53v-553q0 -38 17 -52q27 -21 30 -24q-2 -10 -2 -31q0 -15 10 -35q18 -30 50 -43q87 -35 110 -61h471q40 0 129 65q94 68 107 95q2 2 2 34v78q-2 27 -2 78v27q4 12 30 51q13 19 13 33z" />
    <glyph glyph-name="h" unicode="h" horiz-adv-x="1531" 
d="M1532 -401h-1536v2046h1536v-2046zM1307 166q0 5 -31 53q-16 26 -16 49v594q0 41 24 56q23 13 23 92q0 74 -29 106q-28 31 -82 31q-40 0 -51 -14q-15 -15 -15 -46q0 -23 3 -38q2 -19 5 -38.5t4 -27.5t1 -10q0 -48 -23 -86q-25 -44 -96 -72q-17 -7 -37 -27t-39 -20h-340
q-14 0 -26 4l-50 25q0 -45 17 -72q10 -17 10 -18q0 -10 -8 -21q-2 -3 -8.5 -10t-16.5 -18.5t-20 -22.5h-39v452q0 60 -66 60q-27 0 -69 -39q-43 -40 -43 -76v-282q0 -35 24 -62q23 -30 23 -80q0 -66 -23 -82q-24 -18 -24 -51v-338q0 -38 18 -47q16 -8 70 -8h39q20 0 28 8
q3 2 11 9t12 10v423h57q3 -4 7.5 -9t5.5 -5q14 -14 34 -14h453q30 0 57 24q28 25 39 25q3 0 19 -4q21 -7 26 -8q0 -41 -14 -66t-14 -37v-340q16 -8 26 -10q15 -6 33 -6q50 0 82 29q29 29 29 55zM1100 682l-47 10l8 29h39q6 -21 0 -39z" />
    <glyph glyph-name="i" unicode="i" horiz-adv-x="1341" 
d="M1341 -397h-1345v2042h1345v-2042zM768 102v1016q-29 29 -82 29q-63 0 -76 -23q-12 -21 -12 -112q0 -75 14 -144l33 -127v-405q0 -3 -22 -39q-25 -39 -25 -104q-2 -25 -2 -52q0 -32 16 -45q14 -14 74 -14q20 -2 37 -2q4 0 16 6q14 7 29 16z" />
    <glyph glyph-name="j" unicode="j" horiz-adv-x="1341" 
d="M1341 -397h-1345v2042h1345v-2042zM1200 1079q0 40 -37 92q-41 50 -71 50q-6 0 -33 -27l-29 -29v-809q0 -33 -43 -67q-43 -37 -69 -37h-357q-34 0 -47 16q-14 14 -14 45q0 19 6 56q1 10 2 19.5t1.5 14.5t0.5 7q0 39 -16 55q-22 22 -80 22q-70 0 -80 -16q-10 -17 -10 -115
q0 -81 41 -143q60 -84 102 -84h545q34 0 88 57q53 56 53 76v696q0 40 25 56q22 16 22 65z" />
    <glyph glyph-name="k" unicode="k" horiz-adv-x="1452" 
d="M1452 -395h-1456v2040h1456v-2040zM1208 145q0 82 -88 125q-48 21 -82 39q-45 26 -108 117q-65 94 -88 109q-23 0 -33 2q-66 9 -145 73q30 65 61 74q35 2 106 10q0 44 5 64q3 12 16 22q2 2 16 2h17q18 0 30 4q1 0 107 113q105 111 111 115q7 1 20.5 2t20.5 2q18 0 26 8
t8 80q0 59 -45 92q-38 23 -63 23q-70 0 -115 -91q-52 -107 -67 -116q-27 -10 -33 -10q-18 0 -37 22q-19 19 -35 16q-54 -40 -86 -59q-42 -25 -70 -25q-15 0 -30 5q-25 17 -47 24q-11 -53 -11 -55v-25q0 -70 41 -76t41 -30q0 -41 -26 -58q-27 -18 -66 -18q-17 0 -47 27v385
q0 25 -37 65q-36 39 -53 39q-8 0 -49 -72q-41 -74 -41 -88q0 -25 24 -59q25 -36 25 -45v-836q0 -27 14 -41t51 -14q33 0 50 10q4 5 16 17v469h57q40 -37 49 -74q1 -7 9 -31q3 -13 96 -76q70 -46 166 -139q66 -59 149 -115q91 -61 109 -61q43 0 53 10q8 8 8 49z" />
    <glyph glyph-name="l" unicode="l" horiz-adv-x="1284" 
d="M1284 -395h-1288v2040h1288v-2040zM1171 123q0 19 -36 55l-29 29h-293q-32 0 -49 26q-13 15 -35 50q-15 -54 -35 -68q-9 -6 -55 -6q-14 -2 -25 -2q-8 0 -45 29v854q0 40 -39 73t-75 33q-31 0 -47 -25q-17 -27 -17 -43v-987q0 -26 12 -41q13 -16 43 -16h678q16 0 33 10
q14 8 14 29z" />
    <glyph glyph-name="m" unicode="m" horiz-adv-x="1472" 
d="M1473 -395h-1477v2040h1477v-2040zM1413 1128q0 27 -88 70q-87 43 -104 43q-34 0 -82 -51q-11 -11 -34 -34.5t-44 -44.5t-41 -40v-57q20 -2 31 -8q1 -6 8 -19h-47q-5 -4 -15.5 -12t-15.5 -12q-59 -109 -147 -136q-4 7 -8.5 16t-7.5 14.5t-5 8.5q-11 19 -27 35
q2 -39 2 -70q0 -21 -12 -61q-59 12 -76 45q-20 29 -20 78q0 42 2 65l-84 95q-22 59 -43 94q-58 94 -129 94q-50 0 -84 -55q-21 -43 -27 -58q0 -35 25 -63q22 -28 22 -41v-838q0 -28 13 -41q8 -14 51 -14q36 0 45 6q4 4 8 8.5t8.5 8.5t6.5 6v573q0 49 51 49q33 0 73 -125
q23 -74 74 -122v-84h-47q-11 13 -29 28l-18 -28l8 -29q41 -6 82 24q18 14 33 5q18 -9 18 -37v-29q8 -14 31 -14h23q28 0 49 -9q23 -10 47 -34q118 101 180 254q102 245 129 245h35q20 -11 20 -75q0 -48 -22 -84q-23 -38 -23 -39v-479q14 -7 29 -13t55 -6q33 0 43 2
q19 4 43 17v903q0 29 19 51q16 19 16 24zM1143 338v178h-29q0 -44 -10 -61q-26 -31 -27 -33q21 -15 31 -41q9 -23 35 -43zM860 610h-26v58q3 -2 12 -11q14 -17 14 -47z" />
    <glyph glyph-name="n" unicode="n" horiz-adv-x="1488" 
d="M1489 -401h-1493v2046h1493v-2046zM1374 950v219q0 21 -35 56q-32 32 -51 32q-15 0 -49 -43q-35 -47 -35 -55v-84v-67v-56v-47v-39v-35v-30v-27v-24v-80q-2 -27 -2 -82v-27h-65v313q0 17 -13 27q-4 0 -6 2q-6 -18 -10 -59q-1 -9 -2 -19.5t-1.5 -15.5t-0.5 -8q0 -42 2 -60
t2 -28q-7 -20 -25 -35t-30 -80h-39q-138 153 -230 336q-23 45 -63 129t-51 106q-58 88 -160 88q-95 0 -125 -40q-29 -63 -66 -134q35 -6 39 -8q22 -11 37 -20v-867q0 -32 19 -41q18 -12 47 -12q40 0 51 8q9 16 16 19v721q0 51 52 51q38 0 96 -135q53 -124 53 -154
q55 -15 76 -45q18 -35 18 -96q50 -70 131 -180t82 -111q95 -127 205 -127q23 -2 43 -2q7 0 43 20v770q0 28 19 50q3 5 28 26zM672 655v68h-21q-6 -12 -6 -16q-2 -4 -2 -21q0 -10 8 -18q4 -2 8.5 -5l7.5 -5t5 -3z" />
    <glyph glyph-name="o" unicode="o" 
d="M1430 -395h-1434v2040h1434v-2040zM1315 365v616q0 31 -68 102q-95 98 -141 154q-44 -23 -64 -23q-18 0 -22 7q-7 7 -10 16q3 -13 -4 -23t-25 -10q-2 0 -18 4q-13 3 -19 19q-5 13 -37 10q-8 -3 -14 -14q-10 -13 -14 -15q-30 -10 -66 -10q-47 0 -111 21q-90 24 -133 38
q-59 0 -131 -69q-53 -50 -82 -103q31 -28 31 -73q0 -19 -2 -23q-41 -125 -41 -129q-6 -62 -6 -477q0 -49 76 -147q69 -90 92 -99q27 -10 45 -10q12 0 33 6t30 6q12 0 35 -10q19 -11 49 -41h332q35 0 47 18q10 19 39 29q42 0 62 2q32 0 43 8q38 24 47 95t18 86q8 14 19 14
q10 0 10 25zM1135 678l-2 -295h-37l-9 47q-12 12 -20 12q-14 0 -43 -63q-30 -64 -88 -64h-229q-13 0 -31 -12t-35 -12q-30 0 -43 16q-22 28 -23 29q-32 32 -43 63q-14 28 -14 60q0 19 6 53t6 53q0 3 -4 35q-5 19 -22 39t-17 29q0 6 19 28q18 21 20 33q2 10 2 33q0 3 -4 43
t-4 47q0 38 21 68q24 31 82 51q10 3 39 26q27 21 45 21h294q83 0 113 -70q23 -54 23 -151v-60q-2 -20 -2 -59z" />
    <glyph glyph-name="p" unicode="p" horiz-adv-x="1376" 
d="M1376 -401h-1380v2046h1380v-2046zM1319 969q0 34 -27 43q-83 27 -106 71l-21 66q-3 3 -32 6l-33 4q-5 5 -13 35q-8 32 -34 61h-582q-10 -10 -29 -30t-28 -29q-29 -32 -29 -55v-953q0 -30 35 -65q34 -37 61 -37q49 0 70 59q14 41 14 119q0 139 -30 160q-15 9 -15 37
q0 17 6 26q8 12 21 25h581q105 0 132 182q10 165 12 199q2 10 26 41q21 24 21 35zM1090 862v-39q0 -26 -3 -35q-6 -18 -16 -38q-20 20 -27 38q-6 15 -6 31q6 30 6 45q0 16 -12 31q-10 13 -28 27q-6 -18 -11 -48q-2 -12 -2 -34q4 -40 4 -43q0 -21 -18 -56h-334q-3 5 -9 15.5
t-9 15.5q-2 8 -2 62q0 26 2 40q0 21 18 48h342q12 15 29 32t28 17q30 0 39 -19q9 -18 9 -53v-37z" />
    <glyph glyph-name="q" unicode="q" horiz-adv-x="1523" 
d="M1524 -395h-1528v2040h1528v-2040zM1511 150q0 58 -69 61q-70 3 -70 59q0 16 31 58q16 22 16 34v543q-12 12 -104 152q-94 141 -115 151q-9 3 -37 0q-9 -1 -17.5 -2t-12.5 -1.5t-5 -0.5h-12q-2 1 -4.5 2t-3.5 1.5t-2 0.5q-16 20 -19 23q-24 24 -47 24h-256q-28 0 -49 -18
q-25 -25 -37 -29h-41q-30 0 -53 -10q-19 -8 -137 -141q-123 -138 -123 -172q0 -17 33 -31q6 -3 29 -16t36 -19v-483q0 -45 76 -146q72 -94 94 -102q3 -3 47 0q31 2 52 2q30 0 34 -2l58 -41q21 -6 127 -6q52 0 114 12q166 34 195 37q28 3 41 14q14 11 29 15q5 -2 33 -13
t44 -16q40 -12 62 -12q31 0 47 16t16 56zM385 600q0 31 -2 37q-4 11 -18 31q-8 -13 -15 -31q-6 -15 -6 -35q0 -18 8 -37q5 -18 15 -41q2 6 5.5 14.5t5.5 13.5t3 9q4 16 4 39zM1229 786q0 -1 -0.5 -3t-1.5 -6.5t-2 -8.5q-1 -3 -1.5 -6t-1 -5t-1 -3t-0.5 -2q-15 11 -23 22
q-5 26 -16 55l-37 -28v-238q0 -37 -58 -55q-60 -21 -86 -96q-17 -47 -65 -95q-47 -47 -100 -47q-54 0 -68 17q-8 8 -23 28q-20 4 -22 4q-22 0 -39 -26q-8 -14 -18 -14q-11 0 -13 2t-10.5 7.5t-11.5 8.5v541q0 17 49 75q46 58 84 58h342q22 0 74 -76q49 -76 49 -109z" />
    <glyph glyph-name="r" unicode="r" horiz-adv-x="1394" 
d="M1395 -401h-1399v2046h1399v-2046zM1329 150v276q-96 93 -96 125q0 20 39 82q43 68 57 80v284q-48 48 -110 148q-46 75 -91 100q-21 12 -49 12q-7 0 -35 -4q-21 -3 -30 0q-9 15 -17 27q-13 23 -41 23q-29 -18 -45 -25q-21 -12 -30 -12q-11 0 -35 18q-25 19 -55 19
q-28 0 -43 -9q-17 -10 -48 -41h-294q-24 0 -64 -67q-43 -67 -43 -88q0 -35 25 -66q24 -30 24 -45v-799q0 -33 23 -43q50 -17 92 -53q6 5 22 18t25 21q12 12 18 47q16 97 25 228q1 15 2 51.5t2 54.5h496q25 0 65 -37q39 -36 39 -67v-230q0 -28 31 -59q26 -33 53 -33
q20 0 43 23q7 7 22.5 20.5t22.5 20.5zM291 717v63q0 42 2 60q0 25 -4 61q-3 27 -19 49q-13 -30 -16 -61q-4 -46 -4 -74v-96v-70q-2 -23 -2 -57q0 -48 24 -119q21 41 21 117v57q-2 18 -2 51v19zM1081 993q-17 -96 -26 -127q-38 -127 -88 -127h-277q-14 20 -47 43l-16 9
q-10 0 -27 -17q-26 -45 -43 -72l-18 19q1 49 2 102.5t1.5 81.5t0.5 41v33q-4 28 -4 37h532q3 -13 10 -23z" />
    <glyph glyph-name="s" unicode="s" 
d="M1430 -395h-1434v2040h1434v-2040zM1020 952l-19 19h-342l-18 -29q10 -1 26 -1.5t39.5 -1t41.5 -1.5q94 -4 206 -4q15 0 33 6q5 2 16.5 6t16.5 6zM1315 315v258q-61 58 -70 134q-9 73 -74 73h-559q-40 0 -67 41q-29 43 -29 84q0 74 41 101q41 24 111 24q32 0 57 -2t51 -2
q21 0 27 2q9 4 31 21q22 16 38 16q30 0 41 -14q15 -18 39 -21q27 -6 47 -6q55 0 82 2t43 2q20 -10 23 -51q3 -43 57 -43q45 0 78 33t33 80q0 80 -62 104q-15 7 -61 10q-2 12 -12 41q-9 24 -35 53h-334q-15 24 -18 27q-21 21 -60 21q-24 0 -45 -15q-41 -29 -47 -33
q-2 -2 -14 -2h-17q-10 1 -30.5 2t-28.5 2q-27 0 -33 -2q-50 -15 -137 -139q-90 -128 -90 -164q0 -51 57 -137q67 -106 160 -205h295q27 0 53 -20q25 -22 45 -25q24 -4 31 -4h26q31 0 54 2t51 2q52 0 72 -20l36 -109q-14 -68 -20 -86q-27 -88 -61 -88l-41 6q6 29 18 68
q12 37 12 53q0 33 -30 60q-43 -80 -172 -101q-123 -20 -189 -41l-22 -22q-23 -23 -50 -23q-60 0 -84 70q-23 69 -81 69q-31 0 -48 -14q-18 -15 -18 -57v-37q0 -98 39 -131q28 -25 88 -25q27 2 55 2q5 0 29 -4q22 -7 35 -26q15 -21 39 -21h360q35 0 47 18q10 19 39 29
q59 22 101 25q-2 4 69 119q11 0 19 2q10 3 10 34zM1030 469l-10 18q-30 8 -47 9q10 -24 26 -27h31z" />
    <glyph glyph-name="t" unicode="t" horiz-adv-x="1509" 
d="M1509 -401h-1513v2046h1513v-2046zM737 760q10 -17 21 8q10 23 10 92t-8 88q-9 19 -23 2q-30 -40 -30 -94q0 -56 30 -96zM1356 1141q0 69 -47 96q-30 18 -95 18h-49h-28q-9 15 -17 23q-22 25 -49 25h-446q-45 0 -113 -39q-90 -50 -135 -95q15 -24 33 -47q43 -49 82 -49
h294q14 -27 19 -49q4 -32 4 -55q-6 -62 -6 -84q-3 -17 2 -31q20 -12 22 -14q25 -22 25 -52v-380q0 -26 -25 -54q-24 -27 -24 -116q-2 -23 -2 -48q0 -27 8 -40q6 -19 55 -19q36 0 76 29q35 27 35 57q-23 738 -23 768q0 62 23 88h268q29 0 37 -14q9 -15 18 -15q26 0 41 35
q17 39 17 62zM920 1245l-11 -28l-47 10l8 28z" />
    <glyph glyph-name="u" unicode="u" horiz-adv-x="1488" 
d="M1489 -401h-1493v2046h1493v-2046zM1327 455v667q0 33 -39 84t-71 51q-35 0 -76 -71q-18 -32 -35 -74q0 -11 27 -35q24 -27 24 -51v-655q0 -22 -8 -35q-6 -6 -13 -14t-8 -9h-38v590h-19v-104q0 -68 2 -99v-28q0 -104 -8 -185q-9 -92 -211 -163q-186 -66 -227 -66
q-67 0 -107 27q-39 26 -39 65v801q0 29 -39 68q-38 38 -53 38q-13 0 -78 -92l-61 -92q0 -18 53 -45l45 -20v-723q0 -95 129 -133q164 -46 185 -68h380q8 0 121 76q111 73 117 86q3 3 0 39q-2 23 -2 57q0 21 4 33t25 39q20 26 20 41zM651 342l-37 8l-10 -18q17 -7 39 -10z
" />
    <glyph glyph-name="v" unicode="v" horiz-adv-x="1394" 
d="M1395 -401h-1399v2046h1399v-2046zM956 854v57q-43 -24 -59 -55q-16 -37 -16 -72q0 -25 4 -41q4 -15 16 -30q8 31 8 51q0 19 2 31q0 20 45 59zM1278 1094q0 25 -33 45t-65 20q-41 0 -68 -104q-21 -76 -78 -133h-20q-8 21 -8 75h-21l-8 -67q37 0 43 -2q8 -3 8 -21
q-4 -46 -4 -65q0 -69 -102 -324q-62 -156 -99 -291h-47q-8 49 -33 84q-26 33 -26 49q0 37 47 52q45 14 51 24q-4 20 -4 37q0 22 10 49q11 26 41 56v38h-39q-35 -100 -43 -129q-9 -20 -28 -20q-49 0 -64 70q-3 20 -6 69q-6 14 -25 27q-18 12 -24 31q2 20 2 53q0 16 -2 22
q-51 82 -62 101q-24 42 -32 61q-5 28 -16.5 90.5t-16.5 95.5q-35 72 -107 72q-56 0 -73 -14q-19 -16 -19 -70q0 -38 45 -112q85 -141 148 -289q2 -2 2 -33q0 -16 -2 -43q-3 -44 0 -47q6 -25 30 -62q12 -16 33 -46.5t33 -45.5v-30q0 -34 2 -50q0 -25 6 -34l86 -123
q4 -8 4 -23q0 -37 4 -41q2 -5 47 -8q27 -2 54 -2q50 -4 59 -4q30 0 43 10l105 201q4 23 10 55.5t6 34.5q19 88 53 162q43 102 117 301q86 238 86 248z" />
    <glyph glyph-name="w" unicode="w" 
d="M1430 -395h-1434v2040h1434v-2040zM1323 1071q2 12 2 27q0 42 -18 69q-27 41 -93 41q-32 0 -73 -71q-17 -30 -35 -72v-530q-3 -2 -9.5 -6.5t-9.5 -6.5q-9 -6 -16 -6q-19 0 -22 6q-9 19 -84 31v47l75 68v237q-89 -24 -116 -24q-15 0 -21 12q-14 33 -110 33q-89 0 -111 -25
q-21 -24 -55 -24q-19 0 -49 6t-50 6q-3 0 -39 -4q-4 20 -8 61q-4 46 -4 76v37q0 77 -16 106q-24 43 -96 43q-38 0 -56 -41q-18 -34 -39 -82q18 -18 25 -34q6 -21 6 -47q0 -27 -2 -41l-4 -45q0 -26 6 -41q3 -13 21 -39q13 -18 20 -47q6 -27 6 -46q-2 -16 -2 -49l49 -86v-274
q0 -31 19 -47q8 -7 14.5 -13.5t9.5 -11.5l4 -4q-2 -10 -2 -27q0 -48 19 -88q27 -55 90 -55q62 0 92 113q29 112 66 112q23 -11 63 -34q69 -40 70 -41l10 49q-5 5 -45 39q-7 7 -19 16q-4 -4 -16 -10q-23 -13 -53 -19q-6 18 -12 39q0 10 10 27q31 52 49 211h47q8 -44 33 -80
q20 -30 24 -35v-18q-2 -6 -2 -19q0 -27 2 -37q3 -20 11 -30q70 -169 86 -207q34 -76 108 -76h35q18 4 27 19q3 3 0 32q-1 7 -2 16.5t-2 16t-1 10.5q0 35 11 92q10 52 41 115v25q-2 8 -2 33t4 65q3 26 16 49q47 71 62 164q16 94 16 166v31q0 12 -2 18q8 32 29 41q18 6 18 88z
M575 772l-20 -18q-6 10 -18 34q0 8 6 17q8 8 12 14l20 -18v-29z" />
    <glyph glyph-name="x" unicode="x" horiz-adv-x="1468" 
d="M1468 -397h-1472v2042h1472v-2042zM557 485l-20 -10zM510 438l-21 -10zM1270 1118q0 30 -35 60q-34 30 -76 30q-47 0 -76 -45q-39 -53 -61 -88h-29l-10 66h-27q-71 -99 -112 -150q-64 -83 -78 -96q33 -10 43 -10h33v-58q-9 -6 -18.5 -11.5t-13.5 -7.5t-5 -3
q-27 -14 -39 -17q-91 218 -213 357q-93 112 -127 112q-27 -31 -45 -49q-45 -51 -45 -67q0 -43 59 -99q160 -148 228 -348q-70 -21 -74 -39q-17 -68 -117 -198q11 -11 35 -31q12 -15 12 -53q0 -53 -71 -80q-72 -28 -72 -96q0 -34 35 -72q33 -39 61 -39q29 0 94 80
q63 77 88 139q49 35 91 80q36 38 51 111h47q126 -178 225 -299q88 -111 131 -111q41 0 51 10q11 11 11 54q0 34 -74 161q-58 99 -78 127q-11 11 -20 11q-37 0 -45 8q-9 54 -43 94t-101 49v37q78 33 101 63q18 26 49 74.5t41 63.5q19 18 56 54t56 54q107 113 107 172z
M946 989l-18 -47h-21v66h27q12 -3 12 -19zM696 621q-10 -26 -18 -37q-39 -45 -103 -70v66q32 36 41 51q13 44 17 53q27 -19 35 -27q28 -25 28 -36z" />
    <glyph glyph-name="y" unicode="y" horiz-adv-x="1394" 
d="M1395 -401h-1399v2046h1399v-2046zM995 1055l-28 -29v-29q28 22 28 58zM1327 1118q0 30 -35 60q-34 30 -75 30q-54 0 -113 -133q-78 -180 -115 -268q-74 -160 -145 -201h-21q-10 23 -14 49q-3 18 -43 58v65h39q9 -15 16 -35q2 -6 2 -41q41 41 70 109q26 67 55 90v57
q-71 -38 -74 -84q-3 -47 -88 -47q-44 0 -100 68q-43 51 -61 102q-2 2 -2 21v22q0 68 -17 107q-30 61 -121 61q-49 0 -69 -14q-23 -16 -23 -53q0 -14 25 -62q24 -47 63 -100q11 -15 11 -35q0 -30 8 -43q8 -14 43 -41q32 -25 43 -43q-4 -32 -4 -49q0 -13 4 -37q3 -18 18 -39
q43 -67 113 -205q59 -118 59 -127v-258q11 -7 25 -10q15 -6 37 -6t32 -2q8 8 31 18v248q0 34 111 221l205 340q110 183 110 207z" />
    <glyph glyph-name="z" unicode="z" horiz-adv-x="1468" 
d="M1468 -397h-1472v2042h1472v-2042zM1315 125q0 18 -60 53q-60 31 -71 31h-428q-22 0 -45 -23q-22 -22 -47 -22l-31 8l-10 25q24 54 57 79q6 3 65 39q-2 10 -2 31q0 12 7 29q3 16 16 35q7 11 57 55q9 8 28 24.5t28 24.5q8 8 8 18q0 13 2 23q0 16 47 63q234 227 250 246
q129 132 129 183q0 49 -29 81q-28 31 -65 31h-408q-19 60 -27 80q-9 18 -30 18q-10 0 -31 -24q-22 -25 -55 -25h-228q-27 0 -41 -20q-16 -22 -16 -47q0 -34 43 -74q41 -41 72 -41h579v-55q-20 -12 -90 -82q-44 -47 -90 -62q-4 11 -8 37q-2 12 -2 29q2 18 2 39q0 23 -17 33
q-18 6 -90 6q-20 2 -43 2q-14 0 -26 -6q-13 -6 -25 -25q44 -38 55 -57q21 -35 21 -86q6 4 22.5 13t24.5 15q23 13 41 13l45 -2v-39q-13 -17 -53 -73t-62 -85q-61 -76 -143 -137h-27v76h-28q-2 -2 -6.5 -8t-13.5 -17t-19 -23q-19 -22 -19 -36q9 -15 9 -29q29 25 34 27
q20 10 52 10v-84q-31 -33 -146 -144q-92 -89 -92 -126q0 -33 12 -48q10 -16 45 -16h314q16 -10 28 -12q88 -33 256 -33q12 0 35 -2q20 -2 58 -2q82 0 120 14q62 21 62 74zM745 770l-5 -6q-4 -5 -9 -10q-14 -11 -14 -21q10 -13 10 -28q11 18 16 49q0 8 2 16zM823 287
q-3 3 -8 9t-8 9h-41q2 -6 10 -14q5 -8 21 -8z" />
    <glyph glyph-name="nonbreakingspace" unicode="&#xa0;" horiz-adv-x="1024" 
 />
    <glyph glyph-name="periodcentered" unicode="&#xb7;" horiz-adv-x="1411" 
d="M1411 -401h-1413v2041h1413v-2041zM993 102v56h-30v63h-31v31h-31v31h-149v-31h-31v-31h-33v-149h64v-31h180v31h31v30h30z" />
    <glyph glyph-name="periodcentered" unicode="&#x2219;" horiz-adv-x="1411" 
d="M1411 -401h-1413v2041h1413v-2041zM993 102v56h-30v63h-31v31h-31v31h-149v-31h-31v-31h-33v-149h64v-31h180v31h31v30h30z" />
    <glyph glyph-name="Adieresis" unicode="&#xc4;" horiz-adv-x="1468" 
d="M1468 -397h-1472v2042h1472v-2042zM1393 1212q0 54 -50 101q-58 55 -137 55h-41q-32 0 -45 -16q-5 -6 -51 -107q-1 -2 -27 -24q-22 -22 -22 -33q9 -16 35 -55q48 -73 53 -78q17 36 55 45q35 6 109 6q55 0 84 16q37 21 37 90zM1231 1008q-21 12 -39 24l-66 4
q21 -21 39 -24q20 -4 66 -4zM725 1237q0 70 -61 104q-50 27 -117 27q-65 0 -101 -22q-32 -22 -32 -84q0 -51 55 -103q53 -53 125 -53t102 27q29 29 29 104zM662 1008q-9 5 -28 16t-28 16q-5 -1 -15.5 -2t-15.5 -2q9 -19 33 -22q21 -6 54 -6zM1393 121q0 50 -56 133
q-77 119 -88 145q-2 4 -2 29q1 10 2 30t2 29q0 29 -2 37q-6 27 -49 94q-5 7 -20.5 29.5t-24.5 36.5q-10 30 -10 70v47q0 62 -27 80q-29 16 -80 16q-49 0 -65 -25q-15 -24 -76 -24q-45 0 -98 47t-88 47q-43 0 -76 -33t-33 -47q0 -10 6 -16q6 -9 6 -19q36 19 76 19l6 -62
q0 -36 -71 -213q-69 -162 -138 -315l-73 -164q0 -23 28 -29q27 -6 58 -6q80 0 110 52q17 30 31 120h524q25 -28 37 -55t12 -70q0 -27 15 -36q15 -11 71 -11h33q32 0 47 11q13 10 13 53zM1108 362l-25 -10q-21 0 -30 15q-15 25 -21 43l12 12q8 8 21 8q3 0 20 -10q8 -6 23 -21
v-37zM1012 596q0 -61 -15 -70q-25 -16 -28 -30q-6 -15 -6 -45v-29q0 -17 2 -23q-15 -18 -62 -18h-45q-39 0 -67 4q-20 3 -46 14v21l48 6q14 2 59 2q0 26 -8 45q-5 12 -10 25t-7 18t-2 6q0 12 6 27q2 7 17 26q12 15 12 23q0 12 -20 51q-13 26 -13 33q0 31 70 31q62 0 88 -33
q27 -34 27 -84z" />
    <glyph glyph-name="Odieresis" unicode="&#xd6;" horiz-adv-x="1488" 
d="M1489 -401h-1489v2046h1489v-2046zM1343 1260q0 39 -92 98t-121 59q-39 0 -98 -90q-56 -102 -65 -121q40 -5 47 -6q74 -14 198 -88q62 34 97 70q34 34 34 78zM1319 295v407q0 72 -72 129q-106 66 -157 101q0 28 36 51q39 25 78 25q-6 8 -53 39q-24 18 -43 36h-55
q12 -21 22 -41q9 -21 4 -34q-4 -11 -45 -17q-10 0 -20 -2q-13 -10 -19 -51q-9 -45 -57 -45h-219q-30 0 -47 20q-21 18 -21 48v389q-78 47 -135 63q-3 1 -10.5 2t-11.5 2q-52 0 -111 -65q-23 -27 -47 -68q0 -10 35 -51l92 -92v-47q-28 -3 -57 -29q50 -14 63 -27
q10 -13 10 -63q0 -34 -71 -105q-72 -72 -72 -180q0 -78 24 -119q25 -42 25 -49v-227q0 -53 78 -143q88 -97 162 -97h503l134 58q1 1 4 14q2 6 2 12q-2 23 -2 51q0 11 6 29q3 17 26 33q21 15 21 43zM1128 256l-38 -10v370l-29 39q-5 -7 -10 -15l-7.5 -12t-3.5 -5
q-8 -13 -8 -35v-266q0 -16 -10 -29q-9 -15 -18 -27l32 -33q16 3 43 -6q-18 -18 -26 -28q-18 -11 -39 -11h-295q-32 0 -92 60t-60 94v313q0 28 37 68q34 37 68 37h360q20 0 37 -10q30 -30 59 -56v-438z" />
    <glyph glyph-name="Udieresis" unicode="&#xdc;" horiz-adv-x="1488" 
d="M1489 -401h-1493v2046h1493v-2046zM1356 1190q0 68 -60 125q-62 53 -147 53q-41 0 -74 -33q-35 -35 -35 -73q0 -82 82 -152q37 -28 82 -53q64 0 109 39q43 37 43 94zM1165 1036q-4 -2 -10 -2q-8 -7 -37 -26q22 3 47 28zM688 1190q0 80 -84 137q-62 41 -96 41
q-32 0 -80 -57q-51 -57 -51 -99q0 -59 86 -112q70 -43 117 -43q55 0 82 35q26 33 26 98zM1403 379v334q0 37 -37 61q-42 25 -74 25q-37 0 -73 -31q-35 -35 -35 -78q0 -34 24 -72q25 -39 25 -96q0 -82 -14 -90q-26 -20 -29 -33q-6 -15 -6 -34q0 -21 2 -39t2 -45
q0 -37 -10 -64q-9 -24 -41 -37h-76l-19 -18q-27 -27 -176 -27q-148 0 -239 55q-80 47 -80 105v465q0 30 -39 59q-44 29 -72 29q-30 0 -71 -66q-25 -44 -37 -67q0 -15 30 -74q8 -16 66 -119v-323q0 -87 135 -140q128 -51 352 -51q131 0 211 15l119 32q78 0 113 80
q24 59 24 139v35q-1 4 -2 12t-2 11q2 1 5.5 1.5t6 1t3.5 1.5q14 8 14 43z" />
    <glyph glyph-name="adieresis" unicode="&#xe4;" horiz-adv-x="1468" 
d="M1468 -397h-1472v2042h1472v-2042zM1393 1212q0 54 -50 101q-58 55 -137 55h-41q-32 0 -45 -16q-5 -6 -51 -107q-1 -2 -27 -24q-22 -22 -22 -33q9 -16 35 -55q48 -73 53 -78q17 36 55 45q35 6 109 6q55 0 84 16q37 21 37 90zM1231 1008q-21 12 -39 24l-66 4
q21 -21 39 -24q20 -4 66 -4zM725 1237q0 70 -61 104q-50 27 -117 27q-65 0 -101 -22q-32 -22 -32 -84q0 -51 55 -103q53 -53 125 -53t102 27q29 29 29 104zM662 1008q-9 5 -28 16t-28 16q-5 -1 -15.5 -2t-15.5 -2q9 -19 33 -22q21 -6 54 -6zM1393 121q0 50 -56 133
q-77 119 -88 145q-2 4 -2 29q1 10 2 30t2 29q0 29 -2 37q-6 27 -49 94q-5 7 -20.5 29.5t-24.5 36.5q-10 30 -10 70v47q0 62 -27 80q-29 16 -80 16q-49 0 -65 -25q-15 -24 -76 -24q-45 0 -98 47t-88 47q-43 0 -76 -33t-33 -47q0 -10 6 -16q6 -9 6 -19q36 19 76 19l6 -62
q0 -36 -71 -213q-69 -162 -138 -315l-73 -164q0 -23 28 -29q27 -6 58 -6q80 0 110 52q17 30 31 120h524q25 -28 37 -55t12 -70q0 -27 15 -36q15 -11 71 -11h33q32 0 47 11q13 10 13 53zM1108 362l-25 -10q-21 0 -30 15q-15 25 -21 43l12 12q8 8 21 8q3 0 20 -10q8 -6 23 -21
v-37zM1012 596q0 -61 -15 -70q-25 -16 -28 -30q-6 -15 -6 -45v-29q0 -17 2 -23q-15 -18 -62 -18h-45q-39 0 -67 4q-20 3 -46 14v21l48 6q14 2 59 2q0 26 -8 45q-5 12 -10 25t-7 18t-2 6q0 12 6 27q2 7 17 26q12 15 12 23q0 12 -20 51q-13 26 -13 33q0 31 70 31q62 0 88 -33
q27 -34 27 -84z" />
    <glyph glyph-name="odieresis" unicode="&#xf6;" horiz-adv-x="1488" 
d="M1489 -401h-1489v2046h1489v-2046zM1343 1260q0 39 -92 98t-121 59q-39 0 -98 -90q-56 -102 -65 -121q40 -5 47 -6q74 -14 198 -88q62 34 97 70q34 34 34 78zM1319 295v407q0 72 -72 129q-106 66 -157 101q0 28 36 51q39 25 78 25q-6 8 -53 39q-24 18 -43 36h-55
q12 -21 22 -41q9 -21 4 -34q-4 -11 -45 -17q-10 0 -20 -2q-13 -10 -19 -51q-9 -45 -57 -45h-219q-30 0 -47 20q-21 18 -21 48v389q-78 47 -135 63q-3 1 -10.5 2t-11.5 2q-52 0 -111 -65q-23 -27 -47 -68q0 -10 35 -51l92 -92v-47q-28 -3 -57 -29q50 -14 63 -27
q10 -13 10 -63q0 -34 -71 -105q-72 -72 -72 -180q0 -78 24 -119q25 -42 25 -49v-227q0 -53 78 -143q88 -97 162 -97h503l134 58q1 1 4 14q2 6 2 12q-2 23 -2 51q0 11 6 29q3 17 26 33q21 15 21 43zM1128 256l-38 -10v370l-29 39q-5 -7 -10 -15l-7.5 -12t-3.5 -5
q-8 -13 -8 -35v-266q0 -16 -10 -29q-9 -15 -18 -27l32 -33q16 3 43 -6q-18 -18 -26 -28q-18 -11 -39 -11h-295q-32 0 -92 60t-60 94v313q0 28 37 68q34 37 68 37h360q20 0 37 -10q30 -30 59 -56v-438z" />
    <glyph glyph-name="udieresis" unicode="&#xfc;" horiz-adv-x="1488" 
d="M1489 -401h-1493v2046h1493v-2046zM1356 1190q0 68 -60 125q-62 53 -147 53q-41 0 -74 -33q-35 -35 -35 -73q0 -82 82 -152q37 -28 82 -53q64 0 109 39q43 37 43 94zM1165 1036q-4 -2 -10 -2q-8 -7 -37 -26q22 3 47 28zM688 1190q0 80 -84 137q-62 41 -96 41
q-32 0 -80 -57q-51 -57 -51 -99q0 -59 86 -112q70 -43 117 -43q55 0 82 35q26 33 26 98zM1403 379v334q0 37 -37 61q-42 25 -74 25q-37 0 -73 -31q-35 -35 -35 -78q0 -34 24 -72q25 -39 25 -96q0 -82 -14 -90q-26 -20 -29 -33q-6 -15 -6 -34q0 -21 2 -39t2 -45
q0 -37 -10 -64q-9 -24 -41 -37h-76l-19 -18q-27 -27 -176 -27q-148 0 -239 55q-80 47 -80 105v465q0 30 -39 59q-44 29 -72 29q-30 0 -71 -66q-25 -44 -37 -67q0 -15 30 -74q8 -16 66 -119v-323q0 -87 135 -140q128 -51 352 -51q131 0 211 15l119 32q78 0 113 80
q24 59 24 139v35q-1 4 -2 12t-2 11q2 1 5.5 1.5t6 1t3.5 1.5q14 8 14 43z" />
  </font>
</defs>
</svg>
