<?xml version="1.0" standalone="no"?>
<!DOCTYPE svg PUBLIC "-//W3C//DTD SVG 1.1//EN" "http://www.w3.org/Graphics/SVG/1.1/DTD/svg11.dtd" >
<svg xmlns="http://www.w3.org/2000/svg" xmlns:xlink="http://www.w3.org/1999/xlink" version="1.1">
<metadata>
Created by FontForge 20201107 at Wed Jun  7 09:26:51 1995
 By 
Copyright (c) 1995 by Susan Townsend; v1.0; A HOT*METAL*TYPE conspiracy.
</metadata>
<defs>
<font id="EbolaKikwit" horiz-adv-x="387" >
  <font-face 
    font-family="Ebola"
    font-weight="400"
    font-stretch="normal"
    units-per-em="1000"
    panose-1="0 0 4 0 0 0 0 0 0 0"
    ascent="800"
    descent="-200"
    x-height="519"
    cap-height="683"
    bbox="-107 -331 957 800"
    underline-thickness="20"
    underline-position="-143"
    unicode-range="U+0020-F002"
  />
<missing-glyph horiz-adv-x="500" 
d="M63 800h375v-800h-375v800zM375 63v675h-250v-675h250z" />
    <glyph glyph-name=".notdef" horiz-adv-x="500" 
d="M63 800h375v-800h-375v800zM375 63v675h-250v-675h250z" />
    <glyph glyph-name=".null" horiz-adv-x="0" 
 />
    <glyph glyph-name="nonmarkingreturn" horiz-adv-x="333" 
 />
    <glyph glyph-name="space" unicode=" " horiz-adv-x="255" 
 />
    <glyph glyph-name="exclam" unicode="!" horiz-adv-x="222" 
d="M168 673l-17 3l14 -6l-8 -25l10 -28l-15 -7l14 -10l-16 -27l8 -58l-15 -2l15 -1l-2 -32l-14 1l14 -5l-6 -59l-15 -1l14 -9l-13 -25l8 -25l-15 -6l15 -5l-6 -57l-15 -2l14 -2l-4 -31l-14 2l2 -12l-22 -5l-2 13l-18 7l12 34l-19 57l14 5l-16 9l14 31l-15 57l15 4l-15 -1
l-11 63l15 5l-16 3l-2 60l15 5l-15 1l4 61l-1 -1l-9 36l16 5l-7 17l30 14l6 -17l1 16h26l32 9l3 -18l17 -4zM155 142l15 -8l-15 -33l-15 8l8 -17l-30 -17l-7 17l-8 -17l-30 17l8 16l-15 -7l-13 33l15 8l-16 7l12 34l16 -7l-8 17l30 18l9 -17l7 18l32 -18l-8 -17l16 7l13 -35
z" />
    <glyph glyph-name="quotedbl" unicode="&#x22;" 
d="M333 610l-1 -122l-18 -1l2 -16l-33 -8l-33 2l1 18l-21 1l3 87h19l-19 5l9 37l-9 35l19 6l-19 -2l-3 42l19 2l-19 3l13 78l17 -3l-4 14l25 9l4 -14l4 13l23 -11l-4 -12l16 4l16 -79l-19 -4l19 -3zM158 681h-19l19 -5l-9 -37l9 -35l-19 -6l19 2l2 -42l-18 -2l18 -3l-12 -78
l-17 3l4 -14l-25 -9l-4 14l-5 -13l-23 11l5 12l-16 -4l-17 79l19 4l-19 3l7 80l20 124l-3 16l33 8l34 -2l-1 -18l21 -1z" />
    <glyph glyph-name="numbersign" unicode="#" horiz-adv-x="688" 
d="M660 392l-29 2l-5 -27l-84 17l-18 -10l-8 -24l-14 6l16 -19l-22 -24l11 -35l-23 -9l19 -9l-16 -58v4l37 2l1 -21l5 14l25 -11l-5 -14l14 5l8 -29l-13 -5l2 -22l-103 -8l-15 -97l-21 -4l17 -14l-18 -26l1 -49l-24 -1l-11 -19l-33 24l10 19l-10 10l-25 52l24 14l-15 23
l32 24l-5 26l11 3l-12 24l-8 -20l-28 15l-27 -11l-6 19l-1 -20l-35 1v19l-7 -19l-19 9l-14 -52h1l6 -47l-21 -3l17 -15l-24 -33l-2 -33l-20 1l5 -29l-52 -11l-5 29l-26 4l6 57l26 -3l-14 25l13 45l23 13l-17 14l29 52l-12 4l-28 -21l-13 20l3 -27l-49 -4l-2 27l-32 -1l-1 71
l32 1l5 30l54 -11l-5 -30l12 23l27 -18l22 21l19 15l-11 35l23 9l-19 8l28 82l-7 25l-14 -21l-27 23l-23 -13l-10 21l-15 5l9 34l15 -5l-4 18l33 10l4 -19v23h41v-1l33 20l-15 11l22 62l17 -2l-15 10l14 26l-5 35l18 3l-8 18l31 18l33 12l6 -17l16 -3l-5 -36l-17 3l16 -8
l-10 -28l5 -37l-18 -3l12 -21l-36 -27l-3 -15l12 -19h9l-1 6l35 8l3 -19l2 19l68 -3l1 -19l10 22l10 -6l8 46l17 -2l-15 11l50 100l5 -2l-1 17h11l-10 20l37 23l27 -37l-33 -40v-9l2 1l21 -45l-21 -11l16 -8l-14 -35l-16 8l15 -13l-23 -38l17 -2l31 6l-1 5l48 11l5 -26
l28 -2zM467 406l-19 11l-18 -36l-3 18l-4 -19l-33 9l4 1l-2 19l-4 -19l2 -1l-64 -11l-4 19l-4 -21l-12 3v27l-22 1l-4 -21l26 -7l-1 -22h-22l19 -5l-9 -43l-20 5l18 -12l-20 -37l1 7l-20 2l17 -12l2 3l-10 -60l-23 2l-1 -19l19 -6l5 23l8 -1l2 -19l2 19l31 5l2 -19l2 19
l66 -8l2 -20l2 19l-4 1l21 3l-3 -12l20 -7l-2 20l-15 -1l14 74l20 -3l-18 8l12 35l21 -1l-19 8l-2 -5l2 43l21 -1l-20 12l4 7v-4l40 7z" />
    <glyph glyph-name="dollar" unicode="$" horiz-adv-x="595" 
d="M509 483l-6 -28l-51 13l3 19l-16 3l1 10l-15 -11l-20 34l16 11l-23 1l1 34l-22 8l-33 18l-15 -29l29 -26l-18 -26l18 -18l-35 -39l4 -61l7 -31l8 6l19 -32l33 13l9 -30l19 10l15 -36l25 -9l-6 -20l23 1l2 -36l31 -23l-13 -22l23 -2l-3 -50l-23 1l20 -8l-10 -33l8 -54
l-25 -3l19 -15l-27 -42l-18 15l3 -24l-65 -9l-27 -39l-18 15l-6 -33l-20 1l1 -36h-16l8 -26l-46 -19l-8 26l-24 -3l-5 54l24 2l-17 13l11 19l-53 -15l-8 20l-5 -19l-63 10v20l-6 -25l-44 13l6 24h-20v44h2l-18 72l18 8l-13 18l32 29l6 -5l23 16l7 -12l5 8l15 -11l-4 -8
l16 -4l-4 -24l20 -16l-10 -16l19 -1l-1 -24l28 -10l-6 -23l11 18l36 -21l19 -15l18 34l-1 19h-1l-25 42l19 14l-19 15l15 22l-23 27l19 20l-18 14l24 43l-20 -4l-4 27l-19 -4l-7 33l-23 9l-37 12l5 21l-16 -12l-22 40l-8 18l-2 -2l-51 22l9 29l-24 -1l-2 53l24 1l-14 20
l30 26l-5 18l17 5l-17 5l8 37l17 -4l-15 10l18 34l16 -11l-4 25l40 7l24 24l14 -17l-4 22l39 8l4 -22l4 34l13 -3l5 6l-19 5l10 43l19 -5l7 18l33 -13l-6 -19l13 -7l-4 -9l28 -20l-12 -21l8 11l15 -13l1 6l40 -6l-3 -23l10 21l21 -9l59 15l7 -34l24 -8l-15 -55l-3 1l2 -28
l33 -56zM271 400l3 3l-6 6v11l1 -4l20 4l-21 1l-6 39l20 4l-20 2l8 127l2 -5l18 6l-19 1l-1 -2l-3 14l19 7l-7 21l-18 -6l6 -22l-13 -5l-12 18l7 -20l5 2l1 -1l-31 -24l-17 15l13 -19l-19 -28l1 4l-21 6l17 -15l3 5l-9 -39l-4 11l-17 -8l21 -6v3l26 -54l-3 2l-10 -17l15 10
l-2 5l27 -20l-10 -17l12 15l21 -21l-6 -21l5 7l-2 -19l21 -2l6 14zM386 43l17 -6l-13 13zM366 20l13 -13l-4 20l-5 -2zM335 15l-32 -22l10 -18l20 -3l5 38zM330 110l-20 -3l19 -3zM386 165l8 17l-17 -6l2 -8zM379 168l-25 14l8 18l-10 -15l-16 14l-12 -3l20 -5l-14 -83
l8 -86l-19 -2l20 -3l-1 -7l7 -13l-5 20l30 8l18 22l9 30zM397 80v-8l17 2z" />
    <glyph glyph-name="percent" unicode="%" horiz-adv-x="840" 
d="M789 110l-20 -78l-17 6l14 -12l-21 -29l-18 -44l-18 12l4 -24l-43 -8l-35 -14l-7 21l-2 -23l-42 5l2 23l-13 -19l-67 55l12 19l-16 -13l-22 35l16 13l-19 -7l-11 41l18 6l-19 4l5 35l-16 34l18 10l-18 12l16 30l-11 36l20 8l-15 16l29 33l1 -1l12 30l17 -8l-13 17l65 57
l12 -19v23h37v1l43 8l4 -24l14 18l63 -62l-13 -18l16 11l40 -71l-16 -12l19 -2l9 -76l-18 -7l18 -7zM695 164l-2 -9l-14 42l21 8l-20 -3l-13 89l3 -6l17 12l-21 -5l-13 23l9 -2l3 21l-16 -12l4 -7l-25 5l3 1l-3 21l-3 -21l3 -1l-25 -5l4 8l-17 11l3 -21l10 2l-13 -24l-20 6
l17 -12l3 6l-9 -42l-21 2l20 -5l1 1l-3 -44l-21 2l21 -7l-12 -42l-21 2l20 -6l-3 -38l-2 5l-21 -9l22 -3l1 7l23 -88l-2 4l-18 -12l21 5l14 -25l-6 3l-8 -23l19 12l-5 8l27 -11l-8 -4l9 -22l7 23l-8 3l26 12l-4 -11l19 -8l-8 22l-7 -3l26 70l21 -4l-20 9l5 41l21 -3l-21 5
l8 38l2 -5l21 8zM662 618l-5 7l-15 -30l-17 11l13 -16l-16 -15l5 -49l-25 -3l11 -18l-48 -50l-15 10l13 -14l-26 -29l-13 14l9 -20l-32 -20l-11 -21l2 -1l-7 -45l-20 4l16 -10l-17 -36l-17 9l11 -17l-64 -47l-10 -19l1 -49h-22l12 -16l-59 -90l-18 8l10 -19l-33 -23l-20 -17
l-5 -39l-20 3l10 -16l-28 -21l-10 15l-1 -13l-20 1l3 -10l-44 -14l-6 24l-18 19l33 40l18 -19l-10 18l27 20l9 34l19 -7l-10 21l21 11l-3 40l24 3l-13 14l51 60l13 -15l-11 17l24 20l6 37l20 -4l-7 23l35 14l8 26l18 -6l-14 13l17 23l6 44l20 -3l-10 18l60 42l6 34l20 -4
l-15 12l22 32l15 -12l-11 18l27 21l11 32l18 -7l-16 11l21 36l20 27h-1l15 40l18 -8l-4 37l68 11l5 -38l18 -23zM357 451l19 -9l-15 -36l5 -36l-20 -3l16 -11l-62 -110l-18 13l8 -21l-77 -40l-10 22l-14 -21l-33 28l-37 2l1 25l-21 -9l-15 43l-26 20l12 18l-19 -5l-19 82
l18 6l-19 7l9 32l-14 37l19 9l-18 11l20 38l12 37l18 -7l-14 14l24 28l22 39l17 -14l-12 20l36 26l11 -20l-1 24l87 1l-1 -23l10 21l38 -23l-10 -22l18 12l19 -42l20 -32l-15 -12l18 4l25 -71l-17 -11l18 4l6 -42zM272 461l-3 -8l-22 82l20 8l-21 -3l-5 41l8 -8l12 16
l-20 -3v-5l-19 19l-20 17l6 2l-5 22l-11 -17l10 -7l-26 -8l5 8l-17 12l5 -22l7 2l-13 -23v4l-22 1l18 -13l4 8l-1 -45l-22 1l20 -12l-19 -37l-2 10l-21 -4l19 -13l4 7l8 -130l-21 -7h22l9 -36l-5 6l-14 -16l20 7l-1 3l21 -22l-12 -19l14 16l-2 3l25 -18l-10 -5l8 -23l12 20
l-10 8l26 12l-5 -10l18 -11l-8 23l-5 -2l12 25l21 -5l-18 11l-3 -6l11 89l21 -1l-21 9l15 39l2 -9l22 7z" />
    <glyph glyph-name="ampersand" unicode="&#x26;" horiz-adv-x="812" 
d="M746 305l-18 3l-5 -17l-50 8l-46 -36l-6 -34l-18 4l15 -11l-37 -64l-15 -39l-17 8l14 -18l-15 -14l40 -18l-4 -20l11 13l24 -24l-11 -13l14 11l16 -25l23 1v-19l1 20l28 -2l40 19l7 -23l14 -5l-9 -31l-14 5l4 -18l-57 -24l-8 15l3 -17l-25 -5l1 -1l-31 -22l-10 17l1 -26
l-46 -4l-1 26l-16 -19l-63 65l14 17l-20 -13l-9 17l-7 -8l-14 15l8 -17l-30 -18l-8 16l3 -19l-53 -16l-25 -42l-18 15l-7 -20l-102 43l1 -4l-50 -9l-4 27l-14 -19l-34 30l13 19l-17 -13l-50 75l17 15l-21 -4l-8 46l21 4l-20 16l26 40l-8 21l18 8l-16 9l24 68l17 -5l-12 14
l15 17l3 47l22 -2l-3 24l30 3l9 30l20 -7l-5 19l52 21l-28 59l18 14l-21 -4l-7 47l21 3l-17 15l18 24l-12 41l23 8l-3 28l49 7l1 -6l50 41l10 -17l-4 21l74 14l3 -19l9 16l62 -18l-1 -22l17 21l39 -40l-18 -21l27 2l3 -59l-27 -2l17 -17l-33 -37l-8 -30l-18 6l19 -12
l-21 -43l-19 12l3 -24l-43 -8l-1 2l-54 -27l2 -28l6 -28l57 -50l-12 -17l16 8l15 -36l-17 -8l23 -3l23 -37l-7 -25l20 3l4 -37l5 16l15 -5l-10 22l36 20l8 19l-16 65l-33 25l9 15l8 54l11 -3l-5 20l38 13l76 10l3 -21l9 21l32 -17l28 12l7 -21l4 23l41 -8l-3 -22l16 -15z
M428 567l-6 -7l-4 31l18 3l-15 3l4 27l4 -5l12 8l-15 3l-1 -6l-6 12l6 19l-12 -8l6 -11l-3 -7l-47 21l3 9h7l-1 17l-6 -17l-15 -1l4 9l-13 7l1 -16h8l-29 -78l-17 -1l16 -5l1 6h2l2 -39l-2 3l-17 -8l19 1v4l13 -36l-18 -8l19 3l-15 -33l4 -12l18 4l-3 17l9 5l10 -16l-7 17
l-3 -1l26 21l-2 -3l15 -11l-10 16l-3 -2l17 30l15 -10l-14 13l19 25l1 -10l19 3zM353 1l11 -16l-2 20l-5 -1zM327 1l1 -20l6 18zM260 13l1 -20l13 13l-5 7h-9zM211 57l-7 -19l19 6l-3 8zM170 194l-18 -6l18 -9l2 6zM188 268l-19 1l17 -10l2 4v5zM222 330l-16 11l12 -16z
M272 367l-7 17l-14 -9l8 -15zM267 345l14 9l-17 -4zM302 268l14 15l-18 -5zM352 165l15 12l-17 -9zM399 96l12 16l-16 -10l2 -5zM415 61l14 16l-16 -10l-16 30l-27 26l12 16l-17 -8l-15 37l-39 65l15 11l-18 -6l-8 33l-25 27l13 15l-18 -4l-7 41h1l-5 10l-39 -33l-32 -64
l-1 -36h-19l18 -9l-14 -33l48 -133l25 -11l-7 -18l13 13l18 -23l27 1l1 -20l5 18l27 -11l28 3l25 20l10 -16l-6 18l29 13l9 -17l-6 18l-4 1l12 8zM448 64l-22 -15l18 -20l14 16z" />
    <glyph glyph-name="quotesingle" unicode="'" 
d="M239 681h-19l19 -5l-9 -37l9 -35l-19 -6l19 2l2 -42l-18 -2l18 -3l-13 -78l-16 3l4 -14l-25 -9l-4 14l-5 -13l-23 11l5 12l-16 -4l-17 79l19 4l-19 3l7 81l1 122l19 1l-3 16l33 8l34 -2l-1 -18l21 -1z" />
    <glyph glyph-name="parenleft" unicode="(" horiz-adv-x="374" 
d="M304 720l7 -30l-22 -6v-31h-49l-1 -3l9 -47l-22 -5l15 -10l-28 -56l15 -36l-19 -11l14 -20l-25 -23l8 -22l-18 -9l17 3l5 -39l-17 -3l17 -15l-16 -21l18 -24l-17 -16l17 -16l-21 -28l31 -59l-16 -11l17 2l3 -38l-16 -2l20 -17l-16 -23l17 -13l-14 -21l18 -1l-1 -30
l21 -23l-13 -15l24 -11l-19 -50l35 -29l-9 -20l14 6l7 -24l6 6l31 -37l-32 -42l-43 38l-33 8l4 24l-22 -4l-6 43l-23 16l10 19l-21 -1l-1 25l-38 14l9 27l-22 4l4 73l-26 31l15 15l-20 5l4 25l-32 27l16 23l-21 24l20 22l-16 14l17 24l-18 17l38 58l-14 41l20 8l-17 9
l50 152l18 -6l-11 22l37 21l20 68l18 -7l-8 20l23 11l8 44l23 -5l-9 30l55 21l26 -52z" />
    <glyph glyph-name="parenright" unicode=")" horiz-adv-x="371" 
d="M299 213l19 -6l-11 -42l-19 7l13 -28l-19 -11l17 -27l-25 -20l14 -19l-27 -25v-33h-21l10 -25l-36 -18l-4 -29l-21 3l11 -20l-25 -18l-9 -41l-21 6l1 -27l-34 -2l-4 -24l-38 9l16 68l14 -3l-7 23l35 15l10 27l23 54l-29 48l23 17l-16 7l22 73l17 -6l-16 13l24 36l8 23
l-15 33l-24 124l18 3l-20 23l15 16l-17 12l15 26l-17 -4l-15 74l16 4l-17 1l1 39h17l-22 11l8 22l-23 9l9 27l-25 7l13 53l-39 20l5 21l-13 3l5 29l32 2l3 -17l36 2l1 -29h26v-24l36 -2l-2 -34l22 2l3 -50h-1l14 -28l-17 -11l20 2l2 -29l32 -23l-12 -22l20 -2l-3 -38l18 -31
l-16 -12l18 9l16 -41l-18 -9l19 -6l-11 -45l-1 1l2 -34l-18 -1l18 -13l-12 -22l24 -35z" />
    <glyph glyph-name="asterisk" unicode="*" horiz-adv-x="255" 
d="M198 615l-24 10l11 -25l-47 -24l-10 26l-11 -26l-46 24l11 26l-24 -9l-15 52l23 8l-23 8l14 53l24 -8l-10 26l47 23l10 -26l11 25l46 -24l-11 -25l23 10l18 -51l-23 -11l24 -10zM152 679l9 4l-7 19l-9 -4l4 10l-17 9l-4 -9l-4 9l-18 -8l4 -10l-9 3l-5 -20l8 -3l-8 -3
l5 -20l9 3l-4 -9l18 -9l4 9l4 -9l17 8l-4 10l9 -4l7 20z" />
    <glyph glyph-name="plus" unicode="+" 
d="M334 286h-17v-22l-76 3v-9l-18 -2l18 -3l-13 -78l-16 3l4 -14l-25 -9l-4 14l-5 -13l-23 11l5 12l-16 -4l-17 79l19 4l-19 3l1 3h-4l-2 20l-2 -20l-71 14l3 19l-13 -5l-8 28l13 4l-12 6l10 25l11 -5l-4 18l71 18l3 -21l3 21l10 -2l-1 80l19 1l-3 16l30 6l3 -17v19l34 -2
l-1 -18l21 -1l-3 -87l74 -4l1 -20l15 2l5 -33l-15 -2l17 -1z" />
    <glyph glyph-name="comma" unicode="," horiz-adv-x="272" 
d="M218 75h1l5 -39l-18 -3l16 -10l-47 -104l-16 9l11 -16l-27 -25l-12 15l7 -18l-33 -16l-19 -21l-11 13l-13 1v29l13 -1l-13 15l49 57l4 41l-52 46l4 23l-21 8l14 47l21 -8l-10 17l31 22l9 -17l-4 18l32 11l5 -18l8 26l47 -18l-8 -25l12 10l19 -27l-12 -11l15 -5z" />
    <glyph glyph-name="hyphen" unicode="-" 
d="M336 324l11 -6l-9 -25l-12 5l4 -18l-71 -18l-3 21l-76 -13l-110 1l-1 20l-14 -2l-6 73h17l1 22l78 -3v-21l5 21l32 -10l32 10l6 -21l-2 21l38 3l1 -20l3 20l70 -14l-3 -19l13 5l8 -28z" />
    <glyph glyph-name="hyphen" unicode="&#x2010;" 
d="M336 324l11 -6l-9 -25l-12 5l4 -18l-71 -18l-3 21l-76 -13l-110 1l-1 20l-14 -2l-6 73h17l1 22l78 -3v-21l5 21l32 -10l32 10l6 -21l-2 21l38 3l1 -20l3 20l70 -14l-3 -19l13 5l8 -28z" />
    <glyph glyph-name="period" unicode="." horiz-adv-x="255" 
d="M198 15l-24 10l11 -25l-47 -24l-10 26l-11 -26l-46 24l11 26l-24 -9l-15 52l23 8l-23 8l14 53l24 -8l-10 26l47 23l10 -26l11 25l46 -24l-11 -25l23 10l18 -51l-23 -11l24 -10z" />
    <glyph glyph-name="slash" unicode="/" horiz-adv-x="536" 
d="M496 670l-17 -25l-5 -40l-19 3l13 -15l-35 -60l-17 6l10 -21l-35 -20l-8 -26l-17 6l13 -14l-42 -96l-20 2l14 -14l-15 -20l4 -44l-23 -3l14 -15l-27 -30l-13 15l9 -23l-38 -18l-19 -52l4 -49l-22 -3l9 -23l-28 -13l2 -31l-22 -1l18 -6l-10 -40l-18 6l10 -22l-24 -13
l-6 -49l-26 4l-15 -29l-52 33l15 29l-14 -5l-8 31l14 5l-9 23l25 13l-4 32l23 3l-13 16l28 28l12 -15l-10 20l36 23l18 57h-1l3 45l20 -1l-7 25l18 39l24 6l-15 11l19 34l15 -10l-6 27l29 9l-4 26l23 4l-15 11l20 34l15 -11l-9 23l39 20l-7 62l24 5l-13 17l51 46l-4 38l23 3
l-18 8l13 38l18 -7l-4 23l84 26l8 -26l14 -9z" />
    <glyph glyph-name="zero" unicode="0" horiz-adv-x="637" 
d="M595 246h-1l3 -33l-18 -2l19 -2l-4 -43l-19 2l17 -12l-13 -24l18 -37l-21 -13l18 -11l-44 -111l-19 3l10 -20l-27 -17l-3 -35l-21 3l13 -15l-27 -28l-13 15l10 -18l-64 -44l-10 18l1 -21h-38l-33 -6l-3 20l-8 -19l-35 20l-64 22l6 18l-14 -13l-12 16h-46v27l-16 -11
l-20 34l15 12l-25 5l8 48l-17 15l13 17l-18 -4l-31 68l17 14l-20 3l1 74l-16 41l19 9l-20 5l-1 76l20 6l-16 25l10 45l23 16l-15 18l40 62l18 -7l-9 21l27 15l2 35l21 -2l-1 24l20 2l5 41l27 -4l-3 22l39 6l3 -21l9 22l38 -23h20l35 15l6 -20l3 19l31 -3l41 2v-23l9 19
l34 -20l-9 -19l24 3l5 -42l22 -10l-8 -20l17 11l39 -79l14 -41l-19 -7l22 -11l-11 -26l28 -24l-16 -23l20 -6zM479 301l-2 -6l-7 23l16 11l-17 -7l1 -4l-20 37l17 10l-18 2l1 69l5 -5l14 16l-19 -1v-10l-23 25l14 15l-17 -9l-16 36l16 11l-17 -9v-3l-18 31l2 -1l12 20
l-17 -12l3 -7l-19 14l11 8l-14 23l-11 -20l14 -11l-31 -22l-13 23l-11 -23l-23 14l11 19l-18 13l-10 -22l17 -10l-13 -21l-18 14l8 -21l-32 -14l3 4l-15 14l7 -20l5 2l-20 -23v9h-19l15 -15l4 6v-34h-19l17 -4l-5 -110l-18 -1l16 -14l-22 -32l-1 13l-18 -3l16 -14l3 4l4 -26
l-17 -4l17 -6l-9 -29l-2 6l-18 -9l18 -6l2 9l14 -33l-17 -9l17 3l6 -38l-17 -3l19 -11l-17 -35l-5 12l-17 -7l19 -11l3 6l9 -26l-17 -7l18 -3l-3 -22l-8 6l-13 -22l19 -3l2 19l31 -22l-12 -22l21 -8l-8 -25l-18 9l-9 -23l21 -8l6 22l24 -12l-10 -23l16 10l16 -31l-13 -14
l15 10v6l23 -28l-9 1l-1 -22l15 16l-5 5l29 -2l-4 -1l5 -21l1 22l65 18l-5 -10l19 -11l-4 23l-10 -2l15 31l19 -11l-14 17l19 19l4 -14l22 8l-14 17l-12 -11l-10 35l22 7l-13 18l27 27v-13l18 -1l-14 17l-4 -3l1 17l19 9l-18 1l-1 -10l-15 41l18 9l-16 19l29 30l3 -18l18 4
l-16 19l-5 -5l-13 102l18 2l-18 10l16 35l3 -11l18 6z" />
    <glyph glyph-name="one" unicode="1" horiz-adv-x="472" 
d="M414 -55l5 -21l-38 -11l-5 20l1 -21l-113 -6l-2 21l-2 -21l-73 2l-1 21l-8 -21l-53 25l-47 -31l-14 26l-21 5l8 46l21 -5l5 22l39 -12l24 2l31 17l8 43l-10 72l18 7l-18 8l12 33l-10 31l18 7h-18l-1 40h18l-18 3l6 40l18 -4l-18 17l2 47l18 16l-18 9l14 34l-7 30l18 6
l-18 -2l-4 39l18 3l-18 8l14 36l-21 51l-7 -20l-55 18l-29 -25l-12 18l-17 2l3 36l16 -2l-3 22l28 4l24 33l17 -15l6 25l33 -10l21 24l31 27l12 -17l-5 29l51 11l5 -28l26 -16l-29 -58l1 -20l-19 -4l19 -3l3 -114l-18 -5l18 -7l-7 -24l25 -33l-18 -17l18 -6l-18 -110h1
l16 -83l-18 -3l18 -12l-16 -30l13 -28l-18 -11l18 7l12 -40l-18 -7l18 -1l-1 -39h-18l16 -11l-14 -25l7 -11l58 18l9 -20l1 19l35 -3l-2 -19l16 1l-1 -48z" />
    <glyph glyph-name="two" unicode="2" horiz-adv-x="524" 
d="M469 -16l6 -27l-16 -5l3 -17l-28 -12l-38 -10l-5 21l-5 -21l-105 2l-4 21l-12 -21l-23 17l-25 -23l-15 21l-12 -21l-38 27v1l-56 -15l-7 21l-7 -15l-26 15l6 14l-10 -12l-23 23l11 12l-10 25l45 20l28 62l18 -9l-9 21l29 16l9 34l20 -6l-9 21l38 20l1 -1l57 94l16 -11
l-13 16l23 24l6 79l20 -2l-16 9l26 68l16 -6l-13 21l30 22l-25 57l19 12l-22 -4l-4 28l-31 2l2 27l-14 -22l-35 26l-40 -30l-12 15l-2 -21l-26 3l-14 -23l-16 11l4 -19l-36 -4l-15 -13l-7 11l-13 -3l-4 24l-4 -2l-16 35l16 9l-1 29l42 1l9 24l19 -9l-12 15l28 28l12 -15
l5 22l39 -11l25 7l5 -18l4 19l25 -7l36 13l6 -21v22l39 -1l-1 -21l18 14l18 -29l33 2l1 -25l19 14l25 -44l-20 -13l22 3l11 -93l-20 -3l16 -5l-16 -73l-17 4l13 -13l-12 -15l8 -48l-24 -5l8 -22l-37 -16l-100 -163l-13 13l3 -26l-36 -6l-6 -25l-20 6l9 -20l-20 -11v-19h12
v-21l13 21l29 -23l23 12l8 -21l12 21l32 -23l24 7l5 -20l7 20l89 -2l8 -17l18 -6z" />
    <glyph glyph-name="three" unicode="3" horiz-adv-x="547" 
d="M482 56l12 -18l-20 -17l9 -34l-22 -7l8 -21l-38 -17l-70 -70l-12 14v-20h-28l-25 -25l-13 16l2 -19l-29 -3v-2l-37 -17l-8 20l-12 -18l-49 39l-42 -6l-3 23l-20 -9l-12 34l-36 25l12 22l-17 15l27 39l18 -15l-14 19l34 31l14 -19l23 13l24 -51l-4 -2l24 -20l-12 -17
l19 12l15 -31l31 -1l-1 -24l9 21l20 -11l22 28l18 -17l2 21l32 -4l19 14l-1 1l35 108l-17 64l15 10l-18 -4l-5 33l-77 23l-3 21l-7 -17l-29 16l-24 10l-26 -15l-8 18l-7 -22l-38 15l7 22l-22 8l16 47l21 -8l-15 12l22 35l16 -13l1 12l15 -2l-3 8l73 33l8 -19l-4 23l38 8
l35 16l10 53l-32 39l-43 90l-22 -16l-11 19l5 -20l-113 -30l-1 7l-17 -13l-7 12l-18 -7l-13 40l18 7l-12 16l29 27l12 -16l-7 19l31 13l-1 1l33 24l11 -18l14 23l43 3l18 -18l2 19l36 -5l-3 -20l17 15l24 -32l20 1l1 -19l7 16l30 -17l2 5l38 -22l-10 -21l23 -4l-7 -50
l12 -25l-18 -9l15 -13l-21 -31l-1 -27h-17l13 -12l-22 -27l-12 12l9 -15l-26 -22l-10 15l8 -16l-57 -30l3 -4l35 10l6 -25l10 20l72 -49l-11 -19l16 10l17 -36l-16 -10h19v-42l13 -24l-15 -9l17 -12l-13 -24l16 -28z" />
    <glyph glyph-name="four" unicode="4" horiz-adv-x="617" 
d="M565 71l-14 -25l-34 24l-22 -17l-13 20l-5 -22l-11 3l1 -13l-21 -2l19 -7l-9 -77v-37h1l12 -45l-21 -6l-1 -23l-36 2l-51 -20l-6 29l-26 11l19 58l5 -2l-16 111l19 5l-16 4l1 11l-5 -2l-4 17l-15 -20l-30 28l-21 -6l-5 20l-1 -20l-141 4l-1 20l-4 -20l-30 8l-25 -14
l-7 17l-16 5l16 60h-6l1 45l20 -1l-18 9l16 40l18 -9l-10 19l75 80l15 -12l-7 22l32 13l10 31l19 -8l-10 19l50 50l15 -12l-11 18l23 16l7 41l22 -5l-10 20l51 47l15 -13l-13 15l26 29l13 -15l-8 17l30 19l7 -9l13 4l2 -7l16 3l6 -37l-17 -2l19 -5l-7 -35l11 -38l-19 -7
l19 3l4 -42l-19 -3l19 -7l-18 -70l18 -38l-19 -11l19 3l9 -85l-19 -2l18 -9l-15 -40l16 3l4 -14l12 20l33 -23l28 5l3 -22l19 -7l-9 -28l17 -43zM112 182l8 -11l-4 -2l-25 8l-4 -18l10 -14l18 16l5 -13l5 19l-5 4l7 3zM350 508l-2 -36h3l4 -4l-9 -3l5 -18l-13 -15l-13 13
l9 -19l-34 -19l4 4l-12 14l8 -18l-20 -22l-13 13l12 -14l-18 -25l-17 9l13 -13l4 4l-15 -38l-17 9l10 -17l-30 -23l3 4l-13 13l10 -17l-17 -19l-18 7l13 -13l5 6l-14 -40l-17 8l9 -18l-29 -18l3 6l-16 9l9 -18l4 3l-12 -28l20 8l6 -20l1 20l35 -1v-20l5 20l34 -10l-5 -1
l1 -19l5 19l-1 1l64 10l4 -20l-1 19l55 -2l-3 -16l17 -4l1 19l-15 1l2 14l18 4l-17 3l-1 -6l-12 77l18 4l-18 1l2 39l17 -1l-17 7l10 34l2 -7l18 5l-18 7l-2 -5l-7 32l18 5l-18 6l8 33l1 -5l18 6l-18 5l-1 -6l-4 16l11 14l-7 7l2 1l7 -5l17 33z" />
    <glyph glyph-name="five" unicode="5" horiz-adv-x="535" 
d="M452 -198l6 -12l-22 -21l-134 -73l-11 21l-14 -20l-44 39l-48 -18l-8 25l-25 -8l-38 28l-3 28l-18 -7l-11 38l-23 20l11 16l-15 -12l-22 34l15 12l-21 12l21 46l-19 59l18 7l-17 5l9 40l18 -6l-12 18l32 27l29 63l16 -10l-4 24l67 32l35 24l10 -19l-4 22l31 8l36 32
l15 -21l9 24l15 -7l-2 8l13 4l-18 7l10 32l-16 25l15 12l-19 6l6 23l-6 3l-28 -21l-12 19l-1 -19l-35 2l1 19l-9 -19l-26 16l-26 -14l-8 20l-10 -20l-33 21l-25 -3l-2 19v-12h-22v13l-13 -9l-15 29l13 8l-24 -3l-6 52l24 3l12 26l35 -20l24 18l13 -21l13 22l28 -21l26 15
l10 -22l13 22l36 -27l25 4l3 -21l3 21l22 -3l44 30l14 -24l22 -8l-14 -49l-3 1l23 -58l-16 -11l17 6l11 -38l-17 -6l19 -7l-8 -29l21 -26l-16 -15l19 -5l-8 -37l10 -34l-18 -6l-1 -9l-9 1l5 -8l-33 -24l-11 19l-13 -22l-37 29l-67 -49l-15 14l4 -21l-25 -6l-9 -30l-18 7
l11 -12l-22 -27l-12 12l12 -17l-21 -17l6 -28l-19 -5l16 -7l-12 -36l5 -2l-8 -24l30 -21l-14 -24l15 10l18 -34l-15 -10l19 6l9 -34l18 -7l31 10l5 -20l11 21l36 7l17 -14l-2 24l27 1l6 28l20 -5l-15 16l29 34l15 -16l16 16l29 -34l-15 -17l20 8l14 -43z" />
    <glyph glyph-name="six" unicode="6" horiz-adv-x="603" 
d="M558 150l-19 1l17 -10l-18 -38l-17 10l12 -19l-35 -26l-14 -63l-19 5l8 -19l-54 -42l-13 14l2 -20l-37 -5l-2 20l-4 -20l-17 5l-27 -38l-19 18l-4 -23l-85 13l2 24l-10 -21l-39 22l10 22l-15 -17l-31 34l15 17l-23 -6l-8 39l-28 11l8 23l-23 7l11 42l-15 16l13 14l-19 5
l8 41h1l-25 56l16 12l-17 -5l-8 38l17 4l-19 11l22 40l4 70l18 1l-17 8l14 72h19l-17 8l15 38l17 -8l-15 13l31 69l19 -7l-4 27l48 7l44 53l16 -15l-8 21l77 30l6 -21l4 23l33 -9l31 18l10 -21l8 25l44 -17l-7 -25l16 6l9 -36l-15 -5l-5 -25l-39 10l-28 -16l-10 20l-2 -22
l-62 -3l-18 -34l-18 12l9 -17l-32 -22l-54 -107l-17 3l16 -14l-44 -88l23 -34l2 24l21 -2l-15 12l21 33l15 -12l-3 26l76 26l11 -21l-3 24l84 7l1 -22l18 16l28 -40l-4 -3l50 -38l-8 -17l14 14l60 -56l-14 -19l22 -10l-13 -35l20 -27l-18 -17l19 -1zM430 135l-1 -4l-4 99
l15 6h-16v-3l-9 28l14 9l-15 -6l-38 56l5 -3l9 21l-17 -13l3 -5l-29 15h6v22l-8 -21l2 -1l-63 -3l4 5l-14 16l2 -22l8 1l-25 -27l-14 16l9 -17l-27 -19l-14 16l10 -18h6l-25 -26v10l-23 -1l16 -17l7 8l1 -40l-22 -1l20 -11l-20 -46l-3 15l-18 -4l21 -11l3 -19l-16 -8l17 4
l30 -61l-14 -9l17 5l6 -24l-4 2l-10 -20l17 5l-3 13l98 -57l-10 -4l5 -20l11 20l-6 4l26 8l-4 -3l11 -17l-6 20l25 20l-3 -4l14 -12l-11 16l18 26l14 -11l-11 14l20 19v-9h17l-11 15l-6 -6v29h17l-15 6l10 30v-4l16 2z" />
    <glyph glyph-name="seven" unicode="7" horiz-adv-x="617" 
d="M567 153l-19 1l7 -17l-30 -14l-7 16l-5 -19l-66 13v20l-2 -20l-72 4l-4 -67l-21 -2l13 -23l-30 -21l4 -26l-20 -4l19 -1l-1 -42l-19 1l14 -19l-34 -32l-14 -50l20 -45l-20 -11l8 -13l-22 -17l5 -11l-42 -30l-13 23l-5 -25l-45 11l5 25l-17 7l8 27l-9 46l21 5l-12 24
l43 28l14 61l19 -5l-16 12l32 60h-1l-1 46l21 1l-16 11l23 44l-17 10l-27 -6l-3 20l-2 -20l-36 4l-31 -3l-1 19l-25 -3l-4 54l24 3l4 22l40 -8l-1 -3l64 3l5 -20v20l42 1l6 14l17 -9l-14 13l27 67l19 -4l-7 27l30 10l-4 28l24 3l-18 18l6 8l-20 -4l1 -2l-37 -33l-15 21
l-7 -21l-34 14l-30 -6l-3 21l-9 -21l-65 17l-1 21l-7 -21l-22 10l-30 -27l-15 21v-26l-48 1l1 27l-25 16l29 53l-7 18l18 7l4 19l50 -12l33 37l18 -20l8 20l32 -15l29 7l4 -20l2 20l37 -4l-3 -21l8 21l93 2l9 -21l-1 21l36 2l1 -20l3 20l69 -19l-4 -18l10 5l10 -23l-11 -5
l12 -23l-41 -26l-19 -66l-20 6l16 -13l-37 -106l99 -4l1 -20l3 17l30 -7l-3 -17l19 -1z" />
    <glyph glyph-name="eight" unicode="8" horiz-adv-x="564" 
d="M509 117l4 -31l-19 -3l15 -15l-45 -62l-41 -68l-16 12l9 -18l-31 -20l-9 17l-1 -21l-28 1l-27 -27l-15 18l-6 -21l-33 12l-39 5l2 23l-7 -21l-37 15l7 21l-11 -18l-32 25l11 18l-14 -14l-14 19l-45 3l1 27l-22 3l6 50l-1 4l-42 46l17 17l-17 22l31 29l-7 26l21 7l-18 7
l13 41l18 -7l-13 16l48 62l17 -13l2 29l23 -3l1 16l-24 -5l-7 40l-27 8l6 25l-24 -2l-3 42l-26 40l20 16l-16 16l39 52h-3l1 43l20 -1l-15 12l22 31l14 -11l3 27l33 -5l15 29l21 -12l-3 21l38 7l3 -22l11 22l56 -27l36 14l5 -20l4 19l35 -9l-4 -20l12 16l27 -25l-11 -16
l20 8l11 -33l34 -25l-12 -22l21 -11l-14 -33l18 -30l-19 -14l15 -13l-23 -33l-15 13l11 -15l-26 -24l-11 15l8 -22l-35 -17l-21 -30l-4 3l-12 -22l69 -27l-7 -19l24 2l2 -35l24 -3l-3 -24l17 9l30 -76l-16 -8l18 -11zM376 513l-7 28l16 5h-18l-1 30l8 -5l10 16l-18 -1v-10
l-21 18l10 16l-14 -10l-16 27l4 -2l8 17l-14 -11l2 -4l-21 12l5 1l-2 18l-8 -17l5 -2l-26 -3l-4 18l2 -18l3 -3l-71 -24l4 9l-19 12l7 -23l8 2l-16 -29v8h-21l19 -12l2 4v-69l-17 -8l17 2v6l14 -34l-3 4l-12 -16l17 9l-2 3l53 -42l-9 -17l14 14l22 -27l-6 1l-5 -20l15 15
l-4 4l23 -7l-7 -4l9 -18l5 20l-7 2l22 13l12 -16l-8 18h-5l27 25l-1 -5l19 -8l-14 17l-4 -4l14 37l-1 -5l19 -3l-18 8l4 38h1l2 -8l16 5zM411 94l-1 -3l-24 87l12 18l-16 -6l3 -11l-95 70l10 19l-13 -16l-25 27l10 18l-13 -15l1 -6l-23 17l13 15l-15 16l-12 -21l14 -10
l-16 -18l-15 16l12 -19l-30 -22l2 3l-17 13l11 -19l4 3l-18 -30v6l-20 2l17 -13l3 5l-4 -38l-1 4l-19 -3l20 -2l9 -82l-2 4l-19 -9l21 1v4l14 -39l-19 -9l22 8l11 -37l-9 5l-9 -23l21 8l-3 10l32 -15l-9 -23l11 20l33 -21l-3 1l-4 -24l11 20l-4 3l40 -8v-2l-10 -5l6 -17
l4 22l20 10l6 -17l-3 17l26 5l9 -15l-3 17l-3 -1l17 13l-1 -6l17 -4l-9 15l-7 -5l5 32l18 -4l-12 13l19 22l-1 -7l16 -1l-12 13l-3 -5l1 26l1 -3l16 5z" />
    <glyph glyph-name="nine" unicode="9" horiz-adv-x="593" 
d="M538 142l18 -11l-17 -31l7 -36l-20 -4l20 -1l-2 -43l-19 1l18 -8l-15 -40l-17 8l16 -11l-42 -72l-16 12l13 -15l-23 -24l-20 -41l-18 11l6 -23l-63 -39l-14 17l-2 -25l-44 4l-27 -13l-7 20l3 -21l-29 -7l-38 -27l-12 21l-10 -35l-62 21l9 35l-18 9l16 40l18 -9l-3 21
l36 7l4 -20v21l68 10l6 -20l-3 22l32 4l21 28l26 29l13 -14l-1 28l29 2l-1 17l20 2l-11 17l38 37l-16 88l20 6l-17 6l11 39l17 -6l-14 9l-20 -13l-12 -36l-18 7l7 -23l-43 -15l-6 24l-2 -24l-37 1l-37 -16l-39 -14l-6 22l-15 -16l-24 27l-33 1v23l-14 -14l-26 32l15 14
l-24 2l1 31l-33 15l9 27l-21 -1l-14 83l20 8l-19 4l9 42l18 -5l-17 8l14 39l17 -8l-15 12l39 66l15 -10l-10 16l51 38l-1 1l20 39l17 -11l-7 19l34 16l7 -19l1 20l37 -2l-1 -20l7 19l18 -8l38 27l13 -24l10 21l76 -32l-6 -23l13 19l36 -31l29 -34l-15 -16l21 -1v-34l24 -15
l-10 -20l20 -3l-1 -68l18 -35l-16 -10h17v-39l-18 1l17 -9l-10 -25l17 -35zM401 308l-14 95l6 -4l9 17l-17 -4l2 -9l-24 17l9 17l-17 -11l-17 31l7 -2l6 21l-17 -12l4 -7l-64 26l10 5l-9 19l-7 -21l6 -3l-25 -13l-8 19l2 -22l-33 -4l5 6l-13 15l2 -22l6 1l-20 -24l2 9l-17 5
l14 -15l-22 -59v5l-17 -1l15 -9l2 5l1 -32l-16 -1l16 -5l-11 -61l-3 5l-15 -11l17 -2l1 8l17 -28l-15 -11l17 3l4 -33l-16 -6l16 2v4l8 -24l-12 -18l16 7l-4 11l28 -25l-9 -20l12 17l-1 2l26 -16l-7 -2l5 -21l9 19l-7 4l68 10l6 -20l-1 21h-3l29 10l-4 -4l14 -14l-6 20
l-4 -2l21 26l14 -14l-14 21l27 22l1 -13l22 1l-13 20l-10 -8l-1 37l23 1l-21 3l6 46h3l1 -6l16 3z" />
    <glyph glyph-name="colon" unicode=":" horiz-adv-x="276" 
d="M199 457l22 -9l-17 -50l-22 9l11 -25l-45 -24l-11 25l-10 -27l-48 21l10 27l-24 -9l-15 54l24 8l-24 9l17 52l23 -9l-7 26l47 16l7 -26l7 27l47 -17l-7 -26l23 9l15 -53zM209 -20l-24 10l7 -27l-48 -15l-7 27l-8 -25l-45 18l8 25l-23 -11l-18 51l22 10l-22 10l17 51
l23 -10l-12 26l46 26l12 -26l11 26l47 -25l-11 -26l23 10l18 -52l-24 -10l25 -9z" />
    <glyph glyph-name="semicolon" unicode=";" horiz-adv-x="304" 
d="M219 454l-24 13l10 -26l-46 -20l-10 25l-9 -26l-47 20l9 26l-24 -11l-19 52l23 11l-24 11l20 53l24 -11l-9 26l48 20l8 -27l10 25l45 -22l-10 -25l22 13l24 -49l-22 -14l23 -12zM241 51l-19 1l16 -11l-60 -95l-17 -37l-16 10l7 -18l-30 -14l-32 -29l-12 18l-15 6l11 33
l15 -6l-16 12l22 33l15 -12l-13 18l28 24l9 58l-22 11l6 23l-8 -21l-37 19l9 21l-19 9l18 41l18 -10l-14 12l21 31l14 -12l-3 20l35 6l3 -20l7 29l51 -15l-7 -28l17 1l15 -57l-13 -10l18 -1z" />
    <glyph glyph-name="less" unicode="&#x3c;" horiz-adv-x="565" 
d="M534 91l-28 6l-7 -19l-70 25l5 21l-15 -15l-23 27l-31 6l3 22l-9 -19l-71 44l-21 23h-36v24l-8 -19l-99 52l5 21l-19 -13l-17 32l-28 1v23l-11 -13l-23 25l11 13l-12 13l23 28l12 -13l-3 21l132 63l10 -18l-7 20l91 67l11 -17l2 24l38 -3l21 19l12 -16l-6 20l55 42
l14 -15l-9 18l32 21l9 -18l-4 24l43 8l3 -23l24 -8l-14 -53l-24 8l17 -9l-17 -37l-16 9l7 -20l-35 -16l-7 20l4 -21l-130 -72l-9 18l4 -21l-66 -25l-9 19l4 -22l-72 -33l42 -26l65 -26l-2 -21l5 20l37 -13l-6 -20l9 18l33 -20l-9 -18l12 16l24 -23l35 -4l-3 -22l10 18
l32 -22l-10 -18l18 13l15 -25h40v-27l28 -6z" />
    <glyph glyph-name="equal" unicode="=" 
d="M340 380h-17l-1 -22l-78 3v21l-5 -21l-32 10l-33 -10l-5 21l2 -21l-38 -3l-1 20l-3 -20l-70 14l2 19l-12 -5l-8 28l12 4l-11 6l9 25l11 -5l-3 18l71 18l3 -21l3 21l73 -8l110 -1v-20l15 2l5 -33l-15 -2l17 -1zM336 224l11 -6l-9 -25l-12 5l4 -18l-71 -18l-3 21l-3 -21
l-72 8l-111 1l-1 20l-14 -2l-5 33l15 2l-17 1l1 37h17l1 22l78 -3v-21l5 21l32 -10l32 10l6 -21l-2 21l38 3l1 -20l3 20l70 -14l-3 -19l13 5l8 -28z" />
    <glyph glyph-name="greater" unicode="&#x3e;" horiz-adv-x="565" 
d="M525 359l-13 13l4 -21l-133 -63l-9 18l6 -20l-90 -67l-11 17l-2 -24l-39 3l-20 -19l-13 16l7 -20l-55 -42l-14 15l9 -18l-32 -21l-9 18l3 -24l-42 -8l-4 23l-24 8l15 53l24 -8l-17 9l17 37l16 -9l-7 20l35 16l7 -20l-5 21l130 72l9 -18l-3 21l66 25l8 -19l-4 22l73 33
l-107 52l2 21l-5 -20l-37 13l6 20l-9 -18l-33 20l9 18l-13 -16l-23 23l-35 4l2 22l-10 -18l-31 22l10 18l-18 -13l-15 25h-40v27l-28 6l11 63l28 -6l7 19l70 -25l-5 -21l15 15l23 -27l31 -6l-3 -22l8 19l68 -42l-10 -18l14 16l21 -23h36v-24l8 19l99 -52l-5 -21l18 13
l18 -32l28 -1l-1 -23l12 13l23 -25l-11 -13l12 -13z" />
    <glyph glyph-name="question" unicode="?" horiz-adv-x="458" 
d="M396 539l15 -8l-22 -72l-18 5l8 -19l-34 -19l-13 -6l3 -12l-54 -91l-21 3l19 -13l-16 -113l17 -56l-25 -9l-4 -28l-49 7v1l-41 -7l-4 26l-22 10l17 46l-6 33l20 4l-19 7l13 42l18 -7l-16 11l18 36l17 -10l-14 15l20 23l6 43l21 -4l-8 14l37 45l3 39l20 -1l-15 13l19 27
l-5 31l18 4l-20 4l7 36l-12 28l-69 32l-23 -9l-7 19l1 -20l-21 -1l-15 -35l-20 10l5 -21l-39 -11l-5 22l-13 -8l-14 29l13 8l-15 16l30 35l16 -16l-11 19l34 24l11 -19l7 25l32 -10l23 26l17 -18l-1 22l40 1l1 -22l9 20l67 -19l-1 -22l8 20l36 -17l-7 -20l17 7l8 -41l13 -25
l-13 -8l15 1l10 -70zM261 -5l18 -10l-17 -42l-19 10l9 -21l-38 -19l-8 21l-8 -22l-40 17l8 22l-20 -10l-17 44l20 10l-20 9l16 44l20 -9l-6 23l40 15l7 -23l7 22l39 -15l-7 -22l20 8l16 -44z" />
    <glyph glyph-name="at" unicode="@" horiz-adv-x="796" 
d="M732 322l5 -22l-18 -5l17 -8l-40 -112l-18 7l14 -12l-22 -29l-13 12l7 -18l-31 -16l-7 17l1 -18l-60 -13l-5 18l2 -23l-40 -3l-2 22l-12 -17l-73 69l11 -19l-62 -46l-11 15l-8 -19l-30 15l-24 -10l-6 18l-15 -10l-11 21l-35 1l1 24l-20 -6l-9 44l19 5l-19 6l10 42l-8 24
l16 7l-18 2l4 40l18 -3l-17 7l25 66h-6l1 53h24l-6 21l59 38l13 -16l10 23l40 -25l93 26l5 -23l8 15l27 -18l-8 -15l11 9l15 -26l-11 -9l18 -7l-15 -56l34 -40l-19 -19l19 -19l-23 -27l14 -26l-20 -13l25 -5l2 -52l25 12l8 -20l-5 22l69 34l22 49l-22 35l19 14l-18 8l12 33
l-27 62l16 9l-23 8l10 37l-17 13l11 18l-13 -13l-51 46l9 17l-16 -12l-20 31l-60 8v21l-11 -19l-58 35l-68 -34l-9 20l-3 -23l-28 4l-20 -28l-17 15l8 -18l-52 -43l-14 13l9 -20l-48 -39l-3 -39l-20 1l14 -17l-44 -131l18 -33l-17 -11l19 -11l-17 -36l30 -54l-15 -12l17 5
l7 -28l28 -18l-9 -19l19 4l4 -24l32 -8l-4 -24l11 16l122 -62l-5 -19l10 20l28 -17l147 46l7 -20l22 10l17 -48l-21 -10l-2 -33l-46 3l-18 -33l-23 16l-8 -25l-33 14l-29 -24l-15 22l-13 -20l-30 25l-27 -7l-5 21l-1 -21l-39 3l1 21l-22 -11l-20 46l-19 5l4 20l-13 -14
l-51 47l-40 18l10 22l-16 -15l-26 36l16 14l-25 9l9 34l-26 16l12 25l-22 15l22 43l-32 62l19 12l-21 -2l-3 46l21 2l-19 14l29 40l22 73l19 -5l-15 14l64 104l15 -13l-9 18l50 41l-4 2l21 49l22 -12l11 28l40 -20l15 16l14 -17l-1 21l38 4l1 -21l8 21l19 -9l30 33l18 -21
l7 19l169 -78l-6 -19l13 14l26 -28l-13 -14l22 2l2 -25l34 -5l-4 -28l19 4l7 -41l-18 -4l19 -5l-6 -55l38 -33l-15 -21l18 -19zM444 305l-1 -5l-9 35l19 5l-19 -1l-2 41l19 1l-18 4l6 40l1 -5l17 1l-18 4l-1 17l20 5l-3 13l-18 -1l1 -17l-38 -8l-5 20v-20h3l-30 -10l4 4
l-13 14l5 -19l4 1l-43 -55l1 4l-20 7l15 -15l4 4l-10 -40v5l-21 1l20 -7l1 1l-1 -39l-1 3l-20 -4h21l6 -41l-3 6l-17 -10l20 4l14 -32l-4 -3l-4 4l-9 -11l13 7l14 -13l-6 -14l9 12l-3 2l1 1l10 -6l-2 -1l12 -23l7 15l-17 9l67 44l-3 -6l16 -9l-11 17l-2 -2l12 26l18 -5
l-16 10l7 30l1 -5l18 5z" />
    <glyph glyph-name="A" unicode="A" horiz-adv-x="775" 
d="M723 -65l9 -19l-35 -21l-9 19l-15 -21l-29 24l-25 -13l-9 22l-6 -22l-66 9l-3 20l-10 4l6 18l-5 5l27 33l-5 4l13 18l-16 -3l-16 70l17 5h-18l-1 34l-33 15l-41 3v20l-7 -20l-20 9l-29 -28l-15 20l-14 -20l-26 22l-22 -14l-10 20l-1 -20l-55 8l-10 -59l-18 4l13 -16
l-20 -21l5 -2l-16 -55l11 6l9 -20l6 2l4 -15l12 4l10 -42l-19 -6l-2 -26l-48 3l1 27l-8 -23l-38 19l-73 -13l-3 23l-17 -8l-14 38l17 8l-3 13l24 5l-1 12l37 6l18 61l19 -4l-14 19l26 23l-3 34l21 2l-14 16l19 22l-7 39l23 5l-17 10l26 75l18 -6l-16 11l21 37l16 -12l-12 23
l31 21l-2 29l21 2l-14 17l28 28l5 32l19 -3l-16 11l18 71l20 -1l-16 12l22 69l19 -2l-18 8l14 40l18 -8l4 14l25 -9l-4 -14l15 7l64 -138l-16 -9l18 4l5 -30l28 -25l-13 -18l19 2l21 -66l-15 -11h20l12 -71l-16 -9h19l11 -61l30 -29l-13 -17l21 -4l-4 -29l27 -17l-11 -21
l15 11l21 -33l-16 -12l17 6l11 -37l-17 -6l20 3l21 -69l19 -5l-3 -17l6 -2l6 -30zM508 214l-27 -5l-15 52l16 12l-18 -6l1 -4l-21 32l15 13l-19 -2l-3 42l2 -6l17 9l-20 -2l-11 25l14 14l-17 -9l2 -5l-26 32l15 15l-19 -4l-5 38l-13 35l16 11l-14 -6l11 23l-12 12l-13 -8
l9 -17l-18 -2l12 -12l8 10l3 -42l-20 -2l14 -15l-25 -28l1 8l-18 3l14 -15l3 4l-13 -76l-19 5l15 -15l-25 -29l1 8l-19 4l15 -15l3 3l-13 -74l-18 4l4 -4l-34 -10l6 -22l16 -14l22 33l1 -7l4 20l34 -8l-1 -20l3 20l64 -6l6 -21l1 21h-6l35 14l6 -21l9 21l31 -17l-6 -1l3 -21
l8 20l-5 2l6 1l12 -26l18 10zM203 -15v-1h1zM278 225l6 2l2 -8zM288 212l-2 7l4 -4z" />
    <glyph glyph-name="B" unicode="B" horiz-adv-x="590" 
d="M521 26l14 -15l-28 -31l-23 -32l-15 14l10 -16l-29 -23l-10 16l-5 -22l-25 6l-17 -28l-19 14l-9 -20l-25 14l-22 -19l-13 17l-14 -20l-34 28l-24 -5l-3 21l-2 -21l-37 4l-108 -4l-2 21l2 -18l-33 -3l-1 18l-11 -1l-1 23h8l-1 2l30 22l9 -17l-2 19l20 3l5 22l-17 32l18 13
l-18 4l8 76h18l-18 15l21 31l-10 25l18 9l-18 -5l-9 40l18 5l-18 14l12 18l-25 27l18 21l-18 7l9 70l17 3h-17l-1 79h18l-18 1l-7 70l16 5l-18 5l6 30l-11 8l-24 -4l-4 18l-9 -7l-26 40l18 14l1 27l49 -2l-1 -27l4 22l105 6l8 -22l-1 21l38 2l1 -22l16 21l24 -22l23 18
l14 -22l17 21l35 -35l21 4l3 -21l3 16l29 -7l-3 -16l6 15l24 -12l1 9l46 -10l-5 -25l24 -7l-13 -54l-5 1l7 -20l5 3l21 -45l-20 -12l11 -25l-44 -23l-4 -18l-17 5l13 -12l-21 -28l-13 11l7 -16l-21 -11l-8 -17l17 -3l-3 -21l18 12l22 -38l-2 -1l20 -28l3 3l30 -33l-14 -18
l22 -1l-3 -49h-2l5 -37l-19 -4l18 3l6 -40l-18 -3l20 3l6 -45zM403 528l-2 -7l-14 24l5 -4l9 15l-14 -11l-21 17l8 15l-11 -20l-31 22h4l4 23l-12 -19l4 -4l-37 7l3 23l-4 -23l-35 7l-3 24l-4 -23l7 -1v-1l-32 -5l1 24h-18l3 -26l14 2v-14l-18 -1l18 -1l1 3l4 -42l-19 -2
l19 -3l-5 -37l-19 -2l19 -2l3 -37l-19 -2l19 1l1 -42l-18 -1h18v-41h-18l18 -3l-2 -17l-18 2l-2 -23l18 -2l20 18l2 -20l2 22l36 5l-1 -3l3 -19l-2 19l28 6l8 -17l-4 19l24 15l10 -16l-8 17l20 18l-1 -2l17 -9l-11 15l-5 -4l14 35l17 -8l-15 12l18 27l1 -9l19 3l-15 13
l-5 -7l-5 32l19 3l-17 4l5 31l5 -7l14 10zM391 319v-7l1 7h-1zM426 62l-3 -5l-4 28l17 3l-19 -2l-2 38l1 -3l17 7l-18 -1v-3l-12 34l2 -3l15 11l-17 -7l-18 30l15 11l-16 -11l-19 36l3 -3l13 14l-16 -11l-15 19h6l1 20l-13 -13l6 -7l-31 2l1 20l-12 -15l-22 20l8 1l-2 20
l-12 -16l6 -5l-27 -4l-3 20l-4 -19l-24 7l3 11l-8 3h2l-2 6l-1 -6l-9 3l1 -6l8 2l-2 -11l8 -2l-6 -25l-1 4l-19 -3l18 -6l2 5l4 -39l-19 -2l19 -1l-2 -37l-1 1l-19 -6l19 -1l1 6l9 -41l-19 -6l19 1l2 -42l-19 -1l19 -6l-8 -33l-3 6l-18 -9l19 -6l2 9l13 -36l-4 5l-14 -13
l18 8l16 -21l-10 -19l14 13l-4 7l32 -22l-6 1l-1 -23l11 20l-4 2l35 -2l-3 -4l2 -19l1 19l27 3l-3 -2l9 -16l-2 19l-4 -1l24 18l9 -15l-8 15l21 14l-1 -6l17 -5l-8 16l-8 -5l7 32l17 -5l-13 11l16 25v-8l17 2zM247 341h3l-3 -2v2z" />
    <glyph glyph-name="C" unicode="C" horiz-adv-x="674" 
d="M621 20l-4 1l-5 -39h2l5 -53l-23 -3l-1 -30l-54 2l-22 -17l-12 19l8 -21l-38 -18l-9 21l-14 -24l-43 33l1 1h-11l1 -1l-39 -33l-15 22l-18 -19l-26 33l-24 -7l-5 22l-3 -21l-38 6l3 22l-20 -12l-16 34l-30 3l2 23l-9 -19l-35 20l9 20l-25 -2l-2 55h4l-7 17l-41 27l12 23
l-23 6l7 34l-26 27l17 19l-22 17l30 46l-5 22l19 5l-19 2l3 27l-23 46l21 13l-18 12l22 40l18 -12l-16 14l18 25l-6 42l23 4l-20 7l13 44l20 -7l-15 16l29 32l14 -16l-5 23l41 12l1 -3l20 9l18 41l20 -11l6 24l40 -12l20 13l9 -18v20h36v-20l1 20l22 -3v2l40 26l12 -22l2 22
l40 -6l-3 -23l8 22l28 -12l39 13l7 -24l12 21l37 -27l-12 -21l16 4l15 -72l-16 -5l17 -7l-8 -22l20 -44l-21 -12l-3 -25l-46 7l3 25l-4 -11l-20 10l5 11l-21 9l14 40l-5 26l-66 17l3 24l-14 -20l-29 25l-32 -4v1l-33 -12v1l-31 -16l-8 19l4 -22l-33 -8l-26 -23l-13 16l9 -22
l-34 -17l-6 -27l-6 -38l-3 -38l-18 2l15 -13l-26 -61l-17 3l17 -7l-9 -26l16 -33l-18 -10l18 -8l-17 -58l30 -28l-15 -20l21 -11l-18 -42l60 -61l-9 -21l21 7l10 -41l25 -20l-12 -19l17 17l25 -32l24 -5l37 21l10 -23l5 22l38 -11l1 4l37 -10l23 16l16 37l20 -10l-15 17
l21 22l-9 35l22 7l8 4l-6 17l42 17l8 -23l25 -5z" />
    <glyph glyph-name="D" unicode="D" horiz-adv-x="731" 
d="M668 291l1 -16l3 1l19 -47l-21 -11l18 -13l-18 -29l7 -43l-23 -4l13 -22l-31 -23l-2 -35l-22 1l9 -22l-40 -21l-2 5l-21 -15l-14 -34l-17 9l8 -17l-25 -15l1 -1l-26 -32l-14 14l-9 -24l-37 16l-23 -14l-10 19l-8 -21l-21 10l-27 -30l-18 20l-11 -21l-38 25l2 2l-16 4
l-32 -26l-13 20l-11 -20l-25 19l-24 -14l-9 19l-4 -19l-35 8l-62 1l-4 20h-13v31l14 -1l-6 5l8 15l7 -5l8 18l25 -15l9 4l-5 31l21 4l-16 4l6 37l17 -3l-18 8l16 40h1l1 15l-32 38l18 19l-18 16l27 38l-2 19l-12 40l18 7l-18 8l14 40l1 -1l5 110l18 3h-18v27l-23 38l17 13
l-18 3l5 35h-1l-2 34l-20 10v1l-29 11l-2 7l5 10h2l-13 10l24 35l15 -13l8 19l35 -16l-1 -1l59 1l4 -20l8 20l24 -12l26 19l11 -19l-4 18l34 11l4 -19l17 20l26 -27l20 11l9 -20l-5 20l37 11l5 -21l11 19l30 -22l27 3l2 -21l11 21l37 -25l-12 -21l17 16l25 -34l73 -22
l-6 -23l19 8l33 -70l-15 -13l19 3l6 -42l-19 -4h19v-24l33 -34l-16 -20l19 -21zM545 323l-1 -4l-8 34l19 6l-22 4l8 45l2 -8l20 6l-22 5l-8 30l3 -4l16 14l-20 -6l1 -4l-19 27l3 -2l10 21l-16 -14l3 -5l-34 20l10 21l-12 -18l-32 26l11 18l-18 -12l-20 38l7 -4l10 20
l-19 -12l2 -4l-29 18l3 -1l7 21l-10 -19l-33 12l5 22l-7 -21l-23 7l4 3l-13 22l-5 -21l14 -4l-36 -26l-13 23l-14 -20l-21 19v32l-14 -19l-19 19h-26v-32h25v-24h-6l-1 3l-18 -3h19l3 -36l-18 -5l18 2l1 3l9 -41l-19 -5l19 -6l-10 -39l-18 4l18 -6l-6 -19l-18 -16l18 -4
l3 17l27 -38l-18 -16l18 -19l-29 -36l-4 19l-19 -6l19 -18l4 5l5 -23l-19 -5l19 -3l-5 -36l-1 3l-19 -5l19 -3l1 5l7 -38l-18 -5l18 -3l-4 -34l-1 3l-18 -7l18 -3l1 7l11 -38l-18 -7l18 -9l-12 -30l-5 10l-18 -11l18 -10l5 11l15 -31l-19 -10l17 4l7 -34l-16 -8l17 4l2 5
l8 -22l-16 -5l5 -24l19 9l-8 20l27 8l6 -25l5 19l30 -9l-1 -19l4 18l30 -2l1 -20l2 19l-3 1l37 3l1 -20l8 24l38 -14l-11 -6l10 -21l7 25l-6 2l18 10l-2 -5l19 -11l-9 21l-8 -5l18 39l19 -11l-8 22l23 10l1 -17l24 3l-8 22l-17 -8l-3 37l24 2l-12 20l26 19l1 -16l21 3
l-12 20l-10 -7l-4 30l21 3l-18 6l9 33h18l-18 6l-2 35h19l-18 1l1 40h18l-20 5l9 40l2 -8l19 6zM248 596v-1l-9 9zM234 609z" />
    <glyph glyph-name="E" unicode="E" horiz-adv-x="590" 
d="M542 41l-24 8l17 -10l-14 -33l5 -32l-18 -4l14 -8l-15 -32l-14 8l3 -15l-26 -6l2 -8l-40 -13l-6 22l-12 -21l-27 18l-21 -18l-13 18l-20 -17l-19 27l-14 -12l-12 19l3 -19l-34 -7l-3 19l-6 -18l-20 8l-41 -13l-6 22l-18 -22l-30 29l-23 -14l-11 23l4 -27l-48 -10l-5 27
l-21 -1l-1 46l20 1l-4 9l17 10l5 -9l10 18l19 -13l9 13l4 65l17 -2l-18 9l15 37l-5 30l18 4l-18 -2l-4 40l18 2l-18 4l6 40l4 69h-1l-13 40l18 7l-18 1l1 40l18 -1l-18 15l15 22l-19 25l18 17l-18 17l21 28l-13 22l18 12l-18 2l3 36l-14 25l2 1l-8 6l-25 -12l-6 16l-12 3
l4 18l-12 24l12 7l-6 20l37 12l5 -20l13 20l28 -22l23 12l9 -20l-3 20l72 13l3 -20l8 20l32 -17l29 6l3 -20l8 20l30 -16l27 11l7 -20l5 20l31 -11l30 9l5 -19l-2 21l38 5l3 -22l22 -3l-6 -41l19 -36l-19 -12l15 -11l-20 -35l-15 12l-4 -8l-12 3l-5 3l-19 -3l-5 36l-2 -1
l-14 33l-29 6l-37 -15l-8 24l5 -23l-42 -12l-5 23l-9 -25l-63 22l14 -53l-20 -8l19 -5l-10 -81l-19 1l19 -7l-13 -37l8 -34l-18 -5l24 -6l-4 -19l12 1l2 -26l4 18l17 -4l29 31l15 -18l14 25l31 -20l22 19l7 -10l10 16l9 -6l-13 14l25 29v12l33 2l1 -19l17 -4l-6 -71l-17 -2
l17 1v-38h-17l18 -2l-3 -38h-4v-28h-13l-3 -13l-23 5l1 6l-5 -3l-3 5l-14 2l3 25l-3 11l-42 8v2l-42 1v26l-2 -19l-60 12l-16 -8l1 -29h-18l18 -9l-11 -27l21 -31l-19 -15l19 3l5 -41l-18 -3l18 -16l-17 -25l17 -26l-19 -15l14 3l4 -26l16 -14l-8 -11l17 18l61 -46l35 9
l2 -6l11 15l10 -10v16l27 1l1 -15l4 24l28 -6l12 23l-6 36l21 4v6l-7 25l45 16l7 -25l24 -8z" />
    <glyph glyph-name="F" unicode="F" horiz-adv-x="558" 
d="M520 582h-1l2 -42l-20 -1l2 -18l-33 -3l-2 18l-4 -9l-16 10l4 9l-22 11l14 35l-8 10l-34 -14l-9 26l-2 -22l-41 5l3 23l-16 -23l-31 26l-31 -14l-9 25l-4 -27l-6 1l-16 -10l18 -14l-17 -26l15 -24l-18 -13l18 -17l-27 -33l6 -22l-18 -5h18l14 -70l-17 -8l10 2l2 -16l9 -5
v5l34 3l1 -19l1 18l27 -1l-1 5l41 13l6 -23l8 27l26 -9v6l4 -1l-2 28l13 1v8h13l-2 9l30 6l3 -16l16 -6l-6 -22l23 -32l-17 -15l17 -2l-5 -38l-17 3l18 -12l-20 -38l-6 4v-19h-12l4 -12l-22 -9l-4 12v6l-12 1l1 23l-11 8l-39 2l1 22l-13 -25l-37 26l-17 -11l-10 19l5 -19
l-33 -10l-5 18l-6 -17l-15 7l-1 -2l22 -32l-17 -15l17 1l1 -39h-17l17 -11l-16 -31l9 -27l-17 -7l17 -5l-1 -67l-2 -1l36 -38l3 5l33 -23l2 1l12 -30l-13 -7l-3 -21l-30 5l-32 -22l-11 20l-19 -20l-27 30l-18 -11l-11 20l7 -20l-37 -15l-6 20l-5 -21l-32 9v-2l-43 -2v24
l-17 5l8 38l18 -5l5 1l-2 14l30 4l-1 3l24 5l13 36h1l1 33h18l-18 1l-13 111l18 8l-18 -2l-2 41l18 1l-18 1l2 40l18 -1l-18 6l9 31l-14 34l18 9l-18 2l-10 70l18 7h-18l1 40h18l-18 18l29 37l-1 10l-1 -1l-26 39l17 14l-18 1l1 18l-10 -2l-3 18l-11 -15l-25 22l-12 -4
l-3 14l-17 8l15 37l17 -8l-8 21l38 18l8 -21l11 20l25 -17l25 17l11 -20l12 20l35 -26l24 2l1 -20v20l67 10l5 -20l5 20h98l5 -20l-1 20l36 1v-20l5 18l33 -10l-5 -18l19 8l15 -42l-19 -8l20 -1z" />
    <glyph glyph-name="G" unicode="G" horiz-adv-x="744" 
d="M703 236l6 -13l-24 -13l-5 14l-3 -17l-42 2l-13 -24l8 -31l3 1l14 -45l-21 -8l21 -11l-19 -43l4 -30l4 1l13 -51l-23 -7l11 -26l-45 -26l-12 26l-11 -23l-31 18l-15 -16l-13 16l9 -18l-32 -21l-9 18l-16 -21l-27 25l-16 -12l-11 18l-1 -21l-36 1v21l-3 -21l-36 7l3 20
l-12 -18l-29 25l-29 2l2 20l-13 -14l-26 29l-26 17l9 16l-14 -11l-13 18l-42 11l5 23l-20 -3l-4 34l-26 20l12 19l-16 -13l-23 34l16 13l-18 -6l-11 40l18 6l-20 3l-6 72l17 8l-18 -1v41h18l-19 12l16 31l-15 36l21 10l-20 5l9 44l20 -5l-18 10l17 41l18 -10l-11 24l27 16
l-6 36l25 5l-7 24l29 11l4 37l24 -3l-8 20l63 40l12 -16l9 26l34 -16l16 19l16 -15l7 21l33 -14l26 11l6 -19l-2 19l31 5l-1 1l36 14l6 -19l9 18l26 -17l29 8l4 -20l4 19l34 -8l-4 -19l12 17l31 -26l-12 -17l16 6l11 -37l-16 -6l16 4l6 -36l-16 -4l18 -10l-17 -36l5 -20
l-15 -5l8 -19l-34 -18l-8 19l-11 4l4 13l-3 -2l-16 41l-45 58l-2 -1l-18 19l-32 -17l-10 25l-18 -20l-18 19l-18 -20l-18 19l-3 -23l-37 7l-27 -14l-33 -22l1 -1l-29 -24l-4 -34l-20 4l15 -13l-20 -27l-2 -36l3 -38l-19 -2l16 -14l-18 -25l11 -28l-18 -9h17v-38h-17l20 -10
l-11 -29l23 -30l-19 -17l22 -9l-12 -38l16 -26l-1 -1l23 -35l-16 -13l22 5l6 -37l25 -11v-2l33 -16l-6 -18l16 14l15 -22l28 12l8 -23l18 17l31 -39l13 -2l-1 2l44 18l2 -8l19 11l3 22h-2l-5 41l19 3l-19 18l29 36l-6 23l19 5h-19v31l-23 24l14 16l-14 -11l-32 10l-6 18
l-1 -12l-21 2v12l-18 5l10 41l18 -6l6 25l41 -12l31 9l5 -22l5 22l107 -1l6 -21l1 22l41 -4l-2 -23l16 10l16 -36z" />
    <glyph glyph-name="H" unicode="H" horiz-adv-x="718" 
d="M676 -57l-14 11l-7 -18l-15 8l-29 -30l-16 19l-13 -19l-34 29l1 2l-21 6l-65 -27l-6 19l-5 -18l-32 12l5 17l-12 -4l-8 27l12 4l-7 7l12 15l7 -6l14 19l22 -20l9 9l5 34l19 -4l-18 10l14 30l-11 31l18 8l-18 -4l-9 40l18 5l-18 10l12 25l-21 29l18 15l-18 8l13 37h-1
l3 15l-15 -1l-1 23v-21l-68 -6l-38 -15l-7 21l-12 -21l-37 29l-25 1v20l-2 -20l-31 6l1 -5l-15 -3l7 -18l-22 -11l18 -2l-3 -40l-18 2l18 -4l-7 -32l14 -35l-18 -9l18 -19l-29 -34l6 -20l-18 -6l19 -4l-5 -31l15 -31l23 -3l-3 -20l4 17l31 -9l-3 -12l19 -1l1 -31h-14l-7 -20
l-30 13l-28 -10l-6 20l1 -20l-60 -21l-10 19l-17 -19l-36 2l-16 19l-14 -15l-26 31l14 14l-6 2l1 9l-10 11l27 32l14 -16l-2 12l11 3l3 24l14 -2l-17 10l15 30l-7 32l18 5l-18 -4l-8 40l18 4l-18 -1l-1 40l18 1l-18 21l26 28l-11 19l18 13l-18 -6l-11 40l18 6l-18 15l20 28
l-14 25l18 12l-18 11l21 40h1l-1 66l17 2l-17 1l-26 100l2 1l-14 14l-22 -10l-6 18l-4 -6l-10 9l4 5l-15 2l2 32l15 -1l-6 20l36 12l6 -20l16 19l30 -31l13 4l-1 2l35 24l11 -20l-1 20l34 2l1 -19l3 19l30 -5v4l43 3l2 -24l17 -11l-21 -39l1 -2l-27 -28l-13 15l1 -14l-12 -2
l-25 -26l-4 -22l17 -37l-18 -11l18 -3l-7 -80l-19 1l19 -8l-10 -27l30 -23l3 -27l8 21l65 -12l2 -21l-1 20l65 23l10 -20l10 20l35 -21l28 3l2 -21v27h22l-2 25l25 2l-19 4l6 28l-23 36l19 14l-18 -5l-8 41l18 4l-18 10l17 40h1l4 22l-22 19l12 18l-17 -10l-28 16l-5 18v-6
h-11v6l-10 5l9 24l10 -5l-5 16l29 13l6 -16l10 19l20 -12l24 24l16 -19l-2 19l34 4l2 -19l6 19l34 -13l33 -7l-4 -20l8 13l23 -16l-7 -13h5v-10h1l4 -14l-6 -2l5 -15l-27 -12l-5 15l-1 -14h-13l-11 -21l2 -29l13 -40l-18 -7l18 -18l-3 -45l-18 -17l18 -3l-5 -40l-18 3
l18 -11l-13 -27l18 -29l-18 -13l18 -7l-13 -40l-18 7l18 -9l-13 -33l23 -70l-17 -8l17 4l7 -40l-18 -4l18 -4l-8 -39l1 -33l-17 -1l20 -2l-3 -28l40 -1l3 -17l1 13l25 -3l-2 -14l14 -11z" />
    <glyph glyph-name="I" unicode="I" horiz-adv-x="373" 
d="M320 609l1 -13l-23 -2l-1 13l-10 -20l-16 10l-8 -18l-17 10l13 -11l-18 -29l4 -1l-18 -36l4 -30l-18 -3l19 -4l3 -66l1 1l20 -41l-18 -10l18 -17l-24 -32l7 -21l1 1l19 -41l-18 -10l18 -3l-6 -78l-18 1l18 -2l-4 -40l-17 2l17 -3l-10 -79l-18 3l19 -5l-5 -22l27 -15
l-10 -22l16 7l4 -11l14 10l11 -18l9 -4l-5 -15l9 -18l-10 -7l-7 -17l-52 10v-1l-35 -16l-7 19l-9 -19l-29 16l-25 -9l-6 19l-3 -19l-34 5l2 19l-2 -12l-23 5l2 13l-7 -14l-25 16l7 14l-1 12l21 3l1 -12l3 18l26 -6v4l25 3l8 29l-12 31l19 9l-18 -4l-6 41l18 3l-18 10l17 39
l-1 25h-1l-11 40l18 7l-18 9l15 35l-7 30l17 5l-18 4l6 32l-15 36l18 9l-18 12l17 31l-11 28l18 8l-18 -5l-8 40l18 5l-18 14l24 37l-1 15l-30 22l13 21l-15 -11l-15 28l-21 4l-11 -11l-24 18l13 33l15 -7l7 20l19 -9l27 29l17 -20l-1 19l35 1v-20l18 20l34 -40h3l34 32
l15 -19l4 20l37 -8l-4 -21l17 8l14 -38z" />
    <glyph glyph-name="J" unicode="J" horiz-adv-x="351" 
d="M284 594l-3 3l-4 -12l-10 4l-4 -22l-22 4l9 -25l-37 -16l36 -38l-17 -22l17 -6l-11 -40l-18 7l18 -17l-25 -34l3 -12l3 2l33 -39l-17 -19l18 -19l-22 -24l14 -20l-18 -15l18 -7l-12 -39l-11 -60l26 -38l-18 -14l17 -7l-9 -31l13 -31l-17 -9l21 -12l-22 -47l-1 1l-14 -73
l3 1l12 -51l-23 -7l11 -22l-39 -24l-11 22l2 -22l-19 -2l-12 -44l-25 8l-14 -24l-37 27l-14 -9l-9 18l1 -18l-33 -1v18l-2 -18l-31 4v-1l-33 1v19l-10 -18l-32 21l10 18l-19 -1l-1 42h19l-18 6l10 41l2 -1v30l16 1l-8 17l31 17l8 -17l8 7l13 -18l-8 -7l18 -12l-11 -21
l21 -40l17 2l2 -22l1 15l28 -3l1 6l26 20l19 -5l-11 16l22 19l-1 26h1l-2 36l16 1l-16 7l12 36h-2l9 29l-16 33l18 11l-18 10l11 26l-19 30l18 14l-17 22l32 32l-6 18l18 7l-18 7l10 62h-1l-20 39l18 11l-18 -7l-13 40l18 7l-18 2l4 78l18 -1l-18 3l-3 71l17 5l-19 18l18 23
l-15 13l1 1l-14 -2l-2 16l-12 -14l-27 27l12 15l-5 11l6 4l-10 15l27 23l10 -15l17 20l38 -5l15 -19l-7 19l35 14l6 -19l13 19l29 -25l22 8l5 -20l-2 23l41 6l2 -23l15 -16z" />
    <glyph glyph-name="K" unicode="K" horiz-adv-x="695" 
d="M664 -41l-15 10l-2 -19l-24 2l-32 -21l-10 19l-19 -18l-27 33l-11 -5l-6 16l-16 -9l-12 27l-33 18l9 20l-13 -15l-27 30l13 14l-18 -8l-11 28l-35 10l6 24l-14 -14l-54 52l11 17l-14 -13l-24 32l15 13l-16 -11l-21 35l16 11l-21 -6l-7 30l-7 1v-9h-18l18 -5l-3 -71
l-18 -4l18 -10l-13 -29l15 -30l-18 -11l18 -13l-18 -32l9 -18l20 -3l-2 -18l11 16l29 -24l-5 -8l8 -12l-9 -9l-4 -18l-20 6l-32 -23l-12 19l2 -19l-35 -4l-1 19l-10 -19l-25 16l-24 -15l-10 19l-1 -20l-35 3l1 19l-9 -17l-30 21l9 17l-9 3l6 19l4 -1l-6 10l29 20l9 -16l3 23
l4 -1l-4 14l23 9l-17 6l12 72l18 -1l-18 11l13 28l-16 29l19 12l-19 4l6 40l18 -3l-18 4l9 63h-1l-23 40l18 13l-18 11l22 40h1l7 22l-20 33l17 13l-17 7l8 70l18 2l-19 5l7 32l-31 18l-4 22l-8 -15l-26 18l-14 -5l-13 28l26 21l9 -14l-6 14l25 15l7 -14l4 19l34 -9l17 -2
l33 32l16 -19l7 19l61 -16v3l40 2v-22l18 1l2 -40l-18 -1l-8 -7l-3 3l-24 -16l-10 17l5 -17l-18 -6l6 -61l-17 -5l20 -5l-6 -82l-20 -2h20l-1 -44h-20l20 -2v-2l30 21l38 53l17 -10l-8 19l77 50l-5 1l9 53l24 -5l-12 18l7 5l2 11l-6 -9l-16 13l6 9l-14 5l9 33l15 -6l-8 20
l35 17l8 -20l6 20l34 -13v-1l33 -6l-3 -19l6 19l16 -7l43 30l32 -41l-23 -30l1 -2l-6 -5l-1 -3l-1 1l-27 -24l-2 2l-20 -31l-16 13l6 -22l-41 -13v1l-28 -18l-13 -26l-15 -37l-17 8l9 -17l-51 -46l-13 13l7 -21l-30 -12l-10 -29l-18 8l12 -19l-10 -33l29 -10l-6 -21l15 11
l20 -33l-15 -11l17 8l36 -59l-13 -14l15 12l42 -52l33 -20l-9 -18l10 16l29 -24l-10 -16l19 6l5 -25l30 -4l-2 -24l8 16l28 -19l-8 -15l14 9l15 -26l8 11l35 -37l4 4l25 -25zM240 435l-1 -7l10 -10zM220 394l-3 1l4 -1h-1z" />
    <glyph glyph-name="L" unicode="L" horiz-adv-x="567" 
d="M514 62l11 -73l-20 -4l15 -14l-25 -34l-16 14l4 -10l-18 -7l-3 9l1 -19l-68 -4l1 -1l-36 -10l-5 20l-10 -19l-32 22l-25 -4l-3 20l-1 -20l-35 3l1 19l-7 -19l-20 9l-36 -25l-13 22l-11 -22l-39 24l-30 -3v1l-39 -7l-3 23l-13 -1l-2 29l13 1l-2 5l9 5l2 -5l3 17l24 -4
l14 16l-3 3l14 18l-13 29l18 11l-18 4l3 73l18 3l-18 5l1 70l18 5l-18 3v74l18 3l-18 9l16 38l-8 70l18 3l-18 9l13 30l-14 31l18 9l-17 -9l-17 39l17 9l-18 13l16 27l-13 13l13 15l-17 -9l-11 26l-20 -1v10l-3 2l-20 -9l-16 44l20 9l6 25l45 -13l-6 -25l6 19l22 -8l28 25
l14 -19l16 19l35 -36h18v-19l1 19l25 -2l35 20l9 -19l14 -3l-4 -30l-14 2l-1 -1l4 -9l-30 -16l-7 17l4 -16l-17 -5l-23 -60l14 -36l-18 -9l18 6l11 -40l-18 -6l18 -5l-3 -71l-18 -4h18l6 -77l-18 -3l18 -5l-2 -71l-18 -4l18 -2l3 -73l-18 -5l18 -15l-19 -27l14 -23l-18 -13
l16 -1v-27l2 1l8 -23l30 4l2 -25l9 21l63 -19l13 19l14 -12l-1 18l33 2v-18l3 23l25 -3l13 30l2 -1l16 40l8 -4l-8 20l36 18l8 -19l20 -16z" />
    <glyph glyph-name="M" unicode="M" horiz-adv-x="865" 
d="M836 -49l-15 1l-12 -23l-21 14l-28 -32l-20 22l-16 -21l-39 35l1 1l-91 -3l-7 19l-10 -8l-14 23l10 8l-4 8l15 8l3 -8l8 19l26 -14l10 6l-5 32l4 1l-6 37l17 3l-18 16l28 41l2 -2l9 58l-18 41l18 9l-18 10l18 41h1v13l-33 40l18 18l-18 4l7 41l19 -4l-19 6l11 40l18 -5
l-18 7l6 20l-24 26l6 -43l-22 -4l12 -17l-30 -26l-9 -29l-17 7l10 -21l-24 -16l6 -32l-22 -5l19 -2l-4 -43l-19 3l12 -18l-28 -24l-7 -31l-18 6l17 -8l-15 -37l-16 8l11 -21l-36 -25l-10 -24l-16 8l15 -11l-13 -23h8v-65l-55 -6l-12 59l27 6l-20 -1l-1 32l-27 19l11 19
l-14 -12l-23 32l14 13l-17 -7l-29 67l15 12l-17 -8l-38 57l12 16l-21 3l5 48h2l-2 13l-43 13l7 28l-24 9l8 26l-7 2l-14 -77l1 1l22 -40l-18 -12l18 3l5 -40l-18 -3l18 -24l-34 -31l7 -17l-18 -8l17 -3l-4 -38v-23l1 1l28 -40l-17 -16l19 -22l-28 -30l7 -16l26 -7l-4 -21
l4 17l26 -7l21 12l21 -29l-26 -28l-12 14l12 -20l-36 -28l-13 20l-19 -22l-43 45l-16 1l-34 -9v-2l-41 -18l-8 23l-14 5l8 31l4 -2v20h10l2 15l28 -3l-2 -16l3 21l22 -4l8 14l-20 30l19 16l-18 1l1 40l18 -1l-18 5l12 68l-18 38l19 10l-18 9l12 31l-12 31l18 9l-18 5l2 71
l18 4l-18 14l26 40l2 -1l-9 54l-2 -1l-23 40l18 13l-19 16l23 32l-7 22l-12 7l-24 -21l-24 25l6 12l-16 22l13 12l6 23l34 -12l30 15l8 -22l15 22l21 -19l30 24l16 -24l21 9l39 -67l-13 -18l24 -6l-10 -46l16 -18l-14 -15l16 11l20 -36l-16 -11l20 2l2 -26l37 -16l-9 -26
l17 8l15 -39l-18 -8l18 7l14 -39l-18 -8l22 -3l-4 -40l20 -20l-13 -17l14 14l26 -33l-15 -14l21 -3l18 19l14 -16l-11 22l40 25l10 24l17 -9l-17 10l8 16l-22 56l26 12l-17 9l17 37l17 -9l-14 16l26 28l9 33l18 -6l-14 17l22 21l-2 38l21 1l-18 6l11 40l18 -6l-11 22l39 24
l3 -7l18 20l10 -11l2 17l19 -3l-1 2l40 25l11 -22l5 22l68 -8l3 -20l13 1l2 -27l-9 -1l-26 -29l-14 16l1 -18l-19 -1l-7 -17l18 -33l-18 -12l19 -15l-25 -42l-1 1l-2 -15l27 -40l-19 -16l19 -19l-25 -29l13 -23l-19 -13l19 -14l-17 -28l17 -28l-18 -14l18 -4l-6 -32l17 -38
l-19 -10l19 -17l-16 -21l22 -23l-18 -21l22 -14l-19 -39l13 -22l-5 -3l13 -16l24 2l1 -17l2 6l10 -3l-1 -6l15 -1zM433 212l-1 -5h5z" />
    <glyph glyph-name="N" unicode="N" horiz-adv-x="725" 
d="M694 636l-8 2l-1 -2l7 -16l-28 -15l-7 16v-17l-11 -1l2 -22l-18 -2l17 -10l-21 -61l20 -38l-18 -12l18 -7l-10 -34l12 -35l-19 -8l19 -2l-4 -41l-19 2l19 -17l-21 -30l12 -26l-19 -11l19 -10l-14 -32l14 -31l-18 -11l18 7l13 -41l-19 -7l19 -5l-8 -79h-19l19 -3l6 -72
l-19 -8l10 -10l-18 -22l-10 10l-12 -2l-2 10l-36 21l10 20l-13 -16l-28 28l12 16l-14 -14l-25 31l14 14l-17 -10l-42 60l12 16l-14 -14l-25 31l14 14l-24 -1l-1 31l-30 7l5 26l-19 -7l-9 32l-32 14l8 22l-15 -12l-22 34l15 12l-22 -3l-5 44l-49 47l13 17l-20 -6l-8 30l-19 8
l-18 -26l3 -24l-18 -3l18 -1l3 -77l-18 -2l18 -4l-7 -61l29 -39l-18 -17l18 -16l-29 -39l8 -51l1 1l25 -38l-17 -13l21 -7l-8 -30l13 -6l24 6l3 -18l8 -2l7 -5l-8 -17l-7 5l2 -15l-25 -6l-3 14l-7 -19l-48 14l-34 -28l-13 19v-19l-34 1l1 19l-1 -21l-38 2l1 21l-15 5l9 34
l12 -4l3 6l-5 15l27 13l6 -16l2 19l14 -2l2 23l19 -2l-18 13l20 31l-8 24l-1 -1l-24 41l18 14l-18 3l6 42l19 -3l-19 11l17 36l-8 30l19 6l-19 8l13 70l-11 38h-1l-17 42l19 9l-19 11l15 32l-12 31l19 9l-20 15l6 10l-1 1l2 22l-18 -12l-19 36l-19 5l4 17l-10 -1l-3 19
l-11 -4l-15 46l21 8l5 29l52 -10l-5 -29l13 23l30 -20l31 18l11 -24l21 5l6 -30l33 -8l-5 -26l18 8l35 -62l-13 -14l19 5l9 -39l19 -17v2l37 -20l-8 -20l16 9l35 -71l-16 -11l19 7l6 -22l40 -6l-3 -28l19 5l9 -43l-19 -5l20 4l5 -28l33 -7l-5 -26l17 8l29 -53l-4 22l18 4
l-18 10l17 41l-8 65h-1l-13 41l18 8l-18 1l-3 78l18 3l-18 12l21 41v11l-32 35l16 19l-19 6l7 27l-43 15l-9 -3l-4 10l-13 7l13 28l13 -7l2 21l68 15l8 -22l13 23l26 -19l28 23l15 -23l9 20l36 -20l-9 -20l9 -2zM558 175zM550 166l4 2v2zM200 462l3 -2l1 3z" />
    <glyph glyph-name="O" unicode="O" horiz-adv-x="746" 
d="M687 156l14 -22l-35 -29l-4 -28l-20 3l18 -9l-17 -39l-17 9l17 -10l-19 -39l-17 10l14 -14l-25 -31l-14 13l-2 -27l-48 5l-14 -13l-11 15l5 -18l-32 -12l-5 18l2 -19l-27 -5l-31 -18l2 -2l-34 -28l-13 19l1 -21l-39 -1v21l-10 -19l-31 20h-32v21l-17 -14l-23 32l-28 6
l4 21l-8 -20l-36 17l8 20l-19 -8l-14 41l18 8l-20 -7l-8 30l-37 17l9 24l-18 -10l-18 41l18 10l-20 -4l-7 44l-9 42l20 5l-21 8l13 45l1 -1v32h-1l-7 43l20 4l-19 8l15 76h-1v46h21l-19 6l11 43l19 -6l-14 16l29 33l15 -17l-9 22l39 19l1 -2l13 14h-2l12 49l22 -6l6 27
l38 -11l13 19l15 -13l4 21l32 -6l25 14l-2 2l35 27l12 -19l11 20l31 -20l30 6l4 -22l11 18l33 -26l-1 -2l30 -18l-9 -18l12 14l20 -20l38 -8l-4 -22l18 8l15 -40h-1l18 -31l-15 -10l16 8l14 -36l-16 -8l17 4l7 -34l12 -29l2 3l37 -35l-16 -20l21 -3l-6 -45l-20 3l19 -6
l-10 -42l-19 5l19 -6l-11 -41l-2 -22l4 2l27 -50zM581 187l-8 -8l-5 23l17 10l-18 -6v-4l-18 39l17 11l-16 14l16 22l10 -14l17 14l-17 15l-10 -15l-16 23l17 15l-17 5l8 36l18 -3l-17 5l4 37l18 -2l-18 3l1 23l9 -6l11 22l-18 1l-2 -17l-30 20l12 22l-22 6l10 39l11 -12
l13 14l-22 7l-2 -9l-11 14l10 17l-13 -13l3 -4l-1 -1l-34 23l2 1l9 18l-10 -17l-31 19l9 17l-17 -11l-16 31l13 18l-18 -11l4 -6l-25 22l10 2l-4 22l-13 -18l7 -6l-30 -6l-4 22l1 -21l-33 -1l4 3l-11 18l1 -22l6 1l-29 -21l3 4l-14 14l11 -18l-22 -27l-14 14l11 -16l-29 -23
l-10 16l9 -20l-36 -20l5 9l-15 11l9 -21l-9 -17v4h-19l15 -11l4 7l-1 -39l-19 1l16 -8l-13 -35l-16 7l16 -8l-13 -34v4l-18 2l17 -8l1 2l-3 -34l-18 1l17 -7l-10 -27l-3 7l-18 -10l17 -8l4 11l14 -32l-17 -10l17 7l13 -37l-17 -7l17 -2l-2 -33l-17 -3l17 -1l5 -34l-17 -3
l19 -4l-9 -41l-2 9l-17 -5l19 -5l5 -19l-3 2l-13 -16l18 5l-2 9l27 -25l-13 -17l14 11l19 -30l-14 -11l21 4l5 -34l-13 5l-7 -22l22 4l-2 13l26 -10l-7 -22l13 15l20 -20l-8 -2l3 -21l12 15l-7 8l31 5l3 -22l13 19l19 -17l-14 -13l15 -18l13 18l-14 13l19 20l15 -19l-4 18
l31 9l5 -17l4 27l37 -7l-10 -17l17 -12l4 27l-11 2l11 20l-1 -5l18 -6l-17 12l10 36l19 -6l-12 15l21 20v-9h18l-11 15l-7 -6v32h19l-15 10l17 33l15 -10l-14 17l22 24l4 -14l18 6z" />
    <glyph glyph-name="P" unicode="P" horiz-adv-x="538" 
d="M485 465l3 -23l-18 -2l19 1l3 -42l-19 -1l18 -6l-10 -41l-19 6l12 -18l-33 -25l-1 1l-45 -54l-14 13l-2 -23l-32 4l-19 -21l-14 14l-5 -20l-28 8l-25 -18l-11 18l-4 -19l-47 2l-2 -33l-22 3l20 -4l-8 -86h-1l11 -78l18 -26l-3 -2l14 -12l25 6l3 -18l-2 19l35 4l1 -19
l18 -9l-16 -39l-18 9l2 -20l-32 -4l1 -1l-37 -13l-6 21l-1 -21l-36 3l1 20l-2 -20l-68 -3l-3 20l-14 -20l-22 18l-32 -19l-13 24l-19 2l4 43l19 -2l-7 6l11 16l7 -6v16l43 2l-1 1l26 29l-2 29l19 1l-18 1l2 26l-25 39l18 14l-18 -4l-7 40l18 4l-18 18l31 39v7l-1 -1l-32 39
l18 18l-18 20l27 31l-8 20l18 9l-18 -8l-14 40l17 8l-17 10l18 40h1l10 52l-32 37l17 17l-21 7l9 32l-19 16l-21 1l-9 -11l-17 20l18 17l-4 4l26 30l13 -14l4 19l102 -9v-20l12 20l29 -22l23 9l6 -19l-3 19l34 9v2l38 10l4 -21l17 20l24 -25l24 14l11 -22l15 14l24 -35
l-3 -3l12 -12v6l47 -6l-3 -25l22 -5l-6 -31l26 -20l-13 -21l18 -16zM376 471l-1 -7l-1 -1l-3 40l19 9l-21 -2l-15 35l4 -4l16 14l-19 -10l-21 32l5 -2l11 15l-15 -12l-17 16l6 1l-1 19l-11 -14l6 -6h-30l-1 20l-6 -18l-29 12h5l-2 19l-6 -18l3 -1l-29 -4l-2 19l1 -21l-24 20
l-15 -1l1 -21l15 1l1 -12l-15 -1l18 -5l-8 -35l-1 5l-19 -6l19 -5l1 6l9 -36l-18 -6l18 -10l-15 -35l-2 9l-19 -5l19 -9l2 5l7 -31l-18 -6l18 -4l-6 -33l-2 4l-18 -8l18 -4l2 8l13 -36l-19 -8l19 -9l-14 -36l-5 11l-15 -7l18 -9l2 5l9 -22l-15 1v-11l15 8v2l4 -1v11l36 -1
l-3 -1l5 -20v21l31 11l32 9l-4 -5l15 -14l-5 21l-6 -2l20 27l14 -13l-11 17l24 21l-1 -8l18 -4l-11 16l-6 -4l7 34l18 -5l-17 6l10 38l18 -5l-17 6l-1 -1l7 34l20 2z" />
    <glyph glyph-name="Q" unicode="Q" horiz-adv-x="739" 
d="M889 -141l-23 4l-10 -30l-35 13l-14 -27l-23 15l4 -23l-41 -8l-4 23l-3 -23l-41 7l3 23l-5 -19l-63 8l-1 20l-1 -20l-36 1l1 20l-22 -12l-9 20l-24 -16l-14 26l-21 -12l-16 32l-28 -4l-3 25l-16 -14l-19 25l-38 4l2 25l-26 -6l-7 39l-18 -2l-2 24l-1 -22l-39 3l1 21
l-10 -19l-67 24l2 22l-16 -14l-25 36l16 14l-17 -11l-12 25l-41 12l6 25l-23 1l1 28l-36 13l9 29l-18 -5l-8 38l17 5l-18 1l2 41l18 -1l-18 6l10 35l-8 20l-3 -3l-29 37l17 16l-20 1l2 44l20 -1l-17 24l35 30l-4 24l-3 -1l-9 50l23 5l-9 30l46 17l3 20l20 -4l-13 15l39 58
l-3 1l15 47l21 -8l-6 21l36 14l7 -20l-1 22l40 2l1 -22l4 21l22 -5l24 34l19 -17l13 21l29 -23l24 12l8 -21l-2 22l38 5l3 -21l4 21l38 -9l-4 -21l16 15l27 -37l-16 -15l19 9l9 -23l35 5l3 -28l17 9l41 -62l-13 -15l19 7l13 -42l-19 -7l21 -2l-2 -35l24 -24l-14 -18l20 -2
l9 -74l-18 -8l19 -5l-7 -31l19 -34l-18 -12l16 -13l-20 -33l2 -30l-18 -2l17 -4l-8 -39l-17 4l11 -19l-34 -25l-1 2l-6 -8l10 -54l-24 -5l4 -28l-31 -5l-4 -35l-25 4l-4 -28l-30 5l-12 -33l-24 11l5 -13l16 2l3 -21l16 15l19 -24l25 8l6 -21l1 21l76 -8l-2 -21l21 19l23 -31
l19 12l11 -22l-9 21l38 20l9 -21l4 22l40 -10l-5 -22l9 24l34 -14l18 18l23 -25l-10 -15l11 -2zM585 309l-8 -12l-12 29l18 10h-17v29l17 9l-17 -1v-8l-15 38l17 8l-19 18l28 35l7 -19l17 7l-19 19l-5 -7l-7 19l17 7l-17 -5l-9 37l16 6l-18 -2l-2 29l5 -4l12 17l-18 -2
l1 -11l-26 24l13 17l-15 -10l-16 30l13 12l-14 -10v-3l-23 33l15 12l-19 -9l-13 31l10 -3l4 22l-18 -9l4 -10l-30 7l3 2l1 20l-4 -20l-34 2l2 21l-17 -19l-16 17l16 19l-18 19l-16 -19v-39l-18 19l2 -20l-33 -5l-4 19l2 -19l2 -2l-29 -8l4 9l-17 10l4 -21l9 2l-14 -29l-17 9
l9 -20l-33 -18l4 11l-17 8l9 -21l4 2l-6 -17l-20 -2l17 -7l3 8l4 -42l-20 -3l12 -22l-34 -22l1 17l-18 1l11 -22l6 4l-2 -23l-18 1l17 -5l-7 -27l-2 5l-18 -11l17 -6l3 12l17 -36l-18 -10l16 -8l-13 -36v5l-17 2l16 -8l-3 -15l-16 -17l18 -1l1 15l27 -32l-16 -17l20 -16
l-20 -31l-13 17l-15 -14l20 -16l8 13l12 -17l-15 -14l16 7l8 -27l-12 -15l16 7l-3 7l27 -26l-12 -15l17 3l6 -37l-17 -4l22 4l5 -37l-12 6l-8 -21l21 4l-1 11l25 -13h-3l-5 -21l8 20l33 -11l-5 -20l18 16l21 -30l-16 -4l5 -23l18 16l-7 11l24 6l-5 -3l10 -19l-4 22l29 19
l10 -19l-1 21h35l3 -20v20l-4 3l32 6l-5 -11l18 -10l-3 22l-10 -1l14 29l-1 -5l19 -5l-18 10l9 37l19 -5l-13 12l22 29l13 -12l-11 20l34 23l-4 -13l17 -6l-11 21l-2 -2l5 14l19 5l-17 6l-2 -9l-9 41l19 5l-16 14l16 23l6 -12l18 10z" />
    <glyph glyph-name="R" unicode="R" horiz-adv-x="661" 
d="M622 -55l-11 -28l-48 23v1l-28 -6v-1l-45 -9l-4 25l-15 -14l-26 34l1 1l-24 30l14 14l-21 -1l-2 46h2l-5 21l-37 16l9 24l-19 -4l-22 70l15 11l-16 -9l-38 62l13 13l-15 -8l-9 18l-31 -4l-2 24l-7 -27l-12 4l2 -11l-24 -4l20 1l3 -44l-20 -1l20 -5l-9 -45l15 -73l-20 -10
l17 7l12 -37l-17 -6l22 -10l-12 -33l2 -1l23 22l15 -19l8 -3l-5 -18h-1l1 -12l-7 -1l11 -18l-33 -23l-10 18l-5 -22l-32 9l-35 -15l-8 22l2 -22l-40 -5l-2 23l-6 -22l-30 10v-3l-49 -7l-3 27l-22 -4l-9 49l23 5l2 13l22 -5l1 4l26 -2l12 8l-6 30l19 5l-16 7l13 35h-1l7 27
l-20 34l18 14l-18 1l2 40l18 -1l-18 6l12 40l4 74h18l-18 10l9 20l-27 30l18 20l-18 16l28 40l1 -1l-9 59l18 5h-18l-1 39l18 1l-19 6l8 30l-34 47l-21 -9l-6 19l-3 2l-14 -3l-5 31l14 3l7 20l25 -10l28 21l12 -20l13 20l25 -20l23 15l10 -20l4 20l30 -7l31 12l6 -20l3 20
l67 -9l-1 -19l9 18l33 -20v-1l11 -3l43 21l9 -22l13 15l27 -27l2 2l32 -29l-13 -18l20 6l12 -44l-20 -7l20 1l1 -41h2l8 -48l-22 -5l18 -16l-29 -39l-18 16l15 -15l-22 -27l-7 -40l-21 4l2 -23l-28 -2l-14 -33l-20 11l2 -14h9v-21h22v-35l24 -12l-9 -21l16 9l13 -30l2 2
l56 -66l-14 -16l16 9l33 -74l-16 -9l22 3l2 -23l36 -2l-2 -30l3 -8l18 5l9 -40zM412 516l-6 33l3 -4l15 10l-18 -4v-2l-16 29l15 11l-16 -10l-15 29l8 -2l5 18l-15 -10l2 -6l-25 10h4l1 19l-6 -19l-30 3l2 19l-7 -18l-33 15l4 -1l3 19l-7 -18l-22 5l-5 19l-3 -18l6 -1
l-20 -6v16l-18 -1l4 -19l14 4l1 -23l-18 -1l18 -1l-2 -35l-18 -4l18 -2l1 5l7 -40l-18 -4l18 -3l-6 -36l-18 -2l18 -3l3 -35l-18 -2l18 -6l-10 -40h-1v6h-18l18 -6l1 -33l-18 -1l21 -1v-16l-27 -8l5 -21l20 -1l2 30l11 3l5 -21l-1 18l32 2l1 -18l-1 17l27 1l4 -17l-1 17
l-4 1l27 8l9 -16l-4 18l-5 -1l27 18l-2 -3l14 -11l-10 16l14 23l16 -8l-14 11l-2 -2l16 36l16 -9l-17 12l19 33v-7l19 -1l-17 12l-2 -4l2 35l1 -5l18 4z" />
    <glyph glyph-name="S" unicode="S" horiz-adv-x="512" 
d="M460 532l-9 -20l-36 20l-5 -3l-5 10l-22 8l11 39l-11 14l-33 12l6 21l-15 -12l-15 23l-27 -3l-2 20l-14 -18l-29 28l-44 -24l-10 16l6 -19l-28 -11l-10 -26l-16 8l13 -15l-13 -15l15 -24l-17 -14l18 3l4 -40l-18 -2l24 -1v-43l57 -30l-1 -1l38 -10l-4 -22l24 8l13 -54h-2
l9 -8l44 -2l-1 -25l15 14l25 -34l24 -28l-13 -15l14 12l44 -50l-10 -15l18 -8l-14 -39l4 -19l-14 -4l18 2l3 -40l-18 -2l16 -10l-18 -34l-15 9l13 -11l-20 -30l-14 12l13 -13l-47 -56l-13 13l12 -16l-29 -25l-12 16l4 -20l-32 -7l-35 -16l-7 19l2 -20l-36 -5l-2 20l-1 -19
l-35 3l1 20l-13 -18l-20 19l-25 -16l-11 21l-14 -16l-32 32l-14 3l2 16l-18 -6l-11 38l18 6l-19 3l5 41l19 -3l-19 6l6 20l-30 47l22 18l1 26l47 -1l-1 -26l8 4l8 -16l-8 -5l22 -6l-8 -37l19 -24l-1 -1l28 -27l-13 -16l19 12l11 -23l28 10l7 -25l16 19l15 -15l14 20l19 -16
l-2 17l32 5l2 -17v24h37l8 13l-6 37l21 5l-16 4l7 30h-2l1 32l-18 28l15 11l-15 -10l-45 47l9 17l-16 -11l-16 30l-26 15v-1l-43 8l4 24l-10 -21l-37 20l9 21l-17 -14l-25 38l-57 56l13 17l-18 -2l-3 39l17 2l-15 2l-5 57l13 5l-15 6l5 18l-18 50l21 10l-6 25l41 12l8 20
l16 -8l-18 11l19 41l18 -11l3 23l41 -6l-3 -23l3 20l29 -6l24 16l-2 2l33 28l13 -19l3 24l81 -7l1 -24l14 20l36 -32l-2 -2l30 -12l-6 -20l20 3l6 -45l-20 -3l21 -3l-5 -33l22 -47z" />
    <glyph glyph-name="T" unicode="T" horiz-adv-x="668" 
d="M641 550l-20 1l22 -2l-4 -48l-22 2l-10 -19l-35 23l1 3l-4 6l-19 -10l-19 43l20 10l-20 -7l-9 31l-19 -1l-1 19l-6 -18l-64 21h-30v19l-9 -28l-5 -2l13 -39l-19 -8l19 -12l-18 -32l11 -28l-18 -9l18 -6l6 -110l-18 -6l18 -6l-11 -40l-4 -37l-18 2l18 -4l-1 -73l-18 -3
l18 2l4 -41l-18 -2l18 -10l-15 -34l7 -27l16 -39l-17 -9l15 6l8 -25l24 -15l-8 -17l11 20l27 -18l2 3l9 -7h20v-43l-19 -1l3 -25l-46 -9l-4 26l-1 -22l-39 3l1 22l-4 -22l-76 16l3 22l-6 -22l-27 9l-33 -22l-12 21l-5 -23l-41 12l6 23l-14 7l8 20l-4 4l34 40l18 -18l7 28
l24 9l-16 11l7 102l19 5l-19 11l20 41h1l1 16l-27 38l19 16l-19 15l22 33l-8 26l18 7l-18 -3l-7 40l18 4l-18 11l18 37l-4 30l18 3l-18 4l9 62l-30 35l17 18l-16 6l2 5l-33 -4l-2 18l-3 -20l-61 -2l-4 18l2 -18l-22 -4l2 -2l-26 -26l2 -40l-23 -1l12 -3l-4 -28l-13 2
l-10 -20l-37 23l11 20h-18v41h18l-19 1l3 43l19 -2l-18 7l-1 76l21 5l4 26h75l6 -21l6 20l37 -13l-6 -21l9 21l37 -18v-1l19 -3l35 28l14 -21l12 25l34 -21l32 16l10 -25l11 22l38 -24v-1h20l35 21l10 -21l-5 21l38 10l5 -21l-1 21l37 2l1 -21l4 18l32 -8l-3 -18l17 13
l24 -38l-18 -13l19 5l10 -42l-19 -5l19 -1zM249 601l-2 15l2 -17l1 3z" />
    <glyph glyph-name="U" unicode="U" horiz-adv-x="697" 
d="M669 630l-2 1l2 -5l-30 -17l-7 17l-1 -22l-28 -28l6 -31l-18 -4l17 1l2 -39l-18 -1l18 -4l4 -68l-17 -6l17 2l9 -77l-17 -3l17 -4l-7 -38l-17 3l18 -4l-9 -39l-17 4l17 -7l-15 -57l28 -39l-19 -17l18 -9l-13 -31l9 -38l-20 -7l16 -8l-16 -35l-16 8l15 -10l-18 -32l-15 10
l4 -21l-60 -22l-28 -34l-15 15l-3 -23l-31 4l-30 -24l-13 20l-9 -22l-39 20l1 4l-53 -1l1 -4l-40 -15l-7 22l-6 -19l-35 15l7 19l-16 -11l-21 36l3 2l-19 28l13 11l-16 -3l-5 30l-19 19l10 14l-17 -3l-3 25l-32 37l17 18l-19 9l17 42l1 -1l16 73h18l-19 2l2 20l-35 39l18 20
l-18 20l27 32l-8 21l18 9l-18 7l-4 108l1 1l-12 36l17 7l-14 -4l-6 27l-14 9l6 11l-15 -17l-20 22l-5 -6l-27 18l12 37l17 -6l3 20l37 -5l-2 -21l5 19l30 -10l24 7v2l34 23l11 -19l16 19l27 -29l18 8l8 -19l1 17l32 -2l-2 -18l10 -8l-14 -21l2 -15l-30 -5l-16 -8l3 -2
l-16 -23l10 -30l-18 -8l18 -13l-20 -37l5 -28l-18 -4l18 2l4 -41l-18 -2l18 -3l9 -71l-19 -8l19 -6l-10 -41l-18 6l18 -8l-13 -62l3 1l21 -44l-20 -12l19 6l10 -43h-1l11 -41l-19 -6l22 -2l-4 -39l20 -24l-15 -16l17 12l12 -23l32 5l4 -24l21 14l16 -30l19 9l8 -21l8 20
l24 -12l19 20l14 -16l-7 17l23 12l10 29l16 -7l-14 11l18 30l14 -10l-12 22l9 40l21 12l-17 2l3 39l17 -2l-17 11l19 36l-1 29l17 1l-17 4l10 66l-17 37l18 10h-17l-10 113l17 3l-17 3l6 39l-12 64l16 8l-15 -2l-2 28l-12 12l-29 6l2 13h-3l-20 -7l-14 45l21 7l13 26l42 -27
l17 9l9 -19l9 20l20 -12l25 24l15 -19l3 19l35 -5l-2 -19l4 20l36 -10l-5 -20l14 -7z" />
    <glyph glyph-name="V" unicode="V" horiz-adv-x="721" 
d="M696 638h-2l5 -8l-44 -34l-1 3l-12 -65l-20 2l16 -8l-14 -36l-17 8l13 -18l-28 -25l-4 -29l-19 3l17 -9l-16 -36l-16 9l13 -19l-31 -26l-5 -23l-1 -43l-19 1l12 -18l-15 -13l14 -38l-23 -11l16 -9l-16 -36l-16 9l13 -16l-22 -23l2 -33l-20 -2l17 -7l-13 -37l-16 7l12 -19
l-28 -22v-29h-19l12 -20l-30 -22v-25h-18l-3 -10l-18 8l3 10l-15 -4l-6 31l-2 -1l-39 60l13 15l-15 -11l-20 34l16 11l-20 1l1 43l-47 93l15 13l-17 -7l-39 59l14 16l-23 9l16 50l-19 42l-1 -2l-42 23l10 23l-21 6l6 30l-25 15l11 22l-21 5l-16 100l-32 9l3 12h-14v10l-9 10
l18 20l9 -11l3 18l12 -3l39 38l17 -21l18 21l37 -38l20 1l31 10l5 -19l13 11l20 -29l-13 -11l4 -13l-23 -10l-5 13l-2 -17l-13 2l1 -25l1 1l7 -26l1 2l27 -32l-14 -14l17 5l10 -39l-17 -5l19 2l4 -35l21 -27l-15 -14l23 -8l-13 -50v-4l48 -20l-9 -28l20 -2l-4 -45l12 -26
l-16 -9l19 1l1 -34l23 -25l-14 -15l19 2v-1l17 8l-14 15l22 25l-1 34h20l-16 11l19 35l15 -10l-10 24l15 42l23 9l-16 11l19 34l16 -10l-14 16l19 20l-7 37l21 5l-14 13l23 33l14 -13l-12 21l30 21l-1 27l19 1l-12 9l16 24h-2l4 8l-17 3l2 21l-8 -11l-20 20l3 4l-11 4l2 8
l-16 3l6 35l16 -3l-6 24l43 13l5 -24l15 23l31 -24l26 13l9 -23l4 21l38 -8l-4 -21l11 -2zM381 108l1 -12l4 -1z" />
    <glyph glyph-name="W" unicode="W" horiz-adv-x="966" 
d="M940 635l5 -3l-5 -12l-6 3l11 -10l-17 -22l2 -2l-14 -23l-2 -39l-19 2l17 -10l-17 -37l-17 10l13 -23l-41 -29l-11 -60l-18 3l17 -6l-16 -62l16 -48l-21 -9l15 -15l-28 -33l-6 -16l16 -45l-22 -9l18 -7l-12 -38l-17 6l12 -25l-38 -23l1 -21l-19 -1l14 -19l-27 -24l4 -28
l-20 -4l14 -5l-11 -30l-13 6l13 -18l-33 -29l-13 18l-28 9l15 63l7 -2l-21 49l-1 -3l-44 27l12 24l-20 1l1 40l-16 30l16 11l-18 -7l-32 72l17 11l-23 8l10 36l-21 19l14 19l-25 15l23 46l-11 15l16 14l-18 -8l-20 46l-9 -9l12 -34l-22 -10l14 -17l-30 -33l-7 -28l-18 5
l15 -15l-16 -19l15 -38l-23 -11l19 -4l-7 -41l-18 3l12 -26l-27 -15l9 -25l-22 -10l18 -6l-10 -40l-18 6l16 -15l-27 -35l-16 15l15 -17l-18 -18l14 -35l-22 -11l9 -21l-31 -15l1 -1l-33 -36l-16 18l-26 -1l-2 57l26 1l-20 5l5 27l-28 22l13 21l-18 -6l-11 39l18 6l-20 2
l-9 71l17 8l-21 8l12 40l-9 16l-1 -3l-40 29l13 22l-21 7l13 47h2l-22 55l-26 33l15 15l-22 11l20 49l-24 49l-23 35l1 1l-23 19l11 15l-17 -9l-18 37l2 1v9l-8 10l18 17l8 -10l4 15l19 -7v3l35 7l3 -20l4 20l51 -7l-2 2l35 37l17 -20l7 19l33 -17l-7 -19l13 2l4 -29
l-58 -24l-4 -14l8 -48l34 -18l-12 -26l23 -16l-18 -32l16 -13l-13 -20l19 -3l1 -73l-17 -5l19 -1l-1 -19l40 -21l-11 -26l20 -6l-11 -45h-1l3 -21l25 -30l-14 -15l17 5l16 68l20 3l-16 9l16 37l16 -9l-15 15l9 11l-29 42l25 21l-18 6l12 39l18 -6l-13 25l46 27l2 -4l7 14
l-11 41l21 7l-17 9l16 37l17 -9l-15 16l23 25l-4 33l20 2l-8 14l19 14l-5 4l23 40l46 -21l-9 -43l23 -15l-12 -23l21 -4l-5 -40l17 -25l-16 -13l17 10l17 -38l-17 -9l21 -2l-3 -45l27 -99l2 2l36 -30l-14 -20l22 -5l-10 -48h-1l16 -69l-18 -7l18 6l7 -34l5 -2l5 3l1 -1l4 14
l-25 49l22 14l-14 15l33 61l18 -5l-15 14l28 53l-9 44l20 5l-13 20l16 14l-16 31l22 15l-16 9l16 36l16 -9l-11 26l14 7l-13 15l19 20l-11 14l15 17l-14 -9l-11 22l-8 -7l-12 18l8 6l-24 -5l-10 54l25 6l8 30l52 -18l24 13l10 -22l3 22l40 -7l-3 -22l11 20l36 -26l-11 -20
l10 1l2 -23zM336 122h1l3 1z" />
    <glyph glyph-name="X" unicode="X" horiz-adv-x="656" 
d="M605 -54l2 -3l-25 -24l-11 13l-12 -19l-28 22l-23 -10l-7 20l-5 -19l-25 8l-30 -18l-10 19l-3 -18l-33 7l3 19l-12 -2l-3 28l13 2l5 3l-10 18l20 12l-4 5l12 14l-13 -11l-19 29l13 11l-18 -5l-9 40l18 5l-21 -1l-1 37l-53 44l12 17l-16 -10l-17 35l-2 -20l-20 1l12 -16
l-29 -26l-21 -28l-14 13l13 -14l-14 -17l7 -45l-23 -5l14 -12l-21 -31l-2 1l-6 -24l19 4l2 -16l2 13l24 -4l-2 -13l11 -12l-22 -25l-12 12l6 -16l-29 -11l-5 16l1 -20l-69 -7l-2 20l-6 -20l-35 14l6 20l-5 -13l-23 12l5 13l-4 -3l-5 11l4 2l-5 30l51 12l20 69l22 -5l-11 17
l30 26l34 60l16 -9l-13 15l20 22l3 40l20 -2l-16 9l15 37l16 -9l-9 26l26 12l-4 13l-30 18l10 21l-14 -14l-25 32l14 13l-19 -4l-7 34l-26 21l12 18l-14 -14l-25 32l14 13l-16 -9l-16 36l16 9l-26 2l3 52l-9 11l-34 -9l-5 26l-7 -14l-23 15l6 13l-10 14l25 22l10 -14l-9 16
l28 21l9 -16l-4 20l37 10l4 -21l18 21l33 -36l51 11l-2 6l47 23l10 -26l18 -13l-23 -41l-15 11l6 -14l-25 -14l10 -25l-13 -6l22 -8l-11 -38l14 -19l35 -31l-13 -19l19 8l12 -37l16 -3l-15 16l26 31l14 38l20 -8l-11 25l28 15l-4 35l25 4l-14 25l6 5l5 12l-6 -2l-2 6l-11 5
l10 24l11 -5l1 17l16 -2l37 29l12 -20l16 20l35 -35l9 1l2 -15l6 -1l-1 -14h-5l-1 -3l5 -25l-63 -31l-6 -43l-23 4l16 -8l-15 -35l-16 8l15 -11l-20 -32l-14 11l11 -16l-23 -21l-6 -32l-18 4l11 -17l-27 -21l2 -2l-12 -16l20 -20l-16 -20l16 11l20 -37l-16 -11l18 7l10 -35
l26 -25l-13 -17l14 15l27 -30l-13 -16l19 5l8 -44h-1l7 -29l32 -20l-11 -21l14 18l32 -32l-14 -17l22 7l10 -38l28 -24l1 2l16 -22zM250 615zM295 224v-8l16 9z" />
    <glyph glyph-name="Y" unicode="Y" horiz-adv-x="624" 
d="M594 641l-3 -4l4 -8l-45 -31l-9 -27l-20 9l18 -12l-22 -39l-17 12l10 -22l-30 -19l-2 -32l-21 1l19 -6l-11 -42l-19 6l12 -21l-28 -19l-1 -35h-21l11 -21l-27 -17l4 -30l-21 -3l18 -10l-14 -29l12 -36l-20 -8l20 -6l3 -117l-19 -7l19 -10l-15 -33l28 -18l1 -24l11 19
l29 -20l1 1l7 -8l15 -2l-5 -33l-15 2l-7 -22l-40 16l1 2l-67 -1l-3 21l1 -21l-38 -3l-1 21l-2 -21l-28 2l-36 -22l-11 21l-10 -16l-29 24l11 16l-7 -4l-7 14l12 4l5 18l22 -7l14 28l6 -3l2 24l14 -1l-16 3l6 36l16 -3l-20 6l11 44l2 78h1l-5 42l-9 37h1l-12 35l16 7l-23 1
l-32 113l16 12l-16 -11l-49 63l15 16l-19 -7l-13 42l3 1l-36 49l11 16l-16 -11l-14 24l-32 4l1 9l-3 -3l-19 30l14 11l6 21l38 -13v-2l60 10l4 -20l2 20l62 7l6 -19l5 18l32 -12l-5 -18l12 1l1 -27h-12l9 -4l-8 -20l-9 5l2 -20l-17 -2l11 -35l1 2l43 -22l-9 -24l23 -2
l-3 -48l16 -22l-16 -13l16 12l44 -70l-16 -12l10 7l6 -9l9 4l11 37l19 -6l-18 9l13 30h-1l1 48l21 -1l-13 18l31 29l1 -1l17 30l16 -11l-13 11l18 25h-1l3 7l-24 8l6 25l-7 -5l-8 15l6 5l-18 -5l-8 42l18 4l15 27l32 -23l25 22l15 -22l1 22l40 -2l-1 -22l9 20l35 -19l-8 -20
l11 3l6 -25z" />
    <glyph glyph-name="Z" unicode="Z" horiz-adv-x="519" 
d="M475 -71l-13 -27l-35 20l-22 -20l-15 21l-14 -19l-34 31l1 1l-53 -7l-5 20l-3 -20l-22 4l-33 -27l-13 20l-2 -20l-35 5l2 19l-9 -19l-30 17l-25 -9l-6 19l3 -23l-41 -6l-3 23l-11 -18l-33 25l11 18l-6 7l9 10l-6 3l9 33l-2 1l8 41l18 -5l-17 7l11 38l9 40l18 -5l-12 16
l45 57l15 -10l-15 11l37 107l18 -5l-10 21l31 19l5 29l19 -4l-16 11l19 34l16 -11l-15 11l27 68l18 -6l-13 15l24 25l7 35l18 -5l-16 8l15 36l16 -8l-13 14l23 28l-2 2l4 6l-8 2l-34 -23l-14 24l-7 -22l-38 16v1l-93 -20l-7 -22l-15 5l11 -5l-10 -25l2 -1l-12 -30l-13 7
l-2 -8l-9 2l2 -7l-29 -11l-5 16l-17 -4l-7 40l18 3h-18l-1 40h18l-18 14l20 32l-10 22l17 9l4 19l19 -5l36 27l13 -21l5 20l36 -11l-5 -20l7 20l64 -9l2 -20l11 20l30 -20l27 10l6 -21l7 20l28 -12l31 13l7 -20v19h35v4l43 2l1 -24l13 -6l-11 -29l-13 6l15 -9l-16 -33l-15 9
l15 -12l-12 -18l10 -50l-23 -6l11 -18l-34 -26l-17 -20l-5 -38l-19 4l11 -19l-19 -15l6 -39l-23 -4l9 -23l-33 -17l-4 -27l-19 3l12 -17l-45 -54l-12 -23l4 -49l-22 -2l10 -22l-26 -13l4 -32l-22 -3l14 -14l-38 -64l19 21l39 2l20 -21l2 18l34 -5l-3 -19l10 19l33 -21l49 18
l1 -2l18 13l4 25l14 -3l-11 17l7 36l17 9l3 12l21 -5v-2l17 -2l-1 -10h15l-1 -31h6l1 -36l15 -45l-20 -8h22v-48h-21z" />
    <glyph glyph-name="bracketleft" unicode="[" horiz-adv-x="338" 
d="M285 -151l5 -1l-3 -11l-4 2l-6 -13l-12 6l-31 -4l1 -1l-35 -22l-9 19l2 -19l-34 -5l-2 19v-19h-35v19l-8 -12l-22 17l8 13h-13v17l-5 -5l-30 40l19 17l-18 23l21 20l-16 17l18 21l-18 3l6 40l18 -3l-18 12l10 20l-25 29l18 20l-18 8l13 40l19 -7l-19 18l20 25l-15 22
l18 16l-18 7l13 40l8 34l-9 34l19 6l-19 7l8 25l-23 33l18 16l-18 6l2 108l18 7l-18 6l10 34l-9 35l18 5l-18 15l24 37l-19 59l17 8l3 19l51 -5l34 33l15 -19l10 19l67 -40v-1l17 4l3 -15l9 -2l-3 -20l-9 2l6 -16l-28 -12l-6 16l-2 -20l-66 1l-2 19l-5 -24l-21 5l-5 -19
l38 -70l-18 -13l18 -11l-17 -36l6 -30l-18 -5l18 -20l-24 -27l12 -21l-18 -13l18 -8l-9 -28l20 -33l-19 -13l19 -14l-21 -35l7 -27l-19 -6l19 -8l-9 -27l20 -33l-18 -14l18 -8l-11 -30l15 -33l-18 -10l18 5l10 -41l-18 -5l18 -21l-37 -41l-3 3l2 -51l2 1l24 -41l-19 -13
l23 -11l-6 -14h9v-3l27 8l-1 3l38 21l10 -22l15 13l22 -34z" />
    <glyph glyph-name="backslash" unicode="\" horiz-adv-x="536" 
d="M505 -46l-14 5l14 -29l-52 -33l-15 29l-26 -4l-5 49l-24 13l10 22l-18 -6l-10 40l18 6l-22 1l1 31l-27 13l9 23l-23 3l4 49h1l-11 25l16 9l-17 -7l-8 25l-37 18l9 23l-14 -15l-26 30l13 15l-22 3l4 44l-15 20l14 14l-21 -2l-41 96l13 14l-18 -6l-7 26l-35 20l10 21
l-18 -6l-34 60l13 15l-19 -3l-5 40l-18 25l15 13l-15 -9l-16 32l14 9l7 26l47 -16l-1 -3l38 -7l-3 -23l18 7l13 -38l-18 -8l23 -3l-5 -38l21 -16l-11 -19l12 17l29 -28l-12 -17l24 -5l-11 -53l4 -9l39 -20l-9 -23l15 11l20 -34l-16 -11l24 -4l-4 -26l29 -9l-7 -27l16 10
l19 -34l-16 -11l24 -6l19 -39l-8 -25l21 1l2 -45l18 -57l36 -23l-11 -20l13 15l28 -28l-13 -16l23 -3l-4 -32l25 -13l-9 -23l14 -5z" />
    <glyph glyph-name="bracketright" unicode="]" horiz-adv-x="355" 
d="M293 639l18 -12l-22 -38l2 -28l-18 -2l18 -14l-26 -40v-5l36 -40l-18 -20l18 -8l-11 -31l13 -32l-17 -9l17 -5l2 -109l-18 -5l18 -8l-14 -40l-18 8l18 -16l-12 -17l25 -23l-18 -24l18 -2l-4 -40l-18 3l18 -20l-30 -34l5 -20l-18 -6l18 -4l3 -110l-17 -4l15 2l5 -35
l-16 -2l-6 -17l-28 12v-1l-10 3l-30 -46l-24 19l-16 -19l-33 36l1 2l-6 2l3 -4l-49 -36l-31 44l30 34l15 -17l-7 12l20 16l8 -11l-1 20l35 2l1 -20l5 19l30 -10l15 10l-3 3l16 18l-18 24l18 16l-18 10l16 35l-8 30l18 6l-18 5l6 22l-29 35l18 19l-18 10l18 40h1l2 32l19 -2
l-18 6v152l19 3l-19 4l9 59l-33 39l18 19l-18 7l13 40l10 76l18 -3l-18 6l18 66l-17 17l-13 -6l-5 15l-10 -19l-35 20l1 1l-18 6l-42 -22l-10 24l-25 2l3 55l25 -2l15 23l26 -22l17 19l16 -19l13 19l16 -13l21 26l18 -19l14 19l33 -31l14 3l3 -16l16 -3l-3 -27l13 -37
l19 -40z" />
    <glyph glyph-name="asciicircum" unicode="^" horiz-adv-x="565" 
d="M517 147l-8 -27l-48 16l8 27l-8 -18l-34 18l8 18l-17 -8l-15 39l18 8l-19 -5l-27 69l15 12l-16 -10l-36 73l16 10l-19 -4l-22 73l16 10l-19 -4l-8 42l-13 32l-10 6l-8 -8l2 -1l-17 -38l-16 10l16 -12l-23 -70l-19 3l18 -6l-11 -41l-18 6l16 -10l-18 -36l-16 10l14 -14
l-21 -26l-3 -39l-20 3l16 -11l-20 -36l-16 11l12 -19l-23 -17l1 -44h-25l-5 -32l-57 12l6 32l-18 7l13 38h-1l11 41l18 -6l-13 16l25 26l5 35l19 -4l-17 10l17 37l17 -9l-16 11l20 36l16 -11l-14 15l21 23v40h21l-17 9l16 38l17 -9l-15 12l29 69l19 -6l-12 21l29 20l1 31
l21 -1l-12 13l23 26l11 -13l12 14l25 -26l-12 -14l19 5l57 -148l-16 -11l18 8l36 -65l-14 -14l15 12l23 -34l-15 -12l22 -2l-4 -43l18 -23l-15 -14l18 7l38 -60l-13 -17l16 11l19 -35l-16 -11l21 4l8 -47z" />
    <glyph glyph-name="underscore" unicode="_" horiz-adv-x="596" 
d="M583 -105h-30l-9 -24l-30 14l-27 -23l-14 20l-14 -20l-26 21l-24 -16l-11 21v-21l-37 -1l-1 21l-4 -21l-105 -1l-3 21l-4 -21l-67 1l-4 21l2 -21l-37 -4l-2 21l-11 -21l-31 20l-28 -9l-5 21l-7 -15l-25 14l6 14l-20 -2l-3 45l20 2l-10 17l31 22l10 -17l11 21l36 -25l26 3
l1 -21l4 21l101 6l8 -21l1 21l108 5l3 -21l9 21l61 -18v1l35 9v1l37 16l7 -20l5 23l42 -11l-5 -23h30v-67z" />
    <glyph glyph-name="grave" unicode="`" horiz-adv-x="290" 
d="M258 556l2 -23l-40 -4l-2 22l-16 -15l-26 35l-60 41l11 18l-15 -14l-53 45l8 20l-13 -17l-30 29l13 17l2 19l34 -5v-2l30 -2l27 3l1 -16l12 16l28 -27l-12 -15l13 15l27 -28l-13 -15l15 12l22 -33l-15 -13l17 11l45 -57z" />
    <glyph glyph-name="a" unicode="a" horiz-adv-x="536" 
d="M521 -5h-13l13 -21l-39 -30l-13 21l-8 -25l-45 18l3 10l-24 2l1 15l-10 -10l-18 19l-4 -7l-35 26l11 17l-13 1l6 -11l-53 -47l-14 13l-1 -19l-35 1v1l-21 -11l-6 16l-1 -17l-28 1l1 -9l-46 -5l-2 25l-12 -22l-40 26l12 23l-24 -4l-7 53h2l-14 39l20 9l-20 -2l-4 43l20 2
l-10 21l31 18l8 31l19 -6l-9 18l32 20l9 -18l-6 19l33 14l7 -18l2 21l57 4l29 28l12 -17v18h29l8 6l-6 25l16 5l-16 3l5 36l16 -3l-15 4l5 28l-11 24l13 8l-17 -6l-7 26l-23 2l2 19l-7 -17l-28 15l-24 -4v-1l-8 -2l-26 -64l-16 8l3 -6l-8 -4l9 -14l-24 -20l1 -1l-27 -22
l-10 15l-5 -19l-33 12l5 19v5l-16 -2l-4 46l21 2l-17 13l24 38l16 -14l-15 15l27 34l15 -15l-6 22l39 14v-2l35 15l7 -20l-4 20l37 10l5 -20l3 21l28 -6l35 20l10 -22l14 18l32 -31l-2 -2l27 -11l-6 -19l16 5l30 -60l-14 -13h17l-1 -38h-17l20 -3l-5 -45l-21 3l20 -4l-5 -32
l21 -40l-20 -13l20 -8l-13 -40l8 -34l-19 -6l17 -3l-5 -33l11 -31l-16 -8l18 -3l-3 -29l41 -24l22 11l6 -17l14 -1zM341 33zM328 253l-20 -2l3 -28l-32 -5l3 2l-7 17l2 -19h2l-28 -16l-8 18l5 -19l-31 -11l3 3l-11 15l6 -19l-21 -19l-12 14l11 -15l3 -1l-23 -26l1 9l-21 2
l15 -17l5 6l-3 -36h-5v2h-15l15 -2v-23l-6 5l-9 -14h15v9l19 -15l-9 -14l8 11l17 -15l-5 -14l8 11l-3 3l15 -8l5 -18l5 14l-9 4l30 11l-2 -2l7 -16l-5 18l45 27l19 -10l-8 17l-11 -7l-1 1l19 42v-8h21l-20 11l-1 -3v40h1l1 47l1 -2l20 2h-20l-1 13h2l-3 20l5 -10l17 10z" />
    <glyph glyph-name="b" unicode="b" horiz-adv-x="607" 
d="M556 290l19 -12l-22 -41l-1 1v-26h-17l17 -3l-5 -37l-16 2l16 -5l-9 -30h1v-42h-19l18 -6l-12 -40l-18 6l15 -11l-21 -33l-15 11l10 -18l-33 -21l-10 19l-1 -24l-42 3v1l-14 -10l2 -2l-28 -32l-14 16l-9 -21l-21 11l-22 -27l-18 18l-1 -21l-37 3l1 21l-8 -20l-35 18v1
l-33 12l6 20l-12 -21l-19 13l-6 -14l-18 10l3 -17l-31 -6l-2 17l-19 -2l-5 42l19 3l-18 8l15 42h1l1 72l19 2l-19 -1l-3 42l19 1l-19 2l3 69h-1l-22 41l19 13l-19 5l7 31l-17 37l19 10l-19 6l11 41l19 -6l-19 15l25 40l-20 58l18 11l-20 9l10 26l-24 20l14 21l-20 1l1 15
l-10 -3l-5 21l-15 -7l-12 35l5 2l-8 6l4 8l-1 21l32 2l20 22l13 -15l12 25l44 -26l29 36l15 -13l19 -2l16 -71l-18 -10l18 -14l-23 -41l-2 1l-5 -22l19 -36l-19 -13l19 -5l-18 -80l28 6l2 -9l13 16l-4 1l20 46l21 -11l1 27l49 -2l-1 -27l3 23l43 -7l-1 -3l27 -3l-2 5l48 20
l8 -27l19 14l19 -31l40 -10l-6 -26l18 9l17 -40l-18 -9l19 4l22 -74l-16 -9l18 4l8 -41zM439 172l-1 40v-2l19 3l-19 -1l-4 39l18 3h-19v39l1 -5l18 8h-19v-3l-13 34l17 8l-18 -7l-13 42l1 1l6 -7l12 13l-18 -6l-11 13h5l1 21l-13 -13l7 -8l-33 2l1 21l-4 -16l-29 9l4 16
l-11 -16l-21 18l10 4l-7 19l-11 -17l8 -6l-22 -11l-7 18l3 -18l-28 -5l-8 17l3 -18l5 1l1 -3l-35 -21l-1 1l5 6l-14 13l9 -19l-17 -20l1 6l-16 4l13 -13l2 3l-4 -23l-1 1l-17 -5l17 -3l1 7l9 -37l-18 -5l18 -5l-10 -39v6l-17 -1l17 -5l1 -32l-17 -1h17q1 -35 2 -38l-18 -1
l18 -5l-9 -36l-1 5l-17 -3l17 -5l1 3l4 -34l-1 1l-17 -3l17 2l4 -28l-15 -11l17 3l-2 8l2 1l16 -31l-12 -18l16 12l-3 6l27 -23h-7v-23l12 19l-5 4l34 -1v-22l2 20l30 -4l4 -21l2 20l-6 1v1l38 10l-5 -3l11 -19l-5 22l27 19l11 -18l-10 19l33 26l-3 -4l15 -15l-12 19l21 25
l-2 -5l19 -7l-14 15l-3 -3l10 36v-4l19 -2l-18 7l-1 -1l3 36l19 1z" />
    <glyph glyph-name="c" unicode="c" horiz-adv-x="490" 
d="M442 417l2 -1l-23 -43l-20 13l-13 -12l-23 30l-23 18l10 15l-15 -11l-16 26l-25 6l3 18l-10 -17l-16 12l-26 -22l-14 19l1 -24l-36 -2l-15 -18l2 -41l-22 -1l15 -17l-20 -22l13 -32l-21 -10l19 -7l-12 -37l9 -27l-17 -7l17 2l24 -97l-14 -8l21 -2l-2 -23l26 -4l-3 -26
l15 13l40 -44l30 19l11 -22l12 20l22 -18l17 17l13 -16v19h34v-5l18 8l4 -12l19 2l2 -41l-18 -2l12 -17l-30 -26l-12 17l6 -23l-40 -14l-6 22l3 -23l-41 -8l-4 23l-1 -23l-42 4l2 23l-12 -20l-36 24h-27v21l-8 -19l-34 19l9 18l-11 -16l-59 42l8 18l-10 -19l-33 24l10 19
l-16 -12l-21 35l16 12l-21 1l2 46h2l-21 113l18 4l-17 7l13 37l9 33l6 39l18 -3l-9 20l26 13l4 33l20 -3l-6 20l36 13v-2l24 18l10 -15l-5 18l24 7l27 29l13 -15l-2 20l69 8l2 -19l8 18l33 -18v-1l28 -5l-3 -19l8 16l58 -20l-3 -19l5 10l19 -12l-6 -11l17 -13z" />
    <glyph glyph-name="d" unicode="d" horiz-adv-x="611" 
d="M586 22l1 -1l-5 -13l-7 3l17 -14l-25 -39l-17 14l-10 -26l-25 11l-18 -32l-24 16v-29l-53 -1v29l-27 5l7 52l-18 -16l-12 17l11 -17l-31 -24l-11 17l2 -26l-47 -3v2l-38 -9l-4 23l-7 -21l-25 10l-45 -11l-5 25l-17 -14l-21 30l-37 14l7 23l-17 -10l-18 37l17 10l-18 -5
l-10 40l18 6l-18 -2l-17 72l-1 -1l-15 40l18 8l-18 8l14 39l17 -7l-15 15l21 26l-5 30l18 4l-18 3l5 41l18 -3l-15 11l19 34l15 -11l-3 25l32 5l6 28l20 -6l-11 16l28 24l11 -15l-2 20l27 3l25 31l15 -16l10 22l30 -18l21 16l11 -19l15 30l53 -34l-6 -11l19 2l1 -16l2 24
l11 -1l-5 16l23 8l-21 -2l-3 47l21 2l-24 3l1 12l-37 -1l-1 37l-7 -15l-28 15l7 15l-13 4l7 28l13 -4l-8 18l33 16l30 17l8 -17l-7 17l32 15l7 -17l9 24l28 -13l18 24l39 -25l-15 -48l-2 1l3 -21l1 1l23 -41l-18 -12l18 -16l-18 -26l17 -25l-19 -15l19 1l1 -41h-18l18 -15
l-25 -38l1 -17l1 1l22 -41l-18 -12l18 -9l-7 -107l-18 -6l18 -9l-13 -30l14 -31l-18 -10l18 -2l1 -76l-18 -2l24 1l1 -28l5 1l5 -18l13 16l28 -29zM416 331l-1 29l1 -3l16 4l-17 -1l-4 24l4 -3l11 17l-16 -4l1 -10l-26 22l11 17l-14 -16l-26 29l2 -1l10 18l-14 -15l-26 16h6
v22l-10 -19l4 -3l-30 -1l-4 21l1 -21l3 -2l-39 -9l4 3l-11 20l4 -23h3l-31 -19l3 3l-15 16l10 -20l2 1l-27 -30v2l-15 14l14 -16l-20 -26v7l-20 1l16 -14l4 6l-1 -37l-20 1l17 -10l-17 -36l1 7h-20l18 -10l1 3v-33l-1 3l-18 -6h19v3l10 -38l-18 -6l19 -2l-3 -38l-3 6
l-17 -10l20 -2v6l16 -31l-3 3l-14 -13l16 10l22 -30l-15 -13l17 7l10 -27l-10 2l-4 -18l17 7l-3 9l24 -7l-4 -18l5 16l27 -9l-3 -1l1 -17l5 17l-3 1l28 2l1 -17l9 20l28 -16l-10 -6l9 -17l8 20l-7 3l20 13l9 -17l-10 20l36 21l-5 -9l14 -11l-9 19l14 21v-7l16 -2l-14 12
l-2 -3l2 26l16 1l-16 2l-1 -3l-2 39l18 1l-18 7l12 34l2 -8l17 5l-17 8l-2 -5l-7 31l17 5l-18 -4l-6 39l17 3l-17 10l16 38v-9h17zM400 24l1 -1z" />
    <glyph glyph-name="e" unicode="e" horiz-adv-x="527" 
d="M480 65l9 -21l-37 -22l-9 21l7 -20l-33 -14v-1l-34 -22l-10 19l-9 -23l-35 17l-25 -14l-9 20l5 -22l-40 -11l-5 22l-4 -22l-40 10l4 22l-18 -15l-27 42l2 1l-20 11v-3l-43 11l4 23l-24 -2l-3 42l-26 18l12 21l-19 -7l-28 84l20 8l-21 8l14 45h2l11 40h1l5 32h-2l-5 48
l21 3l-14 16l30 31l14 -16l-12 16l24 25l15 34l18 -9l-12 16l29 26l12 -16v22h36l26 17l9 -18l7 20l24 -10l35 21l11 -22l13 17l26 -24l37 -2l-1 -24l17 12l22 -37l24 -22l-12 -16l18 6l11 -38l-17 -7l18 1l1 -40l-18 -1l17 -3l1 -68l-5 -2l7 -23l-11 -3l-7 -22l-39 15
l-26 -6l-3 20l-8 -20l-57 15l-36 -16l-7 20l-3 -20l-63 -7l-6 20l-6 -20l-31 13l-22 -9l12 -5l-14 -39l22 -63l31 -19l-1 -2l32 -17l-7 -18l19 11l14 -32h24v-22l2 20l30 -4v1l38 9l4 -21l6 24l37 -11l27 16l1 -3l24 22l11 -15l20 6l10 -43zM367 393l-2 -2v33l16 4h-17
l-6 28l2 -3l13 11l-16 -4l1 -4l-14 21l9 17l-13 -11l4 -6l-2 -2l-32 24l7 -1l2 21l-11 -19l2 -1l-31 3l2 22l-3 -21l-28 5l6 6l-12 15l-2 -20l8 -1l-21 -21l-12 15l10 -16l-23 -18l1 6l-17 5l10 -16l6 5l-8 -33l-18 5l15 -12l-20 -31l1 5l-17 6l15 -12l-9 -32l-1 1v6l-16 -1
l16 -5v-5l-15 -1l1 -23l15 1l-1 23l27 2l1 -24l3 24l43 -4l-2 -25l4 23l35 -8l-5 -2l6 -22l4 23l-5 1l35 11l6 -21v22h40l-9 -9l10 -13l-1 22l11 9l-1 -9l15 -1l-10 13l-4 -3l2 22l14 1zM151 280h-2l3 -1z" />
    <glyph glyph-name="f" unicode="f" horiz-adv-x="397" 
d="M430 568l-25 6l2 -29l-53 -3l-1 29l-6 -16l-28 14l6 15l-21 -7l-9 33l-25 21l-12 -13l-2 3l-7 -23l-13 5l19 -8l-9 -81l-22 -2l19 1l2 -43l-19 -1l14 -4l-5 -22l9 -10l27 5l3 -18l3 18l18 -2l44 27l12 -25l20 -8l-15 -44l-20 9l-8 -17l-10 7l-27 -32l-18 19l-18 -19
l-22 26l4 -24l-16 -6l18 -19l-25 -30l10 -21l-18 -11l18 -10l-14 -31l13 -31l-19 -9l19 8l14 -40l-18 -8l18 -6l-10 -75h-19l18 -3l-5 -37h1l-1 -34h1l9 -33l26 -15l27 12l9 -25l11 5l12 -32l-14 -7l5 -21l-39 -13l-6 22l-15 -19l-29 28l-20 -9l-7 20l-1 -20l-24 2l-35 -24
l-11 20l-18 -19l-31 34l-11 -4l-5 17l-8 1l3 16l-4 4l30 26l4 -6l17 17l8 -10l-12 18l28 23l3 13l-30 35l18 19l-18 11l19 40h1l3 59h-1l-22 40l19 12l-19 18l31 38l-3 23l18 2h-18v39l-8 14l-24 -3l-2 19l-1 -25l-45 3l2 25l-22 1l3 49l22 -2l-5 24l43 9l4 -24l5 20l15 -4
l-5 54l19 6l-19 3l6 42l18 -4l-16 11l20 36l16 -11l-13 14l25 29l13 -14l-8 16l56 39l10 -15l-10 17l32 23l10 -18l4 20l64 -2l3 -19v20l36 -1v-20l20 10l18 -43l13 -4l-4 -16l24 -6z" />
    <glyph glyph-name="g" unicode="g" horiz-adv-x="562" 
d="M519 394l-23 9v-18h-33v-2l-46 -5l5 -12l4 2l19 -39l-18 -10h20l12 -76l-18 -8l16 -9l-16 -36l-16 9l11 -15l-27 -26l-2 3l-19 -24l-12 12l9 -16l-28 -20l-9 16l7 -17l-26 -13l1 -3l-31 -29l-13 17l-5 -20l-29 9l-8 -14l-13 10l-5 -26l-22 6l-2 -15l10 -27l13 -5l32 29
l16 -21l-1 18l32 1l1 -18l14 18l32 -31h18v-17l4 18l22 -4l-1 2l43 22l9 -24l21 8l13 -37l32 -17l-10 -22l20 -2l-3 -44l-20 1l18 -3l-6 -40l-18 3l16 -9l-16 -34l-15 -38l-17 9l13 -15l-27 -28l-13 15l3 -22l-34 -5l-25 -23l-12 17l-1 -22l-38 3v2l-28 2l-32 -20l-10 19
l1 -23l-41 -1l-1 23l-12 -21l-28 21l-35 -10l-6 24l-9 -21l-40 19l9 22l-16 -18l-31 35l15 18l-21 -8l-12 47l20 7l-14 4l7 32l14 -4l-18 9l16 41l18 -9l-10 19l34 22l10 -19l-6 23l16 5l-7 13l7 4l-13 21l-4 -3l-21 31l14 12l-11 17l32 26l11 -17l-10 21l35 22l11 10
l-15 14l5 6l-24 13l-1 -4l-39 14l6 22l-22 4l6 46l-13 18l13 12l-17 6l6 22l-24 35l18 16l-19 1l2 42l19 -1l-7 27l38 11l2 21l19 -2l-13 15l27 28l12 -14l-12 17l31 26l12 -17l13 24l42 -29l-4 -5l20 -1l-1 5l42 9l4 -23l6 23l36 -13l25 16l10 -19l-4 19l34 7l4 -18l-3 18
l34 6l2 -19l8 19l23 -12v2l46 7l3 -26l24 -8zM339 276l-1 -4l-1 38l18 4l-19 -1l-5 31l16 11l-18 -5l-12 21l12 20l-17 -10l5 -10l-33 24l8 22l-12 -20l-26 12l10 7l-11 21l-9 -22l10 -6l-28 -18v2l-11 19l10 -20l-32 -22l4 10l-16 8l10 -19l2 1l-9 -24l-18 5l17 -8l-8 -31
l-18 1l17 -5l1 1l-1 -37l-18 1l18 -4l-5 -36l-2 6l-18 -7l19 -4l1 5l10 -30l-3 4l-13 -14l17 8l20 -22l-13 -15l14 14l22 -22l-7 -21l13 16l-4 4l26 -12l2 -24l7 21l-8 3l34 3l-5 -5l15 -18l-2 24l-8 -1l27 28l1 -2l-3 -6l17 -10l-14 16l14 28l-1 -4l18 -3l-16 10l9 69l19 1
zM395 -148l-4 21l12 6l-13 -4l-4 9h5l1 23l-13 -6l7 -17l-37 2l1 23l-2 -22l-40 4l2 23l-3 -19l-31 5l2 1l-3 19l-2 -19l3 -1l-32 -6l-3 19v-19l-35 1v19l-3 -19l-17 4l5 9l-18 14l-4 -18l17 -5l-19 -30l1 6l-21 7l18 -15l2 2l-10 -39l-2 10l-19 -5l21 -6l7 -26l-5 5
l-13 -16l19 6l-1 5l23 -25l-1 -2l-5 3l-7 -17l12 14l20 -11l-3 -18l7 16l28 -4l-2 -18l4 18l27 -8l1 -20l4 18l-5 2v1l35 2l-2 -1l5 -20l-1 21l28 8l9 -18l-5 20l23 14l15 -14l-9 18l-6 -4l-2 3l27 32l-1 -9l22 -3l-17 17l-4 -5l4 40l7 -1l2 -6l13 4z" />
    <glyph glyph-name="h" unicode="h" horiz-adv-x="608" 
d="M593 -85l-13 9l-6 -21l-29 10l-35 -14l-7 22v-21l-70 -1l-39 -18l-8 22l-1 -27l-48 2l1 27l-22 -5l-10 49l23 5l7 14l18 -12l25 -1l18 19l4 33l18 -2l-18 9l17 58l-28 40l19 16l-19 17l26 36l-8 24l19 7h-18v42h19l-17 8l7 18l-25 18l13 21l-13 -5l-6 20l-24 11l6 16
l-7 -18l-31 16l7 18l-11 -23l-30 19l-20 -16l-12 19l11 -23l-41 -24l-11 23l12 -29l-43 -22v-11l24 -35l-18 -14l18 3l6 -40l-18 -3l17 -14l-19 -31l10 -26l-18 -8l18 -2l-7 -109l20 -18l-11 -15l15 8l12 -25l20 -5l2 2l25 -33l-15 -14l-2 -24l-45 5l2 24l-4 -22l-40 11
l-36 3l1 21l-3 -21l-24 4l-36 -30l-15 22l-12 -18l-33 26l12 18l-6 4l4 8l5 6l15 4l8 33l19 -5l-11 15l20 18l12 26l5 16v13l-1 -1l-29 41l18 16l-18 4l8 41l18 -5l-18 6l9 36l-7 33l18 5l-18 1l1 40h18l-18 6l12 40l2 23l-22 37l18 13l-18 11l20 40l1 -1l2 21h-1l-15 44
l20 8l-21 1l1 28l-17 2l2 20l-7 -13l-47 32l8 13l-13 -1l-2 27l12 2l3 22l27 -4l14 28l19 -13l-3 19l34 7l3 -19l4 21l36 -8l17 13l9 -15l19 11l19 -42l-18 -11l19 -7l-13 -43l-19 7l19 -14l-20 -33l12 -28l-19 -10l20 7l12 -43l-20 -7l19 -9l-11 -29l13 -21l28 2l15 29
l19 -12l-6 24l40 12l43 24l11 -24l10 19l30 -20h33v-22l17 12l20 -37l-16 -11l17 7l12 -40l-17 -7l18 3l3 -36h1l12 -40l-18 -7l19 2l4 -75l19 -42l-19 -10h19l6 -81l-19 -3l18 -7l-10 -34l12 -27l-17 -9l22 -9l-3 -8l4 -22l19 16l15 -23l2 2l24 -19zM212 393l-3 -2l3 -1v3z
" />
    <glyph glyph-name="i" unicode="i" horiz-adv-x="325" 
d="M202 585l20 -8l-14 -44l-19 8l8 -21l-39 -20l-9 22l-7 -23l-42 16l8 23l-21 -8l-15 46l21 9l-20 9l17 44l20 -10l-8 23l39 18l8 -22l9 22l39 -18l-8 -23l20 8l13 -44zM309 -94l-20 1l-5 -26l-48 12l1 4l-34 -2l-1 22l-4 -22l-64 13l-37 -26l-13 22l-8 -20l-37 19l9 20
l-13 -3l-6 27l13 3l-1 7l13 1v-7l5 19l24 -9l11 9l-3 34l19 2l-17 13l20 32l-4 32l19 2l-19 5l7 28l-22 35l19 14l-19 11l14 30l-15 29l19 12l-20 10l16 38l-11 31l4 1l-14 23l-48 3l-2 18l-8 5l9 18l8 -5l-8 17l60 35l8 -16l5 21l34 -9l19 14l9 -16l-4 14l23 10l5 -13l16 9
l16 -34l-16 -9l19 1l3 -41l-19 -2l18 -7l-13 -41l-6 -74l-19 -2l19 -4l-6 -30l19 -37l-19 -11l19 -2l-3 -41l-18 2l18 -8l-13 -40l12 -66l-18 -7l21 1l1 -31l20 -6l22 7l5 -18l2 10l17 -6l-3 -9l21 -2z" />
    <glyph glyph-name="j" unicode="j" horiz-adv-x="294" 
d="M232 645l-20 9l6 -23l-42 -14l-6 23l-7 -21l-39 17l8 21l-19 -10l-18 43l19 10l-20 8l15 46l20 -9l-8 23l41 19l8 -23l10 21l38 -22l-10 -21l19 10l19 -42l-19 -10l21 -9zM222 203l12 -20l-18 -14h18l-2 -40l1 -38l-18 -1l20 -11l-17 -37l7 -36l-20 -6l20 -2l-5 -46
l-20 3l17 -18l-33 -38l-17 18l10 -21l-30 -17l-14 -40l-21 10l8 -19l-34 -18l-8 19l-5 -24l-38 9l-23 -16l-10 18l-14 8l14 30l13 -8l-7 18l24 13l-2 2l29 38l11 35l5 -2l10 33l15 -6l-14 23l32 25l-13 61l18 5h-18l1 40l18 -1l-18 7l13 40h1l5 29l-12 35l17 8l-18 1l2 28
l-22 37l18 13l-17 21l31 32l-2 14l-30 28l14 19l-22 1l1 10l-10 -4l-8 23l-8 -14l-25 17l8 13l-7 4l6 16l7 -4l-1 20l30 4l26 18l10 -17l1 21l22 -1l18 33l19 -13l-6 24l43 12l6 -24l23 -5l-10 -51h-3l7 -30l-18 -5l18 -10l-17 -40l12 -64l-18 -7l18 -2l-4 -68l21 -39
l-18 -12l18 -19z" />
    <glyph glyph-name="k" unicode="k" horiz-adv-x="625" 
d="M588 -41l-15 6v-22l-76 -6l-3 22l-9 -18l-34 21l10 19l-12 -11l-15 20l-1 -3l-34 18l8 19l-11 -15l-27 22l-32 22l9 18l-18 -7l-30 66l14 12l-15 -11l-21 32l15 12l-18 -7l-12 37l-22 18l11 16l-17 -21l-3 2l-1 -7l-2 1l11 -30l-20 -9l19 3l5 -43l-20 -2l19 -8l-11 -35
l13 -30l-4 -1l18 -23l-12 -11l16 9l11 -26h22v-6l8 6l27 -45l-20 -15l-11 -28l-51 26l1 3l-25 -6l-4 22v-21h-40l1 22l-6 -22l-34 11l-33 -10l-6 22l6 -26l-47 -13l-5 26l-21 -4l-8 47l21 4l-4 12l23 9l4 -13l-1 16l28 2l1 -16l4 23l23 -5l4 12l-23 32l18 17l-18 11l10 105
l18 5l-18 13l20 37l-4 27l18 4l-18 1l-13 114l-10 41l18 5l-18 11l13 30l-13 28l17 11l-19 14l19 32l-15 22l-11 6l3 15l-10 -11l-18 21l9 10l-13 -9l-17 29l7 4l-1 1l23 27l12 -13l-1 20l19 1l18 39l20 -12l-3 19l34 6l3 -18l-1 19l35 2l1 -20l18 11l19 -41l-19 -10l18 -4
l-7 -40l-18 4l18 -18l-28 -35l4 -22l-18 -5l18 -2l7 -112l-18 -5h18l12 -72l-18 -7l18 1l3 -53h25l10 13l17 35l15 -9l-6 17l19 9l21 42l13 -8l2 10l-2 6h-19v14l-16 10l19 34l15 -11l-6 19l33 13l7 -18l13 18l16 -14l20 23l18 -19l3 19l31 -8l1 3l40 -3l-2 -22h19v-41
l-19 -1l5 -8l-14 -11l-5 9l-6 -24l-28 9l-14 -24l-17 12l13 -15l-27 -29l-13 15l3 -24l-38 -6l-25 -24l-13 17l11 -19l-29 -22l2 -3l-16 -21l18 -18l-3 -3l32 -23l-11 -20l20 7l10 -36l29 -17l-9 -21l12 17l31 -27l-12 -17l20 8l14 -44l-2 -1l14 -23l31 -16l-8 -19l14 13
l18 -24l25 1v-19l5 10l18 -9l-4 -10l15 -6zM367 424h-3l3 -2v2z" />
    <glyph glyph-name="l" unicode="l" horiz-adv-x="323" 
d="M300 -65l-21 2l-7 -27l-49 16l1 4l-31 -5l-3 22l-13 -22l-34 25l-26 -7l-5 22l4 -22l-39 -9l-4 22l1 -21l-39 -3l-1 22l-11 7l13 24l6 1l-7 15l27 15l7 -15l-2 13l12 3l8 25h-1l2 73l18 2l-18 12l22 40l-14 59l-18 40l18 10l-18 16l30 41l-18 53l18 10l-17 6l11 40h1
l2 35l17 -2l-17 3l5 37h-2v37h-1l-11 37l-21 4l3 20l-13 -10l-18 30l3 2l-16 16l-17 14l12 34l43 -11v-4l25 -2l21 22l13 -15l-9 16l28 21l10 -16l-2 13l25 3l1 -13l15 6l12 -32l-15 -7l19 -12l-23 -40l-1 -9l36 -39l-18 -21h18v-41h-18l18 -7l-13 -40l-18 7l18 -9l-11 -29
l15 -33l-18 -10l18 -12l-14 -27l17 -29l-18 -13l18 -15l-18 -27l15 -25l-18 -14l18 -14l-22 -35l13 -67l-18 -5l18 1l1 -39l-17 -1l18 -3l6 -65l49 -14l-1 -5l14 6l4 -11l21 -2z" />
    <glyph glyph-name="m" unicode="m" horiz-adv-x="966" 
d="M916 -22l-24 7l-8 -29l-46 16l-26 -17l-11 23l-9 -22l-108 16l-1 22l-7 -20l-36 15l7 20l-13 -10l-19 29l24 24l8 -8l16 22l17 -15l7 26l17 -6v17l24 -1l-18 2l2 27l-1 -1l-22 45l20 12l-20 2l4 44l19 -2l-19 13l17 31l-16 30l20 13l-19 -3l-6 43l19 3l-23 14l17 34
l-20 23l6 6l-21 9l5 15l-8 -15l-23 15l-51 -18l-6 17l1 -26l-36 -2l-14 -27l2 -26l-18 -1l18 -12l-15 -28l14 -28l-18 -11l18 6l12 -39l-18 -7l18 -17l-21 -27l13 -21l-18 -13l17 7l14 -39l-17 -7l17 -8l-11 -33l-1 -16l13 4l4 -22l8 15l28 -17l-6 -13l4 -5l8 -3l-6 -19
l-8 3l5 -18l-33 -12l-5 18l-1 -22l-40 2l1 22l-11 -22l-29 18l-28 -16l-10 22l-10 -22l-24 14l-34 -25l-29 34l18 32l-2 9l10 4l14 19l5 -4v4l21 -4l-11 4l6 25l12 -4l-17 8l14 35l16 -7l-20 18l30 41l-3 17h-1l-24 44l20 13l-19 4l6 44l20 -4l-19 14l12 20l-28 32l20 22
l-19 -5l-8 41l2 1l-6 7l-20 -12l-9 18l-15 -19l-30 30l-7 -2l2 -2l-31 -38l-17 18l9 -32l-12 -4l7 -8l-21 -22l18 -16l-25 -35l4 -24l-18 -4l18 -7l-11 -33l11 -30l17 -39l-17 -9l17 -21l-22 -24l13 -19l-18 -15l17 5l7 -31l7 -7l22 23l29 -23l-7 -25l9 -17l-11 -6l-8 -21
l-21 10l-32 -29l-16 22l-11 -22l-27 16l-29 -19l-12 22l2 -22l-39 -4l-2 22l-17 -17l-30 36l5 5l-23 18l9 14l-2 14l25 3l1 -13l14 20l22 -20l30 46l-13 30l19 10l-19 -6l-11 43l19 6l-19 19l24 32l-12 25l20 11l-20 11l11 24l-26 32l19 20l-17 -3l-5 38l17 3l-22 14l12 23
l-6 2l5 21l-8 -13l-12 9l-36 -11l-5 21l-10 8l14 23l10 -8l-12 14l25 28l13 -14l9 24l29 -14l13 19l16 -14l-3 19l33 6l1 -1l21 13l8 -14l13 -4l-6 -30l-14 3l16 -5l-6 -20l18 -17l13 4l-2 3l28 19l20 30l16 -12l-14 16l29 33l14 -16l-4 22l40 11l5 -22l7 23l41 -14v1
l45 -13l-6 -25l27 -1l-1 -55l9 -12l31 14l2 -4l13 13l-5 2l12 61l28 -7l1 27l48 -2v-4l38 4l2 -23v21h37v-21l13 14l15 -18l46 -7l-3 -26l20 7l11 -44l-20 -6l19 -2l-3 -43l-19 2l18 -6l-8 -27l19 -31l-17 -13l19 -7l-12 -42l-19 6l19 -11l-16 -33l13 -30l-19 -10l19 -6
l-5 -20l34 -35l-19 -22l17 -6l-10 -34h1l-1 -23l14 -1v-1l23 8l5 -16l7 17l30 -15l-7 -17l25 -7z" />
    <glyph glyph-name="n" unicode="n" horiz-adv-x="603" 
d="M584 39l-8 9l2 -17l-31 -4l-2 17l-3 -22l-64 7l-38 -26l-12 22l-2 -22l-81 -2l-1 25l-17 2l5 38l24 -4l5 18l27 18l17 -8l-12 12l17 22v28l-13 41l19 7l-19 13l17 29l-17 29l19 13l-18 10l16 72l-8 31l16 5l-16 -2l-13 48l-53 22l-28 -9l-5 18l-2 -21l-28 1l-41 -15
l-21 -26l5 -143l-17 1l18 -2l-9 -73l14 -35l-17 -8l18 -9l-13 -32l10 -19l11 -8l27 7l4 -17l6 10l17 -15l-7 -9l9 -11l-19 -19l-8 11l-1 -18l-28 1v-4l-78 -17l-4 22l-6 -22l-58 16l-48 -32l-14 26l-20 5l8 44l20 -5l-2 5l8 5l2 -4l3 17l26 -5l23 7l8 31l-23 74l19 7l-19 13
l20 35l-10 29l19 7l-19 -3l-11 127l18 1l-21 9l7 20h-8l2 21l-20 -7l-11 43l-18 14l3 31l40 -6l51 26l9 -16l-5 18l26 12l34 24l11 -19l20 1l3 -44l-19 -2l16 -12l-13 -21l15 8l2 -5l47 61l17 -14l-3 26l47 6v-1l37 15l7 -23v20l36 1l1 -20l11 16l30 -26l-12 -16l14 11
l17 -29l1 1l25 -28l-12 -14l17 11l20 -38l-17 -11l21 -6l-10 -41l24 -73l-19 -8l19 -5l-10 -121l-18 1l18 -10l-16 -58l29 -19l-10 -20l13 9l12 -23l26 -9l3 4l14 -17z" />
    <glyph glyph-name="o" unicode="o" horiz-adv-x="568" 
d="M545 209l-20 -1l20 -3l-4 -45l-20 3l19 -9l-15 -42l-19 8l12 -20l-38 -25l-43 -57l-23 -40l-17 14l-4 -25l-34 6l-24 -24l-15 17l-3 -21l-39 6l3 22l-4 -21l-38 10l-36 7l3 21l-7 -20l-35 16l7 20l-13 -15l-52 55l-32 25l12 18l-18 -9l-15 40l18 9l-19 -6l-20 79l-14 42
l19 8l-20 7l12 42l7 41l19 -4l-19 6l11 42l19 -6l-14 16l21 21l6 46l22 -3l-5 23l43 9l25 19l10 -17l-6 19l30 12l32 28l12 -19l1 22l39 -2l-1 -21l9 20l36 -22l32 -10l-5 -20l6 19l30 -13v2l40 -8l-4 -22l10 19l34 -21l-9 -19l15 15l27 -35l-15 -15l20 7l32 -76l-18 -13
l20 4l8 -44l-19 -4l20 -5zM420 257l-3 -13l-1 -1l-17 46l21 9l-20 -4l-6 39l19 10l-20 -4v-3l-16 39l19 9l-22 -2l-3 33l12 -6l9 24l-22 -2l1 -16l-30 14l9 24l-20 -14l-20 36l11 -3l4 25l-20 -14l5 -8l-26 5l7 4l-10 22l-4 -24l7 -2l-33 -18l-10 22l5 -24l-32 -8l4 13
l-22 8l5 -24l13 3l-10 -35l-22 8l16 -15l-23 -32l-20 11l17 -15l-12 -30l-1 7l-22 -5l19 -11l4 9l8 -42l-22 -5l20 -5l-9 -45l-3 1l-1 7l-16 -3l17 -4l4 -30l-17 -3l17 -1l-2 -28l-4 5l-14 -13l17 -2l1 10l20 -27l-14 -13l16 2l4 -36l-16 -2l18 1l1 -24l-6 4l-12 -22l19 1
l-1 17l33 -22l-11 -22l17 17l24 -31h-10l-2 -25l18 17l-6 8l32 -3l-6 -2l7 -24l2 25l-3 1l36 13l-5 -4l12 -19l-7 23l25 19l16 -15l-13 18l25 31l2 -5l13 -10l-12 12l14 24v-5l17 -1l-14 11l-3 -5l2 33h17l-15 7l12 32l16 -5l-15 7l8 33l17 -4l-16 5l5 23l19 8z" />
    <glyph glyph-name="p" unicode="p" horiz-adv-x="694" 
d="M641 349l20 -9l-18 -39h-2q-14 -35 -19 -70l-19 3l18 -8l-14 -32h2l-8 -43l-21 4l7 -21l-39 -15l-18 -24l-16 12l6 -19l-38 -13v1l-32 -16l-9 17l3 -19l-25 -4l-35 -31l-15 18l-17 -20l-23 19l-51 -19l-11 31l-4 -15l-32 8l2 7l-8 -17l16 -35l-21 -9l20 -6l-10 -32
l15 -18l-1 -1l14 -18l26 4l3 -17l2 -2l8 5l26 -40l-20 -12l-9 -27l-51 17l-30 -11l-8 22l-3 -21q-31 5 -39 4l-37 -13l-8 22l-12 -22l-44 25l2 3l-29 2l1 19l-11 2l4 21l6 -1l-2 13q24 3 28 4q10 3 24 12l15 34l18 -8l-19 11l16 30l-13 32l21 8l-21 -3l-6 42l21 3l-21 7
l10 28l-21 35l20 12l-20 12l15 26l-22 30l21 15l-21 3l13 83l20 -3l-20 11l17 31l-14 29l20 10l-21 -6l-11 43l21 5l-22 4l8 40l-12 11l11 12l-16 -11l-11 19l-26 -8l-6 19v5l-9 7l24 36l18 -12v20h30l24 25l15 -15l-8 17l34 16l8 -17l-4 27l54 9l5 -28l31 -10l-20 -59l7 2
l2 -7l22 18l-2 1l28 35l18 -13l-16 21l43 33l16 -22l-3 27l54 7l3 -27l17 21l42 -33l-2 -3l30 -8l1 3l48 -7l-3 -24l22 9l16 -37l33 -17l-11 -20l20 9l19 -38l-20 -10l24 -7l-10 -34l22 -25l-18 -16l21 4l8 -41zM224 550v-1l2 1h-2zM516 321l-3 -7l-10 34l21 7l-21 -4l-7 36
l3 -4l17 14l-21 -4l1 -6l-23 30l17 14l-23 -3l-5 43l11 -9l11 15l-23 -3q2 -4 1 -3l-15 11h5l3 18l-12 -14l4 -4l-33 7l3 19l-15 -14l-19 21l14 5l-7 18l-15 -13l8 -10l-23 -9l-7 18l-1 -18l-36 2v18l-1 -18q1 0 1 -1h-22l3 4l-20 15l1 -19h16l-27 -35l-20 15l10 -16
l-26 -15l2 7l-18 6l9 -16l7 3l-9 -29l-19 5l18 -6q1 2 1 1l-9 -34l-1 5l-20 -4l20 -5l1 4l7 -34l-20 -4l19 -2l-3 -34l-19 -2l19 -2l4 -35l-19 -2l19 -3l-5 -32l-20 -4l20 -3v4l7 -35l-19 -4l20 -3l-3 -20l-11 6l-12 -23l20 -3l3 20l34 -18l-12 -22l18 14l27 -33l-8 3
l-8 -20l18 14l-2 3l30 -11h-4l-1 -22l8 21l-3 1l38 -2l1 -21l1 21q-2 1 -2 3l39 2l-7 -8l19 -17l-1 25h-11l27 30l19 -17l-17 15l28 34q1 -2 0 -5l18 -10l-16 14l17 30l18 -9l-17 10l15 35l19 -7l-19 8q0 -2 -1 -1l16 40h-2l14 36l3 -8l21 6z" />
    <glyph glyph-name="q" unicode="q" horiz-adv-x="625" 
d="M584 -141l-7 16l2 -16l-29 -6l-3 16l-1 -22l-69 -15l-8 21v-22h-39l-1 21l-3 -21l-31 6v-2l-44 -12l-6 25l-16 7l11 37l14 -6l-5 8l29 21l10 -16v20h12l-4 21l21 4l-17 5l-1 69l19 4l-19 3l4 51l-18 -4l-20 -34l-18 13l4 -27l-48 -8l-4 27l-7 -26l-47 15v1l-29 -7l-4 22
l-14 -17l-29 28l-33 7l4 22l-19 -9l-13 33l-31 15l8 21l-19 -3l-22 70l16 11l-19 -1l-13 74l18 7l-17 11l15 28l-11 33l19 8l-17 7l12 38l17 -7l-11 19l35 25l2 -3l28 54l15 -7l-15 10l18 35l15 -10l-4 19l24 7l19 35l18 -12l-2 20l37 4l1 -20l4 20l28 -6l28 17l9 -18l4 21
l38 -8l-4 -21l9 20l35 -19l-1 -1l28 -8l26 10l5 -18l-3 14l25 7l4 -14l3 13l22 -7l-3 -12l15 11l21 -32l-15 -12l18 -7l-12 -41l-2 -36l-18 1l19 -2l-3 -30l20 -39l-19 -11l19 -14l-22 -37l5 -27l-18 -5l19 -8l-14 -62l22 -41l-18 -12l19 -2l-4 -41l-19 2l19 -9l-13 -33
l12 -33l-18 -8l18 3l5 -41l-18 -3l18 -4l2 -68l-17 -6l16 2l2 -28l8 -9l21 18l12 -19l8 13l23 -16l-7 -13l7 -16zM422 225l-1 -7l-14 34l17 9l-17 3l4 34l1 -3l17 5l-17 3l-1 -5l-7 35l17 5l-18 2l3 38l17 -1l-17 2l4 37h17l-17 2l1 37l1 -6l16 5l-17 1l-8 29l16 5l-19 -7
l-9 31l8 -3l8 21l-19 -6l3 -12l-31 15h5l3 21l-7 -20l-34 7l4 21l-9 -20l-26 13l4 2l-6 24l-8 -21l10 -5l-38 -11l5 3l-12 21l6 -24l-31 -22v-1l-31 -21l2 12l-21 4l12 -21l7 5l-5 -34l-21 4l17 -9l-16 -38l-18 8l18 -9l-13 -37v5l-20 1l19 -9l1 3l-2 -33l-20 -5l20 -1
l7 -37l-19 -4l20 1l1 -34l-4 5l-15 -16l20 1l-1 10l24 -28l-15 -16l16 10l17 -35l-3 1l-12 -10l14 8l16 -24l-11 -13l13 11l17 -18l-6 -17l11 13l-3 3l27 -12h-3l-1 -18l6 17l-2 1l28 -2l1 -18l1 18l-2 1h29l-4 -3l10 -15v19l-6 -1l24 20l10 -16l-8 20l36 17l8 -19l-8 20
l-2 2l34 17l-2 -16l18 -2l-9 22l-7 -4l1 18l2 -4l17 9z" />
    <glyph glyph-name="r" unicode="r" horiz-adv-x="497" 
d="M469 534l5 -24l-39 -9l-7 -19l-16 8l12 -11l-19 -26l-12 11l-9 -14l-25 20l9 14l-10 -11l-19 22l-1 -2l-15 14l-24 -10l-19 -29l-16 12l4 -23l-35 -7l2 -1l-5 -62h1l19 -38l-17 -11l17 -4v-67l-17 -5h17v-38h-17l17 -13l-14 -25l15 -25l-17 -13l14 5l9 -26l4 4l15 -23
l24 9l12 -20l15 -29l-13 -8l2 -21l-37 -4l-2 21l-3 -21l-36 6l2 20l-5 -20l-29 9l-31 -12l-7 20l-2 -20l-65 6l1 -3l-42 -12l-6 23l-19 -2l-3 43l19 2l5 9l9 -5l-1 2l32 11l5 -18l-3 21l16 3l-4 26l22 4l-17 6l9 35h-1l-2 75l18 4l-18 -1l-3 41l19 2l-19 8l15 41h1l1 33h-3
l1 35l-23 32l17 16l-15 -6l-8 25l-21 7v1l-27 6l3 15l5 6l-8 17l30 16l30 18l8 -17l-6 18l31 15l7 -18l-5 19l33 10l4 -18l-2 17l31 4l2 -17l14 4l6 -31l-13 -3l15 -5v-2l27 12l7 -20l-6 19l30 12l23 24l13 -13l2 18l34 -5l30 1l1 -19l4 21l37 -8l-4 -21l20 16l30 -43z
M236 539l-1 -5l4 -2zM226 453l-1 -1h1v1z" />
    <glyph glyph-name="s" unicode="s" horiz-adv-x="438" 
d="M407 95l5 -36l-21 -3l15 -15l-47 -66l-16 11l9 -17l-31 -20l-9 17l7 -18l-32 -16l-8 18l-2 -20l-36 5v1l-30 2v-2l-37 -5l-2 21l-5 -20l-70 15l2 21l-10 -12l-21 22l10 11l-18 -4l-6 34l-2 -1l-23 43l20 12l-23 -1l-2 51l23 1l3 24l42 -6l-3 -23h5l1 -8l12 7l18 -37
l-17 -10l19 2l3 -34l49 -25v-1l32 -5l-2 -18l3 23l34 -6l24 15l7 31l19 -5l-16 18l16 17l-18 27l7 6l-21 11l7 16l-18 -9l-14 38l-10 5v-9l-54 -3l-1 30l-21 -11l-15 39l-27 6l4 23l-14 -16l-28 31l14 16l-20 -3l-5 44h1l-12 32l17 8l-17 4l7 37l16 -4l-16 7l11 36l16 -6
l-10 15l24 20l-3 3l28 37l17 -16l3 24l72 5l7 -21l-2 20l35 4l2 -19l12 17l31 -25l-1 -1l27 -8l-1 -3l27 -3l-2 -17l16 -5l-5 -19l22 -32l-16 -14l20 -2l-4 -45l-20 2l-8 -21l-39 19l8 20l-12 -1l-4 31l-23 13l8 19l-7 -15l-27 16l-5 -10l-46 27l3 6l-17 -1l-19 -22l-5 -21
l-13 4l12 -13l-11 -13l15 -17l-14 -14l17 6l8 -25l27 -5l-3 -21l10 15l26 -22l-10 -15l24 18l32 -52l19 -6l-5 -21l11 17l31 -22l-10 -17l11 15l29 -26l-12 -16l16 18l31 -36l-16 -17l22 -6z" />
    <glyph glyph-name="t" unicode="t" horiz-adv-x="391" 
d="M358 27l13 -23l-41 -30l-14 23l1 -23l-42 -1v22l-5 -21l-28 8l-38 -19l-9 23l-14 -18l-69 41l7 24l-21 -6l-11 45h1l-14 40l19 8l-20 7l11 38l-12 32l18 8l-19 7l6 74l19 4l-19 13l13 23l-24 29l19 19l-18 18l31 42l2 -1l1 15l-22 23l2 2l-21 7l4 16l-4 -15l-26 10l4 14
l-16 1l2 35h16l-9 18l33 20l9 -18l-4 23l40 9l8 10l-1 1l6 51l23 -3l-8 21l37 18l8 -21l22 -10l-16 -40l11 -33l-20 -8l20 1l1 -29l25 -9l63 10l6 -21l-3 22l40 8l3 -23l15 -4l-8 -33l-15 5l-1 -18l-21 1l2 -2l-38 -27l-13 21l-1 -21l-37 3l1 21l-8 -22l-15 7v-4l17 -36
l-18 -10l18 -8l-11 -71l-18 -1l18 -9l-14 -33l9 -31l-18 -7l17 -3l-5 -38l-18 3l22 -5l-6 -35l22 -37l-20 -15l22 3l4 -36l25 -26l32 -1l23 17l11 -19v16l29 1v-16l18 12l22 -41z" />
    <glyph glyph-name="u" unicode="u" horiz-adv-x="598" 
d="M567 70l3 -5l-29 -25l-11 17l8 -22l-39 -18l-8 22l-5 -25l-36 8l-30 -20l-11 21l-17 8l13 32l-8 24l16 6l-5 2l-18 -10l-10 -30l-20 8l9 -19l-34 -20l-1 2l-27 -19l-9 16l-2 -20l-34 3l1 20l-3 -18l-31 7l3 17l-6 -20l-69 18l2 20l-14 -11l-15 23l-1 -3l-42 22l9 23
l-20 1l1 45l20 -1l-19 3l5 42l19 -3l-18 4l6 35h-2l-1 46l20 1l-20 3l3 34l-19 42l20 12l-20 6l8 34l-19 28l8 7l-13 16l-1 -2l-23 19l1 1l-21 18l8 12l-11 22l30 19l8 -17l-4 18l60 26l8 -17l-3 18l28 6l-1 3l37 21l9 -21l22 -7l-13 -48l-4 1l11 -67l-18 -6l18 3l5 -39
l-17 -3l17 -15l-23 -35l5 -26l-18 -4l18 2l10 -74l-17 -5l21 1l13 -84l-20 -7l20 3l5 -37l42 -28l25 20l12 -18l-3 17l31 8l3 -18l-1 19l27 2l17 22l12 -12l-6 18l20 7l6 23l-20 35l19 13l-19 13l20 35l-23 67l18 9l-20 11l14 31l-17 21l15 15l-13 -3l-4 20l-18 6v-1l-31 1
l1 18l-6 8l13 12l-6 7l25 28l13 -13l-1 20h32l25 16l9 -16l-7 17l31 14l7 -17l-3 15l27 5l2 -14l17 10l19 -35l-16 -11l18 -13l-15 -29l16 -29l-19 -12l19 -17l-24 -33l24 -67l-19 -8l18 -6l-7 -75l-19 -1l19 -13l-13 -24l21 -28l-18 -17l26 -2l-3 -47l9 -3l27 7l3 -18l1 8
l16 -1l-1 -9l8 -13z" />
    <glyph glyph-name="v" unicode="v" horiz-adv-x="599" 
d="M570 454l-2 -10l-10 3l3 -8l-27 -15l-5 -33l-20 4l16 -11l-31 -70l-18 7l14 -15l-23 -26l-2 -36l-20 2l18 -6l-11 -40l-18 6l13 -18l-29 -25l-4 -31l-19 3l16 -11l-21 -35l-16 11l16 -12l-19 -28l-1 -38h-20l18 -5l-9 -40l-18 5l12 -14l-25 -28l-13 14l3 -14l-25 -6
l-3 14l-17 -9l-35 72l16 11l-18 -8l-33 72l17 11h-21l-1 46h1l-28 67l-36 73l16 11l-17 -9l-16 37l17 9l-17 -8l-13 34l-1 -1l-47 66l-24 3l2 19l-7 5l5 10l-8 14l8 6l3 20l22 -4l39 24l11 -22l3 22l77 -11l-2 -21l4 19l34 -8l-3 -19l8 -2l-3 -19l-5 1l-2 -9h-2l8 -15
l-19 -11l-7 -29l6 -16l1 1l33 -28l-12 -19l17 9l15 -38l-17 -8l18 5l26 -71l-17 -10l20 1l2 -35l23 -24l-13 -16l18 5l7 -34l26 68l18 -6l-15 13l36 64l16 -8l-16 9l21 108l20 1l-12 13l19 23l2 20l-36 17l4 15l-2 4l-1 -1l-6 16l7 3l2 19l32 -4v3l72 16l7 -22l4 19l34 -10
l-4 -19l11 9l16 -24zM334 110v-2l7 -3zM327 114v-2l2 1z" />
    <glyph glyph-name="w" unicode="w" horiz-adv-x="791" 
d="M768 447l-16 4l7 -3l-5 -16l-7 3l6 -12l-17 -12l4 -5l-26 -28l1 -2l-29 -31l-14 -51l2 1l20 -48l-22 -11l14 -17l-31 -31l-1 1l-12 -28l-16 9l16 -11l-19 -63h1l3 -42l-19 -2l14 -18l-28 -26v-27h2l1 -45h-20l-8 -13l-23 17l8 13l-15 -5l-9 33l-3 -1l-30 70l16 11l-18 -6
l-32 62l-31 31l14 17l-16 -10l-18 37l16 10l-21 3l4 38l-19 23l14 15l-20 2l-1 2l-18 -14l-3 -9l19 -50l-23 -10l11 -27l-39 -19l1 -21l-20 -1l19 -3l-5 -41l-19 3l14 -18l-29 -26l-1 -19l2 1l18 -50l-22 -9l8 -23l-40 -19l-1 2l-27 -22l-12 17l-22 -6l-11 48l22 6l-21 8
l10 38l-42 51l14 15l-19 -1l-1 41l18 1l-20 4l4 27l-27 20l12 21h-19v37l-16 28l15 12l-18 -3l-16 71l16 7h-19l-7 65l-35 21l6 12l-16 -6l-13 42l19 8l1 25l46 -2l-2 -26l5 20l36 -10l-4 -20l7 20l59 -10l-1 2l40 14l6 -22l16 -3l-6 -35l-9 2l-25 -26l-6 7l-4 -14l-9 3
l13 -15l-19 -26l10 6l11 -23l-10 -6l19 4l4 -30l32 -29l-14 -19l18 6l12 -40l-18 -6l23 -10l-17 -51l-2 1l12 -34l14 25h1l17 72l20 -2l-17 13l22 37l17 -13l-15 18l18 19l-14 39l23 11l-13 22l40 30l1 -2l15 28l3 -1l6 28l15 -4l-13 16l29 28l12 -16l24 1l2 -49l19 -19
l-14 -17l18 6l10 -39l-17 -5l17 4l9 -39l-18 -5l21 -4l-6 -37l17 -21l1 1l30 -30l-14 -17l20 -1l-1 -39l16 -26l-16 -11l17 7l5 -14l5 9l-10 43l22 6l-17 14l20 29l-2 37l20 1l-15 15l23 29l-1 34h19l-12 12l19 26l-24 5l5 31l-6 -15l-26 13l6 15l-24 4l7 53l24 -4l4 25
l46 -10l-4 -25l13 18l38 3l14 -18l3 20l36 -5l-2 -20l16 -4zM581 116l-3 -1l7 -1z" />
    <glyph glyph-name="x" unicode="x" horiz-adv-x="573" 
d="M538 -8l-7 -25l-45 16l1 4l-65 -7l-39 -12l-5 21l-9 -18l-34 19l9 18l-10 -7l-14 24l11 7v8l12 1l-5 10l16 8l-6 15l-31 17l9 21l-22 -2l-3 46l-18 19l13 15l-16 -15l-9 12l-19 -50l-20 6l13 -15l-27 -29l-13 16l10 -23l-32 -17l-3 -23l3 -3l17 -7l-3 -9l19 -2l-4 -43
l-19 3l1 -24l-42 -2l-1 23v-19l-36 -1v20l-10 -20l-23 15l-35 -17l-9 23l-19 3l4 41l19 -2l-7 8l14 14l6 -7l4 19l27 19l17 -8l-12 12l21 26l12 -12l-4 22l26 6l6 32l21 -5l-9 21l52 43l-1 1l15 27l-40 33l9 19l-16 -8l-14 35l16 7l-19 -3l-4 27l-28 9l6 22l-18 -3l-4 29
l-23 11l7 19l-11 -11l-20 24l2 3l-15 6l4 11l-8 1l1 13l-9 -4l-14 37l16 8l-1 24l43 4l1 -24l12 20l24 -16l25 18l12 -21l4 20l32 -7v1l40 -2l-1 -22l14 -7l-13 -31l2 -3l-12 -11l16 -16l-16 -21l17 14l51 -80l-19 -15l25 12l7 -19l5 -3l-6 19l31 13l11 20l-7 3l22 46l2 -1
l15 31l-12 16l3 3l-9 18l12 8l3 20l35 -7l-3 -19l4 19l27 -7l30 15l8 -19l1 19l35 -2l-1 -19l12 -6l-10 -28l-9 5l6 -25l-40 -11l-4 -22l-19 4l10 -12l-22 -25l-11 13l7 -17l-23 -13l3 -2l-40 -79l-21 10l14 -16l-21 -22l4 -21l56 -49l-12 -18l21 3l4 -40l23 -17l-11 -18
l14 18l32 -31l-14 -18l18 12l18 -32l39 -32l-4 -5l11 2l7 -37z" />
    <glyph glyph-name="y" unicode="y" horiz-adv-x="609" 
d="M588 523h-10l-33 -37l-17 20l12 -22l-24 -17l7 -39l-25 -5l14 -14l-26 -32l-27 -66l-18 6l14 -17l-18 -17l8 -41l-23 -6l14 -15l-27 -31l-14 15l12 -20l-19 -13l11 -38l-24 -9l16 -10l-18 -36l-16 11l11 -22l-34 -21l-5 -28l-18 5l17 -7l-13 -70h-17l14 -9l-16 -31l-14 9
l7 -20l-31 -14l-13 -27l-16 10l2 -22l-20 -2l-14 -44l-25 9l-10 -24l-31 17l-22 -21l-15 19v-20l-37 1v20l-13 -26l-48 29l13 27l-12 29l52 27l11 19l18 -9l4 8l10 -6v5l24 2l47 38l12 -12l5 21l33 -9l36 42l15 -10l-13 11l15 23l-2 1l8 37l-13 37l1 1l-69 94l15 16l-18 -9
l-15 39l17 9l-21 1l1 44l-14 23l-28 32l14 15l-17 -10l-19 36l16 11l-22 4l2 70l-38 16l9 25l-11 -15l-28 24l11 15l-8 -5l-17 33l15 9l7 24l44 -17l-1 -2l21 -1l38 27l12 -22l15 22l36 -30l19 6l5 -19l9 -5l-6 -13l12 -18l-37 -28l4 -5l-1 -1l25 -25l-12 -15l20 -4l-4 -29
l26 -16l-10 -21l23 -9l-16 -51l8 -18l-16 -9l16 8l22 -54l37 -17l8 47l19 -3l-12 18l32 26l1 -1l15 27l15 -10l-14 13l19 23l-2 37l20 1l-14 14l23 27l2 26l17 -1l-14 5l7 27l-7 12l-3 -4l-19 12l-10 8l-20 1l2 44l20 -1l6 24l44 -13l-1 -3l28 5l3 -20l3 20l30 -6v2l40 7
l4 -22h16z" />
    <glyph glyph-name="z" unicode="z" horiz-adv-x="484" 
d="M436 99l-3 2v-27l5 -43l-19 -3l3 -21l-37 -8l-4 20l-7 -20l-37 14v1l-23 4l-34 -21l-11 21l-10 -21l-25 16l-27 -19l-12 20l-5 -20h-98l-7 20l-3 -23l-42 7l3 23l-17 1l1 37l17 -1l-12 19l22 16l-1 39l22 1l-14 14l26 29l13 -14l-11 18l25 19l4 35l20 -3l-11 19l46 49
l18 35l15 -10l-15 11l18 34l16 -10l-12 16l25 22l8 34l18 -5l-13 15l46 59l-17 -2l-2 25l-2 -24l-76 -4l-5 23l-8 -24l-34 14l-36 -16l-1 2l-10 -13l9 -34l-20 -6l-1 -8l-10 2l2 -10l-32 -11l-6 18l-18 6l5 73l18 3l-11 12l21 25l11 -12l2 15l12 1l35 27l12 -19l11 19
l29 -19l25 9l6 -20l7 20l31 -14l26 7v1l35 14l7 -19l10 19l35 -22l19 1v1l36 14l6 -20l15 5l9 -33l-15 -5l10 -23l-36 -18l-6 -26l-19 5l18 -6l-11 -40l-18 6l15 -11l-21 -33l-15 12l14 -12l-41 -65l-15 11l13 -15l-24 -25l-13 -32l-17 7l15 -12l-31 -67l-17 7l11 -17
l-61 -86l-5 3l-4 -10l12 -7v1l70 7l3 -21l4 21l26 -5l28 22l11 -18l4 22l31 22l3 -2l5 36l18 -3l1 8l11 -2l-5 16l43 16l7 -24l22 -15z" />
    <glyph glyph-name="uni00A0" unicode="&#xa0;" horiz-adv-x="255" 
 />
    <glyph glyph-name="Eacute" unicode="&#xc9;" horiz-adv-x="590" 
d="M554 -71l-20 1l-5 -27l-48 10l4 27l-11 -23l-23 14l-30 -29l-18 22l-6 -22l-41 13l-21 -8l-5 18l-4 -19l-34 7l4 19l-13 -19l-14 12l-18 -27l-20 17l-13 -18l-21 18l-27 -18l-12 21l-6 -22l-41 13l3 8l-26 6l3 15l-15 -8l-15 32l15 8l-18 4l5 32l-15 33l17 10l-23 -8
l-14 52l23 8l8 25l45 -16l-8 -31l21 -4l-6 -36l12 -23l28 6l5 -24v15l28 -1l-1 -16l11 10l11 -15l1 6l36 -9l61 46l16 -18l-8 11l16 14l4 26l14 -3l-18 15l17 26l-17 25l18 16l-18 3l5 41l19 -3l-19 15l20 31l-11 27l19 9h-18v29l-15 8l-60 -12l-3 19l1 -26l-42 -1v-2
l-43 -8l-2 -11h-1l3 -25l-14 -2l-2 -5l-6 3l1 -6l-23 -5l-2 13h-13l-1 28h-4l-2 38l17 2h-17v38l17 -1l-17 2l-6 71l18 4l1 19l33 -2l-1 -12l26 -29l-13 -14l9 6l9 -16l8 10l21 -19l32 20l13 -25l16 18l29 -31l17 4l3 -18l2 26l13 -1l-4 19l24 6l-19 5l8 34l-12 37l19 7
l-19 -1l-11 81l19 5l-19 8l13 53l-62 -22l-10 25l-5 -23l-41 12l5 23l-8 -24l-38 15l-28 -6l-15 -33l-2 1l-5 -36l-19 3l-4 -3l-12 -3l-4 8l-15 -12l-21 35l16 11l-20 12l19 36l-5 41l22 3l2 22l39 -5l-2 -21l4 19l31 -9l30 11l6 -20l6 20l28 -11l29 16l9 -20l3 20l28 -6
l33 17l8 -20l3 20l72 -13l-3 -20l8 20l24 -12l27 22l13 -20l6 20l36 -12l-5 -20l12 -7l-12 -24l3 -18l-11 -3l-7 -16l-25 12l-8 -6l2 -1l-13 -25l3 -36l-18 -2l17 -12l-12 -22l21 -28l-18 -17l18 -17l-20 -25l15 -22l-18 -15l18 1l1 -40l-18 -1l18 -7l-13 -40l4 -69l6 -40
l-18 -4l18 -2l-4 -40l-18 2l18 -4l-5 -30l15 -37l-18 -9l16 2l3 -37h-1l3 -28l8 -13l20 13l10 -18l4 9l18 -10l-5 -9l21 -1z" />
    <glyph glyph-name="germandbls" unicode="&#xdf;" horiz-adv-x="547" 
d="M531 70l13 -19l-20 -17l8 -33l-21 -7l7 -21l-38 -17l-69 -70l-12 14v-21h-28l-25 -24l-13 16l2 -19l-30 -3l1 -2l-37 -18l-8 21l20 30l-31 53l30 -1v-24l8 21l21 -10l22 28l18 -18l2 21l32 -3l18 14l35 109l-17 64l15 9l-18 -3l-6 33l-77 23l-2 20l-8 -16l-28 15l-24 10
l-26 -15l-8 18l-7 -21l-38 15l6 21l-21 9l16 47l21 -9l-16 13l23 34l15 -12l2 12l15 -2l-3 8l73 33l8 -19l-5 23l39 8l34 15l11 53l-32 40l-43 90l-23 -17l-11 19l6 -19l-113 -30l14 -27l-12 -34l-4 1l-11 -32l-15 6l14 -23l-32 -24l11 -61l-18 -5l18 -1l-2 -39l-17 1l17 -8
l-14 -39l-6 -29l12 -35l-18 -8l18 -1l-2 -28l21 -38l-18 -12l17 -21l-32 -32l2 -14l30 -29l-15 -18l22 -2l-1 -10l10 4l7 -23l8 14l25 -17l-8 -14l7 -4l-6 -16l-8 4l1 -20l-30 -3l-26 -17l-10 16l-1 -20l-22 1l-18 -33l-19 13l5 -24l-43 -11l-5 24l-23 6l10 51l3 -1l-6 31
l18 5l-18 9l18 40l-11 64l18 7l-18 2l6 68l-21 40l18 12l-17 19l24 27l-12 21l18 13l-18 1l2 40v38h18l-20 12l18 37l-7 36l21 5l-20 3l5 45l21 -3l-17 18l33 37l17 -18l9 79l35 6l29 27l12 -17l-7 20l30 13l32 25l11 -18l15 23l43 3l17 -19l3 20l35 -5l-2 -20l17 15l24 -33
l20 1v-19l8 17l30 -17l2 4l38 -21l-10 -21l22 -4l-6 -50l11 -25l-17 -10l15 -13l-22 -30v-28l-17 1l12 -12l-21 -28l-13 12l10 -14l-26 -22l-10 15l7 -17l-56 -29l3 -4l34 10l6 -25l10 20l73 -49l-12 -20l16 10l18 -36l-16 -9h19v-42l13 -24l-15 -10l17 -11l-14 -24l17 -28z
" />
    <glyph glyph-name="eacute" unicode="&#xe9;" horiz-adv-x="527" 
d="M479 238l19 -8l-28 -84l-19 7l12 -21l-26 -18l-3 -42l-24 2l5 -23l-43 -11l-1 3l-20 -11l2 -1l-27 -42l-18 15l4 -22l-40 -10l-4 22l-5 -22l-40 11l5 22l-9 -20l-25 14l-35 -17l-9 23l-10 -19l-34 22v1l-32 14l7 20l-10 -21l-37 22l10 21l-20 6l10 43l20 -6l11 15l24 -22
l1 3l27 -16l37 11l6 -24l4 21l38 -9v-1l30 4l2 -20v22h24l14 32l20 -11l-8 18l32 17l-1 2l31 19l22 63l-14 39l12 5l-21 9l-31 -13l-7 20l-6 -20l-63 7l-2 20l-8 -20l-36 16l-57 -15l-7 20l-4 -20l-26 6l-38 -15l-8 22l-10 3l6 23l-5 2l1 68l17 3l-18 1l1 40l18 -1l-17 7
l12 38l17 -6l-12 16l24 22l22 37l17 -12l-1 24l37 2l26 24l13 -17l11 22l35 -21l24 10l7 -20l9 18l26 -17h36v-22l12 16l29 -26l-11 -16l17 9l15 -34l24 -25l-12 -16l14 16l30 -31l-14 -16l21 -3l-5 -48h-2l6 -32h1l10 -40h2l14 -45zM361 371v-6l-1 -1l-8 32l14 12l-17 -6
l2 -5l-21 31l15 12l-18 -5l-8 33l6 -5l10 16l-17 -5l1 -6l-23 18l10 16l-12 -15l-21 21l8 1l-2 20l-12 -15l6 -6l-28 -5l-3 21l3 -22l-31 -3l1 1l-11 19l2 -21l8 1l-33 -24l-1 2l3 6l-13 11l10 -17l-15 -21l1 4l-16 4l13 -11l2 3l-6 -28h-17l16 -4l1 1l-1 -34l-1 2l-15 -1
l15 -1l1 -22l-4 3l-10 -13l15 1l-1 9l11 -9v-22l9 13l-9 9h40v-22l6 21l35 -11l-5 -1l4 -23l6 22l-5 2l35 8l4 -23l-2 25l44 4l2 -24l1 24l27 -2l-1 -23l15 -1l1 23l-15 1v5l16 5zM372 280v-1l2 1h-2z" />
    <glyph glyph-name="endash" unicode="&#x2013;" horiz-adv-x="492" 
d="M458 308l-19 1l6 -17l-30 -14l-6 17l-6 -20l-66 13v20l-1 -20l-36 3l-63 -3v-1l-35 -16l-7 20l-10 -20l-32 19l-26 -6l-4 20l-2 -20l-35 4v1l-31 -4l-2 19l-24 -3l-5 54l25 3l3 22l40 -8v-3l64 3l4 -20l1 20l69 3l2 -20l2 20l64 7l5 -20l1 20l106 -4v-20l3 17l31 -7
l-3 -17l19 -1z" />
    <glyph glyph-name="emdash" unicode="&#x2014;" horiz-adv-x="966" 
d="M923 271l-10 -31l-55 22l3 11l-26 8l-30 -18l-10 20l4 -20l-37 -8l-4 20l-6 -20l-30 11l-30 -12l-7 21l-2 -21l-100 -5l-7 21l-7 -21l-65 26l-30 -13l-7 20l4 -20l-36 -10l-5 20l-4 -20l-36 9l4 20l-11 -20l-35 22l-55 -11v-1l-36 -20l-9 21l-3 -21l-36 8l3 20l-9 -20
l-36 20v1l-29 3l2 20l-4 -22l-19 4l1 -2l-50 -40l-41 47l35 52l23 -19l5 10h9l36 12l6 -21l-4 21l36 8l4 -20l6 20l36 -13l46 -5l36 48l22 -20l2 20l37 -4l-2 -20l17 20l36 -39l-1 -2l13 -1l35 19l9 -20l-4 20l36 9l4 -20l8 20l37 -17l-1 -1l15 -4l31 37l20 -20l16 20l39 3
l17 -20l20 20l21 -24l17 16l15 -20l-1 20l36 4l1 -20l10 20l36 -22v-1l16 -6l47 24l11 -26l35 3l6 -77z" />
    <glyph glyph-name="quoteleft" unicode="&#x2018;" horiz-adv-x="212" 
d="M184 381l15 -6l-11 -35l-16 7l17 -11l-19 -38l-17 11l-4 -30l-53 7l3 30l-9 -12l-23 19l9 13l-13 -8l-14 27l-3 -2l-19 34l16 10l-18 1l-8 74l18 5l-16 10l19 35l12 34l16 -7l-15 9l16 33l-3 1l17 41l18 -9l15 5l10 -32l-14 -6l18 -9l-14 -109l-19 -7l16 5l5 -20l66 -11
l-1 -21l17 1l3 -37z" />
    <glyph glyph-name="quoteright" unicode="&#x2019;" horiz-adv-x="220" 
d="M180 388l-17 2l14 -12l-18 -28l-15 -37l-17 8l9 -18l-34 -19l-23 -21l-11 14l12 -18l-34 -27l-12 18l-16 2l3 36l16 -2l-11 19l54 91l19 -5l-19 8l-13 31l8 21l-9 -19l-35 21l9 19l-19 4l8 42l19 -4l-12 16l29 26l12 -16l-2 19l35 3l2 -19l5 28l50 -12l-6 -28l15 7
l11 -33l-14 -6l15 4l6 -33l-14 -3l17 -8z" />
    <glyph glyph-name="quotedblleft" unicode="&#x201c;" horiz-adv-x="409" 
d="M361 323l-18 10l11 -14l-24 -26l-12 14l9 -18l-33 -20l-9 18l-14 -25l-44 31l14 24l-13 -7l-13 28l13 7l-14 -6l-12 31l14 7l-17 8l15 38l1 -1l5 33l17 -3l-14 10l17 31l17 35l15 -9l-11 15l27 26l12 -16l-11 16l28 24l11 -16l-10 18l31 22l10 -17l13 -4l-7 -30l-13 3
l11 -16l-40 -59l-12 -35l18 -36l-7 -21l8 21l38 -18l-8 -21l18 -10zM202 588l-11 4l8 -19l-53 -47l-19 -32l1 -1l-13 -27l18 -20l29 -22l-10 -18l17 -7l-13 -39l-18 8l7 -20l-36 -15l-6 20l4 -21l-37 -9l-4 21l-20 -20l-35 43l19 20l-14 -3l-11 63l15 3l-14 12l24 65l19 -4
l-11 17l57 45l28 25l11 -16l-3 20l36 7v-2l22 14l8 -15l12 -3z" />
    <glyph glyph-name="quotedblright" unicode="&#x201d;" horiz-adv-x="409" 
d="M22 572l19 -9l-11 14l24 26l12 -14l-9 18l33 20l9 -18l13 24l45 -30l-14 -25l13 7l13 -28l-13 -7l14 7l12 -31l-14 -7l17 -9l-16 -37l-6 -32l-17 3l15 -10l-18 -32h1l-17 -35l-16 9l12 -15l-27 -25l-12 15l11 -15l-28 -24l-11 15l10 -17l-31 -22l-10 17l-14 4l7 30l14 -4
l-11 17l39 59l1 -1l12 36l-18 35l7 22l-8 -21l-38 18l8 21l-19 9zM181 307l12 -3l-8 19l53 47l19 32l-2 1l13 26l-18 20l1 1l-30 21l11 18l-17 8l13 38l18 -7l-7 20l36 14l6 -19l-4 20l37 9l4 -20l19 19l36 -42l-19 -20l13 3l11 -63l-14 -3l14 -12l-24 -65l-19 3l11 -16
l-31 -23l-54 -47l-11 15l3 -20l-36 -6v1l-22 -14l-8 15l-12 4z" />
    <glyph glyph-name="bullet" unicode="&#x2022;" horiz-adv-x="949" 
d="M519 720l4 23l-19 -13l5 -8zM579 659l9 23l-21 -2l1 -16zM590 586l18 9l-19 -4zM630 508l-16 4l-2 -12zM358 510l-16 -2l17 -5zM363 603l-21 -5l18 -10l4 8zM379 629l-19 10l16 -14zM421 713l-22 8l5 -24l13 3zM99 78l-22 -4l12 -15l11 11zM150 160l-17 4l9 -15l7 5z
M194 198l-12 13l8 -17zM364 -38l-7 16l-11 -5zM236 -84l10 -15l-1 18l-6 -1zM176 -77l-2 -22l6 21zM808 -97l18 -13l-11 17l-4 1zM778 -117l12 -20l4 24l-9 2zM700 -111l3 -24l14 13l-10 12zM626 -54l-4 -19l14 10l-5 8zM804 183l-14 -7l4 -12zM845 42l14 11l-16 -2v-6z
M934 81l-1 -73l-21 -8l7 -73l-20 -4l-34 17l26 7l-34 12l2 14l-4 27l-16 -22l6 38l-2 29l-17 27l13 11l-15 -5l-30 85l-37 23l10 21l-13 -17l-9 10l-4 -34l-19 2l18 -8l-14 -41l-18 8l11 -19l-36 -24l-63 -94l-17 13l-3 -17l15 -16l-11 -13l13 11l14 -23l30 -6l-4 -20l11 13
l23 -25l-11 -12l13 13l14 -18l36 7l4 -24l4 24l34 -8l29 21l1 -3l42 -9l26 -25l-99 -59l-9 18l6 -19l-35 -12l-5 19l-2 -20l-37 5l-70 -1l-1 21l-8 -18l-127 89l9 18l-18 -8l-5 14l-17 -23l-15 14l9 -20l-58 -46l-14 16l11 -19l-33 -23l-11 18l6 -21l-37 -13l-7 21l-6 -23
l-39 17l-105 -4l-2 22l-19 -12l-26 43l4 94l24 -29l-6 2l-5 -22l11 20l32 -9l36 -3l-2 -4l1 -18l1 18l24 2l24 20l10 -15l-5 17l77 33l19 38l-73 69l12 17l-17 -8l-15 38l18 8l-18 -5l-19 77l-1 -1l-7 22l-10 -13l-16 15l9 -19l-36 -20l-1 3l-41 -40l-6 -33l-17 4l11 -12
l-37 -43l6 -40l-22 -4l21 -5l-2 -38l-10 8l-18 -13l22 -5l-19 -13l-47 24l16 10l-17 -6l-11 38l18 6l-19 2l6 77l-2 42l19 1l-17 10l18 36l17 -10l-15 13l61 102l16 -11l-7 20l104 52l7 -19l3 21l34 1l-1 11l14 8l-14 -5l-34 117l19 8l-19 6l28 122l19 -6l-13 16l19 20l6 45
l22 -4l-5 23l41 9l24 18l10 -17l-6 18l29 12l31 27l12 -18l-2 -48l5 -24l-30 -7l-10 -34l-22 8l16 -14l-23 -32l-14 -32l8 -40l-21 -5l19 -5l-9 -43h-2l1 -13l19 13l9 -16l-6 18l28 13l32 26l12 -18l1 21l37 -2l-1 -20l9 19l34 -21l77 -24l-16 44l20 9l-20 -4l-6 41l-15 37
l18 9l-22 -2l-2 31l-30 14l9 23l-19 -13l-19 34l-25 5l7 4l-10 47l9 19l34 -21l61 -23l38 -6l-3 -21l9 19l33 -21l-9 -18l15 14l26 -33l-15 -15l19 7l31 -74l-16 -12l19 4l8 -42l-19 -4l19 -5l-5 -80l-19 -1l19 -3l-4 -43l-19 2l18 -8l-9 -26l7 -15l25 -5l-4 -21l11 18
l66 -36l-6 -21l12 17l30 -27l-12 -17l18 10l41 -65l-14 -15l17 12l21 -37l-16 -12l18 7l13 -42l-19 -7l20 -7zM625 259l-3 -13h-1l-5 8l-7 -10l-16 13l-4 -24l-28 5l-10 -22l-11 6l9 -12l-19 1l-21 15l9 4l-7 19l-15 14l2 28l18 8l-1 3l26 22l-2 -3l7 -7l2 1l-7 9l25 29
l1 -4l13 -10l-12 12l14 22l-4 38l8 1l6 16l-15 -1l1 -16l-30 14l9 23l-19 -13l-19 34l-25 5l7 4l-10 21l-4 -23l7 -2l-32 -17l-9 21l4 -24l-30 -7l-10 -34l-21 8l15 -14l-22 -31v-28l31 -20l-2 -6l23 -7l-2 -10l4 -5l8 6l10 -15l19 -2l1 -25l-18 -8l-10 -27l9 -3l-29 -11
l-8 11l-56 24l-1 7l-16 -2l17 -5l4 -28l-16 -3l16 -2l-2 -27l-4 5l-13 -13l16 -1l1 9l19 -25l-14 -13l16 2l7 -59l-6 4l-11 -21h17v17l27 -17l-13 14l21 22l-10 13l5 7l-4 14l19 8l-19 7l12 38l10 -14l11 16l9 4l-4 -10l26 -9l17 9l-4 10l9 -4l27 -8l-9 -12l12 -33l-21 -9
h20v-39l-9 -6h9v5l7 -34l2 1l15 -15l-12 17l24 30l18 53l17 -1l-15 7l12 31l15 -6l-14 8l13 54l14 7zM543 70l-8 -13l12 10z" />
    <glyph glyph-name="ellipsis" unicode="&#x2026;" horiz-adv-x="966" 
d="M854 61l-23 9l9 -26l-48 -20l-9 26l-11 -24l-44 24l11 24l-22 -11l-21 49l22 11l-23 10l16 53l24 -9l-7 26l48 16l7 -27l7 26l47 -16l-7 -26l23 9l18 -52l-23 -10l24 -9zM546 99l23 -12l-23 -50l-22 12l5 -28l-51 -11l-5 28l-15 -23l-42 33l15 23l-25 -7l-13 56l25 7
l-20 17l31 46l20 -17l-3 26l48 7l3 -26l12 23l43 -26l-12 -24l24 4l7 -54zM265 60l-24 8l7 -27l-49 -17l-8 27l-10 -24l-44 23l10 24l-22 -13l-23 50l23 12l-23 12l21 51l23 -12l-10 26l46 22l9 -26l10 27l47 -21l-9 -26l24 9l16 -52l-23 -10l24 -8z" />
    <glyph glyph-name="uniF000" unicode="&#xf000;" horiz-adv-x="949" 
d="M519 720l4 23l-19 -13l5 -8zM579 659l9 23l-21 -2l1 -16zM590 586l18 9l-19 -4zM630 508l-16 4l-2 -12zM358 510l-16 -2l17 -5zM363 603l-21 -5l18 -10l4 8zM379 629l-19 10l16 -14zM421 713l-22 8l5 -24l13 3zM99 78l-22 -4l12 -15l11 11zM150 160l-17 4l9 -15l7 5z
M194 198l-12 13l8 -17zM364 -38l-7 16l-11 -5zM236 -84l10 -15l-1 18l-6 -1zM176 -77l-2 -22l6 21zM808 -97l18 -13l-11 17l-4 1zM778 -117l12 -20l4 24l-9 2zM700 -111l3 -24l14 13l-10 12zM626 -54l-4 -19l14 10l-5 8zM804 183l-14 -7l4 -12zM845 42l14 11l-16 -2v-6z
M934 81l-1 -73l-21 -8l7 -73l-20 -4l-34 17l26 7l-34 12l2 14l-4 27l-16 -22l6 38l-2 29l-17 27l13 11l-15 -5l-30 85l-37 23l10 21l-13 -17l-9 10l-4 -34l-19 2l18 -8l-14 -41l-18 8l11 -19l-36 -24l-63 -94l-17 13l-3 -17l15 -16l-11 -13l13 11l14 -23l30 -6l-4 -20l11 13
l23 -25l-11 -12l13 13l14 -18l36 7l4 -24l4 24l34 -8l29 21l1 -3l42 -9l26 -25l-99 -59l-9 18l6 -19l-35 -12l-5 19l-2 -20l-37 5l-70 -1l-1 21l-8 -18l-127 89l9 18l-18 -8l-5 14l-17 -23l-15 14l9 -20l-58 -46l-14 16l11 -19l-33 -23l-11 18l6 -21l-37 -13l-7 21l-6 -23
l-39 17l-105 -4l-2 22l-19 -12l-26 43l4 94l24 -29l-6 2l-5 -22l11 20l32 -9l36 -3l-2 -4l1 -18l1 18l24 2l24 20l10 -15l-5 17l77 33l19 38l-73 69l12 17l-17 -8l-15 38l18 8l-18 -5l-19 77l-1 -1l-7 22l-10 -13l-16 15l9 -19l-36 -20l-1 3l-41 -40l-6 -33l-17 4l11 -12
l-37 -43l6 -40l-22 -4l21 -5l-2 -38l-10 8l-18 -13l22 -5l-19 -13l-47 24l16 10l-17 -6l-11 38l18 6l-19 2l6 77l-2 42l19 1l-17 10l18 36l17 -10l-15 13l61 102l16 -11l-7 20l104 52l7 -19l3 21l34 1l-1 11l14 8l-14 -5l-34 117l19 8l-19 6l28 122l19 -6l-13 16l19 20l6 45
l22 -4l-5 23l41 9l24 18l10 -17l-6 18l29 12l31 27l12 -18l-2 -48l5 -24l-30 -7l-10 -34l-22 8l16 -14l-23 -32l-14 -32l8 -40l-21 -5l19 -5l-9 -43h-2l1 -13l19 13l9 -16l-6 18l28 13l32 26l12 -18l1 21l37 -2l-1 -20l9 19l34 -21l77 -24l-16 44l20 9l-20 -4l-6 41l-15 37
l18 9l-22 -2l-2 31l-30 14l9 23l-19 -13l-19 34l-25 5l7 4l-10 47l9 19l34 -21l61 -23l38 -6l-3 -21l9 19l33 -21l-9 -18l15 14l26 -33l-15 -15l19 7l31 -74l-16 -12l19 4l8 -42l-19 -4l19 -5l-5 -80l-19 -1l19 -3l-4 -43l-19 2l18 -8l-9 -26l7 -15l25 -5l-4 -21l11 18
l66 -36l-6 -21l12 17l30 -27l-12 -17l18 10l41 -65l-14 -15l17 12l21 -37l-16 -12l18 7l13 -42l-19 -7l20 -7zM625 259l-3 -13h-1l-5 8l-7 -10l-16 13l-4 -24l-28 5l-10 -22l-11 6l9 -12l-19 1l-21 15l9 4l-7 19l-15 14l2 28l18 8l-1 3l26 22l-2 -3l7 -7l2 1l-7 9l25 29
l1 -4l13 -10l-12 12l14 22l-4 38l8 1l6 16l-15 -1l1 -16l-30 14l9 23l-19 -13l-19 34l-25 5l7 4l-10 21l-4 -23l7 -2l-32 -17l-9 21l4 -24l-30 -7l-10 -34l-21 8l15 -14l-22 -31v-28l31 -20l-2 -6l23 -7l-2 -10l4 -5l8 6l10 -15l19 -2l1 -25l-18 -8l-10 -27l9 -3l-29 -11
l-8 11l-56 24l-1 7l-16 -2l17 -5l4 -28l-16 -3l16 -2l-2 -27l-4 5l-13 -13l16 -1l1 9l19 -25l-14 -13l16 2l7 -59l-6 4l-11 -21h17v17l27 -17l-13 14l21 22l-10 13l5 7l-4 14l19 8l-19 7l12 38l10 -14l11 16l9 4l-4 -10l26 -9l17 9l-4 10l9 -4l27 -8l-9 -12l12 -33l-21 -9
h20v-39l-9 -6h9v5l7 -34l2 1l15 -15l-12 17l24 30l18 53l17 -1l-15 7l12 31l15 -6l-14 8l13 54l14 7zM543 70l-8 -13l12 10z" />
    <glyph glyph-name="uniF001" unicode="&#xf001;" horiz-adv-x="633" 
d="M615 -64l-12 3l-5 -21l-35 10l-70 -13l-39 -18l-8 22l-13 -22l-32 23l-29 -11l-7 23l-15 2l5 32l14 -2l-10 2l5 22l10 -3l9 18l26 -16l9 5l3 31l18 -2l-18 14l24 34l-3 19l-1 -1l-21 41l18 12l-18 2l3 40l18 -2l-18 14l19 32l-11 27l18 8l-18 -7l-13 41l19 7l-19 3l6 40
l18 -3l-18 11l16 33l-4 13l-25 -2l-2 22l-7 -22l-31 12l-32 -16l-9 22l5 -22l-40 -10l-4 22l-7 -22l-37 15l-1 -4l-14 3l2 -12h-3l14 -35l-18 -9l18 -3l-6 -41l-18 3l18 -14l-16 -25l18 -26l-18 -16l18 -16l-22 -31l9 -25l-18 -8l18 -6l-7 -69h1l8 -34l22 -16l-9 -16l17 10
l31 -11l8 -20l5 6l10 -12l-5 -6l12 -3l-6 -27l-12 3l-5 -19l-27 9l-32 -10l-5 19l-7 -19l-24 10l-29 -21l-12 20l-1 -20l-36 3l1 20l-10 -20l-26 17l-26 -14l-9 20l-17 -9l-16 38l28 23l21 -21h8l5 36l22 -4l-10 17l14 10l-13 23l18 13l-19 15l21 30l-13 25l19 11h-19v40h18
l-18 2l3 41l18 -2l-18 10l16 37l-6 30l19 4l-19 6l9 31l-15 33l18 10l-14 -1l-1 10l-16 -3l-3 18l-7 -22l-39 15l6 22l-22 -5l-9 50l23 5l12 27l46 -25l-8 22l24 11l-18 9l15 72l19 1l-17 10l18 37l16 -10l-15 12l21 33l15 -12l-8 18l24 13l25 37l16 -14v21l38 1v-21l2 20
l67 2l3 -20l15 15l19 -22l34 5l3 -24l13 -1l-3 -29l-13 2l12 -15l-27 -27l-22 -27l-12 13l-12 -5l-4 12l-2 -3l-40 18l1 5l-31 12l-21 -5h5l-3 -48l-21 1l21 -6l-10 -47h-2l-3 -40l-5 1l2 -16l21 -20l30 8l5 -22l-4 21l36 8v1l39 17l8 -22l-3 22l40 5l2 -22l17 22l36 -35
l14 3l-3 5l46 35l15 -26l24 7l12 -54l-25 -6l19 -10l-18 -41l3 -31l-19 -1l18 -14l-15 -27l17 -28l-19 -14l19 -7l-9 -33l12 -35l-19 -8l19 3l6 -41l-18 -3l18 -11l-20 -42l-1 1l-6 -56l30 -17l-10 -22l18 7l10 -30l18 1v-7l5 6l17 -9z" />
    <glyph glyph-name="uniF002" unicode="&#xf002;" horiz-adv-x="636" 
d="M608 -70l3 -24l-42 -6l-3 23l-11 -22l-28 17l-28 -19l-12 22l-10 -22l-39 23v1l-60 -1l-4 19l-11 -1l-1 23l10 1l5 4l-6 15l28 13l2 -4l11 12l7 -7l-10 19l29 18l3 13l-26 39l20 16l-20 15l17 26l-19 28l19 16l-19 18l31 41l-12 63l20 6l-20 6l9 35l-11 37l19 8l-19 10
l10 23l-26 31l19 20l-17 13l20 31v26l-26 26l3 3l-28 25l12 15l-17 -12l-17 27h-30v23l-10 -20l-31 18l-22 -10l-1 1l-17 -17l4 -3l-31 -76h-2l7 -22l1 1l12 -35l-15 -7l12 -5l-4 -12l3 -2l28 25l13 -19l9 18l34 -20l-2 -4l24 -5l-3 -16l20 10l16 -44l-20 -9l-12 -26l-37 23
l-18 -15l-12 19l-3 -18l-33 7v2h-4l4 -14l-17 -6l18 -9l-19 -72h-18l19 -4l-7 -106l20 -41l-18 -10l18 -13l-19 -33l30 -59l-17 -12l22 -7l-6 -25l17 -4v-2l31 2l1 -20l3 -3l12 2l2 -27l-12 -1l7 -19l-34 -16l-7 19l-5 -19l-27 7l-31 -16l-8 20l-3 -20l-71 10l2 20l-8 -20
l-36 19l2 5l-23 3l2 15l-8 -3l-6 19l8 3l-6 4l7 14l6 -4l8 17l22 -11l24 4l8 23l-22 31l19 17h-18l-3 79l18 2l-18 5l10 41l18 -6l-18 8l12 73h18l-18 1l-19 69l18 11l-18 -4l-7 40l18 4l-18 11v-3l-48 -8l-4 27l-24 4l7 53l24 -4l12 24l34 -21l6 4l-10 29l22 9l-18 14
l20 32l-7 33l20 6l-15 15l28 33l15 -16l-9 18l27 16l13 31l17 -8l-6 18l33 15l6 -19l-1 20l63 12v1l34 18l8 -19l15 15l13 -17l40 15l9 -28l12 21l36 -25l17 5v2l36 15l7 -20l20 -1l-2 -46l-20 1l18 -9l-15 -37l4 -28l1 1l13 -41l-19 -7l18 -11l-15 -32l10 -29h1l17 -40
l-18 -10l18 3l4 -41l-18 -2l18 -13l-23 -40l-1 1l-3 -31l-18 2l18 -7l-8 -28l19 -33l-18 -13l18 6l12 -40l-18 -6l18 -4v-73l-18 -4l17 1l2 -39l-18 -1l19 -16l-22 -33l7 -23l22 -16l24 9l5 -15l8 5l15 -31zM98 395z" />
    <glyph glyph-name="glyph107" horiz-adv-x="590" 
 />
    <glyph glyph-name="glyph108" horiz-adv-x="527" 
d="M372 280v-1l2 1h-2z" />
  </font>
</defs>
</svg>
